%
M48
M72
T01C0.0197
T02C0.0236
T03C0.0276
T04C0.0315
T05C0.0320
T06C0.0360
T07C0.0400
T08C0.0433
T09C0.0470
T10C0.0512
T11C0.0550
T12C0.0600
T13C0.0787
T14C0.1575
%
T01
X45100Y10400
X45600Y22900
T02
X45600Y24900
X45100Y25650
X43100Y24900
X42600Y25650
X48100Y26650
X49100Y19900
X49850Y19900
X43100Y14150
X42350Y11400
X45100Y7650
X48600Y13650
T03
X50100Y35650
T04
X46600Y21150
T05
X45600Y22150
X44100Y23150
X43100Y23150
X42100Y23150
X41100Y23150
X40100Y23150
X39100Y23150
X38100Y23150
X38100Y20150
X39100Y20150
X40100Y20150
X40100Y19150
X41100Y19150
X41100Y20150
X42100Y20150
X43100Y20150
X44100Y20150
X43100Y19150
X46100Y19650
X47100Y19650
X48100Y19650
X51100Y19150
X51100Y20650
X49600Y22150
X55100Y20650
X57100Y19650
X55100Y19150
X57100Y18150
X61100Y18150
X61100Y19650
X51600Y16650
X51600Y15650
X51600Y14650
X47600Y14150
X47600Y13150
X47600Y12150
X47600Y11150
X46600Y9650
X46600Y8650
X46600Y6650
X46600Y5400
X43100Y4400
X42100Y4400
X41100Y4400
X42600Y5400
X42600Y6650
X42100Y7650
X41100Y7650
X42600Y8650
X43100Y7650
X42600Y9650
X44600Y11150
X44600Y12150
X44600Y13150
X44600Y14150
X44600Y15150
X44600Y16150
X43100Y15150
X42100Y14650
X42100Y13650
X42350Y12400
X39100Y13650
X39100Y14650
X38100Y15150
X39100Y15650
X40100Y15150
X41100Y15150
X42100Y15650
X44600Y17150
X47600Y17150
X47600Y16150
X47600Y15150
X50600Y11650
X50600Y10650
X50600Y9650
X45600Y2900
X41600Y2900
X40100Y5650
X39100Y5650
X38100Y5650
X37100Y5650
X36100Y5650
X35100Y5650
X34100Y5650
X33100Y5650
X32100Y5650
X31100Y5650
X30100Y5650
X29100Y5650
X28100Y5650
X27100Y5650
X26100Y5650
X26100Y9650
X27100Y9650
X28100Y9650
X29100Y9650
X30100Y9650
X31100Y9650
X32100Y9650
X33100Y9650
X34100Y9650
X35100Y9650
X36100Y9650
X37100Y9650
X38100Y9650
X39100Y9650
X40100Y9650
X38350Y12400
X36100Y13650
X36100Y14650
X35100Y15150
X34100Y15150
X33100Y15650
X32100Y15150
X31100Y15150
X30100Y14650
X30100Y13650
X29100Y15150
X30100Y15650
X28100Y15150
X27100Y14650
X27100Y13650
X26100Y15150
X27100Y15650
X26100Y19150
X28100Y19150
X29100Y19150
X31100Y19150
X32100Y19150
X34100Y19150
X35100Y19150
X37100Y19150
X38100Y19150
X36100Y15650
X37100Y15150
X33100Y14650
X33100Y13650
X26350Y20650
X26350Y22650
X26350Y25150
X26350Y27150
X30100Y29150
X32600Y30650
X33600Y31650
X34600Y30650
X35600Y31650
X36600Y30650
X37600Y30650
X39600Y31650
X40600Y30650
X41600Y30650
X42600Y31650
X44100Y30650
X45100Y30650
X47100Y31650
X48100Y30650
X49100Y30650
X49100Y34650
X48100Y34650
X47100Y34650
X45100Y34650
X44100Y34650
X42600Y34650
X41600Y34650
X40600Y34650
X39600Y34650
X37600Y34650
X36600Y34650
X35600Y34650
X33600Y34650
X31100Y34650
X31100Y31650
X34100Y29150
X34850Y28650
X34850Y29650
X4100Y26150
X1100Y26150
X1100Y23150
X4100Y23150
X3600Y16650
X1600Y16650
X1600Y13150
X3600Y13150
X3600Y9150
X1600Y9150
X5100Y7150
X7100Y7150
X9100Y7150
X11100Y7150
X13100Y7150
X15100Y7150
X17100Y7150
X19100Y7150
X19100Y3150
X19100Y2150
X19100Y1150
X17100Y1150
X17100Y2150
X17100Y3150
X15100Y3150
X15100Y2150
X15100Y1150
X13100Y1150
X13100Y2150
X13100Y3150
X11100Y3150
X11100Y2150
X11100Y1150
X9100Y1150
X9100Y2150
X9100Y3150
X7100Y3150
X7100Y2150
X7100Y1150
X5100Y1150
X5100Y2150
X5100Y3150
X3600Y32650
X1600Y32650
T06
X29100Y34650
X29100Y28650
X28600Y3650
X29600Y3650
X30600Y3650
X31600Y3650
X32600Y3650
X33600Y3650
X34600Y3650
X35600Y3650
X36600Y3650
X37600Y3650
X37600Y2650
X36600Y2650
X35600Y2650
X34600Y2650
X33600Y2650
X32600Y2650
X31600Y2650
X30600Y2650
X29600Y2650
X28600Y2650
X27600Y2650
X26600Y2650
X25600Y2650
X25600Y3650
X26600Y3650
X27600Y3650
T07
X48600Y2650
X48600Y5650
X55100Y8650
X58100Y8650
X60100Y8650
X62100Y8650
X57600Y5650
X57600Y2650
X58100Y11650
X60100Y11650
X62100Y11650
X62100Y13650
X60100Y13650
X58100Y13650
X55100Y13650
X55100Y11650
X55100Y16650
X58100Y16650
X60100Y16650
X62100Y16650
X34100Y20650
X34100Y22650
X34100Y25150
X34100Y27150
X29600Y27150
X29600Y25150
X29600Y22650
X29600Y20650
X3600Y20150
X1600Y20150
X1600Y29400
X3600Y29400
T08
X6650Y31150
X7650Y31150
X8650Y31150
X9650Y31150
X15550Y31150
X16550Y31150
X17550Y31150
X17550Y37150
X16550Y37150
X15550Y37150
X9650Y37150
X8650Y37150
X7650Y37150
X6650Y37150
T09
X26600Y34150
X26600Y30150
X45600Y23650
X49600Y23650
X53600Y16650
X53600Y12650
X52600Y11650
X52600Y7650
T10
X52139Y22662
X52139Y25638
X49561Y26122
X49561Y29099
X52139Y29662
X52139Y32638
X58092Y32638
X60076Y32638
X62061Y32638
X62061Y29662
X60076Y29662
X58092Y29662
X58092Y25638
X60076Y25638
X62061Y25638
X62061Y22662
X60076Y22662
X58092Y22662
X43608Y26122
X41624Y26122
X39639Y26122
X39639Y29099
X41624Y29099
X43608Y29099
T11
X43100Y37150
X45100Y37150
X47100Y37150
X50600Y37150
X52600Y37150
X54600Y37150
X56600Y37150
X39600Y37150
X37600Y37150
X35600Y37150
X32100Y37150
X30100Y37150
X28100Y37150
T12
X19100Y38150
X11100Y35150
X11100Y33150
X19100Y30150
X24100Y25650
X24100Y23650
X24100Y20650
X24100Y18650
X24100Y15650
X24100Y12650
X6100Y17650
X6100Y19650
X6100Y23650
T13
X50350Y33650
T14
X3100Y3150
X3100Y36400
X60100Y36400
X60100Y3150
M30
