G75*
G70*
%OFA0B0*%
%FSLAX24Y24*%
%IPPOS*%
%LPD*%
%AMOC8*
5,1,8,0,0,1.08239X$1,22.5*
%
%ADD10C,0.1655*%
%ADD11OC8,0.0640*%
%ADD12C,0.0905*%
%ADD13C,0.1261*%
%ADD14C,0.0848*%
%ADD15C,0.0785*%
%ADD16OC8,0.0600*%
%ADD17C,0.1064*%
%ADD18C,0.0600*%
%ADD19C,0.0680*%
%ADD20OC8,0.0680*%
%ADD21C,0.1080*%
%ADD22OC8,0.1080*%
%ADD23OC8,0.1280*%
%ADD24OC8,0.0730*%
%ADD25C,0.1261*%
%ADD26C,0.0476*%
%ADD27C,0.0437*%
%ADD28C,0.0516*%
%ADD29C,0.0555*%
D10*
X003100Y003150D03*
X003100Y036400D03*
X060100Y036400D03*
X060100Y003150D03*
D11*
X037600Y002650D03*
X036600Y002650D03*
X035600Y002650D03*
X034600Y002650D03*
X033600Y002650D03*
X032600Y002650D03*
X031600Y002650D03*
X030600Y002650D03*
X029600Y002650D03*
X028600Y002650D03*
X027600Y002650D03*
X026600Y002650D03*
X025600Y002650D03*
X025600Y003650D03*
X026600Y003650D03*
X027600Y003650D03*
X028600Y003650D03*
X029600Y003650D03*
X030600Y003650D03*
X031600Y003650D03*
X032600Y003650D03*
X033600Y003650D03*
X034600Y003650D03*
X035600Y003650D03*
X036600Y003650D03*
X037600Y003650D03*
X029100Y028650D03*
X029100Y034650D03*
D12*
X028100Y036738D02*
X028100Y037563D01*
X030100Y037563D02*
X030100Y036738D01*
X032100Y036738D02*
X032100Y037563D01*
X035600Y037563D02*
X035600Y036738D01*
X037600Y036738D02*
X037600Y037563D01*
X039600Y037563D02*
X039600Y036738D01*
X043100Y036738D02*
X043100Y037563D01*
X045100Y037563D02*
X045100Y036738D01*
X047100Y036738D02*
X047100Y037563D01*
X050600Y037563D02*
X050600Y036738D01*
X052600Y036738D02*
X052600Y037563D01*
X054600Y037563D02*
X054600Y036738D01*
X056600Y036738D02*
X056600Y037563D01*
D13*
X058092Y033229D02*
X058092Y032048D01*
X058092Y030252D02*
X058092Y029071D01*
X060076Y029071D02*
X060076Y030252D01*
X062061Y030252D02*
X062061Y029071D01*
X062061Y026229D02*
X062061Y025048D01*
X060076Y025048D02*
X060076Y026229D01*
X058092Y026229D02*
X058092Y025048D01*
X058092Y023252D02*
X058092Y022071D01*
X060076Y022071D02*
X060076Y023252D01*
X062061Y023252D02*
X062061Y022071D01*
X062061Y032048D02*
X062061Y033229D01*
X060076Y033229D02*
X060076Y032048D01*
D14*
X052139Y032638D03*
X052139Y029662D03*
X049561Y029099D03*
X049561Y026122D03*
X052139Y025638D03*
X052139Y022662D03*
D15*
X049953Y023650D02*
X049248Y023650D01*
X045953Y023650D02*
X045248Y023650D01*
X053600Y017003D02*
X053600Y016298D01*
X053600Y013003D02*
X053600Y012298D01*
X052600Y012003D02*
X052600Y011298D01*
X052600Y008003D02*
X052600Y007298D01*
X026600Y029798D02*
X026600Y030503D01*
X026600Y033798D02*
X026600Y034503D01*
D16*
X031100Y034650D03*
X033600Y034650D03*
X035600Y034650D03*
X036600Y034650D03*
X037600Y034650D03*
X039600Y034650D03*
X040600Y034650D03*
X041600Y034650D03*
X042600Y034650D03*
X044100Y034650D03*
X045100Y034650D03*
X047100Y034650D03*
X048100Y034650D03*
X049100Y034650D03*
X047100Y031650D03*
X048100Y030650D03*
X049100Y030650D03*
X045100Y030650D03*
X044100Y030650D03*
X042600Y031650D03*
X041600Y030650D03*
X040600Y030650D03*
X039600Y031650D03*
X037600Y030650D03*
X036600Y030650D03*
X035600Y031650D03*
X034600Y030650D03*
X033600Y031650D03*
X032600Y030650D03*
X031100Y031650D03*
X030100Y029150D03*
X034100Y029150D03*
X034850Y028650D03*
X034850Y029650D03*
X026350Y027150D03*
X026350Y025150D03*
X026350Y022650D03*
X026350Y020650D03*
X026100Y019150D03*
X028100Y019150D03*
X029100Y019150D03*
X031100Y019150D03*
X032100Y019150D03*
X034100Y019150D03*
X035100Y019150D03*
X037100Y019150D03*
X038100Y019150D03*
X040100Y019150D03*
X041100Y019150D03*
X043100Y019150D03*
X045600Y022150D03*
X049600Y022150D03*
X051100Y020650D03*
X051100Y019150D03*
X055100Y019150D03*
X057100Y019650D03*
X055100Y020650D03*
X057100Y018150D03*
X061100Y018150D03*
X061100Y019650D03*
X046600Y009650D03*
X046600Y008650D03*
X046600Y006650D03*
X046600Y005400D03*
X045600Y002900D03*
X042600Y005400D03*
X042600Y006650D03*
X040100Y005650D03*
X039100Y005650D03*
X038100Y005650D03*
X037100Y005650D03*
X036100Y005650D03*
X035100Y005650D03*
X034100Y005650D03*
X033100Y005650D03*
X032100Y005650D03*
X031100Y005650D03*
X030100Y005650D03*
X029100Y005650D03*
X028100Y005650D03*
X027100Y005650D03*
X026100Y005650D03*
X026100Y009650D03*
X027100Y009650D03*
X028100Y009650D03*
X029100Y009650D03*
X030100Y009650D03*
X031100Y009650D03*
X032100Y009650D03*
X033100Y009650D03*
X034100Y009650D03*
X035100Y009650D03*
X036100Y009650D03*
X037100Y009650D03*
X038100Y009650D03*
X039100Y009650D03*
X040100Y009650D03*
X042600Y009650D03*
X042600Y008650D03*
X042350Y012400D03*
X043100Y015150D03*
X041100Y015150D03*
X040100Y015150D03*
X038100Y015150D03*
X037100Y015150D03*
X035100Y015150D03*
X034100Y015150D03*
X032100Y015150D03*
X031100Y015150D03*
X029100Y015150D03*
X028100Y015150D03*
X026100Y015150D03*
X038350Y012400D03*
X041600Y002900D03*
X019100Y003150D03*
X019100Y002150D03*
X019100Y001150D03*
X017100Y001150D03*
X017100Y002150D03*
X017100Y003150D03*
X015100Y003150D03*
X015100Y002150D03*
X015100Y001150D03*
X013100Y001150D03*
X013100Y002150D03*
X013100Y003150D03*
X011100Y003150D03*
X011100Y002150D03*
X011100Y001150D03*
X009100Y001150D03*
X009100Y002150D03*
X009100Y003150D03*
X007100Y003150D03*
X007100Y002150D03*
X007100Y001150D03*
X005100Y001150D03*
X005100Y002150D03*
X005100Y003150D03*
X005100Y007150D03*
X007100Y007150D03*
X009100Y007150D03*
X011100Y007150D03*
X013100Y007150D03*
X015100Y007150D03*
X017100Y007150D03*
X019100Y007150D03*
X003600Y009150D03*
X001600Y009150D03*
X001600Y013150D03*
X003600Y013150D03*
X003600Y016650D03*
X001600Y016650D03*
X001100Y023150D03*
X004100Y023150D03*
X004100Y026150D03*
X001100Y026150D03*
X001600Y032650D03*
X003600Y032650D03*
D17*
X039639Y029099D03*
X041624Y029099D03*
X043608Y029099D03*
X043608Y026122D03*
X041624Y026122D03*
X039639Y026122D03*
D18*
X040100Y023410D02*
X040100Y022890D01*
X039100Y022890D02*
X039100Y023410D01*
X038100Y023410D02*
X038100Y022890D01*
X041100Y022890D02*
X041100Y023410D01*
X042100Y023410D02*
X042100Y022890D01*
X043100Y022890D02*
X043100Y023410D01*
X044100Y023410D02*
X044100Y022890D01*
X044100Y020410D02*
X044100Y019890D01*
X043100Y019890D02*
X043100Y020410D01*
X042100Y020410D02*
X042100Y019890D01*
X041100Y019890D02*
X041100Y020410D01*
X040100Y020410D02*
X040100Y019890D01*
X039100Y019890D02*
X039100Y020410D01*
X038100Y020410D02*
X038100Y019890D01*
X044340Y017150D02*
X044860Y017150D01*
X044860Y016150D02*
X044340Y016150D01*
X044340Y015150D02*
X044860Y015150D01*
X044860Y014150D02*
X044340Y014150D01*
X044340Y013150D02*
X044860Y013150D01*
X044860Y012150D02*
X044340Y012150D01*
X044340Y011150D02*
X044860Y011150D01*
X047340Y011150D02*
X047860Y011150D01*
X047860Y012150D02*
X047340Y012150D01*
X047340Y013150D02*
X047860Y013150D01*
X047860Y014150D02*
X047340Y014150D01*
X047340Y015150D02*
X047860Y015150D01*
X047860Y016150D02*
X047340Y016150D01*
X047340Y017150D02*
X047860Y017150D01*
X048100Y019390D02*
X048100Y019910D01*
X047100Y019910D02*
X047100Y019390D01*
X046100Y019390D02*
X046100Y019910D01*
X051340Y016650D02*
X051860Y016650D01*
X051860Y015650D02*
X051340Y015650D01*
X051340Y014650D02*
X051860Y014650D01*
X050860Y011650D02*
X050340Y011650D01*
X050340Y010650D02*
X050860Y010650D01*
X050860Y009650D02*
X050340Y009650D01*
X043100Y007910D02*
X043100Y007390D01*
X042100Y007390D02*
X042100Y007910D01*
X041100Y007910D02*
X041100Y007390D01*
X041100Y004660D02*
X041100Y004140D01*
X042100Y004140D02*
X042100Y004660D01*
X043100Y004660D02*
X043100Y004140D01*
X042360Y013650D02*
X041840Y013650D01*
X041840Y014650D02*
X042360Y014650D01*
X042360Y015650D02*
X041840Y015650D01*
X039360Y015650D02*
X038840Y015650D01*
X038840Y014650D02*
X039360Y014650D01*
X039360Y013650D02*
X038840Y013650D01*
X036360Y013650D02*
X035840Y013650D01*
X035840Y014650D02*
X036360Y014650D01*
X036360Y015650D02*
X035840Y015650D01*
X033360Y015650D02*
X032840Y015650D01*
X032840Y014650D02*
X033360Y014650D01*
X033360Y013650D02*
X032840Y013650D01*
X030360Y013650D02*
X029840Y013650D01*
X029840Y014650D02*
X030360Y014650D01*
X030360Y015650D02*
X029840Y015650D01*
X027360Y015650D02*
X026840Y015650D01*
X026840Y014650D02*
X027360Y014650D01*
X027360Y013650D02*
X026840Y013650D01*
D19*
X055100Y013350D02*
X055100Y013950D01*
X058100Y013950D02*
X058100Y013350D01*
X058100Y011950D02*
X058100Y011350D01*
X060100Y011350D02*
X060100Y011950D01*
X060100Y013350D02*
X060100Y013950D01*
X062100Y013950D02*
X062100Y013350D01*
X062100Y011950D02*
X062100Y011350D01*
X062100Y008950D02*
X062100Y008350D01*
X060100Y008350D02*
X060100Y008950D01*
X058100Y008950D02*
X058100Y008350D01*
X055100Y008350D02*
X055100Y008950D01*
X055100Y011350D02*
X055100Y011950D01*
X055100Y016350D02*
X055100Y016950D01*
X058100Y016950D02*
X058100Y016350D01*
X060100Y016350D02*
X060100Y016950D01*
X062100Y016950D02*
X062100Y016350D01*
D20*
X057600Y005650D03*
X057600Y002650D03*
X048600Y002650D03*
X048600Y005650D03*
D21*
X034100Y020650D03*
X029600Y020650D03*
X029600Y027150D03*
X034100Y027150D03*
X003600Y029400D03*
X003600Y020150D03*
D22*
X001600Y020150D03*
X001600Y029400D03*
X029600Y025150D03*
X029600Y022650D03*
X034100Y022650D03*
X034100Y025150D03*
D23*
X024100Y025650D03*
X024100Y023650D03*
X024100Y020650D03*
X024100Y018650D03*
X024100Y015650D03*
X024100Y012650D03*
X006100Y017650D03*
X006100Y019650D03*
X006100Y023650D03*
X019100Y030150D03*
X011100Y033150D03*
X011100Y035150D03*
X019100Y038150D03*
D24*
X017550Y037150D03*
X016550Y037150D03*
X015550Y037150D03*
X009650Y037150D03*
X008650Y037150D03*
X007650Y037150D03*
X006650Y037150D03*
X006650Y031150D03*
X007650Y031150D03*
X008650Y031150D03*
X009650Y031150D03*
X015550Y031150D03*
X016550Y031150D03*
X017550Y031150D03*
D25*
X050350Y033650D03*
D26*
X048100Y026650D03*
X045600Y024900D03*
X045100Y025650D03*
X043100Y024900D03*
X042600Y025650D03*
X049100Y019900D03*
X049850Y019900D03*
X043100Y014150D03*
X042350Y011400D03*
X045100Y007650D03*
X048600Y013650D03*
D27*
X045100Y010400D03*
X045600Y022900D03*
D28*
X050100Y035650D03*
D29*
X046600Y021150D03*
M02*
