%
M48
M72
T01C0.0240
T02C0.0276
T03C0.0320
T04C0.0350
T05C0.0360
T06C0.0400
T07C0.0440
T08C0.0472
T09C0.0550
T10C0.0646
T11C0.1280
T12C0.1300
T13C0.1600
%
T01
X19661Y9601
X20661Y8601
X30661Y4851
X31786Y4101
X33911Y5101
X37161Y7351
X37036Y8476
X37911Y10101
X38536Y10601
X36786Y11476
X36161Y10976
X35536Y10976
X34911Y10976
X34661Y12226
X37036Y12226
X39411Y12351
X40411Y13101
X39911Y13851
X40411Y14851
X38911Y14851
X40411Y17601
X39411Y19351
X38911Y21101
X38036Y21601
X38911Y24101
X42411Y22601
X47911Y22101
X49911Y22101
X50411Y22601
X51911Y22601
X50411Y21101
X49411Y20601
X52036Y19101
X51661Y17851
X49911Y17851
X50536Y16351
X51161Y15851
X51786Y15851
X50661Y14851
X49661Y15851
X49661Y13476
X51161Y12351
X52661Y11351
X51911Y10976
X49661Y9851
X49161Y8851
X48161Y7601
X48661Y6601
X51161Y8351
X53161Y7851
X54161Y6851
X52411Y5601
X52911Y5101
X55661Y5101
X56661Y7351
X56161Y8851
X56161Y9476
X56661Y9726
X57661Y9976
X54661Y10101
X54661Y13601
X55911Y15101
X56411Y16101
X57536Y16476
X56411Y17851
X57661Y18601
X56536Y20101
X54911Y20101
X54411Y20601
X54911Y21601
X56411Y21601
X56661Y22101
X57536Y21601
X58786Y20601
X60411Y22601
X57161Y23101
X54911Y23976
X54911Y24476
X55786Y25601
X56911Y25101
X57411Y25601
X58411Y25101
X59661Y26101
X51911Y28851
X51911Y31101
X52911Y32101
X52411Y33601
X49161Y34101
X48661Y33101
X47536Y33101
X49161Y32101
X47161Y31851
X45536Y31976
X45411Y31351
X44786Y31351
X44161Y31351
X42411Y32601
X42411Y33601
X42911Y34101
X42411Y35101
X40661Y35601
X40036Y35226
X39911Y34601
X38661Y34601
X41161Y33601
X41161Y32601
X41661Y31726
X41161Y31351
X40161Y31351
X39286Y31601
X38661Y31601
X39536Y32101
X37411Y31601
X36911Y31851
X36661Y31351
X35911Y31351
X35286Y32101
X34661Y32101
X36161Y33101
X33911Y30851
X32161Y30851
X31411Y29101
X34911Y28351
X35411Y27851
X34911Y27101
X34411Y26601
X38286Y28726
X39286Y29726
X40161Y29851
X40661Y29351
X41161Y29851
X42161Y29851
X42786Y29851
X43661Y29351
X44161Y29976
X44786Y29976
X45411Y29976
X44661Y29226
X42161Y28851
X41661Y28101
X40661Y28601
X37411Y29851
X44661Y35601
X46786Y34101
X47161Y35101
X47786Y30226
X48661Y30226
X49911Y24101
X45911Y19101
X43161Y16351
X47661Y12101
X43661Y9101
X44161Y7351
X40661Y9101
X40286Y9601
X39536Y8601
X39911Y8101
X42661Y5101
X42161Y4601
X41161Y3351
X33786Y8601
X33161Y8601
X32536Y8226
X32161Y8601
X31411Y9101
X31661Y9601
X34661Y15601
X31411Y17851
X30161Y20101
X34411Y19101
X34911Y24101
X58036Y14476
T02
X20411Y36101
T03
X17661Y38101
X16161Y36601
X15161Y36601
X13661Y38101
X8161Y37976
X8161Y35976
X10161Y33101
X11161Y33101
X12161Y33101
X4161Y33101
X3161Y33101
X3161Y27101
X4161Y27101
X6161Y24851
X6161Y22851
X7161Y20101
X4161Y20101
X2161Y16101
X2161Y15101
X5161Y14101
X7161Y14101
X14161Y12101
X14161Y10101
X14161Y8101
X14161Y6101
X14161Y4101
X14161Y2101
X18161Y2101
X18161Y4101
X18161Y6101
X18161Y8101
X18161Y10101
X18161Y12101
X18161Y14101
X16661Y15351
X15661Y15351
X18161Y18101
X18161Y23101
X16161Y23101
X12161Y27101
X11161Y27101
X10161Y27101
X7161Y3101
X5161Y3101
X57161Y14101
X59161Y14101
X59161Y18101
X59161Y19101
X57161Y19101
X57161Y20101
X57161Y18101
X57161Y24101
T04
X12665Y10998
X12665Y9998
X11665Y10199
X11665Y9400
X10665Y9000
X10665Y8201
X10665Y7402
X10665Y6603
X11665Y7002
X11665Y6203
X12665Y6203
X12665Y7203
X11665Y7802
X10665Y9800
X10665Y10599
X11665Y10998
T05
X32161Y6601
X32161Y5601
X33161Y5601
X33161Y6601
X33161Y4601
X32161Y4601
X32161Y3601
X33161Y3601
X33161Y2601
X32161Y2601
X38161Y2601
X39161Y2601
X39161Y3601
X38161Y3601
X38161Y4601
X39161Y4601
X39161Y5601
X38161Y5601
X38161Y6601
X39161Y6601
X44161Y6601
X44161Y5601
X45161Y5601
X45161Y6601
X45161Y4601
X44161Y4601
X44161Y3601
X45161Y3601
X45161Y2601
X44161Y2601
X50161Y2601
X51161Y2601
X51161Y3601
X50161Y3601
X50161Y4601
X51161Y4601
X51161Y5601
X50161Y5601
X50161Y6601
X51161Y6601
X56161Y6601
X56161Y5601
X57161Y5601
X57161Y6601
X57161Y4601
X56161Y4601
X56161Y3601
X57161Y3601
X57161Y2601
X56161Y2601
X51161Y10501
X50161Y10501
X49161Y10501
X48161Y10501
X47161Y10501
X46161Y10501
X45161Y10501
X44161Y10501
X43161Y10501
X42161Y10501
X41161Y10501
X40161Y10501
X39161Y10501
X39161Y11501
X40161Y11501
X41161Y11501
X42161Y11501
X43161Y11501
X44161Y11501
X45161Y11501
X46161Y11501
X47161Y11501
X48161Y11501
X49161Y11501
X50161Y11501
X51161Y11501
X52761Y13101
X53761Y13101
X53761Y14101
X52761Y14101
X52761Y15101
X53761Y15101
X53761Y16101
X52761Y16101
X52761Y17101
X53761Y17101
X53761Y18101
X52761Y18101
X52761Y19101
X53761Y19101
X53761Y20101
X52761Y20101
X52761Y21101
X53761Y21101
X53761Y22101
X52761Y22101
X52761Y23101
X53761Y23101
X53761Y24101
X52761Y24101
X52761Y25101
X53761Y25101
X51161Y26701
X50161Y26701
X49161Y26701
X48161Y26701
X47161Y26701
X46161Y26701
X45161Y26701
X44161Y26701
X43161Y26701
X42161Y26701
X41161Y26701
X40161Y26701
X39161Y26701
X39161Y27701
X40161Y27701
X41161Y27701
X42161Y27701
X43161Y27701
X44161Y27701
X45161Y27701
X46161Y27701
X47161Y27701
X48161Y27701
X49161Y27701
X50161Y27701
X51161Y27701
X51161Y33101
X50161Y33101
X50161Y34101
X51161Y34101
X51161Y35101
X50161Y35101
X50161Y36101
X51161Y36101
X51161Y37101
X50161Y37101
X45161Y37101
X44161Y37101
X44161Y36101
X45161Y36101
X45161Y35101
X44161Y35101
X44161Y34101
X45161Y34101
X45161Y33101
X44161Y33101
X39161Y33101
X38161Y33101
X38161Y34101
X39161Y34101
X39161Y35101
X38161Y35101
X38161Y36101
X39161Y36101
X39161Y37101
X38161Y37101
X33161Y37101
X32161Y37101
X32161Y36101
X33161Y36101
X33161Y35101
X32161Y35101
X32161Y34101
X33161Y34101
X33161Y33101
X32161Y33101
X36561Y25101
X37561Y25101
X37561Y24101
X36561Y24101
X36561Y23101
X37561Y23101
X37561Y22101
X36561Y22101
X36561Y21101
X37561Y21101
X37561Y20101
X36561Y20101
X36561Y19101
X37561Y19101
X37561Y18101
X36561Y18101
X36561Y17101
X37561Y17101
X37561Y16101
X36561Y16101
X36561Y15101
X37561Y15101
X37561Y14101
X36561Y14101
X36561Y13101
X37561Y13101
X56161Y33101
X57161Y33101
X57161Y34101
X56161Y34101
X56161Y35101
X57161Y35101
X57161Y36101
X56161Y36101
X56161Y37101
X57161Y37101
T06
X59161Y28101
X58161Y26601
X59161Y25101
X61161Y25101
X61161Y28101
X61161Y22101
X61161Y21101
X61161Y20101
X61161Y19101
X61161Y18101
X61161Y17101
X29161Y17101
X28161Y17101
X27161Y17101
X26161Y17101
X25161Y17101
X24161Y17101
X23161Y17101
X22161Y17101
X22161Y18101
X23161Y18101
X24161Y18101
X25161Y18101
X26161Y18101
X27161Y18101
X28161Y18101
X29161Y18101
X29161Y19101
X28161Y19101
X27161Y19101
X26161Y19101
X25161Y19101
X24161Y19101
X23161Y19101
X22161Y19101
X22161Y20101
X23161Y20101
X24161Y20101
X25161Y20101
X26161Y20101
X27161Y20101
X28161Y20101
X29161Y20101
X29161Y21101
X28161Y21101
X27161Y21101
X26161Y21101
X25161Y21101
X24161Y21101
X23161Y21101
X22161Y21101
X22161Y22101
X23161Y22101
X24161Y22101
X25161Y22101
X26161Y22101
X27161Y22101
X28161Y22101
X29161Y22101
X29161Y23101
X28161Y23101
X27161Y23101
X26161Y23101
X25161Y23101
X24161Y23101
X23161Y23101
X22161Y23101
X22161Y24101
X23161Y24101
X24161Y24101
X25161Y24101
X26161Y24101
X27161Y24101
X28161Y24101
X29161Y24101
X29161Y25101
X28161Y25101
X27161Y25101
X26161Y25101
X25161Y25101
X24161Y25101
X23161Y25101
X22161Y25101
X22161Y26101
X23161Y26101
X24161Y26101
X25161Y26101
X26161Y26101
X27161Y26101
X28161Y26101
X29161Y26101
X29161Y27101
X28161Y27101
X27161Y27101
X26161Y27101
X25161Y27101
X24161Y27101
X23161Y27101
X22161Y27101
X22161Y28101
X23161Y28101
X24161Y28101
X25161Y28101
X26161Y28101
X27161Y28101
X28161Y28101
X29161Y28101
X29161Y29101
X28161Y29101
X27161Y29101
X26161Y29101
X25161Y29101
X24161Y29101
X23161Y29101
X22161Y29101
X22161Y30101
X23161Y30101
X24161Y30101
X25161Y30101
X26161Y30101
X27161Y30101
X28161Y30101
X29161Y30101
X29161Y31101
X28161Y31101
X27161Y31101
X26161Y31101
X25161Y31101
X24161Y31101
X23161Y31101
X22161Y31101
X22161Y32101
X23161Y32101
X24161Y32101
X25161Y32101
X26161Y32101
X27161Y32101
X28161Y32101
X29161Y32101
X18161Y25101
X17161Y25101
X16161Y25101
X16161Y20101
X18161Y20101
X22161Y16101
X23161Y16101
X23161Y15101
X22161Y15101
X22161Y14101
X23161Y14101
X23161Y13101
X22161Y13101
X22161Y12101
X23161Y12101
X23161Y11101
X22161Y11101
X22161Y10101
X23161Y10101
X24161Y10101
X25161Y10101
X26161Y10101
X27161Y10101
X28161Y10101
X29161Y10101
X29161Y11101
X28161Y11101
X27161Y11101
X26161Y11101
X25161Y11101
X24161Y11101
X24161Y12101
X25161Y12101
X26161Y12101
X27161Y12101
X28161Y12101
X29161Y12101
X29161Y13101
X28161Y13101
X27161Y13101
X26161Y13101
X25161Y13101
X24161Y13101
X24161Y14101
X25161Y14101
X26161Y14101
X27161Y14101
X28161Y14101
X29161Y14101
X29161Y15101
X28161Y15101
X27161Y15101
X26161Y15101
X25161Y15101
X24161Y15101
X24161Y16101
X25161Y16101
X26161Y16101
X27161Y16101
X28161Y16101
X29161Y16101
X29161Y9101
X28161Y9101
X27161Y9101
X26161Y9101
X25161Y9101
X24161Y9101
X23161Y9101
X22161Y9101
X22161Y8101
X23161Y8101
X24161Y8101
X25161Y8101
X26161Y8101
X27161Y8101
X28161Y8101
X29161Y8101
X29161Y7101
X28161Y7101
X27161Y7101
X26161Y7101
X25161Y7101
X24161Y7101
X23161Y7101
X22161Y7101
X22161Y6101
X23161Y6101
X24161Y6101
X25161Y6101
X26161Y6101
X27161Y6101
X28161Y6101
X29161Y6101
X29161Y5101
X28161Y5101
X27161Y5101
X26161Y5101
X25161Y5101
X24161Y5101
X23161Y5101
X22161Y5101
X22161Y4101
X23161Y4101
X24161Y4101
X25161Y4101
X26161Y4101
X27161Y4101
X28161Y4101
X29161Y4101
X3161Y22851
X3161Y24851
X11161Y35851
X11161Y37851
T07
X12161Y20101
X8161Y20101
T08
X2161Y20101
X2161Y19101
X2161Y18101
T09
X6161Y18101
X12161Y18101
T10
X3413Y11776
X3413Y5426
T11
X4661Y6101
X4661Y11101
T12
X17161Y32001
T13
X2130Y2857
X4492Y36715
X61185Y36715
X61185Y2857
M30
