G75*
G70*
%OFA0B0*%
%FSLAX24Y24*%
%IPPOS*%
%LPD*%
%AMOC8*
5,1,8,0,0,1.08239X$1,22.5*
%
%ADD10C,0.0060*%
%ADD11OC8,0.0560*%
%ADD12C,0.0520*%
%ADD13OC8,0.0520*%
%ADD14C,0.0705*%
%ADD15OC8,0.0600*%
%ADD16C,0.1000*%
%ADD17OC8,0.1000*%
%ADD18C,0.0120*%
%ADD19C,0.0240*%
%ADD20C,0.0531*%
%ADD21C,0.0396*%
D10*
X025630Y016487D02*
X026057Y016914D01*
X026057Y016487D01*
X025950Y016380D01*
X025737Y016380D01*
X025630Y016487D01*
X025630Y016914D01*
X025737Y017021D01*
X025950Y017021D01*
X026057Y016914D01*
X026275Y016807D02*
X026488Y017021D01*
X026488Y016380D01*
X026275Y016380D02*
X026702Y016380D01*
X026919Y016700D02*
X027346Y016700D01*
X027564Y016914D02*
X027670Y017021D01*
X027884Y017021D01*
X027991Y016914D01*
X027991Y016807D01*
X027564Y016380D01*
X027991Y016380D01*
X028208Y016487D02*
X028635Y016914D01*
X028635Y016487D01*
X028528Y016380D01*
X028315Y016380D01*
X028208Y016487D01*
X028208Y016914D01*
X028315Y017021D01*
X028528Y017021D01*
X028635Y016914D01*
X028853Y016807D02*
X029066Y017021D01*
X029066Y016380D01*
X028853Y016380D02*
X029280Y016380D01*
X029497Y016380D02*
X029924Y016807D01*
X029924Y016914D01*
X029818Y017021D01*
X029604Y017021D01*
X029497Y016914D01*
X029497Y016380D02*
X029924Y016380D01*
X031457Y025166D02*
X031564Y025166D01*
X031670Y025273D01*
X031670Y025807D01*
X031350Y025807D01*
X031243Y025700D01*
X031243Y025487D01*
X031350Y025380D01*
X031670Y025380D01*
X031888Y025380D02*
X031888Y025807D01*
X032208Y025807D01*
X032315Y025700D01*
X032315Y025380D01*
X033177Y025380D02*
X033177Y026021D01*
X033177Y025807D02*
X033497Y025807D01*
X033604Y025700D01*
X033604Y025487D01*
X033497Y025380D01*
X033177Y025380D01*
X033822Y025487D02*
X033822Y025807D01*
X033822Y025487D02*
X033928Y025380D01*
X034249Y025380D01*
X034249Y025273D02*
X034142Y025166D01*
X034035Y025166D01*
X034249Y025273D02*
X034249Y025807D01*
X034115Y026273D02*
X034542Y026273D01*
X034759Y026487D02*
X034759Y026914D01*
X034866Y027021D01*
X035079Y027021D01*
X035186Y026914D01*
X035186Y026700D02*
X034973Y026700D01*
X035186Y026700D02*
X035186Y026487D01*
X035079Y026380D01*
X034866Y026380D01*
X034759Y026487D01*
X035404Y026380D02*
X035831Y026380D01*
X036048Y026380D02*
X036048Y027021D01*
X036475Y026380D01*
X036475Y027021D01*
X035831Y027021D02*
X035404Y027021D01*
X035404Y026380D01*
X035404Y026700D02*
X035617Y026700D01*
X035538Y026021D02*
X035324Y026021D01*
X035431Y026021D02*
X035431Y025487D01*
X035324Y025380D01*
X035217Y025380D01*
X035111Y025487D01*
X035755Y025487D02*
X035862Y025380D01*
X036075Y025380D01*
X036182Y025487D01*
X036182Y025594D01*
X036075Y025700D01*
X035862Y025700D01*
X035755Y025807D01*
X035755Y025914D01*
X035862Y026021D01*
X036075Y026021D01*
X036182Y025914D01*
X036400Y026021D02*
X036613Y026021D01*
X036507Y026021D02*
X036507Y025380D01*
X036613Y025380D02*
X036400Y025380D01*
X036829Y025380D02*
X036829Y026021D01*
X037256Y026021D01*
X037043Y025700D02*
X036829Y025700D01*
X033897Y026487D02*
X033790Y026380D01*
X033577Y026380D01*
X033470Y026487D01*
X033684Y026700D02*
X033790Y026700D01*
X033897Y026594D01*
X033897Y026487D01*
X033790Y026700D02*
X033897Y026807D01*
X033897Y026914D01*
X033790Y027021D01*
X033577Y027021D01*
X033470Y026914D01*
X033253Y026273D02*
X032825Y026273D01*
X032608Y026487D02*
X032608Y026914D01*
X032501Y027021D01*
X032181Y027021D01*
X032181Y026380D01*
X032501Y026380D01*
X032608Y026487D01*
X031963Y026380D02*
X031750Y026594D01*
X031857Y026594D02*
X031536Y026594D01*
X031536Y026380D02*
X031536Y027021D01*
X031857Y027021D01*
X031963Y026914D01*
X031963Y026700D01*
X031857Y026594D01*
X031319Y026700D02*
X030892Y026700D01*
X030892Y026807D02*
X031105Y027021D01*
X031319Y026807D01*
X031319Y026380D01*
X030892Y026380D02*
X030892Y026807D01*
X030674Y026914D02*
X030568Y027021D01*
X030354Y027021D01*
X030247Y026914D01*
X030247Y026487D01*
X030354Y026380D01*
X030568Y026380D01*
X030674Y026487D01*
X030674Y026914D01*
X030030Y026914D02*
X029923Y027021D01*
X029603Y027021D01*
X029603Y026380D01*
X029923Y026380D01*
X030030Y026487D01*
X030030Y026594D01*
X029923Y026700D01*
X029603Y026700D01*
X029923Y026700D02*
X030030Y026807D01*
X030030Y026914D01*
X029385Y026273D02*
X028958Y026273D01*
X028880Y026021D02*
X029200Y026021D01*
X029307Y025914D01*
X029307Y025487D01*
X029200Y025380D01*
X028880Y025380D01*
X028880Y026021D01*
X028634Y026380D02*
X028420Y026380D01*
X028314Y026487D01*
X028314Y026914D01*
X028420Y027021D01*
X028634Y027021D01*
X028741Y026914D01*
X028741Y026487D01*
X028634Y026380D01*
X027883Y026380D02*
X027883Y027021D01*
X028096Y027021D02*
X027669Y027021D01*
X027452Y026914D02*
X027345Y027021D01*
X027025Y027021D01*
X027025Y026380D01*
X027025Y026594D02*
X027345Y026594D01*
X027452Y026700D01*
X027452Y026914D01*
X026807Y026914D02*
X026807Y026487D01*
X026700Y026380D01*
X026487Y026380D01*
X026380Y026487D01*
X026380Y026914D01*
X026487Y027021D01*
X026700Y027021D01*
X026807Y026914D01*
X029525Y025700D02*
X029631Y025807D01*
X029845Y025807D01*
X029952Y025700D01*
X029952Y025594D01*
X029525Y025594D01*
X029525Y025700D02*
X029525Y025487D01*
X029631Y025380D01*
X029845Y025380D01*
X030169Y025380D02*
X030489Y025380D01*
X030596Y025487D01*
X030489Y025594D01*
X030276Y025594D01*
X030169Y025700D01*
X030276Y025807D01*
X030596Y025807D01*
X030814Y025807D02*
X030920Y025807D01*
X030920Y025380D01*
X030814Y025380D02*
X031027Y025380D01*
X030920Y026021D02*
X030920Y026127D01*
D11*
X023100Y036100D03*
X023100Y037100D03*
X022100Y037100D03*
X021100Y037100D03*
X021100Y036100D03*
X022100Y036100D03*
X020100Y036100D03*
X019100Y036100D03*
X019100Y037100D03*
X020100Y037100D03*
X040100Y037100D03*
X040100Y036100D03*
X041100Y036100D03*
X042100Y036100D03*
X042100Y037100D03*
X041100Y037100D03*
X043100Y037100D03*
X044100Y037100D03*
X044100Y036100D03*
X043100Y036100D03*
X037600Y003600D03*
X036600Y003600D03*
X035600Y003600D03*
X034600Y003600D03*
X033600Y003600D03*
X032600Y003600D03*
X031600Y003600D03*
X030600Y003600D03*
X029600Y003600D03*
X028600Y003600D03*
X027600Y003600D03*
X026600Y003600D03*
X025600Y003600D03*
X025600Y002600D03*
X026600Y002600D03*
X027600Y002600D03*
X028600Y002600D03*
X029600Y002600D03*
X030600Y002600D03*
X031600Y002600D03*
X032600Y002600D03*
X033600Y002600D03*
X034600Y002600D03*
X035600Y002600D03*
X036600Y002600D03*
X037600Y002600D03*
D12*
X051080Y017100D02*
X051600Y017100D01*
X051600Y018100D02*
X051080Y018100D01*
X050120Y018100D02*
X049600Y018100D01*
X049600Y019100D02*
X050120Y019100D01*
X051080Y019100D02*
X051600Y019100D01*
X051600Y020100D02*
X051080Y020100D01*
X050120Y020100D02*
X049600Y020100D01*
X049600Y021100D02*
X050120Y021100D01*
X051080Y021100D02*
X051600Y021100D01*
X051600Y022100D02*
X051080Y022100D01*
X050120Y022100D02*
X049600Y022100D01*
X049600Y023100D02*
X050120Y023100D01*
X051080Y023100D02*
X051600Y023100D01*
X051600Y024100D02*
X051080Y024100D01*
X050120Y024100D02*
X049600Y024100D01*
X049600Y025100D02*
X050120Y025100D01*
X051080Y026100D02*
X051600Y026100D01*
X051600Y027100D02*
X051080Y027100D01*
X050120Y027100D02*
X049600Y027100D01*
X049600Y028100D02*
X050120Y028100D01*
X051080Y028100D02*
X051600Y028100D01*
X051600Y029100D02*
X051080Y029100D01*
X050120Y029100D02*
X049600Y029100D01*
X049600Y030100D02*
X050120Y030100D01*
X051080Y030100D02*
X051600Y030100D01*
X051600Y031100D02*
X051080Y031100D01*
X050120Y031100D02*
X049600Y031100D01*
X049600Y032100D02*
X050120Y032100D01*
X051080Y032100D02*
X051600Y032100D01*
X051600Y033100D02*
X051080Y033100D01*
X050120Y033100D02*
X049600Y033100D01*
X049600Y034100D02*
X050120Y034100D01*
X046600Y034100D02*
X046080Y034100D01*
X046080Y033100D02*
X046600Y033100D01*
X046600Y032100D02*
X046080Y032100D01*
X046080Y031100D02*
X046600Y031100D01*
X046600Y030100D02*
X046080Y030100D01*
X046080Y029100D02*
X046600Y029100D01*
X046600Y028100D02*
X046080Y028100D01*
X046080Y027100D02*
X046600Y027100D01*
X046600Y025100D02*
X046080Y025100D01*
X046080Y024100D02*
X046600Y024100D01*
X046600Y023100D02*
X046080Y023100D01*
X046080Y022100D02*
X046600Y022100D01*
X046600Y021100D02*
X046080Y021100D01*
X046080Y020100D02*
X046600Y020100D01*
X046600Y019100D02*
X046080Y019100D01*
X046080Y018100D02*
X046600Y018100D01*
X054600Y018100D02*
X055120Y018100D01*
X055120Y017100D02*
X054600Y017100D01*
X054600Y019100D02*
X055120Y019100D01*
X055120Y020100D02*
X054600Y020100D01*
X054600Y021100D02*
X055120Y021100D01*
X055120Y022100D02*
X054600Y022100D01*
X054600Y023100D02*
X055120Y023100D01*
X055120Y024100D02*
X054600Y024100D01*
X054600Y026100D02*
X055120Y026100D01*
X055120Y027100D02*
X054600Y027100D01*
X054600Y028100D02*
X055120Y028100D01*
X055120Y029100D02*
X054600Y029100D01*
X054600Y030100D02*
X055120Y030100D01*
X055120Y031100D02*
X054600Y031100D01*
X054600Y032100D02*
X055120Y032100D01*
X055120Y033100D02*
X054600Y033100D01*
X033100Y023620D02*
X033100Y023100D01*
X032100Y023100D02*
X032100Y023620D01*
X031100Y023620D02*
X031100Y023100D01*
X030100Y023100D02*
X030100Y023620D01*
X030100Y020100D02*
X030100Y019580D01*
X031100Y019580D02*
X031100Y020100D01*
X032100Y020100D02*
X032100Y019580D01*
X033100Y019580D02*
X033100Y020100D01*
X017120Y020100D02*
X016600Y020100D01*
X016600Y019100D02*
X017120Y019100D01*
X017120Y018100D02*
X016600Y018100D01*
X016600Y017100D02*
X017120Y017100D01*
X013600Y017100D02*
X013080Y017100D01*
X013080Y018100D02*
X013600Y018100D01*
X012120Y018100D02*
X011600Y018100D01*
X011600Y019100D02*
X012120Y019100D01*
X013080Y019100D02*
X013600Y019100D01*
X013600Y020100D02*
X013080Y020100D01*
X012120Y020100D02*
X011600Y020100D01*
X011600Y021100D02*
X012120Y021100D01*
X013080Y021100D02*
X013600Y021100D01*
X013600Y022100D02*
X013080Y022100D01*
X012120Y022100D02*
X011600Y022100D01*
X011600Y023100D02*
X012120Y023100D01*
X013080Y023100D02*
X013600Y023100D01*
X013600Y024100D02*
X013080Y024100D01*
X012120Y024100D02*
X011600Y024100D01*
X011600Y025100D02*
X012120Y025100D01*
X013080Y026100D02*
X013600Y026100D01*
X013600Y027100D02*
X013080Y027100D01*
X012120Y027100D02*
X011600Y027100D01*
X011600Y028100D02*
X012120Y028100D01*
X013080Y028100D02*
X013600Y028100D01*
X013600Y029100D02*
X013080Y029100D01*
X012120Y029100D02*
X011600Y029100D01*
X011600Y030100D02*
X012120Y030100D01*
X013080Y030100D02*
X013600Y030100D01*
X013600Y031100D02*
X013080Y031100D01*
X012120Y031100D02*
X011600Y031100D01*
X011600Y032100D02*
X012120Y032100D01*
X013080Y032100D02*
X013600Y032100D01*
X013600Y033100D02*
X013080Y033100D01*
X012120Y033100D02*
X011600Y033100D01*
X011600Y034100D02*
X012120Y034100D01*
X008600Y034100D02*
X008080Y034100D01*
X008080Y033100D02*
X008600Y033100D01*
X008600Y032100D02*
X008080Y032100D01*
X008080Y031100D02*
X008600Y031100D01*
X008600Y030100D02*
X008080Y030100D01*
X008080Y029100D02*
X008600Y029100D01*
X008600Y028100D02*
X008080Y028100D01*
X008080Y027100D02*
X008600Y027100D01*
X008600Y025100D02*
X008080Y025100D01*
X008080Y024100D02*
X008600Y024100D01*
X008600Y023100D02*
X008080Y023100D01*
X008080Y022100D02*
X008600Y022100D01*
X008600Y021100D02*
X008080Y021100D01*
X008080Y020100D02*
X008600Y020100D01*
X008600Y019100D02*
X008080Y019100D01*
X008080Y018100D02*
X008600Y018100D01*
X016600Y021100D02*
X017120Y021100D01*
X017120Y022100D02*
X016600Y022100D01*
X016600Y023100D02*
X017120Y023100D01*
X017120Y024100D02*
X016600Y024100D01*
X016600Y026100D02*
X017120Y026100D01*
X017120Y027100D02*
X016600Y027100D01*
X016600Y028100D02*
X017120Y028100D01*
X017120Y029100D02*
X016600Y029100D01*
X016600Y030100D02*
X017120Y030100D01*
X017120Y031100D02*
X016600Y031100D01*
X016600Y032100D02*
X017120Y032100D01*
X017120Y033100D02*
X016600Y033100D01*
D13*
X018100Y032100D03*
X020100Y033100D03*
X021100Y033100D03*
X021100Y034100D03*
X020100Y034100D03*
X022100Y032100D03*
X022100Y030100D03*
X022100Y028100D03*
X022100Y026100D03*
X021850Y024600D03*
X023850Y024600D03*
X022100Y023100D03*
X022100Y021100D03*
X022100Y019100D03*
X022100Y017100D03*
X018100Y017100D03*
X018100Y019100D03*
X018100Y021100D03*
X018100Y023100D03*
X018100Y026100D03*
X018100Y028100D03*
X018100Y030100D03*
X007100Y030100D03*
X007100Y028100D03*
X007100Y025100D03*
X007100Y023100D03*
X007100Y021100D03*
X007100Y019100D03*
X003100Y019100D03*
X003100Y021100D03*
X003100Y023100D03*
X003100Y025100D03*
X003100Y028100D03*
X003100Y030100D03*
X003100Y032100D03*
X003100Y034100D03*
X007100Y034100D03*
X007100Y032100D03*
X026100Y020100D03*
X027100Y020100D03*
X027100Y019100D03*
X026100Y019100D03*
X028350Y019100D03*
X030350Y018100D03*
X032350Y018100D03*
X034850Y019100D03*
X036100Y019100D03*
X037100Y019100D03*
X037100Y020100D03*
X036100Y020100D03*
X034850Y023100D03*
X039350Y026600D03*
X041350Y026600D03*
X041100Y028100D03*
X041100Y030100D03*
X041100Y032100D03*
X041100Y034100D03*
X045100Y034100D03*
X045100Y032100D03*
X045100Y030100D03*
X045100Y028100D03*
X045100Y025100D03*
X045100Y023100D03*
X045100Y021100D03*
X045100Y019100D03*
X041100Y019100D03*
X041100Y021100D03*
X041100Y023100D03*
X041100Y025100D03*
X028350Y023100D03*
X035100Y016600D03*
X036100Y016600D03*
X037600Y014600D03*
X037100Y013600D03*
X035600Y013600D03*
X033600Y014600D03*
X032350Y011850D03*
X030350Y011850D03*
X030100Y009850D03*
X031600Y009850D03*
X035600Y009600D03*
X037100Y009600D03*
X039100Y009600D03*
X040600Y009600D03*
X042600Y009600D03*
X044100Y009600D03*
X046100Y009600D03*
X047600Y009600D03*
X049600Y009600D03*
X051100Y009600D03*
X051100Y008100D03*
X050100Y008100D03*
X047600Y008100D03*
X046600Y008100D03*
X044100Y008100D03*
X043100Y008100D03*
X040600Y008100D03*
X039600Y008100D03*
X037100Y008100D03*
X036100Y008100D03*
X031600Y005850D03*
X030100Y005850D03*
X027600Y008100D03*
X026600Y008100D03*
X026100Y009600D03*
X027600Y009600D03*
X024100Y009600D03*
X022600Y009600D03*
X020600Y009600D03*
X019100Y009600D03*
X017100Y009600D03*
X015600Y009600D03*
X013600Y009600D03*
X012100Y009600D03*
X012600Y008100D03*
X013600Y008100D03*
X016100Y008100D03*
X017100Y008100D03*
X019600Y008100D03*
X020600Y008100D03*
X023100Y008100D03*
X024100Y008100D03*
X024100Y013600D03*
X022600Y013600D03*
X020600Y013600D03*
X019100Y013600D03*
X017100Y013600D03*
X015600Y013600D03*
X013600Y013600D03*
X012100Y013600D03*
X010100Y013600D03*
X008600Y013600D03*
X006600Y013600D03*
X005100Y013600D03*
X003100Y013600D03*
X001600Y013600D03*
X001600Y009600D03*
X003100Y009600D03*
X003100Y008100D03*
X002100Y008100D03*
X005100Y009600D03*
X006600Y009600D03*
X008600Y009600D03*
X010100Y009600D03*
X010100Y008100D03*
X009100Y008100D03*
X006600Y008100D03*
X005600Y008100D03*
X009100Y002600D03*
X010100Y002600D03*
X011600Y002600D03*
X015600Y002600D03*
X026100Y013600D03*
X027600Y013600D03*
X039100Y013600D03*
X040600Y013600D03*
X042600Y013600D03*
X044100Y013600D03*
X046100Y013600D03*
X047600Y013600D03*
X049600Y013600D03*
X051100Y013600D03*
X053100Y013600D03*
X054600Y013600D03*
X056600Y013600D03*
X058100Y013600D03*
X060100Y013600D03*
X061600Y013600D03*
X060100Y017100D03*
X060100Y019100D03*
X060100Y021100D03*
X060100Y023100D03*
X060100Y026100D03*
X060100Y028100D03*
X060100Y030100D03*
X060100Y032100D03*
X056100Y032100D03*
X056100Y030100D03*
X056100Y028100D03*
X056100Y026100D03*
X056100Y023100D03*
X056100Y021100D03*
X056100Y019100D03*
X056100Y017100D03*
X056600Y009600D03*
X058100Y009600D03*
X058100Y008100D03*
X057100Y008100D03*
X054600Y008100D03*
X053600Y008100D03*
X053100Y009600D03*
X054600Y009600D03*
X060100Y009600D03*
X061600Y009600D03*
X061600Y008100D03*
X060600Y008100D03*
X045600Y003350D03*
X043600Y003350D03*
D14*
X033600Y007498D02*
X033600Y008203D01*
X033600Y011498D02*
X033600Y012203D01*
X021453Y002600D02*
X020748Y002600D01*
X017453Y002600D02*
X016748Y002600D01*
D15*
X026100Y027850D03*
X027100Y027850D03*
X027100Y028850D03*
X026100Y028850D03*
X026100Y029850D03*
X027100Y029850D03*
X027100Y030850D03*
X026100Y030850D03*
X026100Y031850D03*
X027100Y031850D03*
X027100Y032850D03*
X026100Y032850D03*
X026100Y033850D03*
X027100Y033850D03*
X027100Y034850D03*
X026100Y034850D03*
X026100Y035850D03*
X027100Y035850D03*
X027100Y036850D03*
X026100Y036850D03*
X026100Y037850D03*
X027100Y037850D03*
X028100Y037850D03*
X029100Y037850D03*
X030100Y037850D03*
X031100Y037850D03*
X032100Y037850D03*
X033100Y037850D03*
X034100Y037850D03*
X035100Y037850D03*
X036100Y037850D03*
X037100Y037850D03*
X037100Y036850D03*
X036100Y036850D03*
X036100Y035850D03*
X037100Y035850D03*
X037100Y034850D03*
X036100Y034850D03*
X036100Y033850D03*
X037100Y033850D03*
X037100Y032850D03*
X036100Y032850D03*
X036100Y031850D03*
X037100Y031850D03*
X037100Y030850D03*
X036100Y030850D03*
X036100Y029850D03*
X037100Y029850D03*
X037100Y028850D03*
X036100Y028850D03*
X036100Y027850D03*
X037100Y027850D03*
X035100Y027850D03*
X035100Y028850D03*
X034100Y028850D03*
X033100Y028850D03*
X033100Y027850D03*
X034100Y027850D03*
X032100Y027850D03*
X031100Y027850D03*
X031100Y028850D03*
X032100Y028850D03*
X032100Y029850D03*
X031100Y029850D03*
X031100Y030850D03*
X032100Y030850D03*
X033100Y030850D03*
X034100Y030850D03*
X034100Y029850D03*
X033100Y029850D03*
X035100Y029850D03*
X035100Y030850D03*
X035100Y031850D03*
X035100Y032850D03*
X034100Y032850D03*
X033100Y032850D03*
X033100Y031850D03*
X034100Y031850D03*
X032100Y031850D03*
X031100Y031850D03*
X031100Y032850D03*
X032100Y032850D03*
X032100Y033850D03*
X031100Y033850D03*
X031100Y034850D03*
X032100Y034850D03*
X033100Y034850D03*
X034100Y034850D03*
X034100Y033850D03*
X033100Y033850D03*
X035100Y033850D03*
X035100Y034850D03*
X035100Y035850D03*
X035100Y036850D03*
X034100Y036850D03*
X033100Y036850D03*
X033100Y035850D03*
X034100Y035850D03*
X032100Y035850D03*
X031100Y035850D03*
X031100Y036850D03*
X032100Y036850D03*
X030100Y036850D03*
X029100Y036850D03*
X029100Y035850D03*
X030100Y035850D03*
X030100Y034850D03*
X029100Y034850D03*
X029100Y033850D03*
X030100Y033850D03*
X030100Y032850D03*
X029100Y032850D03*
X029100Y031850D03*
X030100Y031850D03*
X030100Y030850D03*
X029100Y030850D03*
X029100Y029850D03*
X030100Y029850D03*
X030100Y028850D03*
X029100Y028850D03*
X029100Y027850D03*
X030100Y027850D03*
X028100Y027850D03*
X028100Y028850D03*
X028100Y029850D03*
X028100Y030850D03*
X028100Y031850D03*
X028100Y032850D03*
X028100Y033850D03*
X028100Y034850D03*
X028100Y035850D03*
X028100Y036850D03*
X028100Y038850D03*
X027100Y038850D03*
X026100Y038850D03*
X029100Y038850D03*
X030100Y038850D03*
X031100Y038850D03*
X032100Y038850D03*
X033100Y038850D03*
X034100Y038850D03*
X035100Y038850D03*
X036100Y038850D03*
X037100Y038850D03*
D16*
X032350Y015100D03*
X047600Y003350D03*
D17*
X049600Y003350D03*
X030350Y015100D03*
D18*
X028600Y012600D02*
X027600Y013600D01*
X026100Y013600D01*
X025100Y012600D02*
X025100Y007100D01*
X026350Y005850D01*
X027350Y005850D01*
X029100Y004100D01*
X029100Y003100D01*
X029600Y002600D01*
X028600Y002600D02*
X028100Y003100D01*
X028100Y004100D01*
X026850Y005350D01*
X019350Y005350D01*
X018100Y006600D01*
X018100Y012600D01*
X017100Y013600D01*
X015600Y013600D01*
X013600Y013600D02*
X013600Y013100D01*
X013100Y012600D01*
X013100Y006350D01*
X014350Y005100D01*
X026600Y005100D01*
X027600Y004100D01*
X027600Y003600D01*
X027100Y003850D02*
X027100Y003100D01*
X027600Y002600D01*
X026600Y002600D02*
X026100Y003100D01*
X025350Y003100D01*
X025100Y003350D01*
X025100Y004100D01*
X024850Y004350D01*
X005350Y004350D01*
X004100Y005600D01*
X004100Y012600D01*
X003100Y013600D01*
X001600Y013600D01*
X005100Y013600D02*
X006600Y013600D01*
X006850Y013600D01*
X007850Y012600D01*
X007850Y005850D01*
X009100Y004600D01*
X025600Y004600D01*
X026600Y003600D01*
X027100Y003850D02*
X026100Y004850D01*
X012350Y004850D01*
X011100Y006100D01*
X011100Y012600D01*
X010100Y013600D01*
X008600Y013600D01*
X012100Y013600D02*
X013600Y013600D01*
X019100Y013600D02*
X020600Y013600D01*
X021600Y012600D01*
X021600Y006850D01*
X022850Y005600D01*
X027100Y005600D01*
X028600Y004100D01*
X028600Y003600D01*
X029600Y003600D02*
X029600Y004100D01*
X028600Y005100D01*
X028600Y012600D01*
X030100Y010350D02*
X031100Y011350D01*
X031100Y020100D01*
X032100Y020100D02*
X032100Y019100D01*
X031600Y018350D01*
X031600Y009850D01*
X030100Y009850D02*
X030100Y010350D01*
X027600Y009600D02*
X027600Y008100D01*
X024100Y008100D02*
X024100Y009600D01*
X020600Y009600D02*
X020600Y008100D01*
X017100Y008100D02*
X017100Y009600D01*
X013600Y009600D02*
X013600Y008100D01*
X010100Y008100D02*
X010100Y009600D01*
X006600Y009600D02*
X006600Y008100D01*
X003100Y008100D02*
X003100Y009600D01*
X010100Y002600D02*
X011600Y002600D01*
X024100Y013600D02*
X025100Y012600D01*
X024100Y013600D02*
X022600Y013600D01*
X021100Y017100D02*
X018100Y017100D01*
X018100Y019100D02*
X021100Y019100D01*
X021850Y019850D01*
X022600Y019850D01*
X023100Y020350D01*
X023100Y036100D01*
X022600Y036600D02*
X022100Y037100D01*
X021600Y036600D02*
X021100Y037100D01*
X020600Y036600D02*
X020100Y037100D01*
X020600Y036600D02*
X020600Y030600D01*
X020100Y030100D01*
X018100Y030100D01*
X018100Y028100D02*
X020600Y028100D01*
X021100Y028600D01*
X021100Y033100D01*
X022100Y033100D02*
X022100Y036100D01*
X021600Y036600D02*
X021600Y026600D01*
X021100Y026100D01*
X018100Y026100D01*
X021100Y023100D02*
X021850Y023850D01*
X022100Y023850D01*
X022600Y024350D01*
X022600Y032600D01*
X022100Y033100D01*
X022600Y033100D02*
X022600Y036600D01*
X023100Y037100D02*
X023600Y036600D01*
X023600Y033100D01*
X023350Y032850D01*
X023350Y018350D01*
X022850Y017850D01*
X021850Y017850D01*
X021100Y017100D01*
X026100Y020100D02*
X026100Y024850D01*
X036850Y024850D01*
X037100Y024600D01*
X037100Y020100D01*
X036100Y020100D02*
X036100Y024100D01*
X035850Y024350D01*
X027850Y024350D01*
X027350Y024350D01*
X027100Y024100D01*
X027100Y020100D01*
X022850Y022350D02*
X022850Y032850D01*
X022600Y033100D01*
X024100Y033600D02*
X024100Y026100D01*
X025350Y024850D01*
X026100Y024850D01*
X025600Y025350D02*
X027850Y025350D01*
X025600Y025350D02*
X024600Y026350D01*
X024600Y034100D01*
X021100Y034100D02*
X021100Y036100D01*
X020100Y036100D02*
X020100Y034100D01*
X020100Y033100D02*
X020100Y032600D01*
X019600Y032100D01*
X018100Y032100D01*
X018100Y023100D02*
X021100Y023100D01*
X021850Y021850D02*
X022350Y021850D01*
X022850Y022350D01*
X021850Y021850D02*
X021100Y021100D01*
X018100Y021100D01*
X034600Y012600D02*
X034600Y007350D01*
X034100Y006850D01*
X034100Y006100D01*
X032100Y004100D01*
X032100Y003100D01*
X032600Y002600D01*
X033100Y003100D02*
X033600Y002600D01*
X033100Y003100D02*
X033100Y004100D01*
X034600Y005600D01*
X040350Y005600D01*
X041600Y006850D01*
X041600Y012600D01*
X042600Y013600D01*
X044100Y013600D01*
X045100Y012600D02*
X046100Y013600D01*
X047600Y013600D01*
X049600Y013600D02*
X050600Y012600D01*
X050600Y006100D01*
X049600Y005100D01*
X035100Y005100D01*
X034100Y004100D01*
X034100Y003100D01*
X034600Y002600D01*
X035100Y003100D02*
X035600Y002600D01*
X035100Y003100D02*
X035100Y004100D01*
X035600Y004600D01*
X054350Y004600D01*
X055600Y005850D01*
X055600Y012600D01*
X056600Y013600D01*
X058100Y013600D01*
X059100Y012600D02*
X059100Y005350D01*
X058100Y004350D01*
X036350Y004350D01*
X035600Y003600D01*
X034600Y003600D02*
X034600Y004100D01*
X035350Y004850D01*
X050850Y004850D01*
X052100Y006100D01*
X052100Y012600D01*
X053100Y013600D01*
X054600Y013600D01*
X051100Y013600D02*
X049600Y013600D01*
X045100Y012600D02*
X045100Y006350D01*
X044100Y005350D01*
X034850Y005350D01*
X033600Y004100D01*
X033600Y003600D01*
X032600Y003600D02*
X032600Y004100D01*
X034350Y005850D01*
X036850Y005850D01*
X038100Y007100D01*
X038100Y012600D01*
X039100Y013600D01*
X040600Y013600D01*
X037100Y013600D02*
X035600Y013600D01*
X034600Y012600D01*
X037100Y009600D02*
X037100Y008100D01*
X040600Y008100D02*
X040600Y009600D01*
X044100Y009600D02*
X044100Y008100D01*
X047600Y008100D02*
X047600Y009600D01*
X051100Y009600D02*
X051100Y008100D01*
X054600Y008100D02*
X054600Y009600D01*
X058100Y009600D02*
X058100Y008100D01*
X061600Y008100D02*
X061600Y009600D01*
X059100Y012600D02*
X060100Y013600D01*
X061600Y013600D01*
X045100Y019100D02*
X042100Y019100D01*
X041350Y019850D01*
X040350Y019850D01*
X039850Y020350D01*
X039850Y035100D01*
X040350Y035600D01*
X040600Y035600D01*
X041100Y036100D01*
X041600Y036600D02*
X041100Y037100D01*
X041600Y036600D02*
X041600Y035600D01*
X041350Y035350D01*
X040600Y035350D01*
X040100Y034850D01*
X040100Y022350D01*
X040600Y021850D01*
X041350Y021850D01*
X042100Y021100D01*
X045100Y021100D01*
X045100Y023100D02*
X042100Y023100D01*
X041350Y023850D01*
X040850Y023850D01*
X040350Y024350D01*
X040350Y034600D01*
X040850Y035100D01*
X041850Y035100D01*
X042100Y035350D01*
X042100Y036100D01*
X042600Y036600D02*
X042100Y037100D01*
X042600Y036600D02*
X042600Y035100D01*
X042100Y034600D01*
X040850Y034600D01*
X040600Y034350D01*
X040600Y026350D01*
X041100Y025850D01*
X041350Y025850D01*
X042100Y025100D01*
X045100Y025100D01*
X045100Y028100D02*
X043600Y028100D01*
X043100Y028600D01*
X043100Y036100D01*
X043600Y036600D02*
X043100Y037100D01*
X043600Y036600D02*
X043600Y030600D01*
X044100Y030100D01*
X045100Y030100D01*
X045100Y032100D02*
X044600Y032600D01*
X044600Y035600D01*
X044100Y036100D01*
X044100Y037100D02*
X044600Y037100D01*
X045100Y036600D01*
X045100Y034100D01*
X031600Y005850D02*
X031600Y003600D01*
X031100Y003100D02*
X031600Y002600D01*
X031100Y003100D02*
X031100Y004850D01*
X030100Y005850D01*
D19*
X001850Y000850D02*
X000600Y002100D01*
X000600Y014850D01*
X001850Y016100D01*
X009600Y016100D01*
X010850Y017350D01*
X010850Y019100D01*
X010850Y021100D01*
X011600Y021100D01*
X010850Y021100D02*
X010850Y023100D01*
X011600Y023100D01*
X010850Y023100D02*
X010850Y025100D01*
X011600Y025100D01*
X010850Y025100D02*
X010850Y028100D01*
X011600Y028100D01*
X010850Y028100D02*
X010850Y030100D01*
X011600Y030100D01*
X010850Y030100D02*
X010850Y032100D01*
X011600Y032100D01*
X010850Y032100D02*
X010850Y033850D01*
X011100Y034100D01*
X011600Y034100D01*
X009350Y033100D02*
X009350Y037350D01*
X009350Y033100D02*
X008600Y033100D01*
X009350Y033100D02*
X009350Y031100D01*
X009350Y029100D01*
X009350Y027100D01*
X008600Y027100D01*
X009350Y027100D02*
X009350Y024100D01*
X008600Y024100D01*
X009350Y024100D02*
X009350Y022100D01*
X008600Y022100D01*
X009350Y022100D02*
X009350Y020100D01*
X008600Y020100D01*
X009350Y020100D02*
X009350Y018350D01*
X009100Y018100D01*
X008600Y018100D01*
X010850Y019100D02*
X011600Y019100D01*
X013600Y019100D02*
X014350Y019100D01*
X014350Y017100D01*
X014350Y008600D01*
X014850Y008100D01*
X016100Y008100D01*
X015600Y002600D02*
X017100Y002600D01*
X017100Y000850D01*
X025600Y000850D01*
X043600Y000850D01*
X047600Y000850D01*
X061350Y000850D01*
X062600Y002100D01*
X062600Y014850D01*
X061350Y016100D01*
X053350Y016100D01*
X052350Y017100D01*
X051600Y017100D01*
X052350Y017100D02*
X052350Y019100D01*
X051600Y019100D01*
X052350Y019100D02*
X052350Y021100D01*
X051600Y021100D01*
X052350Y021100D02*
X052350Y023100D01*
X051600Y023100D01*
X052350Y023100D02*
X052350Y026100D01*
X051600Y026100D01*
X052350Y026100D02*
X052350Y028100D01*
X051600Y028100D01*
X052350Y028100D02*
X052350Y030100D01*
X051600Y030100D01*
X052350Y030100D02*
X052350Y031850D01*
X052100Y032100D01*
X051600Y032100D01*
X049600Y032100D02*
X048850Y032100D01*
X048850Y030100D01*
X048850Y028100D01*
X048850Y025100D01*
X048850Y023100D01*
X048850Y021100D01*
X048850Y019100D01*
X048850Y008600D01*
X049350Y008100D01*
X050100Y008100D01*
X047600Y003350D02*
X047600Y000850D01*
X043600Y000850D02*
X043600Y003350D01*
X032350Y008100D02*
X032350Y011850D01*
X032350Y015100D01*
X032350Y018100D01*
X033100Y019100D01*
X033100Y020100D01*
X033100Y015100D02*
X032350Y015100D01*
X033100Y015100D02*
X033600Y014600D01*
X033600Y011850D02*
X032350Y011850D01*
X032350Y008100D02*
X031850Y007600D01*
X029850Y007600D01*
X029350Y007100D01*
X029350Y005350D01*
X030600Y004100D01*
X030600Y003600D01*
X025600Y002600D02*
X025600Y000850D01*
X017100Y000850D02*
X001850Y000850D01*
X013600Y017100D02*
X014350Y017100D01*
X015850Y018454D02*
X016204Y018100D01*
X016600Y018100D01*
X015850Y018454D02*
X015850Y020100D01*
X016600Y020100D01*
X015850Y020100D02*
X015850Y022100D01*
X016600Y022100D01*
X015850Y022100D02*
X015850Y024100D01*
X016600Y024100D01*
X021350Y024100D01*
X021850Y024600D01*
X016600Y027100D02*
X015850Y027100D01*
X015850Y024100D01*
X014350Y023100D02*
X014350Y021100D01*
X014350Y019100D01*
X014350Y021100D02*
X013600Y021100D01*
X013600Y023100D02*
X014350Y023100D01*
X014350Y026100D01*
X013600Y026100D01*
X014350Y026100D02*
X014350Y028100D01*
X013600Y028100D01*
X014350Y028100D02*
X014350Y030100D01*
X013600Y030100D01*
X014350Y030100D02*
X014350Y031850D01*
X014100Y032100D01*
X013600Y032100D01*
X015850Y031100D02*
X015850Y029100D01*
X015850Y027100D01*
X015850Y029100D02*
X016600Y029100D01*
X016600Y031100D02*
X015850Y031100D01*
X015850Y033100D01*
X016600Y033100D01*
X015850Y033100D02*
X015850Y036100D01*
X015850Y037350D01*
X016350Y037850D01*
X026100Y037850D01*
X026100Y038850D01*
X027100Y038850D01*
X028100Y038850D01*
X029100Y038850D01*
X034100Y038850D02*
X035100Y038850D01*
X036100Y038850D01*
X037100Y038850D01*
X037100Y037850D01*
X038850Y037850D01*
X038850Y036600D01*
X039350Y036100D01*
X040100Y036100D01*
X038850Y037850D02*
X046850Y037850D01*
X047350Y037350D01*
X047350Y033100D01*
X046600Y033100D01*
X047350Y033100D02*
X047350Y031100D01*
X047350Y029100D01*
X047350Y027100D01*
X047350Y024100D01*
X047350Y022100D01*
X047350Y020100D01*
X047350Y018454D01*
X046996Y018100D01*
X046600Y018100D01*
X048850Y019100D02*
X049600Y019100D01*
X047350Y020100D02*
X046600Y020100D01*
X048850Y021100D02*
X049600Y021100D01*
X047350Y022100D02*
X046600Y022100D01*
X048850Y023100D02*
X049600Y023100D01*
X047350Y024100D02*
X046600Y024100D01*
X048850Y025100D02*
X049600Y025100D01*
X047350Y027100D02*
X046600Y027100D01*
X041850Y027100D01*
X041350Y026600D01*
X046600Y029100D02*
X047350Y029100D01*
X048850Y028100D02*
X049600Y028100D01*
X049600Y030100D02*
X048850Y030100D01*
X047350Y031100D02*
X046600Y031100D01*
X048850Y032100D02*
X048850Y033850D01*
X049100Y034100D01*
X049600Y034100D01*
X053850Y033100D02*
X053850Y037350D01*
X053850Y033100D02*
X054600Y033100D01*
X053850Y033100D02*
X053850Y031100D01*
X053850Y029100D01*
X053850Y027100D01*
X053850Y024100D01*
X053850Y022100D01*
X053850Y020100D01*
X053850Y018454D01*
X054204Y018100D01*
X054600Y018100D01*
X054600Y020100D02*
X053850Y020100D01*
X053850Y022100D02*
X054600Y022100D01*
X054600Y024100D02*
X053850Y024100D01*
X053850Y027100D02*
X054600Y027100D01*
X054600Y029100D02*
X053850Y029100D01*
X053850Y031100D02*
X054600Y031100D01*
X019100Y036100D02*
X015850Y036100D01*
X009350Y031100D02*
X008600Y031100D01*
X008600Y029100D02*
X009350Y029100D01*
D20*
X009350Y037350D03*
X053850Y037350D03*
D21*
X027850Y025350D03*
X027850Y024350D03*
X024100Y033600D03*
X024600Y034100D03*
M02*
