%
M48
M72
T01C0.0236
T02C0.0320
T03C0.0354
T04C0.0360
T05C0.0400
T06C0.0470
T07C0.1575
%
T01
X27850Y24350
X27850Y25350
X24100Y33600
X24600Y34100
T02
X21100Y34100
X20100Y34100
X20100Y33100
X21100Y33100
X22100Y32100
X22100Y30100
X22100Y28100
X22100Y26100
X21850Y24600
X23850Y24600
X22100Y23100
X22100Y21100
X22100Y19100
X22100Y17100
X18100Y17100
X16600Y17100
X16600Y18100
X16600Y19100
X16600Y20100
X18100Y19100
X18100Y21100
X16600Y21100
X16600Y22100
X16600Y23100
X16600Y24100
X18100Y23100
X18100Y26100
X16600Y26100
X16600Y27100
X16600Y28100
X18100Y28100
X16600Y29100
X16600Y30100
X18100Y30100
X16600Y31100
X16600Y32100
X18100Y32100
X16600Y33100
X13600Y33100
X13600Y32100
X13600Y31100
X13600Y30100
X13600Y29100
X13600Y28100
X13600Y27100
X13600Y26100
X11600Y27100
X11600Y28100
X11600Y29100
X11600Y30100
X11600Y31100
X11600Y32100
X11600Y33100
X11600Y34100
X8600Y34100
X7100Y34100
X8600Y33100
X8600Y32100
X8600Y31100
X7100Y32100
X7100Y30100
X8600Y30100
X8600Y29100
X8600Y28100
X8600Y27100
X7100Y28100
X7100Y25100
X8600Y25100
X8600Y24100
X8600Y23100
X7100Y23100
X8600Y22100
X8600Y21100
X7100Y21100
X8600Y20100
X8600Y19100
X7100Y19100
X8600Y18100
X11600Y18100
X11600Y19100
X11600Y20100
X11600Y21100
X11600Y22100
X11600Y23100
X11600Y24100
X11600Y25100
X13600Y24100
X13600Y23100
X13600Y22100
X13600Y21100
X13600Y20100
X13600Y19100
X13600Y18100
X13600Y17100
X13600Y13600
X12100Y13600
X10100Y13600
X8600Y13600
X6600Y13600
X5100Y13600
X3100Y13600
X1600Y13600
X1600Y9600
X3100Y9600
X3100Y8100
X2100Y8100
X5100Y9600
X6600Y9600
X8600Y9600
X10100Y9600
X10100Y8100
X9100Y8100
X6600Y8100
X5600Y8100
X12100Y9600
X13600Y9600
X15600Y9600
X17100Y9600
X19100Y9600
X20600Y9600
X22600Y9600
X24100Y9600
X26100Y9600
X27600Y9600
X27600Y8100
X26600Y8100
X24100Y8100
X23100Y8100
X20600Y8100
X19600Y8100
X17100Y8100
X16100Y8100
X13600Y8100
X12600Y8100
X11600Y2600
X10100Y2600
X9100Y2600
X15600Y2600
X30100Y5850
X31600Y5850
X36100Y8100
X37100Y8100
X37100Y9600
X35600Y9600
X39100Y9600
X40600Y9600
X42600Y9600
X44100Y9600
X46100Y9600
X47600Y9600
X49600Y9600
X51100Y9600
X51100Y8100
X50100Y8100
X47600Y8100
X46600Y8100
X44100Y8100
X43100Y8100
X40600Y8100
X39600Y8100
X32350Y11850
X30350Y11850
X30100Y9850
X31600Y9850
X27600Y13600
X26100Y13600
X24100Y13600
X22600Y13600
X20600Y13600
X19100Y13600
X17100Y13600
X15600Y13600
X26100Y19100
X27100Y19100
X27100Y20100
X26100Y20100
X28350Y19100
X30100Y20100
X31100Y20100
X32100Y20100
X33100Y20100
X34850Y19100
X36100Y19100
X37100Y19100
X37100Y20100
X36100Y20100
X32350Y18100
X30350Y18100
X35100Y16600
X36100Y16600
X37600Y14600
X37100Y13600
X35600Y13600
X33600Y14600
X39100Y13600
X40600Y13600
X42600Y13600
X44100Y13600
X46100Y13600
X47600Y13600
X49600Y13600
X51100Y13600
X53100Y13600
X54600Y13600
X56600Y13600
X58100Y13600
X60100Y13600
X61600Y13600
X60100Y17100
X60100Y19100
X60100Y21100
X60100Y23100
X60100Y26100
X60100Y28100
X60100Y30100
X60100Y32100
X56100Y32100
X54600Y32100
X54600Y31100
X54600Y30100
X54600Y29100
X56100Y30100
X56100Y28100
X54600Y28100
X54600Y27100
X54600Y26100
X56100Y26100
X54600Y24100
X54600Y23100
X56100Y23100
X54600Y22100
X54600Y21100
X56100Y21100
X54600Y20100
X54600Y19100
X56100Y19100
X54600Y18100
X54600Y17100
X56100Y17100
X51600Y17100
X51600Y18100
X51600Y19100
X51600Y20100
X51600Y21100
X51600Y22100
X51600Y23100
X51600Y24100
X49600Y24100
X49600Y23100
X49600Y22100
X49600Y21100
X49600Y20100
X49600Y19100
X49600Y18100
X46600Y18100
X46600Y19100
X46600Y20100
X45100Y19100
X45100Y21100
X46600Y21100
X46600Y22100
X46600Y23100
X46600Y24100
X45100Y23100
X45100Y25100
X46600Y25100
X46600Y27100
X46600Y28100
X45100Y28100
X46600Y29100
X46600Y30100
X45100Y30100
X46600Y31100
X46600Y32100
X45100Y32100
X46600Y33100
X46600Y34100
X45100Y34100
X41100Y34100
X41100Y32100
X41100Y30100
X41100Y28100
X41350Y26600
X39350Y26600
X41100Y25100
X41100Y23100
X41100Y21100
X41100Y19100
X34850Y23100
X33100Y23100
X32100Y23100
X31100Y23100
X30100Y23100
X28350Y23100
X49600Y25100
X51600Y26100
X51600Y27100
X51600Y28100
X51600Y29100
X51600Y30100
X51600Y31100
X51600Y32100
X51600Y33100
X49600Y33100
X49600Y32100
X49600Y31100
X49600Y30100
X49600Y29100
X49600Y28100
X49600Y27100
X54600Y33100
X49600Y34100
X53100Y9600
X54600Y9600
X56600Y9600
X58100Y9600
X58100Y8100
X57100Y8100
X54600Y8100
X53600Y8100
X60100Y9600
X61600Y9600
X61600Y8100
X60600Y8100
X45600Y3350
X43600Y3350
X3100Y19100
X3100Y21100
X3100Y23100
X3100Y25100
X3100Y28100
X3100Y30100
X3100Y32100
X3100Y34100
T03
X9350Y37350
X53850Y37350
T04
X44100Y37100
X43100Y37100
X43100Y36100
X44100Y36100
X42100Y36100
X41100Y36100
X41100Y37100
X42100Y37100
X40100Y37100
X40100Y36100
X23100Y36100
X23100Y37100
X22100Y37100
X21100Y37100
X21100Y36100
X22100Y36100
X20100Y36100
X19100Y36100
X19100Y37100
X20100Y37100
X25600Y3600
X26600Y3600
X27600Y3600
X28600Y3600
X29600Y3600
X30600Y3600
X31600Y3600
X32600Y3600
X33600Y3600
X34600Y3600
X35600Y3600
X36600Y3600
X37600Y3600
X37600Y2600
X36600Y2600
X35600Y2600
X34600Y2600
X33600Y2600
X32600Y2600
X31600Y2600
X30600Y2600
X29600Y2600
X28600Y2600
X27600Y2600
X26600Y2600
X25600Y2600
T05
X30350Y15100
X32350Y15100
X47600Y3350
X49600Y3350
X37100Y27850
X36100Y27850
X36100Y28850
X37100Y28850
X37100Y29850
X36100Y29850
X36100Y30850
X37100Y30850
X37100Y31850
X36100Y31850
X36100Y32850
X37100Y32850
X37100Y33850
X36100Y33850
X36100Y34850
X37100Y34850
X37100Y35850
X36100Y35850
X36100Y36850
X37100Y36850
X37100Y37850
X36100Y37850
X35100Y37850
X34100Y37850
X33100Y37850
X32100Y37850
X31100Y37850
X30100Y37850
X29100Y37850
X28100Y37850
X27100Y37850
X26100Y37850
X26100Y36850
X27100Y36850
X27100Y35850
X26100Y35850
X26100Y34850
X27100Y34850
X27100Y33850
X26100Y33850
X26100Y32850
X27100Y32850
X27100Y31850
X26100Y31850
X26100Y30850
X27100Y30850
X27100Y29850
X26100Y29850
X26100Y28850
X27100Y28850
X27100Y27850
X26100Y27850
X28100Y27850
X28100Y28850
X29100Y28850
X30100Y28850
X30100Y27850
X29100Y27850
X31100Y27850
X32100Y27850
X32100Y28850
X31100Y28850
X31100Y29850
X32100Y29850
X32100Y30850
X31100Y30850
X30100Y30850
X29100Y30850
X29100Y29850
X30100Y29850
X28100Y29850
X28100Y30850
X28100Y31850
X28100Y32850
X29100Y32850
X30100Y32850
X30100Y31850
X29100Y31850
X31100Y31850
X32100Y31850
X32100Y32850
X31100Y32850
X31100Y33850
X32100Y33850
X32100Y34850
X31100Y34850
X30100Y34850
X29100Y34850
X29100Y33850
X30100Y33850
X28100Y33850
X28100Y34850
X28100Y35850
X28100Y36850
X29100Y36850
X30100Y36850
X30100Y35850
X29100Y35850
X31100Y35850
X32100Y35850
X32100Y36850
X31100Y36850
X33100Y36850
X34100Y36850
X34100Y35850
X33100Y35850
X33100Y34850
X34100Y34850
X34100Y33850
X33100Y33850
X33100Y32850
X34100Y32850
X34100Y31850
X33100Y31850
X33100Y30850
X34100Y30850
X34100Y29850
X33100Y29850
X33100Y28850
X34100Y28850
X34100Y27850
X33100Y27850
X35100Y27850
X35100Y28850
X35100Y29850
X35100Y30850
X35100Y31850
X35100Y32850
X35100Y33850
X35100Y34850
X35100Y35850
X35100Y36850
X35100Y38850
X34100Y38850
X33100Y38850
X32100Y38850
X31100Y38850
X30100Y38850
X29100Y38850
X28100Y38850
X27100Y38850
X26100Y38850
X36100Y38850
X37100Y38850
T06
X33600Y11850
X33600Y7850
X21100Y2600
X17100Y2600
T07
X3100Y3100
X3100Y36350
X60100Y36350
X60100Y3100
M30
