G75*
G70*
%OFA0B0*%
%FSLAX24Y24*%
%IPPOS*%
%LPD*%
%AMOC8*
5,1,8,0,0,1.08239X$1,22.5*
%
%ADD10OC8,0.0560*%
%ADD11C,0.0520*%
%ADD12OC8,0.0520*%
%ADD13C,0.0705*%
%ADD14OC8,0.0600*%
%ADD15C,0.1000*%
%ADD16OC8,0.1000*%
%ADD17C,0.0120*%
%ADD18C,0.0240*%
%ADD19C,0.0531*%
%ADD20C,0.0396*%
%ADD21C,0.0160*%
D10*
X025600Y002600D03*
X026600Y002600D03*
X027600Y002600D03*
X028600Y002600D03*
X029600Y002600D03*
X030600Y002600D03*
X031600Y002600D03*
X032600Y002600D03*
X033600Y002600D03*
X034600Y002600D03*
X035600Y002600D03*
X036600Y002600D03*
X037600Y002600D03*
X037600Y003600D03*
X036600Y003600D03*
X035600Y003600D03*
X034600Y003600D03*
X033600Y003600D03*
X032600Y003600D03*
X031600Y003600D03*
X030600Y003600D03*
X029600Y003600D03*
X028600Y003600D03*
X027600Y003600D03*
X026600Y003600D03*
X025600Y003600D03*
X023100Y036100D03*
X023100Y037100D03*
X022100Y037100D03*
X021100Y037100D03*
X021100Y036100D03*
X022100Y036100D03*
X020100Y036100D03*
X019100Y036100D03*
X019100Y037100D03*
X020100Y037100D03*
X040100Y037100D03*
X040100Y036100D03*
X041100Y036100D03*
X042100Y036100D03*
X042100Y037100D03*
X041100Y037100D03*
X043100Y037100D03*
X044100Y037100D03*
X044100Y036100D03*
X043100Y036100D03*
D11*
X046080Y034100D02*
X046600Y034100D01*
X046600Y033100D02*
X046080Y033100D01*
X046080Y032100D02*
X046600Y032100D01*
X046600Y031100D02*
X046080Y031100D01*
X046080Y030100D02*
X046600Y030100D01*
X046600Y029100D02*
X046080Y029100D01*
X046080Y028100D02*
X046600Y028100D01*
X046600Y027100D02*
X046080Y027100D01*
X046080Y025100D02*
X046600Y025100D01*
X046600Y024100D02*
X046080Y024100D01*
X046080Y023100D02*
X046600Y023100D01*
X046600Y022100D02*
X046080Y022100D01*
X046080Y021100D02*
X046600Y021100D01*
X046600Y020100D02*
X046080Y020100D01*
X046080Y019100D02*
X046600Y019100D01*
X046600Y018100D02*
X046080Y018100D01*
X049600Y018100D02*
X050120Y018100D01*
X051080Y018100D02*
X051600Y018100D01*
X051600Y017100D02*
X051080Y017100D01*
X051080Y019100D02*
X051600Y019100D01*
X051600Y020100D02*
X051080Y020100D01*
X050120Y020100D02*
X049600Y020100D01*
X049600Y019100D02*
X050120Y019100D01*
X050120Y021100D02*
X049600Y021100D01*
X049600Y022100D02*
X050120Y022100D01*
X051080Y022100D02*
X051600Y022100D01*
X051600Y021100D02*
X051080Y021100D01*
X051080Y023100D02*
X051600Y023100D01*
X051600Y024100D02*
X051080Y024100D01*
X050120Y024100D02*
X049600Y024100D01*
X049600Y023100D02*
X050120Y023100D01*
X050120Y025100D02*
X049600Y025100D01*
X051080Y026100D02*
X051600Y026100D01*
X051600Y027100D02*
X051080Y027100D01*
X050120Y027100D02*
X049600Y027100D01*
X049600Y028100D02*
X050120Y028100D01*
X051080Y028100D02*
X051600Y028100D01*
X051600Y029100D02*
X051080Y029100D01*
X050120Y029100D02*
X049600Y029100D01*
X049600Y030100D02*
X050120Y030100D01*
X051080Y030100D02*
X051600Y030100D01*
X051600Y031100D02*
X051080Y031100D01*
X050120Y031100D02*
X049600Y031100D01*
X049600Y032100D02*
X050120Y032100D01*
X051080Y032100D02*
X051600Y032100D01*
X051600Y033100D02*
X051080Y033100D01*
X050120Y033100D02*
X049600Y033100D01*
X049600Y034100D02*
X050120Y034100D01*
X054600Y033100D02*
X055120Y033100D01*
X055120Y032100D02*
X054600Y032100D01*
X054600Y031100D02*
X055120Y031100D01*
X055120Y030100D02*
X054600Y030100D01*
X054600Y029100D02*
X055120Y029100D01*
X055120Y028100D02*
X054600Y028100D01*
X054600Y027100D02*
X055120Y027100D01*
X055120Y026100D02*
X054600Y026100D01*
X054600Y024100D02*
X055120Y024100D01*
X055120Y023100D02*
X054600Y023100D01*
X054600Y022100D02*
X055120Y022100D01*
X055120Y021100D02*
X054600Y021100D01*
X054600Y020100D02*
X055120Y020100D01*
X055120Y019100D02*
X054600Y019100D01*
X054600Y018100D02*
X055120Y018100D01*
X055120Y017100D02*
X054600Y017100D01*
X033100Y019580D02*
X033100Y020100D01*
X032100Y020100D02*
X032100Y019580D01*
X031100Y019580D02*
X031100Y020100D01*
X030100Y020100D02*
X030100Y019580D01*
X030100Y023100D02*
X030100Y023620D01*
X031100Y023620D02*
X031100Y023100D01*
X032100Y023100D02*
X032100Y023620D01*
X033100Y023620D02*
X033100Y023100D01*
X017120Y023100D02*
X016600Y023100D01*
X016600Y024100D02*
X017120Y024100D01*
X017120Y022100D02*
X016600Y022100D01*
X016600Y021100D02*
X017120Y021100D01*
X017120Y020100D02*
X016600Y020100D01*
X016600Y019100D02*
X017120Y019100D01*
X017120Y018100D02*
X016600Y018100D01*
X016600Y017100D02*
X017120Y017100D01*
X013600Y017100D02*
X013080Y017100D01*
X013080Y018100D02*
X013600Y018100D01*
X012120Y018100D02*
X011600Y018100D01*
X011600Y019100D02*
X012120Y019100D01*
X013080Y019100D02*
X013600Y019100D01*
X013600Y020100D02*
X013080Y020100D01*
X012120Y020100D02*
X011600Y020100D01*
X011600Y021100D02*
X012120Y021100D01*
X013080Y021100D02*
X013600Y021100D01*
X013600Y022100D02*
X013080Y022100D01*
X012120Y022100D02*
X011600Y022100D01*
X011600Y023100D02*
X012120Y023100D01*
X013080Y023100D02*
X013600Y023100D01*
X013600Y024100D02*
X013080Y024100D01*
X012120Y024100D02*
X011600Y024100D01*
X011600Y025100D02*
X012120Y025100D01*
X013080Y026100D02*
X013600Y026100D01*
X013600Y027100D02*
X013080Y027100D01*
X012120Y027100D02*
X011600Y027100D01*
X011600Y028100D02*
X012120Y028100D01*
X013080Y028100D02*
X013600Y028100D01*
X013600Y029100D02*
X013080Y029100D01*
X012120Y029100D02*
X011600Y029100D01*
X011600Y030100D02*
X012120Y030100D01*
X013080Y030100D02*
X013600Y030100D01*
X013600Y031100D02*
X013080Y031100D01*
X012120Y031100D02*
X011600Y031100D01*
X011600Y032100D02*
X012120Y032100D01*
X013080Y032100D02*
X013600Y032100D01*
X013600Y033100D02*
X013080Y033100D01*
X012120Y033100D02*
X011600Y033100D01*
X011600Y034100D02*
X012120Y034100D01*
X008600Y034100D02*
X008080Y034100D01*
X008080Y033100D02*
X008600Y033100D01*
X008600Y032100D02*
X008080Y032100D01*
X008080Y031100D02*
X008600Y031100D01*
X008600Y030100D02*
X008080Y030100D01*
X008080Y029100D02*
X008600Y029100D01*
X008600Y028100D02*
X008080Y028100D01*
X008080Y027100D02*
X008600Y027100D01*
X008600Y025100D02*
X008080Y025100D01*
X008080Y024100D02*
X008600Y024100D01*
X008600Y023100D02*
X008080Y023100D01*
X008080Y022100D02*
X008600Y022100D01*
X008600Y021100D02*
X008080Y021100D01*
X008080Y020100D02*
X008600Y020100D01*
X008600Y019100D02*
X008080Y019100D01*
X008080Y018100D02*
X008600Y018100D01*
X016600Y026100D02*
X017120Y026100D01*
X017120Y027100D02*
X016600Y027100D01*
X016600Y028100D02*
X017120Y028100D01*
X017120Y029100D02*
X016600Y029100D01*
X016600Y030100D02*
X017120Y030100D01*
X017120Y031100D02*
X016600Y031100D01*
X016600Y032100D02*
X017120Y032100D01*
X017120Y033100D02*
X016600Y033100D01*
D12*
X018100Y032100D03*
X020100Y033100D03*
X021100Y033100D03*
X021100Y034100D03*
X020100Y034100D03*
X022100Y032100D03*
X022100Y030100D03*
X022100Y028100D03*
X022100Y026100D03*
X021850Y024600D03*
X023850Y024600D03*
X022100Y023100D03*
X022100Y021100D03*
X022100Y019100D03*
X022100Y017100D03*
X018100Y017100D03*
X018100Y019100D03*
X018100Y021100D03*
X018100Y023100D03*
X018100Y026100D03*
X018100Y028100D03*
X018100Y030100D03*
X007100Y030100D03*
X007100Y028100D03*
X007100Y025100D03*
X007100Y023100D03*
X007100Y021100D03*
X007100Y019100D03*
X003100Y019100D03*
X003100Y021100D03*
X003100Y023100D03*
X003100Y025100D03*
X003100Y028100D03*
X003100Y030100D03*
X003100Y032100D03*
X003100Y034100D03*
X007100Y034100D03*
X007100Y032100D03*
X026100Y020100D03*
X027100Y020100D03*
X027100Y019100D03*
X026100Y019100D03*
X028350Y019100D03*
X030350Y018100D03*
X032350Y018100D03*
X034850Y019100D03*
X036100Y019100D03*
X037100Y019100D03*
X037100Y020100D03*
X036100Y020100D03*
X034850Y023100D03*
X039350Y026600D03*
X041350Y026600D03*
X041100Y028100D03*
X041100Y030100D03*
X041100Y032100D03*
X041100Y034100D03*
X045100Y034100D03*
X045100Y032100D03*
X045100Y030100D03*
X045100Y028100D03*
X045100Y025100D03*
X045100Y023100D03*
X045100Y021100D03*
X045100Y019100D03*
X041100Y019100D03*
X041100Y021100D03*
X041100Y023100D03*
X041100Y025100D03*
X028350Y023100D03*
X035100Y016600D03*
X036100Y016600D03*
X037600Y014600D03*
X037100Y013600D03*
X035600Y013600D03*
X033600Y014600D03*
X032350Y011850D03*
X030350Y011850D03*
X030100Y009850D03*
X031600Y009850D03*
X035600Y009600D03*
X037100Y009600D03*
X039100Y009600D03*
X040600Y009600D03*
X042600Y009600D03*
X044100Y009600D03*
X046100Y009600D03*
X047600Y009600D03*
X049600Y009600D03*
X051100Y009600D03*
X051100Y008100D03*
X050100Y008100D03*
X047600Y008100D03*
X046600Y008100D03*
X044100Y008100D03*
X043100Y008100D03*
X040600Y008100D03*
X039600Y008100D03*
X037100Y008100D03*
X036100Y008100D03*
X031600Y005850D03*
X030100Y005850D03*
X027600Y008100D03*
X026600Y008100D03*
X026100Y009600D03*
X027600Y009600D03*
X024100Y009600D03*
X022600Y009600D03*
X020600Y009600D03*
X019100Y009600D03*
X017100Y009600D03*
X015600Y009600D03*
X013600Y009600D03*
X012100Y009600D03*
X012600Y008100D03*
X013600Y008100D03*
X016100Y008100D03*
X017100Y008100D03*
X019600Y008100D03*
X020600Y008100D03*
X023100Y008100D03*
X024100Y008100D03*
X024100Y013600D03*
X022600Y013600D03*
X020600Y013600D03*
X019100Y013600D03*
X017100Y013600D03*
X015600Y013600D03*
X013600Y013600D03*
X012100Y013600D03*
X010100Y013600D03*
X008600Y013600D03*
X006600Y013600D03*
X005100Y013600D03*
X003100Y013600D03*
X001600Y013600D03*
X001600Y009600D03*
X003100Y009600D03*
X003100Y008100D03*
X002100Y008100D03*
X005100Y009600D03*
X006600Y009600D03*
X008600Y009600D03*
X010100Y009600D03*
X010100Y008100D03*
X009100Y008100D03*
X006600Y008100D03*
X005600Y008100D03*
X009100Y002600D03*
X010100Y002600D03*
X011600Y002600D03*
X015600Y002600D03*
X026100Y013600D03*
X027600Y013600D03*
X039100Y013600D03*
X040600Y013600D03*
X042600Y013600D03*
X044100Y013600D03*
X046100Y013600D03*
X047600Y013600D03*
X049600Y013600D03*
X051100Y013600D03*
X053100Y013600D03*
X054600Y013600D03*
X056600Y013600D03*
X058100Y013600D03*
X060100Y013600D03*
X061600Y013600D03*
X060100Y017100D03*
X060100Y019100D03*
X060100Y021100D03*
X060100Y023100D03*
X060100Y026100D03*
X060100Y028100D03*
X060100Y030100D03*
X060100Y032100D03*
X056100Y032100D03*
X056100Y030100D03*
X056100Y028100D03*
X056100Y026100D03*
X056100Y023100D03*
X056100Y021100D03*
X056100Y019100D03*
X056100Y017100D03*
X056600Y009600D03*
X058100Y009600D03*
X058100Y008100D03*
X057100Y008100D03*
X054600Y008100D03*
X053600Y008100D03*
X053100Y009600D03*
X054600Y009600D03*
X060100Y009600D03*
X061600Y009600D03*
X061600Y008100D03*
X060600Y008100D03*
X045600Y003350D03*
X043600Y003350D03*
D13*
X033600Y007498D02*
X033600Y008203D01*
X033600Y011498D02*
X033600Y012203D01*
X021453Y002600D02*
X020748Y002600D01*
X017453Y002600D02*
X016748Y002600D01*
D14*
X026100Y027850D03*
X027100Y027850D03*
X027100Y028850D03*
X026100Y028850D03*
X026100Y029850D03*
X027100Y029850D03*
X027100Y030850D03*
X026100Y030850D03*
X026100Y031850D03*
X027100Y031850D03*
X027100Y032850D03*
X026100Y032850D03*
X026100Y033850D03*
X027100Y033850D03*
X027100Y034850D03*
X026100Y034850D03*
X026100Y035850D03*
X027100Y035850D03*
X027100Y036850D03*
X026100Y036850D03*
X026100Y037850D03*
X027100Y037850D03*
X028100Y037850D03*
X029100Y037850D03*
X030100Y037850D03*
X031100Y037850D03*
X032100Y037850D03*
X033100Y037850D03*
X034100Y037850D03*
X035100Y037850D03*
X036100Y037850D03*
X037100Y037850D03*
X037100Y036850D03*
X036100Y036850D03*
X036100Y035850D03*
X037100Y035850D03*
X037100Y034850D03*
X036100Y034850D03*
X036100Y033850D03*
X037100Y033850D03*
X037100Y032850D03*
X036100Y032850D03*
X036100Y031850D03*
X037100Y031850D03*
X037100Y030850D03*
X036100Y030850D03*
X036100Y029850D03*
X037100Y029850D03*
X037100Y028850D03*
X036100Y028850D03*
X036100Y027850D03*
X037100Y027850D03*
X035100Y027850D03*
X035100Y028850D03*
X034100Y028850D03*
X033100Y028850D03*
X033100Y027850D03*
X034100Y027850D03*
X032100Y027850D03*
X031100Y027850D03*
X031100Y028850D03*
X032100Y028850D03*
X032100Y029850D03*
X031100Y029850D03*
X031100Y030850D03*
X032100Y030850D03*
X033100Y030850D03*
X034100Y030850D03*
X034100Y029850D03*
X033100Y029850D03*
X035100Y029850D03*
X035100Y030850D03*
X035100Y031850D03*
X035100Y032850D03*
X034100Y032850D03*
X033100Y032850D03*
X033100Y031850D03*
X034100Y031850D03*
X032100Y031850D03*
X031100Y031850D03*
X031100Y032850D03*
X032100Y032850D03*
X032100Y033850D03*
X031100Y033850D03*
X031100Y034850D03*
X032100Y034850D03*
X033100Y034850D03*
X034100Y034850D03*
X034100Y033850D03*
X033100Y033850D03*
X035100Y033850D03*
X035100Y034850D03*
X035100Y035850D03*
X035100Y036850D03*
X034100Y036850D03*
X033100Y036850D03*
X033100Y035850D03*
X034100Y035850D03*
X032100Y035850D03*
X031100Y035850D03*
X031100Y036850D03*
X032100Y036850D03*
X030100Y036850D03*
X029100Y036850D03*
X029100Y035850D03*
X030100Y035850D03*
X030100Y034850D03*
X029100Y034850D03*
X029100Y033850D03*
X030100Y033850D03*
X030100Y032850D03*
X029100Y032850D03*
X029100Y031850D03*
X030100Y031850D03*
X030100Y030850D03*
X029100Y030850D03*
X029100Y029850D03*
X030100Y029850D03*
X030100Y028850D03*
X029100Y028850D03*
X029100Y027850D03*
X030100Y027850D03*
X028100Y027850D03*
X028100Y028850D03*
X028100Y029850D03*
X028100Y030850D03*
X028100Y031850D03*
X028100Y032850D03*
X028100Y033850D03*
X028100Y034850D03*
X028100Y035850D03*
X028100Y036850D03*
X028100Y038850D03*
X027100Y038850D03*
X026100Y038850D03*
X029100Y038850D03*
X030100Y038850D03*
X031100Y038850D03*
X032100Y038850D03*
X033100Y038850D03*
X034100Y038850D03*
X035100Y038850D03*
X036100Y038850D03*
X037100Y038850D03*
D15*
X032350Y015100D03*
X047600Y003350D03*
D16*
X049600Y003350D03*
X030350Y015100D03*
D17*
X025100Y013850D02*
X025100Y010600D01*
X026100Y009600D01*
X022600Y009600D02*
X021600Y010600D01*
X021600Y013850D01*
X020600Y014850D01*
X012100Y014850D01*
X010600Y016350D01*
X002850Y016350D01*
X002100Y017100D01*
X002100Y019350D01*
X002350Y019600D01*
X011100Y019600D01*
X011600Y020100D01*
X013600Y020100D01*
X014850Y020600D02*
X015100Y020350D01*
X015100Y019350D01*
X015350Y019100D01*
X016600Y019100D01*
X018100Y019100D01*
X018100Y017100D02*
X016600Y017100D01*
X015350Y017100D01*
X015100Y017350D01*
X015100Y018350D01*
X014850Y018600D01*
X003600Y018600D01*
X003100Y019100D01*
X003600Y020600D02*
X014850Y020600D01*
X015350Y021100D02*
X015100Y021350D01*
X015100Y022350D01*
X014850Y022600D01*
X003600Y022600D01*
X003100Y023100D01*
X001850Y023600D02*
X001600Y023350D01*
X001600Y016600D01*
X002350Y015850D01*
X010100Y015850D01*
X011600Y014350D01*
X014100Y014350D01*
X014600Y013850D01*
X014600Y010600D01*
X015600Y009600D01*
X018100Y010600D02*
X019100Y009600D01*
X018100Y010600D02*
X018100Y013850D01*
X017350Y014600D01*
X011850Y014600D01*
X010350Y016100D01*
X002600Y016100D01*
X001850Y016850D01*
X001850Y021350D01*
X002100Y021600D01*
X011100Y021600D01*
X011600Y022100D01*
X013600Y022100D01*
X015100Y023350D02*
X015350Y023100D01*
X016600Y023100D01*
X018100Y023100D01*
X018100Y021100D02*
X016600Y021100D01*
X015350Y021100D01*
X015100Y023350D02*
X015100Y024350D01*
X014850Y024600D01*
X003600Y024600D01*
X003100Y025100D01*
X001600Y026600D02*
X001350Y026350D01*
X001350Y016350D01*
X002100Y015600D01*
X009850Y015600D01*
X011100Y014350D01*
X011100Y010600D01*
X012100Y009600D01*
X008600Y009600D02*
X007850Y010350D01*
X007850Y014350D01*
X006850Y015350D01*
X001850Y015350D01*
X001100Y016100D01*
X001100Y028350D01*
X001350Y028600D01*
X010350Y028600D01*
X010850Y029100D01*
X011600Y029100D01*
X013600Y029100D01*
X014850Y029600D02*
X015100Y029350D01*
X015100Y028350D01*
X015350Y028100D01*
X016600Y028100D01*
X018100Y028100D01*
X018100Y026100D02*
X016600Y026100D01*
X015350Y026100D01*
X015100Y026350D01*
X015100Y027350D01*
X014850Y027600D01*
X003600Y027600D01*
X003100Y028100D01*
X001600Y026600D02*
X010350Y026600D01*
X010850Y027100D01*
X011600Y027100D01*
X013600Y027100D01*
X014850Y029600D02*
X003600Y029600D01*
X003100Y030100D01*
X001100Y030600D02*
X000850Y030350D01*
X000850Y015850D01*
X001600Y015100D01*
X003350Y015100D01*
X004100Y014350D01*
X004100Y010600D01*
X005100Y009600D01*
X001600Y009600D02*
X000600Y010600D01*
X000600Y032350D01*
X000850Y032600D01*
X010100Y032600D01*
X010600Y033100D01*
X011600Y033100D01*
X013600Y033100D01*
X014850Y033600D02*
X015100Y033350D01*
X015100Y032350D01*
X015350Y032100D01*
X016600Y032100D01*
X018100Y032100D01*
X020100Y034100D02*
X020600Y033600D01*
X024100Y033600D01*
X024600Y034100D02*
X021100Y034100D01*
X014850Y033600D02*
X003600Y033600D01*
X003100Y034100D01*
X003100Y032100D02*
X003600Y031600D01*
X014850Y031600D01*
X015100Y031350D01*
X015100Y030350D01*
X015350Y030100D01*
X016600Y030100D01*
X018100Y030100D01*
X013600Y031100D02*
X011600Y031100D01*
X010600Y031100D01*
X010100Y030600D01*
X001100Y030600D01*
X007100Y030100D02*
X008600Y030100D01*
X008600Y028100D02*
X007100Y028100D01*
X007100Y025100D02*
X008600Y025100D01*
X011100Y023600D02*
X011600Y024100D01*
X013600Y024100D01*
X011100Y023600D02*
X001850Y023600D01*
X003100Y021100D02*
X003600Y020600D01*
X007100Y021100D02*
X008600Y021100D01*
X008600Y019100D02*
X007100Y019100D01*
X011600Y018100D02*
X013600Y018100D01*
X011600Y018100D02*
X011600Y015850D01*
X012350Y015100D01*
X023850Y015100D01*
X025100Y013850D01*
X026100Y019100D02*
X027100Y019100D01*
X026100Y019100D02*
X028350Y019100D01*
X028350Y023100D02*
X030100Y023100D01*
X033100Y023100D02*
X034850Y023100D01*
X034850Y019100D02*
X037100Y019100D01*
X036100Y019100D01*
X036100Y016600D02*
X037350Y016600D01*
X037600Y016350D01*
X037600Y014600D01*
X038100Y013850D02*
X038100Y012100D01*
X035600Y009600D01*
X039100Y009600D02*
X041600Y012100D01*
X041600Y013850D01*
X042600Y014850D01*
X050850Y014850D01*
X052350Y016350D01*
X060600Y016350D01*
X061100Y016850D01*
X061100Y020350D01*
X060850Y020600D01*
X052100Y020600D01*
X051600Y020100D01*
X049600Y020100D01*
X048600Y019600D02*
X048100Y020100D01*
X048100Y020600D01*
X047600Y021100D01*
X046600Y021100D01*
X045100Y021100D01*
X045100Y019100D02*
X046600Y019100D01*
X047600Y019100D01*
X048100Y018600D01*
X048100Y018100D01*
X048600Y017600D01*
X059600Y017600D01*
X060100Y017100D01*
X060350Y016600D02*
X060850Y017100D01*
X060850Y018350D01*
X060600Y018600D01*
X052100Y018600D01*
X051600Y018100D01*
X049600Y018100D01*
X048600Y019600D02*
X059600Y019600D01*
X060100Y019100D01*
X060100Y021100D02*
X059600Y021600D01*
X048600Y021600D01*
X048100Y022100D01*
X048100Y022600D01*
X047600Y023100D01*
X046600Y023100D01*
X045100Y023100D01*
X045100Y025100D02*
X046600Y025100D01*
X047600Y025100D01*
X048100Y024600D01*
X048100Y024100D01*
X048600Y023600D01*
X059600Y023600D01*
X060100Y023100D01*
X061100Y022600D02*
X061350Y022350D01*
X061350Y016600D01*
X060850Y016100D01*
X052600Y016100D01*
X051100Y014600D01*
X045850Y014600D01*
X045100Y013850D01*
X045100Y012100D01*
X042600Y009600D01*
X046100Y009600D02*
X048850Y012350D01*
X048850Y013850D01*
X049100Y014100D01*
X051100Y014100D01*
X052850Y015850D01*
X061100Y015850D01*
X061600Y016350D01*
X061600Y024350D01*
X061350Y024600D01*
X052100Y024600D01*
X051600Y024100D01*
X049600Y024100D01*
X051600Y022100D02*
X052100Y022600D01*
X061100Y022600D01*
X060100Y026100D02*
X059600Y026600D01*
X048600Y026600D01*
X048100Y027100D01*
X048100Y027600D01*
X047600Y028100D01*
X046600Y028100D01*
X045100Y028100D01*
X045100Y030100D02*
X046600Y030100D01*
X047600Y030100D01*
X048100Y029600D01*
X048100Y029100D01*
X048600Y028600D01*
X059600Y028600D01*
X060100Y028100D01*
X061600Y027600D02*
X061850Y027350D01*
X061850Y016100D01*
X061350Y015600D01*
X053100Y015600D01*
X052100Y014600D01*
X052100Y012100D01*
X049600Y009600D01*
X053100Y009600D02*
X055600Y012100D01*
X055600Y014100D01*
X056850Y015350D01*
X061600Y015350D01*
X062100Y015850D01*
X062100Y029350D01*
X061850Y029600D01*
X053600Y029600D01*
X053100Y029100D01*
X051850Y029100D01*
X051600Y029100D01*
X049600Y029100D01*
X048600Y030600D02*
X048100Y031100D01*
X048100Y031600D01*
X047600Y032100D01*
X046600Y032100D01*
X045100Y032100D01*
X048100Y033100D02*
X048600Y032600D01*
X059600Y032600D01*
X060100Y032100D01*
X059600Y030600D02*
X048600Y030600D01*
X049600Y031100D02*
X051600Y031100D01*
X053100Y031100D01*
X053600Y031600D01*
X062100Y031600D01*
X062350Y031350D01*
X062350Y015600D01*
X061850Y015100D01*
X060100Y015100D01*
X059100Y014100D01*
X059100Y012100D01*
X056600Y009600D01*
X060100Y009600D02*
X062600Y012100D01*
X062600Y033350D01*
X062350Y033600D01*
X053600Y033600D01*
X053100Y033100D01*
X051600Y033100D01*
X049600Y033100D01*
X048100Y033100D02*
X048100Y033600D01*
X047600Y034100D01*
X046600Y034100D01*
X045100Y034100D01*
X054600Y032100D02*
X056100Y032100D01*
X056100Y030100D02*
X054600Y030100D01*
X054600Y028100D02*
X056100Y028100D01*
X053600Y027600D02*
X053100Y027100D01*
X051850Y027100D01*
X051600Y027100D01*
X049600Y027100D01*
X053600Y027600D02*
X061600Y027600D01*
X060100Y030100D02*
X059600Y030600D01*
X056100Y026100D02*
X054600Y026100D01*
X054600Y023100D02*
X056100Y023100D01*
X056100Y021100D02*
X054600Y021100D01*
X054600Y019100D02*
X056100Y019100D01*
X056100Y017100D02*
X054600Y017100D01*
X052100Y016600D02*
X050600Y015100D01*
X039350Y015100D01*
X038100Y013850D01*
X049600Y022100D02*
X051600Y022100D01*
X052100Y016600D02*
X060350Y016600D01*
X008600Y023100D02*
X007100Y023100D01*
X007100Y032100D02*
X008600Y032100D01*
X008600Y034100D02*
X007100Y034100D01*
D18*
X000460Y008850D02*
X000460Y000460D01*
X062732Y000460D01*
X062732Y008850D01*
X033899Y008850D01*
X033916Y008843D01*
X033997Y008796D01*
X034071Y008739D01*
X034137Y008673D01*
X034194Y008599D01*
X034240Y008518D01*
X034276Y008432D01*
X034300Y008342D01*
X034312Y008249D01*
X034312Y007850D01*
X033600Y007850D01*
X029350Y007850D01*
X029350Y010850D01*
X030350Y011850D01*
X030350Y015100D01*
X030350Y016600D01*
X035100Y016600D01*
X038100Y016557D02*
X044350Y016557D01*
X044350Y016795D02*
X038100Y016795D01*
X038100Y017034D02*
X044350Y017034D01*
X044350Y017272D02*
X038100Y017272D01*
X038100Y017511D02*
X044350Y017511D01*
X044350Y017749D02*
X038100Y017749D01*
X038100Y017988D02*
X044350Y017988D01*
X044350Y018226D02*
X038100Y018226D01*
X038100Y018465D02*
X044350Y018465D01*
X044350Y018703D02*
X041580Y018703D01*
X041720Y018843D02*
X041357Y018480D01*
X041100Y018480D01*
X041100Y019100D01*
X041720Y019100D01*
X041720Y019357D01*
X041357Y019720D01*
X041100Y019720D01*
X041100Y019100D01*
X041100Y019100D01*
X041100Y019100D01*
X041720Y019100D01*
X041720Y018843D01*
X041720Y018942D02*
X044350Y018942D01*
X044350Y019180D02*
X041720Y019180D01*
X041658Y019419D02*
X044350Y019419D01*
X044350Y019657D02*
X041420Y019657D01*
X041100Y019657D02*
X041100Y019657D01*
X041100Y019720D02*
X040843Y019720D01*
X040480Y019357D01*
X040480Y019100D01*
X041100Y019100D01*
X041100Y019100D01*
X041100Y019100D01*
X041100Y019720D01*
X041100Y019419D02*
X041100Y019419D01*
X041100Y019180D02*
X041100Y019180D01*
X041100Y019100D02*
X040480Y019100D01*
X040480Y018843D01*
X040843Y018480D01*
X041100Y018480D01*
X041100Y019100D01*
X041100Y018942D02*
X041100Y018942D01*
X041100Y018703D02*
X041100Y018703D01*
X040620Y018703D02*
X038100Y018703D01*
X038100Y018942D02*
X040480Y018942D01*
X040480Y019180D02*
X038100Y019180D01*
X038100Y019419D02*
X040542Y019419D01*
X040780Y019657D02*
X038100Y019657D01*
X038100Y019896D02*
X044350Y019896D01*
X044350Y020134D02*
X038100Y020134D01*
X038100Y020373D02*
X044350Y020373D01*
X044350Y020611D02*
X041488Y020611D01*
X041357Y020480D02*
X041720Y020843D01*
X041720Y021100D01*
X041720Y021357D01*
X041357Y021720D01*
X041100Y021720D01*
X041100Y021100D01*
X041720Y021100D01*
X041100Y021100D01*
X041100Y021100D01*
X041100Y021100D01*
X041100Y020480D01*
X041357Y020480D01*
X041100Y020480D02*
X041100Y021100D01*
X041100Y021100D01*
X041100Y021100D01*
X040480Y021100D01*
X040480Y021357D01*
X040843Y021720D01*
X041100Y021720D01*
X041100Y021100D01*
X040480Y021100D01*
X040480Y020843D01*
X040843Y020480D01*
X041100Y020480D01*
X041100Y020611D02*
X041100Y020611D01*
X041100Y020850D02*
X041100Y020850D01*
X041100Y021088D02*
X041100Y021088D01*
X041100Y021327D02*
X041100Y021327D01*
X041100Y021565D02*
X041100Y021565D01*
X041512Y021565D02*
X044350Y021565D01*
X044350Y021327D02*
X041720Y021327D01*
X041720Y021088D02*
X044350Y021088D01*
X044350Y020850D02*
X041720Y020850D01*
X040712Y020611D02*
X038100Y020611D01*
X038100Y020850D02*
X040480Y020850D01*
X040480Y021088D02*
X038100Y021088D01*
X038100Y021327D02*
X040480Y021327D01*
X040688Y021565D02*
X038100Y021565D01*
X038100Y021804D02*
X044350Y021804D01*
X044350Y022042D02*
X038100Y022042D01*
X038100Y022281D02*
X044350Y022281D01*
X044350Y022519D02*
X041396Y022519D01*
X041357Y022480D02*
X041720Y022843D01*
X041720Y023100D01*
X041720Y023357D01*
X041357Y023720D01*
X041100Y023720D01*
X041100Y023100D01*
X041720Y023100D01*
X041100Y023100D01*
X041100Y023100D01*
X041100Y023100D01*
X041100Y022480D01*
X041357Y022480D01*
X041100Y022480D02*
X041100Y023100D01*
X041100Y023100D01*
X041100Y023100D01*
X040480Y023100D01*
X040480Y023357D01*
X040843Y023720D01*
X041100Y023720D01*
X041100Y023100D01*
X040480Y023100D01*
X040480Y022843D01*
X040843Y022480D01*
X041100Y022480D01*
X041100Y022519D02*
X041100Y022519D01*
X041100Y022758D02*
X041100Y022758D01*
X041100Y022996D02*
X041100Y022996D01*
X041100Y023235D02*
X041100Y023235D01*
X041100Y023473D02*
X041100Y023473D01*
X041100Y023712D02*
X041100Y023712D01*
X041365Y023712D02*
X044350Y023712D01*
X044350Y023950D02*
X038100Y023950D01*
X038100Y023712D02*
X040835Y023712D01*
X040596Y023473D02*
X038100Y023473D01*
X038100Y023235D02*
X040480Y023235D01*
X040480Y022996D02*
X038100Y022996D01*
X038100Y022758D02*
X040566Y022758D01*
X040804Y022519D02*
X038100Y022519D01*
X038100Y024189D02*
X044350Y024189D01*
X044350Y024427D02*
X038100Y024427D01*
X038100Y024666D02*
X040658Y024666D01*
X040480Y024843D02*
X040843Y024480D01*
X041100Y024480D01*
X041357Y024480D01*
X041720Y024843D01*
X041720Y025100D01*
X041720Y025357D01*
X041357Y025720D01*
X041100Y025720D01*
X041100Y025100D01*
X041720Y025100D01*
X041100Y025100D01*
X041100Y025100D01*
X041100Y025100D01*
X041100Y024480D01*
X041100Y025100D01*
X041100Y025100D01*
X041100Y025100D01*
X040480Y025100D01*
X040480Y025357D01*
X040843Y025720D01*
X041100Y025720D01*
X041100Y025100D01*
X040480Y025100D01*
X040480Y024843D01*
X040480Y024904D02*
X038100Y024904D01*
X038100Y025143D02*
X040480Y025143D01*
X040504Y025381D02*
X038100Y025381D01*
X038100Y025620D02*
X040743Y025620D01*
X041100Y025620D02*
X041100Y025620D01*
X041100Y025381D02*
X041100Y025381D01*
X041100Y025143D02*
X041100Y025143D01*
X041100Y024904D02*
X041100Y024904D01*
X041100Y024666D02*
X041100Y024666D01*
X041542Y024666D02*
X044350Y024666D01*
X044350Y024904D02*
X041720Y024904D01*
X041720Y025143D02*
X044350Y025143D01*
X044350Y025381D02*
X041696Y025381D01*
X041457Y025620D02*
X044350Y025620D01*
X044350Y025858D02*
X038100Y025858D01*
X038100Y026097D02*
X038977Y026097D01*
X039093Y025980D02*
X039350Y025980D01*
X039607Y025980D01*
X039970Y026343D01*
X039970Y026600D01*
X039970Y026857D01*
X039607Y027220D01*
X039350Y027220D01*
X039350Y026600D01*
X039970Y026600D01*
X039350Y026600D01*
X039350Y026600D01*
X039350Y026600D01*
X039350Y025980D01*
X039350Y026600D01*
X039350Y026600D01*
X039350Y026600D01*
X038730Y026600D01*
X038730Y026857D01*
X039093Y027220D01*
X039350Y027220D01*
X039350Y026600D01*
X038730Y026600D01*
X038730Y026343D01*
X039093Y025980D01*
X039350Y026097D02*
X039350Y026097D01*
X039350Y026335D02*
X039350Y026335D01*
X039350Y026574D02*
X039350Y026574D01*
X039350Y026812D02*
X039350Y026812D01*
X039350Y027051D02*
X039350Y027051D01*
X039776Y027051D02*
X040924Y027051D01*
X041093Y027220D02*
X040730Y026857D01*
X040730Y026343D01*
X041093Y025980D01*
X041607Y025980D01*
X041970Y026343D01*
X041970Y026857D01*
X041607Y027220D01*
X041093Y027220D01*
X041100Y027480D02*
X040843Y027480D01*
X040480Y027843D01*
X040480Y028100D01*
X041100Y028100D01*
X041720Y028100D01*
X041720Y028357D01*
X041357Y028720D01*
X041100Y028720D01*
X041100Y028100D01*
X041100Y028100D01*
X041100Y028100D01*
X041720Y028100D01*
X041720Y027843D01*
X041357Y027480D01*
X041100Y027480D01*
X041100Y028100D01*
X041100Y028100D01*
X041100Y028100D01*
X041100Y028720D01*
X040843Y028720D01*
X040480Y028357D01*
X040480Y028100D01*
X041100Y028100D01*
X041100Y027480D01*
X041100Y027528D02*
X041100Y027528D01*
X041100Y027766D02*
X041100Y027766D01*
X041100Y028005D02*
X041100Y028005D01*
X041100Y028243D02*
X041100Y028243D01*
X041100Y028482D02*
X041100Y028482D01*
X041595Y028482D02*
X044350Y028482D01*
X044350Y028720D02*
X038100Y028720D01*
X038100Y028482D02*
X040605Y028482D01*
X040480Y028243D02*
X038100Y028243D01*
X038100Y028005D02*
X040480Y028005D01*
X040557Y027766D02*
X038100Y027766D01*
X038100Y027528D02*
X040796Y027528D01*
X041404Y027528D02*
X044350Y027528D01*
X044350Y027766D02*
X041643Y027766D01*
X041720Y028005D02*
X044350Y028005D01*
X044350Y028243D02*
X041720Y028243D01*
X041776Y027051D02*
X044350Y027051D01*
X044350Y027289D02*
X038100Y027289D01*
X038100Y027051D02*
X038924Y027051D01*
X038730Y026812D02*
X038100Y026812D01*
X038100Y026574D02*
X038730Y026574D01*
X038738Y026335D02*
X038100Y026335D01*
X039723Y026097D02*
X040977Y026097D01*
X040738Y026335D02*
X039962Y026335D01*
X039970Y026574D02*
X040730Y026574D01*
X040730Y026812D02*
X039970Y026812D01*
X041723Y026097D02*
X044350Y026097D01*
X044350Y026335D02*
X041962Y026335D01*
X041970Y026574D02*
X044350Y026574D01*
X044350Y026812D02*
X041970Y026812D01*
X044350Y028959D02*
X038100Y028959D01*
X038100Y029197D02*
X044350Y029197D01*
X044350Y029436D02*
X038100Y029436D01*
X038100Y029674D02*
X040649Y029674D01*
X040480Y029843D02*
X040843Y029480D01*
X041100Y029480D01*
X041357Y029480D01*
X041720Y029843D01*
X041720Y030100D01*
X041720Y030357D01*
X041357Y030720D01*
X041100Y030720D01*
X041100Y030100D01*
X041720Y030100D01*
X041100Y030100D01*
X041100Y030100D01*
X041100Y030100D01*
X041100Y029480D01*
X041100Y030100D01*
X041100Y030100D01*
X041100Y030100D01*
X040480Y030100D01*
X040480Y030357D01*
X040843Y030720D01*
X041100Y030720D01*
X041100Y030100D01*
X040480Y030100D01*
X040480Y029843D01*
X040480Y029913D02*
X038100Y029913D01*
X038100Y030151D02*
X040480Y030151D01*
X040513Y030390D02*
X038100Y030390D01*
X038100Y030628D02*
X040751Y030628D01*
X041100Y030628D02*
X041100Y030628D01*
X041100Y030390D02*
X041100Y030390D01*
X041100Y030151D02*
X041100Y030151D01*
X041100Y029913D02*
X041100Y029913D01*
X041100Y029674D02*
X041100Y029674D01*
X041551Y029674D02*
X044350Y029674D01*
X044350Y029913D02*
X041720Y029913D01*
X041720Y030151D02*
X044350Y030151D01*
X044350Y030390D02*
X041687Y030390D01*
X041449Y030628D02*
X044350Y030628D01*
X044350Y030867D02*
X038100Y030867D01*
X038100Y031105D02*
X044350Y031105D01*
X044350Y031344D02*
X038100Y031344D01*
X038100Y031582D02*
X040741Y031582D01*
X040843Y031480D02*
X041100Y031480D01*
X041357Y031480D01*
X041720Y031843D01*
X041720Y032100D01*
X041720Y032357D01*
X041357Y032720D01*
X041100Y032720D01*
X041100Y032100D01*
X041720Y032100D01*
X041100Y032100D01*
X041100Y032100D01*
X041100Y032100D01*
X041100Y031480D01*
X041100Y032100D01*
X041100Y032100D01*
X041100Y032100D01*
X040480Y032100D01*
X040480Y032357D01*
X040843Y032720D01*
X041100Y032720D01*
X041100Y032100D01*
X040480Y032100D01*
X040480Y031843D01*
X040843Y031480D01*
X041100Y031582D02*
X041100Y031582D01*
X041100Y031821D02*
X041100Y031821D01*
X041100Y032059D02*
X041100Y032059D01*
X041100Y032298D02*
X041100Y032298D01*
X041100Y032536D02*
X041100Y032536D01*
X041541Y032536D02*
X044350Y032536D01*
X044350Y032298D02*
X041720Y032298D01*
X041720Y032059D02*
X044350Y032059D01*
X044350Y031821D02*
X041697Y031821D01*
X041459Y031582D02*
X044350Y031582D01*
X044350Y032775D02*
X038100Y032775D01*
X038100Y033013D02*
X044350Y033013D01*
X044350Y033252D02*
X038100Y033252D01*
X038100Y033490D02*
X040833Y033490D01*
X040843Y033480D02*
X041100Y033480D01*
X041357Y033480D01*
X041720Y033843D01*
X041720Y034100D01*
X041720Y034357D01*
X041357Y034720D01*
X041100Y034720D01*
X041100Y034100D01*
X041720Y034100D01*
X041100Y034100D01*
X041100Y034100D01*
X041100Y034100D01*
X041100Y033480D01*
X041100Y034100D01*
X041100Y034100D01*
X041100Y034100D01*
X040480Y034100D01*
X040480Y034357D01*
X040843Y034720D01*
X041100Y034720D01*
X041100Y034100D01*
X040480Y034100D01*
X040480Y033843D01*
X040843Y033480D01*
X041100Y033490D02*
X041100Y033490D01*
X041100Y033729D02*
X041100Y033729D01*
X041100Y033967D02*
X041100Y033967D01*
X041100Y034206D02*
X041100Y034206D01*
X041100Y034444D02*
X041100Y034444D01*
X041100Y034683D02*
X041100Y034683D01*
X041394Y034683D02*
X044806Y034683D01*
X044843Y034720D02*
X044480Y034357D01*
X044480Y034350D01*
X044350Y034350D01*
X044350Y016100D01*
X038100Y016100D01*
X038100Y039110D01*
X051600Y039110D01*
X051600Y034350D01*
X050688Y034350D01*
X050646Y034451D01*
X050471Y034626D01*
X050243Y034720D01*
X049477Y034720D01*
X049249Y034626D01*
X049074Y034451D01*
X049032Y034350D01*
X047944Y034350D01*
X047838Y034456D01*
X047684Y034520D01*
X047057Y034520D01*
X046951Y034626D01*
X046723Y034720D01*
X045957Y034720D01*
X045729Y034626D01*
X045623Y034520D01*
X045557Y034520D01*
X045357Y034720D01*
X044843Y034720D01*
X044567Y034444D02*
X041633Y034444D01*
X041720Y034206D02*
X044350Y034206D01*
X044350Y033967D02*
X041720Y033967D01*
X041605Y033729D02*
X044350Y033729D01*
X044350Y033490D02*
X041367Y033490D01*
X040595Y033729D02*
X038100Y033729D01*
X038100Y033967D02*
X040480Y033967D01*
X040480Y034206D02*
X038100Y034206D01*
X038100Y034444D02*
X040567Y034444D01*
X040806Y034683D02*
X038100Y034683D01*
X038100Y034921D02*
X051600Y034921D01*
X051600Y034683D02*
X050334Y034683D01*
X050649Y034444D02*
X051600Y034444D01*
X051600Y035160D02*
X038100Y035160D01*
X038100Y035398D02*
X051600Y035398D01*
X051600Y035637D02*
X044542Y035637D01*
X044365Y035460D02*
X044740Y035835D01*
X044740Y036365D01*
X044505Y036600D01*
X044740Y036835D01*
X044740Y037365D01*
X044365Y037740D01*
X043835Y037740D01*
X043600Y037505D01*
X043365Y037740D01*
X042835Y037740D01*
X042600Y037505D01*
X042365Y037740D01*
X041835Y037740D01*
X041600Y037505D01*
X041365Y037740D01*
X040835Y037740D01*
X040600Y037505D01*
X040365Y037740D01*
X040100Y037740D01*
X040100Y037100D01*
X038600Y037100D01*
X038350Y036850D01*
X037100Y036850D01*
X037100Y035850D01*
X037100Y034850D01*
X037100Y033850D01*
X038100Y032536D02*
X040659Y032536D01*
X040480Y032298D02*
X038100Y032298D01*
X038100Y032059D02*
X040480Y032059D01*
X040503Y031821D02*
X038100Y031821D01*
X038100Y035637D02*
X039658Y035637D01*
X039835Y035460D02*
X039460Y035835D01*
X039460Y036365D01*
X039695Y036600D01*
X039460Y036835D01*
X039460Y037100D01*
X040100Y037100D01*
X040100Y037100D01*
X040100Y037100D01*
X040100Y037740D01*
X039835Y037740D01*
X039460Y037365D01*
X039460Y037100D01*
X040100Y037100D01*
X040100Y037306D02*
X040100Y037306D01*
X040100Y037545D02*
X040100Y037545D01*
X040561Y037545D02*
X040639Y037545D01*
X041561Y037545D02*
X041639Y037545D01*
X042561Y037545D02*
X042639Y037545D01*
X043561Y037545D02*
X043639Y037545D01*
X044561Y037545D02*
X051600Y037545D01*
X051600Y037783D02*
X038100Y037783D01*
X038100Y037545D02*
X039639Y037545D01*
X039460Y037306D02*
X038100Y037306D01*
X038100Y037068D02*
X039460Y037068D01*
X039466Y036829D02*
X038100Y036829D01*
X038100Y036591D02*
X039685Y036591D01*
X039460Y036352D02*
X038100Y036352D01*
X038100Y036114D02*
X039460Y036114D01*
X039460Y035875D02*
X038100Y035875D01*
X039835Y035460D02*
X040365Y035460D01*
X040600Y035695D01*
X040835Y035460D01*
X041365Y035460D01*
X041600Y035695D01*
X041835Y035460D01*
X042365Y035460D01*
X042600Y035695D01*
X042835Y035460D01*
X043365Y035460D01*
X043600Y035695D01*
X043835Y035460D01*
X044365Y035460D01*
X044740Y035875D02*
X051600Y035875D01*
X051600Y036114D02*
X044740Y036114D01*
X044740Y036352D02*
X051600Y036352D01*
X051600Y036591D02*
X044515Y036591D01*
X044734Y036829D02*
X051600Y036829D01*
X051600Y037068D02*
X044740Y037068D01*
X044740Y037306D02*
X051600Y037306D01*
X051600Y038022D02*
X038100Y038022D01*
X038100Y038260D02*
X051600Y038260D01*
X051600Y038499D02*
X038100Y038499D01*
X038100Y038737D02*
X051600Y038737D01*
X051600Y038976D02*
X038100Y038976D01*
X040542Y035637D02*
X040658Y035637D01*
X041542Y035637D02*
X041658Y035637D01*
X042542Y035637D02*
X042658Y035637D01*
X043542Y035637D02*
X043658Y035637D01*
X045394Y034683D02*
X045866Y034683D01*
X046814Y034683D02*
X049386Y034683D01*
X049071Y034444D02*
X047850Y034444D01*
X049350Y037350D02*
X053850Y037350D01*
X044350Y023473D02*
X041604Y023473D01*
X041720Y023235D02*
X044350Y023235D01*
X044350Y022996D02*
X041720Y022996D01*
X041634Y022758D02*
X044350Y022758D01*
X044350Y016318D02*
X038100Y016318D01*
X030350Y016600D02*
X030350Y018100D01*
X030100Y018350D01*
X030100Y020100D01*
X031350Y022350D02*
X031100Y023100D01*
X032100Y023100D02*
X032350Y022600D01*
X032100Y022350D01*
X031350Y022350D01*
X023850Y022350D01*
X023850Y024600D01*
X024470Y024600D01*
X024470Y024857D01*
X024107Y025220D01*
X023850Y025220D01*
X023850Y024600D01*
X023850Y024600D01*
X023850Y024600D01*
X024470Y024600D01*
X024470Y024343D01*
X024107Y023980D01*
X023850Y023980D01*
X023850Y024600D01*
X023850Y024600D01*
X023850Y024600D01*
X023230Y024600D01*
X023230Y024857D01*
X023593Y025220D01*
X023850Y025220D01*
X023850Y024600D01*
X023850Y023980D01*
X023593Y023980D01*
X023230Y024343D01*
X023230Y024600D01*
X023850Y024600D01*
X023850Y024666D02*
X023850Y024666D01*
X023850Y024904D02*
X023850Y024904D01*
X023850Y025143D02*
X023850Y025143D01*
X024184Y025143D02*
X025100Y025143D01*
X025100Y025381D02*
X018850Y025381D01*
X018850Y025143D02*
X021516Y025143D01*
X021593Y025220D02*
X021230Y024857D01*
X021230Y024343D01*
X021593Y023980D01*
X022107Y023980D01*
X022470Y024343D01*
X022470Y024857D01*
X022107Y025220D01*
X021593Y025220D01*
X021843Y025480D02*
X022100Y025480D01*
X022357Y025480D01*
X022720Y025843D01*
X022720Y026100D01*
X022720Y026357D01*
X022357Y026720D01*
X022100Y026720D01*
X022100Y026100D01*
X022720Y026100D01*
X022100Y026100D01*
X022100Y026100D01*
X022100Y026100D01*
X022100Y025480D01*
X022100Y026100D01*
X022100Y026100D01*
X022100Y026100D01*
X021480Y026100D01*
X021480Y026357D01*
X021843Y026720D01*
X022100Y026720D01*
X022100Y026100D01*
X021480Y026100D01*
X021480Y025843D01*
X021843Y025480D01*
X021704Y025620D02*
X018850Y025620D01*
X018850Y025858D02*
X021480Y025858D01*
X021480Y026097D02*
X018850Y026097D01*
X018850Y026335D02*
X021480Y026335D01*
X021697Y026574D02*
X018850Y026574D01*
X018850Y026812D02*
X025100Y026812D01*
X025100Y026574D02*
X022503Y026574D01*
X022720Y026335D02*
X025100Y026335D01*
X025100Y026097D02*
X022720Y026097D01*
X022720Y025858D02*
X025100Y025858D01*
X025100Y025620D02*
X022496Y025620D01*
X022100Y025620D02*
X022100Y025620D01*
X022100Y025858D02*
X022100Y025858D01*
X022100Y026097D02*
X022100Y026097D01*
X022100Y026335D02*
X022100Y026335D01*
X022100Y026574D02*
X022100Y026574D01*
X022100Y027480D02*
X022100Y028100D01*
X022720Y028100D01*
X022720Y028357D01*
X022357Y028720D01*
X022100Y028720D01*
X022100Y028100D01*
X022100Y028100D01*
X022100Y028100D01*
X022720Y028100D01*
X022720Y027843D01*
X022357Y027480D01*
X022100Y027480D01*
X022100Y028100D01*
X022100Y028100D01*
X022100Y028100D01*
X021480Y028100D01*
X021480Y028357D01*
X021843Y028720D01*
X022100Y028720D01*
X022100Y028100D01*
X021480Y028100D01*
X021480Y027843D01*
X021843Y027480D01*
X022100Y027480D01*
X022100Y027528D02*
X022100Y027528D01*
X022100Y027766D02*
X022100Y027766D01*
X022100Y028005D02*
X022100Y028005D01*
X022100Y028243D02*
X022100Y028243D01*
X022100Y028482D02*
X022100Y028482D01*
X022595Y028482D02*
X025100Y028482D01*
X025100Y028720D02*
X018850Y028720D01*
X018850Y028482D02*
X021605Y028482D01*
X021480Y028243D02*
X018850Y028243D01*
X018850Y028005D02*
X021480Y028005D01*
X021557Y027766D02*
X018850Y027766D01*
X018850Y027528D02*
X021796Y027528D01*
X022404Y027528D02*
X025100Y027528D01*
X025100Y027766D02*
X022643Y027766D01*
X022720Y028005D02*
X025100Y028005D01*
X025100Y028243D02*
X022720Y028243D01*
X022357Y029480D02*
X022100Y029480D01*
X022100Y030100D01*
X022720Y030100D01*
X022720Y030357D01*
X022357Y030720D01*
X022100Y030720D01*
X022100Y030100D01*
X022100Y030100D01*
X022100Y030100D01*
X022720Y030100D01*
X022720Y029843D01*
X022357Y029480D01*
X022100Y029480D02*
X022100Y030100D01*
X022100Y030100D01*
X022100Y030100D01*
X021480Y030100D01*
X021480Y030357D01*
X021843Y030720D01*
X022100Y030720D01*
X022100Y030100D01*
X021480Y030100D01*
X021480Y029843D01*
X021843Y029480D01*
X022100Y029480D01*
X022100Y029674D02*
X022100Y029674D01*
X022100Y029913D02*
X022100Y029913D01*
X022100Y030151D02*
X022100Y030151D01*
X022100Y030390D02*
X022100Y030390D01*
X022100Y030628D02*
X022100Y030628D01*
X022449Y030628D02*
X025100Y030628D01*
X025100Y030390D02*
X022687Y030390D01*
X022720Y030151D02*
X025100Y030151D01*
X025100Y029913D02*
X022720Y029913D01*
X022551Y029674D02*
X025100Y029674D01*
X025100Y029436D02*
X018850Y029436D01*
X018850Y029674D02*
X021649Y029674D01*
X021480Y029913D02*
X018850Y029913D01*
X018850Y030151D02*
X021480Y030151D01*
X021513Y030390D02*
X018850Y030390D01*
X018850Y030628D02*
X021751Y030628D01*
X021843Y031480D02*
X022100Y031480D01*
X022357Y031480D01*
X022720Y031843D01*
X022720Y032100D01*
X022720Y032357D01*
X022357Y032720D01*
X022100Y032720D01*
X022100Y032100D01*
X022720Y032100D01*
X022100Y032100D01*
X022100Y032100D01*
X022100Y032100D01*
X022100Y031480D01*
X022100Y032100D01*
X022100Y032100D01*
X022100Y032100D01*
X021480Y032100D01*
X021480Y032357D01*
X021843Y032720D01*
X022100Y032720D01*
X022100Y032100D01*
X021480Y032100D01*
X021480Y031843D01*
X021843Y031480D01*
X021741Y031582D02*
X018850Y031582D01*
X018850Y031344D02*
X025100Y031344D01*
X025100Y031582D02*
X022459Y031582D01*
X022697Y031821D02*
X025100Y031821D01*
X025100Y032059D02*
X022720Y032059D01*
X022720Y032298D02*
X025100Y032298D01*
X025100Y032536D02*
X022541Y032536D01*
X022100Y032536D02*
X022100Y032536D01*
X022100Y032298D02*
X022100Y032298D01*
X022100Y032059D02*
X022100Y032059D01*
X022100Y031821D02*
X022100Y031821D01*
X022100Y031582D02*
X022100Y031582D01*
X021503Y031821D02*
X018850Y031821D01*
X018850Y032059D02*
X021480Y032059D01*
X021480Y032298D02*
X018850Y032298D01*
X018850Y032536D02*
X019787Y032536D01*
X019843Y032480D02*
X020357Y032480D01*
X020600Y032723D01*
X020843Y032480D01*
X021357Y032480D01*
X021720Y032843D01*
X021720Y033180D01*
X023731Y033180D01*
X023784Y033127D01*
X023989Y033042D01*
X024211Y033042D01*
X024416Y033127D01*
X024573Y033284D01*
X024658Y033489D01*
X024658Y033542D01*
X024711Y033542D01*
X024916Y033627D01*
X025073Y033784D01*
X025100Y033849D01*
X025100Y016100D01*
X018850Y016100D01*
X018850Y034350D01*
X012850Y034350D01*
X012850Y034850D01*
X011600Y034850D01*
X011600Y039110D01*
X025100Y039110D01*
X025100Y034351D01*
X025073Y034416D01*
X024916Y034573D01*
X024711Y034658D01*
X024489Y034658D01*
X024284Y034573D01*
X024231Y034520D01*
X021557Y034520D01*
X021357Y034720D01*
X020843Y034720D01*
X020600Y034477D01*
X020357Y034720D01*
X019843Y034720D01*
X019480Y034357D01*
X019480Y033843D01*
X019723Y033600D01*
X019480Y033357D01*
X019480Y032843D01*
X019843Y032480D01*
X019549Y032775D02*
X018850Y032775D01*
X018850Y033013D02*
X019480Y033013D01*
X019480Y033252D02*
X018850Y033252D01*
X018850Y033490D02*
X019613Y033490D01*
X019595Y033729D02*
X018850Y033729D01*
X018850Y033967D02*
X019480Y033967D01*
X019480Y034206D02*
X018850Y034206D01*
X019567Y034444D02*
X012850Y034444D01*
X012850Y034683D02*
X019806Y034683D01*
X020394Y034683D02*
X020806Y034683D01*
X021394Y034683D02*
X025100Y034683D01*
X025100Y034921D02*
X011600Y034921D01*
X011600Y035160D02*
X025100Y035160D01*
X025100Y035398D02*
X011600Y035398D01*
X011600Y035637D02*
X018658Y035637D01*
X018835Y035460D02*
X019365Y035460D01*
X019600Y035695D01*
X019835Y035460D01*
X020365Y035460D01*
X020600Y035695D01*
X020835Y035460D01*
X021365Y035460D01*
X021600Y035695D01*
X021835Y035460D01*
X022365Y035460D01*
X022600Y035695D01*
X022835Y035460D01*
X023365Y035460D01*
X023740Y035835D01*
X023740Y036365D01*
X023505Y036600D01*
X023740Y036835D01*
X023740Y037365D01*
X023365Y037740D01*
X022835Y037740D01*
X022600Y037505D01*
X022365Y037740D01*
X021835Y037740D01*
X021600Y037505D01*
X021365Y037740D01*
X020835Y037740D01*
X020600Y037505D01*
X020365Y037740D01*
X019835Y037740D01*
X019600Y037505D01*
X019365Y037740D01*
X019100Y037740D01*
X019100Y037100D01*
X019100Y037100D01*
X019100Y037100D01*
X018460Y037100D01*
X018460Y037365D01*
X018835Y037740D01*
X019100Y037740D01*
X019100Y037100D01*
X018460Y037100D01*
X018460Y036835D01*
X018695Y036600D01*
X018460Y036365D01*
X018460Y035835D01*
X018835Y035460D01*
X018460Y035875D02*
X011600Y035875D01*
X011600Y036114D02*
X018460Y036114D01*
X018460Y036352D02*
X011600Y036352D01*
X011600Y036591D02*
X018685Y036591D01*
X018466Y036829D02*
X011600Y036829D01*
X011600Y037068D02*
X018460Y037068D01*
X018460Y037306D02*
X011600Y037306D01*
X011600Y037545D02*
X018639Y037545D01*
X019100Y037545D02*
X019100Y037545D01*
X019100Y037306D02*
X019100Y037306D01*
X019561Y037545D02*
X019639Y037545D01*
X020561Y037545D02*
X020639Y037545D01*
X021561Y037545D02*
X021639Y037545D01*
X022561Y037545D02*
X022639Y037545D01*
X023561Y037545D02*
X025100Y037545D01*
X025100Y037783D02*
X011600Y037783D01*
X011600Y038022D02*
X025100Y038022D01*
X025100Y038260D02*
X011600Y038260D01*
X011600Y038499D02*
X025100Y038499D01*
X025100Y038737D02*
X011600Y038737D01*
X011600Y038976D02*
X025100Y038976D01*
X025100Y037306D02*
X023740Y037306D01*
X023740Y037068D02*
X025100Y037068D01*
X025100Y036829D02*
X023734Y036829D01*
X023515Y036591D02*
X025100Y036591D01*
X025100Y036352D02*
X023740Y036352D01*
X023740Y036114D02*
X025100Y036114D01*
X025100Y035875D02*
X023740Y035875D01*
X023542Y035637D02*
X025100Y035637D01*
X026100Y035850D02*
X026100Y034850D01*
X026100Y033850D01*
X025100Y033729D02*
X025018Y033729D01*
X025100Y033490D02*
X024658Y033490D01*
X024541Y033252D02*
X025100Y033252D01*
X025100Y033013D02*
X021720Y033013D01*
X021651Y032775D02*
X025100Y032775D01*
X025045Y034444D02*
X025100Y034444D01*
X026100Y035850D02*
X026100Y036850D01*
X024850Y036850D01*
X022658Y035637D02*
X022542Y035637D01*
X021658Y035637D02*
X021542Y035637D01*
X020658Y035637D02*
X020542Y035637D01*
X019658Y035637D02*
X019542Y035637D01*
X020413Y032536D02*
X020787Y032536D01*
X021413Y032536D02*
X021659Y032536D01*
X018850Y031105D02*
X025100Y031105D01*
X025100Y030867D02*
X018850Y030867D01*
X018850Y029197D02*
X025100Y029197D01*
X025100Y028959D02*
X018850Y028959D01*
X018850Y027289D02*
X025100Y027289D01*
X025100Y027051D02*
X018850Y027051D01*
X018850Y024904D02*
X021277Y024904D01*
X021230Y024666D02*
X018850Y024666D01*
X018850Y024427D02*
X021230Y024427D01*
X021385Y024189D02*
X018850Y024189D01*
X018850Y023950D02*
X025100Y023950D01*
X025100Y023712D02*
X022365Y023712D01*
X022357Y023720D02*
X022100Y023720D01*
X022100Y023100D01*
X022720Y023100D01*
X022720Y023357D01*
X022357Y023720D01*
X022100Y023720D02*
X022100Y023100D01*
X022100Y023100D01*
X022100Y023100D01*
X022720Y023100D01*
X022720Y022843D01*
X022357Y022480D01*
X022100Y022480D01*
X022100Y023100D01*
X022100Y023100D01*
X022100Y023100D01*
X021480Y023100D01*
X021480Y023357D01*
X021843Y023720D01*
X022100Y023720D01*
X022100Y023712D02*
X022100Y023712D01*
X022100Y023473D02*
X022100Y023473D01*
X022100Y023235D02*
X022100Y023235D01*
X022100Y023100D02*
X021480Y023100D01*
X021480Y022843D01*
X021843Y022480D01*
X022100Y022480D01*
X022100Y023100D01*
X022100Y022996D02*
X022100Y022996D01*
X022100Y022758D02*
X022100Y022758D01*
X022100Y022519D02*
X022100Y022519D01*
X022396Y022519D02*
X025100Y022519D01*
X025100Y022281D02*
X018850Y022281D01*
X018850Y022519D02*
X021804Y022519D01*
X021566Y022758D02*
X018850Y022758D01*
X018850Y022996D02*
X021480Y022996D01*
X021480Y023235D02*
X018850Y023235D01*
X018850Y023473D02*
X021596Y023473D01*
X021835Y023712D02*
X018850Y023712D01*
X018850Y022042D02*
X025100Y022042D01*
X025100Y021804D02*
X018850Y021804D01*
X018850Y021565D02*
X021688Y021565D01*
X021843Y021720D02*
X021480Y021357D01*
X021480Y021100D01*
X022100Y021100D01*
X022720Y021100D01*
X022720Y021357D01*
X022357Y021720D01*
X022100Y021720D01*
X022100Y021100D01*
X022100Y021100D01*
X022100Y021100D01*
X022720Y021100D01*
X022720Y020843D01*
X022357Y020480D01*
X022100Y020480D01*
X022100Y021100D01*
X022100Y021100D01*
X022100Y021100D01*
X022100Y021720D01*
X021843Y021720D01*
X022100Y021565D02*
X022100Y021565D01*
X022100Y021327D02*
X022100Y021327D01*
X022100Y021100D02*
X021480Y021100D01*
X021480Y020843D01*
X021843Y020480D01*
X022100Y020480D01*
X022100Y021100D01*
X022100Y021088D02*
X022100Y021088D01*
X022100Y020850D02*
X022100Y020850D01*
X022100Y020611D02*
X022100Y020611D01*
X022488Y020611D02*
X025100Y020611D01*
X025100Y020373D02*
X018850Y020373D01*
X018850Y020611D02*
X021712Y020611D01*
X021480Y020850D02*
X018850Y020850D01*
X018850Y021088D02*
X021480Y021088D01*
X021480Y021327D02*
X018850Y021327D01*
X018850Y020134D02*
X025100Y020134D01*
X025100Y019896D02*
X018850Y019896D01*
X018850Y019657D02*
X021780Y019657D01*
X021843Y019720D02*
X021480Y019357D01*
X021480Y019100D01*
X022100Y019100D01*
X022720Y019100D01*
X022720Y019357D01*
X022357Y019720D01*
X022100Y019720D01*
X022100Y019100D01*
X022100Y019100D01*
X022100Y019100D01*
X022720Y019100D01*
X022720Y018843D01*
X022357Y018480D01*
X022100Y018480D01*
X022100Y019100D01*
X022100Y019100D01*
X022100Y019100D01*
X022100Y019720D01*
X021843Y019720D01*
X022100Y019657D02*
X022100Y019657D01*
X022100Y019419D02*
X022100Y019419D01*
X022100Y019180D02*
X022100Y019180D01*
X022100Y019100D02*
X021480Y019100D01*
X021480Y018843D01*
X021843Y018480D01*
X022100Y018480D01*
X022100Y019100D01*
X022100Y018942D02*
X022100Y018942D01*
X022100Y018703D02*
X022100Y018703D01*
X022580Y018703D02*
X025100Y018703D01*
X025100Y018465D02*
X018850Y018465D01*
X018850Y018703D02*
X021620Y018703D01*
X021480Y018942D02*
X018850Y018942D01*
X018850Y019180D02*
X021480Y019180D01*
X021542Y019419D02*
X018850Y019419D01*
X018850Y018226D02*
X025100Y018226D01*
X025100Y017988D02*
X018850Y017988D01*
X018850Y017749D02*
X025100Y017749D01*
X025100Y017511D02*
X022566Y017511D01*
X022720Y017357D02*
X022357Y017720D01*
X022100Y017720D01*
X022100Y017100D01*
X022720Y017100D01*
X022720Y017357D01*
X022720Y017272D02*
X025100Y017272D01*
X025100Y017034D02*
X022720Y017034D01*
X022720Y017100D02*
X022720Y016843D01*
X022357Y016480D01*
X022100Y016480D01*
X022100Y017100D01*
X022100Y017100D01*
X022100Y017100D01*
X022720Y017100D01*
X022672Y016795D02*
X025100Y016795D01*
X025100Y016557D02*
X022433Y016557D01*
X022100Y016557D02*
X022100Y016557D01*
X022100Y016480D02*
X022100Y017100D01*
X022100Y017100D01*
X022100Y017100D01*
X021480Y017100D01*
X021480Y017357D01*
X021843Y017720D01*
X022100Y017720D01*
X022100Y017100D01*
X021480Y017100D01*
X021480Y016843D01*
X021843Y016480D01*
X022100Y016480D01*
X022100Y016795D02*
X022100Y016795D01*
X022100Y017034D02*
X022100Y017034D01*
X022100Y017272D02*
X022100Y017272D01*
X022100Y017511D02*
X022100Y017511D01*
X021634Y017511D02*
X018850Y017511D01*
X018850Y017272D02*
X021480Y017272D01*
X021480Y017034D02*
X018850Y017034D01*
X018850Y016795D02*
X021528Y016795D01*
X021767Y016557D02*
X018850Y016557D01*
X018850Y016318D02*
X025100Y016318D01*
X025100Y018942D02*
X022720Y018942D01*
X022720Y019180D02*
X025100Y019180D01*
X025100Y019419D02*
X022658Y019419D01*
X022420Y019657D02*
X025100Y019657D01*
X025100Y020850D02*
X022720Y020850D01*
X022720Y021088D02*
X025100Y021088D01*
X025100Y021327D02*
X022720Y021327D01*
X022512Y021565D02*
X025100Y021565D01*
X025100Y022758D02*
X022634Y022758D01*
X022720Y022996D02*
X025100Y022996D01*
X025100Y023235D02*
X022720Y023235D01*
X022604Y023473D02*
X025100Y023473D01*
X025100Y024189D02*
X024315Y024189D01*
X024470Y024427D02*
X025100Y024427D01*
X025100Y024666D02*
X024470Y024666D01*
X024423Y024904D02*
X025100Y024904D01*
X023850Y024427D02*
X023850Y024427D01*
X023850Y024189D02*
X023850Y024189D01*
X023385Y024189D02*
X022315Y024189D01*
X022470Y024427D02*
X023230Y024427D01*
X023230Y024666D02*
X022470Y024666D01*
X022423Y024904D02*
X023277Y024904D01*
X023516Y025143D02*
X022184Y025143D01*
X012350Y037350D02*
X009350Y037350D01*
X009357Y008720D02*
X009100Y008720D01*
X009100Y008100D01*
X009100Y008100D01*
X009100Y008720D01*
X008843Y008720D01*
X008480Y008357D01*
X008480Y008100D01*
X009100Y008100D01*
X009100Y007480D01*
X009357Y007480D01*
X009600Y007723D01*
X009843Y007480D01*
X010357Y007480D01*
X010720Y007843D01*
X010720Y008357D01*
X010357Y008720D01*
X009843Y008720D01*
X009600Y008477D01*
X009357Y008720D01*
X009391Y008686D02*
X009809Y008686D01*
X010391Y008686D02*
X012309Y008686D01*
X012343Y008720D02*
X011980Y008357D01*
X011980Y008100D01*
X012600Y008100D01*
X012600Y008100D01*
X012600Y008720D01*
X012857Y008720D01*
X013100Y008477D01*
X013343Y008720D01*
X013857Y008720D01*
X014220Y008357D01*
X014220Y007843D01*
X013857Y007480D01*
X013343Y007480D01*
X013100Y007723D01*
X012857Y007480D01*
X012600Y007480D01*
X012600Y008100D01*
X012600Y008720D01*
X012343Y008720D01*
X012600Y008686D02*
X012600Y008686D01*
X012600Y008448D02*
X012600Y008448D01*
X012600Y008209D02*
X012600Y008209D01*
X012600Y008100D02*
X012600Y008100D01*
X012600Y008100D01*
X012600Y007480D01*
X012343Y007480D01*
X011980Y007843D01*
X011980Y008100D01*
X012600Y008100D01*
X012600Y007971D02*
X012600Y007971D01*
X012600Y007732D02*
X012600Y007732D01*
X012600Y007494D02*
X012600Y007494D01*
X012870Y007494D02*
X013330Y007494D01*
X013870Y007494D02*
X015830Y007494D01*
X015843Y007480D02*
X016100Y007480D01*
X016357Y007480D01*
X016600Y007723D01*
X016843Y007480D01*
X017357Y007480D01*
X017720Y007843D01*
X017720Y008357D01*
X017357Y008720D01*
X016843Y008720D01*
X016600Y008477D01*
X016357Y008720D01*
X016100Y008720D01*
X016100Y008100D01*
X016100Y008100D01*
X016100Y008720D01*
X015843Y008720D01*
X015480Y008357D01*
X015480Y008100D01*
X016100Y008100D01*
X016100Y007480D01*
X016100Y008100D01*
X016100Y008100D01*
X016100Y008100D01*
X015480Y008100D01*
X015480Y007843D01*
X015843Y007480D01*
X016100Y007494D02*
X016100Y007494D01*
X016100Y007732D02*
X016100Y007732D01*
X016100Y007971D02*
X016100Y007971D01*
X016100Y008209D02*
X016100Y008209D01*
X016100Y008448D02*
X016100Y008448D01*
X016100Y008686D02*
X016100Y008686D01*
X016391Y008686D02*
X016809Y008686D01*
X017391Y008686D02*
X019309Y008686D01*
X019343Y008720D02*
X018980Y008357D01*
X018980Y008100D01*
X019600Y008100D01*
X019600Y008100D01*
X019600Y008720D01*
X019857Y008720D01*
X020100Y008477D01*
X020343Y008720D01*
X020857Y008720D01*
X021220Y008357D01*
X021220Y007843D01*
X020857Y007480D01*
X020343Y007480D01*
X020100Y007723D01*
X019857Y007480D01*
X019600Y007480D01*
X019600Y008100D01*
X019600Y008720D01*
X019343Y008720D01*
X019600Y008686D02*
X019600Y008686D01*
X019600Y008448D02*
X019600Y008448D01*
X019600Y008209D02*
X019600Y008209D01*
X019600Y008100D02*
X019600Y008100D01*
X019600Y008100D01*
X019600Y007480D01*
X019343Y007480D01*
X018980Y007843D01*
X018980Y008100D01*
X019600Y008100D01*
X019600Y007971D02*
X019600Y007971D01*
X019600Y007732D02*
X019600Y007732D01*
X019600Y007494D02*
X019600Y007494D01*
X019870Y007494D02*
X020330Y007494D01*
X020870Y007494D02*
X022830Y007494D01*
X022843Y007480D02*
X023100Y007480D01*
X023357Y007480D01*
X023600Y007723D01*
X023843Y007480D01*
X024357Y007480D01*
X024720Y007843D01*
X024720Y008357D01*
X024357Y008720D01*
X023843Y008720D01*
X023600Y008477D01*
X023357Y008720D01*
X023100Y008720D01*
X023100Y008100D01*
X023100Y008100D01*
X023100Y008720D01*
X022843Y008720D01*
X022480Y008357D01*
X022480Y008100D01*
X023100Y008100D01*
X023100Y007480D01*
X023100Y008100D01*
X023100Y008100D01*
X023100Y008100D01*
X022480Y008100D01*
X022480Y007843D01*
X022843Y007480D01*
X023100Y007494D02*
X023100Y007494D01*
X023100Y007732D02*
X023100Y007732D01*
X023100Y007971D02*
X023100Y007971D01*
X023100Y008209D02*
X023100Y008209D01*
X023100Y008448D02*
X023100Y008448D01*
X023100Y008686D02*
X023100Y008686D01*
X023391Y008686D02*
X023809Y008686D01*
X024391Y008686D02*
X026309Y008686D01*
X026343Y008720D02*
X025980Y008357D01*
X025980Y008100D01*
X026600Y008100D01*
X026600Y008100D01*
X026600Y008720D01*
X026857Y008720D01*
X027100Y008477D01*
X027343Y008720D01*
X027857Y008720D01*
X028220Y008357D01*
X028220Y007843D01*
X027857Y007480D01*
X027343Y007480D01*
X027100Y007723D01*
X026857Y007480D01*
X026600Y007480D01*
X026600Y008100D01*
X026600Y008720D01*
X026343Y008720D01*
X026600Y008686D02*
X026600Y008686D01*
X026600Y008448D02*
X026600Y008448D01*
X026600Y008209D02*
X026600Y008209D01*
X026600Y008100D02*
X026600Y008100D01*
X026600Y008100D01*
X026600Y007480D01*
X026343Y007480D01*
X025980Y007843D01*
X025980Y008100D01*
X026600Y008100D01*
X026600Y007971D02*
X026600Y007971D01*
X026600Y007732D02*
X026600Y007732D01*
X026600Y007494D02*
X026600Y007494D01*
X026870Y007494D02*
X027330Y007494D01*
X027870Y007494D02*
X032888Y007494D01*
X032888Y007451D02*
X032900Y007358D01*
X032924Y007268D01*
X032960Y007182D01*
X033006Y007101D01*
X033063Y007027D01*
X033129Y006961D01*
X033203Y006904D01*
X033284Y006857D01*
X033370Y006821D01*
X033461Y006797D01*
X033553Y006785D01*
X033600Y006785D01*
X033647Y006785D01*
X033739Y006797D01*
X033830Y006821D01*
X033916Y006857D01*
X033997Y006904D01*
X034071Y006961D01*
X034137Y007027D01*
X034194Y007101D01*
X034240Y007182D01*
X034276Y007268D01*
X034300Y007358D01*
X034312Y007451D01*
X034312Y007850D01*
X033600Y007850D01*
X033600Y007850D01*
X033600Y007850D01*
X032888Y007850D01*
X032888Y007451D01*
X032929Y007255D02*
X000460Y007255D01*
X000460Y007017D02*
X033073Y007017D01*
X033600Y007017D02*
X033600Y007017D01*
X033600Y006785D02*
X033600Y007850D01*
X033600Y007850D01*
X032888Y007850D01*
X032888Y008249D01*
X032900Y008342D01*
X032924Y008432D01*
X032960Y008518D01*
X033006Y008599D01*
X033063Y008673D01*
X033129Y008739D01*
X033203Y008796D01*
X033284Y008843D01*
X033301Y008850D01*
X000460Y008850D01*
X000460Y008686D02*
X001809Y008686D01*
X001843Y008720D02*
X001480Y008357D01*
X001480Y008100D01*
X002100Y008100D01*
X002100Y008100D01*
X002100Y008720D01*
X002357Y008720D01*
X002600Y008477D01*
X002843Y008720D01*
X003357Y008720D01*
X003720Y008357D01*
X003720Y007843D01*
X003357Y007480D01*
X002843Y007480D01*
X002600Y007723D01*
X002357Y007480D01*
X002100Y007480D01*
X002100Y008100D01*
X002100Y008720D01*
X001843Y008720D01*
X002100Y008686D02*
X002100Y008686D01*
X002100Y008448D02*
X002100Y008448D01*
X002100Y008209D02*
X002100Y008209D01*
X002100Y008100D02*
X002100Y008100D01*
X002100Y008100D01*
X002100Y007480D01*
X001843Y007480D01*
X001480Y007843D01*
X001480Y008100D01*
X002100Y008100D01*
X002100Y007971D02*
X002100Y007971D01*
X002100Y007732D02*
X002100Y007732D01*
X002100Y007494D02*
X002100Y007494D01*
X002370Y007494D02*
X002830Y007494D01*
X003370Y007494D02*
X005330Y007494D01*
X005343Y007480D02*
X005600Y007480D01*
X005857Y007480D01*
X006100Y007723D01*
X006343Y007480D01*
X006857Y007480D01*
X007220Y007843D01*
X007220Y008357D01*
X006857Y008720D01*
X006343Y008720D01*
X006100Y008477D01*
X005857Y008720D01*
X005600Y008720D01*
X005600Y008100D01*
X005600Y008100D01*
X005600Y008720D01*
X005343Y008720D01*
X004980Y008357D01*
X004980Y008100D01*
X005600Y008100D01*
X005600Y007480D01*
X005600Y008100D01*
X005600Y008100D01*
X005600Y008100D01*
X004980Y008100D01*
X004980Y007843D01*
X005343Y007480D01*
X005600Y007494D02*
X005600Y007494D01*
X005600Y007732D02*
X005600Y007732D01*
X005600Y007971D02*
X005600Y007971D01*
X005600Y008209D02*
X005600Y008209D01*
X005600Y008448D02*
X005600Y008448D01*
X005600Y008686D02*
X005600Y008686D01*
X005891Y008686D02*
X006309Y008686D01*
X006891Y008686D02*
X008809Y008686D01*
X009100Y008686D02*
X009100Y008686D01*
X009100Y008448D02*
X009100Y008448D01*
X009100Y008209D02*
X009100Y008209D01*
X009100Y008100D02*
X009100Y008100D01*
X009100Y008100D01*
X009100Y007480D01*
X008843Y007480D01*
X008480Y007843D01*
X008480Y008100D01*
X009100Y008100D01*
X009100Y007971D02*
X009100Y007971D01*
X009100Y007732D02*
X009100Y007732D01*
X009100Y007494D02*
X009100Y007494D01*
X009370Y007494D02*
X009830Y007494D01*
X010370Y007494D02*
X012330Y007494D01*
X012091Y007732D02*
X010609Y007732D01*
X010720Y007971D02*
X011980Y007971D01*
X011980Y008209D02*
X010720Y008209D01*
X010629Y008448D02*
X012071Y008448D01*
X012891Y008686D02*
X013309Y008686D01*
X013891Y008686D02*
X015809Y008686D01*
X015571Y008448D02*
X014129Y008448D01*
X014220Y008209D02*
X015480Y008209D01*
X015480Y007971D02*
X014220Y007971D01*
X014109Y007732D02*
X015591Y007732D01*
X016370Y007494D02*
X016830Y007494D01*
X017370Y007494D02*
X019330Y007494D01*
X019091Y007732D02*
X017609Y007732D01*
X017720Y007971D02*
X018980Y007971D01*
X018980Y008209D02*
X017720Y008209D01*
X017629Y008448D02*
X019071Y008448D01*
X019891Y008686D02*
X020309Y008686D01*
X020891Y008686D02*
X022809Y008686D01*
X022571Y008448D02*
X021129Y008448D01*
X021220Y008209D02*
X022480Y008209D01*
X022480Y007971D02*
X021220Y007971D01*
X021109Y007732D02*
X022591Y007732D01*
X023370Y007494D02*
X023830Y007494D01*
X024370Y007494D02*
X026330Y007494D01*
X026091Y007732D02*
X024609Y007732D01*
X024720Y007971D02*
X025980Y007971D01*
X025980Y008209D02*
X024720Y008209D01*
X024629Y008448D02*
X026071Y008448D01*
X026891Y008686D02*
X027309Y008686D01*
X027891Y008686D02*
X033076Y008686D01*
X032930Y008448D02*
X028129Y008448D01*
X028220Y008209D02*
X032888Y008209D01*
X032888Y007971D02*
X028220Y007971D01*
X028109Y007732D02*
X032888Y007732D01*
X033600Y007732D02*
X033600Y007732D01*
X033600Y007850D02*
X033600Y006785D01*
X033600Y007255D02*
X033600Y007255D01*
X033600Y007494D02*
X033600Y007494D01*
X034127Y007017D02*
X062732Y007017D01*
X062732Y007255D02*
X034271Y007255D01*
X034312Y007494D02*
X035830Y007494D01*
X035843Y007480D02*
X036100Y007480D01*
X036357Y007480D01*
X036600Y007723D01*
X036843Y007480D01*
X037357Y007480D01*
X037720Y007843D01*
X037720Y008357D01*
X037357Y008720D01*
X036843Y008720D01*
X036600Y008477D01*
X036357Y008720D01*
X036100Y008720D01*
X036100Y008100D01*
X036100Y008100D01*
X036100Y008720D01*
X035843Y008720D01*
X035480Y008357D01*
X035480Y008100D01*
X036100Y008100D01*
X036100Y007480D01*
X036100Y008100D01*
X036100Y008100D01*
X036100Y008100D01*
X035480Y008100D01*
X035480Y007843D01*
X035843Y007480D01*
X036100Y007494D02*
X036100Y007494D01*
X036100Y007732D02*
X036100Y007732D01*
X036100Y007971D02*
X036100Y007971D01*
X036100Y008209D02*
X036100Y008209D01*
X036100Y008448D02*
X036100Y008448D01*
X036100Y008686D02*
X036100Y008686D01*
X036391Y008686D02*
X036809Y008686D01*
X037391Y008686D02*
X039309Y008686D01*
X039343Y008720D02*
X038980Y008357D01*
X038980Y008100D01*
X039600Y008100D01*
X039600Y008100D01*
X039600Y008720D01*
X039857Y008720D01*
X040100Y008477D01*
X040343Y008720D01*
X040857Y008720D01*
X041220Y008357D01*
X041220Y007843D01*
X040857Y007480D01*
X040343Y007480D01*
X040100Y007723D01*
X039857Y007480D01*
X039600Y007480D01*
X039600Y008100D01*
X039600Y008720D01*
X039343Y008720D01*
X039600Y008686D02*
X039600Y008686D01*
X039600Y008448D02*
X039600Y008448D01*
X039600Y008209D02*
X039600Y008209D01*
X039600Y008100D02*
X039600Y008100D01*
X039600Y008100D01*
X039600Y007480D01*
X039343Y007480D01*
X038980Y007843D01*
X038980Y008100D01*
X039600Y008100D01*
X039600Y007971D02*
X039600Y007971D01*
X039600Y007732D02*
X039600Y007732D01*
X039600Y007494D02*
X039600Y007494D01*
X039870Y007494D02*
X040330Y007494D01*
X040870Y007494D02*
X042830Y007494D01*
X042843Y007480D02*
X043100Y007480D01*
X043357Y007480D01*
X043600Y007723D01*
X043843Y007480D01*
X044357Y007480D01*
X044720Y007843D01*
X044720Y008357D01*
X044357Y008720D01*
X043843Y008720D01*
X043600Y008477D01*
X043357Y008720D01*
X043100Y008720D01*
X043100Y008100D01*
X043100Y008100D01*
X043100Y008720D01*
X042843Y008720D01*
X042480Y008357D01*
X042480Y008100D01*
X043100Y008100D01*
X043100Y007480D01*
X043100Y008100D01*
X043100Y008100D01*
X043100Y008100D01*
X042480Y008100D01*
X042480Y007843D01*
X042843Y007480D01*
X043100Y007494D02*
X043100Y007494D01*
X043100Y007732D02*
X043100Y007732D01*
X043100Y007971D02*
X043100Y007971D01*
X043100Y008209D02*
X043100Y008209D01*
X043100Y008448D02*
X043100Y008448D01*
X043100Y008686D02*
X043100Y008686D01*
X043391Y008686D02*
X043809Y008686D01*
X044391Y008686D02*
X046309Y008686D01*
X046343Y008720D02*
X045980Y008357D01*
X045980Y008100D01*
X046600Y008100D01*
X046600Y008100D01*
X046600Y008720D01*
X046857Y008720D01*
X047100Y008477D01*
X047343Y008720D01*
X047857Y008720D01*
X048220Y008357D01*
X048220Y007843D01*
X047857Y007480D01*
X047343Y007480D01*
X047100Y007723D01*
X046857Y007480D01*
X046600Y007480D01*
X046600Y008100D01*
X046600Y008720D01*
X046343Y008720D01*
X046600Y008686D02*
X046600Y008686D01*
X046600Y008448D02*
X046600Y008448D01*
X046600Y008209D02*
X046600Y008209D01*
X046600Y008100D02*
X046600Y008100D01*
X046600Y008100D01*
X046600Y007480D01*
X046343Y007480D01*
X045980Y007843D01*
X045980Y008100D01*
X046600Y008100D01*
X046600Y007971D02*
X046600Y007971D01*
X046600Y007732D02*
X046600Y007732D01*
X046600Y007494D02*
X046600Y007494D01*
X046870Y007494D02*
X047330Y007494D01*
X047870Y007494D02*
X049830Y007494D01*
X049843Y007480D02*
X050100Y007480D01*
X050357Y007480D01*
X050600Y007723D01*
X050843Y007480D01*
X051357Y007480D01*
X051720Y007843D01*
X051720Y008357D01*
X051357Y008720D01*
X050843Y008720D01*
X050600Y008477D01*
X050357Y008720D01*
X050100Y008720D01*
X050100Y008100D01*
X050100Y008100D01*
X050100Y008720D01*
X049843Y008720D01*
X049480Y008357D01*
X049480Y008100D01*
X050100Y008100D01*
X050100Y007480D01*
X050100Y008100D01*
X050100Y008100D01*
X050100Y008100D01*
X049480Y008100D01*
X049480Y007843D01*
X049843Y007480D01*
X050100Y007494D02*
X050100Y007494D01*
X050100Y007732D02*
X050100Y007732D01*
X050100Y007971D02*
X050100Y007971D01*
X050100Y008209D02*
X050100Y008209D01*
X050100Y008448D02*
X050100Y008448D01*
X050100Y008686D02*
X050100Y008686D01*
X050391Y008686D02*
X050809Y008686D01*
X051391Y008686D02*
X053309Y008686D01*
X053343Y008720D02*
X052980Y008357D01*
X052980Y008100D01*
X053600Y008100D01*
X053600Y008100D01*
X053600Y008720D01*
X053857Y008720D01*
X054100Y008477D01*
X054343Y008720D01*
X054857Y008720D01*
X055220Y008357D01*
X055220Y007843D01*
X054857Y007480D01*
X054343Y007480D01*
X054100Y007723D01*
X053857Y007480D01*
X053600Y007480D01*
X053600Y008100D01*
X053600Y008720D01*
X053343Y008720D01*
X053600Y008686D02*
X053600Y008686D01*
X053600Y008448D02*
X053600Y008448D01*
X053600Y008209D02*
X053600Y008209D01*
X053600Y008100D02*
X053600Y008100D01*
X053600Y008100D01*
X053600Y007480D01*
X053343Y007480D01*
X052980Y007843D01*
X052980Y008100D01*
X053600Y008100D01*
X053600Y007971D02*
X053600Y007971D01*
X053600Y007732D02*
X053600Y007732D01*
X053600Y007494D02*
X053600Y007494D01*
X053870Y007494D02*
X054330Y007494D01*
X054870Y007494D02*
X056830Y007494D01*
X056843Y007480D02*
X057100Y007480D01*
X057357Y007480D01*
X057600Y007723D01*
X057843Y007480D01*
X058357Y007480D01*
X058720Y007843D01*
X058720Y008357D01*
X058357Y008720D01*
X057843Y008720D01*
X057600Y008477D01*
X057357Y008720D01*
X057100Y008720D01*
X057100Y008100D01*
X057100Y008100D01*
X057100Y008720D01*
X056843Y008720D01*
X056480Y008357D01*
X056480Y008100D01*
X057100Y008100D01*
X057100Y007480D01*
X057100Y008100D01*
X057100Y008100D01*
X057100Y008100D01*
X056480Y008100D01*
X056480Y007843D01*
X056843Y007480D01*
X057100Y007494D02*
X057100Y007494D01*
X057100Y007732D02*
X057100Y007732D01*
X057100Y007971D02*
X057100Y007971D01*
X057100Y008209D02*
X057100Y008209D01*
X057100Y008448D02*
X057100Y008448D01*
X057100Y008686D02*
X057100Y008686D01*
X057391Y008686D02*
X057809Y008686D01*
X058391Y008686D02*
X060309Y008686D01*
X060343Y008720D02*
X059980Y008357D01*
X059980Y008100D01*
X060600Y008100D01*
X060600Y008100D01*
X060600Y008720D01*
X060857Y008720D01*
X061100Y008477D01*
X061343Y008720D01*
X061857Y008720D01*
X062220Y008357D01*
X062220Y007843D01*
X061857Y007480D01*
X061343Y007480D01*
X061100Y007723D01*
X060857Y007480D01*
X060600Y007480D01*
X060600Y008100D01*
X060600Y008720D01*
X060343Y008720D01*
X060600Y008686D02*
X060600Y008686D01*
X060600Y008448D02*
X060600Y008448D01*
X060600Y008209D02*
X060600Y008209D01*
X060600Y008100D02*
X060600Y008100D01*
X060600Y008100D01*
X060600Y007480D01*
X060343Y007480D01*
X059980Y007843D01*
X059980Y008100D01*
X060600Y008100D01*
X060600Y007971D02*
X060600Y007971D01*
X060600Y007732D02*
X060600Y007732D01*
X060600Y007494D02*
X060600Y007494D01*
X060870Y007494D02*
X061330Y007494D01*
X061870Y007494D02*
X062732Y007494D01*
X062732Y007732D02*
X062109Y007732D01*
X062220Y007971D02*
X062732Y007971D01*
X062732Y008209D02*
X062220Y008209D01*
X062129Y008448D02*
X062732Y008448D01*
X062732Y008686D02*
X061891Y008686D01*
X061309Y008686D02*
X060891Y008686D01*
X060071Y008448D02*
X058629Y008448D01*
X058720Y008209D02*
X059980Y008209D01*
X059980Y007971D02*
X058720Y007971D01*
X058609Y007732D02*
X060091Y007732D01*
X060330Y007494D02*
X058370Y007494D01*
X057830Y007494D02*
X057370Y007494D01*
X056591Y007732D02*
X055109Y007732D01*
X055220Y007971D02*
X056480Y007971D01*
X056480Y008209D02*
X055220Y008209D01*
X055129Y008448D02*
X056571Y008448D01*
X056809Y008686D02*
X054891Y008686D01*
X054309Y008686D02*
X053891Y008686D01*
X053071Y008448D02*
X051629Y008448D01*
X051720Y008209D02*
X052980Y008209D01*
X052980Y007971D02*
X051720Y007971D01*
X051609Y007732D02*
X053091Y007732D01*
X053330Y007494D02*
X051370Y007494D01*
X050830Y007494D02*
X050370Y007494D01*
X049591Y007732D02*
X048109Y007732D01*
X048220Y007971D02*
X049480Y007971D01*
X049480Y008209D02*
X048220Y008209D01*
X048129Y008448D02*
X049571Y008448D01*
X049809Y008686D02*
X047891Y008686D01*
X047309Y008686D02*
X046891Y008686D01*
X046071Y008448D02*
X044629Y008448D01*
X044720Y008209D02*
X045980Y008209D01*
X045980Y007971D02*
X044720Y007971D01*
X044609Y007732D02*
X046091Y007732D01*
X046330Y007494D02*
X044370Y007494D01*
X043830Y007494D02*
X043370Y007494D01*
X042591Y007732D02*
X041109Y007732D01*
X041220Y007971D02*
X042480Y007971D01*
X042480Y008209D02*
X041220Y008209D01*
X041129Y008448D02*
X042571Y008448D01*
X042809Y008686D02*
X040891Y008686D01*
X040309Y008686D02*
X039891Y008686D01*
X039071Y008448D02*
X037629Y008448D01*
X037720Y008209D02*
X038980Y008209D01*
X038980Y007971D02*
X037720Y007971D01*
X037609Y007732D02*
X039091Y007732D01*
X039330Y007494D02*
X037370Y007494D01*
X036830Y007494D02*
X036370Y007494D01*
X035591Y007732D02*
X034312Y007732D01*
X034312Y007971D02*
X035480Y007971D01*
X035480Y008209D02*
X034312Y008209D01*
X034270Y008448D02*
X035571Y008448D01*
X035809Y008686D02*
X034124Y008686D01*
X031857Y006470D02*
X031343Y006470D01*
X030980Y006107D01*
X030980Y005593D01*
X031343Y005230D01*
X031857Y005230D01*
X032220Y005593D01*
X032220Y006107D01*
X031857Y006470D01*
X032026Y006301D02*
X062732Y006301D01*
X062732Y006063D02*
X032220Y006063D01*
X032220Y005824D02*
X062732Y005824D01*
X062732Y005586D02*
X032212Y005586D01*
X031974Y005347D02*
X062732Y005347D01*
X062732Y005109D02*
X060546Y005109D01*
X060519Y005118D02*
X060519Y005118D01*
X059959Y005156D01*
X059410Y005042D01*
X059410Y005042D01*
X058911Y004784D01*
X058501Y004401D01*
X058501Y004401D01*
X058210Y003921D01*
X058058Y003381D01*
X058058Y002819D01*
X058210Y002279D01*
X058501Y001799D01*
X058501Y001799D01*
X058911Y001416D01*
X059410Y001158D01*
X059959Y001044D01*
X059959Y001044D01*
X060519Y001082D01*
X060519Y001082D01*
X061048Y001270D01*
X061048Y001270D01*
X061507Y001594D01*
X061861Y002029D01*
X061861Y002029D01*
X062085Y002544D01*
X062161Y003100D01*
X062085Y003656D01*
X061861Y004171D01*
X061507Y004606D01*
X061507Y004606D01*
X061048Y004930D01*
X060519Y005118D01*
X059959Y005156D02*
X059959Y005156D01*
X059729Y005109D02*
X003546Y005109D01*
X003519Y005118D02*
X003519Y005118D01*
X002959Y005156D01*
X002410Y005042D01*
X002410Y005042D01*
X001911Y004784D01*
X001501Y004401D01*
X001501Y004401D01*
X001210Y003921D01*
X001058Y003381D01*
X001058Y002819D01*
X001210Y002279D01*
X001501Y001799D01*
X001501Y001799D01*
X001501Y001799D01*
X001911Y001416D01*
X001911Y001416D01*
X002410Y001158D01*
X002959Y001044D01*
X003519Y001082D01*
X003519Y001082D01*
X004048Y001270D01*
X004048Y001270D01*
X004507Y001594D01*
X004861Y002029D01*
X004861Y002029D01*
X005085Y002544D01*
X005161Y003100D01*
X005085Y003656D01*
X004861Y004171D01*
X004507Y004606D01*
X004507Y004606D01*
X004507Y004606D01*
X004048Y004930D01*
X003519Y005118D01*
X002959Y005156D02*
X002959Y005156D01*
X002729Y005109D02*
X000460Y005109D01*
X000460Y005347D02*
X029726Y005347D01*
X029843Y005230D02*
X030357Y005230D01*
X030720Y005593D01*
X030720Y006107D01*
X030357Y006470D01*
X029843Y006470D01*
X029480Y006107D01*
X029480Y005593D01*
X029843Y005230D01*
X029488Y005586D02*
X000460Y005586D01*
X000460Y005824D02*
X029480Y005824D01*
X029480Y006063D02*
X000460Y006063D01*
X000460Y006301D02*
X029674Y006301D01*
X030526Y006301D02*
X031174Y006301D01*
X030980Y006063D02*
X030720Y006063D01*
X030720Y005824D02*
X030980Y005824D01*
X030988Y005586D02*
X030712Y005586D01*
X030474Y005347D02*
X031226Y005347D01*
X031335Y004240D02*
X031100Y004005D01*
X030865Y004240D01*
X030335Y004240D01*
X030100Y004005D01*
X029865Y004240D01*
X029335Y004240D01*
X029100Y004005D01*
X028865Y004240D01*
X028335Y004240D01*
X028100Y004005D01*
X027865Y004240D01*
X027335Y004240D01*
X027100Y004005D01*
X026865Y004240D01*
X026335Y004240D01*
X026100Y004005D01*
X025865Y004240D01*
X025600Y004240D01*
X025600Y003600D01*
X025600Y003600D01*
X025600Y003600D01*
X024960Y003600D01*
X024960Y003865D01*
X025335Y004240D01*
X025600Y004240D01*
X025600Y003600D01*
X024960Y003600D01*
X024960Y003335D01*
X025195Y003100D01*
X024960Y002865D01*
X024960Y002335D01*
X025335Y001960D01*
X025865Y001960D01*
X026100Y002195D01*
X026335Y001960D01*
X026865Y001960D01*
X027100Y002195D01*
X027335Y001960D01*
X027865Y001960D01*
X028100Y002195D01*
X028335Y001960D01*
X028865Y001960D01*
X029100Y002195D01*
X029335Y001960D01*
X029865Y001960D01*
X030100Y002195D01*
X030335Y001960D01*
X030600Y001960D01*
X030865Y001960D01*
X031100Y002195D01*
X031335Y001960D01*
X031865Y001960D01*
X032100Y002195D01*
X032335Y001960D01*
X032865Y001960D01*
X033100Y002195D01*
X033335Y001960D01*
X033865Y001960D01*
X034100Y002195D01*
X034335Y001960D01*
X034865Y001960D01*
X035100Y002195D01*
X035335Y001960D01*
X035865Y001960D01*
X036100Y002195D01*
X036335Y001960D01*
X036865Y001960D01*
X037100Y002195D01*
X037335Y001960D01*
X037865Y001960D01*
X038240Y002335D01*
X038240Y002865D01*
X038005Y003100D01*
X038240Y003335D01*
X038240Y003865D01*
X037865Y004240D01*
X037335Y004240D01*
X037100Y004005D01*
X036865Y004240D01*
X036335Y004240D01*
X036100Y004005D01*
X035865Y004240D01*
X035335Y004240D01*
X035100Y004005D01*
X034865Y004240D01*
X034335Y004240D01*
X034100Y004005D01*
X033865Y004240D01*
X033335Y004240D01*
X033100Y004005D01*
X032865Y004240D01*
X032335Y004240D01*
X032100Y004005D01*
X031865Y004240D01*
X031335Y004240D01*
X031249Y004155D02*
X030951Y004155D01*
X030249Y004155D02*
X029951Y004155D01*
X029249Y004155D02*
X028951Y004155D01*
X028249Y004155D02*
X027951Y004155D01*
X027249Y004155D02*
X026951Y004155D01*
X026249Y004155D02*
X025951Y004155D01*
X025600Y004155D02*
X025600Y004155D01*
X025600Y003916D02*
X025600Y003916D01*
X025600Y003678D02*
X025600Y003678D01*
X025249Y004155D02*
X004868Y004155D01*
X004861Y004171D02*
X004861Y004171D01*
X004972Y003916D02*
X025011Y003916D01*
X024960Y003678D02*
X005075Y003678D01*
X005085Y003656D02*
X005085Y003656D01*
X005115Y003439D02*
X024960Y003439D01*
X025094Y003201D02*
X021837Y003201D01*
X021849Y003194D02*
X021768Y003240D01*
X021682Y003276D01*
X021592Y003300D01*
X021499Y003312D01*
X021100Y003312D01*
X020701Y003312D01*
X020608Y003300D01*
X020518Y003276D01*
X020432Y003240D01*
X020351Y003194D01*
X020277Y003137D01*
X020211Y003071D01*
X020154Y002997D01*
X020107Y002916D01*
X020071Y002830D01*
X020047Y002739D01*
X020035Y002647D01*
X020035Y002600D01*
X021100Y002600D01*
X021100Y002600D01*
X021100Y003312D01*
X021100Y002600D01*
X022165Y002600D01*
X022165Y002647D01*
X022153Y002739D01*
X022129Y002830D01*
X022093Y002916D01*
X022046Y002997D01*
X021989Y003071D01*
X021923Y003137D01*
X021849Y003194D01*
X022066Y002962D02*
X025057Y002962D01*
X024960Y002724D02*
X022155Y002724D01*
X022165Y002600D02*
X021100Y002600D01*
X021100Y002600D01*
X021100Y001888D01*
X021499Y001888D01*
X021592Y001900D01*
X021682Y001924D01*
X021768Y001960D01*
X021849Y002006D01*
X021923Y002063D01*
X021989Y002129D01*
X022046Y002203D01*
X022093Y002284D01*
X022129Y002370D01*
X022153Y002461D01*
X022165Y002553D01*
X022165Y002600D01*
X022156Y002485D02*
X024960Y002485D01*
X025048Y002247D02*
X022071Y002247D01*
X021851Y002008D02*
X025287Y002008D01*
X025913Y002008D02*
X026287Y002008D01*
X026913Y002008D02*
X027287Y002008D01*
X027913Y002008D02*
X028287Y002008D01*
X028913Y002008D02*
X029287Y002008D01*
X029913Y002008D02*
X030287Y002008D01*
X030600Y002008D02*
X030600Y002008D01*
X030600Y001960D02*
X030600Y002600D01*
X030600Y002600D01*
X030600Y001960D01*
X030600Y002247D02*
X030600Y002247D01*
X030600Y002485D02*
X030600Y002485D01*
X030913Y002008D02*
X031287Y002008D01*
X031913Y002008D02*
X032287Y002008D01*
X032913Y002008D02*
X033287Y002008D01*
X033913Y002008D02*
X034287Y002008D01*
X034913Y002008D02*
X035287Y002008D01*
X035913Y002008D02*
X036287Y002008D01*
X036913Y002008D02*
X037287Y002008D01*
X037913Y002008D02*
X058374Y002008D01*
X058229Y002247D02*
X038152Y002247D01*
X038240Y002485D02*
X058152Y002485D01*
X058210Y002279D02*
X058210Y002279D01*
X058085Y002724D02*
X050190Y002724D01*
X049956Y002490D02*
X050460Y002994D01*
X050460Y003350D01*
X050460Y003706D01*
X049956Y004210D01*
X049600Y004210D01*
X049600Y003350D01*
X050460Y003350D01*
X049600Y003350D01*
X049600Y003350D01*
X049600Y003350D01*
X049600Y002490D01*
X049956Y002490D01*
X049600Y002490D02*
X049600Y003350D01*
X049600Y003350D01*
X049600Y003350D01*
X048740Y003350D01*
X048740Y003706D01*
X049244Y004210D01*
X049600Y004210D01*
X049600Y003350D01*
X048740Y003350D01*
X048740Y002994D01*
X049244Y002490D01*
X049600Y002490D01*
X049600Y002724D02*
X049600Y002724D01*
X049600Y002962D02*
X049600Y002962D01*
X049600Y003201D02*
X049600Y003201D01*
X049600Y003439D02*
X049600Y003439D01*
X049600Y003678D02*
X049600Y003678D01*
X049600Y003916D02*
X049600Y003916D01*
X049600Y004155D02*
X049600Y004155D01*
X050012Y004155D02*
X058351Y004155D01*
X058210Y003921D02*
X058210Y003921D01*
X058208Y003916D02*
X050250Y003916D01*
X050460Y003678D02*
X058141Y003678D01*
X058074Y003439D02*
X050460Y003439D01*
X050460Y003201D02*
X058058Y003201D01*
X058058Y002962D02*
X050428Y002962D01*
X049010Y002724D02*
X048190Y002724D01*
X048087Y002621D02*
X048329Y002863D01*
X048460Y003179D01*
X048460Y003521D01*
X048329Y003837D01*
X048087Y004079D01*
X047771Y004210D01*
X047429Y004210D01*
X047113Y004079D01*
X046871Y003837D01*
X046740Y003521D01*
X046740Y003179D01*
X046871Y002863D01*
X047113Y002621D01*
X047429Y002490D01*
X047771Y002490D01*
X048087Y002621D01*
X048370Y002962D02*
X048772Y002962D01*
X048740Y003201D02*
X048460Y003201D01*
X048460Y003439D02*
X048740Y003439D01*
X048740Y003678D02*
X048395Y003678D01*
X048250Y003916D02*
X048950Y003916D01*
X049188Y004155D02*
X047905Y004155D01*
X047295Y004155D02*
X037951Y004155D01*
X038189Y003916D02*
X043289Y003916D01*
X043343Y003970D02*
X042980Y003607D01*
X042980Y003093D01*
X043343Y002730D01*
X043857Y002730D01*
X044220Y003093D01*
X044220Y003607D01*
X043857Y003970D01*
X043343Y003970D01*
X043051Y003678D02*
X038240Y003678D01*
X038240Y003439D02*
X042980Y003439D01*
X042980Y003201D02*
X038106Y003201D01*
X038143Y002962D02*
X043111Y002962D01*
X044089Y002962D02*
X045111Y002962D01*
X044980Y003093D02*
X045343Y002730D01*
X045600Y002730D01*
X045857Y002730D01*
X046220Y003093D01*
X046220Y003350D01*
X046220Y003607D01*
X045857Y003970D01*
X045600Y003970D01*
X045600Y003350D01*
X046220Y003350D01*
X045600Y003350D01*
X045600Y003350D01*
X045600Y003350D01*
X045600Y002730D01*
X045600Y003350D01*
X045600Y003350D01*
X045600Y003350D01*
X044980Y003350D01*
X044980Y003607D01*
X045343Y003970D01*
X045600Y003970D01*
X045600Y003350D01*
X044980Y003350D01*
X044980Y003093D01*
X044980Y003201D02*
X044220Y003201D01*
X044220Y003439D02*
X044980Y003439D01*
X045051Y003678D02*
X044149Y003678D01*
X043911Y003916D02*
X045289Y003916D01*
X045600Y003916D02*
X045600Y003916D01*
X045600Y003678D02*
X045600Y003678D01*
X045600Y003439D02*
X045600Y003439D01*
X045600Y003201D02*
X045600Y003201D01*
X045600Y002962D02*
X045600Y002962D01*
X046089Y002962D02*
X046830Y002962D01*
X046740Y003201D02*
X046220Y003201D01*
X046220Y003439D02*
X046740Y003439D01*
X046805Y003678D02*
X046149Y003678D01*
X045911Y003916D02*
X046950Y003916D01*
X047010Y002724D02*
X038240Y002724D01*
X037249Y004155D02*
X036951Y004155D01*
X036249Y004155D02*
X035951Y004155D01*
X035249Y004155D02*
X034951Y004155D01*
X034249Y004155D02*
X033951Y004155D01*
X033249Y004155D02*
X032951Y004155D01*
X032249Y004155D02*
X031951Y004155D01*
X021100Y003201D02*
X021100Y003201D01*
X021100Y002962D02*
X021100Y002962D01*
X021100Y002724D02*
X021100Y002724D01*
X021100Y002600D02*
X021100Y002600D01*
X021100Y002600D01*
X021100Y001888D01*
X020701Y001888D01*
X020608Y001900D01*
X020518Y001924D01*
X020432Y001960D01*
X020351Y002006D01*
X020277Y002063D01*
X020211Y002129D01*
X020154Y002203D01*
X020107Y002284D01*
X020071Y002370D01*
X020047Y002461D01*
X020035Y002553D01*
X020035Y002600D01*
X021100Y002600D01*
X021100Y002485D02*
X021100Y002485D01*
X021100Y002247D02*
X021100Y002247D01*
X021100Y002008D02*
X021100Y002008D01*
X020349Y002008D02*
X017868Y002008D01*
X017856Y001996D02*
X018057Y002196D01*
X018165Y002458D01*
X018165Y002742D01*
X018057Y003004D01*
X017856Y003204D01*
X017594Y003312D01*
X016606Y003312D01*
X016344Y003204D01*
X016143Y003004D01*
X016123Y002954D01*
X015857Y003220D01*
X015343Y003220D01*
X014980Y002857D01*
X014980Y002343D01*
X015343Y001980D01*
X015857Y001980D01*
X016123Y002246D01*
X016143Y002196D01*
X016344Y001996D01*
X016606Y001888D01*
X017594Y001888D01*
X017856Y001996D01*
X018077Y002247D02*
X020129Y002247D01*
X020044Y002485D02*
X018165Y002485D01*
X018165Y002724D02*
X020045Y002724D01*
X020134Y002962D02*
X018074Y002962D01*
X017860Y003201D02*
X020363Y003201D01*
X016340Y003201D02*
X015876Y003201D01*
X016115Y002962D02*
X016126Y002962D01*
X015324Y003201D02*
X011876Y003201D01*
X011857Y003220D02*
X011343Y003220D01*
X010980Y002857D01*
X010980Y002343D01*
X011343Y001980D01*
X011857Y001980D01*
X012220Y002343D01*
X012220Y002857D01*
X011857Y003220D01*
X012115Y002962D02*
X015085Y002962D01*
X014980Y002724D02*
X012220Y002724D01*
X012220Y002485D02*
X014980Y002485D01*
X015077Y002247D02*
X012123Y002247D01*
X011885Y002008D02*
X015315Y002008D01*
X015885Y002008D02*
X016332Y002008D01*
X011315Y002008D02*
X010385Y002008D01*
X010357Y001980D02*
X010720Y002343D01*
X010720Y002857D01*
X010357Y003220D01*
X009843Y003220D01*
X009600Y002977D01*
X009357Y003220D01*
X009100Y003220D01*
X009100Y002600D01*
X009100Y002600D01*
X009100Y003220D01*
X008843Y003220D01*
X008480Y002857D01*
X008480Y002600D01*
X009100Y002600D01*
X009100Y001980D01*
X009357Y001980D01*
X009600Y002223D01*
X009843Y001980D01*
X010357Y001980D01*
X010623Y002247D02*
X011077Y002247D01*
X010980Y002485D02*
X010720Y002485D01*
X010720Y002724D02*
X010980Y002724D01*
X011085Y002962D02*
X010615Y002962D01*
X010376Y003201D02*
X011324Y003201D01*
X009824Y003201D02*
X009376Y003201D01*
X009100Y003201D02*
X009100Y003201D01*
X009100Y002962D02*
X009100Y002962D01*
X009100Y002724D02*
X009100Y002724D01*
X009100Y002600D02*
X009100Y002600D01*
X009100Y002600D01*
X009100Y001980D01*
X008843Y001980D01*
X008480Y002343D01*
X008480Y002600D01*
X009100Y002600D01*
X009100Y002485D02*
X009100Y002485D01*
X009100Y002247D02*
X009100Y002247D01*
X009100Y002008D02*
X009100Y002008D01*
X009385Y002008D02*
X009815Y002008D01*
X008815Y002008D02*
X004844Y002008D01*
X004956Y002247D02*
X008577Y002247D01*
X008480Y002485D02*
X005059Y002485D01*
X005085Y002544D02*
X005085Y002544D01*
X005109Y002724D02*
X008480Y002724D01*
X008585Y002962D02*
X005142Y002962D01*
X005147Y003201D02*
X008824Y003201D01*
X004680Y004393D02*
X058496Y004393D01*
X058748Y004632D02*
X004471Y004632D01*
X004133Y004870D02*
X059078Y004870D01*
X058911Y004784D02*
X058911Y004784D01*
X061048Y004930D02*
X061048Y004930D01*
X061133Y004870D02*
X062732Y004870D01*
X062732Y004632D02*
X061471Y004632D01*
X061680Y004393D02*
X062732Y004393D01*
X062732Y004155D02*
X061868Y004155D01*
X061861Y004171D02*
X061861Y004171D01*
X061972Y003916D02*
X062732Y003916D01*
X062732Y003678D02*
X062075Y003678D01*
X062085Y003656D02*
X062085Y003656D01*
X062115Y003439D02*
X062732Y003439D01*
X062732Y003201D02*
X062147Y003201D01*
X062142Y002962D02*
X062732Y002962D01*
X062732Y002724D02*
X062109Y002724D01*
X062085Y002544D02*
X062085Y002544D01*
X062059Y002485D02*
X062732Y002485D01*
X062732Y002247D02*
X061956Y002247D01*
X061844Y002008D02*
X062732Y002008D01*
X062732Y001770D02*
X061650Y001770D01*
X061507Y001594D02*
X061507Y001594D01*
X061507Y001594D01*
X061418Y001531D02*
X062732Y001531D01*
X062732Y001293D02*
X061080Y001293D01*
X060110Y001054D02*
X062732Y001054D01*
X062732Y000816D02*
X000460Y000816D01*
X000460Y001054D02*
X002910Y001054D01*
X002959Y001044D02*
X002959Y001044D01*
X003110Y001054D02*
X059910Y001054D01*
X059150Y001293D02*
X004080Y001293D01*
X004418Y001531D02*
X058788Y001531D01*
X058533Y001770D02*
X004650Y001770D01*
X004507Y001594D02*
X004507Y001594D01*
X004507Y001594D01*
X002410Y001158D02*
X002410Y001158D01*
X002150Y001293D02*
X000460Y001293D01*
X000460Y001531D02*
X001788Y001531D01*
X001533Y001770D02*
X000460Y001770D01*
X000460Y002008D02*
X001374Y002008D01*
X001229Y002247D02*
X000460Y002247D01*
X000460Y002485D02*
X001152Y002485D01*
X001210Y002279D02*
X001210Y002279D01*
X001085Y002724D02*
X000460Y002724D01*
X000460Y002962D02*
X001058Y002962D01*
X001058Y003201D02*
X000460Y003201D01*
X000460Y003439D02*
X001074Y003439D01*
X001141Y003678D02*
X000460Y003678D01*
X000460Y003916D02*
X001208Y003916D01*
X001210Y003921D02*
X001210Y003921D01*
X001351Y004155D02*
X000460Y004155D01*
X000460Y004393D02*
X001496Y004393D01*
X001748Y004632D02*
X000460Y004632D01*
X000460Y004870D02*
X002078Y004870D01*
X001911Y004784D02*
X001911Y004784D01*
X004048Y004930D02*
X004048Y004930D01*
X005870Y007494D02*
X006330Y007494D01*
X006870Y007494D02*
X008830Y007494D01*
X008591Y007732D02*
X007109Y007732D01*
X007220Y007971D02*
X008480Y007971D01*
X008480Y008209D02*
X007220Y008209D01*
X007129Y008448D02*
X008571Y008448D01*
X005309Y008686D02*
X003391Y008686D01*
X003629Y008448D02*
X005071Y008448D01*
X004980Y008209D02*
X003720Y008209D01*
X003720Y007971D02*
X004980Y007971D01*
X005091Y007732D02*
X003609Y007732D01*
X002809Y008686D02*
X002391Y008686D01*
X001571Y008448D02*
X000460Y008448D01*
X000460Y008209D02*
X001480Y008209D01*
X001480Y007971D02*
X000460Y007971D01*
X000460Y007732D02*
X001591Y007732D01*
X001830Y007494D02*
X000460Y007494D01*
X000460Y006778D02*
X062732Y006778D01*
X062732Y006540D02*
X000460Y006540D01*
X000460Y000577D02*
X062732Y000577D01*
D19*
X053850Y037350D03*
X009350Y037350D03*
D20*
X024100Y033600D03*
X024600Y034100D03*
X027850Y025350D03*
X027850Y024350D03*
D21*
X027850Y025350D01*
M02*
