%
M48
M72
T01C0.0197
T02C0.0236
T03C0.0320
T04C0.0360
T05C0.0394
T06C0.0400
T07C0.0470
T08C0.1575
%
T01
X27100Y9600
X27100Y10100
X27850Y8600
X28350Y8600
X28100Y4350
X36600Y5100
X38600Y5600
X39600Y5100
X40100Y5100
X41100Y4100
T02
X30850Y25100
X30100Y25100
X29350Y25100
X28600Y25100
X28600Y26100
X29350Y26100
X30100Y26100
X30850Y26100
X28350Y28600
T03
X27600Y29100
X26100Y28600
X25100Y28600
X24100Y28600
X23100Y28600
X22100Y28600
X21100Y28600
X20100Y28600
X19100Y28600
X20100Y30100
X22100Y30100
X24100Y30100
X26100Y30100
X27600Y30850
X29100Y30600
X29100Y32100
X29100Y33100
X27600Y32850
X26100Y34100
X24100Y34100
X22100Y34100
X20100Y34100
X17100Y34100
X16100Y34350
X15100Y34100
X13100Y34100
X11100Y34100
X8600Y34100
X6600Y34100
X6600Y30100
X6600Y28600
X5600Y28600
X4600Y28600
X3600Y28600
X2600Y28600
X1600Y28600
X1600Y25600
X2600Y25600
X3600Y25600
X4600Y25600
X5600Y25600
X6600Y25600
X7600Y25600
X8600Y25600
X10100Y25600
X11100Y25600
X12100Y25600
X13100Y25600
X14100Y25600
X15100Y25600
X16100Y25600
X17100Y25600
X19100Y25600
X20100Y25600
X21100Y25600
X22100Y25600
X23100Y25600
X24100Y25600
X25100Y25600
X26100Y25600
X25100Y24100
X24100Y24100
X23100Y24100
X22100Y24100
X21100Y24100
X20100Y24100
X19100Y24100
X18100Y24100
X16100Y24100
X15100Y24100
X14100Y24100
X13100Y24100
X12100Y24100
X10100Y24100
X9100Y24100
X7600Y24100
X5600Y24100
X3600Y24100
X1600Y24100
X1600Y20100
X1600Y19100
X1600Y18100
X3600Y20100
X5600Y20100
X5600Y19100
X5600Y18100
X7600Y20100
X9100Y20100
X10100Y20100
X10100Y19100
X10100Y18100
X12100Y18100
X12100Y19100
X12100Y20100
X13100Y20100
X14100Y20100
X15100Y20100
X16100Y20100
X16100Y19100
X16100Y18100
X14100Y18100
X14100Y19100
X18100Y20100
X19100Y20100
X20100Y20100
X21100Y20100
X22100Y20100
X23100Y20100
X23100Y19100
X24100Y20100
X25100Y20100
X25100Y19100
X25100Y18100
X23100Y18100
X21100Y18100
X21100Y19100
X19100Y19100
X19100Y18100
X15600Y14100
X16600Y13100
X17600Y13100
X15600Y12600
X15600Y11100
X16600Y11100
X20600Y11100
X21600Y11100
X20600Y12600
X23100Y14100
X23600Y13350
X23600Y12600
X25600Y11100
X26100Y12100
X27100Y12600
X27100Y11100
X27100Y8600
X26100Y8600
X24100Y8600
X23600Y7850
X23600Y7100
X21600Y5600
X20600Y5600
X20600Y7100
X23100Y8600
X26100Y6600
X27100Y7100
X27100Y5600
X25600Y5600
X31100Y5600
X31100Y7100
X31100Y8600
X34100Y8100
X35100Y8100
X34100Y6100
X38100Y6100
X39100Y6100
X38100Y7600
X40600Y9100
X41100Y8350
X41600Y9100
X41100Y7600
X43600Y7100
X43100Y6100
X44600Y6100
X44600Y7600
X44600Y9100
X43600Y9100
X43100Y11100
X43600Y12100
X44600Y12600
X44600Y11100
X41100Y12600
X41100Y13350
X40600Y14100
X41600Y14100
X43600Y14100
X44600Y14100
X48600Y14100
X48600Y12600
X48600Y11100
X48600Y9100
X48600Y7600
X48600Y6100
X50600Y5100
X51100Y3350
X53600Y5100
X53600Y7100
X52100Y6850
X50600Y7100
X53600Y9600
X52100Y10850
X55100Y12100
X56100Y12100
X57100Y12100
X58100Y12100
X58100Y9600
X56600Y9600
X61100Y9600
X61850Y8850
X61850Y4850
X51100Y1350
X39100Y11100
X38100Y11100
X38100Y12600
X35100Y13100
X34100Y13100
X31100Y12600
X31100Y11100
X34100Y11100
X31100Y14100
X30100Y16600
X28100Y16600
X27600Y18100
X27600Y19100
X27600Y20100
X27600Y21100
X27600Y22100
X27600Y23100
X27600Y24100
X30600Y24100
X30600Y23100
X30600Y22100
X30600Y21100
X30600Y20100
X30600Y19100
X30600Y18100
X32600Y16850
X35600Y16850
X38600Y16850
X41600Y16850
X42600Y16850
X44600Y16850
X45600Y16850
X47600Y16850
X48600Y16850
X50600Y16850
X51600Y16850
X53600Y18600
X54600Y18600
X55350Y17100
X57350Y17100
X57100Y15100
X58100Y15100
X56100Y15100
X55100Y15100
X53600Y14600
X60100Y14600
X60100Y18600
X61100Y18600
X59100Y21600
X61100Y22600
X61100Y23600
X59100Y24600
X61100Y25600
X59100Y26600
X61100Y27600
X56600Y26600
X54600Y25600
X56600Y24600
X54600Y23600
X54600Y22600
X56600Y21600
X51600Y22100
X50600Y22100
X50600Y20850
X51600Y20850
X48600Y20850
X47600Y20850
X47600Y22100
X48600Y22100
X45600Y22100
X44600Y22100
X44600Y20850
X45600Y20850
X42600Y20850
X41600Y20850
X41600Y22100
X42600Y22100
X39600Y22100
X38600Y22100
X38600Y20850
X36600Y22100
X35600Y22100
X35600Y20850
X33600Y22100
X32600Y22100
X32600Y20850
X32600Y25100
X33600Y25100
X35600Y25100
X36600Y25100
X36600Y26600
X35600Y26600
X36100Y27350
X33600Y26600
X33100Y27350
X32600Y26600
X31600Y28100
X31600Y29100
X33100Y29600
X34600Y29600
X36100Y29600
X39100Y29600
X39100Y27350
X38600Y26600
X39600Y26600
X41600Y26600
X42100Y27350
X42600Y26600
X44600Y26600
X45100Y27350
X45600Y26600
X47600Y26600
X48600Y26600
X48100Y27350
X50600Y26600
X51600Y26600
X51100Y27350
X51100Y29600
X48100Y29600
X45100Y29600
X42100Y29600
X42100Y33600
X40600Y35350
X40600Y37100
X36600Y37100
X36600Y35350
X36100Y33600
X34600Y33600
X33100Y33600
X32100Y33100
X32100Y32100
X31100Y30600
X27600Y28100
X17100Y28600
X16100Y28600
X15100Y28600
X14100Y28600
X13100Y28600
X12100Y28600
X11100Y28600
X10100Y28600
X8600Y28600
X7600Y28600
X8600Y30100
X11100Y30100
X13100Y30100
X15100Y30100
X17100Y30100
X28850Y35100
X28850Y36100
X28850Y37100
X32850Y37100
X32850Y36100
X32850Y35100
X39100Y33600
X45100Y33600
X48100Y33600
X51100Y33600
X54600Y30600
X56600Y30600
X56600Y31600
X59100Y31600
X59100Y30600
X61100Y30600
X59100Y33600
X56600Y33600
X54600Y27600
X51600Y25100
X50600Y25100
X48600Y25100
X47600Y25100
X45600Y25100
X44600Y25100
X42600Y25100
X41600Y25100
X39600Y25100
X38600Y25100
X27100Y14100
X26100Y14100
X24100Y14100
X15600Y8600
X16600Y7600
X17600Y7600
X15600Y7100
X15600Y5600
X16600Y5600
X15600Y2600
X15600Y1100
X11600Y1100
X11600Y2600
X10600Y2600
X9600Y2600
X9100Y1100
X8100Y1100
X6100Y5600
X5100Y5600
X5100Y7100
X7600Y8600
X8600Y8600
X8100Y7850
X8100Y7100
X10100Y5600
X10600Y6600
X11600Y7100
X11600Y5600
X11600Y8600
X10600Y8600
X10100Y11100
X10600Y12100
X11600Y12600
X11600Y11100
X8100Y12600
X8100Y13350
X7600Y14100
X8600Y14100
X10600Y14100
X11600Y14100
X6100Y11100
X5100Y11100
X5100Y12600
X2100Y13100
X1100Y13100
X1100Y11100
X2100Y9350
X4100Y9350
X2100Y7600
X1100Y7600
X1100Y5600
X16100Y38350
T04
X11600Y37100
X11600Y36100
X10600Y36100
X9600Y36100
X9600Y37100
X10600Y37100
X8600Y37100
X7600Y37100
X7600Y36100
X8600Y36100
X22100Y36100
X22100Y37100
X23100Y37100
X23100Y36100
X24100Y36100
X25100Y36100
X25100Y37100
X24100Y37100
X26100Y37100
X26100Y36100
X43100Y36100
X44100Y36100
X44100Y37100
X43100Y37100
X45100Y37100
X46100Y37100
X46100Y36100
X45100Y36100
X47100Y36100
X47100Y37100
X52100Y37100
X52100Y36100
X53100Y36100
X54100Y36100
X54100Y37100
X53100Y37100
X55100Y37100
X56100Y37100
X56100Y36100
X55100Y36100
X37600Y3100
X37600Y2100
X36600Y2100
X35600Y2100
X35600Y3100
X36600Y3100
X34600Y3100
X33600Y3100
X33600Y2100
X34600Y2100
X32600Y2100
X31600Y2100
X31600Y3100
X32600Y3100
X30600Y3100
X30600Y2100
X29600Y2100
X28600Y2100
X28600Y3100
X29600Y3100
X27600Y3100
X26600Y3100
X26600Y2100
X27600Y2100
X25600Y2100
X25600Y3100
T05
X44600Y2600
X45600Y2600
X46600Y2600
X47600Y2600
X48600Y2600
X49600Y2600
X52600Y2600
X53600Y2600
X54600Y2600
X55600Y2600
X56600Y2600
X57600Y2600
T06
X57850Y6100
X55850Y6100
X35350Y35100
X35350Y36100
X35350Y37100
X35350Y38100
X4850Y14850
X2850Y14850
T07
X17100Y2600
X17100Y1100
X21100Y1100
X21100Y2600
T08
X3100Y3100
X3100Y36350
X60100Y36350
X60100Y3100
M30
