G75*
G70*
%OFA0B0*%
%FSLAX24Y24*%
%IPPOS*%
%LPD*%
%AMOC8*
5,1,8,0,0,1.08239X$1,22.5*
%
%ADD10C,0.0040*%
%ADD11OC8,0.0560*%
%ADD12C,0.0594*%
%ADD13C,0.0705*%
%ADD14C,0.0520*%
%ADD15OC8,0.0520*%
%ADD16C,0.0600*%
%ADD17C,0.1000*%
%ADD18OC8,0.1000*%
%ADD19C,0.0240*%
%ADD20C,0.0160*%
%ADD21C,0.0120*%
%ADD22C,0.0357*%
%ADD23C,0.0396*%
D10*
X000870Y029618D02*
X000870Y029873D01*
X000955Y029958D01*
X001295Y029958D01*
X001380Y029873D01*
X001380Y029618D01*
X000870Y029618D01*
X001870Y029710D02*
X001870Y029880D01*
X001955Y029965D01*
X002295Y029625D01*
X002380Y029710D01*
X002380Y029880D01*
X002295Y029965D01*
X001955Y029965D01*
X002040Y030131D02*
X001870Y030302D01*
X002380Y030302D01*
X002380Y030472D02*
X002380Y030131D01*
X002125Y030638D02*
X002125Y030978D01*
X001955Y031144D02*
X001870Y031229D01*
X001870Y031399D01*
X001955Y031485D01*
X002040Y031485D01*
X002380Y031144D01*
X002380Y031485D01*
X002295Y031651D02*
X001955Y031991D01*
X002295Y031991D01*
X002380Y031906D01*
X002380Y031736D01*
X002295Y031651D01*
X001955Y031651D01*
X001870Y031736D01*
X001870Y031906D01*
X001955Y031991D01*
X002040Y032157D02*
X001870Y032327D01*
X002380Y032327D01*
X002380Y032157D02*
X002380Y032497D01*
X002380Y032664D02*
X002040Y033004D01*
X001955Y033004D01*
X001870Y032919D01*
X001870Y032749D01*
X001955Y032664D01*
X002380Y032664D02*
X002380Y033004D01*
X003070Y032914D02*
X003070Y032744D01*
X003155Y032659D01*
X003495Y032659D01*
X003580Y032744D01*
X003580Y032914D01*
X003495Y032999D01*
X003155Y032999D01*
X003070Y032914D01*
X003240Y033165D02*
X003070Y033335D01*
X003240Y033505D01*
X003580Y033505D01*
X003580Y033671D02*
X003070Y033671D01*
X003070Y033927D01*
X003155Y034012D01*
X003325Y034012D01*
X003410Y033927D01*
X003410Y033671D01*
X003410Y033842D02*
X003580Y034012D01*
X003580Y034178D02*
X003070Y034178D01*
X003070Y034433D01*
X003155Y034518D01*
X003495Y034518D01*
X003580Y034433D01*
X003580Y034178D01*
X003580Y034684D02*
X003240Y035025D01*
X003155Y035025D01*
X003070Y034940D01*
X003070Y034769D01*
X003155Y034684D01*
X003580Y034684D02*
X003580Y035025D01*
X001380Y035105D02*
X001295Y035020D01*
X001380Y035105D02*
X001380Y035275D01*
X001295Y035360D01*
X001210Y035360D01*
X001125Y035275D01*
X001125Y035105D01*
X001040Y035020D01*
X000955Y035020D01*
X000870Y035105D01*
X000870Y035275D01*
X000955Y035360D01*
X000870Y035526D02*
X000870Y035696D01*
X000870Y035611D02*
X001380Y035611D01*
X001380Y035526D02*
X001380Y035696D01*
X001380Y035864D02*
X000870Y035864D01*
X000870Y036204D01*
X001125Y036034D02*
X001125Y035864D01*
X000870Y034853D02*
X000870Y034683D01*
X000870Y034768D02*
X001295Y034768D01*
X001380Y034683D01*
X001380Y034598D01*
X001295Y034513D01*
X001380Y033840D02*
X001380Y033585D01*
X001295Y033500D01*
X001040Y033500D01*
X001125Y033334D02*
X001040Y033249D01*
X001040Y032994D01*
X000870Y032994D02*
X001380Y032994D01*
X001380Y033249D01*
X001295Y033334D01*
X001125Y033334D01*
X001040Y033840D02*
X001465Y033840D01*
X001550Y033755D01*
X001550Y033670D01*
X001380Y032321D02*
X001125Y032321D01*
X001040Y032236D01*
X001040Y031981D01*
X001380Y031981D01*
X001380Y031815D02*
X001380Y031560D01*
X001295Y031474D01*
X001125Y031474D01*
X001040Y031560D01*
X001040Y031815D01*
X001465Y031815D01*
X001550Y031730D01*
X001550Y031645D01*
X001380Y031307D02*
X001380Y031137D01*
X001380Y031222D02*
X001040Y031222D01*
X001040Y031137D01*
X001040Y030971D02*
X001040Y030715D01*
X001125Y030630D01*
X001210Y030715D01*
X001210Y030886D01*
X001295Y030971D01*
X001380Y030886D01*
X001380Y030630D01*
X001210Y030464D02*
X001210Y030124D01*
X001295Y030124D02*
X001125Y030124D01*
X001040Y030209D01*
X001040Y030379D01*
X001125Y030464D01*
X001210Y030464D01*
X001380Y030379D02*
X001380Y030209D01*
X001295Y030124D01*
X001870Y029710D02*
X001955Y029625D01*
X002295Y029625D01*
X003070Y029705D02*
X003070Y029875D01*
X003155Y029960D01*
X003495Y029960D01*
X003580Y029875D01*
X003580Y029705D01*
X003495Y029620D01*
X003155Y029620D01*
X003070Y029705D01*
X003070Y030126D02*
X003070Y030382D01*
X003155Y030467D01*
X003325Y030467D01*
X003410Y030382D01*
X003410Y030126D01*
X003580Y030126D02*
X003070Y030126D01*
X003070Y030633D02*
X003070Y030973D01*
X003070Y030803D02*
X003580Y030803D01*
X003495Y031139D02*
X003155Y031139D01*
X003070Y031224D01*
X003070Y031395D01*
X003155Y031480D01*
X003495Y031480D01*
X003580Y031395D01*
X003580Y031224D01*
X003495Y031139D01*
X003665Y031646D02*
X003665Y031986D01*
X003580Y032152D02*
X003070Y032152D01*
X003070Y032407D01*
X003155Y032492D01*
X003240Y032492D01*
X003325Y032407D01*
X003325Y032152D01*
X003580Y032152D02*
X003580Y032407D01*
X003495Y032492D01*
X003410Y032492D01*
X003325Y032407D01*
X003325Y033165D02*
X003325Y033505D01*
X003240Y033165D02*
X003580Y033165D01*
X004155Y031311D02*
X004070Y031226D01*
X004070Y031056D01*
X004155Y030970D01*
X004495Y030970D01*
X004580Y031056D01*
X004580Y031226D01*
X004495Y031311D01*
X004495Y030804D02*
X004410Y030804D01*
X004325Y030719D01*
X004325Y030549D01*
X004240Y030464D01*
X004155Y030464D01*
X004070Y030549D01*
X004070Y030719D01*
X004155Y030804D01*
X004495Y030804D02*
X004580Y030719D01*
X004580Y030549D01*
X004495Y030464D01*
X004580Y030297D02*
X004580Y030126D01*
X004580Y030212D02*
X004070Y030212D01*
X004070Y030297D02*
X004070Y030126D01*
X004070Y029960D02*
X004580Y029960D01*
X004580Y029620D02*
X004070Y029620D01*
X004240Y029790D01*
X004070Y029960D01*
X000870Y031222D02*
X000784Y031222D01*
D11*
X007600Y036100D03*
X008600Y036100D03*
X008600Y037100D03*
X007600Y037100D03*
X009600Y037100D03*
X010600Y037100D03*
X010600Y036100D03*
X009600Y036100D03*
X011600Y036100D03*
X011600Y037100D03*
X022100Y037100D03*
X022100Y036100D03*
X023100Y036100D03*
X023100Y037100D03*
X024100Y037100D03*
X025100Y037100D03*
X025100Y036100D03*
X024100Y036100D03*
X026100Y036100D03*
X026100Y037100D03*
X043100Y037100D03*
X044100Y037100D03*
X044100Y036100D03*
X043100Y036100D03*
X045100Y036100D03*
X046100Y036100D03*
X046100Y037100D03*
X045100Y037100D03*
X047100Y037100D03*
X047100Y036100D03*
X052100Y036100D03*
X052100Y037100D03*
X053100Y037100D03*
X054100Y037100D03*
X054100Y036100D03*
X053100Y036100D03*
X055100Y036100D03*
X056100Y036100D03*
X056100Y037100D03*
X055100Y037100D03*
X037600Y003100D03*
X037600Y002100D03*
X036600Y002100D03*
X035600Y002100D03*
X035600Y003100D03*
X036600Y003100D03*
X034600Y003100D03*
X033600Y003100D03*
X033600Y002100D03*
X034600Y002100D03*
X032600Y002100D03*
X031600Y002100D03*
X031600Y003100D03*
X032600Y003100D03*
X030600Y003100D03*
X030600Y002100D03*
X029600Y002100D03*
X028600Y002100D03*
X028600Y003100D03*
X029600Y003100D03*
X027600Y003100D03*
X026600Y003100D03*
X026600Y002100D03*
X027600Y002100D03*
X025600Y002100D03*
X025600Y003100D03*
D12*
X044600Y002897D02*
X044600Y002303D01*
X045600Y002303D02*
X045600Y002897D01*
X046600Y002897D02*
X046600Y002303D01*
X047600Y002303D02*
X047600Y002897D01*
X048600Y002897D02*
X048600Y002303D01*
X049600Y002303D02*
X049600Y002897D01*
X052600Y002897D02*
X052600Y002303D01*
X053600Y002303D02*
X053600Y002897D01*
X054600Y002897D02*
X054600Y002303D01*
X055600Y002303D02*
X055600Y002897D01*
X056600Y002897D02*
X056600Y002303D01*
X057600Y002303D02*
X057600Y002897D01*
D13*
X021453Y002600D02*
X020748Y002600D01*
X020748Y001100D02*
X021453Y001100D01*
X017453Y001100D02*
X016748Y001100D01*
X016748Y002600D02*
X017453Y002600D01*
D14*
X020340Y007100D02*
X020860Y007100D01*
X023340Y007100D02*
X023860Y007100D01*
X023860Y012600D02*
X023340Y012600D01*
X020860Y012600D02*
X020340Y012600D01*
X027340Y018100D02*
X027860Y018100D01*
X027860Y019100D02*
X027340Y019100D01*
X027340Y020100D02*
X027860Y020100D01*
X027860Y021100D02*
X027340Y021100D01*
X027340Y022100D02*
X027860Y022100D01*
X027860Y023100D02*
X027340Y023100D01*
X027340Y024100D02*
X027860Y024100D01*
X026100Y025080D02*
X026100Y025600D01*
X025100Y025600D02*
X025100Y025080D01*
X024100Y025080D02*
X024100Y025600D01*
X023100Y025600D02*
X023100Y025080D01*
X022100Y025080D02*
X022100Y025600D01*
X021100Y025600D02*
X021100Y025080D01*
X020100Y025080D02*
X020100Y025600D01*
X019100Y025600D02*
X019100Y025080D01*
X017100Y025080D02*
X017100Y025600D01*
X016100Y025600D02*
X016100Y025080D01*
X015100Y025080D02*
X015100Y025600D01*
X014100Y025600D02*
X014100Y025080D01*
X013100Y025080D02*
X013100Y025600D01*
X012100Y025600D02*
X012100Y025080D01*
X011100Y025080D02*
X011100Y025600D01*
X010100Y025600D02*
X010100Y025080D01*
X008600Y025080D02*
X008600Y025600D01*
X007600Y025600D02*
X007600Y025080D01*
X006600Y025080D02*
X006600Y025600D01*
X005600Y025600D02*
X005600Y025080D01*
X004600Y025080D02*
X004600Y025600D01*
X003600Y025600D02*
X003600Y025080D01*
X002600Y025080D02*
X002600Y025600D01*
X001600Y025600D02*
X001600Y025080D01*
X001600Y028600D02*
X001600Y029120D01*
X002600Y029120D02*
X002600Y028600D01*
X003600Y028600D02*
X003600Y029120D01*
X004600Y029120D02*
X004600Y028600D01*
X005600Y028600D02*
X005600Y029120D01*
X006600Y029120D02*
X006600Y028600D01*
X007600Y028600D02*
X007600Y029120D01*
X008600Y029120D02*
X008600Y028600D01*
X010100Y028600D02*
X010100Y029120D01*
X011100Y029120D02*
X011100Y028600D01*
X012100Y028600D02*
X012100Y029120D01*
X013100Y029120D02*
X013100Y028600D01*
X014100Y028600D02*
X014100Y029120D01*
X015100Y029120D02*
X015100Y028600D01*
X016100Y028600D02*
X016100Y029120D01*
X017100Y029120D02*
X017100Y028600D01*
X019100Y028600D02*
X019100Y029120D01*
X020100Y029120D02*
X020100Y028600D01*
X021100Y028600D02*
X021100Y029120D01*
X022100Y029120D02*
X022100Y028600D01*
X023100Y028600D02*
X023100Y029120D01*
X024100Y029120D02*
X024100Y028600D01*
X025100Y028600D02*
X025100Y029120D01*
X026100Y029120D02*
X026100Y028600D01*
X028840Y032100D02*
X029360Y032100D01*
X029360Y033100D02*
X028840Y033100D01*
X031840Y033100D02*
X032360Y033100D01*
X032360Y032100D02*
X031840Y032100D01*
X032600Y025360D02*
X032600Y024840D01*
X033600Y024840D02*
X033600Y025360D01*
X035600Y025360D02*
X035600Y024840D01*
X036600Y024840D02*
X036600Y025360D01*
X038600Y025360D02*
X038600Y024840D01*
X039600Y024840D02*
X039600Y025360D01*
X041600Y025360D02*
X041600Y024840D01*
X042600Y024840D02*
X042600Y025360D01*
X044600Y025360D02*
X044600Y024840D01*
X045600Y024840D02*
X045600Y025360D01*
X047600Y025360D02*
X047600Y024840D01*
X048600Y024840D02*
X048600Y025360D01*
X050600Y025360D02*
X050600Y024840D01*
X051600Y024840D02*
X051600Y025360D01*
X054600Y027340D02*
X054600Y027860D01*
X054600Y030340D02*
X054600Y030860D01*
X061100Y030860D02*
X061100Y030340D01*
X061100Y027860D02*
X061100Y027340D01*
X059100Y024860D02*
X059100Y024340D01*
X056600Y024340D02*
X056600Y024860D01*
X056600Y021860D02*
X056600Y021340D01*
X059100Y021340D02*
X059100Y021860D01*
X051600Y021840D02*
X051600Y022360D01*
X050600Y022360D02*
X050600Y021840D01*
X048600Y021840D02*
X048600Y022360D01*
X047600Y022360D02*
X047600Y021840D01*
X045600Y021840D02*
X045600Y022360D01*
X044600Y022360D02*
X044600Y021840D01*
X042600Y021840D02*
X042600Y022360D01*
X041600Y022360D02*
X041600Y021840D01*
X039600Y021840D02*
X039600Y022360D01*
X038600Y022360D02*
X038600Y021840D01*
X036600Y021840D02*
X036600Y022360D01*
X035600Y022360D02*
X035600Y021840D01*
X033600Y021840D02*
X033600Y022360D01*
X032600Y022360D02*
X032600Y021840D01*
X030860Y022100D02*
X030340Y022100D01*
X030340Y021100D02*
X030860Y021100D01*
X030860Y020100D02*
X030340Y020100D01*
X030340Y019100D02*
X030860Y019100D01*
X030860Y018100D02*
X030340Y018100D01*
X030340Y023100D02*
X030860Y023100D01*
X030860Y024100D02*
X030340Y024100D01*
X037840Y012600D02*
X038360Y012600D01*
X040840Y012600D02*
X041360Y012600D01*
X041360Y007600D02*
X040840Y007600D01*
X038360Y007600D02*
X037840Y007600D01*
X053340Y009600D02*
X053860Y009600D01*
X056340Y009600D02*
X056860Y009600D01*
X057840Y009600D02*
X058360Y009600D01*
X060840Y009600D02*
X061360Y009600D01*
X058100Y011580D02*
X058100Y012100D01*
X057100Y012100D02*
X057100Y011580D01*
X056100Y011580D02*
X056100Y012100D01*
X055100Y012100D02*
X055100Y011580D01*
X055100Y015100D02*
X055100Y015620D01*
X056100Y015620D02*
X056100Y015100D01*
X057100Y015100D02*
X057100Y015620D01*
X058100Y015620D02*
X058100Y015100D01*
X008360Y012600D02*
X007840Y012600D01*
X005360Y012600D02*
X004840Y012600D01*
X004840Y007100D02*
X005360Y007100D01*
X007840Y007100D02*
X008360Y007100D01*
D15*
X008100Y007850D03*
X007600Y008600D03*
X008600Y008600D03*
X010600Y008600D03*
X011600Y008600D03*
X011600Y007100D03*
X010600Y006600D03*
X010100Y005600D03*
X011600Y005600D03*
X015600Y005600D03*
X016600Y005600D03*
X015600Y007100D03*
X016600Y007600D03*
X017600Y007600D03*
X015600Y008600D03*
X015600Y011100D03*
X016600Y011100D03*
X015600Y012600D03*
X016600Y013100D03*
X017600Y013100D03*
X015600Y014100D03*
X011600Y014100D03*
X010600Y014100D03*
X008600Y014100D03*
X007600Y014100D03*
X008100Y013350D03*
X010600Y012100D03*
X010100Y011100D03*
X011600Y011100D03*
X011600Y012600D03*
X006100Y011100D03*
X005100Y011100D03*
X004100Y009350D03*
X002100Y009350D03*
X002100Y007600D03*
X001100Y007600D03*
X001100Y005600D03*
X005100Y005600D03*
X006100Y005600D03*
X009600Y002600D03*
X010600Y002600D03*
X011600Y002600D03*
X011600Y001100D03*
X009100Y001100D03*
X008100Y001100D03*
X015600Y001100D03*
X015600Y002600D03*
X020600Y005600D03*
X021600Y005600D03*
X023600Y007850D03*
X023100Y008600D03*
X024100Y008600D03*
X026100Y008600D03*
X027100Y008600D03*
X027100Y007100D03*
X026100Y006600D03*
X025600Y005600D03*
X027100Y005600D03*
X031100Y005600D03*
X031100Y007100D03*
X031100Y008600D03*
X034100Y008100D03*
X035100Y008100D03*
X034100Y006100D03*
X038100Y006100D03*
X039100Y006100D03*
X041100Y008350D03*
X040600Y009100D03*
X041600Y009100D03*
X043600Y009100D03*
X044600Y009100D03*
X044600Y007600D03*
X043600Y007100D03*
X043100Y006100D03*
X044600Y006100D03*
X048600Y006100D03*
X048600Y007600D03*
X048600Y009100D03*
X050600Y007100D03*
X052100Y006850D03*
X053600Y007100D03*
X053600Y005100D03*
X050600Y005100D03*
X051100Y003350D03*
X051100Y001350D03*
X061850Y004850D03*
X061850Y008850D03*
X060100Y014600D03*
X057350Y017100D03*
X055350Y017100D03*
X054600Y018600D03*
X053600Y018600D03*
X051600Y016850D03*
X050600Y016850D03*
X048600Y016850D03*
X047600Y016850D03*
X045600Y016850D03*
X044600Y016850D03*
X042600Y016850D03*
X041600Y016850D03*
X038600Y016850D03*
X035600Y016850D03*
X032600Y016850D03*
X030100Y016600D03*
X028100Y016600D03*
X025100Y018100D03*
X025100Y019100D03*
X025100Y020100D03*
X024100Y020100D03*
X023100Y020100D03*
X023100Y019100D03*
X022100Y020100D03*
X021100Y020100D03*
X021100Y019100D03*
X020100Y020100D03*
X019100Y020100D03*
X019100Y019100D03*
X018100Y020100D03*
X016100Y020100D03*
X016100Y019100D03*
X015100Y020100D03*
X014100Y020100D03*
X014100Y019100D03*
X013100Y020100D03*
X012100Y020100D03*
X012100Y019100D03*
X012100Y018100D03*
X014100Y018100D03*
X016100Y018100D03*
X019100Y018100D03*
X021100Y018100D03*
X023100Y018100D03*
X023100Y014100D03*
X023600Y013350D03*
X024100Y014100D03*
X026100Y014100D03*
X027100Y014100D03*
X027100Y012600D03*
X026100Y012100D03*
X025600Y011100D03*
X027100Y011100D03*
X031100Y011100D03*
X031100Y012600D03*
X031100Y014100D03*
X034100Y013100D03*
X035100Y013100D03*
X034100Y011100D03*
X038100Y011100D03*
X039100Y011100D03*
X041100Y013350D03*
X040600Y014100D03*
X041600Y014100D03*
X043600Y014100D03*
X044600Y014100D03*
X044600Y012600D03*
X043600Y012100D03*
X043100Y011100D03*
X044600Y011100D03*
X048600Y011100D03*
X048600Y012600D03*
X048600Y014100D03*
X052100Y010850D03*
X053600Y014600D03*
X060100Y018600D03*
X061100Y018600D03*
X061100Y022600D03*
X061100Y023600D03*
X061100Y025600D03*
X059100Y026600D03*
X056600Y026600D03*
X054600Y025600D03*
X054600Y023600D03*
X054600Y022600D03*
X051600Y020850D03*
X050600Y020850D03*
X048600Y020850D03*
X047600Y020850D03*
X045600Y020850D03*
X044600Y020850D03*
X042600Y020850D03*
X041600Y020850D03*
X038600Y020850D03*
X035600Y020850D03*
X032600Y020850D03*
X025100Y024100D03*
X024100Y024100D03*
X023100Y024100D03*
X022100Y024100D03*
X021100Y024100D03*
X020100Y024100D03*
X019100Y024100D03*
X018100Y024100D03*
X016100Y024100D03*
X015100Y024100D03*
X014100Y024100D03*
X013100Y024100D03*
X012100Y024100D03*
X010100Y024100D03*
X009100Y024100D03*
X007600Y024100D03*
X005600Y024100D03*
X003600Y024100D03*
X001600Y024100D03*
X001600Y020100D03*
X001600Y019100D03*
X001600Y018100D03*
X003600Y020100D03*
X005600Y020100D03*
X005600Y019100D03*
X005600Y018100D03*
X007600Y020100D03*
X009100Y020100D03*
X010100Y020100D03*
X010100Y019100D03*
X010100Y018100D03*
X002100Y013100D03*
X001100Y013100D03*
X001100Y011100D03*
X020600Y011100D03*
X021600Y011100D03*
X032600Y026600D03*
X033100Y027350D03*
X033600Y026600D03*
X035600Y026600D03*
X036600Y026600D03*
X036100Y027350D03*
X038600Y026600D03*
X039600Y026600D03*
X039100Y027350D03*
X041600Y026600D03*
X042100Y027350D03*
X042600Y026600D03*
X044600Y026600D03*
X045100Y027350D03*
X045600Y026600D03*
X047600Y026600D03*
X048600Y026600D03*
X048100Y027350D03*
X050600Y026600D03*
X051600Y026600D03*
X051100Y027350D03*
X051100Y029600D03*
X048100Y029600D03*
X045100Y029600D03*
X042100Y029600D03*
X039100Y029600D03*
X036100Y029600D03*
X034600Y029600D03*
X033100Y029600D03*
X031600Y029100D03*
X031600Y028100D03*
X031100Y030600D03*
X029100Y030600D03*
X027600Y030850D03*
X026100Y030100D03*
X027600Y029100D03*
X027600Y028100D03*
X024100Y030100D03*
X022100Y030100D03*
X020100Y030100D03*
X017100Y030100D03*
X015100Y030100D03*
X013100Y030100D03*
X011100Y030100D03*
X008600Y030100D03*
X006600Y030100D03*
X006600Y034100D03*
X008600Y034100D03*
X011100Y034100D03*
X013100Y034100D03*
X015100Y034100D03*
X016100Y034350D03*
X017100Y034100D03*
X020100Y034100D03*
X022100Y034100D03*
X024100Y034100D03*
X026100Y034100D03*
X027600Y032850D03*
X028850Y035100D03*
X028850Y036100D03*
X028850Y037100D03*
X032850Y037100D03*
X032850Y036100D03*
X032850Y035100D03*
X033100Y033600D03*
X034600Y033600D03*
X036100Y033600D03*
X039100Y033600D03*
X040600Y035350D03*
X040600Y037100D03*
X036600Y037100D03*
X036600Y035350D03*
X042100Y033600D03*
X045100Y033600D03*
X048100Y033600D03*
X051100Y033600D03*
X056600Y033600D03*
X059100Y033600D03*
X059100Y031600D03*
X059100Y030600D03*
X056600Y030600D03*
X056600Y031600D03*
X016100Y038350D03*
D16*
X035050Y038100D02*
X035650Y038100D01*
X035650Y037100D02*
X035050Y037100D01*
X035050Y036100D02*
X035650Y036100D01*
X035650Y035100D02*
X035050Y035100D01*
D17*
X002850Y014850D03*
X055850Y006100D03*
D18*
X057850Y006100D03*
X004850Y014850D03*
D19*
X005600Y004850D02*
X007100Y003350D01*
X015600Y003350D01*
X015600Y002600D01*
X015600Y003350D02*
X019350Y003350D01*
X020100Y002600D01*
X021100Y002600D01*
X021850Y002600D01*
X022350Y002100D01*
X025600Y002100D01*
X026600Y002100D02*
X026600Y000600D01*
X043893Y000600D01*
X049850Y000557D01*
X050350Y000600D01*
X051100Y001350D01*
X051850Y002100D01*
X051850Y005850D01*
X052100Y006100D01*
X055850Y006100D01*
X056600Y006100D01*
X056850Y006350D01*
X056850Y008600D01*
X057350Y009100D01*
X057350Y009600D01*
X056600Y009600D01*
X057350Y009600D02*
X057350Y010850D01*
X055100Y010850D01*
X055100Y012100D01*
X057350Y010850D02*
X058100Y010850D01*
X058100Y012100D01*
X058100Y009600D02*
X057350Y009600D01*
X055600Y008100D02*
X055850Y007850D01*
X055850Y006100D01*
X055850Y005350D01*
X055600Y005100D01*
X053600Y005100D01*
X053100Y005100D01*
X052600Y004600D01*
X052600Y002600D01*
X050600Y005100D02*
X049850Y004350D01*
X048100Y004350D01*
X047350Y003600D01*
X045100Y003600D01*
X044600Y003100D01*
X044600Y002600D01*
X050600Y005100D02*
X050600Y006100D01*
X051350Y006850D01*
X051350Y007850D01*
X051600Y008100D01*
X055600Y008100D01*
X049600Y010100D02*
X049600Y011350D01*
X049100Y011850D01*
X047850Y011850D01*
X047350Y012350D01*
X047350Y013600D01*
X047850Y014100D01*
X048600Y014100D01*
X051850Y014100D01*
X052350Y014600D01*
X052350Y023100D01*
X051850Y023600D01*
X051600Y023600D01*
X048600Y023600D01*
X045600Y023600D01*
X042600Y023600D01*
X038600Y023600D01*
X036600Y023600D01*
X036600Y022100D01*
X036600Y015600D01*
X035100Y014100D01*
X035100Y013100D01*
X035100Y008100D01*
X035100Y014100D02*
X031100Y014100D01*
X017600Y014600D02*
X017600Y013100D01*
X017600Y014600D02*
X017350Y014850D01*
X015600Y014850D01*
X006850Y014850D01*
X005850Y013850D01*
X003850Y013850D01*
X002850Y014850D01*
X002100Y014100D01*
X002100Y013100D01*
X002100Y009350D01*
X002850Y010100D01*
X005850Y010100D01*
X006600Y009350D01*
X015600Y009350D01*
X017350Y009350D01*
X017600Y009100D01*
X017600Y007600D01*
X015600Y008600D02*
X015600Y009350D01*
X015600Y014100D02*
X015600Y014850D01*
X002850Y014850D02*
X000600Y017100D01*
X000600Y025850D01*
X001100Y026350D01*
X008850Y026350D01*
X009350Y025850D01*
X009350Y024725D01*
X009600Y024475D01*
X009600Y023350D01*
X009850Y023100D01*
X011100Y023100D01*
X012350Y023100D01*
X012600Y023350D01*
X012600Y024475D01*
X013100Y024975D01*
X013100Y025600D01*
X013100Y026100D01*
X013350Y026350D01*
X015100Y026350D01*
X016820Y026350D01*
X017100Y026070D01*
X017100Y025600D01*
X017100Y023350D01*
X017350Y023100D01*
X019350Y023100D01*
X019600Y023350D01*
X019600Y024475D01*
X020100Y024975D01*
X020100Y025600D01*
X020100Y026100D01*
X020350Y026350D01*
X022100Y026350D01*
X023820Y026350D01*
X024100Y026070D01*
X024100Y025600D01*
X024100Y024975D01*
X023600Y024475D01*
X023600Y023350D01*
X023850Y023100D01*
X025850Y023100D01*
X026100Y023350D01*
X026100Y025600D01*
X032600Y025600D01*
X032600Y025100D01*
X032600Y023850D01*
X032850Y023600D01*
X034850Y023600D01*
X034850Y025850D01*
X035600Y026600D01*
X038600Y026600D02*
X038600Y025100D01*
X038600Y023600D01*
X036600Y023600D02*
X034850Y023600D01*
X032600Y025600D02*
X032600Y026600D01*
X042600Y026600D02*
X042600Y023600D01*
X042600Y025100D02*
X042600Y026600D01*
X045600Y026600D02*
X045600Y025100D01*
X045600Y023600D01*
X048600Y023600D02*
X048600Y026600D01*
X048600Y025100D01*
X051600Y025100D02*
X051600Y026600D01*
X051600Y023600D01*
X049600Y010100D02*
X048600Y009100D01*
X026600Y000600D02*
X021600Y000600D01*
X021100Y001100D01*
X020100Y001100D01*
X019350Y001850D01*
X016350Y001850D01*
X015600Y001100D01*
X005600Y004850D02*
X004850Y004850D01*
X002100Y007600D01*
X002100Y009350D01*
X011100Y023100D02*
X011100Y025600D01*
X015100Y025600D02*
X015100Y026350D01*
X022100Y026350D02*
X022100Y025600D01*
D20*
X021100Y025600D02*
X021100Y024100D01*
X020100Y024100D01*
X019100Y024100D02*
X018100Y024100D01*
X019100Y024100D02*
X019100Y025600D01*
X022100Y024100D02*
X023100Y024100D01*
X023100Y025600D01*
X025100Y025600D02*
X025100Y024100D01*
X024100Y024100D01*
X023100Y020100D02*
X023100Y019100D01*
X021100Y019100D02*
X021100Y020100D01*
X019100Y020100D02*
X019100Y019100D01*
X016100Y019100D02*
X016100Y020100D01*
X014100Y020100D02*
X014100Y019100D01*
X012100Y019100D02*
X012100Y020100D01*
X010100Y020100D02*
X010100Y019100D01*
X007600Y020100D02*
X005600Y020100D01*
X005100Y019600D02*
X005600Y019100D01*
X005100Y019600D02*
X005100Y020600D01*
X005600Y021100D01*
X005600Y024100D01*
X004600Y024100D02*
X005600Y025100D01*
X005600Y025600D01*
X004600Y024100D02*
X003600Y024100D01*
X001600Y024100D02*
X001600Y021100D01*
X001100Y020600D01*
X001100Y019600D01*
X001600Y019100D01*
X001600Y020100D02*
X003600Y020100D01*
X007600Y024100D02*
X007600Y025600D01*
X010100Y025600D02*
X010100Y024100D01*
X012100Y024100D02*
X012100Y025600D01*
X014100Y025600D02*
X014100Y024100D01*
X013100Y024100D01*
X015100Y024100D02*
X016100Y024100D01*
X016100Y025600D01*
X015100Y028600D02*
X015100Y030100D01*
X013100Y030100D02*
X013100Y028600D01*
X011100Y028600D02*
X011100Y030100D01*
X008600Y030100D02*
X008600Y028600D01*
X007600Y028600D02*
X007600Y031350D01*
X005600Y033350D01*
X005600Y034600D01*
X006350Y035350D01*
X007350Y035350D01*
X007600Y035600D01*
X007600Y036100D01*
X009600Y036100D02*
X010100Y036600D01*
X010100Y037600D01*
X011100Y038600D01*
X014850Y038600D01*
X015600Y037850D01*
X016600Y037850D01*
X017350Y038600D01*
X028600Y038600D01*
X028850Y038350D01*
X028850Y037100D01*
X026100Y037100D02*
X025600Y036600D01*
X025600Y035600D01*
X026100Y035100D01*
X026100Y034100D01*
X025100Y035350D02*
X025100Y036100D01*
X024600Y036600D02*
X024100Y037100D01*
X024600Y036600D02*
X024600Y035600D01*
X023100Y034100D01*
X022100Y034100D01*
X020850Y034100D02*
X022100Y035350D01*
X023350Y035350D01*
X024100Y036100D01*
X023100Y036100D02*
X022600Y036600D01*
X022600Y037350D01*
X022350Y037600D01*
X017600Y037600D01*
X017100Y037100D01*
X017100Y034100D01*
X015100Y034100D02*
X015100Y036600D01*
X015850Y037350D01*
X016600Y037350D01*
X017350Y038100D01*
X022850Y038100D01*
X023100Y037850D01*
X023100Y037100D01*
X025100Y035350D02*
X024100Y034350D01*
X024100Y034100D01*
X020850Y034100D02*
X020100Y034100D01*
X016100Y038350D02*
X016850Y039100D01*
X045350Y039100D01*
X045600Y038850D01*
X045600Y036600D01*
X046100Y036100D01*
X044350Y035350D02*
X050600Y035350D01*
X051100Y035850D01*
X051100Y038100D01*
X051600Y038600D01*
X061600Y038600D01*
X062350Y037850D01*
X062350Y029350D01*
X062100Y029100D01*
X060350Y029100D01*
X060100Y028850D01*
X060100Y026100D01*
X059850Y025850D01*
X058600Y025850D01*
X058350Y025600D01*
X058350Y023100D01*
X058600Y022850D01*
X059850Y022850D01*
X060100Y022600D01*
X060100Y020954D01*
X059746Y020600D01*
X058600Y020600D01*
X055350Y017100D01*
X055100Y016850D01*
X055100Y015100D01*
X054100Y015100D01*
X053600Y014600D01*
X055100Y015100D02*
X056100Y014100D01*
X059600Y014100D01*
X060100Y014600D01*
X051850Y034350D02*
X043350Y034350D01*
X043100Y034600D01*
X043100Y036100D01*
X043600Y036600D02*
X043600Y035100D01*
X043850Y034850D01*
X051100Y034850D01*
X051600Y035350D01*
X051600Y036600D01*
X052100Y037100D01*
X052100Y036100D02*
X052100Y034600D01*
X051850Y034350D01*
X044350Y035350D02*
X044100Y035600D01*
X044100Y036100D01*
X043600Y036600D02*
X043100Y037100D01*
X044100Y037100D02*
X044100Y037850D01*
X043850Y038100D01*
X035350Y038100D01*
X026100Y030100D02*
X026100Y028600D01*
X024100Y028600D02*
X024100Y030100D01*
X022100Y030100D02*
X022100Y028600D01*
X020100Y028600D02*
X020100Y030100D01*
X017100Y030100D02*
X017100Y028600D01*
X013100Y034100D02*
X012600Y034100D01*
X011100Y035600D01*
X011100Y036600D01*
X010600Y037100D01*
X010600Y036100D02*
X010600Y034600D01*
X011100Y034100D01*
X008600Y034100D02*
X006600Y034100D01*
X006600Y030100D02*
X006600Y028600D01*
X005600Y028600D02*
X005600Y028100D01*
X005850Y027850D01*
X007350Y027850D01*
X007600Y028100D01*
X007600Y028600D01*
X025100Y020100D02*
X025100Y019100D01*
D21*
X026100Y019600D02*
X026600Y019100D01*
X027600Y019100D01*
X027600Y020100D02*
X029100Y020100D01*
X029350Y019850D01*
X029350Y018350D01*
X029600Y018100D01*
X030600Y018100D01*
X032600Y016850D02*
X031600Y015850D01*
X029850Y015850D01*
X028850Y014850D01*
X028850Y005600D01*
X028100Y004850D01*
X028100Y004350D01*
X028100Y003600D02*
X028100Y001600D01*
X028350Y001350D01*
X033350Y001350D01*
X033600Y001600D01*
X033600Y002100D01*
X034100Y002350D02*
X033850Y002600D01*
X033100Y002600D01*
X032600Y003100D01*
X033600Y003100D02*
X033600Y005100D01*
X032100Y006600D01*
X032100Y010600D01*
X031600Y011100D01*
X031100Y011100D01*
X031100Y012600D02*
X032350Y012600D01*
X033100Y011850D01*
X033100Y006350D01*
X035100Y004350D01*
X035100Y002600D01*
X034600Y002100D01*
X034100Y002350D02*
X034100Y001454D01*
X033746Y001100D01*
X027350Y001100D01*
X027100Y001350D01*
X027100Y003600D01*
X026350Y004350D01*
X016350Y004350D01*
X015600Y005100D01*
X015600Y005600D01*
X016350Y006350D02*
X017850Y006350D01*
X019600Y004600D01*
X027100Y004600D01*
X028100Y003600D01*
X029100Y004600D02*
X029600Y004100D01*
X029600Y003100D01*
X029100Y004600D02*
X029100Y014600D01*
X029850Y015350D01*
X034100Y015350D01*
X035600Y016850D01*
X038600Y016850D02*
X038600Y015350D01*
X036600Y013350D01*
X036600Y005100D01*
X037100Y004600D02*
X037600Y004100D01*
X041100Y004100D01*
X041850Y003600D02*
X043850Y005600D01*
X046100Y005600D01*
X046850Y006350D01*
X046850Y009600D01*
X047350Y010100D01*
X047350Y010600D01*
X047850Y011100D01*
X048600Y011100D01*
X048600Y012600D02*
X049600Y012600D01*
X050100Y012100D01*
X050100Y005850D01*
X049100Y004850D01*
X047350Y004850D01*
X046600Y004100D01*
X044600Y004100D01*
X043600Y003100D01*
X043600Y002350D01*
X042850Y001600D01*
X037100Y001600D01*
X036600Y002100D01*
X037100Y002600D02*
X042350Y002600D01*
X042600Y002850D01*
X042600Y003600D01*
X044100Y005100D01*
X046100Y005100D01*
X047100Y006100D01*
X048600Y006100D01*
X048850Y005350D02*
X047100Y005350D01*
X046350Y004600D01*
X044350Y004600D01*
X043100Y003350D01*
X043100Y002600D01*
X042600Y002100D01*
X037600Y002100D01*
X037100Y002600D02*
X036600Y003100D01*
X036100Y003600D02*
X035600Y003100D01*
X036100Y003600D02*
X041850Y003600D01*
X040600Y004850D02*
X040600Y007100D01*
X040225Y007475D01*
X040225Y008100D01*
X041225Y009100D01*
X041600Y009100D01*
X043600Y009100D01*
X044600Y009100D01*
X044600Y007600D01*
X043600Y007100D02*
X043600Y006100D01*
X044600Y006100D01*
X043600Y006100D02*
X043100Y006100D01*
X041350Y006100D01*
X041100Y006350D01*
X041100Y007600D01*
X041100Y008350D01*
X039850Y007350D02*
X039850Y009600D01*
X040100Y009850D01*
X046600Y009850D01*
X046850Y010100D01*
X046850Y014350D01*
X047600Y015100D01*
X049600Y015100D01*
X050600Y016100D01*
X050600Y016850D01*
X047600Y016850D02*
X047600Y015850D01*
X046100Y014350D01*
X046100Y010350D01*
X045850Y010100D01*
X039850Y010100D01*
X039600Y009850D01*
X039600Y005100D01*
X040100Y005100D02*
X040100Y007100D01*
X039850Y007350D01*
X039350Y007350D02*
X038600Y006600D01*
X038600Y005600D01*
X038100Y006100D02*
X038100Y005100D01*
X038600Y004600D01*
X040350Y004600D01*
X040600Y004850D01*
X039350Y007350D02*
X039350Y010100D01*
X039600Y010350D01*
X045350Y010350D01*
X045600Y010600D01*
X045600Y014350D01*
X044600Y015350D01*
X044600Y016850D01*
X041600Y016850D02*
X040600Y016850D01*
X037100Y013350D01*
X037100Y004600D01*
X034100Y006100D02*
X034100Y008100D01*
X034100Y011100D02*
X034100Y013100D01*
X038100Y011100D02*
X038350Y011350D01*
X038475Y011350D01*
X041225Y014100D01*
X041600Y014100D01*
X043600Y014100D01*
X044600Y014100D01*
X044600Y012600D01*
X043600Y012100D02*
X043600Y011100D01*
X044600Y011100D01*
X043600Y011100D02*
X043100Y011100D01*
X041350Y011100D01*
X041100Y011350D01*
X041100Y012600D01*
X041100Y013350D01*
X048600Y007600D02*
X049100Y007600D01*
X049350Y007350D01*
X049350Y005850D01*
X048850Y005350D01*
X048600Y003850D02*
X050232Y003850D01*
X051350Y004968D01*
X051350Y006100D01*
X052100Y006850D01*
X052350Y009600D02*
X052100Y009850D01*
X052100Y010850D01*
X052350Y009600D02*
X053600Y009600D01*
X053600Y012600D01*
X053850Y012850D01*
X055850Y012850D01*
X056100Y012600D01*
X056100Y012100D01*
X057100Y012100D02*
X057100Y012600D01*
X057350Y012850D01*
X058600Y012850D01*
X058850Y012600D01*
X058850Y010600D01*
X059350Y010100D01*
X059350Y009600D01*
X061100Y009600D01*
X061850Y008850D01*
X061600Y005100D02*
X056600Y005100D01*
X055600Y004100D01*
X055600Y002600D01*
X061600Y005100D02*
X061850Y004850D01*
X048600Y003850D02*
X047600Y002850D01*
X047600Y002600D01*
X057350Y014350D02*
X057100Y014600D01*
X057100Y015100D01*
X057350Y014350D02*
X058850Y014350D01*
X059100Y014600D01*
X059100Y015600D01*
X060100Y016600D01*
X060100Y018600D01*
X061100Y018600D01*
X061100Y022600D02*
X061100Y023600D01*
X060541Y024600D02*
X059100Y024600D01*
X060541Y024600D02*
X061100Y025159D01*
X061100Y025600D01*
X061100Y027600D01*
X056600Y025350D02*
X056600Y024600D01*
X056600Y025350D02*
X056350Y025600D01*
X054600Y025600D01*
X054600Y027600D01*
X054600Y030600D02*
X056600Y030600D01*
X056600Y031600D01*
X055850Y032350D01*
X055850Y034350D01*
X054600Y035600D01*
X054100Y036100D01*
X054100Y037100D02*
X054100Y037600D01*
X054350Y037850D01*
X056600Y037850D01*
X056850Y037600D01*
X056850Y034600D01*
X059100Y032350D01*
X059100Y031600D01*
X059100Y030600D01*
X061100Y030600D01*
X051100Y031600D02*
X048100Y028600D01*
X033350Y028600D01*
X032600Y027850D01*
X032600Y027350D01*
X032350Y027100D01*
X031850Y027100D01*
X031100Y027100D01*
X030850Y026850D01*
X030850Y026100D01*
X030100Y026100D02*
X030100Y027100D01*
X030350Y027350D01*
X031600Y027350D01*
X032100Y027350D01*
X032350Y027600D01*
X032350Y028100D01*
X033100Y028850D01*
X045350Y028850D01*
X048100Y031600D01*
X048100Y033600D01*
X051100Y033600D02*
X051100Y031600D01*
X045100Y031850D02*
X042350Y029100D01*
X032850Y029100D01*
X032100Y028350D01*
X032100Y027850D01*
X031850Y027600D01*
X029704Y027600D01*
X029350Y027246D01*
X029350Y026100D01*
X028600Y026100D02*
X028600Y026996D01*
X029454Y027850D01*
X030600Y027850D01*
X031350Y028600D01*
X031850Y028600D01*
X032100Y028850D01*
X032100Y029350D01*
X032850Y030100D01*
X040100Y030100D01*
X042100Y032100D01*
X042100Y033600D01*
X039100Y033600D02*
X039100Y032100D01*
X037350Y030350D01*
X032100Y030350D01*
X031600Y029850D01*
X031100Y029850D01*
X029350Y028100D01*
X029100Y028100D01*
X028100Y027100D01*
X028100Y026850D01*
X027600Y026350D01*
X025350Y026350D01*
X025100Y026100D01*
X025100Y025600D01*
X026600Y027100D02*
X027600Y028100D01*
X027600Y029100D01*
X028350Y028600D02*
X028350Y032100D01*
X027600Y032850D01*
X027850Y033100D01*
X029100Y033100D01*
X029600Y033600D01*
X032475Y033600D01*
X032975Y033100D01*
X034100Y033100D01*
X034600Y033600D01*
X033100Y033600D02*
X032850Y033850D01*
X027704Y033850D01*
X027100Y033246D01*
X027100Y028100D01*
X026350Y027350D01*
X010600Y027350D01*
X010100Y026850D01*
X010100Y025600D01*
X012100Y025600D02*
X012100Y026600D01*
X012600Y027100D01*
X026600Y027100D01*
X027350Y026850D02*
X028850Y028350D01*
X029100Y028350D01*
X030850Y030100D01*
X031350Y030100D01*
X031850Y030600D01*
X034600Y030600D01*
X036100Y032100D01*
X036100Y033600D01*
X035350Y035100D02*
X032850Y035100D01*
X032850Y036100D02*
X035350Y036100D01*
X036100Y036600D02*
X036600Y037100D01*
X036100Y036600D02*
X028350Y036600D01*
X027100Y037850D01*
X025850Y037850D01*
X025100Y037100D01*
X026100Y036100D02*
X027850Y036100D01*
X028350Y035600D01*
X036350Y035600D01*
X036600Y035350D01*
X035350Y037100D02*
X032850Y037100D01*
X032100Y033100D02*
X032100Y032100D01*
X032100Y031600D01*
X031100Y030600D01*
X033600Y026600D02*
X033600Y025100D01*
X035600Y025100D02*
X036600Y025100D01*
X036600Y026600D01*
X039600Y026600D02*
X039600Y025100D01*
X038600Y022100D02*
X038600Y020850D01*
X041600Y020850D02*
X041600Y022100D01*
X042600Y022100D01*
X042600Y020850D01*
X044600Y020850D02*
X044600Y022100D01*
X045600Y022100D01*
X045600Y020850D01*
X047600Y020850D02*
X047600Y022100D01*
X048600Y022100D01*
X048600Y020850D01*
X050600Y020850D02*
X050600Y022100D01*
X051600Y022100D01*
X051600Y020850D01*
X054600Y022600D02*
X054600Y023600D01*
X045100Y031850D02*
X045100Y033600D01*
X031600Y024100D02*
X030850Y024850D01*
X030850Y025100D01*
X030100Y025100D02*
X030100Y024850D01*
X029600Y024350D01*
X029600Y020600D01*
X030100Y020100D01*
X030600Y020100D01*
X030600Y021100D02*
X031350Y021100D01*
X031600Y021350D01*
X031600Y024100D01*
X029350Y025100D02*
X029350Y021350D01*
X029100Y021100D01*
X027600Y021100D01*
X027600Y022100D02*
X028350Y022100D01*
X028600Y022350D01*
X028600Y025100D01*
X027350Y026850D02*
X019600Y026850D01*
X019100Y026350D01*
X019100Y025600D01*
X016100Y024100D02*
X016100Y023350D01*
X017100Y022350D01*
X026350Y022350D01*
X027100Y023100D01*
X027600Y023100D01*
X025600Y020850D02*
X026100Y020350D01*
X026100Y019600D01*
X025600Y020850D02*
X014850Y020850D01*
X014100Y021600D01*
X014100Y024100D01*
X007600Y020100D02*
X007600Y017100D01*
X008850Y015850D01*
X027600Y015850D01*
X028600Y014850D01*
X028600Y009350D01*
X028350Y009100D01*
X028350Y008600D01*
X027850Y008600D02*
X027850Y009100D01*
X028350Y009600D01*
X028350Y014600D01*
X027600Y015350D01*
X005850Y015350D01*
X003600Y017600D01*
X003600Y020100D01*
X008225Y014100D02*
X005475Y011350D01*
X005350Y011350D01*
X005100Y011100D01*
X008100Y011350D02*
X008350Y011100D01*
X010100Y011100D01*
X010600Y011100D01*
X010600Y012100D01*
X010600Y011100D02*
X011600Y011100D01*
X011600Y012600D02*
X011600Y014100D01*
X010600Y014100D01*
X008600Y014100D01*
X008225Y014100D01*
X008100Y013350D02*
X008100Y012600D01*
X008100Y011350D01*
X008225Y008600D02*
X005475Y005850D01*
X005350Y005850D01*
X005100Y005600D01*
X008100Y005850D02*
X008100Y007100D01*
X008100Y007850D01*
X008225Y008600D02*
X008600Y008600D01*
X010600Y008600D01*
X011600Y008600D01*
X011600Y007100D01*
X010600Y006600D02*
X010600Y005600D01*
X011600Y005600D01*
X010600Y005600D02*
X010100Y005600D01*
X008350Y005600D01*
X008100Y005850D01*
X010600Y002600D02*
X011600Y002600D01*
X011600Y001100D02*
X009100Y001100D01*
X001100Y005600D02*
X001100Y007600D01*
X001100Y011100D02*
X001100Y013100D01*
X015600Y012600D02*
X016350Y011850D01*
X017850Y011850D01*
X019600Y010100D01*
X027100Y010100D01*
X027100Y009600D02*
X026600Y009600D01*
X026350Y009850D01*
X016350Y009850D01*
X015600Y010600D01*
X015600Y011100D01*
X020600Y011100D02*
X020850Y011350D01*
X020975Y011350D01*
X023725Y014100D01*
X024100Y014100D01*
X026100Y014100D01*
X027100Y014100D01*
X027100Y012600D01*
X026100Y012100D02*
X026100Y011100D01*
X027100Y011100D01*
X026100Y011100D02*
X025600Y011100D01*
X023850Y011100D01*
X023600Y011350D01*
X023600Y012600D01*
X023600Y013350D01*
X023725Y008600D02*
X020975Y005850D01*
X020850Y005850D01*
X020600Y005600D01*
X023600Y005850D02*
X023850Y005600D01*
X025600Y005600D01*
X026100Y005600D01*
X026100Y006600D01*
X027100Y007100D02*
X027100Y008600D01*
X026100Y008600D01*
X024100Y008600D01*
X023725Y008600D01*
X023600Y007850D02*
X023600Y007100D01*
X023600Y005850D01*
X026100Y005600D02*
X027100Y005600D01*
X016350Y006350D02*
X015600Y007100D01*
X032600Y020850D02*
X032600Y022100D01*
D22*
X027100Y010100D03*
X027100Y009600D03*
X027850Y008600D03*
X028350Y008600D03*
X028100Y004350D03*
X036600Y005100D03*
X038600Y005600D03*
X039600Y005100D03*
X040100Y005100D03*
X041100Y004100D03*
D23*
X030850Y025100D03*
X030100Y025100D03*
X029350Y025100D03*
X028600Y025100D03*
X028600Y026100D03*
X029350Y026100D03*
X030100Y026100D03*
X030850Y026100D03*
X028350Y028600D03*
M02*
