G75*
G70*
%OFA0B0*%
%FSLAX24Y24*%
%IPPOS*%
%LPD*%
%AMOC8*
5,1,8,0,0,1.08239X$1,22.5*
%
%ADD10C,0.1655*%
%ADD11OC8,0.0640*%
%ADD12C,0.0674*%
%ADD13C,0.0785*%
%ADD14C,0.0600*%
%ADD15OC8,0.0600*%
%ADD16C,0.0680*%
%ADD17C,0.1080*%
%ADD18OC8,0.1080*%
%ADD19C,0.0437*%
%ADD20C,0.0476*%
D10*
X003100Y003100D03*
X003100Y036350D03*
X060100Y036350D03*
X060100Y003100D03*
D11*
X037600Y003100D03*
X037600Y002100D03*
X036600Y002100D03*
X035600Y002100D03*
X035600Y003100D03*
X036600Y003100D03*
X034600Y003100D03*
X033600Y003100D03*
X033600Y002100D03*
X034600Y002100D03*
X032600Y002100D03*
X031600Y002100D03*
X031600Y003100D03*
X032600Y003100D03*
X030600Y003100D03*
X030600Y002100D03*
X029600Y002100D03*
X028600Y002100D03*
X028600Y003100D03*
X029600Y003100D03*
X027600Y003100D03*
X026600Y003100D03*
X026600Y002100D03*
X027600Y002100D03*
X025600Y002100D03*
X025600Y003100D03*
X025100Y036100D03*
X024100Y036100D03*
X024100Y037100D03*
X025100Y037100D03*
X026100Y037100D03*
X026100Y036100D03*
X023100Y036100D03*
X023100Y037100D03*
X022100Y037100D03*
X022100Y036100D03*
X011600Y036100D03*
X011600Y037100D03*
X010600Y037100D03*
X009600Y037100D03*
X009600Y036100D03*
X010600Y036100D03*
X008600Y036100D03*
X007600Y036100D03*
X007600Y037100D03*
X008600Y037100D03*
X043100Y037100D03*
X044100Y037100D03*
X044100Y036100D03*
X043100Y036100D03*
X045100Y036100D03*
X046100Y036100D03*
X046100Y037100D03*
X045100Y037100D03*
X047100Y037100D03*
X047100Y036100D03*
X052100Y036100D03*
X052100Y037100D03*
X053100Y037100D03*
X054100Y037100D03*
X054100Y036100D03*
X053100Y036100D03*
X055100Y036100D03*
X056100Y036100D03*
X056100Y037100D03*
X055100Y037100D03*
D12*
X054600Y002897D02*
X054600Y002303D01*
X055600Y002303D02*
X055600Y002897D01*
X056600Y002897D02*
X056600Y002303D01*
X057600Y002303D02*
X057600Y002897D01*
X053600Y002897D02*
X053600Y002303D01*
X052600Y002303D02*
X052600Y002897D01*
X049600Y002897D02*
X049600Y002303D01*
X048600Y002303D02*
X048600Y002897D01*
X047600Y002897D02*
X047600Y002303D01*
X046600Y002303D02*
X046600Y002897D01*
X045600Y002897D02*
X045600Y002303D01*
X044600Y002303D02*
X044600Y002897D01*
D13*
X021453Y002600D02*
X020748Y002600D01*
X020748Y001100D02*
X021453Y001100D01*
X017453Y001100D02*
X016748Y001100D01*
X016748Y002600D02*
X017453Y002600D01*
D14*
X020340Y007100D02*
X020860Y007100D01*
X023340Y007100D02*
X023860Y007100D01*
X023860Y012600D02*
X023340Y012600D01*
X020860Y012600D02*
X020340Y012600D01*
X027340Y018100D02*
X027860Y018100D01*
X027860Y019100D02*
X027340Y019100D01*
X027340Y020100D02*
X027860Y020100D01*
X027860Y021100D02*
X027340Y021100D01*
X027340Y022100D02*
X027860Y022100D01*
X027860Y023100D02*
X027340Y023100D01*
X027340Y024100D02*
X027860Y024100D01*
X026100Y025080D02*
X026100Y025600D01*
X025100Y025600D02*
X025100Y025080D01*
X024100Y025080D02*
X024100Y025600D01*
X023100Y025600D02*
X023100Y025080D01*
X022100Y025080D02*
X022100Y025600D01*
X021100Y025600D02*
X021100Y025080D01*
X020100Y025080D02*
X020100Y025600D01*
X019100Y025600D02*
X019100Y025080D01*
X017100Y025080D02*
X017100Y025600D01*
X016100Y025600D02*
X016100Y025080D01*
X015100Y025080D02*
X015100Y025600D01*
X014100Y025600D02*
X014100Y025080D01*
X013100Y025080D02*
X013100Y025600D01*
X012100Y025600D02*
X012100Y025080D01*
X011100Y025080D02*
X011100Y025600D01*
X010100Y025600D02*
X010100Y025080D01*
X008600Y025080D02*
X008600Y025600D01*
X007600Y025600D02*
X007600Y025080D01*
X006600Y025080D02*
X006600Y025600D01*
X005600Y025600D02*
X005600Y025080D01*
X004600Y025080D02*
X004600Y025600D01*
X003600Y025600D02*
X003600Y025080D01*
X002600Y025080D02*
X002600Y025600D01*
X001600Y025600D02*
X001600Y025080D01*
X001600Y028600D02*
X001600Y029120D01*
X002600Y029120D02*
X002600Y028600D01*
X003600Y028600D02*
X003600Y029120D01*
X004600Y029120D02*
X004600Y028600D01*
X005600Y028600D02*
X005600Y029120D01*
X006600Y029120D02*
X006600Y028600D01*
X007600Y028600D02*
X007600Y029120D01*
X008600Y029120D02*
X008600Y028600D01*
X010100Y028600D02*
X010100Y029120D01*
X011100Y029120D02*
X011100Y028600D01*
X012100Y028600D02*
X012100Y029120D01*
X013100Y029120D02*
X013100Y028600D01*
X014100Y028600D02*
X014100Y029120D01*
X015100Y029120D02*
X015100Y028600D01*
X016100Y028600D02*
X016100Y029120D01*
X017100Y029120D02*
X017100Y028600D01*
X019100Y028600D02*
X019100Y029120D01*
X020100Y029120D02*
X020100Y028600D01*
X021100Y028600D02*
X021100Y029120D01*
X022100Y029120D02*
X022100Y028600D01*
X023100Y028600D02*
X023100Y029120D01*
X024100Y029120D02*
X024100Y028600D01*
X025100Y028600D02*
X025100Y029120D01*
X026100Y029120D02*
X026100Y028600D01*
X028840Y032100D02*
X029360Y032100D01*
X029360Y033100D02*
X028840Y033100D01*
X031840Y033100D02*
X032360Y033100D01*
X032360Y032100D02*
X031840Y032100D01*
X032600Y025360D02*
X032600Y024840D01*
X033600Y024840D02*
X033600Y025360D01*
X035600Y025360D02*
X035600Y024840D01*
X036600Y024840D02*
X036600Y025360D01*
X038600Y025360D02*
X038600Y024840D01*
X039600Y024840D02*
X039600Y025360D01*
X041600Y025360D02*
X041600Y024840D01*
X042600Y024840D02*
X042600Y025360D01*
X044600Y025360D02*
X044600Y024840D01*
X045600Y024840D02*
X045600Y025360D01*
X047600Y025360D02*
X047600Y024840D01*
X048600Y024840D02*
X048600Y025360D01*
X050600Y025360D02*
X050600Y024840D01*
X051600Y024840D02*
X051600Y025360D01*
X054600Y027340D02*
X054600Y027860D01*
X054600Y030340D02*
X054600Y030860D01*
X061100Y030860D02*
X061100Y030340D01*
X061100Y027860D02*
X061100Y027340D01*
X059100Y024860D02*
X059100Y024340D01*
X056600Y024340D02*
X056600Y024860D01*
X056600Y021860D02*
X056600Y021340D01*
X059100Y021340D02*
X059100Y021860D01*
X051600Y021840D02*
X051600Y022360D01*
X050600Y022360D02*
X050600Y021840D01*
X048600Y021840D02*
X048600Y022360D01*
X047600Y022360D02*
X047600Y021840D01*
X045600Y021840D02*
X045600Y022360D01*
X044600Y022360D02*
X044600Y021840D01*
X042600Y021840D02*
X042600Y022360D01*
X041600Y022360D02*
X041600Y021840D01*
X039600Y021840D02*
X039600Y022360D01*
X038600Y022360D02*
X038600Y021840D01*
X036600Y021840D02*
X036600Y022360D01*
X035600Y022360D02*
X035600Y021840D01*
X033600Y021840D02*
X033600Y022360D01*
X032600Y022360D02*
X032600Y021840D01*
X030860Y022100D02*
X030340Y022100D01*
X030340Y021100D02*
X030860Y021100D01*
X030860Y020100D02*
X030340Y020100D01*
X030340Y019100D02*
X030860Y019100D01*
X030860Y018100D02*
X030340Y018100D01*
X030340Y023100D02*
X030860Y023100D01*
X030860Y024100D02*
X030340Y024100D01*
X037840Y012600D02*
X038360Y012600D01*
X040840Y012600D02*
X041360Y012600D01*
X041360Y007600D02*
X040840Y007600D01*
X038360Y007600D02*
X037840Y007600D01*
X053340Y009600D02*
X053860Y009600D01*
X056340Y009600D02*
X056860Y009600D01*
X057840Y009600D02*
X058360Y009600D01*
X060840Y009600D02*
X061360Y009600D01*
X058100Y011580D02*
X058100Y012100D01*
X057100Y012100D02*
X057100Y011580D01*
X056100Y011580D02*
X056100Y012100D01*
X055100Y012100D02*
X055100Y011580D01*
X055100Y015100D02*
X055100Y015620D01*
X056100Y015620D02*
X056100Y015100D01*
X057100Y015100D02*
X057100Y015620D01*
X058100Y015620D02*
X058100Y015100D01*
X008360Y012600D02*
X007840Y012600D01*
X005360Y012600D02*
X004840Y012600D01*
X004840Y007100D02*
X005360Y007100D01*
X007840Y007100D02*
X008360Y007100D01*
D15*
X008100Y007850D03*
X007600Y008600D03*
X008600Y008600D03*
X010600Y008600D03*
X011600Y008600D03*
X011600Y007100D03*
X010600Y006600D03*
X010100Y005600D03*
X011600Y005600D03*
X015600Y005600D03*
X016600Y005600D03*
X015600Y007100D03*
X016600Y007600D03*
X017600Y007600D03*
X015600Y008600D03*
X015600Y011100D03*
X016600Y011100D03*
X015600Y012600D03*
X016600Y013100D03*
X017600Y013100D03*
X015600Y014100D03*
X011600Y014100D03*
X010600Y014100D03*
X008600Y014100D03*
X007600Y014100D03*
X008100Y013350D03*
X010600Y012100D03*
X010100Y011100D03*
X011600Y011100D03*
X011600Y012600D03*
X006100Y011100D03*
X005100Y011100D03*
X004100Y009350D03*
X002100Y009350D03*
X002100Y007600D03*
X001100Y007600D03*
X001100Y005600D03*
X005100Y005600D03*
X006100Y005600D03*
X009600Y002600D03*
X010600Y002600D03*
X011600Y002600D03*
X011600Y001100D03*
X009100Y001100D03*
X008100Y001100D03*
X015600Y001100D03*
X015600Y002600D03*
X020600Y005600D03*
X021600Y005600D03*
X023600Y007850D03*
X023100Y008600D03*
X024100Y008600D03*
X026100Y008600D03*
X027100Y008600D03*
X027100Y007100D03*
X026100Y006600D03*
X025600Y005600D03*
X027100Y005600D03*
X031100Y005600D03*
X031100Y007100D03*
X031100Y008600D03*
X034100Y008100D03*
X035100Y008100D03*
X034100Y006100D03*
X038100Y006100D03*
X039100Y006100D03*
X041100Y008350D03*
X040600Y009100D03*
X041600Y009100D03*
X043600Y009100D03*
X044600Y009100D03*
X044600Y007600D03*
X043600Y007100D03*
X043100Y006100D03*
X044600Y006100D03*
X048600Y006100D03*
X048600Y007600D03*
X048600Y009100D03*
X050600Y007100D03*
X052100Y006850D03*
X053600Y007100D03*
X053600Y005100D03*
X050600Y005100D03*
X051100Y003350D03*
X051100Y001350D03*
X061850Y004850D03*
X061850Y008850D03*
X060100Y014600D03*
X057350Y017100D03*
X055350Y017100D03*
X054600Y018600D03*
X053600Y018600D03*
X051600Y016850D03*
X050600Y016850D03*
X048600Y016850D03*
X047600Y016850D03*
X045600Y016850D03*
X044600Y016850D03*
X042600Y016850D03*
X041600Y016850D03*
X038600Y016850D03*
X035600Y016850D03*
X032600Y016850D03*
X030100Y016600D03*
X028100Y016600D03*
X025100Y018100D03*
X025100Y019100D03*
X025100Y020100D03*
X024100Y020100D03*
X023100Y020100D03*
X023100Y019100D03*
X022100Y020100D03*
X021100Y020100D03*
X021100Y019100D03*
X020100Y020100D03*
X019100Y020100D03*
X019100Y019100D03*
X018100Y020100D03*
X016100Y020100D03*
X016100Y019100D03*
X015100Y020100D03*
X014100Y020100D03*
X014100Y019100D03*
X013100Y020100D03*
X012100Y020100D03*
X012100Y019100D03*
X012100Y018100D03*
X014100Y018100D03*
X016100Y018100D03*
X019100Y018100D03*
X021100Y018100D03*
X023100Y018100D03*
X023100Y014100D03*
X023600Y013350D03*
X024100Y014100D03*
X026100Y014100D03*
X027100Y014100D03*
X027100Y012600D03*
X026100Y012100D03*
X025600Y011100D03*
X027100Y011100D03*
X031100Y011100D03*
X031100Y012600D03*
X031100Y014100D03*
X034100Y013100D03*
X035100Y013100D03*
X034100Y011100D03*
X038100Y011100D03*
X039100Y011100D03*
X041100Y013350D03*
X040600Y014100D03*
X041600Y014100D03*
X043600Y014100D03*
X044600Y014100D03*
X044600Y012600D03*
X043600Y012100D03*
X043100Y011100D03*
X044600Y011100D03*
X048600Y011100D03*
X048600Y012600D03*
X048600Y014100D03*
X052100Y010850D03*
X053600Y014600D03*
X060100Y018600D03*
X061100Y018600D03*
X061100Y022600D03*
X061100Y023600D03*
X061100Y025600D03*
X059100Y026600D03*
X056600Y026600D03*
X054600Y025600D03*
X054600Y023600D03*
X054600Y022600D03*
X051600Y020850D03*
X050600Y020850D03*
X048600Y020850D03*
X047600Y020850D03*
X045600Y020850D03*
X044600Y020850D03*
X042600Y020850D03*
X041600Y020850D03*
X038600Y020850D03*
X035600Y020850D03*
X032600Y020850D03*
X025100Y024100D03*
X024100Y024100D03*
X023100Y024100D03*
X022100Y024100D03*
X021100Y024100D03*
X020100Y024100D03*
X019100Y024100D03*
X018100Y024100D03*
X016100Y024100D03*
X015100Y024100D03*
X014100Y024100D03*
X013100Y024100D03*
X012100Y024100D03*
X010100Y024100D03*
X009100Y024100D03*
X007600Y024100D03*
X005600Y024100D03*
X003600Y024100D03*
X001600Y024100D03*
X001600Y020100D03*
X001600Y019100D03*
X001600Y018100D03*
X003600Y020100D03*
X005600Y020100D03*
X005600Y019100D03*
X005600Y018100D03*
X007600Y020100D03*
X009100Y020100D03*
X010100Y020100D03*
X010100Y019100D03*
X010100Y018100D03*
X002100Y013100D03*
X001100Y013100D03*
X001100Y011100D03*
X020600Y011100D03*
X021600Y011100D03*
X032600Y026600D03*
X033100Y027350D03*
X033600Y026600D03*
X035600Y026600D03*
X036600Y026600D03*
X036100Y027350D03*
X038600Y026600D03*
X039600Y026600D03*
X039100Y027350D03*
X041600Y026600D03*
X042100Y027350D03*
X042600Y026600D03*
X044600Y026600D03*
X045100Y027350D03*
X045600Y026600D03*
X047600Y026600D03*
X048600Y026600D03*
X048100Y027350D03*
X050600Y026600D03*
X051600Y026600D03*
X051100Y027350D03*
X051100Y029600D03*
X048100Y029600D03*
X045100Y029600D03*
X042100Y029600D03*
X039100Y029600D03*
X036100Y029600D03*
X034600Y029600D03*
X033100Y029600D03*
X031600Y029100D03*
X031600Y028100D03*
X031100Y030600D03*
X029100Y030600D03*
X027600Y030850D03*
X026100Y030100D03*
X027600Y029100D03*
X027600Y028100D03*
X024100Y030100D03*
X022100Y030100D03*
X020100Y030100D03*
X017100Y030100D03*
X015100Y030100D03*
X013100Y030100D03*
X011100Y030100D03*
X008600Y030100D03*
X006600Y030100D03*
X006600Y034100D03*
X008600Y034100D03*
X011100Y034100D03*
X013100Y034100D03*
X015100Y034100D03*
X016100Y034350D03*
X017100Y034100D03*
X020100Y034100D03*
X022100Y034100D03*
X024100Y034100D03*
X026100Y034100D03*
X027600Y032850D03*
X028850Y035100D03*
X028850Y036100D03*
X028850Y037100D03*
X032850Y037100D03*
X032850Y036100D03*
X032850Y035100D03*
X033100Y033600D03*
X034600Y033600D03*
X036100Y033600D03*
X039100Y033600D03*
X040600Y035350D03*
X040600Y037100D03*
X036600Y037100D03*
X036600Y035350D03*
X042100Y033600D03*
X045100Y033600D03*
X048100Y033600D03*
X051100Y033600D03*
X056600Y033600D03*
X059100Y033600D03*
X059100Y031600D03*
X059100Y030600D03*
X056600Y030600D03*
X056600Y031600D03*
X016100Y038350D03*
D16*
X035050Y038100D02*
X035650Y038100D01*
X035650Y037100D02*
X035050Y037100D01*
X035050Y036100D02*
X035650Y036100D01*
X035650Y035100D02*
X035050Y035100D01*
D17*
X002850Y014850D03*
X055850Y006100D03*
D18*
X057850Y006100D03*
X004850Y014850D03*
D19*
X027100Y010100D03*
X027100Y009600D03*
X027850Y008600D03*
X028350Y008600D03*
X028100Y004350D03*
X036600Y005100D03*
X038600Y005600D03*
X039600Y005100D03*
X040100Y005100D03*
X041100Y004100D03*
D20*
X030850Y025100D03*
X030100Y025100D03*
X029350Y025100D03*
X028600Y025100D03*
X028600Y026100D03*
X029350Y026100D03*
X030100Y026100D03*
X030850Y026100D03*
X028350Y028600D03*
M02*
