G75*
G70*
%OFA0B0*%
%FSLAX24Y24*%
%IPPOS*%
%LPD*%
%AMOC8*
5,1,8,0,0,1.08239X$1,22.5*
%
%ADD10C,0.0520*%
%ADD11OC8,0.0520*%
%ADD12C,0.0600*%
%ADD13OC8,0.0630*%
%ADD14C,0.0630*%
%ADD15C,0.0594*%
%ADD16C,0.0825*%
%ADD17C,0.0120*%
%ADD18C,0.0396*%
%ADD19C,0.0240*%
D10*
X009975Y003715D02*
X009975Y004235D01*
X009975Y006715D02*
X009975Y007235D01*
X008735Y011600D02*
X008215Y011600D01*
X008215Y012600D02*
X008735Y012600D01*
X008735Y013600D02*
X008215Y013600D01*
X008215Y014600D02*
X008735Y014600D01*
X011215Y014600D02*
X011735Y014600D01*
X011735Y013600D02*
X011215Y013600D01*
X011215Y012600D02*
X011735Y012600D01*
X011735Y011600D02*
X011215Y011600D01*
X014965Y010850D02*
X015485Y010850D01*
X015485Y009975D02*
X014965Y009975D01*
X017965Y009975D02*
X018485Y009975D01*
X018485Y010850D02*
X017965Y010850D01*
X004985Y011225D02*
X004465Y011225D01*
X001985Y011225D02*
X001465Y011225D01*
D11*
X001725Y010225D03*
X002725Y010225D03*
X003975Y009975D03*
X003975Y008975D03*
X003975Y008100D03*
X003975Y007100D03*
X003725Y005600D03*
X003725Y003600D03*
X007350Y007475D03*
X008100Y007475D03*
X008850Y006975D03*
X008850Y007975D03*
X009475Y009225D03*
X010475Y009225D03*
X010850Y010350D03*
X008850Y010350D03*
X007600Y009600D03*
X006600Y009600D03*
X006850Y010600D03*
X006100Y011100D03*
X006850Y011600D03*
X005975Y012225D03*
X004975Y012225D03*
X004975Y013225D03*
X003975Y013225D03*
X003975Y012225D03*
X002975Y012225D03*
X002975Y013225D03*
X002975Y014225D03*
X003975Y014225D03*
X004975Y014225D03*
X006100Y013975D03*
X006850Y013475D03*
X006850Y014475D03*
X013100Y014475D03*
X013850Y013975D03*
X013100Y013475D03*
X012975Y012600D03*
X013975Y012600D03*
X014975Y012600D03*
X014975Y013475D03*
X014975Y014475D03*
X015975Y014225D03*
X016975Y014225D03*
X016975Y013225D03*
X016975Y012225D03*
X015975Y012225D03*
X015975Y013225D03*
X014975Y011600D03*
X013850Y011100D03*
X013100Y010600D03*
X013100Y011600D03*
X014850Y009100D03*
X014850Y008100D03*
X016600Y007975D03*
X016600Y008975D03*
X018225Y008975D03*
X018225Y007975D03*
X007350Y008475D03*
D12*
X011225Y008300D02*
X011225Y008900D01*
X012225Y008900D02*
X012225Y008300D01*
X013225Y008300D02*
X013225Y008900D01*
X014225Y007275D02*
X014225Y006675D01*
X016225Y006675D02*
X016225Y007275D01*
X018225Y007275D02*
X018225Y006675D01*
X018225Y004275D02*
X018225Y003675D01*
X016475Y002275D02*
X016475Y001675D01*
X015475Y001675D02*
X015475Y002275D01*
X014475Y002275D02*
X014475Y001675D01*
X012475Y001675D02*
X012475Y002275D01*
X011475Y002275D02*
X011475Y001675D01*
X010475Y001675D02*
X010475Y002275D01*
X011225Y003675D02*
X011225Y004275D01*
X011225Y006675D02*
X011225Y007275D01*
X014225Y004275D02*
X014225Y003675D01*
X016225Y003675D02*
X016225Y004275D01*
X017925Y012225D02*
X018525Y012225D01*
X018525Y013225D02*
X017925Y013225D01*
X017925Y014225D02*
X018525Y014225D01*
X015975Y015675D02*
X015975Y016275D01*
X014975Y016275D02*
X014975Y015675D01*
X013975Y015675D02*
X013975Y016275D01*
X012475Y016525D02*
X012475Y015925D01*
X011475Y015925D02*
X011475Y016525D01*
X010475Y016525D02*
X010475Y015925D01*
X009475Y015925D02*
X009475Y016525D01*
X008475Y016525D02*
X008475Y015925D01*
X007475Y015925D02*
X007475Y016525D01*
X005975Y016275D02*
X005975Y015675D01*
X004975Y015675D02*
X004975Y016275D01*
X003975Y016275D02*
X003975Y015675D01*
X002025Y014225D02*
X001425Y014225D01*
X001425Y013225D02*
X002025Y013225D01*
X002025Y012225D02*
X001425Y012225D01*
X001425Y009100D02*
X002025Y009100D01*
X002025Y008100D02*
X001425Y008100D01*
X001425Y007100D02*
X002025Y007100D01*
X002025Y005600D02*
X001425Y005600D01*
X001425Y004600D02*
X002025Y004600D01*
X002025Y003600D02*
X001425Y003600D01*
X003975Y002275D02*
X003975Y001675D01*
X004975Y001675D02*
X004975Y002275D01*
X005975Y002275D02*
X005975Y001675D01*
D13*
X007725Y004725D03*
D14*
X007725Y005725D03*
D15*
X007725Y002272D02*
X007725Y001678D01*
X008725Y001678D02*
X008725Y002272D01*
D16*
X005475Y003188D02*
X005475Y004013D01*
X005475Y009188D02*
X005475Y010013D01*
D17*
X000560Y017356D02*
X000560Y000560D01*
X009600Y000560D01*
X009600Y003411D01*
X009568Y003443D01*
X009495Y003620D01*
X009495Y003635D01*
X009241Y003635D01*
X009065Y003459D01*
X009065Y002663D01*
X009163Y002565D01*
X009242Y002375D01*
X009242Y001575D01*
X009163Y001385D01*
X009018Y001240D01*
X008828Y001161D01*
X008622Y001161D01*
X008432Y001240D01*
X008287Y001385D01*
X008225Y001535D01*
X008163Y001385D01*
X008018Y001240D01*
X007828Y001161D01*
X007622Y001161D01*
X007432Y001240D01*
X007287Y001385D01*
X007208Y001575D01*
X007208Y002375D01*
X007287Y002565D01*
X007385Y002663D01*
X007385Y003418D01*
X006107Y003418D01*
X006107Y003300D02*
X007385Y003300D01*
X007385Y003418D02*
X007437Y003543D01*
X008510Y004616D01*
X008510Y006636D01*
X008370Y006776D01*
X008370Y007066D01*
X008299Y006995D01*
X007901Y006995D01*
X007725Y007171D01*
X007549Y006995D01*
X007151Y006995D01*
X006870Y007276D01*
X006870Y007674D01*
X007151Y007955D01*
X007549Y007955D01*
X007725Y007779D01*
X007901Y007955D01*
X008299Y007955D01*
X008370Y007884D01*
X008370Y007955D01*
X008830Y007955D01*
X008830Y007995D01*
X008830Y008455D01*
X008651Y008455D01*
X008370Y008174D01*
X008370Y007995D01*
X008830Y007995D01*
X008870Y007995D01*
X008870Y008455D01*
X009049Y008455D01*
X009330Y008174D01*
X009330Y007995D01*
X008870Y007995D01*
X008870Y007955D01*
X009330Y007955D01*
X009330Y007776D01*
X009049Y007495D01*
X008870Y007495D01*
X008870Y007955D01*
X008830Y007955D01*
X008830Y007495D01*
X008651Y007495D01*
X008580Y007566D01*
X008580Y007384D01*
X008651Y007455D01*
X009049Y007455D01*
X009189Y007315D01*
X009495Y007315D01*
X009495Y007330D01*
X009568Y007507D01*
X009703Y007642D01*
X009880Y007715D01*
X010070Y007715D01*
X010247Y007642D01*
X010382Y007507D01*
X010455Y007330D01*
X010455Y007315D01*
X010705Y007315D01*
X010705Y007378D01*
X010784Y007570D01*
X010930Y007716D01*
X011103Y007787D01*
X010930Y007859D01*
X010784Y008005D01*
X010705Y008197D01*
X010705Y008776D01*
X010674Y008745D01*
X010276Y008745D01*
X009995Y009026D01*
X009995Y009424D01*
X010276Y009705D01*
X010607Y009705D01*
X010570Y009794D01*
X010570Y009951D01*
X010370Y010151D01*
X010370Y010549D01*
X010570Y010749D01*
X010570Y011031D01*
X010613Y011134D01*
X010808Y011329D01*
X010735Y011505D01*
X010735Y011695D01*
X010808Y011872D01*
X010943Y012007D01*
X011120Y012080D01*
X011830Y012080D01*
X012007Y012007D01*
X012142Y011872D01*
X012215Y011695D01*
X012215Y011505D01*
X012142Y011328D01*
X012007Y011193D01*
X011830Y011120D01*
X011391Y011120D01*
X011130Y010859D01*
X011130Y010749D01*
X011330Y010549D01*
X011330Y010151D01*
X011137Y009959D01*
X011341Y009755D01*
X012799Y009755D01*
X012441Y010113D01*
X012363Y010191D01*
X012320Y010294D01*
X012320Y012281D01*
X012363Y012384D01*
X012495Y012516D01*
X012495Y012799D01*
X012776Y013080D01*
X012816Y013080D01*
X012620Y013276D01*
X012620Y013455D01*
X013080Y013455D01*
X013080Y013495D01*
X013080Y013955D01*
X012901Y013955D01*
X012620Y013674D01*
X012620Y013495D01*
X013080Y013495D01*
X013120Y013495D01*
X013120Y013955D01*
X013299Y013955D01*
X013370Y013884D01*
X013370Y014066D01*
X013299Y013995D01*
X012901Y013995D01*
X012620Y014276D01*
X012620Y014276D01*
X012342Y013952D01*
X012337Y013941D01*
X012306Y013910D01*
X012276Y013875D01*
X012266Y013870D01*
X012259Y013863D01*
X012217Y013845D01*
X012177Y013825D01*
X012166Y013824D01*
X012162Y013823D01*
X012215Y013695D01*
X012215Y013505D01*
X012142Y013328D01*
X012007Y013193D01*
X011830Y013120D01*
X011120Y013120D01*
X010943Y013193D01*
X010816Y013320D01*
X009966Y013320D01*
X009633Y012987D01*
X009712Y012954D01*
X009786Y012880D01*
X010816Y012880D01*
X010943Y013007D01*
X011120Y013080D01*
X011830Y013080D01*
X012007Y013007D01*
X012142Y012872D01*
X012215Y012695D01*
X012215Y012505D01*
X012142Y012328D01*
X012007Y012193D01*
X011830Y012120D01*
X011120Y012120D01*
X010943Y012193D01*
X010816Y012320D01*
X009786Y012320D01*
X009712Y012246D01*
X009558Y012182D01*
X009392Y012182D01*
X009238Y012246D01*
X009146Y012338D01*
X009142Y012328D01*
X009007Y012193D01*
X008830Y012120D01*
X008120Y012120D01*
X007943Y012193D01*
X007808Y012328D01*
X007735Y012505D01*
X007735Y012695D01*
X007788Y012823D01*
X007691Y012863D01*
X007566Y012988D01*
X007488Y013066D01*
X007445Y013169D01*
X007445Y014109D01*
X007304Y014250D01*
X007049Y013995D01*
X006870Y013995D01*
X006870Y014455D01*
X006830Y014455D01*
X006830Y013995D01*
X006651Y013995D01*
X006580Y014066D01*
X006580Y013884D01*
X006651Y013955D01*
X007049Y013955D01*
X007330Y013674D01*
X007330Y013276D01*
X007130Y013076D01*
X007130Y013044D01*
X007087Y012941D01*
X006755Y012609D01*
X006755Y012080D01*
X006830Y012080D01*
X006830Y011620D01*
X006870Y011620D01*
X006870Y012080D01*
X007049Y012080D01*
X007330Y011799D01*
X007330Y011620D01*
X006870Y011620D01*
X006870Y011580D01*
X007330Y011580D01*
X007330Y011401D01*
X007049Y011120D01*
X006870Y011120D01*
X006870Y011580D01*
X006830Y011580D01*
X006830Y011120D01*
X006651Y011120D01*
X006580Y011191D01*
X006580Y011009D01*
X006651Y011080D01*
X007049Y011080D01*
X007330Y010799D01*
X007330Y010401D01*
X007049Y010120D01*
X006651Y010120D01*
X006451Y010320D01*
X006032Y010320D01*
X006107Y010138D01*
X006107Y009062D01*
X006011Y008829D01*
X005833Y008651D01*
X005601Y008555D01*
X005349Y008555D01*
X005117Y008651D01*
X004939Y008829D01*
X004843Y009062D01*
X004843Y009322D01*
X004837Y009316D01*
X004759Y009238D01*
X004656Y009195D01*
X004434Y009195D01*
X004455Y009174D01*
X004455Y008776D01*
X004216Y008537D01*
X004455Y008299D01*
X004455Y007901D01*
X004174Y007620D01*
X003776Y007620D01*
X003495Y007901D01*
X003495Y008299D01*
X003734Y008537D01*
X003495Y008776D01*
X003495Y009174D01*
X003516Y009195D01*
X003419Y009195D01*
X003316Y009238D01*
X002809Y009745D01*
X002526Y009745D01*
X002245Y010026D01*
X002245Y010349D01*
X002205Y010309D01*
X002205Y010026D01*
X001924Y009745D01*
X001526Y009745D01*
X001245Y010026D01*
X001245Y010424D01*
X001526Y010705D01*
X001809Y010705D01*
X001849Y010745D01*
X001745Y010745D01*
X001745Y011205D01*
X001705Y011205D01*
X001705Y010745D01*
X001427Y010745D01*
X001353Y010757D01*
X001281Y010780D01*
X001213Y010814D01*
X001152Y010859D01*
X001099Y010912D01*
X001054Y010973D01*
X001020Y011041D01*
X000997Y011113D01*
X000985Y011187D01*
X000985Y011205D01*
X001705Y011205D01*
X001705Y011245D01*
X001705Y011705D01*
X001427Y011705D01*
X001353Y011693D01*
X001281Y011670D01*
X001213Y011636D01*
X001152Y011591D01*
X001099Y011538D01*
X001054Y011477D01*
X001020Y011409D01*
X000997Y011337D01*
X000985Y011263D01*
X000985Y011245D01*
X001705Y011245D01*
X001745Y011245D01*
X001745Y011705D01*
X002023Y011705D01*
X002097Y011693D01*
X002169Y011670D01*
X002195Y011657D01*
X002195Y011733D01*
X002128Y011705D01*
X001322Y011705D01*
X001130Y011784D01*
X000984Y011930D01*
X000905Y012122D01*
X000905Y012328D01*
X000984Y012520D01*
X001130Y012666D01*
X001273Y012725D01*
X001130Y012784D01*
X000984Y012930D01*
X000905Y013122D01*
X000905Y013328D01*
X000984Y013520D01*
X001130Y013666D01*
X001273Y013725D01*
X001130Y013784D01*
X000984Y013930D01*
X000905Y014122D01*
X000905Y014328D01*
X000984Y014520D01*
X001130Y014666D01*
X001322Y014745D01*
X001482Y014745D01*
X001488Y014759D01*
X001634Y014905D01*
X001584Y014905D01*
X001312Y014978D01*
X001068Y015119D01*
X000869Y015318D01*
X000728Y015562D01*
X000655Y015834D01*
X000655Y016116D01*
X000728Y016388D01*
X000869Y016632D01*
X001068Y016831D01*
X001312Y016972D01*
X001584Y017045D01*
X001866Y017045D01*
X002138Y016972D01*
X002382Y016831D01*
X002581Y016632D01*
X002722Y016388D01*
X002795Y016116D01*
X002795Y015834D01*
X002722Y015562D01*
X002581Y015318D01*
X002393Y015130D01*
X003484Y015130D01*
X003634Y015280D01*
X003534Y015380D01*
X003455Y015572D01*
X003455Y016378D01*
X003534Y016570D01*
X003680Y016716D01*
X003728Y016736D01*
X003738Y016759D01*
X004113Y017134D01*
X004191Y017212D01*
X004294Y017255D01*
X011406Y017255D01*
X011509Y017212D01*
X011634Y017087D01*
X011712Y017009D01*
X011722Y016986D01*
X011770Y016966D01*
X011916Y016820D01*
X011975Y016677D01*
X012034Y016820D01*
X012180Y016966D01*
X012372Y017045D01*
X012578Y017045D01*
X012770Y016966D01*
X012916Y016820D01*
X012995Y016628D01*
X012995Y015822D01*
X012916Y015630D01*
X012770Y015484D01*
X012755Y015478D01*
X012755Y015294D01*
X012727Y015227D01*
X012733Y015230D01*
X012773Y015250D01*
X012784Y015251D01*
X012794Y015255D01*
X012839Y015255D01*
X012884Y015258D01*
X012895Y015255D01*
X013660Y015255D01*
X013534Y015380D01*
X013455Y015572D01*
X013455Y016378D01*
X013534Y016570D01*
X013680Y016716D01*
X013872Y016795D01*
X014078Y016795D01*
X014270Y016716D01*
X014416Y016570D01*
X014475Y016427D01*
X014534Y016570D01*
X014680Y016716D01*
X014872Y016795D01*
X015078Y016795D01*
X015270Y016716D01*
X015416Y016570D01*
X015475Y016427D01*
X015534Y016570D01*
X015680Y016716D01*
X015872Y016795D01*
X016078Y016795D01*
X016270Y016716D01*
X016416Y016570D01*
X016495Y016378D01*
X016495Y015572D01*
X016416Y015380D01*
X016270Y015234D01*
X016078Y015155D01*
X015941Y015155D01*
X015966Y015130D01*
X016281Y015130D01*
X016384Y015087D01*
X016634Y014837D01*
X016712Y014759D01*
X016747Y014676D01*
X016776Y014705D01*
X017174Y014705D01*
X017429Y014450D01*
X017441Y014462D01*
X017464Y014472D01*
X017484Y014520D01*
X017630Y014666D01*
X017822Y014745D01*
X018628Y014745D01*
X018820Y014666D01*
X018966Y014520D01*
X019045Y014328D01*
X019045Y014122D01*
X018966Y013930D01*
X018820Y013784D01*
X018677Y013725D01*
X018820Y013666D01*
X018966Y013520D01*
X019045Y013328D01*
X019045Y013122D01*
X018966Y012930D01*
X018820Y012784D01*
X018677Y012725D01*
X018820Y012666D01*
X018966Y012520D01*
X019045Y012328D01*
X019045Y012122D01*
X018966Y011930D01*
X018820Y011784D01*
X018628Y011705D01*
X017822Y011705D01*
X017630Y011784D01*
X017484Y011930D01*
X017448Y012019D01*
X017174Y011745D01*
X017101Y011745D01*
X017634Y011212D01*
X017641Y011205D01*
X017693Y011257D01*
X017870Y011330D01*
X018580Y011330D01*
X018757Y011257D01*
X018892Y011122D01*
X018965Y010945D01*
X018965Y010755D01*
X018892Y010578D01*
X018757Y010443D01*
X018683Y010413D01*
X018757Y010382D01*
X018892Y010247D01*
X018965Y010070D01*
X018965Y009880D01*
X018892Y009703D01*
X018757Y009568D01*
X018580Y009495D01*
X017870Y009495D01*
X017755Y009542D01*
X017755Y009184D01*
X018026Y009455D01*
X018424Y009455D01*
X018705Y009174D01*
X018705Y008776D01*
X018424Y008495D01*
X018026Y008495D01*
X017755Y008766D01*
X017755Y008341D01*
X017834Y008262D01*
X018026Y008455D01*
X018424Y008455D01*
X018705Y008174D01*
X018705Y007975D01*
X019325Y007975D01*
X019325Y017356D01*
X000560Y017356D01*
X000560Y017283D02*
X019325Y017283D01*
X019325Y017164D02*
X011557Y017164D01*
X011675Y017046D02*
X019325Y017046D01*
X019325Y016927D02*
X018716Y016927D01*
X018638Y016972D02*
X018366Y017045D01*
X018084Y017045D01*
X017812Y016972D01*
X017568Y016831D01*
X017369Y016632D01*
X017228Y016388D01*
X017155Y016116D01*
X017155Y015834D01*
X017228Y015562D01*
X017369Y015318D01*
X017568Y015119D01*
X017812Y014978D01*
X018084Y014905D01*
X018366Y014905D01*
X018638Y014978D01*
X018882Y015119D01*
X019081Y015318D01*
X019222Y015562D01*
X019295Y015834D01*
X019295Y016116D01*
X019222Y016388D01*
X019081Y016632D01*
X018882Y016831D01*
X018638Y016972D01*
X018905Y016809D02*
X019325Y016809D01*
X019325Y016690D02*
X019023Y016690D01*
X019116Y016572D02*
X019325Y016572D01*
X019325Y016453D02*
X019185Y016453D01*
X019236Y016335D02*
X019325Y016335D01*
X019325Y016216D02*
X019268Y016216D01*
X019295Y016098D02*
X019325Y016098D01*
X019325Y015979D02*
X019295Y015979D01*
X019295Y015861D02*
X019325Y015861D01*
X019325Y015742D02*
X019270Y015742D01*
X019239Y015624D02*
X019325Y015624D01*
X019325Y015505D02*
X019189Y015505D01*
X019121Y015387D02*
X019325Y015387D01*
X019325Y015268D02*
X019031Y015268D01*
X018913Y015150D02*
X019325Y015150D01*
X019325Y015031D02*
X018730Y015031D01*
X018394Y014913D02*
X019325Y014913D01*
X019325Y014794D02*
X016677Y014794D01*
X016558Y014913D02*
X018056Y014913D01*
X017720Y015031D02*
X016440Y015031D01*
X016225Y014850D02*
X016475Y014600D01*
X016475Y011975D01*
X017475Y010975D01*
X017475Y008225D01*
X017725Y007975D01*
X018225Y007975D01*
X017848Y008277D02*
X017819Y008277D01*
X017755Y008395D02*
X017966Y008395D01*
X018008Y008514D02*
X017755Y008514D01*
X017755Y008632D02*
X017889Y008632D01*
X017771Y008751D02*
X017755Y008751D01*
X017755Y009225D02*
X017796Y009225D01*
X017755Y009343D02*
X017914Y009343D01*
X017755Y009462D02*
X019325Y009462D01*
X019325Y009580D02*
X018769Y009580D01*
X018887Y009699D02*
X019325Y009699D01*
X019325Y009817D02*
X018939Y009817D01*
X018965Y009936D02*
X019325Y009936D01*
X019325Y010054D02*
X018965Y010054D01*
X018923Y010173D02*
X019325Y010173D01*
X019325Y010291D02*
X018848Y010291D01*
X018690Y010410D02*
X019325Y010410D01*
X019325Y010528D02*
X018842Y010528D01*
X018920Y010647D02*
X019325Y010647D01*
X019325Y010765D02*
X018965Y010765D01*
X018965Y010884D02*
X019325Y010884D01*
X019325Y011002D02*
X018942Y011002D01*
X018892Y011121D02*
X019325Y011121D01*
X019325Y011239D02*
X018775Y011239D01*
X019325Y011358D02*
X017488Y011358D01*
X017370Y011476D02*
X019325Y011476D01*
X019325Y011595D02*
X017251Y011595D01*
X017133Y011713D02*
X017802Y011713D01*
X017583Y011832D02*
X017260Y011832D01*
X017379Y011950D02*
X017476Y011950D01*
X016975Y012225D02*
X017475Y012725D01*
X017475Y014100D01*
X017600Y014225D01*
X018225Y014225D01*
X018683Y013728D02*
X019325Y013728D01*
X019325Y013846D02*
X018881Y013846D01*
X018980Y013965D02*
X019325Y013965D01*
X019325Y014083D02*
X019029Y014083D01*
X019045Y014202D02*
X019325Y014202D01*
X019325Y014320D02*
X019045Y014320D01*
X018999Y014439D02*
X019325Y014439D01*
X019325Y014557D02*
X018928Y014557D01*
X018796Y014676D02*
X019325Y014676D01*
X019325Y013609D02*
X018876Y013609D01*
X018978Y013491D02*
X019325Y013491D01*
X019325Y013372D02*
X019027Y013372D01*
X019045Y013254D02*
X019325Y013254D01*
X019325Y013135D02*
X019045Y013135D01*
X019001Y013017D02*
X019325Y013017D01*
X019325Y012898D02*
X018933Y012898D01*
X018808Y012780D02*
X019325Y012780D01*
X019325Y012661D02*
X018824Y012661D01*
X018943Y012543D02*
X019325Y012543D01*
X019325Y012424D02*
X019005Y012424D01*
X019045Y012306D02*
X019325Y012306D01*
X019325Y012187D02*
X019045Y012187D01*
X019023Y012069D02*
X019325Y012069D01*
X019325Y011950D02*
X018974Y011950D01*
X018867Y011832D02*
X019325Y011832D01*
X019325Y011713D02*
X018648Y011713D01*
X018225Y010850D02*
X018225Y009975D01*
X018536Y009343D02*
X019325Y009343D01*
X019325Y009225D02*
X018654Y009225D01*
X018705Y009106D02*
X019325Y009106D01*
X019325Y008988D02*
X018705Y008988D01*
X018705Y008869D02*
X019325Y008869D01*
X019325Y008751D02*
X018679Y008751D01*
X018561Y008632D02*
X019325Y008632D01*
X019325Y008514D02*
X018442Y008514D01*
X018484Y008395D02*
X019325Y008395D01*
X019325Y008277D02*
X018602Y008277D01*
X018705Y008158D02*
X019325Y008158D01*
X019325Y008040D02*
X018705Y008040D01*
X017329Y007975D02*
X017080Y007975D01*
X017080Y008174D01*
X016799Y008455D01*
X016401Y008455D01*
X016313Y008367D01*
X016281Y008380D01*
X016270Y008380D01*
X016261Y008383D01*
X016215Y008380D01*
X015249Y008380D01*
X015049Y008580D01*
X014651Y008580D01*
X014370Y008299D01*
X014370Y007975D01*
X013926Y007975D01*
X013475Y007524D01*
X013475Y006475D01*
X012565Y005565D01*
X012565Y007905D01*
X012666Y008005D01*
X012725Y008148D01*
X012784Y008005D01*
X012930Y007859D01*
X013122Y007780D01*
X013328Y007780D01*
X013520Y007859D01*
X013666Y008005D01*
X013745Y008197D01*
X013745Y009003D01*
X013666Y009195D01*
X013520Y009341D01*
X013505Y009347D01*
X013505Y009531D01*
X013462Y009634D01*
X013401Y009695D01*
X014566Y009695D01*
X014681Y009580D01*
X013485Y009580D01*
X013505Y009462D02*
X014533Y009462D01*
X014651Y009580D02*
X014370Y009299D01*
X014370Y009120D01*
X014830Y009120D01*
X014830Y009080D01*
X014870Y009080D01*
X014870Y009120D01*
X015330Y009120D01*
X015330Y009299D01*
X015134Y009495D01*
X015580Y009495D01*
X015757Y009568D01*
X015892Y009703D01*
X015965Y009880D01*
X015965Y010070D01*
X015892Y010247D01*
X015757Y010382D01*
X015683Y010412D01*
X015737Y010439D01*
X015798Y010484D01*
X015851Y010537D01*
X015896Y010598D01*
X015930Y010666D01*
X015953Y010738D01*
X015965Y010812D01*
X015965Y010830D01*
X015245Y010830D01*
X015245Y010870D01*
X015965Y010870D01*
X015965Y010888D01*
X015953Y010962D01*
X015930Y011034D01*
X015896Y011102D01*
X015851Y011163D01*
X015798Y011216D01*
X015737Y011261D01*
X015669Y011295D01*
X015597Y011318D01*
X015523Y011330D01*
X015384Y011330D01*
X015455Y011401D01*
X015455Y011799D01*
X015174Y012080D01*
X014776Y012080D01*
X014495Y011799D01*
X014495Y011401D01*
X014668Y011228D01*
X014652Y011216D01*
X014599Y011163D01*
X014554Y011102D01*
X014520Y011034D01*
X014497Y010962D01*
X014485Y010888D01*
X014485Y010870D01*
X015205Y010870D01*
X015205Y010830D01*
X014485Y010830D01*
X014485Y010812D01*
X014497Y010738D01*
X014520Y010666D01*
X014554Y010598D01*
X014599Y010537D01*
X014652Y010484D01*
X014713Y010439D01*
X014767Y010412D01*
X014693Y010382D01*
X014566Y010255D01*
X013434Y010255D01*
X013580Y010401D01*
X013580Y010580D01*
X013120Y010580D01*
X013120Y010620D01*
X013580Y010620D01*
X013580Y010691D01*
X013651Y010620D01*
X014049Y010620D01*
X014330Y010901D01*
X014330Y011299D01*
X014049Y011580D01*
X013651Y011580D01*
X013580Y011509D01*
X013580Y011799D01*
X013299Y012080D01*
X012901Y012080D01*
X012880Y012059D01*
X012880Y012109D01*
X012891Y012120D01*
X013174Y012120D01*
X013455Y012401D01*
X013455Y012799D01*
X013259Y012995D01*
X013299Y012995D01*
X013580Y013276D01*
X013580Y013455D01*
X013120Y013455D01*
X013120Y013495D01*
X013580Y013495D01*
X013580Y013566D01*
X013651Y013495D01*
X014049Y013495D01*
X014330Y013776D01*
X014330Y014174D01*
X014309Y014195D01*
X014576Y014195D01*
X014776Y013995D01*
X015059Y013995D01*
X015099Y013955D01*
X014776Y013955D01*
X014495Y013674D01*
X014495Y013276D01*
X014734Y013037D01*
X014495Y012799D01*
X014495Y012401D01*
X014776Y012120D01*
X015174Y012120D01*
X015374Y012320D01*
X015406Y012320D01*
X015495Y012357D01*
X015495Y012026D01*
X015776Y011745D01*
X016174Y011745D01*
X016241Y011813D01*
X017195Y010859D01*
X017195Y008169D01*
X017238Y008066D01*
X017329Y007975D01*
X017265Y008040D02*
X017080Y008040D01*
X017080Y008158D02*
X017200Y008158D01*
X017195Y008277D02*
X016977Y008277D01*
X016859Y008395D02*
X017195Y008395D01*
X017195Y008514D02*
X016817Y008514D01*
X016799Y008495D02*
X017080Y008776D01*
X017080Y009174D01*
X016799Y009455D01*
X016401Y009455D01*
X016120Y009174D01*
X016120Y008776D01*
X016401Y008495D01*
X016799Y008495D01*
X016936Y008632D02*
X017195Y008632D01*
X017195Y008751D02*
X017054Y008751D01*
X017080Y008869D02*
X017195Y008869D01*
X017195Y008988D02*
X017080Y008988D01*
X017080Y009106D02*
X017195Y009106D01*
X017195Y009225D02*
X017029Y009225D01*
X016911Y009343D02*
X017195Y009343D01*
X017195Y009462D02*
X015167Y009462D01*
X015286Y009343D02*
X016289Y009343D01*
X016171Y009225D02*
X015330Y009225D01*
X015330Y009080D02*
X014870Y009080D01*
X014870Y008620D01*
X015049Y008620D01*
X015330Y008901D01*
X015330Y009080D01*
X015330Y008988D02*
X016120Y008988D01*
X016120Y009106D02*
X014870Y009106D01*
X014830Y009106D02*
X013703Y009106D01*
X013745Y008988D02*
X014370Y008988D01*
X014370Y008901D02*
X014370Y009080D01*
X014830Y009080D01*
X014830Y008620D01*
X014651Y008620D01*
X014370Y008901D01*
X014402Y008869D02*
X013745Y008869D01*
X013745Y008751D02*
X014521Y008751D01*
X014639Y008632D02*
X013745Y008632D01*
X013745Y008514D02*
X014585Y008514D01*
X014466Y008395D02*
X013745Y008395D01*
X013745Y008277D02*
X014370Y008277D01*
X014370Y008158D02*
X013729Y008158D01*
X013680Y008040D02*
X014370Y008040D01*
X014850Y008100D02*
X016225Y008100D01*
X016600Y007975D01*
X016341Y008395D02*
X015234Y008395D01*
X015115Y008514D02*
X016383Y008514D01*
X016264Y008632D02*
X015061Y008632D01*
X015179Y008751D02*
X016146Y008751D01*
X016120Y008869D02*
X015298Y008869D01*
X014870Y008869D02*
X014830Y008869D01*
X014830Y008751D02*
X014870Y008751D01*
X014870Y008632D02*
X014830Y008632D01*
X014830Y008988D02*
X014870Y008988D01*
X014370Y009225D02*
X013636Y009225D01*
X013514Y009343D02*
X014414Y009343D01*
X014651Y009580D02*
X014681Y009580D01*
X015225Y009975D02*
X012975Y009975D01*
X012600Y010350D01*
X012600Y012225D01*
X012975Y012600D01*
X013455Y012543D02*
X013495Y012543D01*
X013495Y012580D02*
X013495Y012401D01*
X013776Y012120D01*
X013955Y012120D01*
X013955Y012580D01*
X013995Y012580D01*
X013995Y012620D01*
X014455Y012620D01*
X014455Y012799D01*
X014174Y013080D01*
X013995Y013080D01*
X013995Y012620D01*
X013955Y012620D01*
X013955Y013080D01*
X013776Y013080D01*
X013495Y012799D01*
X013495Y012620D01*
X013955Y012620D01*
X013955Y012580D01*
X013495Y012580D01*
X013495Y012661D02*
X013455Y012661D01*
X013455Y012780D02*
X013495Y012780D01*
X013594Y012898D02*
X013356Y012898D01*
X013320Y013017D02*
X013713Y013017D01*
X013557Y013254D02*
X014518Y013254D01*
X014495Y013372D02*
X013580Y013372D01*
X013439Y013135D02*
X014636Y013135D01*
X014713Y013017D02*
X014237Y013017D01*
X014356Y012898D02*
X014594Y012898D01*
X014495Y012780D02*
X014455Y012780D01*
X014455Y012661D02*
X014495Y012661D01*
X014455Y012580D02*
X013995Y012580D01*
X013995Y012120D01*
X014174Y012120D01*
X014455Y012401D01*
X014455Y012580D01*
X014455Y012543D02*
X014495Y012543D01*
X014495Y012424D02*
X014455Y012424D01*
X014359Y012306D02*
X014591Y012306D01*
X014709Y012187D02*
X014241Y012187D01*
X013995Y012187D02*
X013955Y012187D01*
X013955Y012306D02*
X013995Y012306D01*
X013995Y012424D02*
X013955Y012424D01*
X013955Y012543D02*
X013995Y012543D01*
X013995Y012661D02*
X013955Y012661D01*
X013955Y012780D02*
X013995Y012780D01*
X013995Y012898D02*
X013955Y012898D01*
X013955Y013017D02*
X013995Y013017D01*
X014163Y013609D02*
X014495Y013609D01*
X014495Y013491D02*
X013120Y013491D01*
X013100Y013475D02*
X013225Y013475D01*
X013080Y013491D02*
X012209Y013491D01*
X012215Y013609D02*
X012620Y013609D01*
X012674Y013728D02*
X012202Y013728D01*
X012219Y013846D02*
X012792Y013846D01*
X012813Y014083D02*
X012454Y014083D01*
X012353Y013965D02*
X013370Y013965D01*
X013120Y013846D02*
X013080Y013846D01*
X013080Y013728D02*
X013120Y013728D01*
X013120Y013609D02*
X013080Y013609D01*
X012620Y013372D02*
X012160Y013372D01*
X012067Y013254D02*
X012643Y013254D01*
X012761Y013135D02*
X011867Y013135D01*
X011984Y013017D02*
X012713Y013017D01*
X012594Y012898D02*
X012116Y012898D01*
X012180Y012780D02*
X012495Y012780D01*
X012495Y012661D02*
X012215Y012661D01*
X012215Y012543D02*
X012495Y012543D01*
X012403Y012424D02*
X012182Y012424D01*
X012119Y012306D02*
X012330Y012306D01*
X012320Y012187D02*
X011992Y012187D01*
X011858Y012069D02*
X012320Y012069D01*
X012320Y011950D02*
X012064Y011950D01*
X012159Y011832D02*
X012320Y011832D01*
X012320Y011713D02*
X012208Y011713D01*
X012215Y011595D02*
X012320Y011595D01*
X012320Y011476D02*
X012203Y011476D01*
X012154Y011358D02*
X012320Y011358D01*
X012320Y011239D02*
X012053Y011239D01*
X011832Y011121D02*
X012320Y011121D01*
X012320Y011002D02*
X011273Y011002D01*
X011155Y010884D02*
X012320Y010884D01*
X012320Y010765D02*
X011130Y010765D01*
X011232Y010647D02*
X012320Y010647D01*
X012320Y010528D02*
X011330Y010528D01*
X011330Y010410D02*
X012320Y010410D01*
X012321Y010291D02*
X011330Y010291D01*
X011330Y010173D02*
X012381Y010173D01*
X012500Y010054D02*
X011233Y010054D01*
X011160Y009936D02*
X012618Y009936D01*
X012737Y009817D02*
X011279Y009817D01*
X011225Y009475D02*
X011725Y009475D01*
X013225Y009475D01*
X013225Y008600D01*
X012770Y008040D02*
X012680Y008040D01*
X012581Y007921D02*
X012869Y007921D01*
X013067Y007803D02*
X012565Y007803D01*
X012565Y007684D02*
X013635Y007684D01*
X013753Y007803D02*
X013383Y007803D01*
X013581Y007921D02*
X013872Y007921D01*
X013516Y007566D02*
X012565Y007566D01*
X012565Y007447D02*
X013475Y007447D01*
X013475Y007329D02*
X012565Y007329D01*
X012565Y007210D02*
X013475Y007210D01*
X013475Y007092D02*
X012565Y007092D01*
X012565Y006973D02*
X013475Y006973D01*
X013475Y006855D02*
X012565Y006855D01*
X012565Y006736D02*
X013475Y006736D01*
X013475Y006618D02*
X012565Y006618D01*
X012565Y006499D02*
X013475Y006499D01*
X013381Y006381D02*
X012565Y006381D01*
X012565Y006262D02*
X013262Y006262D01*
X013144Y006144D02*
X012565Y006144D01*
X012565Y006025D02*
X013025Y006025D01*
X012907Y005907D02*
X012565Y005907D01*
X012565Y005788D02*
X012788Y005788D01*
X012670Y005670D02*
X012565Y005670D01*
X011725Y005975D02*
X011475Y005725D01*
X009350Y005725D01*
X008510Y005670D02*
X008260Y005670D01*
X008260Y005619D02*
X008260Y005831D01*
X008179Y006028D01*
X008028Y006179D01*
X007831Y006260D01*
X007619Y006260D01*
X007422Y006179D01*
X007271Y006028D01*
X007190Y005831D01*
X007190Y005619D01*
X007271Y005422D01*
X007422Y005271D01*
X007488Y005244D01*
X007190Y004947D01*
X007190Y004745D01*
X007705Y004745D01*
X007705Y004705D01*
X007190Y004705D01*
X007190Y004503D01*
X007503Y004190D01*
X007705Y004190D01*
X007705Y004705D01*
X007745Y004705D01*
X007745Y004745D01*
X008260Y004745D01*
X008260Y004947D01*
X007962Y005244D01*
X008028Y005271D01*
X008179Y005422D01*
X008260Y005619D01*
X008232Y005551D02*
X008510Y005551D01*
X008510Y005433D02*
X008183Y005433D01*
X008071Y005314D02*
X008510Y005314D01*
X008510Y005196D02*
X008011Y005196D01*
X008130Y005077D02*
X008510Y005077D01*
X008510Y004959D02*
X008248Y004959D01*
X008260Y004840D02*
X008510Y004840D01*
X008510Y004722D02*
X007745Y004722D01*
X007745Y004705D02*
X008260Y004705D01*
X008260Y004503D01*
X007947Y004190D01*
X007745Y004190D01*
X007745Y004705D01*
X007705Y004722D02*
X004752Y004722D01*
X004768Y004683D02*
X004704Y004837D01*
X004587Y004954D01*
X004433Y005018D01*
X004267Y005018D01*
X004113Y004954D01*
X004099Y004940D01*
X002420Y004940D01*
X002320Y005041D01*
X002173Y005101D01*
X002225Y005118D01*
X002298Y005155D01*
X002364Y005203D01*
X002422Y005261D01*
X002470Y005327D01*
X002507Y005400D01*
X002532Y005478D01*
X002545Y005559D01*
X002545Y005560D01*
X001765Y005560D01*
X001765Y005640D01*
X001685Y005640D01*
X001685Y006120D01*
X001384Y006120D01*
X001303Y006107D01*
X001225Y006082D01*
X001152Y006045D01*
X001086Y005997D01*
X001028Y005939D01*
X000980Y005873D01*
X000943Y005800D01*
X000918Y005722D01*
X000905Y005641D01*
X000905Y005640D01*
X001685Y005640D01*
X001685Y005560D01*
X000905Y005560D01*
X000905Y005559D01*
X000918Y005478D01*
X000943Y005400D01*
X000980Y005327D01*
X001028Y005261D01*
X001086Y005203D01*
X001152Y005155D01*
X001225Y005118D01*
X001277Y005101D01*
X001130Y005041D01*
X000984Y004895D01*
X000905Y004703D01*
X000905Y004497D01*
X000984Y004305D01*
X001130Y004159D01*
X001273Y004100D01*
X001130Y004041D01*
X000984Y003895D01*
X000905Y003703D01*
X000905Y003497D01*
X000984Y003305D01*
X001130Y003159D01*
X001322Y003080D01*
X002128Y003080D01*
X002320Y003159D01*
X002466Y003305D01*
X002545Y003497D01*
X002545Y003703D01*
X002466Y003895D01*
X002320Y004041D01*
X002177Y004100D01*
X002320Y004159D01*
X002420Y004260D01*
X004099Y004260D01*
X004113Y004246D01*
X004267Y004182D01*
X004433Y004182D01*
X004587Y004246D01*
X004704Y004363D01*
X004768Y004517D01*
X004768Y004683D01*
X004768Y004603D02*
X005246Y004603D01*
X005232Y004599D02*
X005143Y004553D01*
X005063Y004495D01*
X004993Y004425D01*
X004934Y004344D01*
X004889Y004255D01*
X004858Y004161D01*
X004843Y004062D01*
X004843Y003660D01*
X005415Y003660D01*
X005415Y004643D01*
X005327Y004629D01*
X005232Y004599D01*
X005415Y004603D02*
X005535Y004603D01*
X005535Y004643D02*
X005535Y003660D01*
X006107Y003660D01*
X006107Y004062D01*
X006092Y004161D01*
X006061Y004255D01*
X006016Y004344D01*
X005957Y004425D01*
X005887Y004495D01*
X005807Y004553D01*
X005718Y004599D01*
X005623Y004629D01*
X005535Y004643D01*
X005535Y004485D02*
X005415Y004485D01*
X005415Y004366D02*
X005535Y004366D01*
X005535Y004248D02*
X005415Y004248D01*
X005415Y004129D02*
X005535Y004129D01*
X005535Y004011D02*
X005415Y004011D01*
X005415Y003892D02*
X005535Y003892D01*
X005535Y003774D02*
X005415Y003774D01*
X005415Y003660D02*
X005535Y003660D01*
X005535Y003540D01*
X006107Y003540D01*
X006107Y003138D01*
X006092Y003039D01*
X006061Y002945D01*
X006016Y002856D01*
X005972Y002795D01*
X006078Y002795D01*
X006270Y002716D01*
X006416Y002570D01*
X006495Y002378D01*
X006495Y001572D01*
X006416Y001380D01*
X006270Y001234D01*
X006078Y001155D01*
X005872Y001155D01*
X005680Y001234D01*
X005534Y001380D01*
X005474Y001527D01*
X005457Y001475D01*
X005420Y001402D01*
X005372Y001336D01*
X005314Y001278D01*
X005248Y001230D01*
X005175Y001193D01*
X005097Y001168D01*
X005016Y001155D01*
X005015Y001155D01*
X005015Y001935D01*
X004935Y001935D01*
X004935Y001155D01*
X004934Y001155D01*
X004853Y001168D01*
X004775Y001193D01*
X004702Y001230D01*
X004636Y001278D01*
X004578Y001336D01*
X004530Y001402D01*
X004493Y001475D01*
X004476Y001527D01*
X004416Y001380D01*
X004270Y001234D01*
X004078Y001155D01*
X003872Y001155D01*
X003680Y001234D01*
X003534Y001380D01*
X003455Y001572D01*
X003455Y002378D01*
X003534Y002570D01*
X003680Y002716D01*
X003872Y002795D01*
X004078Y002795D01*
X004270Y002716D01*
X004416Y002570D01*
X004476Y002423D01*
X004493Y002475D01*
X004530Y002548D01*
X004578Y002614D01*
X004636Y002672D01*
X004702Y002720D01*
X004775Y002757D01*
X004853Y002782D01*
X004934Y002795D01*
X004935Y002795D01*
X004935Y002015D01*
X005015Y002015D01*
X005015Y002753D01*
X004993Y002775D01*
X004934Y002856D01*
X004889Y002945D01*
X004858Y003039D01*
X004843Y003138D01*
X004843Y003540D01*
X005415Y003540D01*
X005415Y003660D01*
X005415Y003655D02*
X004205Y003655D01*
X004205Y003537D02*
X004843Y003537D01*
X004843Y003418D02*
X004205Y003418D01*
X004205Y003401D02*
X003924Y003120D01*
X003526Y003120D01*
X003245Y003401D01*
X003245Y003799D01*
X003526Y004080D01*
X003924Y004080D01*
X004205Y003799D01*
X004205Y003401D01*
X004103Y003300D02*
X004843Y003300D01*
X004843Y003181D02*
X003985Y003181D01*
X003465Y003181D02*
X002341Y003181D01*
X002460Y003300D02*
X003347Y003300D01*
X003245Y003418D02*
X002512Y003418D01*
X002545Y003537D02*
X003245Y003537D01*
X003245Y003655D02*
X002545Y003655D01*
X002516Y003774D02*
X003245Y003774D01*
X003338Y003892D02*
X002467Y003892D01*
X002350Y004011D02*
X003457Y004011D01*
X003993Y004011D02*
X004843Y004011D01*
X004853Y004129D02*
X002247Y004129D01*
X002408Y004248D02*
X004111Y004248D01*
X004112Y003892D02*
X004843Y003892D01*
X004843Y003774D02*
X004205Y003774D01*
X004589Y004248D02*
X004886Y004248D01*
X004950Y004366D02*
X004706Y004366D01*
X004755Y004485D02*
X005053Y004485D01*
X004701Y004840D02*
X007190Y004840D01*
X007202Y004959D02*
X004577Y004959D01*
X004123Y004959D02*
X002402Y004959D01*
X002232Y005077D02*
X007320Y005077D01*
X007439Y005196D02*
X003999Y005196D01*
X003924Y005120D02*
X004205Y005401D01*
X004205Y005580D01*
X003745Y005580D01*
X003745Y005620D01*
X003705Y005620D01*
X003705Y006080D01*
X003526Y006080D01*
X003245Y005799D01*
X003245Y005620D01*
X003705Y005620D01*
X003705Y005580D01*
X003245Y005580D01*
X003245Y005401D01*
X003526Y005120D01*
X003705Y005120D01*
X003705Y005580D01*
X003745Y005580D01*
X003745Y005120D01*
X003924Y005120D01*
X003745Y005196D02*
X003705Y005196D01*
X003705Y005314D02*
X003745Y005314D01*
X003745Y005433D02*
X003705Y005433D01*
X003705Y005551D02*
X003745Y005551D01*
X003745Y005620D02*
X004205Y005620D01*
X004205Y005799D01*
X003924Y006080D01*
X003745Y006080D01*
X003745Y005620D01*
X003745Y005670D02*
X003705Y005670D01*
X003705Y005788D02*
X003745Y005788D01*
X003745Y005907D02*
X003705Y005907D01*
X003705Y006025D02*
X003745Y006025D01*
X003979Y006025D02*
X007270Y006025D01*
X007221Y005907D02*
X004097Y005907D01*
X004205Y005788D02*
X007190Y005788D01*
X007190Y005670D02*
X004205Y005670D01*
X004205Y005551D02*
X007218Y005551D01*
X007267Y005433D02*
X004205Y005433D01*
X004118Y005314D02*
X007379Y005314D01*
X007190Y004603D02*
X005704Y004603D01*
X005897Y004485D02*
X007209Y004485D01*
X007327Y004366D02*
X006000Y004366D01*
X006064Y004248D02*
X007446Y004248D01*
X007705Y004248D02*
X007745Y004248D01*
X007745Y004366D02*
X007705Y004366D01*
X007705Y004485D02*
X007745Y004485D01*
X007745Y004603D02*
X007705Y004603D01*
X008004Y004248D02*
X008142Y004248D01*
X008123Y004366D02*
X008260Y004366D01*
X008241Y004485D02*
X008379Y004485D01*
X008497Y004603D02*
X008260Y004603D01*
X008023Y004129D02*
X006097Y004129D01*
X006107Y004011D02*
X007905Y004011D01*
X007786Y003892D02*
X006107Y003892D01*
X006107Y003774D02*
X007668Y003774D01*
X007549Y003655D02*
X005535Y003655D01*
X005535Y003540D02*
X005535Y002570D01*
X005534Y002570D01*
X005474Y002423D01*
X005457Y002475D01*
X005420Y002548D01*
X005413Y002557D01*
X005415Y002557D01*
X005415Y003540D01*
X005535Y003540D01*
X005535Y003537D02*
X005415Y003537D01*
X005415Y003418D02*
X005535Y003418D01*
X005535Y003300D02*
X005415Y003300D01*
X005415Y003181D02*
X005535Y003181D01*
X005535Y003063D02*
X005415Y003063D01*
X005415Y002944D02*
X005535Y002944D01*
X005535Y002826D02*
X005415Y002826D01*
X005415Y002707D02*
X005535Y002707D01*
X005535Y002589D02*
X005415Y002589D01*
X005458Y002470D02*
X005493Y002470D01*
X005015Y002470D02*
X004935Y002470D01*
X004935Y002352D02*
X005015Y002352D01*
X005015Y002233D02*
X004935Y002233D01*
X004935Y002115D02*
X005015Y002115D01*
X005015Y001878D02*
X004935Y001878D01*
X004935Y001759D02*
X005015Y001759D01*
X005015Y001641D02*
X004935Y001641D01*
X004935Y001522D02*
X005015Y001522D01*
X005015Y001404D02*
X004935Y001404D01*
X004935Y001285D02*
X005015Y001285D01*
X005015Y001167D02*
X004935Y001167D01*
X004861Y001167D02*
X004106Y001167D01*
X004320Y001285D02*
X004630Y001285D01*
X004530Y001404D02*
X004425Y001404D01*
X004474Y001522D02*
X004478Y001522D01*
X005089Y001167D02*
X005844Y001167D01*
X005630Y001285D02*
X005320Y001285D01*
X005420Y001404D02*
X005525Y001404D01*
X005476Y001522D02*
X005472Y001522D01*
X006106Y001167D02*
X007610Y001167D01*
X007840Y001167D02*
X008610Y001167D01*
X008840Y001167D02*
X009600Y001167D01*
X009600Y001285D02*
X009063Y001285D01*
X009171Y001404D02*
X009600Y001404D01*
X009600Y001522D02*
X009220Y001522D01*
X009242Y001641D02*
X009600Y001641D01*
X009600Y001759D02*
X009242Y001759D01*
X009242Y001878D02*
X009600Y001878D01*
X009600Y001996D02*
X009242Y001996D01*
X009242Y002115D02*
X009600Y002115D01*
X009600Y002233D02*
X009242Y002233D01*
X009242Y002352D02*
X009600Y002352D01*
X009600Y002470D02*
X009202Y002470D01*
X009139Y002589D02*
X009600Y002589D01*
X009600Y002707D02*
X009065Y002707D01*
X009065Y002826D02*
X009600Y002826D01*
X009600Y002944D02*
X009065Y002944D01*
X009065Y003063D02*
X009600Y003063D01*
X009600Y003181D02*
X009065Y003181D01*
X009065Y003300D02*
X009600Y003300D01*
X009593Y003418D02*
X009065Y003418D01*
X009142Y003537D02*
X009529Y003537D01*
X007434Y003537D02*
X006107Y003537D01*
X006107Y003181D02*
X007385Y003181D01*
X007385Y003063D02*
X006096Y003063D01*
X006061Y002944D02*
X007385Y002944D01*
X007385Y002826D02*
X005994Y002826D01*
X006278Y002707D02*
X007385Y002707D01*
X007311Y002589D02*
X006397Y002589D01*
X006457Y002470D02*
X007248Y002470D01*
X007208Y002352D02*
X006495Y002352D01*
X006495Y002233D02*
X007208Y002233D01*
X007208Y002115D02*
X006495Y002115D01*
X006495Y001996D02*
X007208Y001996D01*
X007208Y001878D02*
X006495Y001878D01*
X006495Y001759D02*
X007208Y001759D01*
X007208Y001641D02*
X006495Y001641D01*
X006474Y001522D02*
X007230Y001522D01*
X007279Y001404D02*
X006425Y001404D01*
X006320Y001285D02*
X007387Y001285D01*
X008063Y001285D02*
X008387Y001285D01*
X008279Y001404D02*
X008171Y001404D01*
X008220Y001522D02*
X008230Y001522D01*
X009600Y001048D02*
X002259Y001048D01*
X002138Y000978D02*
X002382Y001119D01*
X002581Y001318D01*
X002722Y001562D01*
X002795Y001834D01*
X002795Y002116D01*
X002722Y002388D01*
X002581Y002632D01*
X002382Y002831D01*
X002138Y002972D01*
X001866Y003045D01*
X001584Y003045D01*
X001312Y002972D01*
X001068Y002831D01*
X000869Y002632D01*
X000728Y002388D01*
X000655Y002116D01*
X000655Y001834D01*
X000728Y001562D01*
X000869Y001318D01*
X001068Y001119D01*
X001312Y000978D01*
X001584Y000905D01*
X001866Y000905D01*
X002138Y000978D01*
X001957Y000930D02*
X009600Y000930D01*
X009600Y000811D02*
X000560Y000811D01*
X000560Y000693D02*
X009600Y000693D01*
X009600Y000574D02*
X000560Y000574D01*
X000560Y000930D02*
X001493Y000930D01*
X001191Y001048D02*
X000560Y001048D01*
X000560Y001167D02*
X001020Y001167D01*
X000902Y001285D02*
X000560Y001285D01*
X000560Y001404D02*
X000819Y001404D01*
X000751Y001522D02*
X000560Y001522D01*
X000560Y001641D02*
X000707Y001641D01*
X000675Y001759D02*
X000560Y001759D01*
X000560Y001878D02*
X000655Y001878D01*
X000655Y001996D02*
X000560Y001996D01*
X000560Y002115D02*
X000655Y002115D01*
X000686Y002233D02*
X000560Y002233D01*
X000560Y002352D02*
X000718Y002352D01*
X000775Y002470D02*
X000560Y002470D01*
X000560Y002589D02*
X000844Y002589D01*
X000944Y002707D02*
X000560Y002707D01*
X000560Y002826D02*
X001062Y002826D01*
X001263Y002944D02*
X000560Y002944D01*
X000560Y003063D02*
X004854Y003063D01*
X004889Y002944D02*
X002187Y002944D01*
X002388Y002826D02*
X004956Y002826D01*
X004935Y002707D02*
X005015Y002707D01*
X005015Y002589D02*
X004935Y002589D01*
X004685Y002707D02*
X004278Y002707D01*
X004397Y002589D02*
X004560Y002589D01*
X004492Y002470D02*
X004457Y002470D01*
X003672Y002707D02*
X002506Y002707D01*
X002606Y002589D02*
X003553Y002589D01*
X003493Y002470D02*
X002675Y002470D01*
X002732Y002352D02*
X003455Y002352D01*
X003455Y002233D02*
X002764Y002233D01*
X002795Y002115D02*
X003455Y002115D01*
X003455Y001996D02*
X002795Y001996D01*
X002795Y001878D02*
X003455Y001878D01*
X003455Y001759D02*
X002775Y001759D01*
X002743Y001641D02*
X003455Y001641D01*
X003476Y001522D02*
X002699Y001522D01*
X002631Y001404D02*
X003525Y001404D01*
X003630Y001285D02*
X002548Y001285D01*
X002430Y001167D02*
X003844Y001167D01*
X001109Y003181D02*
X000560Y003181D01*
X000560Y003300D02*
X000990Y003300D01*
X000938Y003418D02*
X000560Y003418D01*
X000560Y003537D02*
X000905Y003537D01*
X000905Y003655D02*
X000560Y003655D01*
X000560Y003774D02*
X000934Y003774D01*
X000983Y003892D02*
X000560Y003892D01*
X000560Y004011D02*
X001100Y004011D01*
X001203Y004129D02*
X000560Y004129D01*
X000560Y004248D02*
X001042Y004248D01*
X000959Y004366D02*
X000560Y004366D01*
X000560Y004485D02*
X000910Y004485D01*
X000905Y004603D02*
X000560Y004603D01*
X000560Y004722D02*
X000912Y004722D01*
X000962Y004840D02*
X000560Y004840D01*
X000560Y004959D02*
X001048Y004959D01*
X001218Y005077D02*
X000560Y005077D01*
X000560Y005196D02*
X001097Y005196D01*
X000990Y005314D02*
X000560Y005314D01*
X000560Y005433D02*
X000933Y005433D01*
X000906Y005551D02*
X000560Y005551D01*
X000560Y005670D02*
X000910Y005670D01*
X000939Y005788D02*
X000560Y005788D01*
X000560Y005907D02*
X001005Y005907D01*
X001125Y006025D02*
X000560Y006025D01*
X000560Y006144D02*
X004215Y006144D01*
X004238Y006121D02*
X004392Y006057D01*
X004558Y006057D01*
X004712Y006121D01*
X004786Y006195D01*
X005406Y006195D01*
X005509Y006238D01*
X005841Y006570D01*
X006164Y006570D01*
X006238Y006496D01*
X006392Y006432D01*
X006558Y006432D01*
X006712Y006496D01*
X006829Y006613D01*
X006893Y006767D01*
X006893Y006933D01*
X006829Y007087D01*
X006712Y007204D01*
X006558Y007268D01*
X006392Y007268D01*
X006238Y007204D01*
X006164Y007130D01*
X005669Y007130D01*
X005566Y007087D01*
X005488Y007009D01*
X005234Y006755D01*
X004786Y006755D01*
X004712Y006829D01*
X004558Y006893D01*
X004447Y006893D01*
X004455Y006901D01*
X004455Y007080D01*
X003995Y007080D01*
X003995Y007120D01*
X003955Y007120D01*
X003955Y007580D01*
X003776Y007580D01*
X003495Y007299D01*
X003495Y007120D01*
X003955Y007120D01*
X003955Y007080D01*
X003495Y007080D01*
X003495Y006901D01*
X003776Y006620D01*
X003955Y006620D01*
X003955Y007080D01*
X003995Y007080D01*
X003995Y006620D01*
X004083Y006620D01*
X004057Y006558D01*
X004057Y006392D01*
X004121Y006238D01*
X004238Y006121D01*
X004111Y006262D02*
X000560Y006262D01*
X000560Y006381D02*
X004062Y006381D01*
X004057Y006499D02*
X000560Y006499D01*
X000560Y006618D02*
X001231Y006618D01*
X001322Y006580D02*
X002128Y006580D01*
X002320Y006659D01*
X002466Y006805D01*
X002545Y006997D01*
X002545Y007203D01*
X002466Y007395D01*
X002320Y007541D01*
X002177Y007600D01*
X002320Y007659D01*
X002466Y007805D01*
X002545Y007997D01*
X002545Y008203D01*
X002466Y008395D01*
X002320Y008541D01*
X002173Y008601D01*
X002225Y008618D01*
X002298Y008655D01*
X002364Y008703D01*
X002422Y008761D01*
X002470Y008827D01*
X002507Y008900D01*
X002532Y008978D01*
X002545Y009059D01*
X002545Y009060D01*
X001765Y009060D01*
X001765Y009140D01*
X001685Y009140D01*
X001685Y009620D01*
X001384Y009620D01*
X001303Y009607D01*
X001225Y009582D01*
X001152Y009545D01*
X001086Y009497D01*
X001028Y009439D01*
X000980Y009373D01*
X000943Y009300D01*
X000918Y009222D01*
X000905Y009141D01*
X000905Y009140D01*
X001685Y009140D01*
X001685Y009060D01*
X000905Y009060D01*
X000905Y009059D01*
X000918Y008978D01*
X000943Y008900D01*
X000980Y008827D01*
X001028Y008761D01*
X001086Y008703D01*
X001152Y008655D01*
X001225Y008618D01*
X001277Y008601D01*
X001130Y008541D01*
X000984Y008395D01*
X000905Y008203D01*
X000905Y007997D01*
X000984Y007805D01*
X001130Y007659D01*
X001273Y007600D01*
X001130Y007541D01*
X000984Y007395D01*
X000905Y007203D01*
X000905Y006997D01*
X000984Y006805D01*
X001130Y006659D01*
X001322Y006580D01*
X001054Y006736D02*
X000560Y006736D01*
X000560Y006855D02*
X000964Y006855D01*
X000915Y006973D02*
X000560Y006973D01*
X000560Y007092D02*
X000905Y007092D01*
X000908Y007210D02*
X000560Y007210D01*
X000560Y007329D02*
X000957Y007329D01*
X001037Y007447D02*
X000560Y007447D01*
X000560Y007566D02*
X001190Y007566D01*
X001106Y007684D02*
X000560Y007684D01*
X000560Y007803D02*
X000987Y007803D01*
X000936Y007921D02*
X000560Y007921D01*
X000560Y008040D02*
X000905Y008040D01*
X000905Y008158D02*
X000560Y008158D01*
X000560Y008277D02*
X000935Y008277D01*
X000985Y008395D02*
X000560Y008395D01*
X000560Y008514D02*
X001103Y008514D01*
X001198Y008632D02*
X000560Y008632D01*
X000560Y008751D02*
X001039Y008751D01*
X000959Y008869D02*
X000560Y008869D01*
X000560Y008988D02*
X000916Y008988D01*
X000919Y009225D02*
X000560Y009225D01*
X000560Y009343D02*
X000965Y009343D01*
X001051Y009462D02*
X000560Y009462D01*
X000560Y009580D02*
X001222Y009580D01*
X001454Y009817D02*
X000560Y009817D01*
X000560Y009699D02*
X002855Y009699D01*
X002974Y009580D02*
X002228Y009580D01*
X002225Y009582D02*
X002147Y009607D01*
X002066Y009620D01*
X001765Y009620D01*
X001765Y009140D01*
X002545Y009140D01*
X002545Y009141D01*
X002532Y009222D01*
X002507Y009300D01*
X002470Y009373D01*
X002422Y009439D01*
X002364Y009497D01*
X002298Y009545D01*
X002225Y009582D01*
X002399Y009462D02*
X003093Y009462D01*
X003211Y009343D02*
X002485Y009343D01*
X002531Y009225D02*
X003348Y009225D01*
X003495Y009106D02*
X001765Y009106D01*
X001685Y009106D02*
X000560Y009106D01*
X000560Y009936D02*
X001336Y009936D01*
X001245Y010054D02*
X000560Y010054D01*
X000560Y010173D02*
X001245Y010173D01*
X001245Y010291D02*
X000560Y010291D01*
X000560Y010410D02*
X001245Y010410D01*
X001349Y010528D02*
X000560Y010528D01*
X000560Y010647D02*
X001468Y010647D01*
X001327Y010765D02*
X000560Y010765D01*
X000560Y010884D02*
X001128Y010884D01*
X001040Y011002D02*
X000560Y011002D01*
X000560Y011121D02*
X000996Y011121D01*
X001003Y011358D02*
X000560Y011358D01*
X000560Y011476D02*
X001054Y011476D01*
X001157Y011595D02*
X000560Y011595D01*
X000560Y011713D02*
X001302Y011713D01*
X001083Y011832D02*
X000560Y011832D01*
X000560Y011950D02*
X000976Y011950D01*
X000927Y012069D02*
X000560Y012069D01*
X000560Y012187D02*
X000905Y012187D01*
X000905Y012306D02*
X000560Y012306D01*
X000560Y012424D02*
X000945Y012424D01*
X001007Y012543D02*
X000560Y012543D01*
X000560Y012661D02*
X001126Y012661D01*
X001142Y012780D02*
X000560Y012780D01*
X000560Y012898D02*
X001017Y012898D01*
X000949Y013017D02*
X000560Y013017D01*
X000560Y013135D02*
X000905Y013135D01*
X000905Y013254D02*
X000560Y013254D01*
X000560Y013372D02*
X000923Y013372D01*
X000972Y013491D02*
X000560Y013491D01*
X000560Y013609D02*
X001074Y013609D01*
X001267Y013728D02*
X000560Y013728D01*
X000560Y013846D02*
X001069Y013846D01*
X000970Y013965D02*
X000560Y013965D01*
X000560Y014083D02*
X000921Y014083D01*
X000905Y014202D02*
X000560Y014202D01*
X000560Y014320D02*
X000905Y014320D01*
X000951Y014439D02*
X000560Y014439D01*
X000560Y014557D02*
X001022Y014557D01*
X001154Y014676D02*
X000560Y014676D01*
X000560Y014794D02*
X001523Y014794D01*
X001556Y014913D02*
X000560Y014913D01*
X000560Y015031D02*
X001220Y015031D01*
X001037Y015150D02*
X000560Y015150D01*
X000560Y015268D02*
X000919Y015268D01*
X000829Y015387D02*
X000560Y015387D01*
X000560Y015505D02*
X000761Y015505D01*
X000711Y015624D02*
X000560Y015624D01*
X000560Y015742D02*
X000680Y015742D01*
X000655Y015861D02*
X000560Y015861D01*
X000560Y015979D02*
X000655Y015979D01*
X000655Y016098D02*
X000560Y016098D01*
X000560Y016216D02*
X000682Y016216D01*
X000714Y016335D02*
X000560Y016335D01*
X000560Y016453D02*
X000765Y016453D01*
X000834Y016572D02*
X000560Y016572D01*
X000560Y016690D02*
X000927Y016690D01*
X001045Y016809D02*
X000560Y016809D01*
X000560Y016927D02*
X001234Y016927D01*
X000560Y017046D02*
X004025Y017046D01*
X004143Y017164D02*
X000560Y017164D01*
X002216Y016927D02*
X003906Y016927D01*
X003788Y016809D02*
X002405Y016809D01*
X002523Y016690D02*
X003655Y016690D01*
X003536Y016572D02*
X002616Y016572D01*
X002685Y016453D02*
X003486Y016453D01*
X003455Y016335D02*
X002736Y016335D01*
X002768Y016216D02*
X003455Y016216D01*
X003455Y016098D02*
X002795Y016098D01*
X002795Y015979D02*
X003455Y015979D01*
X003455Y015861D02*
X002795Y015861D01*
X002770Y015742D02*
X003455Y015742D01*
X003455Y015624D02*
X002739Y015624D01*
X002689Y015505D02*
X003483Y015505D01*
X003532Y015387D02*
X002621Y015387D01*
X002531Y015268D02*
X003622Y015268D01*
X003504Y015150D02*
X002413Y015150D01*
X001975Y014850D02*
X003600Y014850D01*
X003975Y015225D01*
X003975Y015975D01*
X003975Y016600D01*
X004350Y016975D01*
X011350Y016975D01*
X011475Y016850D01*
X011475Y016225D01*
X011475Y015725D01*
X010475Y014725D01*
X010190Y015031D02*
X009690Y015031D01*
X009808Y014913D02*
X010100Y014913D01*
X010121Y014962D02*
X010057Y014808D01*
X010057Y014642D01*
X010121Y014488D01*
X010229Y014380D01*
X010005Y014380D01*
X010005Y014656D01*
X009962Y014759D01*
X009884Y014837D01*
X009277Y015444D01*
X009372Y015405D01*
X009578Y015405D01*
X009770Y015484D01*
X009916Y015630D01*
X009976Y015777D01*
X009993Y015725D01*
X010030Y015652D01*
X010078Y015586D01*
X010136Y015528D01*
X010202Y015480D01*
X010275Y015443D01*
X010353Y015418D01*
X010434Y015405D01*
X010435Y015405D01*
X010435Y016185D01*
X010515Y016185D01*
X010515Y015405D01*
X010516Y015405D01*
X010597Y015418D01*
X010675Y015443D01*
X010748Y015480D01*
X010814Y015528D01*
X010872Y015586D01*
X010920Y015652D01*
X010957Y015725D01*
X010974Y015777D01*
X011020Y015666D01*
X010497Y015143D01*
X010392Y015143D01*
X010238Y015079D01*
X010121Y014962D01*
X010057Y014794D02*
X009927Y014794D01*
X009997Y014676D02*
X010057Y014676D01*
X010092Y014557D02*
X010005Y014557D01*
X010005Y014439D02*
X010170Y014439D01*
X009725Y014600D02*
X009725Y014130D01*
X009715Y013947D01*
X009348Y013600D01*
X008475Y013600D01*
X007850Y013100D02*
X007725Y013225D01*
X007725Y014225D01*
X006975Y014975D01*
X006100Y014975D01*
X005600Y014475D01*
X005600Y013850D01*
X004975Y013225D01*
X004623Y012898D02*
X004327Y012898D01*
X004445Y013017D02*
X004505Y013017D01*
X004495Y013026D02*
X004776Y012745D01*
X005174Y012745D01*
X005455Y013026D01*
X005455Y013309D01*
X005708Y013562D01*
X005695Y013531D01*
X005695Y012624D01*
X005495Y012424D01*
X005495Y012026D01*
X005516Y012005D01*
X005434Y012005D01*
X005455Y012026D01*
X005455Y012424D01*
X005174Y012705D01*
X004776Y012705D01*
X004495Y012424D01*
X004495Y012101D01*
X004455Y012141D01*
X004455Y012424D01*
X004174Y012705D01*
X003776Y012705D01*
X003495Y012424D01*
X003495Y012026D01*
X003776Y011745D01*
X004059Y011745D01*
X004183Y011621D01*
X004058Y011497D01*
X003985Y011320D01*
X003985Y011130D01*
X004058Y010954D01*
X003738Y010634D01*
X003695Y010531D01*
X003695Y010374D01*
X003495Y010174D01*
X003495Y009851D01*
X003205Y010141D01*
X003205Y010424D01*
X002924Y010705D01*
X002601Y010705D01*
X002712Y010816D01*
X002755Y010919D01*
X002755Y011766D01*
X002776Y011745D01*
X003174Y011745D01*
X003455Y012026D01*
X003455Y012424D01*
X003174Y012705D01*
X002776Y012705D01*
X002755Y012684D01*
X002755Y012766D01*
X002776Y012745D01*
X003174Y012745D01*
X003455Y013026D01*
X003455Y013424D01*
X003174Y013705D01*
X002776Y013705D01*
X002755Y013684D01*
X002755Y013766D01*
X002776Y013745D01*
X002955Y013745D01*
X002955Y014205D01*
X002995Y014205D01*
X002995Y014245D01*
X003455Y014245D01*
X003455Y014424D01*
X003309Y014570D01*
X003641Y014570D01*
X003495Y014424D01*
X003495Y014026D01*
X003776Y013745D01*
X004174Y013745D01*
X004374Y013945D01*
X004576Y013945D01*
X004776Y013745D01*
X005099Y013745D01*
X005059Y013705D01*
X004776Y013705D01*
X004495Y013424D01*
X004495Y013026D01*
X004455Y013026D02*
X004174Y012745D01*
X003776Y012745D01*
X003495Y013026D01*
X003495Y013424D01*
X003776Y013705D01*
X004174Y013705D01*
X004455Y013424D01*
X004455Y013026D01*
X004455Y013135D02*
X004495Y013135D01*
X004495Y013254D02*
X004455Y013254D01*
X004455Y013372D02*
X004495Y013372D01*
X004562Y013491D02*
X004388Y013491D01*
X004270Y013609D02*
X004680Y013609D01*
X004675Y013846D02*
X004275Y013846D01*
X003975Y014225D02*
X004975Y014225D01*
X004975Y015975D01*
X006216Y014695D02*
X006391Y014695D01*
X006370Y014674D01*
X006370Y014495D01*
X006830Y014495D01*
X006830Y014455D01*
X006370Y014455D01*
X006370Y014384D01*
X006299Y014455D01*
X005976Y014455D01*
X006216Y014695D01*
X006197Y014676D02*
X006372Y014676D01*
X006370Y014557D02*
X006078Y014557D01*
X006315Y014439D02*
X006370Y014439D01*
X006100Y013975D02*
X006100Y013600D01*
X005975Y013475D01*
X005975Y012225D01*
X005614Y012543D02*
X005336Y012543D01*
X005218Y012661D02*
X005695Y012661D01*
X005695Y012780D02*
X005208Y012780D01*
X005327Y012898D02*
X005695Y012898D01*
X005695Y013017D02*
X005445Y013017D01*
X005455Y013135D02*
X005695Y013135D01*
X005695Y013254D02*
X005455Y013254D01*
X005518Y013372D02*
X005695Y013372D01*
X005695Y013491D02*
X005637Y013491D01*
X005082Y013728D02*
X002755Y013728D01*
X002955Y013846D02*
X002995Y013846D01*
X002995Y013745D02*
X003174Y013745D01*
X003455Y014026D01*
X003455Y014205D01*
X002995Y014205D01*
X002995Y013745D01*
X002995Y013965D02*
X002955Y013965D01*
X002955Y014083D02*
X002995Y014083D01*
X002995Y014202D02*
X002955Y014202D01*
X003275Y013846D02*
X003675Y013846D01*
X003557Y013965D02*
X003393Y013965D01*
X003455Y014083D02*
X003495Y014083D01*
X003495Y014202D02*
X003455Y014202D01*
X003455Y014320D02*
X003495Y014320D01*
X003510Y014439D02*
X003440Y014439D01*
X003322Y014557D02*
X003628Y014557D01*
X003680Y013609D02*
X003270Y013609D01*
X003388Y013491D02*
X003562Y013491D01*
X003495Y013372D02*
X003455Y013372D01*
X003455Y013254D02*
X003495Y013254D01*
X003495Y013135D02*
X003455Y013135D01*
X003445Y013017D02*
X003505Y013017D01*
X003623Y012898D02*
X003327Y012898D01*
X003208Y012780D02*
X003742Y012780D01*
X003732Y012661D02*
X003218Y012661D01*
X003336Y012543D02*
X003614Y012543D01*
X003495Y012424D02*
X003455Y012424D01*
X003455Y012306D02*
X003495Y012306D01*
X003495Y012187D02*
X003455Y012187D01*
X003455Y012069D02*
X003495Y012069D01*
X003571Y011950D02*
X003379Y011950D01*
X003260Y011832D02*
X003690Y011832D01*
X004091Y011713D02*
X002755Y011713D01*
X002755Y011595D02*
X004156Y011595D01*
X004049Y011476D02*
X002755Y011476D01*
X002755Y011358D02*
X004000Y011358D01*
X003985Y011239D02*
X002755Y011239D01*
X002755Y011121D02*
X003989Y011121D01*
X004038Y011002D02*
X002755Y011002D01*
X002740Y010884D02*
X003988Y010884D01*
X003869Y010765D02*
X002661Y010765D01*
X002475Y010975D02*
X001725Y010225D01*
X002114Y009936D02*
X002336Y009936D01*
X002245Y010054D02*
X002205Y010054D01*
X002205Y010173D02*
X002245Y010173D01*
X002245Y010291D02*
X002205Y010291D01*
X002725Y010225D02*
X003475Y009475D01*
X004600Y009475D01*
X004850Y009725D01*
X004850Y010475D01*
X004975Y010600D01*
X006850Y010600D01*
X007220Y010291D02*
X008370Y010291D01*
X008370Y010330D02*
X008370Y010151D01*
X008651Y009870D01*
X008830Y009870D01*
X008830Y010330D01*
X008870Y010330D01*
X008870Y010370D01*
X009330Y010370D01*
X009330Y010549D01*
X009049Y010830D01*
X008870Y010830D01*
X008870Y010370D01*
X008830Y010370D01*
X008830Y010830D01*
X008651Y010830D01*
X008370Y010549D01*
X008370Y010370D01*
X008830Y010370D01*
X008830Y010330D01*
X008370Y010330D01*
X008370Y010410D02*
X007330Y010410D01*
X007330Y010528D02*
X008370Y010528D01*
X008468Y010647D02*
X007330Y010647D01*
X007330Y010765D02*
X008586Y010765D01*
X008830Y010765D02*
X008870Y010765D01*
X008870Y010647D02*
X008830Y010647D01*
X008830Y010528D02*
X008870Y010528D01*
X008870Y010410D02*
X008830Y010410D01*
X008850Y010350D02*
X008100Y010350D01*
X006850Y011600D01*
X006870Y011595D02*
X008455Y011595D01*
X008455Y011580D02*
X007735Y011580D01*
X007735Y011562D01*
X007747Y011488D01*
X007770Y011416D01*
X007804Y011348D01*
X007849Y011287D01*
X007902Y011234D01*
X007963Y011189D01*
X008031Y011155D01*
X008103Y011132D01*
X008177Y011120D01*
X008455Y011120D01*
X008455Y011580D01*
X008495Y011580D01*
X008495Y011620D01*
X008455Y011620D01*
X008455Y012080D01*
X008177Y012080D01*
X008103Y012068D01*
X008031Y012045D01*
X007963Y012011D01*
X007902Y011966D01*
X007849Y011913D01*
X007804Y011852D01*
X007770Y011784D01*
X007747Y011712D01*
X007735Y011638D01*
X007735Y011620D01*
X008455Y011620D01*
X008455Y011580D01*
X008495Y011580D02*
X008495Y011120D01*
X008773Y011120D01*
X008847Y011132D01*
X008919Y011155D01*
X008987Y011189D01*
X009048Y011234D01*
X009101Y011287D01*
X009146Y011348D01*
X009180Y011416D01*
X009203Y011488D01*
X009215Y011562D01*
X009215Y011580D01*
X008495Y011580D01*
X008495Y011595D02*
X010735Y011595D01*
X010742Y011713D02*
X009203Y011713D01*
X009203Y011712D02*
X009180Y011784D01*
X009146Y011852D01*
X009101Y011913D01*
X009048Y011966D01*
X008987Y012011D01*
X008919Y012045D01*
X008847Y012068D01*
X008773Y012080D01*
X008495Y012080D01*
X008495Y011620D01*
X009215Y011620D01*
X009215Y011638D01*
X009203Y011712D01*
X009156Y011832D02*
X010791Y011832D01*
X010886Y011950D02*
X009064Y011950D01*
X008845Y012069D02*
X011092Y012069D01*
X010958Y012187D02*
X009571Y012187D01*
X009379Y012187D02*
X008992Y012187D01*
X009119Y012306D02*
X009178Y012306D01*
X009475Y012600D02*
X011475Y012600D01*
X010966Y013017D02*
X009663Y013017D01*
X009768Y012898D02*
X010834Y012898D01*
X011083Y013135D02*
X009781Y013135D01*
X009900Y013254D02*
X010883Y013254D01*
X011475Y013600D02*
X009850Y013600D01*
X009350Y013100D01*
X007850Y013100D01*
X007656Y012898D02*
X007044Y012898D01*
X007118Y013017D02*
X007537Y013017D01*
X007459Y013135D02*
X007189Y013135D01*
X007307Y013254D02*
X007445Y013254D01*
X007445Y013372D02*
X007330Y013372D01*
X007330Y013491D02*
X007445Y013491D01*
X007445Y013609D02*
X007330Y013609D01*
X007276Y013728D02*
X007445Y013728D01*
X007445Y013846D02*
X007158Y013846D01*
X007137Y014083D02*
X007445Y014083D01*
X007445Y013965D02*
X006580Y013965D01*
X006830Y014083D02*
X006870Y014083D01*
X006870Y014202D02*
X006830Y014202D01*
X006830Y014320D02*
X006870Y014320D01*
X006870Y014439D02*
X006830Y014439D01*
X007255Y014202D02*
X007352Y014202D01*
X006850Y013475D02*
X006850Y013100D01*
X006475Y012725D01*
X006475Y011975D01*
X006225Y011725D01*
X004475Y011725D01*
X003975Y012225D01*
X004336Y012543D02*
X004614Y012543D01*
X004732Y012661D02*
X004218Y012661D01*
X004208Y012780D02*
X004742Y012780D01*
X004495Y012424D02*
X004455Y012424D01*
X004455Y012306D02*
X004495Y012306D01*
X004495Y012187D02*
X004455Y012187D01*
X005455Y012187D02*
X005495Y012187D01*
X005495Y012069D02*
X005455Y012069D01*
X005455Y012306D02*
X005495Y012306D01*
X005495Y012424D02*
X005455Y012424D01*
X006755Y012424D02*
X007768Y012424D01*
X007735Y012543D02*
X006755Y012543D01*
X006807Y012661D02*
X007735Y012661D01*
X007770Y012780D02*
X006926Y012780D01*
X006755Y012306D02*
X007831Y012306D01*
X007958Y012187D02*
X006755Y012187D01*
X006830Y012069D02*
X006870Y012069D01*
X006870Y011950D02*
X006830Y011950D01*
X006830Y011832D02*
X006870Y011832D01*
X006870Y011713D02*
X006830Y011713D01*
X006830Y011476D02*
X006870Y011476D01*
X006870Y011358D02*
X006830Y011358D01*
X006830Y011239D02*
X006870Y011239D01*
X006870Y011121D02*
X006830Y011121D01*
X006651Y011121D02*
X006580Y011121D01*
X007049Y011121D02*
X008174Y011121D01*
X008455Y011121D02*
X008495Y011121D01*
X008495Y011239D02*
X008455Y011239D01*
X008455Y011358D02*
X008495Y011358D01*
X008495Y011476D02*
X008455Y011476D01*
X008455Y011713D02*
X008495Y011713D01*
X008495Y011832D02*
X008455Y011832D01*
X008455Y011950D02*
X008495Y011950D01*
X008495Y012069D02*
X008455Y012069D01*
X008105Y012069D02*
X007060Y012069D01*
X007179Y011950D02*
X007886Y011950D01*
X007794Y011832D02*
X007297Y011832D01*
X007330Y011713D02*
X007747Y011713D01*
X007751Y011476D02*
X007330Y011476D01*
X007286Y011358D02*
X007800Y011358D01*
X007897Y011239D02*
X007168Y011239D01*
X007127Y011002D02*
X010570Y011002D01*
X010570Y010884D02*
X007245Y010884D01*
X007101Y010173D02*
X008370Y010173D01*
X008467Y010054D02*
X007825Y010054D01*
X007799Y010080D02*
X007401Y010080D01*
X007120Y009799D01*
X007120Y009401D01*
X007401Y009120D01*
X007799Y009120D01*
X008080Y009401D01*
X008080Y009799D01*
X007799Y010080D01*
X007943Y009936D02*
X008586Y009936D01*
X008830Y009936D02*
X008870Y009936D01*
X008870Y009870D02*
X009049Y009870D01*
X009330Y010151D01*
X009330Y010330D01*
X008870Y010330D01*
X008870Y009870D01*
X008870Y010054D02*
X008830Y010054D01*
X008830Y010173D02*
X008870Y010173D01*
X008870Y010291D02*
X008830Y010291D01*
X009114Y009936D02*
X010570Y009936D01*
X010570Y009817D02*
X008062Y009817D01*
X008080Y009699D02*
X009270Y009699D01*
X009276Y009705D02*
X008995Y009424D01*
X008995Y009026D01*
X009276Y008745D01*
X009674Y008745D01*
X009955Y009026D01*
X009955Y009424D01*
X009674Y009705D01*
X009276Y009705D01*
X009151Y009580D02*
X008080Y009580D01*
X008080Y009462D02*
X009033Y009462D01*
X008995Y009343D02*
X008022Y009343D01*
X007903Y009225D02*
X008995Y009225D01*
X008995Y009106D02*
X006107Y009106D01*
X006107Y009225D02*
X006297Y009225D01*
X006401Y009120D02*
X006120Y009401D01*
X006120Y009799D01*
X006401Y010080D01*
X006799Y010080D01*
X007080Y009799D01*
X007080Y009401D01*
X006799Y009120D01*
X006401Y009120D01*
X006178Y009343D02*
X006107Y009343D01*
X006107Y009462D02*
X006120Y009462D01*
X006107Y009580D02*
X006120Y009580D01*
X006107Y009699D02*
X006120Y009699D01*
X006107Y009817D02*
X006138Y009817D01*
X006107Y009936D02*
X006257Y009936D01*
X006375Y010054D02*
X006107Y010054D01*
X006093Y010173D02*
X006599Y010173D01*
X006480Y010291D02*
X006044Y010291D01*
X006825Y010054D02*
X007375Y010054D01*
X007257Y009936D02*
X006943Y009936D01*
X007062Y009817D02*
X007138Y009817D01*
X007120Y009699D02*
X007080Y009699D01*
X007080Y009580D02*
X007120Y009580D01*
X007120Y009462D02*
X007080Y009462D01*
X007022Y009343D02*
X007178Y009343D01*
X007297Y009225D02*
X006903Y009225D01*
X007151Y008955D02*
X006870Y008674D01*
X006870Y008276D01*
X007151Y007995D01*
X007549Y007995D01*
X007830Y008276D01*
X007830Y008674D01*
X007549Y008955D01*
X007151Y008955D01*
X007065Y008869D02*
X006028Y008869D01*
X006077Y008988D02*
X009034Y008988D01*
X009152Y008869D02*
X007635Y008869D01*
X007753Y008751D02*
X009271Y008751D01*
X009109Y008395D02*
X010705Y008395D01*
X010705Y008277D02*
X009227Y008277D01*
X009330Y008158D02*
X010721Y008158D01*
X010770Y008040D02*
X009330Y008040D01*
X009330Y007921D02*
X010869Y007921D01*
X011067Y007803D02*
X009330Y007803D01*
X009238Y007684D02*
X009805Y007684D01*
X009627Y007566D02*
X009119Y007566D01*
X009057Y007447D02*
X009543Y007447D01*
X009495Y007329D02*
X009175Y007329D01*
X008870Y007566D02*
X008830Y007566D01*
X008830Y007684D02*
X008870Y007684D01*
X008870Y007803D02*
X008830Y007803D01*
X008830Y007921D02*
X008870Y007921D01*
X008870Y008040D02*
X008830Y008040D01*
X008830Y008158D02*
X008870Y008158D01*
X008870Y008277D02*
X008830Y008277D01*
X008830Y008395D02*
X008870Y008395D01*
X008591Y008395D02*
X007830Y008395D01*
X007830Y008277D02*
X008473Y008277D01*
X008370Y008158D02*
X007712Y008158D01*
X007593Y008040D02*
X008370Y008040D01*
X008370Y007921D02*
X008333Y007921D01*
X008580Y007566D02*
X008581Y007566D01*
X008580Y007447D02*
X008643Y007447D01*
X008100Y007475D02*
X007350Y007475D01*
X006999Y007803D02*
X004356Y007803D01*
X004455Y007921D02*
X007117Y007921D01*
X007107Y008040D02*
X004455Y008040D01*
X004455Y008158D02*
X006988Y008158D01*
X006870Y008277D02*
X004455Y008277D01*
X004359Y008395D02*
X006870Y008395D01*
X006870Y008514D02*
X004240Y008514D01*
X004311Y008632D02*
X005163Y008632D01*
X005017Y008751D02*
X004429Y008751D01*
X004455Y008869D02*
X004922Y008869D01*
X004873Y008988D02*
X004455Y008988D01*
X004455Y009106D02*
X004843Y009106D01*
X004843Y009225D02*
X004727Y009225D01*
X003975Y009975D02*
X003975Y010475D01*
X004725Y011225D01*
X003751Y010647D02*
X002982Y010647D01*
X003101Y010528D02*
X003695Y010528D01*
X003695Y010410D02*
X003205Y010410D01*
X003205Y010291D02*
X003612Y010291D01*
X003495Y010173D02*
X003205Y010173D01*
X003292Y010054D02*
X003495Y010054D01*
X003495Y009936D02*
X003410Y009936D01*
X003495Y008988D02*
X002534Y008988D01*
X002491Y008869D02*
X003495Y008869D01*
X003521Y008751D02*
X002411Y008751D01*
X002252Y008632D02*
X003639Y008632D01*
X003710Y008514D02*
X002347Y008514D01*
X002465Y008395D02*
X003591Y008395D01*
X003495Y008277D02*
X002515Y008277D01*
X002545Y008158D02*
X003495Y008158D01*
X003495Y008040D02*
X002545Y008040D01*
X002514Y007921D02*
X003495Y007921D01*
X003594Y007803D02*
X002463Y007803D01*
X002344Y007684D02*
X003712Y007684D01*
X003762Y007566D02*
X002260Y007566D01*
X002413Y007447D02*
X003643Y007447D01*
X003525Y007329D02*
X002493Y007329D01*
X002542Y007210D02*
X003495Y007210D01*
X003495Y006973D02*
X002535Y006973D01*
X002545Y007092D02*
X003955Y007092D01*
X003995Y007092D02*
X005576Y007092D01*
X005452Y006973D02*
X004455Y006973D01*
X004455Y007120D02*
X004455Y007299D01*
X004174Y007580D01*
X003995Y007580D01*
X003995Y007120D01*
X004455Y007120D01*
X004455Y007210D02*
X006252Y007210D01*
X006475Y006850D02*
X005725Y006850D01*
X005350Y006475D01*
X004475Y006475D01*
X004651Y006855D02*
X005334Y006855D01*
X005770Y006499D02*
X006235Y006499D01*
X006715Y006499D02*
X008510Y006499D01*
X008510Y006381D02*
X005651Y006381D01*
X005533Y006262D02*
X008510Y006262D01*
X008510Y006144D02*
X008063Y006144D01*
X008180Y006025D02*
X008510Y006025D01*
X008510Y005907D02*
X008229Y005907D01*
X008260Y005788D02*
X008510Y005788D01*
X008510Y006618D02*
X006831Y006618D01*
X006880Y006736D02*
X008410Y006736D01*
X008370Y006855D02*
X006893Y006855D01*
X006877Y006973D02*
X008370Y006973D01*
X007805Y007092D02*
X007645Y007092D01*
X007055Y007092D02*
X006825Y007092D01*
X006936Y007210D02*
X006698Y007210D01*
X006870Y007329D02*
X004425Y007329D01*
X004307Y007447D02*
X006870Y007447D01*
X006870Y007566D02*
X004188Y007566D01*
X004238Y007684D02*
X006880Y007684D01*
X007583Y007921D02*
X007867Y007921D01*
X007749Y007803D02*
X007701Y007803D01*
X007830Y008514D02*
X010705Y008514D01*
X010705Y008632D02*
X007830Y008632D01*
X006947Y008751D02*
X005933Y008751D01*
X005787Y008632D02*
X006870Y008632D01*
X009233Y010054D02*
X010467Y010054D01*
X010370Y010173D02*
X009330Y010173D01*
X009330Y010291D02*
X010370Y010291D01*
X010370Y010410D02*
X009330Y010410D01*
X009330Y010528D02*
X010370Y010528D01*
X010468Y010647D02*
X009232Y010647D01*
X009114Y010765D02*
X010570Y010765D01*
X010850Y010975D02*
X011475Y011600D01*
X010796Y011358D02*
X009150Y011358D01*
X009199Y011476D02*
X010747Y011476D01*
X010718Y011239D02*
X009053Y011239D01*
X008776Y011121D02*
X010607Y011121D01*
X010850Y010975D02*
X010850Y010350D01*
X010850Y009850D01*
X011225Y009475D01*
X011725Y009475D02*
X011725Y005975D01*
X010705Y007329D02*
X010455Y007329D01*
X010407Y007447D02*
X010733Y007447D01*
X010782Y007566D02*
X010323Y007566D01*
X010145Y007684D02*
X010899Y007684D01*
X010705Y008751D02*
X010679Y008751D01*
X010271Y008751D02*
X009679Y008751D01*
X009798Y008869D02*
X010152Y008869D01*
X010034Y008988D02*
X009916Y008988D01*
X009955Y009106D02*
X009995Y009106D01*
X009995Y009225D02*
X009955Y009225D01*
X009955Y009343D02*
X009995Y009343D01*
X010033Y009462D02*
X009917Y009462D01*
X009799Y009580D02*
X010151Y009580D01*
X010270Y009699D02*
X009680Y009699D01*
X009772Y012306D02*
X010831Y012306D01*
X012880Y012069D02*
X012890Y012069D01*
X013241Y012187D02*
X013709Y012187D01*
X013591Y012306D02*
X013359Y012306D01*
X013455Y012424D02*
X013495Y012424D01*
X013310Y012069D02*
X014765Y012069D01*
X014646Y011950D02*
X013429Y011950D01*
X013547Y011832D02*
X014528Y011832D01*
X014495Y011713D02*
X013580Y011713D01*
X013580Y011595D02*
X014495Y011595D01*
X014495Y011476D02*
X014153Y011476D01*
X014271Y011358D02*
X014539Y011358D01*
X014657Y011239D02*
X014330Y011239D01*
X014330Y011121D02*
X014568Y011121D01*
X014510Y011002D02*
X014330Y011002D01*
X014312Y010884D02*
X014485Y010884D01*
X014492Y010765D02*
X014194Y010765D01*
X014075Y010647D02*
X014530Y010647D01*
X014608Y010528D02*
X013580Y010528D01*
X013580Y010410D02*
X014760Y010410D01*
X014602Y010291D02*
X013470Y010291D01*
X013580Y010647D02*
X013625Y010647D01*
X013370Y011009D02*
X013299Y011080D01*
X013120Y011080D01*
X013120Y010620D01*
X013080Y010620D01*
X013080Y011080D01*
X012901Y011080D01*
X012880Y011059D01*
X012880Y011141D01*
X012901Y011120D01*
X013299Y011120D01*
X013370Y011191D01*
X013370Y011009D01*
X013370Y011121D02*
X013299Y011121D01*
X013120Y011002D02*
X013080Y011002D01*
X013080Y010884D02*
X013120Y010884D01*
X013120Y010765D02*
X013080Y010765D01*
X013080Y010647D02*
X013120Y010647D01*
X013100Y010600D02*
X014350Y010600D01*
X014600Y010850D01*
X015225Y010850D01*
X015690Y010410D02*
X017195Y010410D01*
X017195Y010528D02*
X015842Y010528D01*
X015920Y010647D02*
X017195Y010647D01*
X017195Y010765D02*
X015958Y010765D01*
X015965Y010884D02*
X017170Y010884D01*
X017052Y011002D02*
X015940Y011002D01*
X015882Y011121D02*
X016933Y011121D01*
X016815Y011239D02*
X015766Y011239D01*
X015411Y011358D02*
X016696Y011358D01*
X016578Y011476D02*
X015455Y011476D01*
X015455Y011595D02*
X016459Y011595D01*
X016341Y011713D02*
X015455Y011713D01*
X015422Y011832D02*
X015690Y011832D01*
X015571Y011950D02*
X015304Y011950D01*
X015185Y012069D02*
X015495Y012069D01*
X015495Y012187D02*
X015241Y012187D01*
X015359Y012306D02*
X015495Y012306D01*
X015350Y012600D02*
X014975Y012600D01*
X015350Y012600D02*
X015975Y013225D01*
X015975Y013475D01*
X014975Y014475D01*
X013100Y014475D01*
X012695Y014202D02*
X012556Y014202D01*
X012100Y014100D02*
X009725Y014100D01*
X009725Y014130D01*
X009725Y014600D02*
X008475Y015850D01*
X008475Y016225D01*
X009334Y015387D02*
X010741Y015387D01*
X010782Y015505D02*
X010859Y015505D01*
X010899Y015624D02*
X010978Y015624D01*
X010988Y015742D02*
X010962Y015742D01*
X010515Y015742D02*
X010435Y015742D01*
X010435Y015624D02*
X010515Y015624D01*
X010515Y015505D02*
X010435Y015505D01*
X010168Y015505D02*
X009790Y015505D01*
X009909Y015624D02*
X010051Y015624D01*
X009988Y015742D02*
X009962Y015742D01*
X009453Y015268D02*
X010622Y015268D01*
X010504Y015150D02*
X009571Y015150D01*
X010435Y015861D02*
X010515Y015861D01*
X010515Y015979D02*
X010435Y015979D01*
X010435Y016098D02*
X010515Y016098D01*
X011808Y016927D02*
X012142Y016927D01*
X012030Y016809D02*
X011920Y016809D01*
X011969Y016690D02*
X011981Y016690D01*
X012475Y016225D02*
X012475Y015350D01*
X011725Y014600D01*
X011475Y014600D01*
X012100Y014100D02*
X012850Y014975D01*
X015225Y014975D01*
X015975Y014225D01*
X015850Y014850D02*
X016225Y014850D01*
X015850Y014850D02*
X014975Y015725D01*
X014975Y015975D01*
X015464Y016453D02*
X015486Y016453D01*
X015536Y016572D02*
X015414Y016572D01*
X015295Y016690D02*
X015655Y016690D01*
X016295Y016690D02*
X017427Y016690D01*
X017334Y016572D02*
X016414Y016572D01*
X016464Y016453D02*
X017265Y016453D01*
X017214Y016335D02*
X016495Y016335D01*
X016495Y016216D02*
X017182Y016216D01*
X017155Y016098D02*
X016495Y016098D01*
X016495Y015979D02*
X017155Y015979D01*
X017155Y015861D02*
X016495Y015861D01*
X016495Y015742D02*
X017180Y015742D01*
X017211Y015624D02*
X016495Y015624D01*
X016467Y015505D02*
X017261Y015505D01*
X017329Y015387D02*
X016418Y015387D01*
X016303Y015268D02*
X017419Y015268D01*
X017537Y015150D02*
X015946Y015150D01*
X014688Y014083D02*
X014330Y014083D01*
X014330Y013965D02*
X015089Y013965D01*
X014667Y013846D02*
X014330Y013846D01*
X014281Y013728D02*
X014549Y013728D01*
X013647Y015268D02*
X012744Y015268D01*
X012755Y015387D02*
X013532Y015387D01*
X013483Y015505D02*
X012790Y015505D01*
X012909Y015624D02*
X013455Y015624D01*
X013455Y015742D02*
X012962Y015742D01*
X012995Y015861D02*
X013455Y015861D01*
X013455Y015979D02*
X012995Y015979D01*
X012995Y016098D02*
X013455Y016098D01*
X013455Y016216D02*
X012995Y016216D01*
X012995Y016335D02*
X013455Y016335D01*
X013486Y016453D02*
X012995Y016453D01*
X012995Y016572D02*
X013536Y016572D01*
X013655Y016690D02*
X012969Y016690D01*
X012920Y016809D02*
X017545Y016809D01*
X017734Y016927D02*
X012808Y016927D01*
X014295Y016690D02*
X014655Y016690D01*
X014536Y016572D02*
X014414Y016572D01*
X014464Y016453D02*
X014486Y016453D01*
X017203Y014676D02*
X017654Y014676D01*
X017522Y014557D02*
X017322Y014557D01*
X017607Y011239D02*
X017675Y011239D01*
X017195Y010291D02*
X015848Y010291D01*
X015923Y010173D02*
X017195Y010173D01*
X017195Y010054D02*
X015965Y010054D01*
X015965Y009936D02*
X017195Y009936D01*
X017195Y009817D02*
X015939Y009817D01*
X015887Y009699D02*
X017195Y009699D01*
X017195Y009580D02*
X015769Y009580D01*
X012901Y011121D02*
X012880Y011121D01*
X007387Y006144D02*
X004735Y006144D01*
X004081Y006618D02*
X002219Y006618D01*
X002396Y006736D02*
X003660Y006736D01*
X003542Y006855D02*
X002486Y006855D01*
X002225Y006082D02*
X002147Y006107D01*
X002066Y006120D01*
X001765Y006120D01*
X001765Y005640D01*
X002545Y005640D01*
X002545Y005641D01*
X002532Y005722D01*
X002507Y005800D01*
X002470Y005873D01*
X002422Y005939D01*
X002364Y005997D01*
X002298Y006045D01*
X002225Y006082D01*
X002325Y006025D02*
X003471Y006025D01*
X003353Y005907D02*
X002445Y005907D01*
X002511Y005788D02*
X003245Y005788D01*
X003245Y005670D02*
X002540Y005670D01*
X002544Y005551D02*
X003245Y005551D01*
X003245Y005433D02*
X002517Y005433D01*
X002460Y005314D02*
X003332Y005314D01*
X003451Y005196D02*
X002353Y005196D01*
X001765Y005670D02*
X001685Y005670D01*
X001685Y005788D02*
X001765Y005788D01*
X001765Y005907D02*
X001685Y005907D01*
X001685Y006025D02*
X001765Y006025D01*
X003955Y006736D02*
X003995Y006736D01*
X003995Y006855D02*
X003955Y006855D01*
X003955Y006973D02*
X003995Y006973D01*
X003995Y007210D02*
X003955Y007210D01*
X003955Y007329D02*
X003995Y007329D01*
X003995Y007447D02*
X003955Y007447D01*
X003955Y007566D02*
X003995Y007566D01*
X002454Y009817D02*
X001996Y009817D01*
X001765Y009580D02*
X001685Y009580D01*
X001685Y009462D02*
X001765Y009462D01*
X001765Y009343D02*
X001685Y009343D01*
X001685Y009225D02*
X001765Y009225D01*
X001745Y010765D02*
X001705Y010765D01*
X001705Y010884D02*
X001745Y010884D01*
X001745Y011002D02*
X001705Y011002D01*
X001705Y011121D02*
X001745Y011121D01*
X001705Y011239D02*
X000560Y011239D01*
X001705Y011358D02*
X001745Y011358D01*
X001745Y011476D02*
X001705Y011476D01*
X001705Y011595D02*
X001745Y011595D01*
X002148Y011713D02*
X002195Y011713D01*
X002475Y010975D02*
X002475Y014100D01*
X002350Y014225D01*
X001725Y014225D01*
X001725Y014600D01*
X001975Y014850D01*
D18*
X009475Y012600D03*
X010475Y014725D03*
X006475Y006850D03*
X004475Y006475D03*
X004350Y004600D03*
X009350Y005725D03*
D19*
X008850Y004475D02*
X008850Y006975D01*
X009975Y006975D01*
X011225Y006975D01*
X012225Y008600D02*
X012225Y004975D01*
X011225Y003975D01*
X009975Y003975D01*
X009100Y003975D01*
X008725Y003600D01*
X008725Y001975D01*
X007725Y001975D02*
X007725Y003350D01*
X008850Y004475D01*
X011475Y002600D02*
X011475Y001975D01*
X011475Y002600D02*
X012850Y003975D01*
X012850Y004600D01*
X014225Y005975D01*
X014225Y006975D01*
X014850Y005975D02*
X017850Y005975D01*
X018225Y006350D01*
X018225Y006975D01*
X018225Y003975D02*
X017475Y003975D01*
X016475Y002975D01*
X016475Y001975D01*
X015475Y001975D02*
X015475Y003600D01*
X015100Y003975D01*
X014225Y003975D01*
X013350Y003600D02*
X013350Y004475D01*
X014850Y005975D01*
X013350Y003600D02*
X012475Y002725D01*
X012475Y001975D01*
X004350Y004600D02*
X001725Y004600D01*
M02*
