G75*
G70*
%OFA0B0*%
%FSLAX24Y24*%
%IPPOS*%
%LPD*%
%AMOC8*
5,1,8,0,0,1.08239X$1,22.5*
%
%ADD10C,0.0000*%
%ADD11C,0.0060*%
%ADD12C,0.0040*%
%ADD13C,0.0030*%
%ADD14C,0.0100*%
%ADD15C,0.0160*%
%ADD16C,0.0070*%
%ADD17C,0.0050*%
%ADD18C,0.0240*%
%ADD19C,0.0120*%
%ADD20R,0.0700X0.0150*%
%ADD21R,0.0200X0.0550*%
%ADD22R,0.0150X0.0700*%
%ADD23R,0.0550X0.0200*%
%ADD24R,0.1400X0.0200*%
%ADD25R,0.0420X0.0540*%
D10*
X000100Y000100D02*
X000100Y017816D01*
X019785Y017816D01*
X019785Y000100D01*
X000100Y000100D01*
X001115Y001975D02*
X001117Y002024D01*
X001123Y002073D01*
X001133Y002121D01*
X001146Y002168D01*
X001164Y002214D01*
X001185Y002258D01*
X001209Y002301D01*
X001237Y002341D01*
X001268Y002380D01*
X001302Y002415D01*
X001339Y002448D01*
X001378Y002477D01*
X001420Y002503D01*
X001463Y002526D01*
X001509Y002545D01*
X001555Y002561D01*
X001603Y002573D01*
X001651Y002581D01*
X001700Y002585D01*
X001750Y002585D01*
X001799Y002581D01*
X001847Y002573D01*
X001895Y002561D01*
X001941Y002545D01*
X001987Y002526D01*
X002030Y002503D01*
X002072Y002477D01*
X002111Y002448D01*
X002148Y002415D01*
X002182Y002380D01*
X002213Y002341D01*
X002241Y002301D01*
X002265Y002258D01*
X002286Y002214D01*
X002304Y002168D01*
X002317Y002121D01*
X002327Y002073D01*
X002333Y002024D01*
X002335Y001975D01*
X002333Y001926D01*
X002327Y001877D01*
X002317Y001829D01*
X002304Y001782D01*
X002286Y001736D01*
X002265Y001692D01*
X002241Y001649D01*
X002213Y001609D01*
X002182Y001570D01*
X002148Y001535D01*
X002111Y001502D01*
X002072Y001473D01*
X002030Y001447D01*
X001987Y001424D01*
X001941Y001405D01*
X001895Y001389D01*
X001847Y001377D01*
X001799Y001369D01*
X001750Y001365D01*
X001700Y001365D01*
X001651Y001369D01*
X001603Y001377D01*
X001555Y001389D01*
X001509Y001405D01*
X001463Y001424D01*
X001420Y001447D01*
X001378Y001473D01*
X001339Y001502D01*
X001302Y001535D01*
X001268Y001570D01*
X001237Y001609D01*
X001209Y001649D01*
X001185Y001692D01*
X001164Y001736D01*
X001146Y001782D01*
X001133Y001829D01*
X001123Y001877D01*
X001117Y001926D01*
X001115Y001975D01*
X001115Y015975D02*
X001117Y016024D01*
X001123Y016073D01*
X001133Y016121D01*
X001146Y016168D01*
X001164Y016214D01*
X001185Y016258D01*
X001209Y016301D01*
X001237Y016341D01*
X001268Y016380D01*
X001302Y016415D01*
X001339Y016448D01*
X001378Y016477D01*
X001420Y016503D01*
X001463Y016526D01*
X001509Y016545D01*
X001555Y016561D01*
X001603Y016573D01*
X001651Y016581D01*
X001700Y016585D01*
X001750Y016585D01*
X001799Y016581D01*
X001847Y016573D01*
X001895Y016561D01*
X001941Y016545D01*
X001987Y016526D01*
X002030Y016503D01*
X002072Y016477D01*
X002111Y016448D01*
X002148Y016415D01*
X002182Y016380D01*
X002213Y016341D01*
X002241Y016301D01*
X002265Y016258D01*
X002286Y016214D01*
X002304Y016168D01*
X002317Y016121D01*
X002327Y016073D01*
X002333Y016024D01*
X002335Y015975D01*
X002333Y015926D01*
X002327Y015877D01*
X002317Y015829D01*
X002304Y015782D01*
X002286Y015736D01*
X002265Y015692D01*
X002241Y015649D01*
X002213Y015609D01*
X002182Y015570D01*
X002148Y015535D01*
X002111Y015502D01*
X002072Y015473D01*
X002030Y015447D01*
X001987Y015424D01*
X001941Y015405D01*
X001895Y015389D01*
X001847Y015377D01*
X001799Y015369D01*
X001750Y015365D01*
X001700Y015365D01*
X001651Y015369D01*
X001603Y015377D01*
X001555Y015389D01*
X001509Y015405D01*
X001463Y015424D01*
X001420Y015447D01*
X001378Y015473D01*
X001339Y015502D01*
X001302Y015535D01*
X001268Y015570D01*
X001237Y015609D01*
X001209Y015649D01*
X001185Y015692D01*
X001164Y015736D01*
X001146Y015782D01*
X001133Y015829D01*
X001123Y015877D01*
X001117Y015926D01*
X001115Y015975D01*
X017615Y015975D02*
X017617Y016024D01*
X017623Y016073D01*
X017633Y016121D01*
X017646Y016168D01*
X017664Y016214D01*
X017685Y016258D01*
X017709Y016301D01*
X017737Y016341D01*
X017768Y016380D01*
X017802Y016415D01*
X017839Y016448D01*
X017878Y016477D01*
X017920Y016503D01*
X017963Y016526D01*
X018009Y016545D01*
X018055Y016561D01*
X018103Y016573D01*
X018151Y016581D01*
X018200Y016585D01*
X018250Y016585D01*
X018299Y016581D01*
X018347Y016573D01*
X018395Y016561D01*
X018441Y016545D01*
X018487Y016526D01*
X018530Y016503D01*
X018572Y016477D01*
X018611Y016448D01*
X018648Y016415D01*
X018682Y016380D01*
X018713Y016341D01*
X018741Y016301D01*
X018765Y016258D01*
X018786Y016214D01*
X018804Y016168D01*
X018817Y016121D01*
X018827Y016073D01*
X018833Y016024D01*
X018835Y015975D01*
X018833Y015926D01*
X018827Y015877D01*
X018817Y015829D01*
X018804Y015782D01*
X018786Y015736D01*
X018765Y015692D01*
X018741Y015649D01*
X018713Y015609D01*
X018682Y015570D01*
X018648Y015535D01*
X018611Y015502D01*
X018572Y015473D01*
X018530Y015447D01*
X018487Y015424D01*
X018441Y015405D01*
X018395Y015389D01*
X018347Y015377D01*
X018299Y015369D01*
X018250Y015365D01*
X018200Y015365D01*
X018151Y015369D01*
X018103Y015377D01*
X018055Y015389D01*
X018009Y015405D01*
X017963Y015424D01*
X017920Y015447D01*
X017878Y015473D01*
X017839Y015502D01*
X017802Y015535D01*
X017768Y015570D01*
X017737Y015609D01*
X017709Y015649D01*
X017685Y015692D01*
X017664Y015736D01*
X017646Y015782D01*
X017633Y015829D01*
X017623Y015877D01*
X017617Y015926D01*
X017615Y015975D01*
X017615Y001975D02*
X017617Y002024D01*
X017623Y002073D01*
X017633Y002121D01*
X017646Y002168D01*
X017664Y002214D01*
X017685Y002258D01*
X017709Y002301D01*
X017737Y002341D01*
X017768Y002380D01*
X017802Y002415D01*
X017839Y002448D01*
X017878Y002477D01*
X017920Y002503D01*
X017963Y002526D01*
X018009Y002545D01*
X018055Y002561D01*
X018103Y002573D01*
X018151Y002581D01*
X018200Y002585D01*
X018250Y002585D01*
X018299Y002581D01*
X018347Y002573D01*
X018395Y002561D01*
X018441Y002545D01*
X018487Y002526D01*
X018530Y002503D01*
X018572Y002477D01*
X018611Y002448D01*
X018648Y002415D01*
X018682Y002380D01*
X018713Y002341D01*
X018741Y002301D01*
X018765Y002258D01*
X018786Y002214D01*
X018804Y002168D01*
X018817Y002121D01*
X018827Y002073D01*
X018833Y002024D01*
X018835Y001975D01*
X018833Y001926D01*
X018827Y001877D01*
X018817Y001829D01*
X018804Y001782D01*
X018786Y001736D01*
X018765Y001692D01*
X018741Y001649D01*
X018713Y001609D01*
X018682Y001570D01*
X018648Y001535D01*
X018611Y001502D01*
X018572Y001473D01*
X018530Y001447D01*
X018487Y001424D01*
X018441Y001405D01*
X018395Y001389D01*
X018347Y001377D01*
X018299Y001369D01*
X018250Y001365D01*
X018200Y001365D01*
X018151Y001369D01*
X018103Y001377D01*
X018055Y001389D01*
X018009Y001405D01*
X017963Y001424D01*
X017920Y001447D01*
X017878Y001473D01*
X017839Y001502D01*
X017802Y001535D01*
X017768Y001570D01*
X017737Y001609D01*
X017709Y001649D01*
X017685Y001692D01*
X017664Y001736D01*
X017646Y001782D01*
X017633Y001829D01*
X017623Y001877D01*
X017617Y001926D01*
X017615Y001975D01*
D11*
X016975Y002225D02*
X016975Y001725D01*
X016725Y001475D01*
X016225Y001475D01*
X015975Y001725D01*
X015725Y001475D01*
X015225Y001475D01*
X014975Y001725D01*
X014725Y001475D01*
X014225Y001475D01*
X013975Y001725D01*
X013975Y002225D01*
X014225Y002475D01*
X014725Y002475D01*
X014975Y002225D01*
X015225Y002475D01*
X015725Y002475D01*
X015975Y002225D01*
X016225Y002475D01*
X016725Y002475D01*
X016975Y002225D01*
X016475Y003475D02*
X017975Y003475D01*
X018475Y003475D02*
X018725Y003475D01*
X018725Y003725D01*
X018929Y003650D02*
X019570Y003650D01*
X019570Y004077D01*
X019570Y004294D02*
X018929Y004294D01*
X018929Y004614D01*
X019036Y004721D01*
X019250Y004721D01*
X019356Y004614D01*
X019356Y004294D01*
X019356Y004508D02*
X019570Y004721D01*
X019356Y004939D02*
X019570Y005152D01*
X019356Y005366D01*
X018929Y005366D01*
X019036Y005583D02*
X018929Y005690D01*
X018929Y005903D01*
X019036Y006010D01*
X019463Y006010D01*
X019570Y005903D01*
X019570Y005690D01*
X019463Y005583D01*
X019036Y005583D01*
X019036Y006228D02*
X019463Y006228D01*
X019570Y006335D01*
X019570Y006548D01*
X019463Y006655D01*
X019036Y006655D02*
X018929Y006548D01*
X018929Y006335D01*
X019036Y006228D01*
X018725Y006725D02*
X018725Y004225D01*
X018929Y004077D02*
X018929Y003650D01*
X019036Y003432D02*
X018929Y003325D01*
X018929Y003112D01*
X019036Y003005D01*
X019143Y003005D01*
X019250Y003112D01*
X019250Y003325D01*
X019356Y003432D01*
X019463Y003432D01*
X019570Y003325D01*
X019570Y003112D01*
X019463Y003005D01*
X019250Y003650D02*
X019250Y003863D01*
X019356Y004939D02*
X018929Y004939D01*
X017655Y003975D02*
X017475Y003975D01*
X017225Y004225D02*
X017225Y004725D01*
X014225Y004725D01*
X014225Y004525D01*
X013975Y003475D02*
X011475Y003475D01*
X010975Y003475D02*
X010725Y003475D01*
X010725Y003725D01*
X010725Y004225D02*
X010725Y004975D01*
X011225Y004975D01*
X011225Y005975D01*
X010725Y005975D01*
X010725Y006725D01*
X010725Y007225D02*
X010725Y007475D01*
X010975Y007475D01*
X011475Y007475D02*
X013975Y007475D01*
X014475Y007475D02*
X015975Y007475D01*
X016475Y007475D02*
X017975Y007475D01*
X018475Y007475D02*
X018725Y007475D01*
X018725Y007225D01*
X018929Y007299D02*
X018929Y006872D01*
X018929Y007086D02*
X019570Y007086D01*
X019570Y007517D02*
X018929Y007517D01*
X018929Y007837D01*
X019036Y007944D01*
X019250Y007944D01*
X019356Y007837D01*
X019356Y007517D01*
X019356Y007730D02*
X019570Y007944D01*
X019570Y008161D02*
X019570Y008588D01*
X019570Y008161D02*
X018929Y008161D01*
X017725Y008975D02*
X017727Y009019D01*
X017733Y009063D01*
X017743Y009106D01*
X017756Y009148D01*
X017773Y009189D01*
X017794Y009228D01*
X017818Y009265D01*
X017845Y009300D01*
X017875Y009332D01*
X017908Y009362D01*
X017944Y009388D01*
X017981Y009412D01*
X018021Y009431D01*
X018062Y009448D01*
X018105Y009460D01*
X018148Y009469D01*
X018192Y009474D01*
X018236Y009475D01*
X018280Y009472D01*
X018324Y009465D01*
X018367Y009454D01*
X018409Y009440D01*
X018449Y009422D01*
X018488Y009400D01*
X018524Y009376D01*
X018558Y009348D01*
X018590Y009317D01*
X018619Y009283D01*
X018645Y009247D01*
X018667Y009209D01*
X018686Y009169D01*
X018701Y009127D01*
X018713Y009085D01*
X018721Y009041D01*
X018725Y008997D01*
X018725Y008953D01*
X018721Y008909D01*
X018713Y008865D01*
X018701Y008823D01*
X018686Y008781D01*
X018667Y008741D01*
X018645Y008703D01*
X018619Y008667D01*
X018590Y008633D01*
X018558Y008602D01*
X018524Y008574D01*
X018488Y008550D01*
X018449Y008528D01*
X018409Y008510D01*
X018367Y008496D01*
X018324Y008485D01*
X018280Y008478D01*
X018236Y008475D01*
X018192Y008476D01*
X018148Y008481D01*
X018105Y008490D01*
X018062Y008502D01*
X018021Y008519D01*
X017981Y008538D01*
X017944Y008562D01*
X017908Y008588D01*
X017875Y008618D01*
X017845Y008650D01*
X017818Y008685D01*
X017794Y008722D01*
X017773Y008761D01*
X017756Y008802D01*
X017743Y008844D01*
X017733Y008887D01*
X017727Y008931D01*
X017725Y008975D01*
X017325Y009625D02*
X017325Y010325D01*
X016125Y010325D01*
X016125Y009625D01*
X017325Y009625D01*
X017075Y009775D02*
X016675Y009975D01*
X016675Y009775D01*
X016675Y009975D02*
X016525Y009975D01*
X016675Y009975D02*
X016675Y010175D01*
X016675Y009975D02*
X017075Y010175D01*
X017075Y009775D01*
X017225Y009975D02*
X016675Y009975D01*
X016125Y010500D02*
X016125Y011200D01*
X017325Y011200D01*
X017325Y010500D01*
X016125Y010500D01*
X016375Y010650D02*
X016775Y010850D01*
X016775Y010650D01*
X016675Y010650D01*
X016775Y010850D02*
X016775Y011050D01*
X016775Y010850D02*
X016225Y010850D01*
X016375Y010650D02*
X016375Y011050D01*
X016775Y010850D01*
X016925Y010850D01*
X017975Y011725D02*
X017725Y011975D01*
X017725Y012475D01*
X017975Y012725D01*
X017725Y012975D01*
X017725Y013475D01*
X017975Y013725D01*
X017725Y013975D01*
X017725Y014475D01*
X017975Y014725D01*
X018475Y014725D01*
X018725Y014475D01*
X018725Y013975D01*
X018475Y013725D01*
X018725Y013475D01*
X018725Y012975D01*
X018475Y012725D01*
X018725Y012475D01*
X018725Y011975D01*
X018475Y011725D01*
X017975Y011725D01*
X018929Y011811D02*
X019036Y011704D01*
X019463Y011704D01*
X019570Y011811D01*
X019570Y012025D01*
X019463Y012131D01*
X019250Y012131D01*
X019250Y011918D01*
X019036Y012131D02*
X018929Y012025D01*
X018929Y011811D01*
X018929Y011488D02*
X018929Y011275D01*
X018929Y011381D02*
X019570Y011381D01*
X019570Y011275D02*
X019570Y011488D01*
X019463Y011057D02*
X019570Y010950D01*
X019570Y010737D01*
X019463Y010630D01*
X019250Y010737D02*
X019250Y010950D01*
X019356Y011057D01*
X019463Y011057D01*
X019250Y010737D02*
X019143Y010630D01*
X019036Y010630D01*
X018929Y010737D01*
X018929Y010950D01*
X019036Y011057D01*
X018929Y012349D02*
X019570Y012776D01*
X018929Y012776D01*
X018929Y012349D02*
X019570Y012349D01*
X019570Y012993D02*
X019463Y012993D01*
X019463Y013100D01*
X019570Y013100D01*
X019570Y012993D01*
X019570Y013316D02*
X019570Y013636D01*
X019463Y013743D01*
X019356Y013743D01*
X019250Y013636D01*
X019250Y013316D01*
X019250Y013636D02*
X019143Y013743D01*
X019036Y013743D01*
X018929Y013636D01*
X018929Y013316D01*
X019570Y013316D01*
X019570Y013960D02*
X018929Y013960D01*
X019570Y014387D01*
X018929Y014387D01*
X018929Y014605D02*
X018929Y014925D01*
X019036Y015032D01*
X019463Y015032D01*
X019570Y014925D01*
X019570Y014605D01*
X018929Y014605D01*
X016475Y015725D02*
X016475Y016225D01*
X016225Y016475D01*
X015725Y016475D01*
X015475Y016225D01*
X015225Y016475D01*
X014725Y016475D01*
X014475Y016225D01*
X014225Y016475D01*
X013725Y016475D01*
X013475Y016225D01*
X013475Y015725D01*
X013725Y015475D01*
X014225Y015475D01*
X014475Y015725D01*
X014725Y015475D01*
X015225Y015475D01*
X015475Y015725D01*
X015725Y015475D01*
X016225Y015475D01*
X016475Y015725D01*
X014475Y014475D02*
X014477Y014519D01*
X014483Y014563D01*
X014493Y014606D01*
X014506Y014648D01*
X014523Y014689D01*
X014544Y014728D01*
X014568Y014765D01*
X014595Y014800D01*
X014625Y014832D01*
X014658Y014862D01*
X014694Y014888D01*
X014731Y014912D01*
X014771Y014931D01*
X014812Y014948D01*
X014855Y014960D01*
X014898Y014969D01*
X014942Y014974D01*
X014986Y014975D01*
X015030Y014972D01*
X015074Y014965D01*
X015117Y014954D01*
X015159Y014940D01*
X015199Y014922D01*
X015238Y014900D01*
X015274Y014876D01*
X015308Y014848D01*
X015340Y014817D01*
X015369Y014783D01*
X015395Y014747D01*
X015417Y014709D01*
X015436Y014669D01*
X015451Y014627D01*
X015463Y014585D01*
X015471Y014541D01*
X015475Y014497D01*
X015475Y014453D01*
X015471Y014409D01*
X015463Y014365D01*
X015451Y014323D01*
X015436Y014281D01*
X015417Y014241D01*
X015395Y014203D01*
X015369Y014167D01*
X015340Y014133D01*
X015308Y014102D01*
X015274Y014074D01*
X015238Y014050D01*
X015199Y014028D01*
X015159Y014010D01*
X015117Y013996D01*
X015074Y013985D01*
X015030Y013978D01*
X014986Y013975D01*
X014942Y013976D01*
X014898Y013981D01*
X014855Y013990D01*
X014812Y014002D01*
X014771Y014019D01*
X014731Y014038D01*
X014694Y014062D01*
X014658Y014088D01*
X014625Y014118D01*
X014595Y014150D01*
X014568Y014185D01*
X014544Y014222D01*
X014523Y014261D01*
X014506Y014302D01*
X014493Y014344D01*
X014483Y014387D01*
X014477Y014431D01*
X014475Y014475D01*
X015475Y014225D02*
X015477Y014269D01*
X015483Y014313D01*
X015493Y014356D01*
X015506Y014398D01*
X015523Y014439D01*
X015544Y014478D01*
X015568Y014515D01*
X015595Y014550D01*
X015625Y014582D01*
X015658Y014612D01*
X015694Y014638D01*
X015731Y014662D01*
X015771Y014681D01*
X015812Y014698D01*
X015855Y014710D01*
X015898Y014719D01*
X015942Y014724D01*
X015986Y014725D01*
X016030Y014722D01*
X016074Y014715D01*
X016117Y014704D01*
X016159Y014690D01*
X016199Y014672D01*
X016238Y014650D01*
X016274Y014626D01*
X016308Y014598D01*
X016340Y014567D01*
X016369Y014533D01*
X016395Y014497D01*
X016417Y014459D01*
X016436Y014419D01*
X016451Y014377D01*
X016463Y014335D01*
X016471Y014291D01*
X016475Y014247D01*
X016475Y014203D01*
X016471Y014159D01*
X016463Y014115D01*
X016451Y014073D01*
X016436Y014031D01*
X016417Y013991D01*
X016395Y013953D01*
X016369Y013917D01*
X016340Y013883D01*
X016308Y013852D01*
X016274Y013824D01*
X016238Y013800D01*
X016199Y013778D01*
X016159Y013760D01*
X016117Y013746D01*
X016074Y013735D01*
X016030Y013728D01*
X015986Y013725D01*
X015942Y013726D01*
X015898Y013731D01*
X015855Y013740D01*
X015812Y013752D01*
X015771Y013769D01*
X015731Y013788D01*
X015694Y013812D01*
X015658Y013838D01*
X015625Y013868D01*
X015595Y013900D01*
X015568Y013935D01*
X015544Y013972D01*
X015523Y014011D01*
X015506Y014052D01*
X015493Y014094D01*
X015483Y014137D01*
X015477Y014181D01*
X015475Y014225D01*
X015475Y013225D02*
X015477Y013269D01*
X015483Y013313D01*
X015493Y013356D01*
X015506Y013398D01*
X015523Y013439D01*
X015544Y013478D01*
X015568Y013515D01*
X015595Y013550D01*
X015625Y013582D01*
X015658Y013612D01*
X015694Y013638D01*
X015731Y013662D01*
X015771Y013681D01*
X015812Y013698D01*
X015855Y013710D01*
X015898Y013719D01*
X015942Y013724D01*
X015986Y013725D01*
X016030Y013722D01*
X016074Y013715D01*
X016117Y013704D01*
X016159Y013690D01*
X016199Y013672D01*
X016238Y013650D01*
X016274Y013626D01*
X016308Y013598D01*
X016340Y013567D01*
X016369Y013533D01*
X016395Y013497D01*
X016417Y013459D01*
X016436Y013419D01*
X016451Y013377D01*
X016463Y013335D01*
X016471Y013291D01*
X016475Y013247D01*
X016475Y013203D01*
X016471Y013159D01*
X016463Y013115D01*
X016451Y013073D01*
X016436Y013031D01*
X016417Y012991D01*
X016395Y012953D01*
X016369Y012917D01*
X016340Y012883D01*
X016308Y012852D01*
X016274Y012824D01*
X016238Y012800D01*
X016199Y012778D01*
X016159Y012760D01*
X016117Y012746D01*
X016074Y012735D01*
X016030Y012728D01*
X015986Y012725D01*
X015942Y012726D01*
X015898Y012731D01*
X015855Y012740D01*
X015812Y012752D01*
X015771Y012769D01*
X015731Y012788D01*
X015694Y012812D01*
X015658Y012838D01*
X015625Y012868D01*
X015595Y012900D01*
X015568Y012935D01*
X015544Y012972D01*
X015523Y013011D01*
X015506Y013052D01*
X015493Y013094D01*
X015483Y013137D01*
X015477Y013181D01*
X015475Y013225D01*
X014475Y012600D02*
X014477Y012644D01*
X014483Y012688D01*
X014493Y012731D01*
X014506Y012773D01*
X014523Y012814D01*
X014544Y012853D01*
X014568Y012890D01*
X014595Y012925D01*
X014625Y012957D01*
X014658Y012987D01*
X014694Y013013D01*
X014731Y013037D01*
X014771Y013056D01*
X014812Y013073D01*
X014855Y013085D01*
X014898Y013094D01*
X014942Y013099D01*
X014986Y013100D01*
X015030Y013097D01*
X015074Y013090D01*
X015117Y013079D01*
X015159Y013065D01*
X015199Y013047D01*
X015238Y013025D01*
X015274Y013001D01*
X015308Y012973D01*
X015340Y012942D01*
X015369Y012908D01*
X015395Y012872D01*
X015417Y012834D01*
X015436Y012794D01*
X015451Y012752D01*
X015463Y012710D01*
X015471Y012666D01*
X015475Y012622D01*
X015475Y012578D01*
X015471Y012534D01*
X015463Y012490D01*
X015451Y012448D01*
X015436Y012406D01*
X015417Y012366D01*
X015395Y012328D01*
X015369Y012292D01*
X015340Y012258D01*
X015308Y012227D01*
X015274Y012199D01*
X015238Y012175D01*
X015199Y012153D01*
X015159Y012135D01*
X015117Y012121D01*
X015074Y012110D01*
X015030Y012103D01*
X014986Y012100D01*
X014942Y012101D01*
X014898Y012106D01*
X014855Y012115D01*
X014812Y012127D01*
X014771Y012144D01*
X014731Y012163D01*
X014694Y012187D01*
X014658Y012213D01*
X014625Y012243D01*
X014595Y012275D01*
X014568Y012310D01*
X014544Y012347D01*
X014523Y012386D01*
X014506Y012427D01*
X014493Y012469D01*
X014483Y012512D01*
X014477Y012556D01*
X014475Y012600D01*
X013475Y012600D02*
X013477Y012644D01*
X013483Y012688D01*
X013493Y012731D01*
X013506Y012773D01*
X013523Y012814D01*
X013544Y012853D01*
X013568Y012890D01*
X013595Y012925D01*
X013625Y012957D01*
X013658Y012987D01*
X013694Y013013D01*
X013731Y013037D01*
X013771Y013056D01*
X013812Y013073D01*
X013855Y013085D01*
X013898Y013094D01*
X013942Y013099D01*
X013986Y013100D01*
X014030Y013097D01*
X014074Y013090D01*
X014117Y013079D01*
X014159Y013065D01*
X014199Y013047D01*
X014238Y013025D01*
X014274Y013001D01*
X014308Y012973D01*
X014340Y012942D01*
X014369Y012908D01*
X014395Y012872D01*
X014417Y012834D01*
X014436Y012794D01*
X014451Y012752D01*
X014463Y012710D01*
X014471Y012666D01*
X014475Y012622D01*
X014475Y012578D01*
X014471Y012534D01*
X014463Y012490D01*
X014451Y012448D01*
X014436Y012406D01*
X014417Y012366D01*
X014395Y012328D01*
X014369Y012292D01*
X014340Y012258D01*
X014308Y012227D01*
X014274Y012199D01*
X014238Y012175D01*
X014199Y012153D01*
X014159Y012135D01*
X014117Y012121D01*
X014074Y012110D01*
X014030Y012103D01*
X013986Y012100D01*
X013942Y012101D01*
X013898Y012106D01*
X013855Y012115D01*
X013812Y012127D01*
X013771Y012144D01*
X013731Y012163D01*
X013694Y012187D01*
X013658Y012213D01*
X013625Y012243D01*
X013595Y012275D01*
X013568Y012310D01*
X013544Y012347D01*
X013523Y012386D01*
X013506Y012427D01*
X013493Y012469D01*
X013483Y012512D01*
X013477Y012556D01*
X013475Y012600D01*
X011300Y010750D02*
X011300Y009950D01*
X011298Y009933D01*
X011294Y009916D01*
X011287Y009900D01*
X011277Y009886D01*
X011264Y009873D01*
X011250Y009863D01*
X011234Y009856D01*
X011217Y009852D01*
X011200Y009850D01*
X008500Y009850D01*
X008483Y009852D01*
X008466Y009856D01*
X008450Y009863D01*
X008436Y009873D01*
X008423Y009886D01*
X008413Y009900D01*
X008406Y009916D01*
X008402Y009933D01*
X008400Y009950D01*
X008400Y010750D01*
X008402Y010767D01*
X008406Y010784D01*
X008413Y010800D01*
X008423Y010814D01*
X008436Y010827D01*
X008450Y010837D01*
X008466Y010844D01*
X008483Y010848D01*
X008500Y010850D01*
X011200Y010850D01*
X011217Y010848D01*
X011234Y010844D01*
X011250Y010837D01*
X011264Y010827D01*
X011277Y010814D01*
X011287Y010800D01*
X011294Y010784D01*
X011298Y010767D01*
X011300Y010750D01*
X010975Y011100D02*
X010975Y015100D01*
X008975Y015100D01*
X008975Y011100D01*
X009725Y011100D01*
X009727Y011130D01*
X009732Y011160D01*
X009741Y011189D01*
X009754Y011216D01*
X009769Y011242D01*
X009788Y011266D01*
X009809Y011287D01*
X009833Y011306D01*
X009859Y011321D01*
X009886Y011334D01*
X009915Y011343D01*
X009945Y011348D01*
X009975Y011350D01*
X010005Y011348D01*
X010035Y011343D01*
X010064Y011334D01*
X010091Y011321D01*
X010117Y011306D01*
X010141Y011287D01*
X010162Y011266D01*
X010181Y011242D01*
X010196Y011216D01*
X010209Y011189D01*
X010218Y011160D01*
X010223Y011130D01*
X010225Y011100D01*
X010975Y011100D01*
X010450Y010350D02*
X009970Y010350D01*
X009720Y010350D02*
X009250Y010350D01*
X008975Y009225D02*
X008977Y009269D01*
X008983Y009313D01*
X008993Y009356D01*
X009006Y009398D01*
X009023Y009439D01*
X009044Y009478D01*
X009068Y009515D01*
X009095Y009550D01*
X009125Y009582D01*
X009158Y009612D01*
X009194Y009638D01*
X009231Y009662D01*
X009271Y009681D01*
X009312Y009698D01*
X009355Y009710D01*
X009398Y009719D01*
X009442Y009724D01*
X009486Y009725D01*
X009530Y009722D01*
X009574Y009715D01*
X009617Y009704D01*
X009659Y009690D01*
X009699Y009672D01*
X009738Y009650D01*
X009774Y009626D01*
X009808Y009598D01*
X009840Y009567D01*
X009869Y009533D01*
X009895Y009497D01*
X009917Y009459D01*
X009936Y009419D01*
X009951Y009377D01*
X009963Y009335D01*
X009971Y009291D01*
X009975Y009247D01*
X009975Y009203D01*
X009971Y009159D01*
X009963Y009115D01*
X009951Y009073D01*
X009936Y009031D01*
X009917Y008991D01*
X009895Y008953D01*
X009869Y008917D01*
X009840Y008883D01*
X009808Y008852D01*
X009774Y008824D01*
X009738Y008800D01*
X009699Y008778D01*
X009659Y008760D01*
X009617Y008746D01*
X009574Y008735D01*
X009530Y008728D01*
X009486Y008725D01*
X009442Y008726D01*
X009398Y008731D01*
X009355Y008740D01*
X009312Y008752D01*
X009271Y008769D01*
X009231Y008788D01*
X009194Y008812D01*
X009158Y008838D01*
X009125Y008868D01*
X009095Y008900D01*
X009068Y008935D01*
X009044Y008972D01*
X009023Y009011D01*
X009006Y009052D01*
X008993Y009094D01*
X008983Y009137D01*
X008977Y009181D01*
X008975Y009225D01*
X007100Y009600D02*
X007102Y009644D01*
X007108Y009688D01*
X007118Y009731D01*
X007131Y009773D01*
X007148Y009814D01*
X007169Y009853D01*
X007193Y009890D01*
X007220Y009925D01*
X007250Y009957D01*
X007283Y009987D01*
X007319Y010013D01*
X007356Y010037D01*
X007396Y010056D01*
X007437Y010073D01*
X007480Y010085D01*
X007523Y010094D01*
X007567Y010099D01*
X007611Y010100D01*
X007655Y010097D01*
X007699Y010090D01*
X007742Y010079D01*
X007784Y010065D01*
X007824Y010047D01*
X007863Y010025D01*
X007899Y010001D01*
X007933Y009973D01*
X007965Y009942D01*
X007994Y009908D01*
X008020Y009872D01*
X008042Y009834D01*
X008061Y009794D01*
X008076Y009752D01*
X008088Y009710D01*
X008096Y009666D01*
X008100Y009622D01*
X008100Y009578D01*
X008096Y009534D01*
X008088Y009490D01*
X008076Y009448D01*
X008061Y009406D01*
X008042Y009366D01*
X008020Y009328D01*
X007994Y009292D01*
X007965Y009258D01*
X007933Y009227D01*
X007899Y009199D01*
X007863Y009175D01*
X007824Y009153D01*
X007784Y009135D01*
X007742Y009121D01*
X007699Y009110D01*
X007655Y009103D01*
X007611Y009100D01*
X007567Y009101D01*
X007523Y009106D01*
X007480Y009115D01*
X007437Y009127D01*
X007396Y009144D01*
X007356Y009163D01*
X007319Y009187D01*
X007283Y009213D01*
X007250Y009243D01*
X007220Y009275D01*
X007193Y009310D01*
X007169Y009347D01*
X007148Y009386D01*
X007131Y009427D01*
X007118Y009469D01*
X007108Y009512D01*
X007102Y009556D01*
X007100Y009600D01*
X006850Y008475D02*
X006852Y008519D01*
X006858Y008563D01*
X006868Y008606D01*
X006881Y008648D01*
X006898Y008689D01*
X006919Y008728D01*
X006943Y008765D01*
X006970Y008800D01*
X007000Y008832D01*
X007033Y008862D01*
X007069Y008888D01*
X007106Y008912D01*
X007146Y008931D01*
X007187Y008948D01*
X007230Y008960D01*
X007273Y008969D01*
X007317Y008974D01*
X007361Y008975D01*
X007405Y008972D01*
X007449Y008965D01*
X007492Y008954D01*
X007534Y008940D01*
X007574Y008922D01*
X007613Y008900D01*
X007649Y008876D01*
X007683Y008848D01*
X007715Y008817D01*
X007744Y008783D01*
X007770Y008747D01*
X007792Y008709D01*
X007811Y008669D01*
X007826Y008627D01*
X007838Y008585D01*
X007846Y008541D01*
X007850Y008497D01*
X007850Y008453D01*
X007846Y008409D01*
X007838Y008365D01*
X007826Y008323D01*
X007811Y008281D01*
X007792Y008241D01*
X007770Y008203D01*
X007744Y008167D01*
X007715Y008133D01*
X007683Y008102D01*
X007649Y008074D01*
X007613Y008050D01*
X007574Y008028D01*
X007534Y008010D01*
X007492Y007996D01*
X007449Y007985D01*
X007405Y007978D01*
X007361Y007975D01*
X007317Y007976D01*
X007273Y007981D01*
X007230Y007990D01*
X007187Y008002D01*
X007146Y008019D01*
X007106Y008038D01*
X007069Y008062D01*
X007033Y008088D01*
X007000Y008118D01*
X006970Y008150D01*
X006943Y008185D01*
X006919Y008222D01*
X006898Y008261D01*
X006881Y008302D01*
X006868Y008344D01*
X006858Y008387D01*
X006852Y008431D01*
X006850Y008475D01*
X006175Y008400D02*
X006175Y004800D01*
X004775Y004800D01*
X004775Y008400D01*
X006175Y008400D01*
X004575Y007600D02*
X004573Y007553D01*
X004567Y007505D01*
X004558Y007459D01*
X004545Y007413D01*
X004529Y007369D01*
X004508Y007325D01*
X004485Y007284D01*
X004459Y007245D01*
X004429Y007208D01*
X004396Y007173D01*
X004361Y007141D01*
X004324Y007112D01*
X003375Y007600D02*
X003377Y007645D01*
X003382Y007691D01*
X003390Y007735D01*
X003402Y007779D01*
X003418Y007822D01*
X003436Y007864D01*
X003458Y007904D01*
X003482Y007942D01*
X003509Y007978D01*
X003539Y008013D01*
X003572Y008044D01*
X003607Y008074D01*
X003070Y008182D02*
X002856Y007969D01*
X002856Y008075D02*
X002750Y008182D01*
X002536Y008182D01*
X002429Y008075D01*
X002429Y007755D01*
X003070Y007755D01*
X002856Y007755D02*
X002856Y008075D01*
X002225Y007850D02*
X001975Y007600D01*
X002225Y007350D01*
X002225Y006850D01*
X001975Y006600D01*
X001475Y006600D01*
X001225Y006850D01*
X001225Y007350D01*
X001475Y007600D01*
X001225Y007850D01*
X001225Y008350D01*
X001475Y008600D01*
X001225Y008850D01*
X001225Y009350D01*
X001475Y009600D01*
X001975Y009600D01*
X002225Y009350D01*
X002225Y008850D01*
X001975Y008600D01*
X002225Y008350D01*
X002225Y007850D01*
X002536Y007182D02*
X002429Y007075D01*
X002429Y006862D01*
X002536Y006755D01*
X002963Y006755D01*
X003070Y006862D01*
X003070Y007075D01*
X002963Y007182D01*
X002536Y007182D01*
X001975Y006100D02*
X001475Y006100D01*
X001225Y005850D01*
X001225Y005350D01*
X001475Y005100D01*
X001225Y004850D01*
X001225Y004350D01*
X001475Y004100D01*
X001225Y003850D01*
X001225Y003350D01*
X001475Y003100D01*
X001975Y003100D01*
X002225Y003350D01*
X002225Y003850D01*
X001975Y004100D01*
X002225Y004350D01*
X002225Y004850D01*
X001975Y005100D01*
X002225Y005350D01*
X002225Y005850D01*
X001975Y006100D01*
X002429Y005575D02*
X002536Y005682D01*
X002643Y005682D01*
X002750Y005575D01*
X002750Y005255D01*
X003070Y005255D02*
X002429Y005255D01*
X002429Y005575D01*
X002750Y005575D02*
X002856Y005682D01*
X002963Y005682D01*
X003070Y005575D01*
X003070Y005255D01*
X003070Y004682D02*
X002856Y004469D01*
X002856Y004575D02*
X002856Y004255D01*
X003070Y004255D02*
X002429Y004255D01*
X002429Y004575D01*
X002536Y004682D01*
X002750Y004682D01*
X002856Y004575D01*
X003725Y004480D02*
X003725Y004000D01*
X003070Y003575D02*
X002963Y003682D01*
X002536Y003682D01*
X002429Y003575D01*
X002429Y003362D01*
X002536Y003255D01*
X002963Y003255D01*
X003070Y003362D01*
X003070Y003575D01*
X003225Y003250D02*
X003225Y005950D01*
X003227Y005967D01*
X003231Y005984D01*
X003238Y006000D01*
X003248Y006014D01*
X003261Y006027D01*
X003275Y006037D01*
X003291Y006044D01*
X003308Y006048D01*
X003325Y006050D01*
X004125Y006050D01*
X004142Y006048D01*
X004159Y006044D01*
X004175Y006037D01*
X004189Y006027D01*
X004202Y006014D01*
X004212Y006000D01*
X004219Y005984D01*
X004223Y005967D01*
X004225Y005950D01*
X004225Y003250D01*
X004223Y003233D01*
X004219Y003216D01*
X004212Y003200D01*
X004202Y003186D01*
X004189Y003173D01*
X004175Y003163D01*
X004159Y003156D01*
X004142Y003152D01*
X004125Y003150D01*
X003325Y003150D01*
X003308Y003152D01*
X003291Y003156D01*
X003275Y003163D01*
X003261Y003173D01*
X003248Y003186D01*
X003238Y003200D01*
X003231Y003216D01*
X003227Y003233D01*
X003225Y003250D01*
X003725Y002475D02*
X003475Y002225D01*
X003475Y001725D01*
X003725Y001475D01*
X004225Y001475D01*
X004475Y001725D01*
X004725Y001475D01*
X005225Y001475D01*
X005475Y001725D01*
X005725Y001475D01*
X006225Y001475D01*
X006475Y001725D01*
X006475Y002225D01*
X006225Y002475D01*
X005725Y002475D01*
X005475Y002225D01*
X005225Y002475D01*
X004725Y002475D01*
X004475Y002225D01*
X004225Y002475D01*
X003725Y002475D01*
X003693Y001146D02*
X003693Y000825D01*
X003906Y000932D01*
X004013Y000932D01*
X004120Y000825D01*
X004120Y000612D01*
X004013Y000505D01*
X003799Y000505D01*
X003693Y000612D01*
X003693Y001146D02*
X004120Y001146D01*
X004755Y001039D02*
X004755Y000612D01*
X005182Y001039D01*
X005182Y000612D01*
X005075Y000505D01*
X004862Y000505D01*
X004755Y000612D01*
X004755Y001039D02*
X004862Y001146D01*
X005075Y001146D01*
X005182Y001039D01*
X001045Y003139D02*
X000938Y003032D01*
X001045Y003139D02*
X001045Y003353D01*
X000938Y003459D01*
X000831Y003459D01*
X000725Y003353D01*
X000725Y003139D01*
X000618Y003032D01*
X000511Y003032D01*
X000404Y003139D01*
X000404Y003353D01*
X000511Y003459D01*
X000404Y003677D02*
X001045Y003677D01*
X001045Y004104D01*
X001045Y004321D02*
X000404Y004321D01*
X000404Y004642D01*
X000511Y004748D01*
X000725Y004748D01*
X000831Y004642D01*
X000831Y004321D01*
X000831Y004535D02*
X001045Y004748D01*
X000831Y004966D02*
X001045Y005179D01*
X000831Y005393D01*
X000404Y005393D01*
X000511Y005610D02*
X000938Y005610D01*
X001045Y005717D01*
X001045Y005931D01*
X000938Y006037D01*
X000511Y006037D01*
X000404Y005931D01*
X000404Y005717D01*
X000511Y005610D01*
X000404Y004966D02*
X000831Y004966D01*
X000404Y004104D02*
X000404Y003677D01*
X000725Y003677D02*
X000725Y003890D01*
X003725Y004730D02*
X003725Y005200D01*
X004575Y007600D02*
X004573Y007646D01*
X004568Y007692D01*
X004559Y007738D01*
X004547Y007783D01*
X004531Y007826D01*
X004512Y007868D01*
X004489Y007909D01*
X004464Y007948D01*
X004436Y007984D01*
X004405Y008019D01*
X004371Y008051D01*
X004335Y008080D01*
X003375Y007600D02*
X003377Y007555D01*
X003382Y007509D01*
X003390Y007465D01*
X003402Y007421D01*
X003418Y007378D01*
X003436Y007336D01*
X003458Y007296D01*
X003482Y007258D01*
X003509Y007222D01*
X003539Y007187D01*
X003572Y007156D01*
X003607Y007126D01*
X003070Y008880D02*
X002429Y008880D01*
X002429Y009200D01*
X002536Y009307D01*
X002643Y009307D01*
X002750Y009200D01*
X002750Y008880D01*
X003070Y008880D02*
X003070Y009200D01*
X002963Y009307D01*
X002856Y009307D01*
X002750Y009200D01*
X002225Y010225D02*
X002227Y010269D01*
X002233Y010313D01*
X002243Y010356D01*
X002256Y010398D01*
X002273Y010439D01*
X002294Y010478D01*
X002318Y010515D01*
X002345Y010550D01*
X002375Y010582D01*
X002408Y010612D01*
X002444Y010638D01*
X002481Y010662D01*
X002521Y010681D01*
X002562Y010698D01*
X002605Y010710D01*
X002648Y010719D01*
X002692Y010724D01*
X002736Y010725D01*
X002780Y010722D01*
X002824Y010715D01*
X002867Y010704D01*
X002909Y010690D01*
X002949Y010672D01*
X002988Y010650D01*
X003024Y010626D01*
X003058Y010598D01*
X003090Y010567D01*
X003119Y010533D01*
X003145Y010497D01*
X003167Y010459D01*
X003186Y010419D01*
X003201Y010377D01*
X003213Y010335D01*
X003221Y010291D01*
X003225Y010247D01*
X003225Y010203D01*
X003221Y010159D01*
X003213Y010115D01*
X003201Y010073D01*
X003186Y010031D01*
X003167Y009991D01*
X003145Y009953D01*
X003119Y009917D01*
X003090Y009883D01*
X003058Y009852D01*
X003024Y009824D01*
X002988Y009800D01*
X002949Y009778D01*
X002909Y009760D01*
X002867Y009746D01*
X002824Y009735D01*
X002780Y009728D01*
X002736Y009725D01*
X002692Y009726D01*
X002648Y009731D01*
X002605Y009740D01*
X002562Y009752D01*
X002521Y009769D01*
X002481Y009788D01*
X002444Y009812D01*
X002408Y009838D01*
X002375Y009868D01*
X002345Y009900D01*
X002318Y009935D01*
X002294Y009972D01*
X002273Y010011D01*
X002256Y010052D01*
X002243Y010094D01*
X002233Y010137D01*
X002227Y010181D01*
X002225Y010225D01*
X002625Y010875D02*
X002625Y011575D01*
X003825Y011575D01*
X003825Y010875D01*
X002625Y010875D01*
X002875Y011025D02*
X003275Y011225D01*
X003275Y011025D01*
X003175Y011025D01*
X003275Y011225D02*
X003275Y011425D01*
X003275Y011225D02*
X002725Y011225D01*
X002875Y011025D02*
X002875Y011425D01*
X003275Y011225D01*
X003425Y011225D01*
X003475Y012225D02*
X003477Y012269D01*
X003483Y012313D01*
X003493Y012356D01*
X003506Y012398D01*
X003523Y012439D01*
X003544Y012478D01*
X003568Y012515D01*
X003595Y012550D01*
X003625Y012582D01*
X003658Y012612D01*
X003694Y012638D01*
X003731Y012662D01*
X003771Y012681D01*
X003812Y012698D01*
X003855Y012710D01*
X003898Y012719D01*
X003942Y012724D01*
X003986Y012725D01*
X004030Y012722D01*
X004074Y012715D01*
X004117Y012704D01*
X004159Y012690D01*
X004199Y012672D01*
X004238Y012650D01*
X004274Y012626D01*
X004308Y012598D01*
X004340Y012567D01*
X004369Y012533D01*
X004395Y012497D01*
X004417Y012459D01*
X004436Y012419D01*
X004451Y012377D01*
X004463Y012335D01*
X004471Y012291D01*
X004475Y012247D01*
X004475Y012203D01*
X004471Y012159D01*
X004463Y012115D01*
X004451Y012073D01*
X004436Y012031D01*
X004417Y011991D01*
X004395Y011953D01*
X004369Y011917D01*
X004340Y011883D01*
X004308Y011852D01*
X004274Y011824D01*
X004238Y011800D01*
X004199Y011778D01*
X004159Y011760D01*
X004117Y011746D01*
X004074Y011735D01*
X004030Y011728D01*
X003986Y011725D01*
X003942Y011726D01*
X003898Y011731D01*
X003855Y011740D01*
X003812Y011752D01*
X003771Y011769D01*
X003731Y011788D01*
X003694Y011812D01*
X003658Y011838D01*
X003625Y011868D01*
X003595Y011900D01*
X003568Y011935D01*
X003544Y011972D01*
X003523Y012011D01*
X003506Y012052D01*
X003493Y012094D01*
X003483Y012137D01*
X003477Y012181D01*
X003475Y012225D01*
X003475Y013225D02*
X003477Y013269D01*
X003483Y013313D01*
X003493Y013356D01*
X003506Y013398D01*
X003523Y013439D01*
X003544Y013478D01*
X003568Y013515D01*
X003595Y013550D01*
X003625Y013582D01*
X003658Y013612D01*
X003694Y013638D01*
X003731Y013662D01*
X003771Y013681D01*
X003812Y013698D01*
X003855Y013710D01*
X003898Y013719D01*
X003942Y013724D01*
X003986Y013725D01*
X004030Y013722D01*
X004074Y013715D01*
X004117Y013704D01*
X004159Y013690D01*
X004199Y013672D01*
X004238Y013650D01*
X004274Y013626D01*
X004308Y013598D01*
X004340Y013567D01*
X004369Y013533D01*
X004395Y013497D01*
X004417Y013459D01*
X004436Y013419D01*
X004451Y013377D01*
X004463Y013335D01*
X004471Y013291D01*
X004475Y013247D01*
X004475Y013203D01*
X004471Y013159D01*
X004463Y013115D01*
X004451Y013073D01*
X004436Y013031D01*
X004417Y012991D01*
X004395Y012953D01*
X004369Y012917D01*
X004340Y012883D01*
X004308Y012852D01*
X004274Y012824D01*
X004238Y012800D01*
X004199Y012778D01*
X004159Y012760D01*
X004117Y012746D01*
X004074Y012735D01*
X004030Y012728D01*
X003986Y012725D01*
X003942Y012726D01*
X003898Y012731D01*
X003855Y012740D01*
X003812Y012752D01*
X003771Y012769D01*
X003731Y012788D01*
X003694Y012812D01*
X003658Y012838D01*
X003625Y012868D01*
X003595Y012900D01*
X003568Y012935D01*
X003544Y012972D01*
X003523Y013011D01*
X003506Y013052D01*
X003493Y013094D01*
X003483Y013137D01*
X003477Y013181D01*
X003475Y013225D01*
X003475Y014225D02*
X003477Y014269D01*
X003483Y014313D01*
X003493Y014356D01*
X003506Y014398D01*
X003523Y014439D01*
X003544Y014478D01*
X003568Y014515D01*
X003595Y014550D01*
X003625Y014582D01*
X003658Y014612D01*
X003694Y014638D01*
X003731Y014662D01*
X003771Y014681D01*
X003812Y014698D01*
X003855Y014710D01*
X003898Y014719D01*
X003942Y014724D01*
X003986Y014725D01*
X004030Y014722D01*
X004074Y014715D01*
X004117Y014704D01*
X004159Y014690D01*
X004199Y014672D01*
X004238Y014650D01*
X004274Y014626D01*
X004308Y014598D01*
X004340Y014567D01*
X004369Y014533D01*
X004395Y014497D01*
X004417Y014459D01*
X004436Y014419D01*
X004451Y014377D01*
X004463Y014335D01*
X004471Y014291D01*
X004475Y014247D01*
X004475Y014203D01*
X004471Y014159D01*
X004463Y014115D01*
X004451Y014073D01*
X004436Y014031D01*
X004417Y013991D01*
X004395Y013953D01*
X004369Y013917D01*
X004340Y013883D01*
X004308Y013852D01*
X004274Y013824D01*
X004238Y013800D01*
X004199Y013778D01*
X004159Y013760D01*
X004117Y013746D01*
X004074Y013735D01*
X004030Y013728D01*
X003986Y013725D01*
X003942Y013726D01*
X003898Y013731D01*
X003855Y013740D01*
X003812Y013752D01*
X003771Y013769D01*
X003731Y013788D01*
X003694Y013812D01*
X003658Y013838D01*
X003625Y013868D01*
X003595Y013900D01*
X003568Y013935D01*
X003544Y013972D01*
X003523Y014011D01*
X003506Y014052D01*
X003493Y014094D01*
X003483Y014137D01*
X003477Y014181D01*
X003475Y014225D01*
X002225Y013975D02*
X001975Y013725D01*
X002225Y013475D01*
X002225Y012975D01*
X001975Y012725D01*
X002225Y012475D01*
X002225Y011975D01*
X001975Y011725D01*
X001475Y011725D01*
X001225Y011975D01*
X001225Y012475D01*
X001475Y012725D01*
X001225Y012975D01*
X001225Y013475D01*
X001475Y013725D01*
X001225Y013975D01*
X001225Y014475D01*
X001475Y014725D01*
X001975Y014725D01*
X002225Y014475D01*
X002225Y013975D01*
X001070Y014174D02*
X000429Y014174D01*
X000429Y014387D02*
X000429Y013960D01*
X000536Y013743D02*
X000429Y013636D01*
X000429Y013422D01*
X000536Y013316D01*
X000643Y013316D01*
X000750Y013422D01*
X000750Y013636D01*
X000856Y013743D01*
X000963Y013743D01*
X001070Y013636D01*
X001070Y013422D01*
X000963Y013316D01*
X000963Y013100D02*
X001070Y013100D01*
X001070Y012993D01*
X000963Y012993D01*
X000963Y013100D01*
X001070Y012776D02*
X000429Y012776D01*
X000429Y012349D02*
X001070Y012776D01*
X001070Y012349D02*
X000429Y012349D01*
X000536Y012131D02*
X000429Y012025D01*
X000429Y011811D01*
X000536Y011704D01*
X000963Y011704D01*
X001070Y011811D01*
X001070Y012025D01*
X000963Y012131D01*
X000750Y012131D01*
X000750Y011918D01*
X001070Y011488D02*
X001070Y011275D01*
X001070Y011381D02*
X000429Y011381D01*
X000429Y011275D02*
X000429Y011488D01*
X000536Y011057D02*
X000429Y010950D01*
X000429Y010737D01*
X000536Y010630D01*
X000643Y010630D01*
X000750Y010737D01*
X000750Y010950D01*
X000856Y011057D01*
X000963Y011057D01*
X001070Y010950D01*
X001070Y010737D01*
X000963Y010630D01*
X000938Y009662D02*
X000511Y009662D01*
X000404Y009556D01*
X000404Y009342D01*
X000511Y009235D01*
X000938Y009235D01*
X001045Y009342D01*
X001045Y009556D01*
X000938Y009662D01*
X000831Y009018D02*
X000404Y009018D01*
X000831Y009018D02*
X001045Y008804D01*
X000831Y008591D01*
X000404Y008591D01*
X000511Y008373D02*
X000725Y008373D01*
X000831Y008267D01*
X000831Y007946D01*
X000831Y008160D02*
X001045Y008373D01*
X001045Y007946D02*
X000404Y007946D01*
X000404Y008267D01*
X000511Y008373D01*
X000404Y007729D02*
X000404Y007302D01*
X001045Y007302D01*
X001045Y007729D01*
X000725Y007515D02*
X000725Y007302D01*
X000831Y007084D02*
X000938Y007084D01*
X001045Y006978D01*
X001045Y006764D01*
X000938Y006657D01*
X000725Y006764D02*
X000725Y006978D01*
X000831Y007084D01*
X000511Y007084D02*
X000404Y006978D01*
X000404Y006764D01*
X000511Y006657D01*
X000618Y006657D01*
X000725Y006764D01*
X003475Y009975D02*
X003477Y010019D01*
X003483Y010063D01*
X003493Y010106D01*
X003506Y010148D01*
X003523Y010189D01*
X003544Y010228D01*
X003568Y010265D01*
X003595Y010300D01*
X003625Y010332D01*
X003658Y010362D01*
X003694Y010388D01*
X003731Y010412D01*
X003771Y010431D01*
X003812Y010448D01*
X003855Y010460D01*
X003898Y010469D01*
X003942Y010474D01*
X003986Y010475D01*
X004030Y010472D01*
X004074Y010465D01*
X004117Y010454D01*
X004159Y010440D01*
X004199Y010422D01*
X004238Y010400D01*
X004274Y010376D01*
X004308Y010348D01*
X004340Y010317D01*
X004369Y010283D01*
X004395Y010247D01*
X004417Y010209D01*
X004436Y010169D01*
X004451Y010127D01*
X004463Y010085D01*
X004471Y010041D01*
X004475Y009997D01*
X004475Y009953D01*
X004471Y009909D01*
X004463Y009865D01*
X004451Y009823D01*
X004436Y009781D01*
X004417Y009741D01*
X004395Y009703D01*
X004369Y009667D01*
X004340Y009633D01*
X004308Y009602D01*
X004274Y009574D01*
X004238Y009550D01*
X004199Y009528D01*
X004159Y009510D01*
X004117Y009496D01*
X004074Y009485D01*
X004030Y009478D01*
X003986Y009475D01*
X003942Y009476D01*
X003898Y009481D01*
X003855Y009490D01*
X003812Y009502D01*
X003771Y009519D01*
X003731Y009538D01*
X003694Y009562D01*
X003658Y009588D01*
X003625Y009618D01*
X003595Y009650D01*
X003568Y009685D01*
X003544Y009722D01*
X003523Y009761D01*
X003506Y009802D01*
X003493Y009844D01*
X003483Y009887D01*
X003477Y009931D01*
X003475Y009975D01*
X004475Y012225D02*
X004477Y012269D01*
X004483Y012313D01*
X004493Y012356D01*
X004506Y012398D01*
X004523Y012439D01*
X004544Y012478D01*
X004568Y012515D01*
X004595Y012550D01*
X004625Y012582D01*
X004658Y012612D01*
X004694Y012638D01*
X004731Y012662D01*
X004771Y012681D01*
X004812Y012698D01*
X004855Y012710D01*
X004898Y012719D01*
X004942Y012724D01*
X004986Y012725D01*
X005030Y012722D01*
X005074Y012715D01*
X005117Y012704D01*
X005159Y012690D01*
X005199Y012672D01*
X005238Y012650D01*
X005274Y012626D01*
X005308Y012598D01*
X005340Y012567D01*
X005369Y012533D01*
X005395Y012497D01*
X005417Y012459D01*
X005436Y012419D01*
X005451Y012377D01*
X005463Y012335D01*
X005471Y012291D01*
X005475Y012247D01*
X005475Y012203D01*
X005471Y012159D01*
X005463Y012115D01*
X005451Y012073D01*
X005436Y012031D01*
X005417Y011991D01*
X005395Y011953D01*
X005369Y011917D01*
X005340Y011883D01*
X005308Y011852D01*
X005274Y011824D01*
X005238Y011800D01*
X005199Y011778D01*
X005159Y011760D01*
X005117Y011746D01*
X005074Y011735D01*
X005030Y011728D01*
X004986Y011725D01*
X004942Y011726D01*
X004898Y011731D01*
X004855Y011740D01*
X004812Y011752D01*
X004771Y011769D01*
X004731Y011788D01*
X004694Y011812D01*
X004658Y011838D01*
X004625Y011868D01*
X004595Y011900D01*
X004568Y011935D01*
X004544Y011972D01*
X004523Y012011D01*
X004506Y012052D01*
X004493Y012094D01*
X004483Y012137D01*
X004477Y012181D01*
X004475Y012225D01*
X004475Y013225D02*
X004477Y013269D01*
X004483Y013313D01*
X004493Y013356D01*
X004506Y013398D01*
X004523Y013439D01*
X004544Y013478D01*
X004568Y013515D01*
X004595Y013550D01*
X004625Y013582D01*
X004658Y013612D01*
X004694Y013638D01*
X004731Y013662D01*
X004771Y013681D01*
X004812Y013698D01*
X004855Y013710D01*
X004898Y013719D01*
X004942Y013724D01*
X004986Y013725D01*
X005030Y013722D01*
X005074Y013715D01*
X005117Y013704D01*
X005159Y013690D01*
X005199Y013672D01*
X005238Y013650D01*
X005274Y013626D01*
X005308Y013598D01*
X005340Y013567D01*
X005369Y013533D01*
X005395Y013497D01*
X005417Y013459D01*
X005436Y013419D01*
X005451Y013377D01*
X005463Y013335D01*
X005471Y013291D01*
X005475Y013247D01*
X005475Y013203D01*
X005471Y013159D01*
X005463Y013115D01*
X005451Y013073D01*
X005436Y013031D01*
X005417Y012991D01*
X005395Y012953D01*
X005369Y012917D01*
X005340Y012883D01*
X005308Y012852D01*
X005274Y012824D01*
X005238Y012800D01*
X005199Y012778D01*
X005159Y012760D01*
X005117Y012746D01*
X005074Y012735D01*
X005030Y012728D01*
X004986Y012725D01*
X004942Y012726D01*
X004898Y012731D01*
X004855Y012740D01*
X004812Y012752D01*
X004771Y012769D01*
X004731Y012788D01*
X004694Y012812D01*
X004658Y012838D01*
X004625Y012868D01*
X004595Y012900D01*
X004568Y012935D01*
X004544Y012972D01*
X004523Y013011D01*
X004506Y013052D01*
X004493Y013094D01*
X004483Y013137D01*
X004477Y013181D01*
X004475Y013225D01*
X004225Y015475D02*
X003725Y015475D01*
X003475Y015725D01*
X003475Y016225D01*
X003725Y016475D01*
X004225Y016475D01*
X004475Y016225D01*
X004725Y016475D01*
X005225Y016475D01*
X005475Y016225D01*
X005725Y016475D01*
X006225Y016475D01*
X006475Y016225D01*
X006475Y015725D01*
X006225Y015475D01*
X005725Y015475D01*
X005475Y015725D01*
X005225Y015475D01*
X004725Y015475D01*
X004475Y015725D01*
X004225Y015475D01*
X006975Y015975D02*
X006975Y016475D01*
X007225Y016725D01*
X007725Y016725D01*
X007975Y016475D01*
X008225Y016725D01*
X008725Y016725D01*
X008975Y016475D01*
X009225Y016725D01*
X009725Y016725D01*
X009975Y016475D01*
X010225Y016725D01*
X010725Y016725D01*
X010975Y016475D01*
X011225Y016725D01*
X011725Y016725D01*
X011975Y016475D01*
X012225Y016725D01*
X012725Y016725D01*
X012975Y016475D01*
X012975Y015975D01*
X012725Y015725D01*
X012225Y015725D01*
X011975Y015975D01*
X011725Y015725D01*
X011225Y015725D01*
X010975Y015975D01*
X010725Y015725D01*
X010225Y015725D01*
X009975Y015975D01*
X009725Y015725D01*
X009225Y015725D01*
X008975Y015975D01*
X008725Y015725D01*
X008225Y015725D01*
X007975Y015975D01*
X007725Y015725D01*
X007225Y015725D01*
X006975Y015975D01*
X001070Y015032D02*
X000856Y014818D01*
X000856Y014925D02*
X000750Y015032D01*
X000536Y015032D01*
X000429Y014925D01*
X000429Y014605D01*
X001070Y014605D01*
X000856Y014605D02*
X000856Y014925D01*
X007725Y006425D02*
X007725Y006125D01*
X007575Y006275D02*
X007875Y006275D01*
X006375Y005225D02*
X006377Y005298D01*
X006383Y005371D01*
X006393Y005443D01*
X006407Y005515D01*
X006424Y005586D01*
X006446Y005656D01*
X006471Y005725D01*
X006500Y005792D01*
X006532Y005857D01*
X006568Y005921D01*
X006608Y005983D01*
X006650Y006042D01*
X006696Y006099D01*
X006745Y006153D01*
X006797Y006205D01*
X006851Y006254D01*
X006908Y006300D01*
X006967Y006342D01*
X007029Y006382D01*
X007093Y006418D01*
X007158Y006450D01*
X007225Y006479D01*
X007294Y006504D01*
X007364Y006526D01*
X007435Y006543D01*
X007507Y006557D01*
X007579Y006567D01*
X007652Y006573D01*
X007725Y006575D01*
X007798Y006573D01*
X007871Y006567D01*
X007943Y006557D01*
X008015Y006543D01*
X008086Y006526D01*
X008156Y006504D01*
X008225Y006479D01*
X008292Y006450D01*
X008357Y006418D01*
X008421Y006382D01*
X008483Y006342D01*
X008542Y006300D01*
X008599Y006254D01*
X008653Y006205D01*
X008705Y006153D01*
X008754Y006099D01*
X008800Y006042D01*
X008842Y005983D01*
X008882Y005921D01*
X008918Y005857D01*
X008950Y005792D01*
X008979Y005725D01*
X009004Y005656D01*
X009026Y005586D01*
X009043Y005515D01*
X009057Y005443D01*
X009067Y005371D01*
X009073Y005298D01*
X009075Y005225D01*
X009073Y005152D01*
X009067Y005079D01*
X009057Y005007D01*
X009043Y004935D01*
X009026Y004864D01*
X009004Y004794D01*
X008979Y004725D01*
X008950Y004658D01*
X008918Y004593D01*
X008882Y004529D01*
X008842Y004467D01*
X008800Y004408D01*
X008754Y004351D01*
X008705Y004297D01*
X008653Y004245D01*
X008599Y004196D01*
X008542Y004150D01*
X008483Y004108D01*
X008421Y004068D01*
X008357Y004032D01*
X008292Y004000D01*
X008225Y003971D01*
X008156Y003946D01*
X008086Y003924D01*
X008015Y003907D01*
X007943Y003893D01*
X007871Y003883D01*
X007798Y003877D01*
X007725Y003875D01*
X007652Y003877D01*
X007579Y003883D01*
X007507Y003893D01*
X007435Y003907D01*
X007364Y003924D01*
X007294Y003946D01*
X007225Y003971D01*
X007158Y004000D01*
X007093Y004032D01*
X007029Y004068D01*
X006967Y004108D01*
X006908Y004150D01*
X006851Y004196D01*
X006797Y004245D01*
X006745Y004297D01*
X006696Y004351D01*
X006650Y004408D01*
X006608Y004467D01*
X006568Y004529D01*
X006532Y004593D01*
X006500Y004658D01*
X006471Y004725D01*
X006446Y004794D01*
X006424Y004864D01*
X006407Y004935D01*
X006393Y005007D01*
X006383Y005079D01*
X006377Y005152D01*
X006375Y005225D01*
X009625Y004875D02*
X010325Y004875D01*
X010325Y006075D01*
X009625Y006075D01*
X009625Y004875D01*
X009975Y005275D02*
X009975Y005425D01*
X010175Y005425D01*
X009975Y005425D02*
X009775Y005425D01*
X009975Y005425D02*
X009775Y005825D01*
X010175Y005825D01*
X009975Y005425D01*
X009975Y005975D01*
X010725Y005975D02*
X010725Y004975D01*
X011425Y004775D02*
X011725Y004775D01*
X011575Y004625D02*
X011575Y004925D01*
X011475Y005225D02*
X012475Y005725D01*
X011975Y005725D02*
X011975Y006975D01*
X011775Y006975D01*
X011975Y008100D02*
X011725Y008350D01*
X011475Y008100D01*
X010975Y008100D01*
X010725Y008350D01*
X010725Y008850D01*
X010975Y009100D01*
X011475Y009100D01*
X011725Y008850D01*
X011975Y009100D01*
X012475Y009100D01*
X012725Y008850D01*
X012975Y009100D01*
X013475Y009100D01*
X013725Y008850D01*
X013725Y008350D01*
X013475Y008100D01*
X012975Y008100D01*
X012725Y008350D01*
X012475Y008100D01*
X011975Y008100D01*
X014225Y006425D02*
X014225Y006225D01*
X017225Y006225D01*
X017225Y006725D01*
X016975Y006975D02*
X016755Y006975D01*
X017475Y006975D02*
X017655Y006975D01*
X016100Y008975D02*
X016102Y009019D01*
X016108Y009063D01*
X016118Y009106D01*
X016131Y009148D01*
X016148Y009189D01*
X016169Y009228D01*
X016193Y009265D01*
X016220Y009300D01*
X016250Y009332D01*
X016283Y009362D01*
X016319Y009388D01*
X016356Y009412D01*
X016396Y009431D01*
X016437Y009448D01*
X016480Y009460D01*
X016523Y009469D01*
X016567Y009474D01*
X016611Y009475D01*
X016655Y009472D01*
X016699Y009465D01*
X016742Y009454D01*
X016784Y009440D01*
X016824Y009422D01*
X016863Y009400D01*
X016899Y009376D01*
X016933Y009348D01*
X016965Y009317D01*
X016994Y009283D01*
X017020Y009247D01*
X017042Y009209D01*
X017061Y009169D01*
X017076Y009127D01*
X017088Y009085D01*
X017096Y009041D01*
X017100Y008997D01*
X017100Y008953D01*
X017096Y008909D01*
X017088Y008865D01*
X017076Y008823D01*
X017061Y008781D01*
X017042Y008741D01*
X017020Y008703D01*
X016994Y008667D01*
X016965Y008633D01*
X016933Y008602D01*
X016899Y008574D01*
X016863Y008550D01*
X016824Y008528D01*
X016784Y008510D01*
X016742Y008496D01*
X016699Y008485D01*
X016655Y008478D01*
X016611Y008475D01*
X016567Y008476D01*
X016523Y008481D01*
X016480Y008490D01*
X016437Y008502D01*
X016396Y008519D01*
X016356Y008538D01*
X016319Y008562D01*
X016283Y008588D01*
X016250Y008618D01*
X016220Y008650D01*
X016193Y008685D01*
X016169Y008722D01*
X016148Y008761D01*
X016131Y008802D01*
X016118Y008844D01*
X016108Y008887D01*
X016102Y008931D01*
X016100Y008975D01*
X015450Y008600D02*
X015448Y008555D01*
X015443Y008509D01*
X015435Y008465D01*
X015423Y008421D01*
X015407Y008378D01*
X015389Y008336D01*
X015367Y008296D01*
X015343Y008258D01*
X015316Y008222D01*
X015286Y008187D01*
X015253Y008156D01*
X015218Y008126D01*
X014250Y008600D02*
X014252Y008647D01*
X014258Y008695D01*
X014267Y008741D01*
X014280Y008787D01*
X014296Y008831D01*
X014317Y008875D01*
X014340Y008916D01*
X014366Y008955D01*
X014396Y008992D01*
X014429Y009027D01*
X014464Y009059D01*
X014501Y009088D01*
X014250Y008600D02*
X014252Y008554D01*
X014257Y008508D01*
X014266Y008462D01*
X014278Y008417D01*
X014294Y008374D01*
X014313Y008332D01*
X014336Y008291D01*
X014361Y008252D01*
X014389Y008216D01*
X014420Y008181D01*
X014454Y008149D01*
X014490Y008120D01*
X015450Y008600D02*
X015448Y008645D01*
X015443Y008691D01*
X015435Y008735D01*
X015423Y008779D01*
X015407Y008822D01*
X015389Y008864D01*
X015367Y008904D01*
X015343Y008942D01*
X015316Y008978D01*
X015286Y009013D01*
X015253Y009044D01*
X015218Y009074D01*
X015475Y012225D02*
X015477Y012269D01*
X015483Y012313D01*
X015493Y012356D01*
X015506Y012398D01*
X015523Y012439D01*
X015544Y012478D01*
X015568Y012515D01*
X015595Y012550D01*
X015625Y012582D01*
X015658Y012612D01*
X015694Y012638D01*
X015731Y012662D01*
X015771Y012681D01*
X015812Y012698D01*
X015855Y012710D01*
X015898Y012719D01*
X015942Y012724D01*
X015986Y012725D01*
X016030Y012722D01*
X016074Y012715D01*
X016117Y012704D01*
X016159Y012690D01*
X016199Y012672D01*
X016238Y012650D01*
X016274Y012626D01*
X016308Y012598D01*
X016340Y012567D01*
X016369Y012533D01*
X016395Y012497D01*
X016417Y012459D01*
X016436Y012419D01*
X016451Y012377D01*
X016463Y012335D01*
X016471Y012291D01*
X016475Y012247D01*
X016475Y012203D01*
X016471Y012159D01*
X016463Y012115D01*
X016451Y012073D01*
X016436Y012031D01*
X016417Y011991D01*
X016395Y011953D01*
X016369Y011917D01*
X016340Y011883D01*
X016308Y011852D01*
X016274Y011824D01*
X016238Y011800D01*
X016199Y011778D01*
X016159Y011760D01*
X016117Y011746D01*
X016074Y011735D01*
X016030Y011728D01*
X015986Y011725D01*
X015942Y011726D01*
X015898Y011731D01*
X015855Y011740D01*
X015812Y011752D01*
X015771Y011769D01*
X015731Y011788D01*
X015694Y011812D01*
X015658Y011838D01*
X015625Y011868D01*
X015595Y011900D01*
X015568Y011935D01*
X015544Y011972D01*
X015523Y012011D01*
X015506Y012052D01*
X015493Y012094D01*
X015483Y012137D01*
X015477Y012181D01*
X015475Y012225D01*
X011975Y005225D02*
X011975Y003975D01*
X011775Y003975D01*
X011725Y002475D02*
X011225Y002475D01*
X010975Y002225D01*
X010725Y002475D01*
X010225Y002475D01*
X009975Y002225D01*
X009975Y001725D01*
X010225Y001475D01*
X010725Y001475D01*
X010975Y001725D01*
X011225Y001475D01*
X011725Y001475D01*
X011975Y001725D01*
X012225Y001475D01*
X012725Y001475D01*
X012975Y001725D01*
X012975Y002225D01*
X012725Y002475D01*
X012225Y002475D01*
X011975Y002225D01*
X011725Y002475D01*
X014475Y003475D02*
X015975Y003475D01*
X016755Y003975D02*
X016975Y003975D01*
D12*
X016221Y003205D02*
X016068Y003205D01*
X015991Y003129D01*
X016221Y003205D02*
X016298Y003129D01*
X016298Y003052D01*
X015991Y002745D01*
X016298Y002745D01*
X015838Y002745D02*
X015531Y002745D01*
X015684Y002745D02*
X015684Y003205D01*
X015531Y003052D01*
X015377Y003129D02*
X015070Y002822D01*
X015147Y002745D01*
X015301Y002745D01*
X015377Y002822D01*
X015377Y003129D01*
X015301Y003205D01*
X015147Y003205D01*
X015070Y003129D01*
X015070Y002822D01*
X014917Y002745D02*
X014610Y002745D01*
X014917Y003052D01*
X014917Y003129D01*
X014840Y003205D01*
X014687Y003205D01*
X014610Y003129D01*
X013996Y003205D02*
X013996Y002898D01*
X013843Y002745D01*
X013689Y002898D01*
X013689Y003205D01*
X013536Y003129D02*
X013459Y003205D01*
X013306Y003205D01*
X013229Y003129D01*
X013229Y002822D01*
X013306Y002745D01*
X013459Y002745D01*
X013536Y002822D01*
X013536Y003129D01*
X013075Y003205D02*
X013075Y002745D01*
X012768Y003205D01*
X012768Y002745D01*
X012155Y003205D02*
X011848Y003205D01*
X011848Y002745D01*
X011694Y002745D02*
X011541Y002745D01*
X011618Y002745D02*
X011618Y003205D01*
X011694Y003205D02*
X011541Y003205D01*
X011387Y003129D02*
X011311Y003205D01*
X011157Y003205D01*
X011080Y003129D01*
X011080Y003052D01*
X011157Y002975D01*
X011311Y002975D01*
X011387Y002898D01*
X011387Y002822D01*
X011311Y002745D01*
X011157Y002745D01*
X011080Y002822D01*
X010850Y002822D02*
X010850Y003205D01*
X010773Y003205D02*
X010927Y003205D01*
X010850Y002822D02*
X010773Y002745D01*
X010697Y002745D01*
X010620Y002822D01*
X011848Y002975D02*
X012001Y002975D01*
X011975Y001342D02*
X011898Y001265D01*
X011898Y001111D01*
X011975Y001035D01*
X012128Y001035D01*
X012205Y001111D01*
X012205Y001265D01*
X012128Y001342D01*
X011975Y001342D01*
X011927Y000890D02*
X011667Y000890D01*
X011667Y000370D01*
X011498Y000370D02*
X011498Y000717D01*
X011325Y000890D01*
X011151Y000717D01*
X011151Y000370D01*
X010983Y000370D02*
X010636Y000370D01*
X010636Y000890D01*
X010983Y000890D01*
X010898Y001035D02*
X010898Y001265D01*
X010975Y001342D01*
X011128Y001342D01*
X011205Y001265D01*
X011205Y001035D01*
X011358Y001035D02*
X010898Y001035D01*
X010809Y000630D02*
X010636Y000630D01*
X010467Y000630D02*
X010120Y000630D01*
X010120Y000370D02*
X010120Y000890D01*
X010128Y001035D02*
X010205Y001111D01*
X010205Y001342D01*
X009898Y001342D02*
X009898Y001111D01*
X009975Y001035D01*
X010128Y001035D01*
X010467Y000890D02*
X010467Y000370D01*
X011151Y000630D02*
X011498Y000630D01*
X011667Y000543D02*
X011927Y000543D01*
X012014Y000630D01*
X012014Y000804D01*
X011927Y000890D01*
X011840Y000543D02*
X012014Y000370D01*
X012356Y000370D02*
X012356Y000890D01*
X012183Y000890D02*
X012530Y000890D01*
X013898Y001111D02*
X013975Y001035D01*
X014128Y001035D01*
X014205Y001111D01*
X014205Y001342D01*
X013898Y001342D02*
X013898Y001111D01*
X014120Y000890D02*
X014120Y000370D01*
X014120Y000630D02*
X014467Y000630D01*
X014636Y000630D02*
X014809Y000630D01*
X014636Y000370D02*
X014983Y000370D01*
X015151Y000370D02*
X015151Y000717D01*
X015325Y000890D01*
X015498Y000717D01*
X015498Y000370D01*
X015667Y000370D02*
X015667Y000890D01*
X015927Y000890D01*
X016014Y000804D01*
X016014Y000630D01*
X015927Y000543D01*
X015667Y000543D01*
X015840Y000543D02*
X016014Y000370D01*
X016356Y000370D02*
X016356Y000890D01*
X016183Y000890D02*
X016530Y000890D01*
X016205Y001111D02*
X016128Y001035D01*
X015975Y001035D01*
X015898Y001111D01*
X015898Y001265D01*
X015975Y001342D01*
X016128Y001342D01*
X016205Y001265D01*
X016205Y001111D01*
X015358Y001035D02*
X014898Y001035D01*
X014898Y001265D01*
X014975Y001342D01*
X015128Y001342D01*
X015205Y001265D01*
X015205Y001035D01*
X014983Y000890D02*
X014636Y000890D01*
X014636Y000370D01*
X014467Y000370D02*
X014467Y000890D01*
X015151Y000630D02*
X015498Y000630D01*
X008848Y000870D02*
X008541Y000870D01*
X008541Y001330D01*
X008387Y001330D02*
X008080Y001330D01*
X008080Y000870D01*
X008387Y000870D01*
X008234Y001100D02*
X008080Y001100D01*
X007927Y001100D02*
X007850Y001023D01*
X007620Y001023D01*
X007620Y000870D02*
X007620Y001330D01*
X007850Y001330D01*
X007927Y001254D01*
X007927Y001100D01*
X007773Y001023D02*
X007927Y000870D01*
X006545Y000818D02*
X006198Y000818D01*
X006458Y001078D01*
X006458Y000558D01*
X006029Y000558D02*
X005683Y000558D01*
X006029Y000904D01*
X006029Y000991D01*
X005943Y001078D01*
X005769Y001078D01*
X005683Y000991D01*
X007620Y002620D02*
X007927Y002620D01*
X008080Y002620D02*
X008387Y003080D01*
X008541Y003080D02*
X008848Y003080D01*
X008694Y003080D02*
X008694Y002620D01*
X008387Y002620D02*
X008080Y003080D01*
X007927Y003080D02*
X007620Y003080D01*
X007620Y002620D01*
X007620Y002850D02*
X007773Y002850D01*
X004217Y006308D02*
X003910Y006308D01*
X004063Y006308D02*
X004063Y006768D01*
X003910Y006614D01*
X003756Y006691D02*
X003679Y006768D01*
X003526Y006768D01*
X003449Y006691D01*
X003449Y006614D01*
X003526Y006538D01*
X003679Y006538D01*
X003756Y006461D01*
X003756Y006384D01*
X003679Y006308D01*
X003526Y006308D01*
X003449Y006384D01*
X002580Y006447D02*
X002503Y006370D01*
X002580Y006447D02*
X002580Y006600D01*
X002503Y006677D01*
X002427Y006677D01*
X002350Y006600D01*
X002350Y006447D01*
X002273Y006370D01*
X002196Y006370D01*
X002120Y006447D01*
X002120Y006600D01*
X002196Y006677D01*
X002350Y007370D02*
X002350Y007677D01*
X002196Y007523D02*
X002503Y007523D01*
X002350Y008495D02*
X002350Y008802D01*
X002087Y010520D02*
X002087Y010580D01*
X002327Y010820D01*
X002327Y010880D01*
X002087Y010880D01*
X001838Y010880D02*
X001838Y010520D01*
X001718Y010520D02*
X001959Y010520D01*
X001718Y010760D02*
X001838Y010880D01*
X001590Y010820D02*
X001590Y010700D01*
X001530Y010640D01*
X001350Y010640D01*
X001350Y010520D02*
X001350Y010880D01*
X001530Y010880D01*
X001590Y010820D01*
X001470Y010640D02*
X001590Y010520D01*
X002833Y012558D02*
X002833Y012918D01*
X003014Y012918D01*
X003074Y012858D01*
X003074Y012738D01*
X003014Y012678D01*
X002833Y012678D01*
X002953Y012678D02*
X003074Y012558D01*
X003202Y012618D02*
X003202Y012678D01*
X003262Y012738D01*
X003382Y012738D01*
X003442Y012678D01*
X003442Y012618D01*
X003382Y012558D01*
X003262Y012558D01*
X003202Y012618D01*
X003262Y012738D02*
X003202Y012798D01*
X003202Y012858D01*
X003262Y012918D01*
X003382Y012918D01*
X003442Y012858D01*
X003442Y012798D01*
X003382Y012738D01*
X003382Y013558D02*
X003442Y013618D01*
X003442Y013858D01*
X003382Y013918D01*
X003262Y013918D01*
X003202Y013858D01*
X003202Y013798D01*
X003262Y013738D01*
X003442Y013738D01*
X003382Y013558D02*
X003262Y013558D01*
X003202Y013618D01*
X003074Y013558D02*
X002953Y013678D01*
X003014Y013678D02*
X002833Y013678D01*
X002833Y013558D02*
X002833Y013918D01*
X003014Y013918D01*
X003074Y013858D01*
X003074Y013738D01*
X003014Y013678D01*
X002955Y014558D02*
X002835Y014678D01*
X002895Y014678D02*
X002715Y014678D01*
X002715Y014558D02*
X002715Y014918D01*
X002895Y014918D01*
X002955Y014858D01*
X002955Y014738D01*
X002895Y014678D01*
X003083Y014798D02*
X003203Y014918D01*
X003203Y014558D01*
X003083Y014558D02*
X003324Y014558D01*
X003452Y014558D02*
X003692Y014558D01*
X003572Y014558D02*
X003572Y014918D01*
X003452Y014798D01*
X002503Y014773D02*
X002196Y014773D01*
X002350Y014620D02*
X002350Y014927D01*
X005332Y014637D02*
X005332Y014397D01*
X005512Y014397D01*
X005452Y014517D01*
X005452Y014577D01*
X005512Y014637D01*
X005632Y014637D01*
X005693Y014577D01*
X005693Y014457D01*
X005632Y014397D01*
X005693Y014269D02*
X005693Y014028D01*
X005693Y014148D02*
X005332Y014148D01*
X005452Y014028D01*
X005392Y013900D02*
X005332Y013840D01*
X005332Y013660D01*
X005693Y013660D01*
X005572Y013660D02*
X005572Y013840D01*
X005512Y013900D01*
X005392Y013900D01*
X005572Y013780D02*
X005693Y013900D01*
X005725Y013080D02*
X005545Y013080D01*
X005545Y012720D01*
X005545Y012840D02*
X005725Y012840D01*
X005785Y012900D01*
X005785Y013020D01*
X005725Y013080D01*
X005913Y013020D02*
X005973Y013080D01*
X006093Y013080D01*
X006154Y013020D01*
X006154Y012960D01*
X005913Y012720D01*
X006154Y012720D01*
X005785Y012720D02*
X005665Y012840D01*
X004695Y009637D02*
X004755Y009577D01*
X004755Y009457D01*
X004695Y009397D01*
X004755Y009269D02*
X004755Y009028D01*
X004755Y009148D02*
X004395Y009148D01*
X004515Y009028D01*
X004575Y008900D02*
X004635Y008840D01*
X004635Y008660D01*
X004755Y008660D02*
X004395Y008660D01*
X004395Y008840D01*
X004455Y008900D01*
X004575Y008900D01*
X004635Y008780D02*
X004755Y008900D01*
X004455Y009397D02*
X004395Y009457D01*
X004395Y009577D01*
X004455Y009637D01*
X004515Y009637D01*
X004575Y009577D01*
X004635Y009637D01*
X004695Y009637D01*
X004575Y009577D02*
X004575Y009517D01*
X006170Y009080D02*
X006170Y008720D01*
X006170Y008840D02*
X006350Y008840D01*
X006410Y008900D01*
X006410Y009020D01*
X006350Y009080D01*
X006170Y009080D01*
X006290Y008840D02*
X006410Y008720D01*
X006538Y008780D02*
X006598Y008720D01*
X006718Y008720D01*
X006779Y008780D01*
X006779Y008840D01*
X006718Y008900D01*
X006658Y008900D01*
X006718Y008900D02*
X006779Y008960D01*
X006779Y009020D01*
X006718Y009080D01*
X006598Y009080D01*
X006538Y009020D01*
X006475Y007955D02*
X006295Y007955D01*
X006295Y007595D01*
X006295Y007715D02*
X006475Y007715D01*
X006535Y007775D01*
X006535Y007895D01*
X006475Y007955D01*
X006663Y007835D02*
X006783Y007955D01*
X006783Y007595D01*
X006663Y007595D02*
X006904Y007595D01*
X006535Y007595D02*
X006415Y007715D01*
X002350Y005177D02*
X002350Y004870D01*
X002350Y004177D02*
X002350Y003870D01*
X002503Y004023D02*
X002196Y004023D01*
X002196Y003177D02*
X002120Y003100D01*
X002120Y002947D01*
X002196Y002870D01*
X002273Y002870D01*
X002350Y002947D01*
X002350Y003100D01*
X002427Y003177D01*
X002503Y003177D01*
X002580Y003100D01*
X002580Y002947D01*
X002503Y002870D01*
X010870Y009245D02*
X011177Y009552D01*
X011177Y009629D01*
X011100Y009705D01*
X010947Y009705D01*
X010870Y009629D01*
X010870Y009245D02*
X011177Y009245D01*
X011330Y009475D02*
X011637Y009475D01*
X011561Y009245D02*
X011561Y009705D01*
X011330Y009475D01*
X011995Y009398D02*
X012225Y009398D01*
X012302Y009475D01*
X012302Y009629D01*
X012225Y009705D01*
X011995Y009705D01*
X011995Y009245D01*
X012148Y009398D02*
X012302Y009245D01*
X012995Y009322D02*
X013072Y009245D01*
X013225Y009245D01*
X013302Y009322D01*
X013302Y009475D01*
X013225Y009552D01*
X013148Y009552D01*
X012995Y009475D01*
X012995Y009705D01*
X013302Y009705D01*
X013699Y009677D02*
X013776Y009600D01*
X013929Y009600D01*
X014006Y009523D01*
X014006Y009447D01*
X013929Y009370D01*
X013776Y009370D01*
X013699Y009447D01*
X013699Y009677D02*
X013699Y009754D01*
X013776Y009830D01*
X013929Y009830D01*
X014006Y009754D01*
X014160Y009754D02*
X014236Y009830D01*
X014390Y009830D01*
X014467Y009754D01*
X014467Y009677D01*
X014160Y009370D01*
X014467Y009370D01*
X015820Y008579D02*
X016000Y008399D01*
X016000Y008639D01*
X016180Y008579D02*
X015820Y008579D01*
X015820Y008151D02*
X016180Y008151D01*
X016180Y008031D02*
X016180Y008271D01*
X015940Y008031D02*
X015820Y008151D01*
X015880Y007903D02*
X016000Y007903D01*
X016060Y007843D01*
X016060Y007663D01*
X016060Y007783D02*
X016180Y007903D01*
X016180Y007663D02*
X015820Y007663D01*
X015820Y007843D01*
X015880Y007903D01*
X017145Y009195D02*
X017325Y009195D01*
X017385Y009255D01*
X017385Y009495D01*
X017325Y009555D01*
X017145Y009555D01*
X017145Y009195D01*
X017513Y009375D02*
X017754Y009375D01*
X017693Y009195D02*
X017693Y009555D01*
X017513Y009375D01*
X017445Y008639D02*
X017505Y008519D01*
X017625Y008399D01*
X017625Y008579D01*
X017685Y008639D01*
X017745Y008639D01*
X017805Y008579D01*
X017805Y008459D01*
X017745Y008399D01*
X017625Y008399D01*
X017805Y008271D02*
X017805Y008031D01*
X017805Y008151D02*
X017445Y008151D01*
X017565Y008031D01*
X017625Y007903D02*
X017685Y007843D01*
X017685Y007663D01*
X017685Y007783D02*
X017805Y007903D01*
X017625Y007903D02*
X017505Y007903D01*
X017445Y007843D01*
X017445Y007663D01*
X017805Y007663D01*
X014580Y010965D02*
X014220Y010965D01*
X014220Y011145D01*
X014280Y011205D01*
X014400Y011205D01*
X014460Y011145D01*
X014460Y010965D01*
X014460Y011085D02*
X014580Y011205D01*
X014580Y011333D02*
X014580Y011574D01*
X014580Y011453D02*
X014220Y011453D01*
X014340Y011333D01*
X014280Y011702D02*
X014220Y011762D01*
X014220Y011882D01*
X014280Y011942D01*
X014520Y011702D01*
X014580Y011762D01*
X014580Y011882D01*
X014520Y011942D01*
X014280Y011942D01*
X014280Y011702D02*
X014520Y011702D01*
X015350Y011630D02*
X015350Y011270D01*
X015350Y011390D02*
X015530Y011390D01*
X015590Y011450D01*
X015590Y011570D01*
X015530Y011630D01*
X015350Y011630D01*
X015470Y011390D02*
X015590Y011270D01*
X015718Y011270D02*
X015959Y011270D01*
X015838Y011270D02*
X015838Y011630D01*
X015718Y011510D01*
X016087Y011510D02*
X016087Y011570D01*
X016147Y011630D01*
X016267Y011630D01*
X016327Y011570D01*
X016327Y011510D01*
X016267Y011450D01*
X016147Y011450D01*
X016087Y011510D01*
X016147Y011450D02*
X016087Y011390D01*
X016087Y011330D01*
X016147Y011270D01*
X016267Y011270D01*
X016327Y011330D01*
X016327Y011390D01*
X016267Y011450D01*
X016608Y011270D02*
X016789Y011270D01*
X016849Y011330D01*
X016849Y011570D01*
X016789Y011630D01*
X016608Y011630D01*
X016608Y011270D01*
X016977Y011330D02*
X017037Y011270D01*
X017157Y011270D01*
X017217Y011330D01*
X017217Y011390D01*
X017157Y011450D01*
X017097Y011450D01*
X017157Y011450D02*
X017217Y011510D01*
X017217Y011570D01*
X017157Y011630D01*
X017037Y011630D01*
X016977Y011570D01*
X017321Y011836D02*
X017628Y011836D01*
X017475Y011683D02*
X017475Y011989D01*
X016968Y012533D02*
X016848Y012533D01*
X016788Y012593D01*
X016788Y012713D01*
X016968Y012713D01*
X017029Y012653D01*
X017029Y012593D01*
X016968Y012533D01*
X016788Y012713D02*
X016908Y012833D01*
X017029Y012893D01*
X016660Y012833D02*
X016660Y012713D01*
X016600Y012653D01*
X016420Y012653D01*
X016540Y012653D02*
X016660Y012533D01*
X016420Y012533D02*
X016420Y012893D01*
X016600Y012893D01*
X016660Y012833D01*
X016660Y013533D02*
X016540Y013653D01*
X016600Y013653D02*
X016420Y013653D01*
X016420Y013533D02*
X016420Y013893D01*
X016600Y013893D01*
X016660Y013833D01*
X016660Y013713D01*
X016600Y013653D01*
X016788Y013593D02*
X016788Y013533D01*
X016788Y013593D02*
X017029Y013833D01*
X017029Y013893D01*
X016788Y013893D01*
X016848Y014533D02*
X016788Y014593D01*
X016848Y014533D02*
X016968Y014533D01*
X017029Y014593D01*
X017029Y014713D01*
X016968Y014773D01*
X016908Y014773D01*
X016788Y014713D01*
X016788Y014893D01*
X017029Y014893D01*
X016660Y014833D02*
X016660Y014713D01*
X016600Y014653D01*
X016420Y014653D01*
X016540Y014653D02*
X016660Y014533D01*
X016420Y014533D02*
X016420Y014893D01*
X016600Y014893D01*
X016660Y014833D01*
X014605Y013843D02*
X014245Y013843D01*
X014425Y013663D01*
X014425Y013904D01*
X014425Y013535D02*
X014305Y013535D01*
X014245Y013475D01*
X014245Y013295D01*
X014605Y013295D01*
X014485Y013295D02*
X014485Y013475D01*
X014425Y013535D01*
X014485Y013415D02*
X014605Y013535D01*
X010780Y017225D02*
X010703Y017148D01*
X010473Y017148D01*
X010473Y016995D02*
X010473Y017455D01*
X010703Y017455D01*
X010780Y017379D01*
X010780Y017225D01*
X010319Y017148D02*
X010319Y017072D01*
X010243Y016995D01*
X010089Y016995D01*
X010012Y017072D01*
X009859Y017072D02*
X009782Y016995D01*
X009629Y016995D01*
X009552Y017072D01*
X009552Y017379D01*
X009629Y017455D01*
X009782Y017455D01*
X009859Y017379D01*
X010012Y017379D02*
X010012Y017302D01*
X010089Y017225D01*
X010243Y017225D01*
X010319Y017148D01*
X010319Y017379D02*
X010243Y017455D01*
X010089Y017455D01*
X010012Y017379D01*
X009398Y017455D02*
X009245Y017455D01*
X009322Y017455D02*
X009322Y016995D01*
X009398Y016995D02*
X009245Y016995D01*
D13*
X006230Y015299D02*
X006168Y015360D01*
X006045Y015360D01*
X005983Y015299D01*
X005862Y015299D02*
X005800Y015360D01*
X005677Y015360D01*
X005615Y015299D01*
X005615Y015237D01*
X005677Y015175D01*
X005800Y015175D01*
X005862Y015113D01*
X005862Y015052D01*
X005800Y014990D01*
X005677Y014990D01*
X005615Y015052D01*
X005983Y014990D02*
X006230Y015237D01*
X006230Y015299D01*
X006230Y014990D02*
X005983Y014990D01*
X005230Y014990D02*
X004983Y014990D01*
X005107Y014990D02*
X005107Y015360D01*
X004983Y015237D01*
X004862Y015299D02*
X004800Y015360D01*
X004677Y015360D01*
X004615Y015299D01*
X004615Y015237D01*
X004677Y015175D01*
X004800Y015175D01*
X004862Y015113D01*
X004862Y015052D01*
X004800Y014990D01*
X004677Y014990D01*
X004615Y015052D01*
X004112Y015052D02*
X004050Y014990D01*
X003927Y014990D01*
X003865Y015052D01*
X003865Y015175D02*
X003988Y015237D01*
X004050Y015237D01*
X004112Y015175D01*
X004112Y015052D01*
X003865Y015175D02*
X003865Y015360D01*
X004112Y015360D01*
X002523Y013799D02*
X002400Y013799D01*
X002400Y013676D01*
X002523Y013799D02*
X002585Y013738D01*
X002585Y013614D01*
X002523Y013553D01*
X002276Y013553D01*
X002215Y013614D01*
X002215Y013738D01*
X002276Y013799D01*
X002276Y012799D02*
X002400Y012799D01*
X002462Y012738D01*
X002462Y012553D01*
X002462Y012676D02*
X002585Y012799D01*
X002585Y012553D02*
X002215Y012553D01*
X002215Y012738D01*
X002276Y012799D01*
X013740Y017115D02*
X013740Y017485D01*
X013863Y017362D01*
X013987Y017485D01*
X013987Y017115D01*
X013865Y015360D02*
X013865Y015175D01*
X013988Y015237D01*
X014050Y015237D01*
X014112Y015175D01*
X014112Y015052D01*
X014050Y014990D01*
X013927Y014990D01*
X013865Y015052D01*
X013865Y015360D02*
X014112Y015360D01*
X014490Y015299D02*
X014490Y015052D01*
X014552Y014990D01*
X014675Y014990D01*
X014737Y015052D01*
X014737Y015175D01*
X014613Y015175D01*
X014490Y015299D02*
X014552Y015360D01*
X014675Y015360D01*
X014737Y015299D01*
X014858Y015360D02*
X015043Y015360D01*
X015105Y015299D01*
X015105Y015175D01*
X015043Y015113D01*
X014858Y015113D01*
X014858Y014990D02*
X014858Y015360D01*
X015227Y015299D02*
X015288Y015360D01*
X015412Y015360D01*
X015474Y015299D01*
X015474Y015237D01*
X015412Y015175D01*
X015474Y015113D01*
X015474Y015052D01*
X015412Y014990D01*
X015288Y014990D01*
X015227Y015052D01*
X015350Y015175D02*
X015412Y015175D01*
X015740Y015237D02*
X015802Y015175D01*
X015925Y015175D01*
X015987Y015113D01*
X015987Y015052D01*
X015925Y014990D01*
X015802Y014990D01*
X015740Y015052D01*
X015740Y015237D02*
X015740Y015299D01*
X015802Y015360D01*
X015925Y015360D01*
X015987Y015299D01*
X016108Y015299D02*
X016170Y015360D01*
X016293Y015360D01*
X016355Y015299D01*
X016355Y015237D01*
X016108Y014990D01*
X016355Y014990D01*
X017401Y013799D02*
X017525Y013799D01*
X017587Y013738D01*
X017587Y013553D01*
X017587Y013676D02*
X017710Y013799D01*
X017401Y013799D02*
X017340Y013738D01*
X017340Y013553D01*
X017710Y013553D01*
X017648Y012799D02*
X017525Y012799D01*
X017525Y012676D01*
X017648Y012799D02*
X017710Y012738D01*
X017710Y012614D01*
X017648Y012553D01*
X017401Y012553D01*
X017340Y012614D01*
X017340Y012738D01*
X017401Y012799D01*
D14*
X015975Y016600D02*
X015975Y016850D01*
X015975Y017225D02*
X015975Y017475D01*
X014975Y017475D01*
X014975Y017225D01*
X014975Y016850D02*
X014975Y016600D01*
X013975Y016600D02*
X013975Y016850D01*
X005975Y016975D02*
X005975Y016600D01*
X005975Y016975D02*
X005475Y017225D01*
X005225Y017475D02*
X005225Y016975D01*
X005475Y016975D01*
X004975Y016975D02*
X004975Y016600D01*
X004975Y016975D02*
X004475Y017225D01*
X004475Y016975D02*
X003975Y016975D01*
X003975Y017475D01*
X005225Y017475D01*
X003975Y016975D02*
X003975Y016600D01*
X003578Y008295D02*
X003530Y008265D01*
X003485Y008232D01*
X003442Y008196D01*
X003401Y008158D01*
X003364Y008116D01*
X003329Y008072D01*
X003298Y008026D01*
X003269Y007977D01*
X003245Y007927D01*
X003224Y007875D01*
X003206Y007821D01*
X003193Y007767D01*
X003183Y007712D01*
X003177Y007656D01*
X003175Y007600D01*
X004351Y008306D02*
X004398Y008279D01*
X004443Y008249D01*
X004486Y008216D01*
X004526Y008180D01*
X004564Y008141D01*
X004599Y008100D01*
X004632Y008057D01*
X004661Y008012D01*
X004687Y007964D01*
X004710Y007915D01*
X004730Y007865D01*
X004746Y007814D01*
X004759Y007761D01*
X004768Y007708D01*
X004773Y007654D01*
X004775Y007600D01*
X003458Y006989D02*
X003419Y007025D01*
X003381Y007064D01*
X003347Y007104D01*
X003315Y007147D01*
X003287Y007192D01*
X003261Y007239D01*
X003238Y007288D01*
X003219Y007338D01*
X003203Y007389D01*
X003191Y007441D01*
X003182Y007493D01*
X003177Y007547D01*
X003175Y007600D01*
X004487Y006985D02*
X004527Y007021D01*
X004565Y007060D01*
X004600Y007101D01*
X004632Y007144D01*
X004662Y007189D01*
X004688Y007236D01*
X004710Y007285D01*
X004730Y007336D01*
X004746Y007387D01*
X004759Y007439D01*
X004768Y007493D01*
X004773Y007546D01*
X004775Y007600D01*
X007225Y003225D02*
X009225Y003225D01*
X009225Y001475D01*
X007225Y001475D01*
X007225Y003225D01*
X006600Y002600D02*
X006600Y001225D01*
X005475Y001225D01*
X005475Y000350D01*
X004475Y000350D01*
X004475Y001225D01*
X005475Y001225D01*
X005475Y000350D02*
X006600Y000350D01*
X006600Y001225D01*
X007225Y001475D02*
X007225Y000725D01*
X009225Y000725D01*
X009225Y001475D01*
X006600Y002600D02*
X003350Y002600D01*
X003350Y001225D01*
X004475Y001225D01*
X004475Y000350D02*
X003350Y000350D01*
X003350Y001225D01*
X011475Y005225D02*
X011975Y005225D01*
X012475Y005225D01*
X012475Y005725D01*
X011975Y005725D01*
X011475Y005725D01*
X011475Y005225D01*
X015247Y007905D02*
X015295Y007935D01*
X015340Y007968D01*
X015383Y008004D01*
X015424Y008042D01*
X015461Y008084D01*
X015496Y008128D01*
X015527Y008174D01*
X015556Y008223D01*
X015580Y008273D01*
X015601Y008325D01*
X015619Y008379D01*
X015632Y008433D01*
X015642Y008488D01*
X015648Y008544D01*
X015650Y008600D01*
X014474Y007894D02*
X014427Y007921D01*
X014382Y007951D01*
X014339Y007984D01*
X014299Y008020D01*
X014261Y008059D01*
X014226Y008100D01*
X014193Y008143D01*
X014164Y008188D01*
X014138Y008236D01*
X014115Y008285D01*
X014095Y008335D01*
X014079Y008386D01*
X014066Y008439D01*
X014057Y008492D01*
X014052Y008546D01*
X014050Y008600D01*
X015367Y009211D02*
X015406Y009175D01*
X015444Y009136D01*
X015478Y009096D01*
X015510Y009053D01*
X015538Y009008D01*
X015564Y008961D01*
X015587Y008912D01*
X015606Y008862D01*
X015622Y008811D01*
X015634Y008759D01*
X015643Y008707D01*
X015648Y008653D01*
X015650Y008600D01*
X014338Y009215D02*
X014298Y009179D01*
X014260Y009140D01*
X014225Y009099D01*
X014193Y009056D01*
X014163Y009011D01*
X014137Y008964D01*
X014115Y008915D01*
X014095Y008864D01*
X014079Y008813D01*
X014066Y008761D01*
X014057Y008707D01*
X014052Y008654D01*
X014050Y008600D01*
X016855Y007105D02*
X016975Y006975D01*
X017225Y006725D01*
X017225Y004225D02*
X016975Y003975D01*
X016855Y003845D01*
D15*
X012475Y016850D02*
X013100Y017475D01*
X011850Y017475D01*
X012475Y016850D01*
X012475Y016975D02*
X012600Y017100D01*
X012350Y017100D01*
X012225Y017225D02*
X012725Y017225D01*
X012850Y017350D02*
X012100Y017350D01*
D16*
X010669Y013836D02*
X010669Y013205D01*
X010459Y013205D02*
X010880Y013205D01*
X010459Y013625D02*
X010669Y013836D01*
X010235Y013730D02*
X010130Y013836D01*
X009920Y013836D01*
X009815Y013730D01*
X009815Y013310D01*
X009920Y013205D01*
X010130Y013205D01*
X010235Y013310D01*
X009595Y013205D02*
X009385Y013205D01*
X009490Y013205D02*
X009490Y013836D01*
X009385Y013836D02*
X009595Y013836D01*
X013346Y005666D02*
X013346Y005035D01*
X013346Y005245D02*
X013766Y005666D01*
X013990Y005455D02*
X014201Y005666D01*
X014201Y005035D01*
X014411Y005035D02*
X013990Y005035D01*
X013766Y005035D02*
X013451Y005350D01*
D17*
X010350Y007675D02*
X009900Y007675D01*
X009900Y007900D01*
X009975Y007975D01*
X010125Y007975D01*
X010200Y007900D01*
X010200Y007675D01*
X010200Y007825D02*
X010350Y007975D01*
X010350Y008135D02*
X010350Y008436D01*
X010350Y008286D02*
X009900Y008286D01*
X010050Y008135D01*
X009975Y008596D02*
X009900Y008671D01*
X009900Y008821D01*
X009975Y008896D01*
X010050Y008896D01*
X010350Y008596D01*
X010350Y008896D01*
X009500Y008300D02*
X009500Y006650D01*
X008950Y006588D02*
X008950Y006430D01*
X008950Y007362D02*
X008950Y007588D01*
X009500Y006650D02*
X009452Y006615D01*
X009402Y006582D01*
X009350Y006551D01*
X009296Y006524D01*
X009241Y006500D01*
X009184Y006480D01*
X009127Y006462D01*
X009069Y006448D01*
X009010Y006437D01*
X008950Y006430D01*
X008888Y006426D01*
X008825Y006425D01*
X008763Y006429D01*
X008701Y006436D01*
X008640Y006446D01*
X008579Y006461D01*
X008519Y006479D01*
X008460Y006500D01*
X008403Y006525D01*
X008348Y006553D01*
X008294Y006584D01*
X008242Y006619D01*
X008192Y006657D01*
X008145Y006697D01*
X008100Y006741D01*
X008057Y006786D01*
X008018Y006835D01*
X007981Y006885D01*
X007948Y006938D01*
X007917Y006992D01*
X007890Y007049D01*
X007867Y007106D01*
X007847Y007165D01*
X007847Y007785D02*
X007867Y007845D01*
X007891Y007904D01*
X007919Y007961D01*
X007950Y008016D01*
X007985Y008070D01*
X008022Y008121D01*
X008063Y008170D01*
X008107Y008216D01*
X008153Y008260D01*
X008202Y008301D01*
X008253Y008339D01*
X008306Y008373D01*
X008362Y008405D01*
X008419Y008432D01*
X008478Y008457D01*
X008538Y008477D01*
X008599Y008495D01*
X008661Y008508D01*
X008724Y008517D01*
X008787Y008523D01*
X008851Y008525D01*
X008915Y008523D01*
X008978Y008517D01*
X009041Y008508D01*
X009103Y008494D01*
X009164Y008477D01*
X009224Y008456D01*
X009283Y008432D01*
X009340Y008404D01*
X009396Y008372D01*
X009449Y008337D01*
X009500Y008300D01*
X008950Y008362D02*
X008950Y008520D01*
X008811Y008625D02*
X008660Y008625D01*
X008585Y008700D01*
X008736Y008850D02*
X008811Y008850D01*
X008886Y008775D01*
X008886Y008700D01*
X008811Y008625D01*
X008811Y008850D02*
X008886Y008925D01*
X008886Y009000D01*
X008811Y009075D01*
X008660Y009075D01*
X008585Y009000D01*
X008425Y009075D02*
X008125Y009075D01*
X008275Y009075D02*
X008275Y008625D01*
X006950Y010055D02*
X006950Y010213D01*
X007500Y010275D02*
X007500Y011925D01*
X007640Y012375D02*
X007640Y012825D01*
X007415Y012600D01*
X007715Y012600D01*
X007254Y012825D02*
X006954Y012825D01*
X006950Y012930D02*
X006950Y013088D01*
X007104Y012825D02*
X007104Y012375D01*
X006950Y012145D02*
X006950Y011987D01*
X006950Y011213D02*
X006950Y010987D01*
X007500Y010275D02*
X007452Y010240D01*
X007402Y010207D01*
X007350Y010176D01*
X007296Y010149D01*
X007241Y010125D01*
X007184Y010105D01*
X007127Y010087D01*
X007069Y010073D01*
X007010Y010062D01*
X006950Y010055D01*
X007713Y010625D02*
X007713Y011075D01*
X007563Y011075D02*
X007863Y011075D01*
X008023Y011000D02*
X008098Y011075D01*
X008248Y011075D01*
X008323Y011000D01*
X008323Y010925D01*
X008023Y010625D01*
X008323Y010625D01*
X007500Y011925D02*
X007449Y011962D01*
X007396Y011997D01*
X007340Y012029D01*
X007283Y012057D01*
X007224Y012081D01*
X007164Y012102D01*
X007103Y012119D01*
X007041Y012133D01*
X006978Y012142D01*
X006915Y012148D01*
X006851Y012150D01*
X006787Y012148D01*
X006724Y012142D01*
X006661Y012133D01*
X006599Y012120D01*
X006538Y012102D01*
X006478Y012082D01*
X006419Y012057D01*
X006362Y012030D01*
X006306Y011998D01*
X006253Y011964D01*
X006202Y011926D01*
X006153Y011885D01*
X006107Y011841D01*
X006063Y011795D01*
X006022Y011746D01*
X005985Y011695D01*
X005950Y011641D01*
X005919Y011586D01*
X005891Y011529D01*
X005867Y011470D01*
X005847Y011410D01*
X005065Y010800D02*
X005065Y010725D01*
X004765Y010425D01*
X005065Y010425D01*
X005065Y010800D02*
X004990Y010875D01*
X004840Y010875D01*
X004765Y010800D01*
X004604Y010800D02*
X004529Y010875D01*
X004304Y010875D01*
X004304Y010425D01*
X004529Y010425D01*
X004604Y010500D01*
X004604Y010800D01*
X005847Y010790D02*
X005867Y010731D01*
X005890Y010674D01*
X005917Y010617D01*
X005948Y010563D01*
X005981Y010510D01*
X006018Y010460D01*
X006057Y010411D01*
X006100Y010366D01*
X006145Y010322D01*
X006192Y010282D01*
X006242Y010244D01*
X006294Y010209D01*
X006348Y010178D01*
X006403Y010150D01*
X006460Y010125D01*
X006519Y010104D01*
X006579Y010086D01*
X006640Y010071D01*
X006701Y010061D01*
X006763Y010054D01*
X006825Y010050D01*
X006888Y010051D01*
X006950Y010055D01*
X007500Y013150D02*
X007500Y014800D01*
X007515Y015100D02*
X007365Y015100D01*
X007290Y015175D01*
X007290Y015325D01*
X007515Y015325D01*
X007590Y015250D01*
X007590Y015175D01*
X007515Y015100D01*
X007290Y015325D02*
X007440Y015475D01*
X007590Y015550D01*
X006950Y015020D02*
X006950Y014862D01*
X006950Y014088D02*
X006950Y013862D01*
X007500Y013150D02*
X007452Y013115D01*
X007402Y013082D01*
X007350Y013051D01*
X007296Y013024D01*
X007241Y013000D01*
X007184Y012980D01*
X007127Y012962D01*
X007069Y012948D01*
X007010Y012937D01*
X006950Y012930D01*
X006888Y012926D01*
X006825Y012925D01*
X006763Y012929D01*
X006701Y012936D01*
X006640Y012946D01*
X006579Y012961D01*
X006519Y012979D01*
X006460Y013000D01*
X006403Y013025D01*
X006348Y013053D01*
X006294Y013084D01*
X006242Y013119D01*
X006192Y013157D01*
X006145Y013197D01*
X006100Y013241D01*
X006057Y013286D01*
X006018Y013335D01*
X005981Y013385D01*
X005948Y013438D01*
X005917Y013492D01*
X005890Y013549D01*
X005867Y013606D01*
X005847Y013665D01*
X005847Y014285D02*
X005867Y014345D01*
X005891Y014404D01*
X005919Y014461D01*
X005950Y014516D01*
X005985Y014570D01*
X006022Y014621D01*
X006063Y014670D01*
X006107Y014716D01*
X006153Y014760D01*
X006202Y014801D01*
X006253Y014839D01*
X006306Y014873D01*
X006362Y014905D01*
X006419Y014932D01*
X006478Y014957D01*
X006538Y014977D01*
X006599Y014995D01*
X006661Y015008D01*
X006724Y015017D01*
X006787Y015023D01*
X006851Y015025D01*
X006915Y015023D01*
X006978Y015017D01*
X007041Y015008D01*
X007103Y014994D01*
X007164Y014977D01*
X007224Y014956D01*
X007283Y014932D01*
X007340Y014904D01*
X007396Y014872D01*
X007449Y014837D01*
X007500Y014800D01*
X003300Y015750D02*
X003000Y015750D01*
X003150Y015750D02*
X003150Y016200D01*
X003000Y016050D01*
X001950Y015090D02*
X001950Y014790D01*
X001950Y014940D02*
X001500Y014940D01*
X001650Y014790D01*
X001950Y009965D02*
X001950Y009665D01*
X001950Y009815D02*
X001500Y009815D01*
X001650Y009665D01*
X001950Y006465D02*
X001950Y006165D01*
X001950Y006315D02*
X001500Y006315D01*
X001650Y006165D01*
X005075Y005975D02*
X005300Y005975D01*
X005375Y006050D01*
X005375Y006350D01*
X005300Y006425D01*
X005075Y006425D01*
X005075Y005975D01*
X005535Y006050D02*
X005610Y005975D01*
X005761Y005975D01*
X005836Y006050D01*
X005836Y006200D01*
X005761Y006275D01*
X005686Y006275D01*
X005535Y006200D01*
X005535Y006425D01*
X005836Y006425D01*
X006400Y004000D02*
X006325Y003925D01*
X006325Y003625D01*
X006400Y003550D01*
X006550Y003550D01*
X006625Y003625D01*
X006785Y003625D02*
X006860Y003550D01*
X007011Y003550D01*
X007086Y003625D01*
X007086Y003700D01*
X007011Y003775D01*
X006936Y003775D01*
X007011Y003775D02*
X007086Y003850D01*
X007086Y003925D01*
X007011Y004000D01*
X006860Y004000D01*
X006785Y003925D01*
X006625Y003925D02*
X006550Y004000D01*
X006400Y004000D01*
X004815Y002725D02*
X004515Y002725D01*
X004665Y002725D02*
X004665Y003175D01*
X004515Y003025D01*
X004354Y003100D02*
X004279Y003175D01*
X004129Y003175D01*
X004054Y003100D01*
X004054Y002800D01*
X004129Y002725D01*
X004279Y002725D01*
X004354Y002800D01*
X003150Y002200D02*
X003150Y001750D01*
X003000Y001750D02*
X003300Y001750D01*
X003000Y002050D02*
X003150Y002200D01*
X008929Y004050D02*
X009154Y004050D01*
X009229Y004125D01*
X009229Y004425D01*
X009154Y004500D01*
X008929Y004500D01*
X008929Y004050D01*
X009390Y004050D02*
X009690Y004050D01*
X009540Y004050D02*
X009540Y004500D01*
X009390Y004350D01*
X009650Y002200D02*
X009650Y001750D01*
X009500Y001750D02*
X009800Y001750D01*
X009500Y002050D02*
X009650Y002200D01*
X013500Y002050D02*
X013650Y002200D01*
X013650Y001750D01*
X013500Y001750D02*
X013800Y001750D01*
X013790Y008375D02*
X014090Y008375D01*
X013940Y008375D02*
X013940Y008825D01*
X013790Y008675D01*
X013000Y010055D02*
X013000Y010213D01*
X012450Y010275D02*
X012450Y011925D01*
X013000Y011987D02*
X013000Y012145D01*
X013000Y012930D02*
X013000Y013088D01*
X012450Y013150D02*
X012450Y014800D01*
X012486Y015000D02*
X012486Y015450D01*
X012335Y015300D01*
X012175Y015450D02*
X011875Y015450D01*
X012025Y015450D02*
X012025Y015000D01*
X012335Y015000D02*
X012636Y015000D01*
X013000Y015020D02*
X013000Y014862D01*
X013000Y014088D02*
X013000Y013862D01*
X012450Y014800D02*
X012498Y014835D01*
X012548Y014868D01*
X012600Y014899D01*
X012654Y014926D01*
X012709Y014950D01*
X012766Y014970D01*
X012823Y014988D01*
X012881Y015002D01*
X012940Y015013D01*
X013000Y015020D01*
X013000Y015750D02*
X013300Y015750D01*
X013150Y015750D02*
X013150Y016200D01*
X013000Y016050D01*
X012590Y016900D02*
X012290Y016900D01*
X012440Y016900D02*
X012440Y017350D01*
X012290Y017200D01*
X013000Y015020D02*
X013062Y015024D01*
X013125Y015025D01*
X013187Y015021D01*
X013249Y015014D01*
X013310Y015004D01*
X013371Y014989D01*
X013431Y014971D01*
X013490Y014950D01*
X013547Y014925D01*
X013602Y014897D01*
X013656Y014866D01*
X013708Y014831D01*
X013758Y014793D01*
X013805Y014753D01*
X013850Y014709D01*
X013893Y014664D01*
X013932Y014615D01*
X013969Y014565D01*
X014002Y014512D01*
X014033Y014458D01*
X014060Y014401D01*
X014083Y014344D01*
X014103Y014285D01*
X014103Y013665D02*
X014083Y013605D01*
X014059Y013546D01*
X014031Y013489D01*
X014000Y013434D01*
X013965Y013380D01*
X013928Y013329D01*
X013887Y013280D01*
X013843Y013234D01*
X013797Y013190D01*
X013748Y013149D01*
X013697Y013111D01*
X013644Y013077D01*
X013588Y013045D01*
X013531Y013018D01*
X013472Y012993D01*
X013412Y012973D01*
X013351Y012955D01*
X013289Y012942D01*
X013226Y012933D01*
X013163Y012927D01*
X013099Y012925D01*
X013035Y012927D01*
X012972Y012933D01*
X012909Y012942D01*
X012847Y012956D01*
X012786Y012973D01*
X012726Y012994D01*
X012667Y013018D01*
X012610Y013046D01*
X012554Y013078D01*
X012501Y013113D01*
X012450Y013150D01*
X013000Y011213D02*
X013000Y010987D01*
X012450Y011925D02*
X012498Y011960D01*
X012548Y011993D01*
X012600Y012024D01*
X012654Y012051D01*
X012709Y012075D01*
X012766Y012095D01*
X012823Y012113D01*
X012881Y012127D01*
X012940Y012138D01*
X013000Y012145D01*
X013062Y012149D01*
X013125Y012150D01*
X013187Y012146D01*
X013249Y012139D01*
X013310Y012129D01*
X013371Y012114D01*
X013431Y012096D01*
X013490Y012075D01*
X013547Y012050D01*
X013602Y012022D01*
X013656Y011991D01*
X013708Y011956D01*
X013758Y011918D01*
X013805Y011878D01*
X013850Y011834D01*
X013893Y011789D01*
X013932Y011740D01*
X013969Y011690D01*
X014002Y011637D01*
X014033Y011583D01*
X014060Y011526D01*
X014083Y011469D01*
X014103Y011410D01*
X014103Y010790D02*
X014083Y010730D01*
X014059Y010671D01*
X014031Y010614D01*
X014000Y010559D01*
X013965Y010505D01*
X013928Y010454D01*
X013887Y010405D01*
X013843Y010359D01*
X013797Y010315D01*
X013748Y010274D01*
X013697Y010236D01*
X013644Y010202D01*
X013588Y010170D01*
X013531Y010143D01*
X013472Y010118D01*
X013412Y010098D01*
X013351Y010080D01*
X013289Y010067D01*
X013226Y010058D01*
X013163Y010052D01*
X013099Y010050D01*
X013035Y010052D01*
X012972Y010058D01*
X012909Y010067D01*
X012847Y010081D01*
X012786Y010098D01*
X012726Y010119D01*
X012667Y010143D01*
X012610Y010171D01*
X012554Y010203D01*
X012501Y010238D01*
X012450Y010275D01*
X012190Y010225D02*
X012190Y010150D01*
X011890Y009850D01*
X012190Y009850D01*
X012190Y010225D02*
X012115Y010300D01*
X011965Y010300D01*
X011890Y010225D01*
X011729Y010225D02*
X011654Y010300D01*
X011504Y010300D01*
X011429Y010225D01*
X011429Y009925D01*
X011504Y009850D01*
X011654Y009850D01*
X011729Y009925D01*
X011650Y010625D02*
X011650Y011075D01*
X011500Y011075D02*
X011800Y011075D01*
X011960Y011075D02*
X011960Y010850D01*
X012111Y010925D01*
X012186Y010925D01*
X012261Y010850D01*
X012261Y010700D01*
X012186Y010625D01*
X012035Y010625D01*
X011960Y010700D01*
X011960Y011075D02*
X012261Y011075D01*
X018000Y011400D02*
X018450Y011400D01*
X018450Y011250D02*
X018450Y011550D01*
X018150Y011250D02*
X018000Y011400D01*
D18*
X016575Y012225D02*
X016375Y012225D01*
X016375Y013225D02*
X016575Y013225D01*
X016575Y014225D02*
X016375Y014225D01*
X014975Y014075D02*
X014975Y013875D01*
X013575Y012600D02*
X013375Y012600D01*
X014975Y012200D02*
X014975Y012000D01*
X016600Y008575D02*
X016600Y008375D01*
X018225Y008375D02*
X018225Y008575D01*
X010075Y009225D02*
X009875Y009225D01*
X007200Y009600D02*
X007000Y009600D01*
X007350Y008075D02*
X007350Y007875D01*
X003975Y009375D02*
X003975Y009575D01*
X002325Y010225D02*
X002125Y010225D01*
X003375Y012225D02*
X003575Y012225D01*
X003575Y013225D02*
X003375Y013225D01*
X003375Y014225D02*
X003575Y014225D01*
X004975Y013825D02*
X004975Y013625D01*
X005375Y012225D02*
X005575Y012225D01*
D19*
X009720Y010600D02*
X009720Y010350D01*
X009720Y010100D01*
X009970Y010100D02*
X009970Y010350D01*
X009970Y010600D01*
X003975Y004730D02*
X003725Y004730D01*
X003475Y004730D01*
X003475Y004480D02*
X003725Y004480D01*
X003975Y004480D01*
D20*
X009975Y005100D03*
D21*
X009975Y004600D03*
X009975Y006350D03*
D22*
X016350Y009975D03*
X017100Y010850D03*
X003600Y011225D03*
D23*
X004100Y011225D03*
X002350Y011225D03*
X015850Y010850D03*
X015850Y009975D03*
X017600Y009975D03*
X017600Y010850D03*
D24*
X005475Y008000D03*
D25*
X005475Y008670D03*
X005475Y004530D03*
M02*
