%
M48
M72
T01C0.0236
T02C0.0320
T03C0.0394
T04C0.0400
T05C0.0550
T06C0.1220
%
T01
X4350Y4600
X4475Y6475
X6475Y6850
X9350Y5725
X9475Y12600
X10475Y14725
T02
X11475Y14600
X11475Y13600
X11475Y12600
X11475Y11600
X10850Y10350
X10475Y9225
X9475Y9225
X8850Y10350
X7600Y9600
X6600Y9600
X6850Y10600
X6100Y11100
X6850Y11600
X5975Y12225
X4975Y12225
X4975Y13225
X3975Y13225
X3975Y12225
X2975Y12225
X2975Y13225
X2975Y14225
X3975Y14225
X4975Y14225
X6100Y13975
X6850Y13475
X6850Y14475
X8475Y14600
X8475Y13600
X8475Y12600
X8475Y11600
X7350Y8475
X7350Y7475
X8100Y7475
X8850Y6975
X8850Y7975
X9975Y6975
X7725Y5725
X7725Y4725
X9975Y3975
X14850Y8100
X14850Y9100
X15225Y9975
X15225Y10850
X14975Y11600
X15975Y12225
X15975Y13225
X16975Y13225
X16975Y12225
X18225Y10850
X18225Y9975
X18225Y8975
X18225Y7975
X16600Y7975
X16600Y8975
X13850Y11100
X13100Y10600
X13100Y11600
X12975Y12600
X13100Y13475
X13850Y13975
X13100Y14475
X14975Y14475
X14975Y13475
X14975Y12600
X13975Y12600
X15975Y14225
X16975Y14225
X4725Y11225
X3975Y9975
X3975Y8975
X3975Y8100
X3975Y7100
X3725Y5600
X3725Y3600
X2725Y10225
X1725Y10225
X1725Y11225
T03
X7725Y1975
X8725Y1975
T04
X10475Y1975
X11475Y1975
X12475Y1975
X14475Y1975
X15475Y1975
X16475Y1975
X16225Y3975
X14225Y3975
X11225Y3975
X11225Y6975
X11225Y8600
X12225Y8600
X13225Y8600
X14225Y6975
X16225Y6975
X18225Y6975
X18225Y3975
X18225Y12225
X18225Y13225
X18225Y14225
X15975Y15975
X14975Y15975
X13975Y15975
X12475Y16225
X11475Y16225
X10475Y16225
X9475Y16225
X8475Y16225
X7475Y16225
X5975Y15975
X4975Y15975
X3975Y15975
X1725Y14225
X1725Y13225
X1725Y12225
X1725Y9100
X1725Y8100
X1725Y7100
X1725Y5600
X1725Y4600
X1725Y3600
X3975Y1975
X4975Y1975
X5975Y1975
T05
X5475Y3600
X5475Y9600
T06
X1725Y1975
X1725Y15975
X18225Y15975
X18225Y1975
M30
