G75*
G70*
%OFA0B0*%
%FSLAX24Y24*%
%IPPOS*%
%LPD*%
%AMOC8*
5,1,8,0,0,1.08239X$1,22.5*
%
%ADD10OC8,0.0520*%
%ADD11C,0.0520*%
%ADD12C,0.1000*%
%ADD13OC8,0.1000*%
%ADD14OC8,0.0560*%
%ADD15C,0.0600*%
%ADD16OC8,0.0600*%
%ADD17OC8,0.0969*%
%ADD18OC8,0.0550*%
%ADD19C,0.0709*%
%ADD20C,0.0660*%
%ADD21C,0.0825*%
%ADD22C,0.0660*%
%ADD23C,0.0320*%
%ADD24C,0.0160*%
%ADD25C,0.0100*%
%ADD26C,0.0500*%
%ADD27C,0.0400*%
%ADD28C,0.0436*%
%ADD29C,0.3150*%
D10*
X004093Y014101D03*
X006093Y014101D03*
X006093Y018101D03*
X006093Y019101D03*
X006093Y020101D03*
X004093Y019101D03*
X004093Y018101D03*
X006093Y024101D03*
X045093Y023101D03*
X047093Y023101D03*
X045093Y018101D03*
X046593Y015351D03*
X047593Y015351D03*
X045093Y014101D03*
X045093Y012101D03*
X045093Y010101D03*
X045093Y008101D03*
X045093Y006101D03*
X045093Y004101D03*
X045093Y002101D03*
X049093Y002101D03*
X049093Y004101D03*
X049093Y006101D03*
X049093Y008101D03*
X049093Y010101D03*
X049093Y012101D03*
X056093Y014101D03*
X058093Y014101D03*
X061093Y015101D03*
X061093Y016101D03*
X059093Y020101D03*
X056093Y020101D03*
X057093Y022851D03*
X057093Y024851D03*
X055093Y035976D03*
X055093Y037976D03*
X049593Y038101D03*
X048093Y036601D03*
X047093Y036601D03*
X045593Y038101D03*
X056093Y003101D03*
X058093Y003101D03*
D11*
X059093Y026841D02*
X059093Y027361D01*
X060093Y027361D02*
X060093Y026841D01*
X053093Y026841D02*
X053093Y027361D01*
X052093Y027361D02*
X052093Y026841D01*
X051093Y026841D02*
X051093Y027361D01*
X051093Y032841D02*
X051093Y033361D01*
X052093Y033361D02*
X052093Y032841D01*
X053093Y032841D02*
X053093Y033361D01*
X059093Y033361D02*
X059093Y032841D01*
X060093Y032841D02*
X060093Y033361D01*
D12*
X052093Y037851D03*
X060093Y024851D03*
X045093Y020101D03*
D13*
X047093Y020101D03*
X060093Y022851D03*
X052093Y035851D03*
D14*
X031093Y036101D03*
X031093Y037101D03*
X030093Y037101D03*
X030093Y036101D03*
X030093Y035101D03*
X031093Y035101D03*
X031093Y034101D03*
X030093Y034101D03*
X030093Y033101D03*
X031093Y033101D03*
X025093Y033101D03*
X024093Y033101D03*
X024093Y034101D03*
X025093Y034101D03*
X025093Y035101D03*
X024093Y035101D03*
X024093Y036101D03*
X025093Y036101D03*
X025093Y037101D03*
X024093Y037101D03*
X019093Y037101D03*
X018093Y037101D03*
X018093Y036101D03*
X019093Y036101D03*
X019093Y035101D03*
X018093Y035101D03*
X018093Y034101D03*
X019093Y034101D03*
X019093Y033101D03*
X018093Y033101D03*
X013093Y033101D03*
X012093Y033101D03*
X012093Y034101D03*
X013093Y034101D03*
X013093Y035101D03*
X012093Y035101D03*
X012093Y036101D03*
X013093Y036101D03*
X013093Y037101D03*
X012093Y037101D03*
X007093Y037101D03*
X006093Y037101D03*
X006093Y036101D03*
X007093Y036101D03*
X007093Y035101D03*
X006093Y035101D03*
X006093Y034101D03*
X007093Y034101D03*
X007093Y033101D03*
X006093Y033101D03*
X012093Y027701D03*
X013093Y027701D03*
X014093Y027701D03*
X015093Y027701D03*
X016093Y027701D03*
X017093Y027701D03*
X018093Y027701D03*
X019093Y027701D03*
X020093Y027701D03*
X021093Y027701D03*
X022093Y027701D03*
X023093Y027701D03*
X024093Y027701D03*
X024093Y026701D03*
X023093Y026701D03*
X022093Y026701D03*
X021093Y026701D03*
X020093Y026701D03*
X019093Y026701D03*
X018093Y026701D03*
X017093Y026701D03*
X016093Y026701D03*
X015093Y026701D03*
X014093Y026701D03*
X013093Y026701D03*
X012093Y026701D03*
X010493Y025101D03*
X009493Y025101D03*
X009493Y024101D03*
X010493Y024101D03*
X010493Y023101D03*
X009493Y023101D03*
X009493Y022101D03*
X010493Y022101D03*
X010493Y021101D03*
X009493Y021101D03*
X009493Y020101D03*
X010493Y020101D03*
X010493Y019101D03*
X009493Y019101D03*
X009493Y018101D03*
X010493Y018101D03*
X010493Y017101D03*
X009493Y017101D03*
X009493Y016101D03*
X010493Y016101D03*
X010493Y015101D03*
X009493Y015101D03*
X009493Y014101D03*
X010493Y014101D03*
X010493Y013101D03*
X009493Y013101D03*
X012093Y011501D03*
X013093Y011501D03*
X014093Y011501D03*
X015093Y011501D03*
X016093Y011501D03*
X017093Y011501D03*
X018093Y011501D03*
X019093Y011501D03*
X020093Y011501D03*
X021093Y011501D03*
X022093Y011501D03*
X023093Y011501D03*
X024093Y011501D03*
X024093Y010501D03*
X023093Y010501D03*
X022093Y010501D03*
X021093Y010501D03*
X020093Y010501D03*
X019093Y010501D03*
X018093Y010501D03*
X017093Y010501D03*
X016093Y010501D03*
X015093Y010501D03*
X014093Y010501D03*
X013093Y010501D03*
X012093Y010501D03*
X012093Y006601D03*
X013093Y006601D03*
X013093Y005601D03*
X012093Y005601D03*
X012093Y004601D03*
X013093Y004601D03*
X013093Y003601D03*
X012093Y003601D03*
X012093Y002601D03*
X013093Y002601D03*
X018093Y002601D03*
X019093Y002601D03*
X019093Y003601D03*
X019093Y004601D03*
X018093Y004601D03*
X018093Y003601D03*
X018093Y005601D03*
X018093Y006601D03*
X019093Y006601D03*
X019093Y005601D03*
X024093Y005601D03*
X025093Y005601D03*
X025093Y006601D03*
X024093Y006601D03*
X024093Y004601D03*
X025093Y004601D03*
X025093Y003601D03*
X024093Y003601D03*
X024093Y002601D03*
X025093Y002601D03*
X030093Y002601D03*
X031093Y002601D03*
X031093Y003601D03*
X031093Y004601D03*
X030093Y004601D03*
X030093Y003601D03*
X030093Y005601D03*
X030093Y006601D03*
X031093Y006601D03*
X031093Y005601D03*
X026693Y013101D03*
X026693Y014101D03*
X025693Y014101D03*
X025693Y013101D03*
X025693Y015101D03*
X025693Y016101D03*
X026693Y016101D03*
X026693Y015101D03*
X026693Y017101D03*
X026693Y018101D03*
X025693Y018101D03*
X025693Y017101D03*
X025693Y019101D03*
X025693Y020101D03*
X026693Y020101D03*
X026693Y019101D03*
X026693Y021101D03*
X026693Y022101D03*
X025693Y022101D03*
X025693Y021101D03*
X025693Y023101D03*
X025693Y024101D03*
X026693Y024101D03*
X026693Y023101D03*
X026693Y025101D03*
X025693Y025101D03*
X007093Y006601D03*
X006093Y006601D03*
X006093Y005601D03*
X007093Y005601D03*
X007093Y004601D03*
X006093Y004601D03*
X006093Y003601D03*
X007093Y003601D03*
X007093Y002601D03*
X006093Y002601D03*
D15*
X002393Y017101D02*
X001793Y017101D01*
X001793Y018101D02*
X002393Y018101D01*
X002393Y019101D02*
X001793Y019101D01*
X001793Y020101D02*
X002393Y020101D01*
X002393Y021101D02*
X001793Y021101D01*
X001793Y022101D02*
X002393Y022101D01*
X002093Y024801D02*
X002093Y025401D01*
X004093Y025401D02*
X004093Y024801D01*
X004093Y027801D02*
X004093Y028401D01*
X002093Y028401D02*
X002093Y027801D01*
X045093Y025401D02*
X045093Y024801D01*
X046093Y024801D02*
X046093Y025401D01*
X047093Y025401D02*
X047093Y024801D01*
D16*
X041093Y025101D03*
X040093Y025101D03*
X040093Y026101D03*
X041093Y026101D03*
X041093Y027101D03*
X040093Y027101D03*
X040093Y028101D03*
X041093Y028101D03*
X041093Y029101D03*
X040093Y029101D03*
X040093Y030101D03*
X041093Y030101D03*
X041093Y031101D03*
X040093Y031101D03*
X039093Y031101D03*
X038093Y031101D03*
X037093Y031101D03*
X036093Y031101D03*
X035093Y031101D03*
X034093Y031101D03*
X034093Y032101D03*
X035093Y032101D03*
X036093Y032101D03*
X037093Y032101D03*
X038093Y032101D03*
X039093Y032101D03*
X040093Y032101D03*
X041093Y032101D03*
X039093Y030101D03*
X038093Y030101D03*
X037093Y030101D03*
X036093Y030101D03*
X035093Y030101D03*
X034093Y030101D03*
X034093Y029101D03*
X035093Y029101D03*
X036093Y029101D03*
X037093Y029101D03*
X038093Y029101D03*
X039093Y029101D03*
X039093Y028101D03*
X038093Y028101D03*
X037093Y028101D03*
X036093Y028101D03*
X035093Y028101D03*
X034093Y028101D03*
X034093Y027101D03*
X035093Y027101D03*
X036093Y027101D03*
X037093Y027101D03*
X038093Y027101D03*
X039093Y027101D03*
X039093Y026101D03*
X038093Y026101D03*
X037093Y026101D03*
X036093Y026101D03*
X035093Y026101D03*
X034093Y026101D03*
X034093Y025101D03*
X035093Y025101D03*
X036093Y025101D03*
X037093Y025101D03*
X038093Y025101D03*
X039093Y025101D03*
X039093Y024101D03*
X038093Y024101D03*
X037093Y024101D03*
X036093Y024101D03*
X035093Y024101D03*
X034093Y024101D03*
X034093Y023101D03*
X035093Y023101D03*
X036093Y023101D03*
X037093Y023101D03*
X038093Y023101D03*
X039093Y023101D03*
X040093Y023101D03*
X041093Y023101D03*
X041093Y024101D03*
X040093Y024101D03*
X040093Y022101D03*
X041093Y022101D03*
X041093Y021101D03*
X040093Y021101D03*
X039093Y021101D03*
X038093Y021101D03*
X038093Y022101D03*
X039093Y022101D03*
X037093Y022101D03*
X036093Y022101D03*
X035093Y022101D03*
X034093Y022101D03*
X034093Y021101D03*
X035093Y021101D03*
X036093Y021101D03*
X037093Y021101D03*
X037093Y020101D03*
X036093Y020101D03*
X035093Y020101D03*
X034093Y020101D03*
X034093Y019101D03*
X035093Y019101D03*
X036093Y019101D03*
X037093Y019101D03*
X038093Y019101D03*
X039093Y019101D03*
X039093Y020101D03*
X038093Y020101D03*
X040093Y020101D03*
X041093Y020101D03*
X041093Y019101D03*
X040093Y019101D03*
X040093Y018101D03*
X041093Y018101D03*
X041093Y017101D03*
X040093Y017101D03*
X039093Y017101D03*
X038093Y017101D03*
X038093Y018101D03*
X039093Y018101D03*
X037093Y018101D03*
X036093Y018101D03*
X035093Y018101D03*
X034093Y018101D03*
X034093Y017101D03*
X035093Y017101D03*
X036093Y017101D03*
X037093Y017101D03*
X037093Y016101D03*
X036093Y016101D03*
X035093Y016101D03*
X034093Y016101D03*
X034093Y015101D03*
X035093Y015101D03*
X036093Y015101D03*
X037093Y015101D03*
X038093Y015101D03*
X039093Y015101D03*
X039093Y016101D03*
X038093Y016101D03*
X040093Y016101D03*
X041093Y016101D03*
X041093Y015101D03*
X040093Y015101D03*
X040093Y014101D03*
X041093Y014101D03*
X041093Y013101D03*
X040093Y013101D03*
X039093Y013101D03*
X038093Y013101D03*
X038093Y014101D03*
X039093Y014101D03*
X037093Y014101D03*
X036093Y014101D03*
X035093Y014101D03*
X034093Y014101D03*
X034093Y013101D03*
X035093Y013101D03*
X036093Y013101D03*
X037093Y013101D03*
X037093Y012101D03*
X036093Y012101D03*
X035093Y012101D03*
X034093Y012101D03*
X034093Y011101D03*
X035093Y011101D03*
X036093Y011101D03*
X037093Y011101D03*
X038093Y011101D03*
X039093Y011101D03*
X039093Y012101D03*
X038093Y012101D03*
X040093Y012101D03*
X041093Y012101D03*
X041093Y011101D03*
X040093Y011101D03*
X040093Y010101D03*
X041093Y010101D03*
X041093Y009101D03*
X040093Y009101D03*
X039093Y009101D03*
X038093Y009101D03*
X037093Y009101D03*
X036093Y009101D03*
X035093Y009101D03*
X034093Y009101D03*
X034093Y008101D03*
X035093Y008101D03*
X036093Y008101D03*
X037093Y008101D03*
X038093Y008101D03*
X039093Y008101D03*
X040093Y008101D03*
X041093Y008101D03*
X041093Y007101D03*
X040093Y007101D03*
X039093Y007101D03*
X038093Y007101D03*
X037093Y007101D03*
X036093Y007101D03*
X035093Y007101D03*
X034093Y007101D03*
X034093Y006101D03*
X035093Y006101D03*
X036093Y006101D03*
X037093Y006101D03*
X038093Y006101D03*
X039093Y006101D03*
X040093Y006101D03*
X041093Y006101D03*
X041093Y005101D03*
X040093Y005101D03*
X039093Y005101D03*
X038093Y005101D03*
X037093Y005101D03*
X036093Y005101D03*
X035093Y005101D03*
X034093Y005101D03*
X034093Y004101D03*
X035093Y004101D03*
X036093Y004101D03*
X037093Y004101D03*
X038093Y004101D03*
X039093Y004101D03*
X040093Y004101D03*
X041093Y004101D03*
X039093Y010101D03*
X038093Y010101D03*
X037093Y010101D03*
X036093Y010101D03*
X035093Y010101D03*
X034093Y010101D03*
X005093Y026601D03*
D17*
X059841Y011776D03*
X059841Y005426D03*
D18*
X052589Y006603D03*
X052589Y007402D03*
X052589Y008201D03*
X052589Y009000D03*
X052589Y009800D03*
X052589Y010599D03*
X051589Y010998D03*
X051589Y010199D03*
X051589Y009400D03*
X050589Y009998D03*
X050589Y010998D03*
X051589Y007802D03*
X051589Y007002D03*
X051589Y006203D03*
X050589Y006203D03*
X050589Y007203D03*
D19*
X060739Y018101D02*
X061447Y018101D01*
X061447Y019101D02*
X060739Y019101D01*
X060739Y020101D02*
X061447Y020101D01*
D20*
X055093Y020101D03*
X051093Y020101D03*
D21*
X051505Y018101D02*
X050680Y018101D01*
X056680Y018101D02*
X057505Y018101D01*
D22*
X061093Y018101D02*
X061093Y016101D01*
D23*
X041843Y000661D02*
X000661Y000661D01*
X000661Y038911D01*
X033343Y038911D01*
X033343Y020560D01*
X033196Y020621D01*
X032989Y020621D01*
X032798Y020542D01*
X032652Y020395D01*
X032573Y020204D01*
X032573Y019997D01*
X032652Y019806D01*
X032723Y019735D01*
X032723Y010150D01*
X032375Y010498D01*
X032240Y010633D01*
X032063Y010706D01*
X030573Y010706D01*
X030573Y017005D01*
X030573Y017196D01*
X030573Y028902D01*
X031365Y029694D01*
X031500Y029829D01*
X031573Y030005D01*
X031573Y030525D01*
X031576Y030528D01*
X031663Y030737D01*
X031663Y030964D01*
X031576Y031174D01*
X031416Y031334D01*
X031206Y031421D01*
X030980Y031421D01*
X030770Y031334D01*
X030610Y031174D01*
X030523Y030964D01*
X030523Y030737D01*
X030610Y030528D01*
X030613Y030525D01*
X030613Y030300D01*
X029821Y029508D01*
X029821Y029508D01*
X029686Y029373D01*
X029613Y029196D01*
X029613Y017581D01*
X027061Y017581D01*
X026999Y017643D01*
X027233Y017877D01*
X027233Y018101D01*
X026693Y018101D01*
X026693Y018101D01*
X027233Y018101D01*
X027233Y018324D01*
X026999Y018558D01*
X027293Y018852D01*
X027293Y019349D01*
X027041Y019601D01*
X027293Y019852D01*
X027293Y020349D01*
X027041Y020601D01*
X027293Y020852D01*
X027293Y021349D01*
X027041Y021601D01*
X027293Y021852D01*
X027293Y022231D01*
X027519Y022231D01*
X027667Y022231D01*
X027803Y022287D01*
X028157Y022641D01*
X028213Y022777D01*
X028213Y022924D01*
X028213Y023592D01*
X028239Y023581D01*
X028446Y023581D01*
X028473Y023592D01*
X028473Y019466D01*
X028402Y019395D01*
X028323Y019204D01*
X028323Y018997D01*
X028402Y018806D01*
X028548Y018660D01*
X028739Y018581D01*
X028946Y018581D01*
X029137Y018660D01*
X029284Y018806D01*
X029363Y018997D01*
X029363Y019204D01*
X029284Y019395D01*
X029213Y019466D01*
X029213Y026235D01*
X029284Y026306D01*
X029363Y026497D01*
X029363Y026704D01*
X029284Y026895D01*
X029137Y027042D01*
X028946Y027121D01*
X028863Y027121D01*
X028863Y027204D01*
X028784Y027395D01*
X028637Y027542D01*
X028581Y027565D01*
X028657Y027641D01*
X028713Y027777D01*
X028713Y027985D01*
X028784Y028056D01*
X028863Y028247D01*
X028863Y028454D01*
X028784Y028645D01*
X028637Y028792D01*
X028446Y028871D01*
X028239Y028871D01*
X028048Y028792D01*
X027902Y028645D01*
X027823Y028454D01*
X027823Y028371D01*
X027739Y028371D01*
X027548Y028292D01*
X027402Y028145D01*
X027323Y027954D01*
X027323Y027854D01*
X027258Y027789D01*
X027154Y027685D01*
X027098Y027549D01*
X027098Y025544D01*
X026941Y025701D01*
X026444Y025701D01*
X026193Y025449D01*
X025941Y025701D01*
X025444Y025701D01*
X025093Y025349D01*
X025093Y024874D01*
X025029Y024810D01*
X024779Y024560D01*
X024732Y024447D01*
X024637Y024542D01*
X024446Y024621D01*
X024239Y024621D01*
X024048Y024542D01*
X023902Y024395D01*
X023823Y024204D01*
X023823Y023997D01*
X023902Y023806D01*
X023973Y023735D01*
X023973Y021652D01*
X024027Y021521D01*
X023902Y021395D01*
X023823Y021204D01*
X023823Y021104D01*
X023133Y020414D01*
X023029Y020310D01*
X022973Y020174D01*
X022973Y018110D01*
X022946Y018121D01*
X022739Y018121D01*
X022548Y018042D01*
X022402Y017895D01*
X022323Y017704D01*
X022323Y017497D01*
X022402Y017306D01*
X022473Y017235D01*
X022473Y015216D01*
X022402Y015145D01*
X022323Y014954D01*
X022323Y014747D01*
X022402Y014556D01*
X022548Y014410D01*
X022739Y014331D01*
X022946Y014331D01*
X022973Y014342D01*
X022973Y014216D01*
X022902Y014145D01*
X022823Y013954D01*
X022823Y013747D01*
X022875Y013621D01*
X022739Y013621D01*
X022548Y013542D01*
X022402Y013395D01*
X022323Y013204D01*
X022323Y012997D01*
X022402Y012806D01*
X022548Y012660D01*
X022613Y012633D01*
X022613Y011869D01*
X022551Y011807D01*
X022317Y012041D01*
X022093Y012041D01*
X022093Y011501D01*
X022093Y011501D01*
X022093Y012041D01*
X021869Y012041D01*
X021635Y011807D01*
X021341Y012101D01*
X020844Y012101D01*
X020593Y011849D01*
X020341Y012101D01*
X019844Y012101D01*
X019593Y011849D01*
X019341Y012101D01*
X018844Y012101D01*
X018593Y011849D01*
X018341Y012101D01*
X017844Y012101D01*
X017593Y011849D01*
X017341Y012101D01*
X016844Y012101D01*
X016593Y011849D01*
X016341Y012101D01*
X016113Y012101D01*
X016113Y012204D01*
X016034Y012395D01*
X015963Y012466D01*
X015963Y015323D01*
X016621Y015981D01*
X019728Y015981D01*
X019798Y015910D01*
X019989Y015831D01*
X020196Y015831D01*
X020387Y015910D01*
X020534Y016056D01*
X020613Y016247D01*
X020613Y016454D01*
X020534Y016645D01*
X020387Y016792D01*
X020196Y016871D01*
X019989Y016871D01*
X019798Y016792D01*
X019728Y016721D01*
X016542Y016721D01*
X016394Y016721D01*
X016258Y016664D01*
X015383Y015789D01*
X015279Y015685D01*
X015223Y015549D01*
X015223Y012466D01*
X015152Y012395D01*
X015073Y012204D01*
X015073Y012101D01*
X014844Y012101D01*
X014593Y011849D01*
X014341Y012101D01*
X013844Y012101D01*
X013593Y011849D01*
X013341Y012101D01*
X012963Y012101D01*
X012963Y012323D01*
X013596Y012956D01*
X013696Y012956D01*
X013887Y013035D01*
X014034Y013181D01*
X014113Y013372D01*
X014113Y013579D01*
X014034Y013770D01*
X013887Y013917D01*
X013696Y013996D01*
X013489Y013996D01*
X013298Y013917D01*
X013152Y013770D01*
X013073Y013579D01*
X013073Y013479D01*
X012463Y012869D01*
X012463Y014342D01*
X012489Y014331D01*
X012696Y014331D01*
X012887Y014410D01*
X013034Y014556D01*
X013113Y014747D01*
X013113Y014848D01*
X013596Y015331D01*
X013696Y015331D01*
X013887Y015410D01*
X014034Y015556D01*
X014113Y015747D01*
X014113Y015954D01*
X014034Y016145D01*
X013887Y016292D01*
X013696Y016371D01*
X013489Y016371D01*
X013298Y016292D01*
X013226Y016220D01*
X013238Y016247D01*
X013238Y016454D01*
X013159Y016645D01*
X013012Y016792D01*
X012821Y016871D01*
X012614Y016871D01*
X012423Y016792D01*
X012353Y016721D01*
X011417Y016721D01*
X011269Y016721D01*
X011133Y016664D01*
X010956Y016487D01*
X010799Y016643D01*
X011033Y016877D01*
X011033Y017101D01*
X010493Y017101D01*
X010493Y017101D01*
X010159Y017101D01*
X010158Y017101D01*
X010493Y017101D01*
X010493Y017101D01*
X011033Y017101D01*
X011033Y017324D01*
X010799Y017558D01*
X011073Y017832D01*
X011073Y017747D01*
X011152Y017556D01*
X011298Y017410D01*
X011489Y017331D01*
X011696Y017331D01*
X011887Y017410D01*
X012034Y017556D01*
X012113Y017747D01*
X012113Y017954D01*
X012034Y018145D01*
X011963Y018216D01*
X011963Y019924D01*
X011907Y020060D01*
X011803Y020164D01*
X011802Y020164D01*
X011553Y020414D01*
X011417Y020471D01*
X011269Y020471D01*
X010971Y020471D01*
X010841Y020601D01*
X011093Y020852D01*
X011093Y021349D01*
X010841Y021601D01*
X011093Y021852D01*
X011093Y022142D01*
X011239Y022081D01*
X011446Y022081D01*
X011637Y022160D01*
X011784Y022306D01*
X011863Y022497D01*
X011863Y022704D01*
X011784Y022895D01*
X011637Y023042D01*
X011446Y023121D01*
X011239Y023121D01*
X011048Y023042D01*
X011033Y023026D01*
X011033Y023101D01*
X010493Y023101D01*
X010493Y023101D01*
X011033Y023101D01*
X011033Y023324D01*
X010799Y023558D01*
X011093Y023852D01*
X011093Y024349D01*
X010841Y024601D01*
X011093Y024852D01*
X011093Y025349D01*
X010741Y025701D01*
X010244Y025701D01*
X009993Y025449D01*
X009973Y025469D01*
X009973Y028802D01*
X010292Y029121D01*
X010892Y029121D01*
X010823Y028954D01*
X010823Y028747D01*
X010902Y028556D01*
X010973Y028485D01*
X010973Y026027D01*
X011029Y025891D01*
X011133Y025787D01*
X012823Y024098D01*
X012823Y023997D01*
X012902Y023806D01*
X013048Y023660D01*
X013239Y023581D01*
X013446Y023581D01*
X013637Y023660D01*
X013784Y023806D01*
X013863Y023997D01*
X013863Y024204D01*
X013784Y024395D01*
X013637Y024542D01*
X013446Y024621D01*
X013346Y024621D01*
X011866Y026101D01*
X012341Y026101D01*
X012635Y026395D01*
X012869Y026161D01*
X013093Y026161D01*
X013093Y026700D01*
X013093Y026700D01*
X013093Y026161D01*
X013317Y026161D01*
X013551Y026395D01*
X013844Y026101D01*
X014341Y026101D01*
X014593Y026352D01*
X014844Y026101D01*
X015341Y026101D01*
X015635Y026395D01*
X015869Y026161D01*
X016093Y026161D01*
X016093Y026700D01*
X016093Y026700D01*
X016093Y026161D01*
X016271Y026161D01*
X016279Y026141D01*
X016383Y026037D01*
X016383Y026037D01*
X016529Y025891D01*
X016529Y025891D01*
X016633Y025787D01*
X016769Y025731D01*
X019417Y025731D01*
X019553Y025787D01*
X019657Y025891D01*
X019843Y026078D01*
X019883Y026037D01*
X019883Y026037D01*
X020029Y025891D01*
X020133Y025787D01*
X020269Y025731D01*
X024269Y025731D01*
X024417Y025731D01*
X024553Y025787D01*
X026053Y027287D01*
X026157Y027391D01*
X026213Y027527D01*
X026213Y029485D01*
X026284Y029556D01*
X026363Y029747D01*
X026363Y029954D01*
X026294Y030121D01*
X029188Y030121D01*
X029365Y030194D01*
X029452Y030281D01*
X029456Y030281D01*
X029666Y030368D01*
X029826Y030528D01*
X029913Y030737D01*
X029913Y030964D01*
X029826Y031174D01*
X029666Y031334D01*
X029456Y031421D01*
X029230Y031421D01*
X029020Y031334D01*
X028860Y031174D01*
X028821Y031081D01*
X027794Y031081D01*
X027863Y031247D01*
X027863Y031348D01*
X028114Y031598D01*
X028262Y031660D01*
X028280Y031678D01*
X028298Y031660D01*
X028489Y031581D01*
X028696Y031581D01*
X028887Y031660D01*
X029034Y031806D01*
X029113Y031997D01*
X029113Y032204D01*
X029034Y032395D01*
X028887Y032542D01*
X028696Y032621D01*
X028596Y032621D01*
X026963Y034254D01*
X026963Y036152D01*
X026963Y036299D01*
X026907Y036435D01*
X026532Y036810D01*
X026428Y036914D01*
X026292Y036971D01*
X025693Y036971D01*
X025693Y037349D01*
X025341Y037701D01*
X024844Y037701D01*
X024551Y037407D01*
X024317Y037641D01*
X024093Y037641D01*
X024093Y037101D01*
X024093Y038601D01*
X030093Y038601D01*
X030093Y037101D01*
X030093Y036101D01*
X030093Y035101D01*
X030093Y034101D01*
X030093Y033101D01*
X030093Y033101D01*
X030093Y034100D01*
X030093Y034100D01*
X030093Y033641D01*
X030093Y033101D01*
X030093Y033101D01*
X030093Y033641D01*
X030093Y034100D01*
X030093Y034100D01*
X030093Y033641D01*
X030093Y033101D01*
X029553Y033101D01*
X029553Y033324D01*
X029829Y033601D01*
X029553Y033877D01*
X029553Y034101D01*
X029553Y034324D01*
X029829Y034601D01*
X029553Y034877D01*
X029553Y035101D01*
X029553Y035324D01*
X029829Y035601D01*
X029553Y035877D01*
X029553Y036101D01*
X029553Y036324D01*
X029829Y036601D01*
X029553Y036877D01*
X029553Y037101D01*
X029553Y037324D01*
X029869Y037641D01*
X030093Y037641D01*
X030093Y037101D01*
X030093Y037101D01*
X030093Y038911D01*
X055843Y038911D01*
X055843Y030601D01*
X055343Y030101D01*
X055343Y026226D01*
X048593Y026226D01*
X048593Y012421D01*
X048513Y012341D01*
X048513Y011861D01*
X048593Y011781D01*
X048593Y010421D01*
X048513Y010341D01*
X048513Y009861D01*
X048593Y009781D01*
X048593Y008421D01*
X048513Y008341D01*
X048513Y007861D01*
X048593Y007781D01*
X048593Y006421D01*
X048513Y006341D01*
X048513Y005861D01*
X048593Y005781D01*
X048593Y004421D01*
X048513Y004341D01*
X048513Y003861D01*
X048593Y003781D01*
X048593Y002421D01*
X048513Y002341D01*
X048513Y001861D01*
X048593Y001781D01*
X048593Y000661D01*
X041843Y000661D01*
X041843Y003351D01*
X033343Y003351D01*
X033343Y004203D01*
X033032Y003891D01*
X032928Y003787D01*
X032792Y003731D01*
X031833Y003731D01*
X031762Y003660D01*
X031693Y003631D01*
X031693Y003352D01*
X031399Y003058D01*
X031633Y002824D01*
X031633Y002601D01*
X031093Y002601D01*
X034093Y002601D01*
X038093Y002601D01*
X038093Y004101D01*
X039093Y004101D01*
X041843Y004242D02*
X044513Y004242D01*
X044513Y004341D02*
X044853Y004681D01*
X045333Y004681D01*
X045673Y004341D01*
X045673Y003861D01*
X045573Y003761D01*
X045573Y002441D01*
X045673Y002341D01*
X045673Y001861D01*
X045333Y001521D01*
X044853Y001521D01*
X044513Y001861D01*
X044513Y002341D01*
X044613Y002441D01*
X044613Y003761D01*
X044513Y003861D01*
X044513Y004341D01*
X044732Y004560D02*
X041843Y004560D01*
X041843Y004879D02*
X048593Y004879D01*
X048593Y005197D02*
X041843Y005197D01*
X041843Y005516D02*
X048593Y005516D01*
X048539Y005835D02*
X045647Y005835D01*
X045673Y005861D02*
X045333Y005521D01*
X044853Y005521D01*
X044513Y005861D01*
X044513Y006158D01*
X042590Y008081D01*
X042489Y008081D01*
X042298Y008160D01*
X042152Y008306D01*
X042073Y008497D01*
X042073Y008704D01*
X042152Y008895D01*
X042298Y009042D01*
X042489Y009121D01*
X042696Y009121D01*
X042887Y009042D01*
X043034Y008895D01*
X043113Y008704D01*
X043113Y008604D01*
X045036Y006681D01*
X045333Y006681D01*
X045673Y006341D01*
X045673Y005861D01*
X045673Y006153D02*
X048513Y006153D01*
X048593Y006472D02*
X045542Y006472D01*
X044927Y006790D02*
X048593Y006790D01*
X048593Y007109D02*
X044608Y007109D01*
X044290Y007427D02*
X048593Y007427D01*
X048593Y007746D02*
X045558Y007746D01*
X045673Y007861D02*
X045333Y007521D01*
X044853Y007521D01*
X044513Y007861D01*
X044513Y008158D01*
X043590Y009081D01*
X043489Y009081D01*
X043298Y009160D01*
X043152Y009306D01*
X043073Y009497D01*
X043073Y009704D01*
X043152Y009895D01*
X043298Y010042D01*
X043489Y010121D01*
X043696Y010121D01*
X043887Y010042D01*
X044034Y009895D01*
X044113Y009704D01*
X044113Y009604D01*
X045036Y008681D01*
X045333Y008681D01*
X045673Y008341D01*
X045673Y007861D01*
X045673Y008064D02*
X048513Y008064D01*
X048555Y008383D02*
X045631Y008383D01*
X045015Y008701D02*
X048593Y008701D01*
X048593Y009020D02*
X044697Y009020D01*
X044378Y009339D02*
X048593Y009339D01*
X048593Y009657D02*
X045469Y009657D01*
X045333Y009521D02*
X044853Y009521D01*
X044513Y009861D01*
X044513Y010341D01*
X044613Y010441D01*
X044613Y011761D01*
X044513Y011861D01*
X044513Y012341D01*
X044853Y012681D01*
X045333Y012681D01*
X045673Y012341D01*
X045673Y011861D01*
X045573Y011761D01*
X045573Y010441D01*
X045673Y010341D01*
X045673Y009861D01*
X045333Y009521D01*
X045673Y009976D02*
X048513Y009976D01*
X048513Y010294D02*
X045673Y010294D01*
X045573Y010613D02*
X048593Y010613D01*
X048593Y010931D02*
X045573Y010931D01*
X045573Y011250D02*
X048593Y011250D01*
X048695Y010998D02*
X047593Y012101D01*
X047593Y015351D01*
X048343Y016101D01*
X061093Y016101D01*
X061578Y015351D02*
X061613Y015316D01*
X061613Y015101D01*
X061093Y015101D01*
X061093Y015101D01*
X060573Y015101D01*
X060573Y015316D01*
X060608Y015351D01*
X049593Y015351D01*
X049593Y012421D01*
X049673Y012341D01*
X049673Y011861D01*
X049593Y011781D01*
X049593Y011478D01*
X050227Y011478D01*
X050342Y011594D01*
X050836Y011594D01*
X051089Y011340D01*
X051342Y011594D01*
X051836Y011594D01*
X052184Y011245D01*
X052184Y011036D01*
X052342Y011194D01*
X052836Y011194D01*
X053184Y010845D01*
X053184Y010352D01*
X053031Y010199D01*
X053184Y010046D01*
X053184Y009553D01*
X053031Y009400D01*
X053184Y009247D01*
X053184Y008754D01*
X053031Y008601D01*
X053184Y008448D01*
X053184Y007955D01*
X053031Y007802D01*
X053184Y007648D01*
X053184Y007155D01*
X053031Y007002D01*
X053184Y006849D01*
X053184Y006356D01*
X052836Y006008D01*
X052342Y006008D01*
X052184Y006166D01*
X052184Y005957D01*
X051836Y005608D01*
X051342Y005608D01*
X051089Y005861D01*
X050836Y005608D01*
X050342Y005608D01*
X049994Y005957D01*
X049994Y006450D01*
X050247Y006703D01*
X049994Y006957D01*
X049994Y007450D01*
X050342Y007798D01*
X050723Y007798D01*
X050723Y009208D01*
X050657Y009141D01*
X050553Y009037D01*
X050417Y008981D01*
X049593Y008981D01*
X049593Y008421D01*
X049673Y008341D01*
X049673Y007861D01*
X049593Y007781D01*
X049593Y006421D01*
X049673Y006341D01*
X049673Y005861D01*
X049593Y005781D01*
X049593Y004421D01*
X049673Y004341D01*
X049673Y003861D01*
X049593Y003781D01*
X049593Y002421D01*
X049673Y002341D01*
X049673Y001861D01*
X049593Y001781D01*
X049593Y000661D01*
X062343Y000661D01*
X062343Y001396D01*
X062288Y001340D01*
X061856Y001091D01*
X061374Y000962D01*
X060875Y000962D01*
X060393Y001091D01*
X059961Y001340D01*
X059608Y001693D01*
X059359Y002125D01*
X059230Y002607D01*
X059230Y003106D01*
X059359Y003588D01*
X059608Y004020D01*
X059961Y004373D01*
X060393Y004622D01*
X060875Y004751D01*
X061374Y004751D01*
X061856Y004622D01*
X061863Y004618D01*
X061863Y015351D01*
X061578Y015351D01*
X061613Y015101D02*
X061613Y014885D01*
X061308Y014581D01*
X061093Y014581D01*
X061093Y015100D01*
X061093Y015100D01*
X061093Y014581D01*
X060878Y014581D01*
X060573Y014885D01*
X060573Y015101D01*
X061093Y015101D01*
X061093Y015101D01*
X061613Y015101D01*
X061613Y015072D02*
X061863Y015072D01*
X061863Y014754D02*
X061481Y014754D01*
X061093Y014754D02*
X061093Y014754D01*
X061093Y015072D02*
X061093Y015072D01*
X060705Y014754D02*
X049593Y014754D01*
X049593Y015072D02*
X060573Y015072D01*
X061863Y014435D02*
X058494Y014435D01*
X058613Y014316D02*
X058613Y014101D01*
X058093Y014101D01*
X058093Y014621D01*
X058308Y014621D01*
X058613Y014316D01*
X058613Y014117D02*
X061863Y014117D01*
X061863Y013798D02*
X058526Y013798D01*
X058613Y013885D02*
X058308Y013581D01*
X058093Y013581D01*
X058093Y014100D01*
X058093Y014100D01*
X058093Y013581D01*
X057878Y013581D01*
X057573Y013885D01*
X057573Y014101D01*
X057573Y014316D01*
X057878Y014621D01*
X058093Y014621D01*
X058093Y014101D01*
X058093Y014101D01*
X058093Y014101D01*
X057573Y014101D01*
X058093Y014101D01*
X058093Y014101D01*
X058613Y014101D01*
X058613Y013885D01*
X058093Y013798D02*
X058093Y013798D01*
X058093Y014117D02*
X058093Y014117D01*
X058093Y014435D02*
X058093Y014435D01*
X057692Y014435D02*
X056579Y014435D01*
X056673Y014341D02*
X056673Y013861D01*
X056333Y013521D01*
X055853Y013521D01*
X055513Y013861D01*
X055513Y014341D01*
X055853Y014681D01*
X056333Y014681D01*
X056673Y014341D01*
X056673Y014117D02*
X057573Y014117D01*
X057660Y013798D02*
X056611Y013798D01*
X055575Y013798D02*
X049593Y013798D01*
X049593Y013480D02*
X061863Y013480D01*
X061863Y013161D02*
X049593Y013161D01*
X049593Y012843D02*
X061863Y012843D01*
X061863Y012524D02*
X049593Y012524D01*
X049673Y012205D02*
X058107Y012205D01*
X058130Y012219D02*
X058435Y012301D01*
X058751Y012301D01*
X059056Y012219D01*
X059167Y012155D01*
X059533Y012520D01*
X059840Y012520D01*
X059840Y011778D01*
X059842Y011778D01*
X059842Y012520D01*
X060149Y012520D01*
X060585Y012084D01*
X060585Y011777D01*
X059843Y011777D01*
X059843Y011774D01*
X059842Y011774D02*
X059840Y011774D01*
X059840Y011032D01*
X059793Y011032D01*
X059793Y010943D01*
X059711Y010638D01*
X059553Y010364D01*
X059330Y010141D01*
X059056Y009983D01*
X058751Y009901D01*
X058435Y009901D01*
X058130Y009983D01*
X057856Y010141D01*
X057633Y010364D01*
X057475Y010638D01*
X057393Y010943D01*
X057393Y011259D01*
X057475Y011564D01*
X057633Y011837D01*
X057856Y012061D01*
X058130Y012219D01*
X057682Y011887D02*
X049673Y011887D01*
X049593Y011568D02*
X050317Y011568D01*
X050861Y011568D02*
X051317Y011568D01*
X051861Y011568D02*
X057478Y011568D01*
X057393Y011250D02*
X052179Y011250D01*
X053098Y010931D02*
X057396Y010931D01*
X057489Y010613D02*
X053184Y010613D01*
X053126Y010294D02*
X057703Y010294D01*
X058157Y009976D02*
X053184Y009976D01*
X053184Y009657D02*
X061863Y009657D01*
X061863Y009339D02*
X053092Y009339D01*
X053184Y009020D02*
X061863Y009020D01*
X061863Y008701D02*
X053132Y008701D01*
X053184Y008383D02*
X061863Y008383D01*
X061863Y008064D02*
X053184Y008064D01*
X053087Y007746D02*
X061863Y007746D01*
X061863Y007427D02*
X053184Y007427D01*
X053137Y007109D02*
X057939Y007109D01*
X057856Y007061D02*
X058130Y007219D01*
X058435Y007301D01*
X058751Y007301D01*
X059056Y007219D01*
X059330Y007061D01*
X059553Y006837D01*
X059711Y006564D01*
X059793Y006259D01*
X059793Y006170D01*
X059840Y006170D01*
X059840Y005427D01*
X059842Y005427D01*
X059842Y006170D01*
X060149Y006170D01*
X060585Y005734D01*
X060585Y005427D01*
X059843Y005427D01*
X059843Y005424D01*
X060585Y005424D01*
X060585Y005117D01*
X060149Y004681D01*
X059842Y004681D01*
X059842Y005424D01*
X059840Y005424D01*
X059840Y004681D01*
X059533Y004681D01*
X059167Y005047D01*
X059056Y004983D01*
X058751Y004901D01*
X058435Y004901D01*
X058130Y004983D01*
X057856Y005141D01*
X057633Y005364D01*
X057475Y005638D01*
X057393Y005943D01*
X057393Y006259D01*
X057475Y006564D01*
X057633Y006837D01*
X057856Y007061D01*
X057606Y006790D02*
X053184Y006790D01*
X053184Y006472D02*
X057450Y006472D01*
X057393Y006153D02*
X052981Y006153D01*
X052197Y006153D02*
X052184Y006153D01*
X052062Y005835D02*
X057422Y005835D01*
X057545Y005516D02*
X049593Y005516D01*
X049593Y005197D02*
X057800Y005197D01*
X059335Y004879D02*
X049593Y004879D01*
X049593Y004560D02*
X060286Y004560D01*
X060347Y004879D02*
X061863Y004879D01*
X061863Y005197D02*
X060585Y005197D01*
X060585Y005516D02*
X061863Y005516D01*
X061863Y005835D02*
X060484Y005835D01*
X060166Y006153D02*
X061863Y006153D01*
X061863Y006472D02*
X059736Y006472D01*
X059840Y006153D02*
X059842Y006153D01*
X059842Y005835D02*
X059840Y005835D01*
X059842Y005516D02*
X059840Y005516D01*
X059842Y005197D02*
X059840Y005197D01*
X059842Y004879D02*
X059840Y004879D01*
X059830Y004242D02*
X049673Y004242D01*
X049673Y003923D02*
X059552Y003923D01*
X059368Y003605D02*
X058324Y003605D01*
X058308Y003621D02*
X058613Y003316D01*
X058613Y003101D01*
X058093Y003101D01*
X058093Y003621D01*
X058308Y003621D01*
X058093Y003621D02*
X057878Y003621D01*
X057573Y003316D01*
X057573Y003101D01*
X058093Y003101D01*
X058093Y003101D01*
X058093Y003621D01*
X058093Y003605D02*
X058093Y003605D01*
X057862Y003605D02*
X056409Y003605D01*
X056333Y003681D02*
X056673Y003341D01*
X056673Y002861D01*
X056333Y002521D01*
X055853Y002521D01*
X055513Y002861D01*
X055513Y003341D01*
X055853Y003681D01*
X056333Y003681D01*
X056673Y003286D02*
X057573Y003286D01*
X057573Y003101D02*
X058093Y003101D01*
X058093Y003101D01*
X058093Y003101D01*
X058613Y003101D01*
X058613Y002885D01*
X058308Y002581D01*
X058093Y002581D01*
X058093Y003100D01*
X058093Y003100D01*
X058093Y002581D01*
X057878Y002581D01*
X057573Y002885D01*
X057573Y003101D01*
X057573Y002968D02*
X056673Y002968D01*
X056461Y002649D02*
X057809Y002649D01*
X058093Y002649D02*
X058093Y002649D01*
X058377Y002649D02*
X059230Y002649D01*
X059230Y002968D02*
X058613Y002968D01*
X058613Y003286D02*
X059278Y003286D01*
X058093Y003286D02*
X058093Y003286D01*
X058093Y002968D02*
X058093Y002968D01*
X059304Y002331D02*
X049673Y002331D01*
X049673Y002012D02*
X059424Y002012D01*
X059608Y001694D02*
X049593Y001694D01*
X049593Y001375D02*
X059926Y001375D01*
X060522Y001056D02*
X049593Y001056D01*
X049593Y000738D02*
X062343Y000738D01*
X062343Y001056D02*
X061727Y001056D01*
X062322Y001375D02*
X062343Y001375D01*
X061599Y002857D02*
X062343Y003601D01*
X062343Y019601D01*
X061843Y020101D01*
X061093Y020101D01*
X059093Y020101D01*
X058660Y020488D02*
X056526Y020488D01*
X056673Y020341D02*
X056673Y019861D01*
X056333Y019521D01*
X055853Y019521D01*
X055753Y019621D01*
X055532Y019621D01*
X055461Y019550D01*
X055222Y019451D01*
X054964Y019451D01*
X054725Y019550D01*
X054542Y019733D01*
X054443Y019971D01*
X054443Y020230D01*
X054542Y020469D01*
X054725Y020652D01*
X054964Y020751D01*
X055222Y020751D01*
X055461Y020652D01*
X055532Y020581D01*
X055753Y020581D01*
X055853Y020681D01*
X056333Y020681D01*
X056673Y020341D01*
X056673Y020169D02*
X058513Y020169D01*
X058513Y020341D02*
X058513Y019861D01*
X058853Y019521D01*
X059333Y019521D01*
X059433Y019621D01*
X060265Y019621D01*
X060327Y019558D01*
X060218Y019449D01*
X060124Y019223D01*
X060124Y019101D01*
X061093Y019101D01*
X061093Y019101D01*
X060124Y019101D01*
X060124Y018979D01*
X060218Y018753D01*
X060327Y018643D01*
X060167Y018483D01*
X060064Y018235D01*
X060064Y017967D01*
X060167Y017719D01*
X060357Y017529D01*
X060443Y017493D01*
X060443Y016851D01*
X049343Y016851D01*
X049343Y025476D01*
X056093Y025476D01*
X056093Y029601D01*
X056593Y030101D01*
X056593Y038911D01*
X062343Y038911D01*
X062343Y020280D01*
X062250Y020373D01*
X062115Y020508D01*
X061938Y020581D01*
X061921Y020581D01*
X061829Y020672D01*
X061581Y020775D01*
X060604Y020775D01*
X060357Y020672D01*
X060265Y020581D01*
X059433Y020581D01*
X059333Y020681D01*
X058853Y020681D01*
X058513Y020341D01*
X058523Y019850D02*
X056663Y019850D01*
X056344Y019532D02*
X058842Y019532D01*
X059344Y019532D02*
X060301Y019532D01*
X060124Y019213D02*
X051573Y019213D01*
X051573Y018895D02*
X060159Y018895D01*
X060260Y018576D02*
X057981Y018576D01*
X058076Y018482D02*
X058178Y018235D01*
X058178Y018101D01*
X057093Y018101D01*
X057093Y018773D01*
X057639Y018773D01*
X057886Y018671D01*
X058076Y018482D01*
X058168Y018258D02*
X060074Y018258D01*
X060076Y017939D02*
X058166Y017939D01*
X058178Y017967D02*
X058076Y017720D01*
X057886Y017531D01*
X057639Y017428D01*
X057093Y017428D01*
X057093Y018100D01*
X057093Y018100D01*
X057093Y017428D01*
X056547Y017428D01*
X056299Y017531D01*
X056110Y017720D01*
X056008Y017967D01*
X056008Y018101D01*
X056008Y018235D01*
X056110Y018482D01*
X056299Y018671D01*
X056547Y018773D01*
X057093Y018773D01*
X057093Y018101D01*
X057093Y018101D01*
X057093Y018101D01*
X056008Y018101D01*
X057093Y018101D01*
X057093Y018101D01*
X058178Y018101D01*
X058178Y017967D01*
X057976Y017621D02*
X060265Y017621D01*
X060443Y017302D02*
X049343Y017302D01*
X049343Y016984D02*
X060443Y016984D01*
X057093Y017621D02*
X057093Y017621D01*
X057093Y017939D02*
X057093Y017939D01*
X057093Y018258D02*
X057093Y018258D01*
X057093Y018576D02*
X057093Y018576D01*
X056205Y018576D02*
X052066Y018576D01*
X052126Y018516D02*
X052238Y018246D01*
X052238Y017955D01*
X052126Y017686D01*
X051920Y017480D01*
X051651Y017368D01*
X050535Y017368D01*
X050265Y017480D01*
X050059Y017686D01*
X049948Y017955D01*
X049948Y018246D01*
X050059Y018516D01*
X050265Y018722D01*
X050535Y018833D01*
X050613Y018833D01*
X050613Y019662D01*
X050542Y019733D01*
X050443Y019971D01*
X050443Y020230D01*
X050542Y020469D01*
X050613Y020540D01*
X050613Y024446D01*
X050686Y024623D01*
X050821Y024758D01*
X051321Y025258D01*
X051497Y025331D01*
X051688Y025331D01*
X056613Y025331D01*
X056613Y029196D01*
X056686Y029373D01*
X056821Y029508D01*
X059613Y032300D01*
X059613Y032501D01*
X059601Y032512D01*
X059593Y032532D01*
X059585Y032512D01*
X059421Y032349D01*
X059208Y032261D01*
X058978Y032261D01*
X058764Y032349D01*
X058601Y032512D01*
X058513Y032725D01*
X058513Y033476D01*
X058601Y033689D01*
X058764Y033852D01*
X058978Y033941D01*
X059208Y033941D01*
X059421Y033852D01*
X059585Y033689D01*
X059593Y033669D01*
X059601Y033689D01*
X059764Y033852D01*
X059978Y033941D01*
X060208Y033941D01*
X060421Y033852D01*
X060585Y033689D01*
X060673Y033476D01*
X060673Y032725D01*
X060585Y032512D01*
X060573Y032501D01*
X060573Y032196D01*
X060573Y032005D01*
X060500Y031829D01*
X057573Y028902D01*
X057573Y025331D01*
X059413Y025331D01*
X059628Y025546D01*
X059930Y025671D01*
X060256Y025671D01*
X060557Y025546D01*
X060788Y025315D01*
X060913Y025014D01*
X060913Y024688D01*
X060788Y024386D01*
X060557Y024156D01*
X060256Y024031D01*
X059930Y024031D01*
X059628Y024156D01*
X059413Y024371D01*
X057433Y024371D01*
X057333Y024271D01*
X056853Y024271D01*
X056753Y024371D01*
X051792Y024371D01*
X051573Y024152D01*
X051573Y020540D01*
X051644Y020469D01*
X051743Y020230D01*
X051743Y019971D01*
X051644Y019733D01*
X051573Y019662D01*
X051573Y018833D01*
X051651Y018833D01*
X051920Y018722D01*
X052126Y018516D01*
X052233Y018258D02*
X056017Y018258D01*
X056019Y017939D02*
X052231Y017939D01*
X052061Y017621D02*
X056209Y017621D01*
X055842Y019532D02*
X055418Y019532D01*
X054768Y019532D02*
X051573Y019532D01*
X051693Y019850D02*
X054493Y019850D01*
X054443Y020169D02*
X051743Y020169D01*
X051625Y020488D02*
X054560Y020488D01*
X055093Y020101D02*
X056093Y020101D01*
X056878Y022331D02*
X057093Y022331D01*
X057093Y022850D01*
X057093Y022850D01*
X057093Y022331D01*
X057308Y022331D01*
X057613Y022635D01*
X057613Y022851D01*
X057093Y022851D01*
X057093Y023371D01*
X057308Y023371D01*
X057613Y023066D01*
X057613Y022851D01*
X057093Y022851D01*
X057093Y022851D01*
X057093Y023371D01*
X056878Y023371D01*
X056573Y023066D01*
X056573Y022851D01*
X057093Y022851D01*
X057093Y022851D01*
X057093Y022851D01*
X056573Y022851D01*
X056573Y022635D01*
X056878Y022331D01*
X056810Y022399D02*
X051573Y022399D01*
X051573Y022717D02*
X056573Y022717D01*
X056573Y023036D02*
X051573Y023036D01*
X051573Y023354D02*
X056861Y023354D01*
X057093Y023354D02*
X057093Y023354D01*
X057325Y023354D02*
X059522Y023354D01*
X059333Y023166D02*
X059778Y023611D01*
X060093Y023611D01*
X060408Y023611D01*
X060853Y023166D01*
X060853Y022851D01*
X060093Y022851D01*
X060093Y023611D01*
X060093Y022851D01*
X060093Y022851D01*
X060093Y022851D01*
X059333Y022851D01*
X059333Y023166D01*
X059333Y023036D02*
X057613Y023036D01*
X057613Y022717D02*
X059333Y022717D01*
X059333Y022851D02*
X060093Y022851D01*
X060093Y022851D01*
X060853Y022851D01*
X060853Y022536D01*
X060408Y022091D01*
X060093Y022091D01*
X060093Y022850D01*
X060093Y022850D01*
X060093Y022091D01*
X059778Y022091D01*
X059333Y022536D01*
X059333Y022851D01*
X059470Y022399D02*
X057376Y022399D01*
X057093Y022399D02*
X057093Y022399D01*
X057093Y022717D02*
X057093Y022717D01*
X057093Y023036D02*
X057093Y023036D01*
X057372Y024310D02*
X059474Y024310D01*
X060093Y024851D02*
X057093Y024851D01*
X057093Y029101D01*
X060093Y032101D01*
X060093Y033101D01*
X059093Y033101D01*
X058513Y033229D02*
X056593Y033229D01*
X056593Y032911D02*
X058513Y032911D01*
X058568Y032592D02*
X056593Y032592D01*
X056593Y032274D02*
X058946Y032274D01*
X059239Y032274D02*
X059587Y032274D01*
X059268Y031955D02*
X056593Y031955D01*
X056593Y031637D02*
X058950Y031637D01*
X058631Y031318D02*
X056593Y031318D01*
X056593Y030999D02*
X058313Y030999D01*
X057994Y030681D02*
X056593Y030681D01*
X056593Y030362D02*
X057676Y030362D01*
X057357Y030044D02*
X056536Y030044D01*
X056217Y029725D02*
X057039Y029725D01*
X056821Y029508D02*
X056821Y029508D01*
X056720Y029407D02*
X056093Y029407D01*
X056093Y029088D02*
X056613Y029088D01*
X056613Y028770D02*
X056093Y028770D01*
X056093Y028451D02*
X056613Y028451D01*
X056613Y028133D02*
X056093Y028133D01*
X056093Y027814D02*
X056613Y027814D01*
X056613Y027496D02*
X056093Y027496D01*
X056093Y027177D02*
X056613Y027177D01*
X056613Y026858D02*
X056093Y026858D01*
X056093Y026540D02*
X056613Y026540D01*
X056613Y026221D02*
X056093Y026221D01*
X056093Y025903D02*
X056613Y025903D01*
X056613Y025584D02*
X056093Y025584D01*
X055343Y026540D02*
X053596Y026540D01*
X053585Y026512D02*
X053421Y026349D01*
X053208Y026261D01*
X052978Y026261D01*
X052764Y026349D01*
X052601Y026512D01*
X052593Y026532D01*
X052585Y026512D01*
X052421Y026349D01*
X052208Y026261D01*
X051978Y026261D01*
X051764Y026349D01*
X051601Y026512D01*
X051593Y026532D01*
X051585Y026512D01*
X051421Y026349D01*
X051208Y026261D01*
X050978Y026261D01*
X050764Y026349D01*
X050601Y026512D01*
X050513Y026725D01*
X050513Y027476D01*
X050601Y027689D01*
X050764Y027852D01*
X050978Y027941D01*
X051208Y027941D01*
X051421Y027852D01*
X051585Y027689D01*
X051593Y027669D01*
X051601Y027689D01*
X051764Y027852D01*
X051978Y027941D01*
X052208Y027941D01*
X052421Y027852D01*
X052585Y027689D01*
X052593Y027669D01*
X052601Y027689D01*
X052764Y027852D01*
X052978Y027941D01*
X053208Y027941D01*
X053421Y027852D01*
X053585Y027689D01*
X053673Y027476D01*
X053673Y026725D01*
X053585Y026512D01*
X053673Y026858D02*
X055343Y026858D01*
X055343Y027177D02*
X053673Y027177D01*
X053665Y027496D02*
X055343Y027496D01*
X055343Y027814D02*
X053460Y027814D01*
X052726Y027814D02*
X052460Y027814D01*
X051726Y027814D02*
X051460Y027814D01*
X050726Y027814D02*
X043323Y027814D01*
X043323Y027496D02*
X050521Y027496D01*
X050513Y027177D02*
X043323Y027177D01*
X043323Y026858D02*
X050513Y026858D01*
X050590Y026540D02*
X043323Y026540D01*
X043323Y026221D02*
X048593Y026221D01*
X048593Y025903D02*
X047344Y025903D01*
X047410Y025876D02*
X047568Y025718D01*
X047653Y025512D01*
X047653Y025101D01*
X047093Y025101D01*
X047093Y025961D01*
X047204Y025961D01*
X047410Y025876D01*
X047093Y025903D02*
X047093Y025903D01*
X047093Y025961D02*
X047093Y025101D01*
X047093Y025101D01*
X047093Y025101D01*
X047653Y025101D01*
X047653Y024689D01*
X047568Y024484D01*
X047410Y024326D01*
X047204Y024241D01*
X047093Y024241D01*
X047093Y025100D01*
X047093Y025100D01*
X047093Y024241D01*
X046982Y024241D01*
X046776Y024326D01*
X046628Y024473D01*
X046619Y024450D01*
X046444Y024275D01*
X046216Y024181D01*
X045970Y024181D01*
X045742Y024275D01*
X045593Y024424D01*
X045444Y024275D01*
X045216Y024181D01*
X044970Y024181D01*
X044742Y024275D01*
X044567Y024450D01*
X044496Y024621D01*
X043563Y024621D01*
X043372Y024621D01*
X043196Y024694D01*
X042571Y025319D01*
X042436Y025454D01*
X042363Y025630D01*
X042363Y035621D01*
X037792Y035621D01*
X037573Y035402D01*
X037573Y032498D01*
X037635Y032435D01*
X037861Y032661D01*
X038093Y032661D01*
X038325Y032661D01*
X038593Y032393D01*
X038861Y032661D01*
X039093Y032661D01*
X039325Y032661D01*
X039551Y032435D01*
X039836Y032721D01*
X040350Y032721D01*
X040593Y032478D01*
X040836Y032721D01*
X041350Y032721D01*
X041713Y032358D01*
X041713Y031844D01*
X041470Y031601D01*
X041713Y031358D01*
X041713Y030851D01*
X041843Y030851D01*
X041843Y000661D01*
X041843Y000738D02*
X000661Y000738D01*
X000661Y001056D02*
X041843Y001056D01*
X048593Y001056D01*
X048593Y000738D02*
X041843Y000738D01*
X041843Y001375D02*
X000661Y001375D01*
X000661Y001694D02*
X001364Y001694D01*
X001234Y001768D02*
X001544Y001589D01*
X001890Y001497D01*
X002248Y001497D01*
X002594Y001589D01*
X002904Y001768D01*
X003158Y002022D01*
X003337Y002332D01*
X003429Y002678D01*
X003429Y003036D01*
X003337Y003382D01*
X003158Y003692D01*
X002904Y003945D01*
X002594Y004124D01*
X002248Y004217D01*
X001890Y004217D01*
X001544Y004124D01*
X001234Y003945D01*
X000981Y003692D01*
X000802Y003382D01*
X000709Y003036D01*
X000709Y002678D01*
X000802Y002332D01*
X000981Y002022D01*
X001234Y001768D01*
X000991Y002012D02*
X000661Y002012D01*
X000661Y002331D02*
X000803Y002331D01*
X000717Y002649D02*
X000661Y002649D01*
X000661Y002968D02*
X000709Y002968D01*
X000661Y003286D02*
X000776Y003286D01*
X000661Y003605D02*
X000931Y003605D01*
X000661Y003923D02*
X001213Y003923D01*
X000661Y004242D02*
X005603Y004242D01*
X005493Y004352D02*
X005493Y004849D01*
X005532Y004888D01*
X005279Y005141D01*
X005223Y005277D01*
X005223Y005424D01*
X005223Y009610D01*
X005152Y009681D01*
X005073Y009872D01*
X005073Y010079D01*
X005152Y010270D01*
X005298Y010417D01*
X005489Y010496D01*
X005696Y010496D01*
X005887Y010417D01*
X006034Y010270D01*
X006113Y010079D01*
X006113Y009926D01*
X006152Y010020D01*
X006223Y010091D01*
X006223Y013521D01*
X005853Y013521D01*
X005643Y013731D01*
X005519Y013731D01*
X005383Y013787D01*
X005279Y013891D01*
X005215Y013956D01*
X005114Y013956D01*
X004923Y014035D01*
X004777Y014181D01*
X004754Y014238D01*
X004673Y014158D01*
X004673Y013861D01*
X004333Y013521D01*
X003853Y013521D01*
X003513Y013861D01*
X003513Y014341D01*
X003853Y014681D01*
X004150Y014681D01*
X005348Y015879D01*
X005348Y016110D01*
X005277Y016181D01*
X005198Y016372D01*
X005198Y016579D01*
X005215Y016621D01*
X004497Y016621D01*
X004321Y016694D01*
X004186Y016829D01*
X003686Y017329D01*
X003613Y017505D01*
X003613Y017696D01*
X003613Y017761D01*
X003513Y017861D01*
X003513Y018341D01*
X003815Y018643D01*
X003573Y018885D01*
X003573Y019101D01*
X003573Y019316D01*
X003878Y019621D01*
X004093Y019621D01*
X004308Y019621D01*
X004473Y019456D01*
X004473Y020081D01*
X004364Y020081D01*
X004173Y020160D01*
X004027Y020306D01*
X003948Y020497D01*
X003948Y020704D01*
X004027Y020895D01*
X004098Y020966D01*
X004098Y023448D01*
X003133Y024412D01*
X003029Y024516D01*
X002973Y024652D01*
X002973Y025527D01*
X002973Y025674D01*
X003029Y025810D01*
X003115Y025896D01*
X003073Y025997D01*
X003073Y026204D01*
X003152Y026395D01*
X003298Y026542D01*
X003489Y026621D01*
X003696Y026621D01*
X003887Y026542D01*
X004034Y026395D01*
X004113Y026204D01*
X004113Y026021D01*
X004216Y026021D01*
X004444Y025926D01*
X004619Y025752D01*
X004683Y025597D01*
X004739Y025621D01*
X004946Y025621D01*
X005137Y025542D01*
X005284Y025395D01*
X005363Y025204D01*
X005363Y025104D01*
X005407Y025060D01*
X005463Y024924D01*
X005463Y024777D01*
X005463Y022058D01*
X005614Y022121D01*
X005723Y022121D01*
X005723Y022735D01*
X005652Y022806D01*
X005573Y022997D01*
X005573Y023204D01*
X005652Y023395D01*
X005798Y023542D01*
X005893Y023581D01*
X005878Y023581D01*
X005573Y023885D01*
X005573Y024101D01*
X005573Y024316D01*
X005878Y024621D01*
X006093Y024621D01*
X006143Y024621D01*
X006048Y024660D01*
X005902Y024806D01*
X005823Y024997D01*
X005823Y025081D01*
X005739Y025081D01*
X005548Y025160D01*
X005402Y025306D01*
X005323Y025497D01*
X005323Y025704D01*
X005402Y025895D01*
X005503Y025996D01*
X005529Y026060D01*
X005723Y026254D01*
X005723Y032198D01*
X005383Y032537D01*
X005279Y032641D01*
X005223Y032777D01*
X005223Y034277D01*
X005223Y034424D01*
X005279Y034560D01*
X005532Y034813D01*
X005493Y034852D01*
X005493Y035349D01*
X005744Y035601D01*
X005493Y035852D01*
X005493Y036349D01*
X005787Y036643D01*
X005553Y036877D01*
X005553Y037101D01*
X005553Y037324D01*
X005869Y037641D01*
X006093Y037641D01*
X006317Y037641D01*
X006551Y037407D01*
X006844Y037701D01*
X007341Y037701D01*
X007693Y037349D01*
X007693Y036852D01*
X007441Y036601D01*
X007693Y036349D01*
X007693Y035852D01*
X007654Y035813D01*
X008157Y035310D01*
X008213Y035174D01*
X008213Y035027D01*
X008213Y032527D01*
X008157Y032391D01*
X008053Y032287D01*
X007838Y032073D01*
X007838Y025966D01*
X007909Y025895D01*
X007988Y025704D01*
X007988Y025577D01*
X007997Y025581D01*
X008188Y025581D01*
X009013Y025581D01*
X009013Y028905D01*
X009013Y029096D01*
X009086Y029273D01*
X009686Y029873D01*
X009821Y030008D01*
X009997Y030081D01*
X012188Y030081D01*
X013688Y030081D01*
X014090Y030081D01*
X014073Y030122D01*
X014073Y030329D01*
X014152Y030520D01*
X014298Y030667D01*
X014489Y030746D01*
X014590Y030746D01*
X015348Y031504D01*
X015348Y032735D01*
X015277Y032806D01*
X015198Y032997D01*
X015198Y033204D01*
X015277Y033395D01*
X015423Y033542D01*
X015614Y033621D01*
X015723Y033621D01*
X015723Y034735D01*
X015652Y034806D01*
X015573Y034997D01*
X015573Y035204D01*
X015652Y035395D01*
X015798Y035542D01*
X015989Y035621D01*
X016196Y035621D01*
X016387Y035542D01*
X016534Y035395D01*
X016613Y035204D01*
X016613Y034997D01*
X016534Y034806D01*
X016463Y034735D01*
X016463Y034621D01*
X016571Y034621D01*
X016613Y034604D01*
X016613Y036402D01*
X016394Y036621D01*
X013461Y036621D01*
X013441Y036601D01*
X013693Y036349D01*
X013693Y035852D01*
X013654Y035813D01*
X013907Y035560D01*
X013963Y035424D01*
X013963Y035277D01*
X013963Y034610D01*
X013989Y034621D01*
X014196Y034621D01*
X014387Y034542D01*
X014488Y034441D01*
X014553Y034414D01*
X014657Y034310D01*
X014907Y034060D01*
X014963Y033924D01*
X014963Y033777D01*
X014963Y033466D01*
X015034Y033395D01*
X015113Y033204D01*
X015113Y032997D01*
X015034Y032806D01*
X014887Y032660D01*
X014696Y032581D01*
X014489Y032581D01*
X014298Y032660D01*
X014152Y032806D01*
X014073Y032997D01*
X014073Y033204D01*
X014152Y033395D01*
X014223Y033466D01*
X014223Y033592D01*
X014196Y033581D01*
X013989Y033581D01*
X013963Y033592D01*
X013963Y032754D01*
X014096Y032621D01*
X014196Y032621D01*
X014387Y032542D01*
X014534Y032395D01*
X014613Y032204D01*
X014613Y031997D01*
X014534Y031806D01*
X014387Y031660D01*
X014196Y031581D01*
X013989Y031581D01*
X013798Y031660D01*
X013652Y031806D01*
X013573Y031997D01*
X013573Y032098D01*
X013383Y032287D01*
X013279Y032391D01*
X013234Y032501D01*
X012963Y032501D01*
X012963Y032277D01*
X012907Y032141D01*
X012803Y032037D01*
X011863Y031098D01*
X011863Y030997D01*
X011784Y030806D01*
X011637Y030660D01*
X011446Y030581D01*
X011239Y030581D01*
X011048Y030660D01*
X010902Y030806D01*
X010823Y030997D01*
X010823Y031204D01*
X010902Y031395D01*
X011048Y031542D01*
X011239Y031621D01*
X011340Y031621D01*
X012220Y032501D01*
X011844Y032501D01*
X011555Y032790D01*
X010863Y032098D01*
X010863Y031997D01*
X010784Y031806D01*
X010637Y031660D01*
X010446Y031581D01*
X010239Y031581D01*
X010048Y031660D01*
X009902Y031806D01*
X009823Y031997D01*
X009823Y032204D01*
X009902Y032395D01*
X010048Y032542D01*
X010239Y032621D01*
X010340Y032621D01*
X010800Y033081D01*
X010739Y033081D01*
X010548Y033160D01*
X010402Y033306D01*
X010323Y033497D01*
X010323Y033704D01*
X010402Y033895D01*
X010548Y034042D01*
X010739Y034121D01*
X010840Y034121D01*
X011532Y034813D01*
X011493Y034852D01*
X011493Y035349D01*
X011744Y035601D01*
X011493Y035852D01*
X011493Y036349D01*
X011787Y036643D01*
X011553Y036877D01*
X011553Y037101D01*
X011553Y037324D01*
X011869Y037641D01*
X012093Y037641D01*
X012317Y037641D01*
X012551Y037407D01*
X012844Y037701D01*
X013341Y037701D01*
X013461Y037581D01*
X016497Y037581D01*
X016688Y037581D01*
X016865Y037508D01*
X017365Y037008D01*
X017500Y036873D01*
X017573Y036696D01*
X017573Y036429D01*
X017787Y036643D01*
X017553Y036877D01*
X017553Y037101D01*
X017553Y037324D01*
X017869Y037641D01*
X018093Y037641D01*
X018317Y037641D01*
X018551Y037407D01*
X018844Y037701D01*
X019341Y037701D01*
X019693Y037349D01*
X019693Y036852D01*
X019441Y036601D01*
X019693Y036349D01*
X019693Y035852D01*
X019441Y035601D01*
X019693Y035349D01*
X019693Y034852D01*
X019654Y034813D01*
X019907Y034560D01*
X019954Y034447D01*
X020048Y034542D01*
X020239Y034621D01*
X020446Y034621D01*
X020473Y034610D01*
X020473Y034735D01*
X020402Y034806D01*
X020323Y034997D01*
X020323Y035204D01*
X020402Y035395D01*
X020548Y035542D01*
X020739Y035621D01*
X020946Y035621D01*
X021048Y035579D01*
X022383Y036914D01*
X022519Y036971D01*
X022667Y036971D01*
X023553Y036971D01*
X023553Y037101D01*
X023553Y037324D01*
X023869Y037641D01*
X024093Y037641D01*
X024093Y037101D01*
X024093Y037101D01*
X023553Y037101D01*
X024093Y037101D01*
X024093Y037101D01*
X024093Y037370D02*
X024093Y037370D01*
X023599Y037370D02*
X019672Y037370D01*
X019693Y037052D02*
X023553Y037052D01*
X022202Y036733D02*
X019574Y036733D01*
X019627Y036415D02*
X021884Y036415D01*
X021565Y036096D02*
X019693Y036096D01*
X019618Y035778D02*
X021247Y035778D01*
X020466Y035459D02*
X019583Y035459D01*
X019693Y035141D02*
X020323Y035141D01*
X020396Y034822D02*
X019663Y034822D01*
X019930Y034503D02*
X020010Y034503D01*
X017697Y036733D02*
X017558Y036733D01*
X017553Y037052D02*
X017321Y037052D01*
X017553Y037101D02*
X018093Y037101D01*
X018093Y038601D01*
X024093Y038601D01*
X024833Y037689D02*
X019353Y037689D01*
X018833Y037689D02*
X013353Y037689D01*
X012833Y037689D02*
X007353Y037689D01*
X007672Y037370D02*
X011599Y037370D01*
X011553Y037101D02*
X012093Y037101D01*
X012093Y038601D01*
X018093Y038601D01*
X018093Y037641D02*
X018093Y037101D01*
X018093Y037101D01*
X018093Y037641D01*
X018093Y037370D02*
X018093Y037370D01*
X018093Y037101D02*
X017553Y037101D01*
X017599Y037370D02*
X017002Y037370D01*
X016593Y037101D02*
X017093Y036601D01*
X017093Y030601D01*
X029093Y030601D01*
X029343Y030851D01*
X029890Y030681D02*
X030546Y030681D01*
X030523Y030851D02*
X030523Y030964D01*
X030610Y031174D01*
X030770Y031334D01*
X030980Y031421D01*
X031206Y031421D01*
X031416Y031334D01*
X031576Y031174D01*
X031663Y030964D01*
X031663Y030851D01*
X033473Y030851D01*
X033473Y031358D01*
X033759Y031643D01*
X033533Y031869D01*
X033533Y032101D01*
X033533Y032333D01*
X033861Y032661D01*
X034093Y032661D01*
X034325Y032661D01*
X034593Y032393D01*
X034861Y032661D01*
X035093Y032661D01*
X035325Y032661D01*
X035551Y032435D01*
X035836Y032721D01*
X036350Y032721D01*
X036490Y032581D01*
X036613Y032581D01*
X036613Y035696D01*
X036686Y035873D01*
X036821Y036008D01*
X037321Y036508D01*
X037497Y036581D01*
X037688Y036581D01*
X042596Y036581D01*
X042736Y036639D01*
X042950Y036639D01*
X043148Y036557D01*
X043299Y036405D01*
X043381Y036208D01*
X043381Y035994D01*
X043323Y035854D01*
X043323Y025925D01*
X043667Y025581D01*
X044496Y025581D01*
X044567Y025752D01*
X044742Y025926D01*
X044970Y026021D01*
X045216Y026021D01*
X045444Y025926D01*
X045593Y025778D01*
X045742Y025926D01*
X045970Y026021D01*
X046216Y026021D01*
X046444Y025926D01*
X046619Y025752D01*
X046628Y025728D01*
X046776Y025876D01*
X046982Y025961D01*
X047093Y025961D01*
X046842Y025903D02*
X046468Y025903D01*
X047093Y025584D02*
X047093Y025584D01*
X047093Y025266D02*
X047093Y025266D01*
X047093Y024947D02*
X047093Y024947D01*
X047093Y024629D02*
X047093Y024629D01*
X047093Y024310D02*
X047093Y024310D01*
X047372Y024310D02*
X048593Y024310D01*
X048593Y023992D02*
X041843Y023992D01*
X041843Y024310D02*
X044707Y024310D01*
X045479Y024310D02*
X045707Y024310D01*
X046479Y024310D02*
X046814Y024310D01*
X047628Y024629D02*
X048593Y024629D01*
X048593Y024947D02*
X047653Y024947D01*
X047653Y025266D02*
X048593Y025266D01*
X048593Y025584D02*
X047623Y025584D01*
X049343Y025266D02*
X051340Y025266D01*
X051011Y024947D02*
X049343Y024947D01*
X049343Y024629D02*
X050692Y024629D01*
X050613Y024310D02*
X049343Y024310D01*
X049343Y023992D02*
X050613Y023992D01*
X050613Y023673D02*
X049343Y023673D01*
X049343Y023354D02*
X050613Y023354D01*
X050613Y023036D02*
X049343Y023036D01*
X049343Y022717D02*
X050613Y022717D01*
X050613Y022399D02*
X049343Y022399D01*
X049343Y022080D02*
X050613Y022080D01*
X050613Y021762D02*
X049343Y021762D01*
X049343Y021443D02*
X050613Y021443D01*
X050613Y021125D02*
X049343Y021125D01*
X049343Y020806D02*
X050613Y020806D01*
X050560Y020488D02*
X049343Y020488D01*
X049343Y020169D02*
X050443Y020169D01*
X050493Y019850D02*
X049343Y019850D01*
X049343Y019532D02*
X050613Y019532D01*
X050613Y019213D02*
X049343Y019213D01*
X049343Y018895D02*
X050613Y018895D01*
X050120Y018576D02*
X049343Y018576D01*
X049343Y018258D02*
X049953Y018258D01*
X049954Y017939D02*
X049343Y017939D01*
X049343Y017621D02*
X050125Y017621D01*
X051093Y018101D02*
X051093Y020101D01*
X051093Y024351D01*
X051593Y024851D01*
X057093Y024851D01*
X056813Y024310D02*
X051731Y024310D01*
X051573Y023992D02*
X062343Y023992D01*
X062343Y024310D02*
X060712Y024310D01*
X060889Y024629D02*
X062343Y024629D01*
X062343Y024947D02*
X060913Y024947D01*
X060809Y025266D02*
X062343Y025266D01*
X062343Y025584D02*
X060465Y025584D01*
X059721Y025584D02*
X057573Y025584D01*
X057573Y025903D02*
X062343Y025903D01*
X062343Y026221D02*
X057573Y026221D01*
X057573Y026540D02*
X058658Y026540D01*
X058652Y026546D02*
X058798Y026400D01*
X058989Y026321D01*
X059093Y026321D01*
X059093Y027100D01*
X059093Y027100D01*
X059093Y026321D01*
X059196Y026321D01*
X059387Y026400D01*
X059534Y026546D01*
X059593Y026689D01*
X059652Y026546D01*
X059798Y026400D01*
X059989Y026321D01*
X060093Y026321D01*
X060093Y027100D01*
X060093Y027100D01*
X060093Y026321D01*
X060196Y026321D01*
X060387Y026400D01*
X060534Y026546D01*
X060613Y026737D01*
X060613Y027101D01*
X060093Y027101D01*
X060093Y027881D01*
X060196Y027881D01*
X060387Y027802D01*
X060534Y027655D01*
X060613Y027464D01*
X060613Y027101D01*
X060093Y027101D01*
X060093Y027101D01*
X060093Y027881D01*
X059989Y027881D01*
X059798Y027802D01*
X059652Y027655D01*
X059593Y027512D01*
X059534Y027655D01*
X059387Y027802D01*
X059196Y027881D01*
X059093Y027881D01*
X059093Y027101D01*
X059093Y027101D01*
X059093Y027881D01*
X058989Y027881D01*
X058798Y027802D01*
X058652Y027655D01*
X058573Y027464D01*
X058573Y027101D01*
X059093Y027101D01*
X059093Y027101D01*
X059613Y027101D01*
X060093Y027101D01*
X060093Y027101D01*
X060093Y027101D01*
X059613Y027101D01*
X059093Y027101D01*
X059093Y027101D01*
X058573Y027101D01*
X058573Y026737D01*
X058652Y026546D01*
X058573Y026858D02*
X057573Y026858D01*
X057573Y027177D02*
X058573Y027177D01*
X058586Y027496D02*
X057573Y027496D01*
X057573Y027814D02*
X058829Y027814D01*
X059093Y027814D02*
X059093Y027814D01*
X059357Y027814D02*
X059829Y027814D01*
X060093Y027814D02*
X060093Y027814D01*
X060357Y027814D02*
X062343Y027814D01*
X062343Y027496D02*
X060600Y027496D01*
X060613Y027177D02*
X062343Y027177D01*
X062343Y026858D02*
X060613Y026858D01*
X060527Y026540D02*
X062343Y026540D01*
X060093Y026540D02*
X060093Y026540D01*
X060093Y026858D02*
X060093Y026858D01*
X060093Y027177D02*
X060093Y027177D01*
X060093Y027496D02*
X060093Y027496D01*
X059093Y027496D02*
X059093Y027496D01*
X059093Y027177D02*
X059093Y027177D01*
X059093Y026858D02*
X059093Y026858D01*
X059093Y026540D02*
X059093Y026540D01*
X059527Y026540D02*
X059658Y026540D01*
X057573Y028133D02*
X062343Y028133D01*
X062343Y028451D02*
X057573Y028451D01*
X057573Y028770D02*
X062343Y028770D01*
X062343Y029088D02*
X057759Y029088D01*
X058078Y029407D02*
X062343Y029407D01*
X062343Y029725D02*
X058396Y029725D01*
X058715Y030044D02*
X062343Y030044D01*
X062343Y030362D02*
X059033Y030362D01*
X059352Y030681D02*
X062343Y030681D01*
X062343Y030999D02*
X059670Y030999D01*
X059989Y031318D02*
X062343Y031318D01*
X062343Y031637D02*
X060308Y031637D01*
X060552Y031955D02*
X062343Y031955D01*
X062343Y032274D02*
X060573Y032274D01*
X060618Y032592D02*
X062343Y032592D01*
X062343Y032911D02*
X060673Y032911D01*
X060673Y033229D02*
X062343Y033229D01*
X062343Y033548D02*
X060643Y033548D01*
X060388Y033866D02*
X062343Y033866D01*
X062343Y034185D02*
X056593Y034185D01*
X056593Y034503D02*
X062343Y034503D01*
X062343Y034822D02*
X056593Y034822D01*
X056593Y035141D02*
X062343Y035141D01*
X062343Y035459D02*
X056593Y035459D01*
X056593Y035778D02*
X062343Y035778D01*
X062343Y036096D02*
X056593Y036096D01*
X056593Y036415D02*
X062343Y036415D01*
X062343Y036733D02*
X056593Y036733D01*
X056593Y037052D02*
X062343Y037052D01*
X062343Y037370D02*
X056593Y037370D01*
X056593Y037689D02*
X062343Y037689D01*
X062343Y038007D02*
X056593Y038007D01*
X056593Y038326D02*
X062343Y038326D01*
X062343Y038645D02*
X056593Y038645D01*
X055843Y038645D02*
X052319Y038645D01*
X052256Y038671D02*
X052557Y038546D01*
X052788Y038315D01*
X052913Y038014D01*
X052913Y037688D01*
X052788Y037386D01*
X052557Y037156D01*
X052256Y037031D01*
X051930Y037031D01*
X051628Y037156D01*
X051398Y037386D01*
X051273Y037688D01*
X051273Y038014D01*
X051398Y038315D01*
X051628Y038546D01*
X051930Y038671D01*
X052256Y038671D01*
X051866Y038645D02*
X049869Y038645D01*
X049833Y038681D02*
X050173Y038341D01*
X050173Y037861D01*
X049833Y037521D01*
X049353Y037521D01*
X049013Y037861D01*
X049013Y038341D01*
X049353Y038681D01*
X049833Y038681D01*
X050173Y038326D02*
X051409Y038326D01*
X051273Y038007D02*
X050173Y038007D01*
X050001Y037689D02*
X051273Y037689D01*
X051414Y037370D02*
X031672Y037370D01*
X033343Y037370D01*
X033343Y037052D02*
X031693Y037052D01*
X046809Y037052D01*
X046878Y037121D02*
X047093Y037121D01*
X047308Y037121D01*
X047551Y036879D01*
X047853Y037181D01*
X048333Y037181D01*
X048673Y036841D01*
X048673Y036361D01*
X048333Y036021D01*
X047853Y036021D01*
X047551Y036323D01*
X047308Y036081D01*
X047093Y036081D01*
X047093Y036600D01*
X047093Y036600D01*
X047093Y036081D01*
X046878Y036081D01*
X046573Y036385D01*
X046573Y036601D01*
X046573Y036816D01*
X046878Y037121D01*
X047093Y037121D02*
X047093Y036601D01*
X047093Y037121D01*
X047093Y037052D02*
X047093Y037052D01*
X047377Y037052D02*
X047724Y037052D01*
X047093Y036733D02*
X047093Y036733D01*
X047093Y036601D02*
X047093Y036601D01*
X046573Y036601D01*
X047093Y036601D01*
X047093Y036601D01*
X047093Y036415D02*
X047093Y036415D01*
X047093Y036096D02*
X047093Y036096D01*
X047324Y036096D02*
X047777Y036096D01*
X048409Y036096D02*
X051333Y036096D01*
X051333Y036166D02*
X051778Y036611D01*
X052093Y036611D01*
X052408Y036611D01*
X052853Y036166D01*
X052853Y035851D01*
X052093Y035851D01*
X052093Y036611D01*
X052093Y035851D01*
X052093Y035851D01*
X052093Y035851D01*
X051333Y035851D01*
X051333Y036166D01*
X051333Y035851D02*
X052093Y035851D01*
X052093Y035851D01*
X052853Y035851D01*
X052853Y035536D01*
X052408Y035091D01*
X052093Y035091D01*
X052093Y035850D01*
X052093Y035850D01*
X052093Y035091D01*
X051778Y035091D01*
X051333Y035536D01*
X051333Y035851D01*
X051333Y035778D02*
X043323Y035778D01*
X043323Y035459D02*
X051410Y035459D01*
X051728Y035141D02*
X043323Y035141D01*
X043323Y034822D02*
X055843Y034822D01*
X055843Y034503D02*
X043323Y034503D01*
X043323Y034185D02*
X055843Y034185D01*
X055843Y033866D02*
X053231Y033866D01*
X053196Y033881D02*
X053387Y033802D01*
X053534Y033655D01*
X053613Y033464D01*
X053613Y033101D01*
X053093Y033101D01*
X053093Y033881D01*
X053196Y033881D01*
X053093Y033881D02*
X053093Y033101D01*
X053093Y033101D01*
X053093Y033101D01*
X053613Y033101D01*
X053613Y032737D01*
X053534Y032546D01*
X053387Y032400D01*
X053196Y032321D01*
X053093Y032321D01*
X053093Y033100D01*
X053093Y033100D01*
X053093Y032321D01*
X052989Y032321D01*
X052798Y032400D01*
X052652Y032546D01*
X052625Y032611D01*
X052585Y032512D01*
X052421Y032349D01*
X052208Y032261D01*
X051978Y032261D01*
X051764Y032349D01*
X051601Y032512D01*
X051593Y032532D01*
X051585Y032512D01*
X051421Y032349D01*
X051208Y032261D01*
X050978Y032261D01*
X050764Y032349D01*
X050601Y032512D01*
X050513Y032725D01*
X050513Y033476D01*
X050601Y033689D01*
X050764Y033852D01*
X050978Y033941D01*
X051208Y033941D01*
X051421Y033852D01*
X051585Y033689D01*
X051593Y033669D01*
X051601Y033689D01*
X051764Y033852D01*
X051978Y033941D01*
X052208Y033941D01*
X052421Y033852D01*
X052585Y033689D01*
X052625Y033591D01*
X052652Y033655D01*
X052798Y033802D01*
X052989Y033881D01*
X053093Y033881D01*
X053093Y033866D02*
X053093Y033866D01*
X052955Y033866D02*
X052388Y033866D01*
X051798Y033866D02*
X051388Y033866D01*
X050798Y033866D02*
X043323Y033866D01*
X043323Y033548D02*
X050543Y033548D01*
X050513Y033229D02*
X043323Y033229D01*
X043323Y032911D02*
X045292Y032911D01*
X045350Y032969D02*
X045626Y033128D01*
X045934Y033211D01*
X046252Y033211D01*
X046560Y033128D01*
X046836Y032969D01*
X047061Y032744D01*
X047220Y032468D01*
X047303Y032160D01*
X047303Y031841D01*
X047220Y031534D01*
X047061Y031258D01*
X046836Y031033D01*
X046560Y030873D01*
X046252Y030791D01*
X045934Y030791D01*
X045626Y030873D01*
X045350Y031033D01*
X045125Y031258D01*
X044965Y031534D01*
X044883Y031841D01*
X044883Y032160D01*
X044965Y032468D01*
X045125Y032744D01*
X045350Y032969D01*
X045037Y032592D02*
X043323Y032592D01*
X043323Y032274D02*
X044913Y032274D01*
X044883Y031955D02*
X043323Y031955D01*
X043323Y031637D02*
X044938Y031637D01*
X045090Y031318D02*
X043323Y031318D01*
X043323Y030999D02*
X045407Y030999D01*
X046779Y030999D02*
X055843Y030999D01*
X055843Y030681D02*
X043323Y030681D01*
X043323Y030362D02*
X055605Y030362D01*
X055343Y030044D02*
X043323Y030044D01*
X043323Y029725D02*
X055343Y029725D01*
X055343Y029407D02*
X043323Y029407D01*
X043323Y029088D02*
X055343Y029088D01*
X055343Y028770D02*
X043323Y028770D01*
X043323Y028451D02*
X055343Y028451D01*
X055343Y028133D02*
X043323Y028133D01*
X042363Y028133D02*
X041843Y028133D01*
X041843Y028451D02*
X042363Y028451D01*
X042363Y028770D02*
X041843Y028770D01*
X041843Y029088D02*
X042363Y029088D01*
X042363Y029407D02*
X041843Y029407D01*
X041843Y029725D02*
X042363Y029725D01*
X042363Y030044D02*
X041843Y030044D01*
X041843Y030362D02*
X042363Y030362D01*
X042363Y030681D02*
X041843Y030681D01*
X041713Y030999D02*
X042363Y030999D01*
X042363Y031318D02*
X041713Y031318D01*
X041506Y031637D02*
X042363Y031637D01*
X042363Y031955D02*
X041713Y031955D01*
X041713Y032274D02*
X042363Y032274D01*
X042363Y032592D02*
X041478Y032592D01*
X040708Y032592D02*
X040478Y032592D01*
X039708Y032592D02*
X039393Y032592D01*
X039093Y032592D02*
X039093Y032592D01*
X039093Y032661D02*
X039093Y032101D01*
X039093Y032101D01*
X039093Y032661D01*
X038792Y032592D02*
X038393Y032592D01*
X038093Y032592D02*
X038093Y032592D01*
X038093Y032661D02*
X038093Y032101D01*
X038093Y032101D01*
X038093Y032661D01*
X037792Y032592D02*
X037573Y032592D01*
X037573Y032911D02*
X042363Y032911D01*
X042363Y033229D02*
X037573Y033229D01*
X037573Y033548D02*
X042363Y033548D01*
X042363Y033866D02*
X037573Y033866D01*
X037573Y034185D02*
X042363Y034185D01*
X042363Y034503D02*
X037573Y034503D01*
X037573Y034822D02*
X042363Y034822D01*
X042363Y035141D02*
X037573Y035141D01*
X037630Y035459D02*
X042363Y035459D01*
X042843Y036101D02*
X037593Y036101D01*
X037093Y035601D01*
X037093Y032101D01*
X036093Y032101D01*
X036478Y032592D02*
X036613Y032592D01*
X036613Y032911D02*
X031693Y032911D01*
X033343Y032911D01*
X033343Y033229D02*
X031693Y033229D01*
X036613Y033229D01*
X036613Y033548D02*
X031494Y033548D01*
X033343Y033548D01*
X033343Y033866D02*
X031693Y033866D01*
X036613Y033866D01*
X036613Y034185D02*
X031693Y034185D01*
X033343Y034185D01*
X033343Y034503D02*
X031539Y034503D01*
X036613Y034503D01*
X036613Y034822D02*
X031663Y034822D01*
X033343Y034822D01*
X033343Y035141D02*
X031693Y035141D01*
X036613Y035141D01*
X036613Y035459D02*
X031583Y035459D01*
X033343Y035459D01*
X033343Y035778D02*
X031618Y035778D01*
X036647Y035778D01*
X036821Y036008D02*
X036821Y036008D01*
X036910Y036096D02*
X031693Y036096D01*
X033343Y036096D01*
X033343Y036415D02*
X031627Y036415D01*
X037228Y036415D01*
X033343Y036733D02*
X031574Y036733D01*
X046573Y036733D01*
X046573Y036415D02*
X043290Y036415D01*
X043381Y036096D02*
X046862Y036096D01*
X048673Y036415D02*
X051582Y036415D01*
X052093Y036415D02*
X052093Y036415D01*
X052093Y036096D02*
X052093Y036096D01*
X052093Y035778D02*
X052093Y035778D01*
X052093Y035459D02*
X052093Y035459D01*
X052093Y035141D02*
X052093Y035141D01*
X052457Y035141D02*
X055843Y035141D01*
X055843Y035459D02*
X055312Y035459D01*
X055308Y035456D02*
X055613Y035760D01*
X055613Y035976D01*
X055093Y035976D01*
X055093Y036496D01*
X055308Y036496D01*
X055613Y036191D01*
X055613Y035976D01*
X055093Y035976D01*
X055093Y035976D01*
X055093Y036496D01*
X054878Y036496D01*
X054573Y036191D01*
X054573Y035976D01*
X055093Y035976D01*
X055093Y035976D01*
X055093Y035976D01*
X054573Y035976D01*
X054573Y035760D01*
X054878Y035456D01*
X055093Y035456D01*
X055093Y035975D01*
X055093Y035975D01*
X055093Y035456D01*
X055308Y035456D01*
X055093Y035459D02*
X055093Y035459D01*
X054874Y035459D02*
X052776Y035459D01*
X052853Y035778D02*
X054573Y035778D01*
X054573Y036096D02*
X052853Y036096D01*
X052604Y036415D02*
X054797Y036415D01*
X055093Y036415D02*
X055093Y036415D01*
X055389Y036415D02*
X055843Y036415D01*
X055843Y036733D02*
X048673Y036733D01*
X048462Y037052D02*
X051879Y037052D01*
X052307Y037052D02*
X055843Y037052D01*
X055843Y037370D02*
X052772Y037370D01*
X052913Y037689D02*
X054560Y037689D01*
X054513Y037736D02*
X054853Y037396D01*
X055333Y037396D01*
X055673Y037736D01*
X055673Y038216D01*
X055333Y038556D01*
X054853Y038556D01*
X054513Y038216D01*
X054513Y037736D01*
X054513Y038007D02*
X052913Y038007D01*
X052777Y038326D02*
X054623Y038326D01*
X055563Y038326D02*
X055843Y038326D01*
X055843Y038007D02*
X055673Y038007D01*
X055626Y037689D02*
X055843Y037689D01*
X055843Y036096D02*
X055613Y036096D01*
X055613Y035778D02*
X055843Y035778D01*
X055093Y035778D02*
X055093Y035778D01*
X055093Y036096D02*
X055093Y036096D01*
X056593Y033866D02*
X058798Y033866D01*
X058543Y033548D02*
X056593Y033548D01*
X055843Y033548D02*
X053578Y033548D01*
X053613Y033229D02*
X055843Y033229D01*
X055843Y032911D02*
X053613Y032911D01*
X053553Y032592D02*
X055843Y032592D01*
X055843Y032274D02*
X052239Y032274D01*
X051946Y032274D02*
X051239Y032274D01*
X050946Y032274D02*
X047272Y032274D01*
X047303Y031955D02*
X055843Y031955D01*
X055843Y031637D02*
X047248Y031637D01*
X047096Y031318D02*
X055843Y031318D01*
X053093Y032592D02*
X053093Y032592D01*
X053093Y032911D02*
X053093Y032911D01*
X053093Y033229D02*
X053093Y033229D01*
X053093Y033548D02*
X053093Y033548D01*
X052633Y032592D02*
X052618Y032592D01*
X050568Y032592D02*
X047149Y032592D01*
X046894Y032911D02*
X050513Y032911D01*
X045833Y037521D02*
X045353Y037521D01*
X045013Y037861D01*
X045013Y038341D01*
X045353Y038681D01*
X045833Y038681D01*
X046173Y038341D01*
X046173Y037861D01*
X045833Y037521D01*
X046001Y037689D02*
X049185Y037689D01*
X049013Y038007D02*
X046173Y038007D01*
X046173Y038326D02*
X049013Y038326D01*
X049316Y038645D02*
X045869Y038645D01*
X045316Y038645D02*
X030093Y038645D01*
X030093Y038326D02*
X045013Y038326D01*
X045013Y038007D02*
X030093Y038007D01*
X030093Y037689D02*
X030833Y037689D01*
X025353Y037689D01*
X025672Y037370D02*
X029599Y037370D01*
X029553Y037101D02*
X030093Y037101D01*
X030093Y037101D01*
X030093Y037641D01*
X030317Y037641D01*
X030551Y037407D01*
X030844Y037701D01*
X031341Y037701D01*
X031693Y037349D01*
X031693Y036852D01*
X031441Y036601D01*
X031693Y036349D01*
X031693Y035852D01*
X031441Y035601D01*
X031693Y035349D01*
X031693Y034852D01*
X031441Y034601D01*
X031693Y034349D01*
X031693Y033852D01*
X031441Y033601D01*
X031693Y033349D01*
X031693Y032852D01*
X031341Y032501D01*
X030844Y032501D01*
X030551Y032795D01*
X030317Y032561D01*
X030093Y032561D01*
X030093Y033100D01*
X030093Y033100D01*
X030093Y030851D01*
X030523Y030851D01*
X030538Y030999D02*
X029898Y030999D01*
X030093Y030999D02*
X030538Y030999D01*
X030754Y031318D02*
X029682Y031318D01*
X030093Y031318D02*
X030754Y031318D01*
X031432Y031318D02*
X033343Y031318D01*
X033473Y031318D02*
X031432Y031318D01*
X031648Y030999D02*
X033343Y030999D01*
X033473Y030999D02*
X031648Y030999D01*
X031640Y030681D02*
X033343Y030681D01*
X033343Y030362D02*
X031573Y030362D01*
X031573Y030044D02*
X033343Y030044D01*
X033343Y029725D02*
X031396Y029725D01*
X031548Y029542D02*
X031739Y029621D01*
X031946Y029621D01*
X032137Y029542D01*
X032284Y029395D01*
X032363Y029204D01*
X032363Y028997D01*
X032284Y028806D01*
X032213Y028735D01*
X032213Y018216D01*
X032284Y018145D01*
X032363Y017954D01*
X032363Y017747D01*
X032284Y017556D01*
X032137Y017410D01*
X031946Y017331D01*
X031739Y017331D01*
X031548Y017410D01*
X031402Y017556D01*
X031323Y017747D01*
X031323Y017954D01*
X031402Y018145D01*
X031473Y018216D01*
X031473Y028735D01*
X031402Y028806D01*
X031323Y028997D01*
X031323Y029204D01*
X031402Y029395D01*
X031548Y029542D01*
X031414Y029407D02*
X031078Y029407D01*
X031323Y029088D02*
X030759Y029088D01*
X030573Y028770D02*
X031439Y028770D01*
X031473Y028451D02*
X030573Y028451D01*
X030573Y028133D02*
X031473Y028133D01*
X031473Y027814D02*
X030573Y027814D01*
X030573Y027496D02*
X031473Y027496D01*
X031473Y027177D02*
X030573Y027177D01*
X030573Y026858D02*
X031473Y026858D01*
X031473Y026540D02*
X030573Y026540D01*
X030573Y026221D02*
X031473Y026221D01*
X031473Y025903D02*
X030573Y025903D01*
X030573Y025584D02*
X031473Y025584D01*
X031473Y025266D02*
X030573Y025266D01*
X030573Y024947D02*
X031473Y024947D01*
X031473Y024629D02*
X030573Y024629D01*
X030573Y024310D02*
X031473Y024310D01*
X031473Y023992D02*
X030573Y023992D01*
X030573Y023673D02*
X031473Y023673D01*
X031473Y023354D02*
X030573Y023354D01*
X030573Y023036D02*
X031473Y023036D01*
X031473Y022717D02*
X030573Y022717D01*
X030573Y022399D02*
X031473Y022399D01*
X031473Y022080D02*
X030573Y022080D01*
X030573Y021762D02*
X031473Y021762D01*
X031473Y021443D02*
X030573Y021443D01*
X030573Y021125D02*
X031473Y021125D01*
X031473Y020806D02*
X030573Y020806D01*
X030573Y020488D02*
X031473Y020488D01*
X031473Y020169D02*
X030573Y020169D01*
X030573Y019850D02*
X031473Y019850D01*
X031473Y019532D02*
X030573Y019532D01*
X030573Y019213D02*
X031473Y019213D01*
X031473Y018895D02*
X030573Y018895D01*
X030573Y018576D02*
X031473Y018576D01*
X031473Y018258D02*
X030573Y018258D01*
X030573Y017939D02*
X031323Y017939D01*
X031375Y017621D02*
X030573Y017621D01*
X030573Y017302D02*
X032723Y017302D01*
X032723Y016984D02*
X030573Y016984D01*
X030573Y016665D02*
X032723Y016665D01*
X032723Y016346D02*
X030573Y016346D01*
X030573Y016028D02*
X032723Y016028D01*
X032723Y015709D02*
X030573Y015709D01*
X030573Y015391D02*
X032723Y015391D01*
X032723Y015072D02*
X030573Y015072D01*
X030573Y014754D02*
X032723Y014754D01*
X032723Y014435D02*
X030573Y014435D01*
X030573Y014117D02*
X032723Y014117D01*
X032723Y013798D02*
X030573Y013798D01*
X030573Y013480D02*
X032723Y013480D01*
X032723Y013161D02*
X030573Y013161D01*
X030573Y012843D02*
X032723Y012843D01*
X032723Y012524D02*
X030573Y012524D01*
X030573Y012205D02*
X032723Y012205D01*
X032723Y011887D02*
X030573Y011887D01*
X030573Y011568D02*
X032723Y011568D01*
X032723Y011250D02*
X030573Y011250D01*
X030573Y010931D02*
X032723Y010931D01*
X032723Y010613D02*
X032260Y010613D01*
X032578Y010294D02*
X032723Y010294D01*
X032593Y009601D02*
X031968Y010226D01*
X030093Y010226D01*
X030093Y017101D01*
X026693Y017101D01*
X027022Y017621D02*
X029613Y017621D01*
X029613Y017939D02*
X027233Y017939D01*
X027233Y018258D02*
X029613Y018258D01*
X029613Y018576D02*
X027017Y018576D01*
X027293Y018895D02*
X028365Y018895D01*
X028327Y019213D02*
X027293Y019213D01*
X027110Y019532D02*
X028473Y019532D01*
X028473Y019850D02*
X027291Y019850D01*
X027293Y020169D02*
X028473Y020169D01*
X028473Y020488D02*
X027155Y020488D01*
X027247Y020806D02*
X028473Y020806D01*
X028473Y021125D02*
X027293Y021125D01*
X027199Y021443D02*
X028473Y021443D01*
X028473Y021762D02*
X027202Y021762D01*
X027293Y022080D02*
X028473Y022080D01*
X028473Y022399D02*
X027914Y022399D01*
X028188Y022717D02*
X028473Y022717D01*
X028473Y023036D02*
X028213Y023036D01*
X028213Y023354D02*
X028473Y023354D01*
X029213Y023354D02*
X029613Y023354D01*
X029613Y023036D02*
X029213Y023036D01*
X029213Y022717D02*
X029613Y022717D01*
X029613Y022399D02*
X029213Y022399D01*
X029213Y022080D02*
X029613Y022080D01*
X029613Y021762D02*
X029213Y021762D01*
X029213Y021443D02*
X029613Y021443D01*
X029613Y021125D02*
X029213Y021125D01*
X029213Y020806D02*
X029613Y020806D01*
X029613Y020488D02*
X029213Y020488D01*
X029213Y020169D02*
X029613Y020169D01*
X029613Y019850D02*
X029213Y019850D01*
X029213Y019532D02*
X029613Y019532D01*
X029613Y019213D02*
X029359Y019213D01*
X029320Y018895D02*
X029613Y018895D01*
X030093Y017101D02*
X030093Y029101D01*
X031093Y030101D01*
X031093Y030851D01*
X030613Y030362D02*
X029653Y030362D01*
X030039Y029725D02*
X026354Y029725D01*
X026326Y030044D02*
X030357Y030044D01*
X029720Y029407D02*
X026213Y029407D01*
X026213Y029088D02*
X029613Y029088D01*
X029613Y028770D02*
X028659Y028770D01*
X028863Y028451D02*
X029613Y028451D01*
X029613Y028133D02*
X028815Y028133D01*
X028713Y027814D02*
X029613Y027814D01*
X029613Y027496D02*
X028684Y027496D01*
X028863Y027177D02*
X029613Y027177D01*
X029613Y026858D02*
X029299Y026858D01*
X029363Y026540D02*
X029613Y026540D01*
X029613Y026221D02*
X029213Y026221D01*
X029213Y025903D02*
X029613Y025903D01*
X029613Y025584D02*
X029213Y025584D01*
X029213Y025266D02*
X029613Y025266D01*
X029613Y024947D02*
X029213Y024947D01*
X029213Y024629D02*
X029613Y024629D01*
X029613Y024310D02*
X029213Y024310D01*
X029213Y023992D02*
X029613Y023992D01*
X029613Y023673D02*
X029213Y023673D01*
X032213Y023673D02*
X033343Y023673D01*
X033343Y023354D02*
X032213Y023354D01*
X032213Y023036D02*
X033343Y023036D01*
X033343Y022717D02*
X032213Y022717D01*
X032213Y022399D02*
X033343Y022399D01*
X033343Y022080D02*
X032213Y022080D01*
X032213Y021762D02*
X033343Y021762D01*
X033343Y021443D02*
X032213Y021443D01*
X032213Y021125D02*
X033343Y021125D01*
X033343Y020806D02*
X032213Y020806D01*
X032213Y020488D02*
X032744Y020488D01*
X032573Y020169D02*
X032213Y020169D01*
X032213Y019850D02*
X032634Y019850D01*
X032723Y019532D02*
X032213Y019532D01*
X032213Y019213D02*
X032723Y019213D01*
X032723Y018895D02*
X032213Y018895D01*
X032213Y018576D02*
X032723Y018576D01*
X032723Y018258D02*
X032213Y018258D01*
X032363Y017939D02*
X032723Y017939D01*
X032723Y017621D02*
X032310Y017621D01*
X025593Y011851D02*
X024343Y013101D01*
X023093Y013101D01*
X023093Y011501D01*
X022993Y011501D01*
X022613Y011887D02*
X022470Y011887D01*
X022613Y012205D02*
X016112Y012205D01*
X015963Y012524D02*
X022613Y012524D01*
X022387Y012843D02*
X015963Y012843D01*
X015963Y013161D02*
X022323Y013161D01*
X022486Y013480D02*
X015963Y013480D01*
X015963Y013798D02*
X022823Y013798D01*
X022890Y014117D02*
X015963Y014117D01*
X015963Y014435D02*
X022523Y014435D01*
X022323Y014754D02*
X015963Y014754D01*
X015963Y015072D02*
X022372Y015072D01*
X022473Y015391D02*
X016031Y015391D01*
X016350Y015709D02*
X022473Y015709D01*
X022473Y016028D02*
X020505Y016028D01*
X020613Y016346D02*
X022473Y016346D01*
X022473Y016665D02*
X020514Y016665D01*
X022473Y016984D02*
X011033Y016984D01*
X011033Y017302D02*
X022406Y017302D01*
X022323Y017621D02*
X013810Y017621D01*
X013784Y017556D02*
X013637Y017410D01*
X013446Y017331D01*
X013239Y017331D01*
X013048Y017410D01*
X012902Y017556D01*
X012823Y017747D01*
X012823Y017954D01*
X012902Y018145D01*
X012973Y018216D01*
X012973Y020592D01*
X012946Y020581D01*
X012739Y020581D01*
X012548Y020660D01*
X012402Y020806D01*
X011047Y020806D01*
X011093Y021125D02*
X012323Y021125D01*
X012323Y021204D02*
X012402Y021395D01*
X012473Y021466D01*
X012473Y022235D01*
X012402Y022306D01*
X012323Y022497D01*
X012323Y022704D01*
X012402Y022895D01*
X012548Y023042D01*
X012739Y023121D01*
X012946Y023121D01*
X013137Y023042D01*
X013284Y022895D01*
X013363Y022704D01*
X013363Y022621D01*
X013446Y022621D01*
X013637Y022542D01*
X013784Y022395D01*
X013863Y022204D01*
X013863Y021997D01*
X013784Y021806D01*
X013713Y021735D01*
X013713Y021110D01*
X013739Y021121D01*
X013840Y021121D01*
X014823Y022104D01*
X014823Y022204D01*
X014902Y022395D01*
X015048Y022542D01*
X015239Y022621D01*
X015446Y022621D01*
X015637Y022542D01*
X015784Y022395D01*
X015863Y022204D01*
X015863Y021997D01*
X015784Y021806D01*
X015637Y021660D01*
X015446Y021581D01*
X015346Y021581D01*
X014363Y020598D01*
X014363Y020497D01*
X014284Y020306D01*
X014137Y020160D01*
X013946Y020081D01*
X013739Y020081D01*
X013713Y020092D01*
X013713Y018216D01*
X013784Y018145D01*
X013863Y017954D01*
X013863Y017747D01*
X013784Y017556D01*
X013863Y017939D02*
X022446Y017939D01*
X022973Y018258D02*
X013713Y018258D01*
X013713Y018576D02*
X022973Y018576D01*
X022973Y018895D02*
X017820Y018895D01*
X017784Y018806D02*
X017637Y018660D01*
X017446Y018581D01*
X017239Y018581D01*
X017048Y018660D01*
X016902Y018806D01*
X016823Y018997D01*
X016823Y019204D01*
X016902Y019395D01*
X017048Y019542D01*
X017239Y019621D01*
X017340Y019621D01*
X020323Y022604D01*
X020323Y022704D01*
X020402Y022895D01*
X020548Y023042D01*
X020739Y023121D01*
X020946Y023121D01*
X021137Y023042D01*
X021284Y022895D01*
X021363Y022704D01*
X021363Y022497D01*
X021284Y022306D01*
X021137Y022160D01*
X020946Y022081D01*
X020846Y022081D01*
X017863Y019098D01*
X017863Y018997D01*
X017784Y018806D01*
X017979Y019213D02*
X022973Y019213D01*
X022973Y019532D02*
X018297Y019532D01*
X018616Y019850D02*
X022973Y019850D01*
X022973Y020169D02*
X018934Y020169D01*
X019253Y020488D02*
X023206Y020488D01*
X023525Y020806D02*
X019571Y020806D01*
X019890Y021125D02*
X023823Y021125D01*
X023950Y021443D02*
X020209Y021443D01*
X020527Y021762D02*
X023973Y021762D01*
X023973Y022080D02*
X020846Y022080D01*
X021322Y022399D02*
X023973Y022399D01*
X023973Y022717D02*
X021357Y022717D01*
X021143Y023036D02*
X023973Y023036D01*
X023973Y023354D02*
X011003Y023354D01*
X011033Y023036D02*
X011043Y023036D01*
X011643Y023036D02*
X012543Y023036D01*
X012328Y022717D02*
X011857Y022717D01*
X011822Y022399D02*
X012364Y022399D01*
X012473Y022080D02*
X011093Y022080D01*
X011002Y021762D02*
X012473Y021762D01*
X012450Y021443D02*
X010999Y021443D01*
X010144Y020601D02*
X009993Y020752D01*
X009799Y020558D01*
X009950Y020407D01*
X010144Y020601D01*
X010031Y020488D02*
X009870Y020488D01*
X009493Y020488D02*
X009493Y020488D01*
X009493Y020501D02*
X009493Y020101D01*
X009493Y020501D01*
X009493Y020501D01*
X009493Y020169D02*
X009493Y020169D01*
X009493Y020101D02*
X009493Y020101D01*
X010955Y020488D02*
X012973Y020488D01*
X012973Y020169D02*
X011798Y020169D01*
X011963Y019850D02*
X012973Y019850D01*
X012973Y019532D02*
X011963Y019532D01*
X011963Y019213D02*
X012973Y019213D01*
X012973Y018895D02*
X011963Y018895D01*
X011963Y018576D02*
X012973Y018576D01*
X012973Y018258D02*
X011963Y018258D01*
X012113Y017939D02*
X012823Y017939D01*
X012875Y017621D02*
X012060Y017621D01*
X011125Y017621D02*
X010861Y017621D01*
X010821Y016665D02*
X011135Y016665D01*
X009593Y017101D02*
X007593Y017101D01*
X004593Y017101D01*
X004093Y017601D01*
X004093Y018101D01*
X003748Y018576D02*
X002794Y018576D01*
X002744Y018626D02*
X002919Y018452D01*
X003013Y018224D01*
X003013Y017977D01*
X002919Y017750D01*
X002770Y017601D01*
X002919Y017452D01*
X003013Y017224D01*
X003013Y016977D01*
X002919Y016750D01*
X002744Y016575D01*
X002516Y016481D01*
X001670Y016481D01*
X001442Y016575D01*
X001267Y016750D01*
X001173Y016977D01*
X001173Y017224D01*
X001267Y017452D01*
X001416Y017601D01*
X001267Y017750D01*
X001173Y017977D01*
X001173Y018224D01*
X001267Y018452D01*
X001442Y018626D01*
X001466Y018636D01*
X001318Y018784D01*
X001233Y018989D01*
X001233Y019101D01*
X001233Y019212D01*
X001318Y019418D01*
X001466Y019565D01*
X001442Y019575D01*
X001267Y019750D01*
X001173Y019977D01*
X001173Y020224D01*
X001267Y020452D01*
X001416Y020601D01*
X001267Y020750D01*
X001173Y020977D01*
X001173Y021224D01*
X001267Y021452D01*
X001416Y021601D01*
X001267Y021750D01*
X001173Y021977D01*
X001173Y022224D01*
X001267Y022452D01*
X001442Y022626D01*
X001670Y022721D01*
X002330Y022721D01*
X002402Y022895D01*
X002548Y023042D01*
X002739Y023121D01*
X002946Y023121D01*
X003137Y023042D01*
X003284Y022895D01*
X003363Y022704D01*
X003363Y022497D01*
X003284Y022306D01*
X003213Y022235D01*
X003213Y020152D01*
X003157Y020016D01*
X003053Y019912D01*
X002939Y019798D01*
X002919Y019750D01*
X002744Y019575D01*
X002720Y019565D01*
X002868Y019418D01*
X002953Y019212D01*
X002953Y019101D01*
X002093Y019101D01*
X000843Y019101D01*
X000843Y005601D01*
X001093Y005351D01*
X004593Y005351D01*
X004843Y005101D01*
X004843Y001101D01*
X005093Y000851D01*
X007093Y000851D01*
X007093Y002601D01*
X007093Y002601D01*
X007633Y002601D01*
X007633Y002824D01*
X007399Y003058D01*
X007571Y003231D01*
X007667Y003231D01*
X007803Y003287D01*
X007907Y003391D01*
X008657Y004141D01*
X008713Y004277D01*
X008713Y004424D01*
X008713Y006495D01*
X008798Y006410D01*
X008989Y006331D01*
X009196Y006331D01*
X009387Y006410D01*
X009534Y006556D01*
X009613Y006747D01*
X009613Y006954D01*
X009534Y007145D01*
X009463Y007216D01*
X009463Y010527D01*
X009463Y010674D01*
X009407Y010810D01*
X008963Y011254D01*
X008963Y012782D01*
X009244Y012501D01*
X009723Y012501D01*
X009723Y008216D01*
X009652Y008145D01*
X009573Y007954D01*
X009573Y007747D01*
X009652Y007556D01*
X009798Y007410D01*
X009989Y007331D01*
X010196Y007331D01*
X010223Y007342D01*
X010223Y006004D01*
X010029Y005810D01*
X009973Y005674D01*
X009973Y005527D01*
X009973Y005466D01*
X009902Y005395D01*
X009823Y005204D01*
X009823Y004997D01*
X009902Y004806D01*
X010048Y004660D01*
X010239Y004581D01*
X010446Y004581D01*
X010637Y004660D01*
X010784Y004806D01*
X010863Y004997D01*
X010863Y005081D01*
X010946Y005081D01*
X010973Y005092D01*
X010973Y004674D01*
X010973Y004527D01*
X011029Y004391D01*
X011532Y003888D01*
X011493Y003849D01*
X011493Y003352D01*
X011744Y003101D01*
X011493Y002849D01*
X011493Y002352D01*
X011844Y002001D01*
X012341Y002001D01*
X012635Y002295D01*
X012869Y002061D01*
X013093Y002061D01*
X013093Y002600D01*
X013093Y002600D01*
X013093Y002061D01*
X013317Y002061D01*
X013633Y002377D01*
X013633Y002601D01*
X013093Y002601D01*
X013093Y000851D01*
X019093Y000851D01*
X019093Y002601D01*
X019093Y002601D01*
X019633Y002601D01*
X019633Y002824D01*
X019399Y003058D01*
X019693Y003352D01*
X019693Y003428D01*
X020303Y004037D01*
X020407Y004141D01*
X020463Y004277D01*
X020463Y004592D01*
X020489Y004581D01*
X020573Y004581D01*
X020573Y004497D01*
X020652Y004306D01*
X020798Y004160D01*
X020989Y004081D01*
X021196Y004081D01*
X021387Y004160D01*
X021534Y004306D01*
X021613Y004497D01*
X021613Y004704D01*
X021534Y004895D01*
X021463Y004966D01*
X021463Y010022D01*
X021593Y010152D01*
X021693Y010052D01*
X021693Y003686D01*
X021652Y003645D01*
X021573Y003454D01*
X021573Y003247D01*
X021652Y003056D01*
X021798Y002910D01*
X021989Y002831D01*
X022196Y002831D01*
X022387Y002910D01*
X022534Y003056D01*
X022613Y003247D01*
X022613Y003454D01*
X022534Y003645D01*
X022493Y003686D01*
X022493Y008581D01*
X022696Y008581D01*
X022887Y008660D01*
X022958Y008731D01*
X023209Y008731D01*
X023198Y008704D01*
X023198Y008604D01*
X023048Y008542D01*
X022902Y008395D01*
X022823Y008204D01*
X022823Y007997D01*
X022902Y007806D01*
X023048Y007660D01*
X023223Y007588D01*
X023223Y005424D01*
X023223Y005277D01*
X023279Y005141D01*
X023532Y004888D01*
X023493Y004849D01*
X023493Y004352D01*
X023744Y004101D01*
X023493Y003849D01*
X023493Y003352D01*
X023744Y003101D01*
X023493Y002849D01*
X023493Y002352D01*
X023844Y002001D01*
X024341Y002001D01*
X024635Y002295D01*
X024869Y002061D01*
X025093Y002061D01*
X025093Y002600D01*
X025093Y002600D01*
X025093Y002061D01*
X025317Y002061D01*
X025633Y002377D01*
X025633Y002601D01*
X025093Y002601D01*
X025093Y000851D01*
X030593Y000851D01*
X031093Y001351D01*
X031093Y002601D01*
X031093Y002601D01*
X031633Y002601D01*
X031633Y002377D01*
X031317Y002061D01*
X031093Y002061D01*
X031093Y002600D01*
X031093Y002600D01*
X031093Y002061D01*
X030869Y002061D01*
X030635Y002295D01*
X030341Y002001D01*
X029844Y002001D01*
X029493Y002352D01*
X029493Y002849D01*
X029744Y003101D01*
X029493Y003352D01*
X029493Y003428D01*
X026090Y006831D01*
X025989Y006831D01*
X025963Y006842D01*
X025963Y004424D01*
X025963Y004277D01*
X025907Y004141D01*
X025657Y003891D01*
X025654Y003888D01*
X025693Y003849D01*
X025693Y003352D01*
X025399Y003058D01*
X025633Y002824D01*
X025633Y002601D01*
X025093Y002601D01*
X025093Y002601D01*
X025093Y002331D02*
X025093Y002331D01*
X025586Y002331D02*
X029515Y002331D01*
X029493Y002649D02*
X025633Y002649D01*
X025490Y002968D02*
X029611Y002968D01*
X029559Y003286D02*
X025627Y003286D01*
X025693Y003605D02*
X029316Y003605D01*
X028997Y003923D02*
X025689Y003923D01*
X025948Y004242D02*
X028679Y004242D01*
X028360Y004560D02*
X025963Y004560D01*
X025963Y004879D02*
X028042Y004879D01*
X027723Y005197D02*
X025963Y005197D01*
X025963Y005516D02*
X027404Y005516D01*
X027086Y005835D02*
X025963Y005835D01*
X025963Y006153D02*
X026767Y006153D01*
X026449Y006472D02*
X025963Y006472D01*
X025963Y006790D02*
X026130Y006790D01*
X023223Y006790D02*
X022493Y006790D01*
X022493Y006472D02*
X023223Y006472D01*
X023223Y006153D02*
X022493Y006153D01*
X022493Y005835D02*
X023223Y005835D01*
X023223Y005516D02*
X022493Y005516D01*
X022493Y005197D02*
X023256Y005197D01*
X023523Y004879D02*
X022493Y004879D01*
X022493Y004560D02*
X023493Y004560D01*
X023603Y004242D02*
X022493Y004242D01*
X022493Y003923D02*
X023567Y003923D01*
X023493Y003605D02*
X022551Y003605D01*
X022613Y003286D02*
X023559Y003286D01*
X023611Y002968D02*
X022445Y002968D01*
X021741Y002968D02*
X019490Y002968D01*
X019627Y003286D02*
X021573Y003286D01*
X021635Y003605D02*
X019870Y003605D01*
X020189Y003923D02*
X021693Y003923D01*
X021693Y004242D02*
X021469Y004242D01*
X021613Y004560D02*
X021693Y004560D01*
X021693Y004879D02*
X021541Y004879D01*
X021463Y005197D02*
X021693Y005197D01*
X021693Y005516D02*
X021463Y005516D01*
X021463Y005835D02*
X021693Y005835D01*
X021693Y006153D02*
X021463Y006153D01*
X021463Y006472D02*
X021693Y006472D01*
X021693Y006790D02*
X021463Y006790D01*
X021463Y007109D02*
X021693Y007109D01*
X021693Y007427D02*
X021463Y007427D01*
X021463Y007746D02*
X021693Y007746D01*
X021693Y008064D02*
X021463Y008064D01*
X021463Y008383D02*
X021693Y008383D01*
X021693Y008701D02*
X021463Y008701D01*
X021463Y009020D02*
X021693Y009020D01*
X021693Y009339D02*
X021463Y009339D01*
X021463Y009657D02*
X021693Y009657D01*
X021693Y009976D02*
X021463Y009976D01*
X019723Y009976D02*
X019331Y009976D01*
X019317Y009961D02*
X019093Y009961D01*
X019093Y010500D01*
X019093Y010500D01*
X019093Y009961D01*
X019006Y009961D01*
X019303Y009664D01*
X019388Y009579D01*
X019489Y009621D01*
X019696Y009621D01*
X019723Y009610D01*
X019723Y010022D01*
X019550Y010195D01*
X019317Y009961D01*
X019093Y009976D02*
X019093Y009976D01*
X019093Y010294D02*
X019093Y010294D01*
X019310Y009657D02*
X019723Y009657D01*
X018723Y009198D02*
X018020Y009901D01*
X017844Y009901D01*
X017551Y010195D01*
X017317Y009961D01*
X017093Y009961D01*
X017093Y010500D01*
X017093Y010500D01*
X017093Y009961D01*
X017006Y009961D01*
X017303Y009664D01*
X017407Y009560D01*
X017463Y009424D01*
X017463Y007004D01*
X017555Y006912D01*
X017844Y007201D01*
X018341Y007201D01*
X018593Y006949D01*
X018676Y007032D01*
X018652Y007056D01*
X018573Y007247D01*
X018573Y007454D01*
X018652Y007645D01*
X018723Y007716D01*
X018723Y009198D01*
X018723Y009020D02*
X017463Y009020D01*
X017463Y008701D02*
X018723Y008701D01*
X018723Y008383D02*
X017463Y008383D01*
X017463Y008064D02*
X018723Y008064D01*
X018723Y007746D02*
X017463Y007746D01*
X017463Y007427D02*
X018573Y007427D01*
X018630Y007109D02*
X018433Y007109D01*
X017752Y007109D02*
X017463Y007109D01*
X016267Y006153D02*
X014871Y006153D01*
X014887Y006160D02*
X014696Y006081D01*
X014489Y006081D01*
X014298Y006160D01*
X014213Y006245D01*
X014213Y004674D01*
X014213Y004527D01*
X014157Y004391D01*
X013654Y003888D01*
X013693Y003849D01*
X013693Y003352D01*
X013399Y003058D01*
X013633Y002824D01*
X013633Y002601D01*
X013093Y002601D01*
X013093Y002601D01*
X013093Y002331D02*
X013093Y002331D01*
X013586Y002331D02*
X017515Y002331D01*
X017493Y002352D02*
X017493Y002849D01*
X017744Y003101D01*
X017493Y003352D01*
X017493Y003849D01*
X017744Y004101D01*
X017493Y004352D01*
X017493Y004849D01*
X017532Y004888D01*
X017529Y004891D01*
X017529Y004891D01*
X015298Y007123D01*
X015196Y007081D01*
X014989Y007081D01*
X014963Y007092D01*
X014963Y006966D01*
X015034Y006895D01*
X015113Y006704D01*
X015113Y006497D01*
X015034Y006306D01*
X014887Y006160D01*
X015102Y006472D02*
X015949Y006472D01*
X015630Y006790D02*
X015077Y006790D01*
X015264Y007109D02*
X015312Y007109D01*
X014315Y006153D02*
X014213Y006153D01*
X014213Y005835D02*
X016586Y005835D01*
X016904Y005516D02*
X014213Y005516D01*
X014213Y005197D02*
X017223Y005197D01*
X017523Y004879D02*
X014213Y004879D01*
X014213Y004560D02*
X017493Y004560D01*
X017603Y004242D02*
X014007Y004242D01*
X013689Y003923D02*
X017567Y003923D01*
X017493Y003605D02*
X013693Y003605D01*
X013627Y003286D02*
X017559Y003286D01*
X017611Y002968D02*
X013490Y002968D01*
X013633Y002649D02*
X017493Y002649D01*
X017493Y002352D02*
X017844Y002001D01*
X018341Y002001D01*
X018635Y002295D01*
X018869Y002061D01*
X019093Y002061D01*
X019093Y002600D01*
X019093Y002600D01*
X019093Y002061D01*
X019317Y002061D01*
X019633Y002377D01*
X019633Y002601D01*
X019093Y002601D01*
X019093Y002331D02*
X019093Y002331D01*
X019586Y002331D02*
X023515Y002331D01*
X023493Y002649D02*
X019633Y002649D01*
X018353Y002012D02*
X023833Y002012D01*
X024353Y002012D02*
X029833Y002012D01*
X030353Y002012D02*
X041843Y002012D01*
X044513Y002012D01*
X044513Y002331D02*
X041843Y002331D01*
X031586Y002331D01*
X031633Y002649D02*
X041843Y002649D01*
X044613Y002649D01*
X044613Y002968D02*
X041843Y002968D01*
X031490Y002968D01*
X031627Y003286D02*
X041843Y003286D01*
X044613Y003286D01*
X044613Y003605D02*
X041843Y003605D01*
X041843Y003923D02*
X044513Y003923D01*
X045093Y004101D02*
X045093Y002101D01*
X045506Y001694D02*
X048593Y001694D01*
X048593Y001375D02*
X041843Y001375D01*
X041843Y001694D02*
X002775Y001694D01*
X003148Y002012D02*
X005833Y002012D01*
X005844Y002001D02*
X005493Y002352D01*
X005493Y002849D01*
X005744Y003101D01*
X005493Y003352D01*
X005493Y003849D01*
X005744Y004101D01*
X005493Y004352D01*
X005493Y004560D02*
X000661Y004560D01*
X000661Y004879D02*
X005523Y004879D01*
X005256Y005197D02*
X000661Y005197D01*
X000661Y005516D02*
X005223Y005516D01*
X005223Y005835D02*
X000661Y005835D01*
X000661Y006153D02*
X005223Y006153D01*
X005223Y006472D02*
X000661Y006472D01*
X000661Y006790D02*
X005223Y006790D01*
X005223Y007109D02*
X000661Y007109D01*
X000661Y007427D02*
X005223Y007427D01*
X005223Y007746D02*
X000661Y007746D01*
X000661Y008064D02*
X005223Y008064D01*
X005223Y008383D02*
X000661Y008383D01*
X000661Y008701D02*
X005223Y008701D01*
X005223Y009020D02*
X000661Y009020D01*
X000661Y009339D02*
X005223Y009339D01*
X005176Y009657D02*
X000661Y009657D01*
X000661Y009976D02*
X005073Y009976D01*
X005176Y010294D02*
X000661Y010294D01*
X000661Y010613D02*
X006223Y010613D01*
X006223Y010931D02*
X000661Y010931D01*
X000661Y011250D02*
X006223Y011250D01*
X006223Y011568D02*
X000661Y011568D01*
X000661Y011887D02*
X006223Y011887D01*
X006223Y012205D02*
X000661Y012205D01*
X000661Y012524D02*
X006223Y012524D01*
X006223Y012843D02*
X000661Y012843D01*
X000661Y013161D02*
X006223Y013161D01*
X006223Y013480D02*
X000661Y013480D01*
X000661Y013798D02*
X003575Y013798D01*
X003513Y014117D02*
X000661Y014117D01*
X000661Y014435D02*
X003607Y014435D01*
X004223Y014754D02*
X000661Y014754D01*
X000661Y015072D02*
X004541Y015072D01*
X004860Y015391D02*
X000661Y015391D01*
X000661Y015709D02*
X005178Y015709D01*
X005348Y016028D02*
X000661Y016028D01*
X000661Y016346D02*
X005209Y016346D01*
X004391Y016665D02*
X002834Y016665D01*
X003013Y016984D02*
X004031Y016984D01*
X003713Y017302D02*
X002981Y017302D01*
X002790Y017621D02*
X003613Y017621D01*
X003513Y017939D02*
X002997Y017939D01*
X002999Y018258D02*
X003513Y018258D01*
X003573Y018895D02*
X002914Y018895D01*
X002953Y018989D02*
X002868Y018784D01*
X002720Y018636D01*
X002744Y018626D01*
X002953Y018989D02*
X002953Y019101D01*
X002093Y019101D01*
X002093Y019101D01*
X001233Y019101D01*
X002093Y019101D01*
X002093Y019101D01*
X002754Y019532D02*
X003789Y019532D01*
X004093Y019532D02*
X004093Y019532D01*
X004093Y019621D02*
X004093Y019101D01*
X004093Y019101D01*
X004093Y019621D01*
X004397Y019532D02*
X004473Y019532D01*
X004473Y019850D02*
X002991Y019850D01*
X003213Y020169D02*
X004164Y020169D01*
X003952Y020488D02*
X003213Y020488D01*
X003213Y020806D02*
X003990Y020806D01*
X004098Y021125D02*
X003213Y021125D01*
X003213Y021443D02*
X004098Y021443D01*
X004098Y021762D02*
X003213Y021762D01*
X003213Y022080D02*
X004098Y022080D01*
X004098Y022399D02*
X003322Y022399D01*
X003357Y022717D02*
X004098Y022717D01*
X004098Y023036D02*
X003143Y023036D01*
X002543Y023036D02*
X000661Y023036D01*
X000661Y023354D02*
X004098Y023354D01*
X003872Y023673D02*
X000661Y023673D01*
X000661Y023992D02*
X003554Y023992D01*
X003235Y024310D02*
X002372Y024310D01*
X002410Y024326D02*
X002204Y024241D01*
X002093Y024241D01*
X002093Y025100D01*
X002093Y025100D01*
X002093Y024241D01*
X001982Y024241D01*
X001776Y024326D01*
X001618Y024484D01*
X001533Y024689D01*
X001533Y025101D01*
X001533Y025512D01*
X001618Y025718D01*
X001776Y025876D01*
X001982Y025961D01*
X002093Y025961D01*
X002204Y025961D01*
X002410Y025876D01*
X002568Y025718D01*
X002653Y025512D01*
X002653Y025101D01*
X002093Y025101D01*
X002093Y025961D01*
X002093Y025101D01*
X002093Y025101D01*
X002093Y025101D01*
X001533Y025101D01*
X002093Y025101D01*
X002093Y025101D01*
X002653Y025101D01*
X002653Y024689D01*
X002568Y024484D01*
X002410Y024326D01*
X002093Y024310D02*
X002093Y024310D01*
X001814Y024310D02*
X000661Y024310D01*
X000661Y024629D02*
X001558Y024629D01*
X001533Y024947D02*
X000661Y024947D01*
X000843Y025101D02*
X000843Y019101D01*
X000661Y019213D02*
X001233Y019213D01*
X001272Y018895D02*
X000661Y018895D01*
X000661Y018576D02*
X001392Y018576D01*
X001187Y018258D02*
X000661Y018258D01*
X000661Y017939D02*
X001189Y017939D01*
X001396Y017621D02*
X000661Y017621D01*
X000661Y017302D02*
X001205Y017302D01*
X001173Y016984D02*
X000661Y016984D01*
X000661Y016665D02*
X001352Y016665D01*
X002952Y019213D02*
X003573Y019213D01*
X003573Y019101D02*
X004093Y019101D01*
X004093Y019101D01*
X003573Y019101D01*
X004093Y019213D02*
X004093Y019213D01*
X001432Y019532D02*
X000661Y019532D01*
X000661Y019850D02*
X001226Y019850D01*
X001173Y020169D02*
X000661Y020169D01*
X000661Y020488D02*
X001303Y020488D01*
X001244Y020806D02*
X000661Y020806D01*
X000661Y021125D02*
X001173Y021125D01*
X001264Y021443D02*
X000661Y021443D01*
X000661Y021762D02*
X001262Y021762D01*
X001173Y022080D02*
X000661Y022080D01*
X000661Y022399D02*
X001245Y022399D01*
X001661Y022717D02*
X000661Y022717D01*
X002093Y024629D02*
X002093Y024629D01*
X002093Y024947D02*
X002093Y024947D01*
X002093Y025266D02*
X002093Y025266D01*
X002093Y025584D02*
X002093Y025584D01*
X002093Y025903D02*
X002093Y025903D01*
X002344Y025903D02*
X003112Y025903D01*
X003080Y026221D02*
X000661Y026221D01*
X000661Y025903D02*
X001842Y025903D01*
X001563Y025584D02*
X000661Y025584D01*
X000661Y025266D02*
X001533Y025266D01*
X000843Y025101D02*
X000843Y034101D01*
X001093Y034351D01*
X004593Y034351D01*
X004843Y034601D01*
X004843Y038351D01*
X005093Y038601D01*
X006093Y038601D01*
X006093Y037101D01*
X006093Y037641D01*
X006093Y037101D01*
X006093Y037101D01*
X005553Y037101D01*
X006093Y037101D01*
X006093Y037101D01*
X006093Y037370D02*
X006093Y037370D01*
X005599Y037370D02*
X003261Y037370D01*
X003337Y037240D02*
X003429Y036894D01*
X003429Y036536D01*
X003337Y036190D01*
X003158Y035880D01*
X002904Y035627D01*
X002594Y035448D01*
X002248Y035355D01*
X001890Y035355D01*
X001544Y035448D01*
X001234Y035627D01*
X000981Y035880D01*
X000802Y036190D01*
X000709Y036536D01*
X000709Y036894D01*
X000802Y037240D01*
X000981Y037550D01*
X001234Y037803D01*
X001544Y037982D01*
X001890Y038075D01*
X002248Y038075D01*
X002594Y037982D01*
X002904Y037803D01*
X003158Y037550D01*
X003337Y037240D01*
X003387Y037052D02*
X005553Y037052D01*
X005697Y036733D02*
X003429Y036733D01*
X003397Y036415D02*
X005558Y036415D01*
X005493Y036096D02*
X003282Y036096D01*
X003055Y035778D02*
X005568Y035778D01*
X005603Y035459D02*
X002614Y035459D01*
X001525Y035459D02*
X000661Y035459D01*
X000661Y035141D02*
X005493Y035141D01*
X005523Y034822D02*
X000661Y034822D01*
X000661Y034503D02*
X005256Y034503D01*
X005223Y034185D02*
X000661Y034185D01*
X000661Y033866D02*
X005223Y033866D01*
X005223Y033548D02*
X000661Y033548D01*
X000661Y033229D02*
X005223Y033229D01*
X005223Y032911D02*
X000661Y032911D01*
X000661Y032592D02*
X005328Y032592D01*
X005647Y032274D02*
X000661Y032274D01*
X000661Y031955D02*
X005723Y031955D01*
X005723Y031637D02*
X000661Y031637D01*
X000661Y031318D02*
X005723Y031318D01*
X005723Y030999D02*
X000661Y030999D01*
X000661Y030681D02*
X005723Y030681D01*
X005723Y030362D02*
X000661Y030362D01*
X000661Y030044D02*
X005723Y030044D01*
X005723Y029725D02*
X000661Y029725D01*
X000661Y029407D02*
X005723Y029407D01*
X005723Y029088D02*
X000661Y029088D01*
X000661Y028770D02*
X001670Y028770D01*
X001618Y028718D02*
X001776Y028876D01*
X001982Y028961D01*
X002093Y028961D01*
X002204Y028961D01*
X002410Y028876D01*
X002568Y028718D01*
X002653Y028512D01*
X002653Y028101D01*
X002093Y028101D01*
X002093Y028961D01*
X002093Y028101D01*
X002093Y028101D01*
X002093Y028101D01*
X001533Y028101D01*
X001533Y028512D01*
X001618Y028718D01*
X001533Y028451D02*
X000661Y028451D01*
X000661Y028133D02*
X001533Y028133D01*
X001533Y028101D02*
X002093Y028101D01*
X002093Y028101D01*
X002653Y028101D01*
X002653Y027689D01*
X002568Y027484D01*
X002410Y027326D01*
X002204Y027241D01*
X002093Y027241D01*
X002093Y028100D01*
X002093Y028100D01*
X002093Y027241D01*
X001982Y027241D01*
X001776Y027326D01*
X001618Y027484D01*
X001533Y027689D01*
X001533Y028101D01*
X001533Y027814D02*
X000661Y027814D01*
X000661Y027496D02*
X001613Y027496D01*
X002093Y027496D02*
X002093Y027496D01*
X002093Y027814D02*
X002093Y027814D01*
X002093Y028133D02*
X002093Y028133D01*
X002093Y028451D02*
X002093Y028451D01*
X002093Y028770D02*
X002093Y028770D01*
X002516Y028770D02*
X003585Y028770D01*
X003567Y028752D02*
X003742Y028926D01*
X003970Y029021D01*
X004216Y029021D01*
X004444Y028926D01*
X004619Y028752D01*
X004713Y028524D01*
X004713Y027677D01*
X004619Y027450D01*
X004444Y027275D01*
X004216Y027181D01*
X003970Y027181D01*
X003742Y027275D01*
X003567Y027450D01*
X003473Y027677D01*
X003473Y028524D01*
X003567Y028752D01*
X003473Y028451D02*
X002653Y028451D01*
X002653Y028133D02*
X003473Y028133D01*
X003473Y027814D02*
X002653Y027814D01*
X002573Y027496D02*
X003548Y027496D01*
X004638Y027496D02*
X005723Y027496D01*
X005723Y027814D02*
X004713Y027814D01*
X004713Y028133D02*
X005723Y028133D01*
X005723Y028451D02*
X004713Y028451D01*
X004601Y028770D02*
X005723Y028770D01*
X007838Y028770D02*
X009013Y028770D01*
X009013Y029088D02*
X007838Y029088D01*
X007838Y029407D02*
X009220Y029407D01*
X009539Y029725D02*
X007838Y029725D01*
X007838Y030044D02*
X009908Y030044D01*
X010093Y029601D02*
X012093Y029601D01*
X012093Y027701D01*
X010973Y027814D02*
X009973Y027814D01*
X009973Y027496D02*
X010973Y027496D01*
X010973Y027177D02*
X009973Y027177D01*
X009973Y026858D02*
X010973Y026858D01*
X010973Y026540D02*
X009973Y026540D01*
X009973Y026221D02*
X010973Y026221D01*
X011024Y025903D02*
X009973Y025903D01*
X009973Y025584D02*
X010128Y025584D01*
X010858Y025584D02*
X011336Y025584D01*
X011093Y025266D02*
X011655Y025266D01*
X011973Y024947D02*
X011093Y024947D01*
X010869Y024629D02*
X012292Y024629D01*
X012610Y024310D02*
X011093Y024310D01*
X011093Y023992D02*
X012825Y023992D01*
X013035Y023673D02*
X010914Y023673D01*
X013143Y023036D02*
X020543Y023036D01*
X020328Y022717D02*
X013357Y022717D01*
X013780Y022399D02*
X014906Y022399D01*
X014799Y022080D02*
X013863Y022080D01*
X013739Y021762D02*
X014481Y021762D01*
X014162Y021443D02*
X013713Y021443D01*
X013713Y021125D02*
X013844Y021125D01*
X014571Y020806D02*
X018525Y020806D01*
X018206Y020488D02*
X014359Y020488D01*
X014147Y020169D02*
X017888Y020169D01*
X017569Y019850D02*
X013713Y019850D01*
X013713Y019532D02*
X017039Y019532D01*
X016827Y019213D02*
X013713Y019213D01*
X013713Y018895D02*
X016865Y018895D01*
X016260Y016665D02*
X013139Y016665D01*
X013238Y016346D02*
X013431Y016346D01*
X013755Y016346D02*
X015940Y016346D01*
X015622Y016028D02*
X014082Y016028D01*
X014097Y015709D02*
X015303Y015709D01*
X015223Y015391D02*
X013841Y015391D01*
X013338Y015072D02*
X015223Y015072D01*
X015223Y014754D02*
X013113Y014754D01*
X012913Y014435D02*
X015223Y014435D01*
X015223Y014117D02*
X012463Y014117D01*
X012463Y013798D02*
X013180Y013798D01*
X013073Y013480D02*
X012463Y013480D01*
X012463Y013161D02*
X012755Y013161D01*
X013483Y012843D02*
X015223Y012843D01*
X015223Y013161D02*
X014014Y013161D01*
X014113Y013480D02*
X015223Y013480D01*
X015223Y013798D02*
X014006Y013798D01*
X013164Y012524D02*
X015223Y012524D01*
X015073Y012205D02*
X012963Y012205D01*
X013555Y011887D02*
X013631Y011887D01*
X014555Y011887D02*
X014631Y011887D01*
X016555Y011887D02*
X016631Y011887D01*
X017555Y011887D02*
X017631Y011887D01*
X017593Y011152D02*
X017399Y010958D01*
X017551Y010807D01*
X017744Y011001D01*
X017593Y011152D01*
X017675Y010931D02*
X017426Y010931D01*
X017093Y010703D02*
X017093Y010702D01*
X017093Y010501D01*
X017093Y010703D01*
X017093Y010613D02*
X017093Y010613D01*
X017093Y010501D02*
X017093Y010501D01*
X017093Y010294D02*
X017093Y010294D01*
X017093Y009976D02*
X017093Y009976D01*
X017331Y009976D02*
X017770Y009976D01*
X017310Y009657D02*
X018263Y009657D01*
X018582Y009339D02*
X017463Y009339D01*
X018635Y010807D02*
X018787Y010958D01*
X018593Y011152D01*
X018441Y011001D01*
X018635Y010807D01*
X018511Y010931D02*
X018760Y010931D01*
X018631Y011887D02*
X018555Y011887D01*
X019555Y011887D02*
X019631Y011887D01*
X020555Y011887D02*
X020631Y011887D01*
X021555Y011887D02*
X021715Y011887D01*
X022093Y011887D02*
X022093Y011887D01*
X022093Y011568D02*
X022093Y011568D01*
X022843Y013101D02*
X023093Y013101D01*
X025593Y011851D02*
X025593Y011101D01*
X026468Y010226D01*
X030093Y010226D01*
X032593Y009601D02*
X032593Y004851D01*
X034093Y004226D02*
X034093Y004101D01*
X035093Y004101D01*
X034093Y004101D02*
X034093Y002601D01*
X033343Y003605D02*
X031693Y003605D01*
X033064Y003923D02*
X033343Y003923D01*
X031093Y002331D02*
X031093Y002331D01*
X025093Y000851D02*
X019093Y000851D01*
X017833Y002012D02*
X012353Y002012D01*
X011833Y002012D02*
X006353Y002012D01*
X006341Y002001D02*
X005844Y002001D01*
X005515Y002331D02*
X003336Y002331D01*
X003422Y002649D02*
X005493Y002649D01*
X005611Y002968D02*
X003429Y002968D01*
X003362Y003286D02*
X005559Y003286D01*
X005493Y003605D02*
X003208Y003605D01*
X002926Y003923D02*
X005567Y003923D01*
X007093Y002600D02*
X007093Y002061D01*
X007093Y002600D01*
X007093Y002600D01*
X007093Y002601D02*
X007633Y002601D01*
X007633Y002377D01*
X007317Y002061D01*
X007093Y002061D01*
X006869Y002061D01*
X006635Y002295D01*
X006341Y002001D01*
X007093Y002331D02*
X007093Y002331D01*
X007586Y002331D02*
X011515Y002331D01*
X011493Y002649D02*
X007633Y002649D01*
X007490Y002968D02*
X011611Y002968D01*
X011559Y003286D02*
X007800Y003286D01*
X008120Y003605D02*
X011493Y003605D01*
X011497Y003923D02*
X008439Y003923D01*
X008698Y004242D02*
X011179Y004242D01*
X010973Y004560D02*
X008713Y004560D01*
X008713Y004879D02*
X009872Y004879D01*
X009823Y005197D02*
X008713Y005197D01*
X008713Y005516D02*
X009973Y005516D01*
X010054Y005835D02*
X008713Y005835D01*
X008713Y006153D02*
X010223Y006153D01*
X010223Y006472D02*
X009449Y006472D01*
X009613Y006790D02*
X010223Y006790D01*
X010223Y007109D02*
X009549Y007109D01*
X009463Y007427D02*
X009781Y007427D01*
X009574Y007746D02*
X009463Y007746D01*
X009463Y008064D02*
X009619Y008064D01*
X009723Y008383D02*
X009463Y008383D01*
X009463Y008701D02*
X009723Y008701D01*
X009723Y009020D02*
X009463Y009020D01*
X009463Y009339D02*
X009723Y009339D01*
X009723Y009657D02*
X009463Y009657D01*
X009463Y009976D02*
X009723Y009976D01*
X009723Y010294D02*
X009463Y010294D01*
X009463Y010613D02*
X009723Y010613D01*
X009723Y010931D02*
X009286Y010931D01*
X008967Y011250D02*
X009723Y011250D01*
X009723Y011568D02*
X008963Y011568D01*
X008963Y011887D02*
X009723Y011887D01*
X009723Y012205D02*
X008963Y012205D01*
X008963Y012524D02*
X009221Y012524D01*
X006223Y010294D02*
X006010Y010294D01*
X006113Y009976D02*
X006134Y009976D01*
X005372Y013798D02*
X004611Y013798D01*
X004673Y014117D02*
X004842Y014117D01*
X007593Y017101D02*
X007593Y024601D01*
X008093Y025101D01*
X009493Y025101D01*
X009493Y029001D01*
X010093Y029601D01*
X010259Y029088D02*
X010878Y029088D01*
X010823Y028770D02*
X009973Y028770D01*
X009973Y028451D02*
X010973Y028451D01*
X010973Y028133D02*
X009973Y028133D01*
X009013Y028133D02*
X007838Y028133D01*
X007838Y028451D02*
X009013Y028451D01*
X009013Y027814D02*
X007838Y027814D01*
X007838Y027496D02*
X009013Y027496D01*
X009013Y027177D02*
X007838Y027177D01*
X007838Y026858D02*
X009013Y026858D01*
X009013Y026540D02*
X007838Y026540D01*
X007838Y026221D02*
X009013Y026221D01*
X009013Y025903D02*
X007901Y025903D01*
X007988Y025584D02*
X009013Y025584D01*
X006124Y024629D02*
X005463Y024629D01*
X005453Y024947D02*
X005844Y024947D01*
X006093Y024621D02*
X006093Y024101D01*
X006093Y024621D01*
X006093Y024310D02*
X006093Y024310D01*
X006093Y024101D02*
X006093Y024101D01*
X005573Y024101D01*
X006093Y024101D01*
X006093Y024101D01*
X005785Y023673D02*
X005463Y023673D01*
X005463Y023354D02*
X005635Y023354D01*
X005573Y023036D02*
X005463Y023036D01*
X005463Y022717D02*
X005723Y022717D01*
X005723Y022399D02*
X005463Y022399D01*
X005463Y022080D02*
X005517Y022080D01*
X005573Y023992D02*
X005463Y023992D01*
X005463Y024310D02*
X005573Y024310D01*
X005443Y025266D02*
X005337Y025266D01*
X005323Y025584D02*
X005034Y025584D01*
X004836Y025981D02*
X005350Y025981D01*
X005713Y026344D01*
X005713Y026858D01*
X005350Y027221D01*
X004836Y027221D01*
X004473Y026858D01*
X004473Y026344D01*
X004836Y025981D01*
X004596Y026221D02*
X004106Y026221D01*
X003889Y026540D02*
X004473Y026540D01*
X004474Y026858D02*
X000661Y026858D01*
X000661Y026540D02*
X003297Y026540D01*
X002973Y025584D02*
X002623Y025584D01*
X002653Y025266D02*
X002973Y025266D01*
X002973Y024947D02*
X002653Y024947D01*
X002628Y024629D02*
X002983Y024629D01*
X004468Y025903D02*
X005410Y025903D01*
X005590Y026221D02*
X005690Y026221D01*
X005713Y026540D02*
X005723Y026540D01*
X005723Y026858D02*
X005712Y026858D01*
X005723Y027177D02*
X005394Y027177D01*
X004792Y027177D02*
X000661Y027177D01*
X007838Y030362D02*
X014087Y030362D01*
X014333Y030681D02*
X011658Y030681D01*
X011863Y030999D02*
X014843Y030999D01*
X015162Y031318D02*
X012083Y031318D01*
X012402Y031637D02*
X013855Y031637D01*
X013590Y031955D02*
X012721Y031955D01*
X012961Y032274D02*
X013397Y032274D01*
X014265Y032592D02*
X014462Y032592D01*
X014724Y032592D02*
X015348Y032592D01*
X015348Y032274D02*
X014584Y032274D01*
X014595Y031955D02*
X015348Y031955D01*
X015348Y031637D02*
X014331Y031637D01*
X014109Y032911D02*
X013963Y032911D01*
X013963Y033229D02*
X014083Y033229D01*
X013963Y033548D02*
X014223Y033548D01*
X014963Y033548D02*
X015438Y033548D01*
X015208Y033229D02*
X015103Y033229D01*
X015077Y032911D02*
X015234Y032911D01*
X014963Y033866D02*
X015723Y033866D01*
X015723Y034185D02*
X014782Y034185D01*
X014426Y034503D02*
X015723Y034503D01*
X015646Y034822D02*
X013963Y034822D01*
X013963Y035141D02*
X015573Y035141D01*
X015716Y035459D02*
X013949Y035459D01*
X013689Y035778D02*
X016613Y035778D01*
X016613Y036096D02*
X013693Y036096D01*
X013627Y036415D02*
X016600Y036415D01*
X016593Y037101D02*
X013093Y037101D01*
X012093Y037101D02*
X012093Y037641D01*
X012093Y037101D01*
X012093Y037101D01*
X012093Y037101D01*
X011553Y037101D01*
X011553Y037052D02*
X007693Y037052D01*
X007574Y036733D02*
X011697Y036733D01*
X011558Y036415D02*
X007627Y036415D01*
X007693Y036096D02*
X011493Y036096D01*
X011568Y035778D02*
X007689Y035778D01*
X008008Y035459D02*
X011603Y035459D01*
X011493Y035141D02*
X008213Y035141D01*
X008213Y034822D02*
X011523Y034822D01*
X011222Y034503D02*
X008213Y034503D01*
X008213Y034185D02*
X010904Y034185D01*
X010390Y033866D02*
X008213Y033866D01*
X008213Y033548D02*
X010323Y033548D01*
X010479Y033229D02*
X008213Y033229D01*
X008213Y032911D02*
X010630Y032911D01*
X010171Y032592D02*
X008213Y032592D01*
X008039Y032274D02*
X009852Y032274D01*
X009840Y031955D02*
X007838Y031955D01*
X007838Y031637D02*
X010105Y031637D01*
X010581Y031637D02*
X011356Y031637D01*
X011674Y031955D02*
X010845Y031955D01*
X011039Y032274D02*
X011993Y032274D01*
X011753Y032592D02*
X011358Y032592D01*
X010870Y031318D02*
X007838Y031318D01*
X007838Y030999D02*
X010823Y030999D01*
X011027Y030681D02*
X007838Y030681D01*
X012093Y029601D02*
X013593Y029601D01*
X017093Y029601D01*
X017093Y030601D01*
X017093Y029601D02*
X017093Y027701D01*
X017093Y027601D01*
X016613Y028069D02*
X016613Y029121D01*
X013963Y029121D01*
X013963Y028301D01*
X014341Y028301D01*
X014635Y028007D01*
X014869Y028241D01*
X015093Y028241D01*
X015317Y028241D01*
X015551Y028007D01*
X015844Y028301D01*
X016341Y028301D01*
X016593Y028049D01*
X016613Y028069D01*
X016613Y028133D02*
X016510Y028133D01*
X016613Y028451D02*
X013963Y028451D01*
X013963Y028770D02*
X016613Y028770D01*
X016613Y029088D02*
X013963Y029088D01*
X014510Y028133D02*
X014761Y028133D01*
X015093Y028133D02*
X015093Y028133D01*
X015093Y028241D02*
X015093Y027701D01*
X015093Y027701D01*
X015093Y028241D01*
X015425Y028133D02*
X015676Y028133D01*
X015093Y027814D02*
X015093Y027814D01*
X015093Y027700D02*
X015093Y027301D01*
X015093Y027700D01*
X015093Y027700D01*
X015093Y027496D02*
X015093Y027496D01*
X015093Y027301D02*
X015093Y027301D01*
X015693Y026701D02*
X015693Y026701D01*
X016093Y026701D01*
X016093Y026701D01*
X015693Y026701D01*
X016093Y026540D02*
X016093Y026540D01*
X016093Y026221D02*
X016093Y026221D01*
X015809Y026221D02*
X015462Y026221D01*
X014724Y026221D02*
X014462Y026221D01*
X013724Y026221D02*
X013377Y026221D01*
X013093Y026221D02*
X013093Y026221D01*
X012809Y026221D02*
X012462Y026221D01*
X012064Y025903D02*
X016518Y025903D01*
X013819Y024310D02*
X023867Y024310D01*
X023825Y023992D02*
X013861Y023992D01*
X013651Y023673D02*
X023973Y023673D01*
X024848Y024629D02*
X013338Y024629D01*
X013020Y024947D02*
X025093Y024947D01*
X025093Y025266D02*
X012701Y025266D01*
X012383Y025584D02*
X025328Y025584D01*
X026058Y025584D02*
X026328Y025584D01*
X027058Y025584D02*
X027098Y025584D01*
X027098Y025903D02*
X024668Y025903D01*
X024987Y026221D02*
X027098Y026221D01*
X027098Y026540D02*
X025305Y026540D01*
X025624Y026858D02*
X027098Y026858D01*
X027098Y027177D02*
X025942Y027177D01*
X026200Y027496D02*
X027098Y027496D01*
X027283Y027814D02*
X026213Y027814D01*
X026213Y028133D02*
X027397Y028133D01*
X027823Y028451D02*
X026213Y028451D01*
X026213Y028770D02*
X028026Y028770D01*
X032213Y028451D02*
X033343Y028451D01*
X033343Y028133D02*
X032213Y028133D01*
X032213Y027814D02*
X033343Y027814D01*
X033343Y027496D02*
X032213Y027496D01*
X032213Y027177D02*
X033343Y027177D01*
X033343Y026858D02*
X032213Y026858D01*
X032213Y026540D02*
X033343Y026540D01*
X033343Y026221D02*
X032213Y026221D01*
X032213Y025903D02*
X033343Y025903D01*
X033343Y025584D02*
X032213Y025584D01*
X032213Y025266D02*
X033343Y025266D01*
X033343Y024947D02*
X032213Y024947D01*
X032213Y024629D02*
X033343Y024629D01*
X033343Y024310D02*
X032213Y024310D01*
X032213Y023992D02*
X033343Y023992D01*
X033343Y028770D02*
X032247Y028770D01*
X032363Y029088D02*
X033343Y029088D01*
X033343Y029407D02*
X032272Y029407D01*
X033343Y031637D02*
X028831Y031637D01*
X029004Y031318D02*
X027863Y031318D01*
X028206Y031637D02*
X028355Y031637D01*
X029095Y031955D02*
X033343Y031955D01*
X033533Y031955D02*
X030093Y031955D01*
X030093Y031637D02*
X033752Y031637D01*
X033533Y032101D02*
X034093Y032101D01*
X034093Y032661D01*
X034093Y032101D01*
X034093Y032101D01*
X034093Y032101D01*
X034653Y032101D01*
X035093Y032101D01*
X035093Y032661D01*
X035093Y032101D01*
X035093Y032101D01*
X035093Y032101D01*
X034533Y032101D01*
X034093Y032101D01*
X033533Y032101D01*
X033533Y032274D02*
X030093Y032274D01*
X030093Y032561D02*
X029869Y032561D01*
X029553Y032877D01*
X029553Y033101D01*
X030093Y033101D01*
X030093Y033101D01*
X030093Y033100D02*
X030093Y033100D01*
X030093Y032561D01*
X030317Y032561D01*
X030551Y032795D01*
X030844Y032501D01*
X031341Y032501D01*
X031693Y032852D01*
X031693Y033349D01*
X031441Y033601D01*
X031693Y033852D01*
X031693Y034349D01*
X031441Y034601D01*
X031693Y034852D01*
X031693Y035349D01*
X031441Y035601D01*
X031693Y035852D01*
X031693Y036349D01*
X031441Y036601D01*
X031693Y036852D01*
X031693Y037349D01*
X031341Y037701D01*
X030844Y037701D01*
X030551Y037407D01*
X030317Y037641D01*
X030093Y037641D01*
X030093Y037101D01*
X030093Y037101D01*
X029553Y037101D01*
X029553Y037052D02*
X025693Y037052D01*
X026609Y036733D02*
X029697Y036733D01*
X029643Y036415D02*
X026915Y036415D01*
X026963Y036096D02*
X029553Y036096D01*
X029553Y036101D02*
X030093Y036101D01*
X030093Y036101D01*
X030093Y037100D01*
X030093Y037100D01*
X030093Y036561D01*
X030093Y036101D01*
X030093Y036101D01*
X030093Y036561D01*
X030093Y037100D01*
X030093Y037100D01*
X030093Y036561D01*
X030093Y036101D01*
X029553Y036101D01*
X029652Y035778D02*
X026963Y035778D01*
X026963Y035459D02*
X029688Y035459D01*
X029553Y035141D02*
X026963Y035141D01*
X026963Y034822D02*
X029608Y034822D01*
X029553Y035101D02*
X030093Y035101D01*
X030093Y035101D01*
X030093Y036100D01*
X030093Y036100D01*
X030093Y035641D01*
X030093Y035101D01*
X030093Y035101D01*
X030093Y035641D01*
X030093Y036100D01*
X030093Y036100D01*
X030093Y035641D01*
X030093Y035101D01*
X029553Y035101D01*
X030093Y035101D02*
X030093Y035101D01*
X030093Y035100D02*
X030093Y035100D01*
X030093Y034641D01*
X030093Y034101D01*
X030093Y034101D01*
X030093Y035100D01*
X030093Y035100D01*
X030093Y034641D01*
X030093Y034101D01*
X030093Y034101D01*
X030093Y034641D01*
X030093Y035100D01*
X030093Y035141D02*
X030093Y035141D01*
X030093Y035141D01*
X030093Y035459D02*
X030093Y035459D01*
X030093Y035459D01*
X030093Y035778D02*
X030093Y035778D01*
X030093Y035778D01*
X030093Y036096D02*
X030093Y036096D01*
X030093Y036096D01*
X030093Y036101D02*
X030093Y036101D01*
X030093Y036415D02*
X030093Y036415D01*
X030093Y036415D01*
X030093Y036733D02*
X030093Y036733D01*
X030093Y036733D01*
X030093Y037052D02*
X030093Y037052D01*
X030093Y037052D01*
X030093Y037370D02*
X030093Y037370D01*
X030093Y037370D01*
X031353Y037689D02*
X033343Y037689D01*
X033343Y038007D02*
X002500Y038007D01*
X003019Y037689D02*
X006833Y037689D01*
X006093Y038601D02*
X012093Y038601D01*
X012093Y037370D02*
X012093Y037370D01*
X016470Y035459D02*
X016613Y035459D01*
X016613Y035141D02*
X016613Y035141D01*
X016613Y034822D02*
X016540Y034822D01*
X018093Y037101D02*
X018093Y037101D01*
X026963Y034503D02*
X029732Y034503D01*
X030093Y034503D02*
X030093Y034503D01*
X030093Y034503D01*
X030093Y034185D02*
X030093Y034185D01*
X030093Y034185D01*
X030093Y034101D02*
X029553Y034101D01*
X030093Y034101D01*
X030093Y034101D01*
X030093Y033866D02*
X030093Y033866D01*
X030093Y033866D01*
X030093Y033548D02*
X030093Y033548D01*
X030093Y033548D01*
X029776Y033548D02*
X027669Y033548D01*
X027351Y033866D02*
X029564Y033866D01*
X029553Y034185D02*
X027032Y034185D01*
X027988Y033229D02*
X029553Y033229D01*
X029553Y032911D02*
X028306Y032911D01*
X028765Y032592D02*
X029838Y032592D01*
X030093Y032592D02*
X030093Y032592D01*
X030093Y032592D01*
X030093Y032561D02*
X030093Y033100D01*
X030093Y033229D02*
X030093Y033229D01*
X030093Y033229D01*
X030093Y032911D02*
X030093Y032911D01*
X030093Y032911D01*
X030348Y032592D02*
X030753Y032592D01*
X030348Y032592D01*
X031433Y032592D02*
X033343Y032592D01*
X033343Y032274D02*
X029084Y032274D01*
X031433Y032592D02*
X033792Y032592D01*
X034093Y032592D02*
X034093Y032592D01*
X034393Y032592D02*
X034792Y032592D01*
X035093Y032592D02*
X035093Y032592D01*
X035393Y032592D02*
X035708Y032592D01*
X035093Y032274D02*
X035093Y032274D01*
X034093Y032274D02*
X034093Y032274D01*
X034093Y032101D02*
X034093Y032101D01*
X030093Y034822D02*
X030093Y034822D01*
X030093Y034822D01*
X031353Y037689D02*
X045185Y037689D01*
X042843Y036101D02*
X042843Y025726D01*
X043468Y025101D01*
X045093Y025101D01*
X044498Y025584D02*
X043663Y025584D01*
X043345Y025903D02*
X044718Y025903D01*
X045468Y025903D02*
X045718Y025903D01*
X043354Y024629D02*
X041843Y024629D01*
X041843Y024947D02*
X042943Y024947D01*
X042624Y025266D02*
X041843Y025266D01*
X041843Y025584D02*
X042382Y025584D01*
X042363Y025903D02*
X041843Y025903D01*
X041843Y026221D02*
X042363Y026221D01*
X042363Y026540D02*
X041843Y026540D01*
X041843Y026858D02*
X042363Y026858D01*
X042363Y027177D02*
X041843Y027177D01*
X041843Y027496D02*
X042363Y027496D01*
X042363Y027814D02*
X041843Y027814D01*
X041843Y023673D02*
X044845Y023673D01*
X044853Y023681D02*
X045333Y023681D01*
X045673Y023341D01*
X045673Y022861D01*
X045333Y022521D01*
X044853Y022521D01*
X044513Y022861D01*
X044513Y023341D01*
X044853Y023681D01*
X044526Y023354D02*
X041843Y023354D01*
X041843Y023036D02*
X044513Y023036D01*
X044656Y022717D02*
X041843Y022717D01*
X041843Y022399D02*
X048593Y022399D01*
X048593Y022717D02*
X047445Y022717D01*
X047308Y022581D02*
X047613Y022885D01*
X047613Y023101D01*
X047093Y023101D01*
X047093Y023621D01*
X047308Y023621D01*
X047613Y023316D01*
X047613Y023101D01*
X047093Y023101D01*
X047093Y023101D01*
X047093Y023621D01*
X046878Y023621D01*
X046573Y023316D01*
X046573Y023101D01*
X047093Y023101D01*
X047093Y023101D01*
X047093Y023101D01*
X046573Y023101D01*
X046573Y022885D01*
X046878Y022581D01*
X047093Y022581D01*
X047093Y023100D01*
X047093Y023100D01*
X047093Y022581D01*
X047308Y022581D01*
X047093Y022717D02*
X047093Y022717D01*
X047093Y023036D02*
X047093Y023036D01*
X047093Y023354D02*
X047093Y023354D01*
X047575Y023354D02*
X048593Y023354D01*
X048593Y023036D02*
X047613Y023036D01*
X048593Y023673D02*
X045341Y023673D01*
X045659Y023354D02*
X046611Y023354D01*
X046573Y023036D02*
X045673Y023036D01*
X045530Y022717D02*
X046741Y022717D01*
X048593Y022080D02*
X041843Y022080D01*
X041843Y021762D02*
X048593Y021762D01*
X048593Y021443D02*
X041843Y021443D01*
X041843Y021125D02*
X048593Y021125D01*
X048593Y020806D02*
X047462Y020806D01*
X047408Y020861D02*
X047853Y020416D01*
X047853Y020101D01*
X047093Y020101D01*
X047093Y020861D01*
X047408Y020861D01*
X047093Y020861D02*
X046778Y020861D01*
X046333Y020416D01*
X046333Y020101D01*
X047093Y020101D01*
X047093Y020101D01*
X047093Y020861D01*
X047093Y020806D02*
X047093Y020806D01*
X047093Y020488D02*
X047093Y020488D01*
X047093Y020169D02*
X047093Y020169D01*
X047093Y020101D02*
X047093Y020101D01*
X047093Y020101D01*
X047853Y020101D01*
X047853Y019786D01*
X047408Y019341D01*
X047093Y019341D01*
X047093Y020100D01*
X047093Y020100D01*
X047093Y019341D01*
X046778Y019341D01*
X046333Y019786D01*
X046333Y020101D01*
X047093Y020101D01*
X047093Y019850D02*
X047093Y019850D01*
X047093Y019532D02*
X047093Y019532D01*
X047599Y019532D02*
X048593Y019532D01*
X048593Y019850D02*
X047853Y019850D01*
X047853Y020169D02*
X048593Y020169D01*
X048593Y020488D02*
X047781Y020488D01*
X046724Y020806D02*
X045533Y020806D01*
X045557Y020796D02*
X045256Y020921D01*
X044930Y020921D01*
X044628Y020796D01*
X044398Y020565D01*
X044273Y020264D01*
X044273Y019938D01*
X044398Y019636D01*
X044628Y019406D01*
X044930Y019281D01*
X045256Y019281D01*
X045557Y019406D01*
X045788Y019636D01*
X045913Y019938D01*
X045913Y020264D01*
X045788Y020565D01*
X045557Y020796D01*
X045820Y020488D02*
X046405Y020488D01*
X046333Y020169D02*
X045913Y020169D01*
X045877Y019850D02*
X046333Y019850D01*
X046587Y019532D02*
X045684Y019532D01*
X045333Y018681D02*
X045673Y018341D01*
X045673Y017861D01*
X045333Y017521D01*
X044853Y017521D01*
X044513Y017861D01*
X044513Y018341D01*
X044853Y018681D01*
X045333Y018681D01*
X045438Y018576D02*
X048593Y018576D01*
X048593Y018258D02*
X045673Y018258D01*
X045673Y017939D02*
X048593Y017939D01*
X048593Y017621D02*
X045433Y017621D01*
X044753Y017621D02*
X041843Y017621D01*
X041843Y017939D02*
X044513Y017939D01*
X044513Y018258D02*
X041843Y018258D01*
X041843Y018576D02*
X044748Y018576D01*
X044502Y019532D02*
X041843Y019532D01*
X041843Y019850D02*
X044309Y019850D01*
X044273Y020169D02*
X041843Y020169D01*
X041843Y020488D02*
X044366Y020488D01*
X044653Y020806D02*
X041843Y020806D01*
X041843Y019213D02*
X048593Y019213D01*
X048593Y018895D02*
X041843Y018895D01*
X041843Y017302D02*
X048593Y017302D01*
X048593Y016984D02*
X041843Y016984D01*
X041843Y016665D02*
X048593Y016665D01*
X048593Y016346D02*
X041843Y016346D01*
X041843Y016028D02*
X048593Y016028D01*
X048593Y015709D02*
X047970Y015709D01*
X048113Y015566D02*
X048113Y015351D01*
X047593Y015351D01*
X047593Y015871D01*
X047808Y015871D01*
X048113Y015566D01*
X048113Y015391D02*
X048593Y015391D01*
X048593Y015072D02*
X048050Y015072D01*
X048113Y015135D02*
X047808Y014831D01*
X047593Y014831D01*
X047593Y015350D01*
X047593Y015350D01*
X047593Y014831D01*
X047378Y014831D01*
X047135Y015073D01*
X046833Y014771D01*
X046353Y014771D01*
X046013Y015111D01*
X046013Y015591D01*
X046353Y015931D01*
X046833Y015931D01*
X047135Y015629D01*
X047378Y015871D01*
X047593Y015871D01*
X047593Y015351D01*
X047593Y015351D01*
X047593Y015351D01*
X048113Y015351D01*
X048113Y015135D01*
X047593Y015072D02*
X047593Y015072D01*
X047593Y015391D02*
X047593Y015391D01*
X047593Y015709D02*
X047593Y015709D01*
X047216Y015709D02*
X047054Y015709D01*
X047136Y015072D02*
X047135Y015072D01*
X046051Y015072D02*
X041843Y015072D01*
X041843Y014754D02*
X048593Y014754D01*
X048593Y014435D02*
X045579Y014435D01*
X045673Y014341D02*
X045673Y013861D01*
X045333Y013521D01*
X044853Y013521D01*
X044513Y013861D01*
X044513Y014341D01*
X044853Y014681D01*
X045333Y014681D01*
X045673Y014341D01*
X045673Y014117D02*
X048593Y014117D01*
X048593Y013798D02*
X045611Y013798D01*
X044575Y013798D02*
X041843Y013798D01*
X041843Y013480D02*
X048593Y013480D01*
X048593Y013161D02*
X041843Y013161D01*
X041843Y012843D02*
X048593Y012843D01*
X048593Y012524D02*
X045490Y012524D01*
X045673Y012205D02*
X048513Y012205D01*
X048513Y011887D02*
X045673Y011887D01*
X045573Y011568D02*
X048593Y011568D01*
X048695Y010998D02*
X050589Y010998D01*
X050511Y009020D02*
X050723Y009020D01*
X050723Y008701D02*
X049593Y008701D01*
X049631Y008383D02*
X050723Y008383D01*
X050723Y008064D02*
X049673Y008064D01*
X049593Y007746D02*
X050290Y007746D01*
X049994Y007427D02*
X049593Y007427D01*
X049593Y007109D02*
X049994Y007109D01*
X050160Y006790D02*
X049593Y006790D01*
X049593Y006472D02*
X050016Y006472D01*
X049994Y006153D02*
X049673Y006153D01*
X049647Y005835D02*
X050116Y005835D01*
X051062Y005835D02*
X051116Y005835D01*
X048593Y004560D02*
X045454Y004560D01*
X045673Y004242D02*
X048513Y004242D01*
X048513Y003923D02*
X045673Y003923D01*
X045573Y003605D02*
X048593Y003605D01*
X048593Y003286D02*
X045573Y003286D01*
X045573Y002968D02*
X048593Y002968D01*
X048593Y002649D02*
X045573Y002649D01*
X045673Y002331D02*
X048513Y002331D01*
X048513Y002012D02*
X045673Y002012D01*
X044680Y001694D02*
X041843Y001694D01*
X041843Y005835D02*
X044539Y005835D01*
X044513Y006153D02*
X041843Y006153D01*
X041843Y006472D02*
X044199Y006472D01*
X043880Y006790D02*
X041843Y006790D01*
X041843Y007109D02*
X043562Y007109D01*
X043243Y007427D02*
X041843Y007427D01*
X041843Y007746D02*
X042925Y007746D01*
X042606Y008064D02*
X041843Y008064D01*
X041843Y008383D02*
X042120Y008383D01*
X042073Y008701D02*
X041843Y008701D01*
X041843Y009020D02*
X042277Y009020D01*
X041843Y009339D02*
X043139Y009339D01*
X043073Y009657D02*
X041843Y009657D01*
X041843Y009976D02*
X043232Y009976D01*
X043953Y009976D02*
X044513Y009976D01*
X044513Y010294D02*
X041843Y010294D01*
X041843Y010613D02*
X044613Y010613D01*
X044613Y010931D02*
X041843Y010931D01*
X041843Y011250D02*
X044613Y011250D01*
X044613Y011568D02*
X041843Y011568D01*
X041843Y011887D02*
X044513Y011887D01*
X044513Y012205D02*
X041843Y012205D01*
X041843Y012524D02*
X044696Y012524D01*
X045093Y012101D02*
X045093Y010101D01*
X044716Y009657D02*
X044113Y009657D01*
X043651Y009020D02*
X042909Y009020D01*
X043113Y008701D02*
X043969Y008701D01*
X044288Y008383D02*
X043334Y008383D01*
X043653Y008064D02*
X044513Y008064D01*
X044628Y007746D02*
X043971Y007746D01*
X049593Y003605D02*
X055777Y003605D01*
X055513Y003286D02*
X049593Y003286D01*
X049593Y002968D02*
X055513Y002968D01*
X055724Y002649D02*
X049593Y002649D01*
X059247Y007109D02*
X061863Y007109D01*
X061863Y006790D02*
X059580Y006790D01*
X059029Y009976D02*
X061863Y009976D01*
X061863Y010294D02*
X059483Y010294D01*
X059696Y010613D02*
X061863Y010613D01*
X061863Y010931D02*
X059790Y010931D01*
X059842Y011032D02*
X059842Y011774D01*
X059843Y011774D02*
X060585Y011774D01*
X060585Y011468D01*
X060149Y011032D01*
X059842Y011032D01*
X059842Y011250D02*
X059840Y011250D01*
X059842Y011568D02*
X059840Y011568D01*
X059842Y011887D02*
X059840Y011887D01*
X059842Y012205D02*
X059840Y012205D01*
X059218Y012205D02*
X059079Y012205D01*
X060464Y012205D02*
X061863Y012205D01*
X061863Y011887D02*
X060585Y011887D01*
X060585Y011568D02*
X061863Y011568D01*
X061863Y011250D02*
X060367Y011250D01*
X055513Y014117D02*
X049593Y014117D01*
X049593Y014435D02*
X055607Y014435D01*
X062135Y020488D02*
X062343Y020488D01*
X062343Y020806D02*
X051573Y020806D01*
X051573Y021125D02*
X062343Y021125D01*
X062343Y021443D02*
X051573Y021443D01*
X051573Y021762D02*
X062343Y021762D01*
X062343Y022080D02*
X051573Y022080D01*
X051573Y023673D02*
X062343Y023673D01*
X062343Y023354D02*
X060664Y023354D01*
X060853Y023036D02*
X062343Y023036D01*
X062343Y022717D02*
X060853Y022717D01*
X060716Y022399D02*
X062343Y022399D01*
X060093Y022399D02*
X060093Y022399D01*
X060093Y022717D02*
X060093Y022717D01*
X060093Y023036D02*
X060093Y023036D01*
X060093Y023354D02*
X060093Y023354D01*
X046131Y015709D02*
X041843Y015709D01*
X041843Y015391D02*
X046013Y015391D01*
X044607Y014435D02*
X041843Y014435D01*
X041843Y014117D02*
X044513Y014117D01*
X061124Y002857D02*
X061599Y002857D01*
X023223Y007109D02*
X022493Y007109D01*
X022493Y007427D02*
X023223Y007427D01*
X022963Y007746D02*
X022493Y007746D01*
X022493Y008064D02*
X022823Y008064D01*
X022897Y008383D02*
X022493Y008383D01*
X022929Y008701D02*
X023198Y008701D01*
X020573Y004560D02*
X020463Y004560D01*
X020448Y004242D02*
X020716Y004242D01*
X013093Y000851D02*
X007093Y000851D01*
X010814Y004879D02*
X010973Y004879D01*
X008737Y006472D02*
X008713Y006472D01*
X009493Y017101D02*
X009593Y017101D01*
X012402Y020806D02*
X012323Y020997D01*
X012323Y021204D01*
X014890Y021125D02*
X018844Y021125D01*
X019162Y021443D02*
X015209Y021443D01*
X015739Y021762D02*
X019481Y021762D01*
X019799Y022080D02*
X015863Y022080D01*
X015780Y022399D02*
X020118Y022399D01*
X020018Y025903D02*
X019668Y025903D01*
X013093Y026540D02*
X013093Y026540D01*
X001083Y035778D02*
X000661Y035778D01*
X000661Y036096D02*
X000856Y036096D01*
X000742Y036415D02*
X000661Y036415D01*
X000661Y036733D02*
X000709Y036733D01*
X000752Y037052D02*
X000661Y037052D01*
X000661Y037370D02*
X000877Y037370D01*
X000661Y037689D02*
X001120Y037689D01*
X000661Y038007D02*
X001638Y038007D01*
X000661Y038326D02*
X033343Y038326D01*
X033343Y038645D02*
X000661Y038645D01*
X038093Y032274D02*
X038093Y032274D01*
X038093Y032101D02*
X038093Y032101D01*
X038653Y032101D01*
X039093Y032101D01*
X039093Y032101D01*
X038653Y032101D01*
X038093Y032101D01*
X039093Y032274D02*
X039093Y032274D01*
X059388Y033866D02*
X059798Y033866D01*
D24*
X050593Y011101D02*
X050589Y011097D01*
X050589Y010998D01*
X052589Y008201D02*
X052589Y007605D01*
X052593Y007601D01*
X052589Y007597D01*
X052589Y007402D01*
X052589Y006605D01*
X052591Y006603D01*
X052589Y006603D01*
X052591Y006603D02*
X052593Y006601D01*
X051589Y006203D02*
X051589Y006105D01*
X051593Y006101D01*
X051589Y006105D02*
X051589Y007002D01*
X051589Y007097D01*
X051593Y007101D01*
X051589Y007105D01*
X051589Y007802D01*
X022993Y011501D02*
X022093Y010601D01*
X022093Y003351D01*
X022093Y010501D02*
X022093Y010601D01*
X010593Y018101D02*
X009593Y017101D01*
X010493Y018101D02*
X010593Y018101D01*
X004093Y019101D02*
X002093Y019101D01*
X006093Y024101D02*
X006093Y024601D01*
X003843Y026851D01*
X002093Y026851D01*
X002093Y028101D01*
X002093Y026851D02*
X002093Y025101D01*
X000843Y025101D01*
X015093Y027601D02*
X015993Y026701D01*
X016093Y026701D01*
X015093Y027601D02*
X015093Y027701D01*
D25*
X016093Y027701D02*
X016093Y027601D01*
X016593Y027101D01*
X016593Y026351D01*
X016843Y026101D01*
X019343Y026101D01*
X019593Y026351D01*
X019593Y026976D01*
X019843Y027226D01*
X020468Y027226D01*
X020593Y027351D01*
X020593Y029101D01*
X021093Y029601D01*
X021093Y029851D01*
X020468Y029851D02*
X020468Y029476D01*
X019593Y028601D01*
X019593Y027351D01*
X019093Y026851D01*
X019093Y026701D01*
X020093Y026701D02*
X020093Y026351D01*
X020343Y026101D01*
X024343Y026101D01*
X025843Y027601D01*
X025843Y029851D01*
X024968Y028726D02*
X023968Y029726D01*
X023593Y029351D02*
X023093Y029851D01*
X022843Y029351D02*
X022593Y029351D01*
X022843Y029351D02*
X023093Y029101D01*
X023093Y027701D01*
X022593Y027351D02*
X022593Y028601D01*
X023593Y028351D02*
X023593Y029351D01*
X023593Y028351D02*
X024093Y027851D01*
X024093Y027701D01*
X022593Y027351D02*
X022093Y026851D01*
X022093Y026701D01*
X021593Y027351D02*
X021093Y026851D01*
X021093Y026701D01*
X021593Y027351D02*
X021593Y028101D01*
X022093Y027701D02*
X022093Y029851D01*
X021093Y028851D02*
X021093Y027701D01*
X019093Y027701D02*
X019093Y029351D01*
X018468Y029976D01*
X019093Y029976D02*
X019593Y029476D01*
X019593Y029351D01*
X018593Y029226D02*
X018593Y027351D01*
X018093Y026851D01*
X018093Y026701D01*
X018093Y027701D02*
X018093Y029101D01*
X017843Y029351D01*
X017843Y029976D01*
X016468Y031226D02*
X016468Y034101D01*
X017593Y034351D02*
X018093Y034851D01*
X018093Y035101D01*
X018593Y035601D02*
X018593Y035851D01*
X018843Y036101D01*
X019093Y036101D01*
X019093Y035101D02*
X019093Y034851D01*
X019593Y034351D01*
X019593Y032476D01*
X018468Y031351D01*
X019093Y031351D02*
X020343Y032601D01*
X020343Y034101D01*
X020843Y033601D02*
X020843Y035101D01*
X021343Y035351D02*
X022593Y036601D01*
X026218Y036601D01*
X026593Y036226D01*
X026593Y034101D01*
X028593Y032101D01*
X027968Y032101D02*
X027968Y031976D01*
X027343Y031351D01*
X027093Y031851D02*
X027093Y033101D01*
X025593Y032601D02*
X025593Y034351D01*
X025093Y034851D01*
X025093Y035101D01*
X025343Y035601D02*
X024343Y035601D01*
X024093Y035851D01*
X024093Y036101D01*
X023593Y035976D02*
X023593Y034851D01*
X023843Y034601D01*
X024593Y034601D01*
X025093Y034101D02*
X025093Y033851D01*
X024593Y033351D01*
X024593Y032226D01*
X023968Y031601D01*
X024593Y031601D02*
X025593Y032601D01*
X026218Y031976D02*
X026218Y035226D01*
X025343Y036101D01*
X025093Y036101D01*
X025343Y035601D02*
X025843Y035101D01*
X025843Y031601D01*
X026218Y031976D02*
X026343Y031851D01*
X026593Y031351D02*
X027093Y031851D01*
X023718Y032101D02*
X023343Y032476D01*
X023343Y034601D01*
X022843Y034851D02*
X023218Y035226D01*
X022843Y034851D02*
X022843Y031601D01*
X023093Y031351D01*
X022593Y031851D02*
X022593Y035601D01*
X022468Y036101D02*
X021593Y035226D01*
X021593Y031726D01*
X022093Y031351D02*
X022593Y031851D01*
X022093Y032601D02*
X022093Y033601D01*
X021343Y033101D02*
X020843Y032601D01*
X021343Y033101D02*
X021343Y035351D01*
X022468Y036101D02*
X023468Y036101D01*
X023593Y035976D01*
X019093Y034101D02*
X019093Y033851D01*
X018593Y033351D01*
X018593Y032101D01*
X017843Y031351D01*
X017718Y031976D02*
X017593Y032101D01*
X017593Y034351D01*
X016093Y035101D02*
X016093Y031851D01*
X015718Y031351D02*
X015718Y033101D01*
X014593Y033101D02*
X014593Y033851D01*
X014343Y034101D01*
X014093Y034101D01*
X013093Y034101D02*
X013093Y033851D01*
X012593Y033351D01*
X012593Y032351D01*
X011343Y031101D01*
X010343Y032101D02*
X011843Y033601D01*
X012343Y033601D01*
X012593Y033851D01*
X012593Y034351D01*
X013093Y034851D01*
X013093Y035101D01*
X013593Y035351D02*
X013093Y035851D01*
X013093Y036101D01*
X013593Y035351D02*
X013593Y032601D01*
X014093Y032101D01*
X015718Y031351D02*
X014593Y030226D01*
X015468Y030226D02*
X016468Y031226D01*
X013593Y029601D02*
X013593Y027351D01*
X014093Y026851D01*
X014093Y026701D01*
X013343Y024101D02*
X011343Y026101D01*
X011343Y028851D01*
X007468Y025601D02*
X007468Y032226D01*
X007843Y032601D01*
X007843Y035101D01*
X007093Y035851D01*
X007093Y036101D01*
X007093Y035101D02*
X007093Y034851D01*
X007593Y034351D01*
X007593Y032851D01*
X007093Y032351D01*
X007093Y021851D01*
X006843Y021601D01*
X006343Y021601D02*
X006093Y021851D01*
X006093Y023101D01*
X006843Y022351D02*
X006843Y032601D01*
X006593Y032851D01*
X006593Y033351D01*
X007093Y033851D01*
X007093Y034101D01*
X006093Y034851D02*
X006093Y035101D01*
X006093Y034851D02*
X005593Y034351D01*
X005593Y032851D01*
X006093Y032351D01*
X006093Y026101D01*
X005843Y025851D01*
X005843Y025601D01*
X006343Y025101D02*
X006343Y032601D01*
X006093Y032851D01*
X006093Y033101D01*
X010843Y033601D02*
X012093Y034851D01*
X012093Y035101D01*
X003593Y026101D02*
X003593Y025851D01*
X003343Y025601D01*
X003343Y024726D01*
X004468Y023601D01*
X004468Y020601D01*
X005718Y020976D02*
X005718Y021601D01*
X006343Y021601D02*
X006343Y021351D01*
X007093Y020601D01*
X007093Y018101D01*
X006843Y017851D01*
X006093Y018101D02*
X005218Y018101D01*
X004843Y018476D01*
X004843Y023851D01*
X004093Y024601D01*
X004093Y025101D01*
X004843Y025101D02*
X005093Y024851D01*
X005093Y019101D01*
X005593Y018601D01*
X006093Y018101D02*
X006093Y019101D01*
X006093Y020101D01*
X006718Y020101D02*
X006718Y020476D01*
X006468Y020726D01*
X005968Y020726D01*
X005718Y020976D01*
X006593Y022101D02*
X006843Y022351D01*
X008343Y021601D02*
X008343Y023976D01*
X008343Y024476D02*
X008718Y024476D01*
X008843Y024351D01*
X008843Y022851D01*
X009093Y022601D01*
X011343Y022601D01*
X012843Y022601D02*
X012843Y021101D01*
X012218Y020226D02*
X012218Y017476D01*
X011843Y017101D01*
X010493Y017101D01*
X010468Y017101D01*
X011343Y016351D02*
X011093Y016101D01*
X011093Y015851D01*
X010843Y015601D01*
X008093Y015601D01*
X007843Y015351D01*
X007843Y014601D01*
X007593Y014351D01*
X007593Y005101D01*
X008093Y004601D02*
X007593Y004101D01*
X007343Y004101D01*
X007093Y004351D01*
X007093Y004601D01*
X006593Y004351D02*
X006093Y003851D01*
X006093Y003601D01*
X006593Y004351D02*
X006593Y007351D01*
X007093Y006601D02*
X007093Y008851D01*
X007093Y009476D02*
X006093Y008476D01*
X006093Y006601D01*
X005593Y005351D02*
X006093Y004851D01*
X006093Y004601D01*
X005593Y005351D02*
X005593Y009976D01*
X006593Y009726D02*
X006593Y015851D01*
X006843Y016101D01*
X007343Y015851D02*
X007343Y015101D01*
X007343Y015851D02*
X007593Y016101D01*
X009493Y016101D01*
X010493Y015101D02*
X010843Y015101D01*
X011093Y014851D01*
X011093Y011351D01*
X010843Y011101D01*
X010843Y005601D01*
X010593Y005851D02*
X010343Y005601D01*
X010343Y005101D01*
X011343Y004601D02*
X012093Y003851D01*
X012093Y003601D01*
X013093Y003601D02*
X013093Y003851D01*
X013843Y004601D01*
X013843Y007101D01*
X013593Y007351D01*
X013593Y009851D01*
X014093Y010501D02*
X014093Y008851D01*
X012843Y008351D02*
X012843Y006601D01*
X013093Y006601D01*
X013593Y006351D02*
X013593Y006851D01*
X013093Y007351D01*
X013093Y010501D01*
X011843Y010851D02*
X011843Y011101D01*
X011593Y011351D01*
X011593Y015726D01*
X011468Y015851D01*
X011343Y016351D02*
X012718Y016351D01*
X012093Y015851D02*
X012093Y012351D01*
X012593Y012476D02*
X012593Y008601D01*
X012843Y008351D01*
X012593Y007851D02*
X012093Y008351D01*
X012593Y007851D02*
X012593Y005351D01*
X013093Y004851D01*
X013093Y004601D01*
X013093Y005601D02*
X013093Y005851D01*
X013593Y006351D01*
X014593Y006601D02*
X014593Y010851D01*
X014093Y011351D01*
X014093Y011501D01*
X015593Y012101D02*
X015593Y015476D01*
X016468Y016351D01*
X020093Y016351D01*
X022843Y017601D02*
X022843Y014851D01*
X023843Y014351D02*
X024093Y014101D01*
X025693Y014101D01*
X026218Y014726D02*
X026218Y012226D01*
X026468Y011476D02*
X027218Y011476D01*
X027343Y011601D01*
X027343Y013851D01*
X027093Y014101D01*
X026693Y014101D01*
X026218Y014726D02*
X025843Y015101D01*
X025693Y015101D01*
X024843Y015351D02*
X024843Y021226D01*
X024343Y021726D01*
X024343Y024101D01*
X025093Y024351D02*
X025343Y024601D01*
X026093Y024601D01*
X026593Y025101D01*
X026693Y025101D01*
X027468Y023976D02*
X027093Y023601D01*
X026218Y023601D01*
X025718Y024101D01*
X025693Y024101D01*
X025093Y024351D02*
X025093Y021726D01*
X025218Y021601D01*
X024343Y021101D02*
X023343Y020101D01*
X023343Y013851D01*
X023843Y014351D02*
X023843Y019351D01*
X025693Y017101D02*
X025718Y017101D01*
X026218Y016601D01*
X027593Y016601D01*
X028093Y016101D01*
X028093Y011476D01*
X028343Y011226D01*
X028343Y010976D01*
X027843Y011101D02*
X027843Y015851D01*
X027593Y016101D01*
X026693Y016101D01*
X026693Y015101D02*
X027343Y015101D01*
X027593Y014851D01*
X027593Y011476D01*
X027093Y010976D01*
X027718Y010976D02*
X027843Y011101D01*
X028593Y012226D02*
X028593Y015601D01*
X024843Y015351D02*
X024343Y014851D01*
X024468Y012351D02*
X023843Y012351D01*
X024468Y012351D02*
X024718Y012101D01*
X024718Y010601D01*
X025343Y010101D02*
X025218Y009976D01*
X023343Y009976D01*
X023093Y010226D01*
X023093Y010501D01*
X022968Y009601D02*
X031593Y009601D01*
X031843Y009101D02*
X022593Y009101D01*
X023718Y008601D02*
X024593Y007726D01*
X024593Y006351D01*
X024093Y005851D01*
X024093Y005601D01*
X023593Y005351D02*
X024093Y004851D01*
X024093Y004601D01*
X024593Y004101D02*
X024093Y003601D01*
X024593Y004101D02*
X025343Y004101D01*
X025593Y004351D01*
X025593Y007851D01*
X026218Y008476D01*
X026093Y007351D02*
X029843Y003601D01*
X030093Y003601D01*
X030593Y004351D02*
X031093Y003851D01*
X031093Y003601D01*
X031468Y004101D02*
X032718Y004101D01*
X033093Y004476D01*
X033093Y020101D01*
X031843Y017851D02*
X031843Y029101D01*
X028343Y028351D02*
X028343Y027851D01*
X027843Y027351D01*
X027843Y022851D01*
X027593Y022601D01*
X026218Y022601D01*
X025718Y023101D01*
X025693Y023101D01*
X027468Y023976D02*
X027468Y027476D01*
X027843Y027851D01*
X028343Y027101D02*
X028343Y024101D01*
X028843Y026601D02*
X028843Y019101D01*
X020843Y022601D02*
X017343Y019101D01*
X015343Y022101D02*
X013843Y020601D01*
X012218Y020226D02*
X011843Y020601D01*
X009843Y020601D01*
X009493Y020251D01*
X009493Y020101D01*
X010493Y020101D02*
X011343Y020101D01*
X011593Y019851D01*
X011593Y017851D01*
X011218Y019101D02*
X011218Y019351D01*
X010968Y019601D01*
X008593Y019601D01*
X008343Y019851D01*
X008343Y020101D01*
X008843Y020601D02*
X008843Y021476D01*
X008968Y021601D01*
X009718Y021601D01*
X010218Y021101D01*
X010493Y021101D01*
X013343Y022101D02*
X013343Y017851D01*
X013593Y015851D02*
X012593Y014851D01*
X013593Y013476D02*
X012593Y012476D01*
X010493Y013101D02*
X010343Y013101D01*
X010093Y012851D01*
X010093Y007851D01*
X009093Y006851D02*
X009093Y010601D01*
X008593Y011101D01*
X008593Y013601D01*
X008093Y014351D02*
X008343Y014601D01*
X009843Y014601D01*
X010343Y014101D01*
X010493Y014101D01*
X008093Y014351D02*
X008093Y004601D01*
X008343Y004351D02*
X007593Y003601D01*
X007093Y003601D01*
X008343Y004351D02*
X008343Y009851D01*
X008593Y010101D01*
X010593Y011351D02*
X010593Y005851D01*
X011343Y004601D02*
X011343Y010976D01*
X011593Y010601D02*
X011593Y007351D01*
X012093Y006851D01*
X012093Y006601D01*
X015093Y007601D02*
X015093Y010501D01*
X015593Y010726D02*
X015593Y007351D01*
X017843Y005101D01*
X018593Y005101D01*
X019093Y005601D01*
X018093Y005601D02*
X018093Y005851D01*
X017093Y006851D01*
X017093Y009351D01*
X016093Y010351D01*
X016093Y010501D01*
X015843Y010976D02*
X016843Y010976D01*
X017093Y011226D01*
X017093Y011501D01*
X017593Y011851D02*
X017593Y010976D01*
X017468Y010976D01*
X017093Y010601D01*
X017093Y010501D01*
X017593Y010976D02*
X018593Y010976D01*
X019093Y010476D01*
X019093Y010501D01*
X020093Y010501D02*
X020093Y004351D01*
X019343Y003601D01*
X019093Y003601D01*
X019343Y004101D02*
X019593Y004351D01*
X019593Y009101D01*
X019093Y009351D02*
X019093Y007351D01*
X019093Y009351D02*
X018093Y010351D01*
X018093Y010501D01*
X017593Y011851D02*
X018093Y012351D01*
X021593Y012351D01*
X022093Y011851D01*
X022093Y011501D01*
X021093Y011501D02*
X021093Y011351D01*
X020593Y010851D01*
X020593Y005101D01*
X021093Y004601D02*
X021093Y010501D01*
X023343Y008101D02*
X023593Y007851D01*
X023593Y005351D01*
X019343Y004101D02*
X018843Y004101D01*
X018343Y003601D01*
X018093Y003601D01*
X011593Y010601D02*
X011843Y010851D01*
X015593Y010726D02*
X015843Y010976D01*
X006093Y014101D02*
X005593Y014101D01*
X005218Y014476D01*
X004093Y014101D02*
X005718Y015726D01*
X005718Y016476D01*
X002718Y020101D02*
X002843Y020226D01*
X002843Y022601D01*
X002718Y020101D02*
X002093Y020101D01*
X029468Y008601D02*
X029468Y005851D01*
X029718Y005601D01*
X030093Y005601D01*
X030343Y005101D02*
X030593Y004851D01*
X030593Y004351D01*
X031093Y004601D02*
X031343Y004601D01*
X031593Y004851D01*
X031593Y008101D01*
X031093Y008601D01*
X030718Y008226D02*
X031093Y007851D01*
X031093Y006601D01*
X030093Y006601D02*
X030093Y008601D01*
X030343Y005101D02*
X029343Y005101D01*
X042593Y008601D02*
X045093Y006101D01*
X045093Y008101D02*
X043593Y009601D01*
X049093Y009101D02*
X049093Y008101D01*
X049093Y009101D02*
X049343Y009351D01*
X050343Y009351D01*
X050589Y009597D01*
X050589Y009998D01*
X051093Y010601D02*
X050593Y011101D01*
X051093Y010601D02*
X051093Y006601D01*
X050695Y006203D01*
X050589Y006203D01*
D26*
X032593Y004851D03*
X031093Y030851D03*
X029343Y030851D03*
D27*
X027343Y031351D03*
X026593Y031351D03*
X026343Y031851D03*
X025843Y031601D03*
X024593Y031601D03*
X023968Y031601D03*
X023093Y031351D03*
X023718Y032101D03*
X022093Y032601D03*
X022093Y033601D03*
X020843Y033601D03*
X020343Y034101D03*
X020843Y035101D03*
X022593Y035601D03*
X023218Y035226D03*
X023343Y034601D03*
X024593Y034601D03*
X027093Y033101D03*
X027968Y032101D03*
X028593Y032101D03*
X025843Y029851D03*
X024968Y028726D03*
X023968Y029726D03*
X023093Y029851D03*
X022593Y029351D03*
X022093Y029851D03*
X021093Y029851D03*
X020468Y029851D03*
X019593Y029351D03*
X019093Y029976D03*
X018468Y029976D03*
X017843Y029976D03*
X018593Y029226D03*
X021093Y028851D03*
X021593Y028101D03*
X022593Y028601D03*
X022093Y031351D03*
X021593Y031726D03*
X020843Y032601D03*
X019093Y031351D03*
X018468Y031351D03*
X017843Y031351D03*
X017718Y031976D03*
X016093Y031851D03*
X015718Y033101D03*
X014593Y033101D03*
X014093Y032101D03*
X014593Y030226D03*
X015468Y030226D03*
X011343Y031101D03*
X010343Y032101D03*
X010843Y033601D03*
X014093Y034101D03*
X016093Y035101D03*
X016468Y034101D03*
X018593Y035601D03*
X011343Y028851D03*
X007468Y025601D03*
X006343Y025101D03*
X005843Y025601D03*
X004843Y025101D03*
X003593Y026101D03*
X006093Y023101D03*
X006593Y022101D03*
X006843Y021601D03*
X005718Y021601D03*
X004468Y020601D03*
X006718Y020101D03*
X008343Y020101D03*
X008843Y020601D03*
X008343Y021601D03*
X011343Y022601D03*
X012843Y022601D03*
X013343Y022101D03*
X012843Y021101D03*
X013843Y020601D03*
X015343Y022101D03*
X013343Y024101D03*
X008343Y023976D03*
X008343Y024476D03*
X002843Y022601D03*
X005593Y018601D03*
X006843Y017851D03*
X005718Y016476D03*
X006843Y016101D03*
X007343Y015101D03*
X005218Y014476D03*
X008593Y013601D03*
X010593Y011351D03*
X011343Y010976D03*
X012093Y012351D03*
X013593Y013476D03*
X012593Y014851D03*
X012093Y015851D03*
X011468Y015851D03*
X012718Y016351D03*
X013593Y015851D03*
X013343Y017851D03*
X011593Y017851D03*
X011218Y019101D03*
X017343Y019101D03*
X020093Y016351D03*
X022843Y017601D03*
X023843Y019351D03*
X024343Y021101D03*
X025218Y021601D03*
X024343Y024101D03*
X020843Y022601D03*
X028343Y024101D03*
X028843Y026601D03*
X028343Y027101D03*
X027843Y027851D03*
X028343Y028351D03*
X031843Y029101D03*
X033093Y020101D03*
X031843Y017851D03*
X028843Y019101D03*
X028593Y015601D03*
X024343Y014851D03*
X022843Y014851D03*
X023343Y013851D03*
X022843Y013101D03*
X023843Y012351D03*
X026218Y012226D03*
X026468Y011476D03*
X027093Y010976D03*
X027718Y010976D03*
X028343Y010976D03*
X028593Y012226D03*
X025343Y010101D03*
X024718Y010601D03*
X022968Y009601D03*
X022593Y009101D03*
X023718Y008601D03*
X023343Y008101D03*
X026093Y007351D03*
X026218Y008476D03*
X029468Y008601D03*
X030093Y008601D03*
X030718Y008226D03*
X031093Y008601D03*
X031843Y009101D03*
X031593Y009601D03*
X029343Y005101D03*
X031468Y004101D03*
X022093Y003351D03*
X021093Y004601D03*
X020593Y005101D03*
X019093Y007351D03*
X019593Y009101D03*
X015093Y007601D03*
X014593Y006601D03*
X012093Y008351D03*
X014093Y008851D03*
X013593Y009851D03*
X015593Y012101D03*
X010093Y007851D03*
X009093Y006851D03*
X010843Y005601D03*
X010343Y005101D03*
X007593Y005101D03*
X006593Y007351D03*
X007093Y008851D03*
X007093Y009476D03*
X006593Y009726D03*
X005593Y009976D03*
X008593Y010101D03*
X042593Y008601D03*
X043593Y009601D03*
D28*
X042843Y036101D03*
D29*
X058762Y036715D03*
X061124Y002857D03*
M02*
