G75*
G70*
%OFA0B0*%
%FSLAX24Y24*%
%IPPOS*%
%LPD*%
%AMOC8*
5,1,8,0,0,1.08239X$1,22.5*
%
%ADD10OC8,0.0520*%
%ADD11C,0.0520*%
%ADD12C,0.1000*%
%ADD13OC8,0.1000*%
%ADD14OC8,0.0560*%
%ADD15C,0.0600*%
%ADD16OC8,0.0600*%
%ADD17OC8,0.0969*%
%ADD18OC8,0.0550*%
%ADD19C,0.0709*%
%ADD20C,0.0660*%
%ADD21R,0.0531X0.0472*%
%ADD22C,0.0825*%
%ADD23C,0.0320*%
%ADD24C,0.0500*%
%ADD25C,0.0400*%
%ADD26C,0.0160*%
%ADD27C,0.0100*%
%ADD28C,0.0436*%
%ADD29C,0.3150*%
D10*
X005161Y003101D03*
X007161Y003101D03*
X014161Y004101D03*
X014161Y006101D03*
X014161Y008101D03*
X014161Y010101D03*
X014161Y012101D03*
X018161Y012101D03*
X018161Y014101D03*
X016661Y015351D03*
X015661Y015351D03*
X018161Y018101D03*
X018161Y023101D03*
X016161Y023101D03*
X007161Y020101D03*
X004161Y020101D03*
X006161Y022851D03*
X006161Y024851D03*
X002161Y016101D03*
X002161Y015101D03*
X005161Y014101D03*
X007161Y014101D03*
X018161Y010101D03*
X018161Y008101D03*
X018161Y006101D03*
X018161Y004101D03*
X018161Y002101D03*
X014161Y002101D03*
X057161Y014101D03*
X059161Y014101D03*
X059161Y018101D03*
X059161Y019101D03*
X057161Y019101D03*
X057161Y020101D03*
X057161Y018101D03*
X057161Y024101D03*
X017661Y038101D03*
X016161Y036601D03*
X015161Y036601D03*
X013661Y038101D03*
X008161Y037976D03*
X008161Y035976D03*
D11*
X010161Y033361D02*
X010161Y032841D01*
X011161Y032841D02*
X011161Y033361D01*
X012161Y033361D02*
X012161Y032841D01*
X012161Y027361D02*
X012161Y026841D01*
X011161Y026841D02*
X011161Y027361D01*
X010161Y027361D02*
X010161Y026841D01*
X004161Y026841D02*
X004161Y027361D01*
X003161Y027361D02*
X003161Y026841D01*
X003161Y032841D02*
X003161Y033361D01*
X004161Y033361D02*
X004161Y032841D01*
D12*
X011161Y037851D03*
X003161Y024851D03*
X018161Y020101D03*
D13*
X016161Y020101D03*
X003161Y022851D03*
X011161Y035851D03*
D14*
X032161Y036101D03*
X032161Y037101D03*
X033161Y037101D03*
X033161Y036101D03*
X033161Y035101D03*
X032161Y035101D03*
X032161Y034101D03*
X033161Y034101D03*
X033161Y033101D03*
X032161Y033101D03*
X038161Y033101D03*
X039161Y033101D03*
X039161Y034101D03*
X038161Y034101D03*
X038161Y035101D03*
X039161Y035101D03*
X039161Y036101D03*
X038161Y036101D03*
X038161Y037101D03*
X039161Y037101D03*
X044161Y037101D03*
X044161Y036101D03*
X045161Y036101D03*
X045161Y037101D03*
X045161Y035101D03*
X044161Y035101D03*
X044161Y034101D03*
X045161Y034101D03*
X045161Y033101D03*
X044161Y033101D03*
X050161Y033101D03*
X051161Y033101D03*
X051161Y034101D03*
X050161Y034101D03*
X050161Y035101D03*
X051161Y035101D03*
X051161Y036101D03*
X050161Y036101D03*
X050161Y037101D03*
X051161Y037101D03*
X056161Y037101D03*
X056161Y036101D03*
X057161Y036101D03*
X057161Y037101D03*
X057161Y035101D03*
X056161Y035101D03*
X056161Y034101D03*
X057161Y034101D03*
X057161Y033101D03*
X056161Y033101D03*
X051161Y027701D03*
X050161Y027701D03*
X049161Y027701D03*
X048161Y027701D03*
X047161Y027701D03*
X046161Y027701D03*
X045161Y027701D03*
X044161Y027701D03*
X043161Y027701D03*
X042161Y027701D03*
X041161Y027701D03*
X040161Y027701D03*
X039161Y027701D03*
X039161Y026701D03*
X040161Y026701D03*
X041161Y026701D03*
X042161Y026701D03*
X043161Y026701D03*
X044161Y026701D03*
X045161Y026701D03*
X046161Y026701D03*
X047161Y026701D03*
X048161Y026701D03*
X049161Y026701D03*
X050161Y026701D03*
X051161Y026701D03*
X052761Y025101D03*
X053761Y025101D03*
X053761Y024101D03*
X052761Y024101D03*
X052761Y023101D03*
X053761Y023101D03*
X053761Y022101D03*
X052761Y022101D03*
X052761Y021101D03*
X053761Y021101D03*
X053761Y020101D03*
X052761Y020101D03*
X052761Y019101D03*
X053761Y019101D03*
X053761Y018101D03*
X052761Y018101D03*
X052761Y017101D03*
X053761Y017101D03*
X053761Y016101D03*
X052761Y016101D03*
X052761Y015101D03*
X053761Y015101D03*
X053761Y014101D03*
X052761Y014101D03*
X052761Y013101D03*
X053761Y013101D03*
X051161Y011501D03*
X050161Y011501D03*
X049161Y011501D03*
X048161Y011501D03*
X047161Y011501D03*
X046161Y011501D03*
X045161Y011501D03*
X044161Y011501D03*
X043161Y011501D03*
X042161Y011501D03*
X041161Y011501D03*
X040161Y011501D03*
X039161Y011501D03*
X039161Y010501D03*
X040161Y010501D03*
X041161Y010501D03*
X042161Y010501D03*
X043161Y010501D03*
X044161Y010501D03*
X045161Y010501D03*
X046161Y010501D03*
X047161Y010501D03*
X048161Y010501D03*
X049161Y010501D03*
X050161Y010501D03*
X051161Y010501D03*
X051161Y006601D03*
X050161Y006601D03*
X050161Y005601D03*
X051161Y005601D03*
X051161Y004601D03*
X050161Y004601D03*
X050161Y003601D03*
X051161Y003601D03*
X051161Y002601D03*
X050161Y002601D03*
X045161Y002601D03*
X044161Y002601D03*
X044161Y003601D03*
X044161Y004601D03*
X045161Y004601D03*
X045161Y003601D03*
X045161Y005601D03*
X044161Y005601D03*
X044161Y006601D03*
X045161Y006601D03*
X039161Y006601D03*
X038161Y006601D03*
X038161Y005601D03*
X039161Y005601D03*
X039161Y004601D03*
X038161Y004601D03*
X038161Y003601D03*
X039161Y003601D03*
X039161Y002601D03*
X038161Y002601D03*
X033161Y002601D03*
X032161Y002601D03*
X032161Y003601D03*
X032161Y004601D03*
X033161Y004601D03*
X033161Y003601D03*
X033161Y005601D03*
X032161Y005601D03*
X032161Y006601D03*
X033161Y006601D03*
X036561Y013101D03*
X036561Y014101D03*
X037561Y014101D03*
X037561Y013101D03*
X037561Y015101D03*
X036561Y015101D03*
X036561Y016101D03*
X037561Y016101D03*
X037561Y017101D03*
X036561Y017101D03*
X036561Y018101D03*
X037561Y018101D03*
X037561Y019101D03*
X036561Y019101D03*
X036561Y020101D03*
X037561Y020101D03*
X037561Y021101D03*
X036561Y021101D03*
X036561Y022101D03*
X037561Y022101D03*
X037561Y023101D03*
X036561Y023101D03*
X036561Y024101D03*
X037561Y024101D03*
X037561Y025101D03*
X036561Y025101D03*
X056161Y006601D03*
X056161Y005601D03*
X057161Y005601D03*
X057161Y006601D03*
X057161Y004601D03*
X056161Y004601D03*
X056161Y003601D03*
X057161Y003601D03*
X057161Y002601D03*
X056161Y002601D03*
D15*
X060861Y017101D02*
X061461Y017101D01*
X061461Y018101D02*
X060861Y018101D01*
X060861Y019101D02*
X061461Y019101D01*
X061461Y020101D02*
X060861Y020101D01*
X060861Y021101D02*
X061461Y021101D01*
X061461Y022101D02*
X060861Y022101D01*
X061161Y024801D02*
X061161Y025401D01*
X059161Y025401D02*
X059161Y024801D01*
X059161Y027801D02*
X059161Y028401D01*
X061161Y028401D02*
X061161Y027801D01*
X018161Y025401D02*
X018161Y024801D01*
X017161Y024801D02*
X017161Y025401D01*
X016161Y025401D02*
X016161Y024801D01*
D16*
X022161Y025101D03*
X023161Y025101D03*
X023161Y026101D03*
X022161Y026101D03*
X022161Y027101D03*
X023161Y027101D03*
X023161Y028101D03*
X022161Y028101D03*
X022161Y029101D03*
X023161Y029101D03*
X023161Y030101D03*
X022161Y030101D03*
X022161Y031101D03*
X023161Y031101D03*
X024161Y031101D03*
X025161Y031101D03*
X026161Y031101D03*
X027161Y031101D03*
X028161Y031101D03*
X029161Y031101D03*
X029161Y032101D03*
X028161Y032101D03*
X027161Y032101D03*
X026161Y032101D03*
X025161Y032101D03*
X024161Y032101D03*
X023161Y032101D03*
X022161Y032101D03*
X024161Y030101D03*
X025161Y030101D03*
X025161Y029101D03*
X024161Y029101D03*
X024161Y028101D03*
X025161Y028101D03*
X025161Y027101D03*
X024161Y027101D03*
X024161Y026101D03*
X025161Y026101D03*
X025161Y025101D03*
X024161Y025101D03*
X024161Y024101D03*
X025161Y024101D03*
X025161Y023101D03*
X024161Y023101D03*
X023161Y023101D03*
X022161Y023101D03*
X022161Y024101D03*
X023161Y024101D03*
X023161Y022101D03*
X022161Y022101D03*
X022161Y021101D03*
X023161Y021101D03*
X024161Y021101D03*
X025161Y021101D03*
X025161Y022101D03*
X024161Y022101D03*
X026161Y022101D03*
X027161Y022101D03*
X027161Y021101D03*
X026161Y021101D03*
X026161Y020101D03*
X027161Y020101D03*
X027161Y019101D03*
X026161Y019101D03*
X025161Y019101D03*
X024161Y019101D03*
X023161Y019101D03*
X022161Y019101D03*
X022161Y020101D03*
X023161Y020101D03*
X024161Y020101D03*
X025161Y020101D03*
X025161Y018101D03*
X024161Y018101D03*
X023161Y018101D03*
X022161Y018101D03*
X022161Y017101D03*
X023161Y017101D03*
X024161Y017101D03*
X025161Y017101D03*
X026161Y017101D03*
X027161Y017101D03*
X027161Y018101D03*
X026161Y018101D03*
X028161Y018101D03*
X028161Y017101D03*
X029161Y017101D03*
X029161Y018101D03*
X029161Y019101D03*
X028161Y019101D03*
X028161Y020101D03*
X029161Y020101D03*
X029161Y021101D03*
X028161Y021101D03*
X028161Y022101D03*
X029161Y022101D03*
X029161Y023101D03*
X028161Y023101D03*
X027161Y023101D03*
X026161Y023101D03*
X026161Y024101D03*
X027161Y024101D03*
X028161Y024101D03*
X029161Y024101D03*
X029161Y025101D03*
X028161Y025101D03*
X027161Y025101D03*
X026161Y025101D03*
X026161Y026101D03*
X027161Y026101D03*
X028161Y026101D03*
X029161Y026101D03*
X029161Y027101D03*
X028161Y027101D03*
X027161Y027101D03*
X026161Y027101D03*
X026161Y028101D03*
X027161Y028101D03*
X028161Y028101D03*
X029161Y028101D03*
X029161Y029101D03*
X028161Y029101D03*
X027161Y029101D03*
X026161Y029101D03*
X026161Y030101D03*
X027161Y030101D03*
X028161Y030101D03*
X029161Y030101D03*
X029161Y016101D03*
X028161Y016101D03*
X027161Y016101D03*
X026161Y016101D03*
X025161Y016101D03*
X024161Y016101D03*
X023161Y016101D03*
X022161Y016101D03*
X022161Y015101D03*
X023161Y015101D03*
X024161Y015101D03*
X025161Y015101D03*
X026161Y015101D03*
X027161Y015101D03*
X028161Y015101D03*
X029161Y015101D03*
X029161Y014101D03*
X028161Y014101D03*
X027161Y014101D03*
X026161Y014101D03*
X025161Y014101D03*
X024161Y014101D03*
X023161Y014101D03*
X022161Y014101D03*
X022161Y013101D03*
X023161Y013101D03*
X024161Y013101D03*
X025161Y013101D03*
X026161Y013101D03*
X027161Y013101D03*
X028161Y013101D03*
X029161Y013101D03*
X029161Y012101D03*
X028161Y012101D03*
X027161Y012101D03*
X026161Y012101D03*
X025161Y012101D03*
X024161Y012101D03*
X023161Y012101D03*
X022161Y012101D03*
X022161Y011101D03*
X023161Y011101D03*
X024161Y011101D03*
X025161Y011101D03*
X026161Y011101D03*
X027161Y011101D03*
X028161Y011101D03*
X029161Y011101D03*
X029161Y010101D03*
X028161Y010101D03*
X027161Y010101D03*
X026161Y010101D03*
X025161Y010101D03*
X024161Y010101D03*
X023161Y010101D03*
X022161Y010101D03*
X022161Y009101D03*
X023161Y009101D03*
X023161Y008101D03*
X022161Y008101D03*
X022161Y007101D03*
X023161Y007101D03*
X023161Y006101D03*
X022161Y006101D03*
X022161Y005101D03*
X023161Y005101D03*
X023161Y004101D03*
X022161Y004101D03*
X024161Y004101D03*
X025161Y004101D03*
X025161Y005101D03*
X024161Y005101D03*
X024161Y006101D03*
X025161Y006101D03*
X025161Y007101D03*
X024161Y007101D03*
X024161Y008101D03*
X025161Y008101D03*
X025161Y009101D03*
X024161Y009101D03*
X026161Y009101D03*
X027161Y009101D03*
X027161Y008101D03*
X026161Y008101D03*
X026161Y007101D03*
X027161Y007101D03*
X027161Y006101D03*
X026161Y006101D03*
X026161Y005101D03*
X027161Y005101D03*
X027161Y004101D03*
X026161Y004101D03*
X028161Y004101D03*
X028161Y005101D03*
X029161Y005101D03*
X029161Y004101D03*
X029161Y006101D03*
X028161Y006101D03*
X028161Y007101D03*
X029161Y007101D03*
X029161Y008101D03*
X028161Y008101D03*
X028161Y009101D03*
X029161Y009101D03*
X058161Y026601D03*
D17*
X003413Y011776D03*
X003413Y005426D03*
D18*
X010665Y006603D03*
X010665Y007402D03*
X010665Y008201D03*
X010665Y009000D03*
X010665Y009800D03*
X010665Y010599D03*
X011665Y010998D03*
X011665Y010199D03*
X011665Y009400D03*
X012665Y009998D03*
X012665Y010998D03*
X011665Y007802D03*
X011665Y007002D03*
X011665Y006203D03*
X012665Y006203D03*
X012665Y007203D03*
D19*
X002516Y018101D02*
X001807Y018101D01*
X001807Y019101D02*
X002516Y019101D01*
X002516Y020101D02*
X001807Y020101D01*
D20*
X008161Y020101D03*
X012161Y020101D03*
D21*
X009481Y014101D03*
X008162Y014101D03*
D22*
X006574Y018101D02*
X005749Y018101D01*
X011749Y018101D02*
X012574Y018101D01*
D23*
X000721Y001586D02*
X000721Y000661D01*
X006161Y000661D01*
X006161Y015351D01*
X002647Y015351D01*
X002681Y015316D01*
X002681Y015101D01*
X002162Y015101D01*
X002162Y015101D01*
X002681Y015101D01*
X002681Y014885D01*
X002377Y014581D01*
X002161Y014581D01*
X002161Y015100D01*
X002161Y015100D01*
X002161Y015101D02*
X001641Y015101D01*
X002161Y015101D01*
X002161Y015101D01*
X002161Y015100D02*
X002161Y014581D01*
X001946Y014581D01*
X001641Y014885D01*
X001641Y015101D01*
X001641Y015316D01*
X001676Y015351D01*
X000721Y015351D01*
X000721Y004128D01*
X000966Y004373D01*
X001398Y004622D01*
X001880Y004751D01*
X002379Y004751D01*
X002861Y004622D01*
X003293Y004373D01*
X003646Y004020D01*
X003895Y003588D01*
X004025Y003106D01*
X004025Y002607D01*
X003895Y002125D01*
X003646Y001693D01*
X003293Y001340D01*
X002861Y001091D01*
X002379Y000962D01*
X001880Y000962D01*
X001398Y001091D01*
X000966Y001340D01*
X000721Y001586D01*
X000721Y001375D02*
X000932Y001375D01*
X000721Y001056D02*
X001528Y001056D01*
X000721Y000738D02*
X006161Y000738D01*
X006161Y001056D02*
X002732Y001056D01*
X003328Y001375D02*
X006161Y001375D01*
X006161Y001694D02*
X003646Y001694D01*
X003830Y002012D02*
X006161Y002012D01*
X006161Y002331D02*
X003950Y002331D01*
X004025Y002649D02*
X004878Y002649D01*
X004946Y002581D02*
X005161Y002581D01*
X005161Y003100D01*
X005161Y003100D01*
X005161Y002581D01*
X005377Y002581D01*
X005681Y002885D01*
X005681Y003101D01*
X005681Y003316D01*
X005377Y003621D01*
X005161Y003621D01*
X004946Y003621D01*
X004641Y003316D01*
X004641Y003101D01*
X005161Y003101D01*
X005161Y003101D01*
X005161Y003621D01*
X005161Y003101D01*
X005161Y003101D01*
X004641Y003101D01*
X004641Y002885D01*
X004946Y002581D01*
X005161Y002649D02*
X005161Y002649D01*
X005445Y002649D02*
X006161Y002649D01*
X006161Y002968D02*
X005681Y002968D01*
X005681Y003101D02*
X005162Y003101D01*
X005681Y003101D01*
X005681Y003286D02*
X006161Y003286D01*
X006161Y003605D02*
X005393Y003605D01*
X005161Y003605D02*
X005161Y003605D01*
X004930Y003605D02*
X003886Y003605D01*
X003976Y003286D02*
X004641Y003286D01*
X004641Y002968D02*
X004025Y002968D01*
X003702Y003923D02*
X006161Y003923D01*
X006161Y004242D02*
X003424Y004242D01*
X003415Y004681D02*
X003721Y004681D01*
X004087Y005047D01*
X004198Y004983D01*
X004503Y004901D01*
X004819Y004901D01*
X005124Y004983D01*
X005398Y005141D01*
X005621Y005364D01*
X005779Y005638D01*
X005861Y005943D01*
X005861Y006259D01*
X005779Y006564D01*
X005621Y006837D01*
X005398Y007061D01*
X005124Y007219D01*
X004819Y007301D01*
X004503Y007301D01*
X004198Y007219D01*
X003925Y007061D01*
X003701Y006837D01*
X003543Y006564D01*
X003461Y006259D01*
X003461Y006170D01*
X003415Y006170D01*
X003415Y005427D01*
X003412Y005427D01*
X003412Y006170D01*
X003105Y006170D01*
X002669Y005734D01*
X002669Y005427D01*
X003412Y005427D01*
X003412Y005424D01*
X003415Y005424D01*
X003415Y004681D01*
X003412Y004681D02*
X003412Y005424D01*
X002669Y005424D01*
X002669Y005117D01*
X003105Y004681D01*
X003412Y004681D01*
X003412Y004879D02*
X003415Y004879D01*
X003412Y005197D02*
X003415Y005197D01*
X003412Y005516D02*
X003415Y005516D01*
X003412Y005835D02*
X003415Y005835D01*
X003412Y006153D02*
X003415Y006153D01*
X003088Y006153D02*
X000721Y006153D01*
X000721Y005835D02*
X002770Y005835D01*
X002669Y005516D02*
X000721Y005516D01*
X000721Y005197D02*
X002669Y005197D01*
X002907Y004879D02*
X000721Y004879D01*
X000721Y004560D02*
X001291Y004560D01*
X000835Y004242D02*
X000721Y004242D01*
X002968Y004560D02*
X006161Y004560D01*
X006161Y004879D02*
X003919Y004879D01*
X005455Y005197D02*
X006161Y005197D01*
X006161Y005516D02*
X005709Y005516D01*
X005832Y005835D02*
X006161Y005835D01*
X006161Y006153D02*
X005861Y006153D01*
X005804Y006472D02*
X006161Y006472D01*
X006161Y006790D02*
X005649Y006790D01*
X005315Y007109D02*
X006161Y007109D01*
X006161Y007427D02*
X000721Y007427D01*
X000721Y007109D02*
X004008Y007109D01*
X003674Y006790D02*
X000721Y006790D01*
X000721Y006472D02*
X003519Y006472D01*
X006161Y007746D02*
X000721Y007746D01*
X000721Y008064D02*
X006161Y008064D01*
X006161Y008383D02*
X000721Y008383D01*
X000721Y008701D02*
X006161Y008701D01*
X006161Y009020D02*
X000721Y009020D01*
X000721Y009339D02*
X006161Y009339D01*
X006161Y009657D02*
X000721Y009657D01*
X000721Y009976D02*
X004225Y009976D01*
X004198Y009983D02*
X004503Y009901D01*
X004819Y009901D01*
X005124Y009983D01*
X005398Y010141D01*
X005621Y010364D01*
X005779Y010638D01*
X005861Y010943D01*
X005861Y011259D01*
X005779Y011564D01*
X005621Y011837D01*
X005398Y012061D01*
X005124Y012219D01*
X004819Y012301D01*
X004503Y012301D01*
X004198Y012219D01*
X004087Y012155D01*
X003721Y012520D01*
X003415Y012520D01*
X003415Y011778D01*
X003412Y011778D01*
X003412Y012520D01*
X003105Y012520D01*
X002669Y012084D01*
X002669Y011777D01*
X003412Y011777D01*
X003412Y011774D01*
X003415Y011774D01*
X003415Y011032D01*
X003461Y011032D01*
X003461Y010943D01*
X003543Y010638D01*
X003701Y010364D01*
X003925Y010141D01*
X004198Y009983D01*
X003771Y010294D02*
X000721Y010294D01*
X000721Y010613D02*
X003558Y010613D01*
X003465Y010931D02*
X000721Y010931D01*
X000721Y011250D02*
X002887Y011250D01*
X002669Y011468D02*
X003105Y011032D01*
X003412Y011032D01*
X003412Y011774D01*
X002669Y011774D01*
X002669Y011468D01*
X002669Y011568D02*
X000721Y011568D01*
X000721Y011887D02*
X002669Y011887D01*
X002790Y012205D02*
X000721Y012205D01*
X000721Y012524D02*
X006161Y012524D01*
X006161Y012843D02*
X000721Y012843D01*
X000721Y013161D02*
X006161Y013161D01*
X006161Y013480D02*
X000721Y013480D01*
X000721Y013798D02*
X004729Y013798D01*
X004641Y013885D02*
X004946Y013581D01*
X005161Y013581D01*
X005161Y014100D01*
X005161Y014100D01*
X005161Y013581D01*
X005377Y013581D01*
X005681Y013885D01*
X005681Y014101D01*
X005681Y014316D01*
X005377Y014621D01*
X005161Y014621D01*
X004946Y014621D01*
X004641Y014316D01*
X004641Y014101D01*
X005161Y014101D01*
X005161Y014101D01*
X005161Y014621D01*
X005161Y014101D01*
X005161Y014101D01*
X004641Y014101D01*
X004641Y013885D01*
X004641Y014117D02*
X000721Y014117D01*
X000721Y014435D02*
X004760Y014435D01*
X005161Y014435D02*
X005161Y014435D01*
X005161Y014117D02*
X005161Y014117D01*
X005162Y014101D02*
X005681Y014101D01*
X005162Y014101D01*
X005162Y014101D01*
X005161Y013798D02*
X005161Y013798D01*
X005594Y013798D02*
X006161Y013798D01*
X006161Y014117D02*
X005681Y014117D01*
X005562Y014435D02*
X006161Y014435D01*
X006161Y014754D02*
X002550Y014754D01*
X002681Y015072D02*
X006161Y015072D01*
X007161Y014101D02*
X008162Y014101D01*
X007161Y014101D02*
X007161Y011851D01*
X007661Y011351D01*
X011286Y011351D01*
X011661Y010976D01*
X011665Y010980D01*
X011665Y010998D01*
X010665Y010599D02*
X010663Y010599D01*
X010661Y010601D01*
X007661Y010601D01*
X007161Y010101D01*
X007161Y003101D01*
X005162Y003101D02*
X005162Y003101D01*
X005161Y002968D02*
X005161Y002968D01*
X005161Y003286D02*
X005161Y003286D01*
X005098Y009976D02*
X006161Y009976D01*
X006161Y010294D02*
X005551Y010294D01*
X005765Y010613D02*
X006161Y010613D01*
X006161Y010931D02*
X005858Y010931D01*
X005861Y011250D02*
X006161Y011250D01*
X006161Y011568D02*
X005777Y011568D01*
X005572Y011887D02*
X006161Y011887D01*
X006161Y012205D02*
X005147Y012205D01*
X004175Y012205D02*
X004036Y012205D01*
X003415Y012205D02*
X003412Y012205D01*
X003412Y011887D02*
X003415Y011887D01*
X003412Y011568D02*
X003415Y011568D01*
X003412Y011250D02*
X003415Y011250D01*
X002161Y014754D02*
X002161Y014754D01*
X002161Y015072D02*
X002161Y015072D01*
X001773Y014754D02*
X000721Y014754D01*
X000721Y015072D02*
X001641Y015072D01*
X001581Y016101D02*
X000721Y016101D01*
X000721Y038911D01*
X006661Y038911D01*
X006661Y030101D01*
X007161Y029601D01*
X007161Y025476D01*
X013911Y025476D01*
X013911Y016101D01*
X002741Y016101D01*
X002741Y016341D01*
X002401Y016681D01*
X001921Y016681D01*
X001581Y016341D01*
X001581Y016101D01*
X001587Y016346D02*
X000721Y016346D01*
X000721Y016665D02*
X001905Y016665D01*
X002417Y016665D02*
X013911Y016665D01*
X013911Y016346D02*
X002736Y016346D01*
X002650Y017426D02*
X001673Y017426D01*
X001425Y017529D01*
X001235Y017719D01*
X001133Y017967D01*
X001133Y018235D01*
X001235Y018483D01*
X001396Y018643D01*
X001286Y018753D01*
X001193Y018979D01*
X001193Y019101D01*
X002161Y019101D01*
X002161Y019101D01*
X001193Y019101D01*
X001193Y019223D01*
X001286Y019449D01*
X001396Y019558D01*
X001235Y019719D01*
X001133Y019967D01*
X001133Y020235D01*
X001235Y020483D01*
X001425Y020672D01*
X001673Y020775D01*
X002650Y020775D01*
X002898Y020672D01*
X003087Y020483D01*
X003190Y020235D01*
X003190Y019967D01*
X003087Y019719D01*
X002927Y019558D01*
X003036Y019449D01*
X003130Y019223D01*
X003130Y019101D01*
X002162Y019101D01*
X002162Y019101D01*
X003130Y019101D01*
X003130Y018979D01*
X003036Y018753D01*
X002927Y018643D01*
X003087Y018483D01*
X003190Y018235D01*
X003190Y017967D01*
X003087Y017719D01*
X002898Y017529D01*
X002650Y017426D01*
X002989Y017621D02*
X005278Y017621D01*
X005368Y017531D02*
X005615Y017428D01*
X006161Y017428D01*
X006161Y018100D01*
X006161Y018100D01*
X006161Y017428D01*
X006708Y017428D01*
X006955Y017531D01*
X007144Y017720D01*
X007246Y017967D01*
X007246Y018101D01*
X007246Y018235D01*
X007144Y018482D01*
X006955Y018671D01*
X006708Y018773D01*
X006161Y018773D01*
X005615Y018773D01*
X005368Y018671D01*
X005179Y018482D01*
X005076Y018235D01*
X005076Y018101D01*
X006161Y018101D01*
X006161Y018101D01*
X006161Y018773D01*
X006161Y018101D01*
X006161Y018101D01*
X005076Y018101D01*
X005076Y017967D01*
X005179Y017720D01*
X005368Y017531D01*
X005088Y017939D02*
X003179Y017939D01*
X003180Y018258D02*
X005086Y018258D01*
X005273Y018576D02*
X002994Y018576D01*
X003095Y018895D02*
X013911Y018895D01*
X013911Y019213D02*
X003130Y019213D01*
X002953Y019532D02*
X003910Y019532D01*
X003921Y019521D02*
X004401Y019521D01*
X004741Y019861D01*
X004741Y020341D01*
X004401Y020681D01*
X003921Y020681D01*
X003581Y020341D01*
X003581Y019861D01*
X003921Y019521D01*
X003591Y019850D02*
X003142Y019850D01*
X003190Y020169D02*
X003581Y020169D01*
X003728Y020488D02*
X003082Y020488D01*
X004413Y019532D02*
X006910Y019532D01*
X006921Y019521D02*
X007401Y019521D01*
X007612Y019731D01*
X007793Y019550D01*
X008032Y019451D01*
X008291Y019451D01*
X008529Y019550D01*
X008712Y019733D01*
X008811Y019971D01*
X008811Y020230D01*
X008712Y020469D01*
X008529Y020652D01*
X008291Y020751D01*
X008032Y020751D01*
X007793Y020652D01*
X007612Y020470D01*
X007401Y020681D01*
X006921Y020681D01*
X006581Y020341D01*
X006581Y019861D01*
X006921Y019521D01*
X006591Y019850D02*
X004731Y019850D01*
X004741Y020169D02*
X006581Y020169D01*
X006728Y020488D02*
X004595Y020488D01*
X003476Y022091D02*
X003161Y022091D01*
X003161Y022850D01*
X003161Y022850D01*
X003161Y022851D02*
X002401Y022851D01*
X003161Y022851D01*
X003161Y022851D01*
X003161Y023611D01*
X002846Y023611D01*
X002401Y023166D01*
X002401Y022851D01*
X002401Y022536D01*
X002846Y022091D01*
X003161Y022091D01*
X003161Y022850D01*
X003162Y022851D02*
X003162Y022851D01*
X003921Y022851D01*
X003921Y023166D01*
X003476Y023611D01*
X003161Y023611D01*
X003161Y022851D01*
X003161Y022851D01*
X003162Y022851D02*
X003921Y022851D01*
X003921Y022536D01*
X003476Y022091D01*
X003784Y022399D02*
X005878Y022399D01*
X005946Y022331D02*
X005641Y022635D01*
X005641Y022851D01*
X006161Y022851D01*
X006161Y022851D01*
X006161Y023371D01*
X005946Y023371D01*
X005641Y023066D01*
X005641Y022851D01*
X006161Y022851D01*
X006161Y022851D01*
X006161Y023371D01*
X006377Y023371D01*
X006681Y023066D01*
X006681Y022851D01*
X006162Y022851D01*
X006162Y022851D01*
X006681Y022851D01*
X006681Y022635D01*
X006377Y022331D01*
X006161Y022331D01*
X006161Y022850D01*
X006161Y022850D01*
X006161Y022331D01*
X005946Y022331D01*
X006161Y022399D02*
X006161Y022399D01*
X006445Y022399D02*
X013911Y022399D01*
X013911Y022717D02*
X006681Y022717D01*
X006681Y023036D02*
X013911Y023036D01*
X013911Y023354D02*
X006393Y023354D01*
X006161Y023354D02*
X006161Y023354D01*
X005930Y023354D02*
X003732Y023354D01*
X003921Y023036D02*
X005641Y023036D01*
X005641Y022717D02*
X003921Y022717D01*
X003161Y022717D02*
X003161Y022717D01*
X003161Y022399D02*
X003161Y022399D01*
X002538Y022399D02*
X000721Y022399D01*
X000721Y022717D02*
X002401Y022717D01*
X002401Y023036D02*
X000721Y023036D01*
X000721Y023354D02*
X002590Y023354D01*
X003161Y023354D02*
X003161Y023354D01*
X003161Y023036D02*
X003161Y023036D01*
X002998Y024031D02*
X003324Y024031D01*
X003626Y024156D01*
X003856Y024386D01*
X003981Y024688D01*
X003981Y025014D01*
X003856Y025315D01*
X003626Y025546D01*
X003324Y025671D01*
X002998Y025671D01*
X002697Y025546D01*
X002466Y025315D01*
X002341Y025014D01*
X002341Y024688D01*
X002466Y024386D01*
X002697Y024156D01*
X002998Y024031D01*
X002542Y024310D02*
X000721Y024310D01*
X000721Y023992D02*
X013911Y023992D01*
X013911Y024310D02*
X006441Y024310D01*
X006401Y024271D02*
X006741Y024611D01*
X006741Y025091D01*
X006401Y025431D01*
X005921Y025431D01*
X005581Y025091D01*
X005581Y024611D01*
X005921Y024271D01*
X006401Y024271D01*
X006741Y024629D02*
X013911Y024629D01*
X013911Y024947D02*
X006741Y024947D01*
X006566Y025266D02*
X013911Y025266D01*
X014661Y025266D02*
X015541Y025266D01*
X015541Y025524D02*
X015541Y024677D01*
X015636Y024450D01*
X015810Y024275D01*
X016038Y024181D01*
X016285Y024181D01*
X016512Y024275D01*
X016687Y024450D01*
X016697Y024473D01*
X016844Y024326D01*
X017050Y024241D01*
X017161Y024241D01*
X017161Y025100D01*
X017161Y025100D01*
X017161Y024241D01*
X017273Y024241D01*
X017478Y024326D01*
X017626Y024473D01*
X017636Y024450D01*
X017810Y024275D01*
X018038Y024181D01*
X018285Y024181D01*
X018512Y024275D01*
X018687Y024450D01*
X018781Y024677D01*
X018781Y025524D01*
X018687Y025752D01*
X018512Y025926D01*
X018285Y026021D01*
X018038Y026021D01*
X017810Y025926D01*
X017636Y025752D01*
X017626Y025728D01*
X017478Y025876D01*
X017273Y025961D01*
X017161Y025961D01*
X017050Y025961D01*
X016844Y025876D01*
X016697Y025728D01*
X016687Y025752D01*
X016512Y025926D01*
X016285Y026021D01*
X016038Y026021D01*
X015810Y025926D01*
X015636Y025752D01*
X015541Y025524D01*
X015566Y025584D02*
X014661Y025584D01*
X014661Y025903D02*
X015786Y025903D01*
X014661Y026221D02*
X019661Y026221D01*
X019661Y025903D02*
X018536Y025903D01*
X018756Y025584D02*
X019661Y025584D01*
X019661Y025266D02*
X018781Y025266D01*
X018781Y024947D02*
X019661Y024947D01*
X019661Y024629D02*
X018761Y024629D01*
X018547Y024310D02*
X019661Y024310D01*
X019661Y023992D02*
X014661Y023992D01*
X014661Y024310D02*
X015775Y024310D01*
X015561Y024629D02*
X014661Y024629D01*
X014661Y024947D02*
X015541Y024947D01*
X016547Y024310D02*
X016882Y024310D01*
X017161Y024310D02*
X017161Y024310D01*
X017440Y024310D02*
X017775Y024310D01*
X017161Y024629D02*
X017161Y024629D01*
X017161Y024947D02*
X017161Y024947D01*
X017161Y025101D02*
X017161Y025961D01*
X017161Y025101D01*
X017161Y025101D01*
X017161Y025266D02*
X017161Y025266D01*
X017161Y025584D02*
X017161Y025584D01*
X017161Y025903D02*
X017161Y025903D01*
X016910Y025903D02*
X016536Y025903D01*
X017413Y025903D02*
X017786Y025903D01*
X019661Y026540D02*
X014661Y026540D01*
X014661Y026858D02*
X019661Y026858D01*
X019661Y027177D02*
X014661Y027177D01*
X014661Y027496D02*
X019661Y027496D01*
X019661Y027814D02*
X014661Y027814D01*
X014661Y028133D02*
X019661Y028133D01*
X019661Y028451D02*
X014661Y028451D01*
X014661Y028770D02*
X019661Y028770D01*
X019661Y029088D02*
X014661Y029088D01*
X014661Y029407D02*
X019661Y029407D01*
X019661Y029725D02*
X014661Y029725D01*
X014661Y030044D02*
X019661Y030044D01*
X019661Y030362D02*
X014661Y030362D01*
X014661Y030681D02*
X019661Y030681D01*
X019661Y030851D02*
X019661Y016101D01*
X014661Y016101D01*
X014661Y034851D01*
X031161Y034851D01*
X031725Y034428D01*
X031621Y034324D01*
X031621Y034101D01*
X032161Y034101D01*
X032161Y034101D01*
X032161Y033101D01*
X032161Y033101D01*
X031621Y033101D01*
X031621Y033324D01*
X031898Y033601D01*
X031621Y033877D01*
X031621Y034101D01*
X032161Y034101D01*
X032161Y034100D02*
X032161Y034100D01*
X032161Y033641D01*
X032161Y033101D01*
X032161Y033101D01*
X032161Y030851D01*
X033911Y030851D01*
X032161Y030851D02*
X031911Y030851D01*
X032161Y030851D02*
X029781Y030851D01*
X029781Y031358D01*
X029538Y031601D01*
X029781Y031844D01*
X029781Y032358D01*
X029418Y032721D01*
X028904Y032721D01*
X028661Y032478D01*
X028418Y032721D01*
X027904Y032721D01*
X027661Y032478D01*
X027418Y032721D01*
X026904Y032721D01*
X026661Y032478D01*
X026418Y032721D01*
X025904Y032721D01*
X025661Y032478D01*
X025418Y032721D01*
X024904Y032721D01*
X024661Y032478D01*
X024418Y032721D01*
X023904Y032721D01*
X023619Y032435D01*
X023393Y032661D01*
X023161Y032661D01*
X022929Y032661D01*
X022661Y032393D01*
X022393Y032661D01*
X022161Y032661D01*
X021929Y032661D01*
X021601Y032333D01*
X021601Y032101D01*
X022161Y032101D01*
X022161Y032101D01*
X022161Y032661D01*
X022161Y032101D01*
X022161Y032101D01*
X021601Y032101D01*
X021601Y031869D01*
X021827Y031643D01*
X021541Y031358D01*
X021541Y030851D01*
X019661Y030851D01*
X018289Y031534D02*
X018371Y031841D01*
X018371Y032160D01*
X018289Y032468D01*
X018129Y032744D01*
X017904Y032969D01*
X017628Y033128D01*
X017321Y033211D01*
X017002Y033211D01*
X016694Y033128D01*
X016418Y032969D01*
X016193Y032744D01*
X016034Y032468D01*
X015951Y032160D01*
X015951Y031841D01*
X016034Y031534D01*
X016193Y031258D01*
X016418Y031033D01*
X016694Y030873D01*
X017002Y030791D01*
X017321Y030791D01*
X017628Y030873D01*
X017904Y031033D01*
X018129Y031258D01*
X018289Y031534D01*
X018316Y031637D02*
X021820Y031637D01*
X021601Y031955D02*
X018371Y031955D01*
X018341Y032274D02*
X021601Y032274D01*
X021861Y032592D02*
X018217Y032592D01*
X017962Y032911D02*
X031621Y032911D01*
X031621Y032877D02*
X031621Y033101D01*
X032161Y033101D01*
X032161Y034100D01*
X032161Y033866D02*
X032161Y033866D01*
X032161Y033548D02*
X032161Y033548D01*
X031845Y033548D02*
X014661Y033548D01*
X014661Y033866D02*
X031632Y033866D01*
X031621Y034185D02*
X014661Y034185D01*
X014661Y034503D02*
X031624Y034503D01*
X031200Y034822D02*
X014661Y034822D01*
X013911Y034822D02*
X007411Y034822D01*
X007411Y034503D02*
X013911Y034503D01*
X013911Y034185D02*
X007411Y034185D01*
X007411Y033866D02*
X009866Y033866D01*
X009833Y033852D02*
X009670Y033689D01*
X009581Y033476D01*
X009581Y032725D01*
X009670Y032512D01*
X009833Y032349D01*
X010046Y032261D01*
X010277Y032261D01*
X010490Y032349D01*
X010653Y032512D01*
X010661Y032532D01*
X010670Y032512D01*
X010833Y032349D01*
X011046Y032261D01*
X011277Y032261D01*
X011490Y032349D01*
X011653Y032512D01*
X011694Y032611D01*
X011720Y032546D01*
X011867Y032400D01*
X012058Y032321D01*
X012161Y032321D01*
X012161Y033100D01*
X012161Y033100D01*
X012161Y032321D01*
X012265Y032321D01*
X012456Y032400D01*
X012602Y032546D01*
X012681Y032737D01*
X012681Y033101D01*
X012681Y033464D01*
X012602Y033655D01*
X012456Y033802D01*
X012265Y033881D01*
X012161Y033881D01*
X012058Y033881D01*
X011867Y033802D01*
X011720Y033655D01*
X011694Y033591D01*
X011653Y033689D01*
X011490Y033852D01*
X011277Y033941D01*
X011046Y033941D01*
X010833Y033852D01*
X010670Y033689D01*
X010661Y033669D01*
X010653Y033689D01*
X010490Y033852D01*
X010277Y033941D01*
X010046Y033941D01*
X009833Y033852D01*
X009611Y033548D02*
X007411Y033548D01*
X007411Y033229D02*
X009581Y033229D01*
X009581Y032911D02*
X007411Y032911D01*
X007411Y032592D02*
X009636Y032592D01*
X010015Y032274D02*
X007411Y032274D01*
X007411Y031955D02*
X013911Y031955D01*
X013911Y031637D02*
X007411Y031637D01*
X007411Y031318D02*
X013911Y031318D01*
X013911Y030999D02*
X007411Y030999D01*
X007411Y030681D02*
X013911Y030681D01*
X013911Y030362D02*
X007650Y030362D01*
X007411Y030601D02*
X007411Y038911D01*
X033161Y038911D01*
X062593Y038911D01*
X062593Y000661D01*
X020161Y000661D01*
X020161Y002601D01*
X030181Y002601D01*
X030181Y002446D01*
X030181Y002255D01*
X030254Y002079D01*
X030754Y001579D01*
X030889Y001444D01*
X031066Y001371D01*
X032757Y001371D01*
X032933Y001444D01*
X033068Y001579D01*
X033568Y002079D01*
X033625Y002216D01*
X033761Y002352D01*
X033761Y002601D01*
X037561Y002601D01*
X037561Y002352D01*
X037913Y002001D01*
X038410Y002001D01*
X038704Y002295D01*
X038938Y002061D01*
X039161Y002061D01*
X039161Y002600D01*
X039161Y002600D01*
X039161Y002061D01*
X039385Y002061D01*
X039701Y002377D01*
X039701Y002601D01*
X039162Y002601D01*
X043561Y002601D01*
X043561Y002352D01*
X043913Y002001D01*
X044410Y002001D01*
X044661Y002252D01*
X044913Y002001D01*
X045410Y002001D01*
X045761Y002352D01*
X045761Y002601D01*
X049561Y002601D01*
X049561Y002352D01*
X049913Y002001D01*
X050410Y002001D01*
X050704Y002295D01*
X050938Y002061D01*
X051161Y002061D01*
X051161Y002600D01*
X051161Y002600D01*
X051161Y002061D01*
X051385Y002061D01*
X051701Y002377D01*
X051701Y002601D01*
X051162Y002601D01*
X055561Y002601D01*
X055561Y002352D01*
X055913Y002001D01*
X056410Y002001D01*
X056704Y002295D01*
X056938Y002061D01*
X057161Y002061D01*
X057161Y002600D01*
X057161Y002600D01*
X057161Y002061D01*
X057385Y002061D01*
X057701Y002377D01*
X057701Y002601D01*
X057162Y002601D01*
X058411Y002601D01*
X058411Y005703D01*
X058496Y005787D01*
X058600Y005891D01*
X058656Y006027D01*
X058656Y013402D01*
X058656Y013549D01*
X058600Y013685D01*
X058411Y013874D01*
X058411Y014115D01*
X058477Y014181D01*
X058556Y014372D01*
X058556Y014579D01*
X058477Y014770D01*
X058411Y014836D01*
X058411Y015203D01*
X058496Y015287D01*
X058621Y015412D01*
X058725Y015516D01*
X058781Y015652D01*
X058781Y016573D01*
X058939Y016731D01*
X060354Y016731D01*
X060510Y016575D01*
X060738Y016481D01*
X061585Y016481D01*
X061812Y016575D01*
X061987Y016750D01*
X062081Y016977D01*
X062081Y017224D01*
X061987Y017452D01*
X061838Y017601D01*
X061987Y017750D01*
X062081Y017977D01*
X062081Y018224D01*
X061987Y018452D01*
X061838Y018601D01*
X061987Y018750D01*
X062081Y018977D01*
X062081Y019224D01*
X061987Y019452D01*
X061838Y019601D01*
X061987Y019750D01*
X062081Y019977D01*
X062081Y020224D01*
X061987Y020452D01*
X061838Y020601D01*
X061987Y020750D01*
X062081Y020977D01*
X062081Y020998D01*
X062225Y021141D01*
X062281Y021277D01*
X062281Y021424D01*
X062281Y022799D01*
X062225Y022935D01*
X062121Y023039D01*
X061871Y023289D01*
X061735Y023346D01*
X061588Y023346D01*
X060814Y023346D01*
X060531Y023629D01*
X060531Y029424D01*
X060475Y029560D01*
X060371Y029664D01*
X060100Y029935D01*
X060100Y029935D01*
X059996Y030039D01*
X059860Y030096D01*
X058411Y030096D01*
X058411Y037101D01*
X057761Y037101D01*
X057761Y037349D01*
X057410Y037701D01*
X056913Y037701D01*
X056619Y037407D01*
X056385Y037641D01*
X056161Y037641D01*
X055938Y037641D01*
X055621Y037324D01*
X055621Y037101D01*
X056161Y037101D01*
X056161Y037101D01*
X056161Y037641D01*
X056161Y037101D01*
X056161Y037101D01*
X051761Y037101D01*
X051761Y037349D01*
X051410Y037701D01*
X050913Y037701D01*
X050661Y037449D01*
X050410Y037701D01*
X049913Y037701D01*
X049561Y037349D01*
X049561Y037101D01*
X045761Y037101D01*
X045761Y037349D01*
X045410Y037701D01*
X044913Y037701D01*
X044619Y037407D01*
X044385Y037641D01*
X044161Y037641D01*
X043938Y037641D01*
X043621Y037324D01*
X043621Y037101D01*
X044161Y037101D01*
X044161Y037101D01*
X044161Y037641D01*
X044161Y037101D01*
X044161Y037101D01*
X039761Y037101D01*
X039761Y037349D01*
X039410Y037701D01*
X038913Y037701D01*
X038619Y037407D01*
X038385Y037641D01*
X038161Y037641D01*
X037938Y037641D01*
X037621Y037324D01*
X037621Y037101D01*
X038161Y037101D01*
X038161Y037101D01*
X038161Y037641D01*
X038161Y037101D01*
X038161Y037101D01*
X033761Y037101D01*
X033761Y037349D01*
X033410Y037701D01*
X033161Y037701D01*
X033161Y038911D01*
X033161Y037701D01*
X032913Y037701D01*
X032813Y037601D01*
X032661Y037601D01*
X032661Y037449D01*
X032619Y037407D01*
X032385Y037641D01*
X032161Y037641D01*
X031938Y037641D01*
X031621Y037324D01*
X031621Y037101D01*
X032161Y037101D01*
X032161Y037101D01*
X032161Y037641D01*
X032161Y037101D01*
X032161Y037101D01*
X032161Y038601D01*
X038161Y038601D01*
X044161Y038601D01*
X056161Y038601D01*
X056161Y037101D01*
X056161Y037370D02*
X056161Y037370D01*
X055667Y037370D02*
X051740Y037370D01*
X051422Y037689D02*
X056901Y037689D01*
X057422Y037689D02*
X060236Y037689D01*
X060350Y037803D02*
X060097Y037550D01*
X059918Y037240D01*
X059825Y036894D01*
X059825Y036536D01*
X059918Y036190D01*
X060097Y035880D01*
X060350Y035627D01*
X060660Y035448D01*
X061006Y035355D01*
X061364Y035355D01*
X061710Y035448D01*
X062020Y035627D01*
X062273Y035880D01*
X062452Y036190D01*
X062545Y036536D01*
X062545Y036894D01*
X062452Y037240D01*
X062273Y037550D01*
X062020Y037803D01*
X061710Y037982D01*
X061364Y038075D01*
X061006Y038075D01*
X060660Y037982D01*
X060350Y037803D01*
X060754Y038007D02*
X033161Y038007D01*
X018181Y038007D01*
X018181Y038101D02*
X018181Y037885D01*
X017877Y037581D01*
X017661Y037581D01*
X017661Y038100D01*
X017661Y038100D01*
X017661Y037581D01*
X017446Y037581D01*
X017141Y037885D01*
X017141Y038101D01*
X017661Y038101D01*
X017661Y038101D01*
X017661Y038621D01*
X017446Y038621D01*
X017141Y038316D01*
X017141Y038101D01*
X017661Y038101D01*
X017661Y038101D01*
X017661Y038601D01*
X020411Y038601D01*
X020411Y036101D01*
X017985Y037689D02*
X032901Y037689D01*
X033422Y037689D02*
X038901Y037689D01*
X039422Y037689D02*
X044901Y037689D01*
X045422Y037689D02*
X049901Y037689D01*
X049582Y037370D02*
X045740Y037370D01*
X044161Y037370D02*
X044161Y037370D01*
X044161Y037101D02*
X044161Y038601D01*
X043667Y037370D02*
X039740Y037370D01*
X038161Y037370D02*
X038161Y037370D01*
X038161Y037101D02*
X038161Y038601D01*
X037667Y037370D02*
X033740Y037370D01*
X033161Y038326D02*
X062593Y038326D01*
X062593Y038007D02*
X061616Y038007D01*
X062134Y037689D02*
X062593Y037689D01*
X062593Y037370D02*
X062377Y037370D01*
X062503Y037052D02*
X062593Y037052D01*
X062593Y036733D02*
X062545Y036733D01*
X062512Y036415D02*
X062593Y036415D01*
X062593Y036096D02*
X062398Y036096D01*
X062593Y035778D02*
X062171Y035778D01*
X062593Y035459D02*
X061730Y035459D01*
X062593Y035141D02*
X058411Y035141D01*
X058411Y035459D02*
X060640Y035459D01*
X060199Y035778D02*
X058411Y035778D01*
X058411Y036096D02*
X059972Y036096D01*
X059857Y036415D02*
X058411Y036415D01*
X058411Y036733D02*
X059825Y036733D01*
X059867Y037052D02*
X058411Y037052D01*
X057740Y037370D02*
X059993Y037370D01*
X058411Y038351D02*
X058161Y038601D01*
X056161Y038601D01*
X058411Y038351D02*
X058411Y034601D01*
X058661Y034351D01*
X062161Y034351D01*
X062411Y034101D01*
X062411Y005601D01*
X062161Y005351D01*
X058661Y005351D01*
X058411Y005101D01*
X058411Y001101D01*
X058161Y000851D01*
X057161Y000851D01*
X051161Y000851D01*
X039161Y000851D01*
X027411Y000851D01*
X027161Y001101D01*
X027161Y004101D01*
X026161Y004101D01*
X030181Y002331D02*
X020161Y002331D01*
X020161Y002012D02*
X030321Y002012D01*
X030640Y001694D02*
X020161Y001694D01*
X020161Y001375D02*
X031056Y001375D01*
X031161Y001851D02*
X032661Y001851D01*
X033161Y002351D01*
X033161Y002601D01*
X033740Y002331D02*
X037583Y002331D01*
X037901Y002012D02*
X033501Y002012D01*
X033183Y001694D02*
X060480Y001694D01*
X060350Y001768D02*
X060660Y001589D01*
X061006Y001497D01*
X061364Y001497D01*
X061710Y001589D01*
X062020Y001768D01*
X062273Y002022D01*
X062452Y002332D01*
X062545Y002678D01*
X062545Y003036D01*
X062452Y003382D01*
X062273Y003692D01*
X062020Y003945D01*
X061710Y004124D01*
X061364Y004217D01*
X061006Y004217D01*
X060660Y004124D01*
X060350Y003945D01*
X060097Y003692D01*
X059918Y003382D01*
X059825Y003036D01*
X059825Y002678D01*
X059918Y002332D01*
X060097Y002022D01*
X060350Y001768D01*
X060106Y002012D02*
X056421Y002012D01*
X055901Y002012D02*
X050421Y002012D01*
X049901Y002012D02*
X045421Y002012D01*
X045740Y002331D02*
X049583Y002331D01*
X051161Y002331D02*
X051161Y002331D01*
X051162Y002601D02*
X051162Y002601D01*
X051161Y002601D02*
X051161Y000851D01*
X051655Y002331D02*
X055583Y002331D01*
X057161Y002331D02*
X057161Y002331D01*
X057162Y002601D02*
X057162Y002601D01*
X057161Y002601D02*
X057161Y000851D01*
X057655Y002331D02*
X059918Y002331D01*
X059832Y002649D02*
X058411Y002649D01*
X058411Y002968D02*
X059825Y002968D01*
X059892Y003286D02*
X058411Y003286D01*
X058411Y003605D02*
X060046Y003605D01*
X060328Y003923D02*
X058411Y003923D01*
X058411Y004242D02*
X062593Y004242D01*
X062593Y004560D02*
X058411Y004560D01*
X058411Y004879D02*
X062593Y004879D01*
X062593Y005197D02*
X058411Y005197D01*
X058411Y005516D02*
X062593Y005516D01*
X062593Y005835D02*
X058543Y005835D01*
X058656Y006153D02*
X062593Y006153D01*
X062593Y006472D02*
X058656Y006472D01*
X058656Y006790D02*
X062593Y006790D01*
X062593Y007109D02*
X058656Y007109D01*
X058656Y007427D02*
X062593Y007427D01*
X062593Y007746D02*
X058656Y007746D01*
X058656Y008064D02*
X062593Y008064D01*
X062593Y008383D02*
X058656Y008383D01*
X058656Y008701D02*
X062593Y008701D01*
X062593Y009020D02*
X058656Y009020D01*
X058656Y009339D02*
X062593Y009339D01*
X062593Y009657D02*
X058656Y009657D01*
X058656Y009976D02*
X062593Y009976D01*
X062593Y010294D02*
X058656Y010294D01*
X058656Y010613D02*
X062593Y010613D01*
X062593Y010931D02*
X058656Y010931D01*
X058656Y011250D02*
X062593Y011250D01*
X062593Y011568D02*
X058656Y011568D01*
X058656Y011887D02*
X062593Y011887D01*
X062593Y012205D02*
X058656Y012205D01*
X058656Y012524D02*
X062593Y012524D01*
X062593Y012843D02*
X058656Y012843D01*
X058656Y013161D02*
X062593Y013161D01*
X062593Y013480D02*
X058656Y013480D01*
X058921Y013521D02*
X058581Y013861D01*
X058581Y014341D01*
X058921Y014681D01*
X059401Y014681D01*
X059741Y014341D01*
X059741Y013861D01*
X059401Y013521D01*
X058921Y013521D01*
X058644Y013798D02*
X058487Y013798D01*
X058413Y014117D02*
X058581Y014117D01*
X058556Y014435D02*
X058676Y014435D01*
X058484Y014754D02*
X062593Y014754D01*
X062593Y015072D02*
X058411Y015072D01*
X058600Y015391D02*
X062593Y015391D01*
X062593Y015709D02*
X058781Y015709D01*
X058781Y016028D02*
X062593Y016028D01*
X062593Y016346D02*
X058781Y016346D01*
X058874Y016665D02*
X060420Y016665D01*
X061902Y016665D02*
X062593Y016665D01*
X062593Y016984D02*
X062081Y016984D01*
X062049Y017302D02*
X062593Y017302D01*
X062593Y017621D02*
X061858Y017621D01*
X062065Y017939D02*
X062593Y017939D01*
X062593Y018258D02*
X062067Y018258D01*
X061863Y018576D02*
X062593Y018576D01*
X062593Y018895D02*
X062047Y018895D01*
X062081Y019213D02*
X062593Y019213D01*
X062593Y019532D02*
X061907Y019532D01*
X062029Y019850D02*
X062593Y019850D01*
X062593Y020169D02*
X062081Y020169D01*
X061951Y020488D02*
X062593Y020488D01*
X062593Y020806D02*
X062010Y020806D01*
X062208Y021125D02*
X062593Y021125D01*
X062593Y021443D02*
X062281Y021443D01*
X062281Y021762D02*
X062593Y021762D01*
X062593Y022080D02*
X062281Y022080D01*
X062281Y022399D02*
X062593Y022399D01*
X062593Y022717D02*
X062281Y022717D01*
X062124Y023036D02*
X062593Y023036D01*
X062593Y023354D02*
X060806Y023354D01*
X060531Y023673D02*
X062593Y023673D01*
X062593Y023992D02*
X060531Y023992D01*
X060531Y024310D02*
X060775Y024310D01*
X060810Y024275D02*
X061038Y024181D01*
X061285Y024181D01*
X061512Y024275D01*
X061687Y024450D01*
X061781Y024677D01*
X061781Y025524D01*
X061687Y025752D01*
X061512Y025926D01*
X061285Y026021D01*
X061038Y026021D01*
X060810Y025926D01*
X060636Y025752D01*
X060541Y025524D01*
X060541Y024677D01*
X060636Y024450D01*
X060810Y024275D01*
X060561Y024629D02*
X060531Y024629D01*
X060531Y024947D02*
X060541Y024947D01*
X060531Y025266D02*
X060541Y025266D01*
X060531Y025584D02*
X060566Y025584D01*
X060531Y025903D02*
X060786Y025903D01*
X060531Y026221D02*
X062593Y026221D01*
X062593Y025903D02*
X061536Y025903D01*
X061756Y025584D02*
X062593Y025584D01*
X062593Y025266D02*
X061781Y025266D01*
X061781Y024947D02*
X062593Y024947D01*
X062593Y024629D02*
X061761Y024629D01*
X061547Y024310D02*
X062593Y024310D01*
X062593Y026540D02*
X060531Y026540D01*
X060531Y026858D02*
X062593Y026858D01*
X062593Y027177D02*
X060531Y027177D01*
X060636Y027450D02*
X060810Y027275D01*
X061038Y027181D01*
X061285Y027181D01*
X061512Y027275D01*
X061687Y027450D01*
X061781Y027677D01*
X061781Y028524D01*
X061687Y028752D01*
X061512Y028926D01*
X061285Y029021D01*
X061038Y029021D01*
X060810Y028926D01*
X060636Y028752D01*
X060541Y028524D01*
X060541Y027677D01*
X060636Y027450D01*
X060617Y027496D02*
X060531Y027496D01*
X060531Y027814D02*
X060541Y027814D01*
X060531Y028133D02*
X060541Y028133D01*
X060531Y028451D02*
X060541Y028451D01*
X060531Y028770D02*
X060653Y028770D01*
X060531Y029088D02*
X062593Y029088D01*
X062593Y028770D02*
X061669Y028770D01*
X061781Y028451D02*
X062593Y028451D01*
X062593Y028133D02*
X061781Y028133D01*
X061781Y027814D02*
X062593Y027814D01*
X062593Y027496D02*
X061706Y027496D01*
X062593Y029407D02*
X060531Y029407D01*
X060310Y029725D02*
X062593Y029725D01*
X062593Y030044D02*
X059985Y030044D01*
X058411Y030362D02*
X062593Y030362D01*
X062593Y030681D02*
X058411Y030681D01*
X058411Y030999D02*
X062593Y030999D01*
X062593Y031318D02*
X058411Y031318D01*
X058411Y031637D02*
X062593Y031637D01*
X062593Y031955D02*
X058411Y031955D01*
X058411Y032274D02*
X062593Y032274D01*
X062593Y032592D02*
X058411Y032592D01*
X058411Y032911D02*
X062593Y032911D01*
X062593Y033229D02*
X058411Y033229D01*
X058411Y033548D02*
X062593Y033548D01*
X062593Y033866D02*
X058411Y033866D01*
X058411Y034185D02*
X062593Y034185D01*
X062593Y034503D02*
X058411Y034503D01*
X058411Y034822D02*
X062593Y034822D01*
X062593Y038645D02*
X033161Y038645D01*
X013938Y038645D01*
X013901Y038681D02*
X014241Y038341D01*
X014241Y037861D01*
X014141Y037761D01*
X014141Y037300D01*
X014360Y037081D01*
X014821Y037081D01*
X014921Y037181D01*
X015401Y037181D01*
X015661Y036921D01*
X015921Y037181D01*
X016401Y037181D01*
X016741Y036841D01*
X016741Y036361D01*
X016401Y036021D01*
X015921Y036021D01*
X015661Y036281D01*
X015401Y036021D01*
X014921Y036021D01*
X014821Y036121D01*
X014257Y036121D01*
X014066Y036121D01*
X013889Y036194D01*
X013389Y036694D01*
X013254Y036829D01*
X013181Y037005D01*
X013181Y037761D01*
X013081Y037861D01*
X013081Y038341D01*
X013421Y038681D01*
X013901Y038681D01*
X014241Y038326D02*
X017151Y038326D01*
X017141Y038007D02*
X014241Y038007D01*
X014141Y037689D02*
X017338Y037689D01*
X017661Y037689D02*
X017661Y037689D01*
X017661Y038007D02*
X017661Y038007D01*
X017662Y038101D02*
X017662Y038101D01*
X018181Y038101D01*
X018181Y038316D01*
X017877Y038621D01*
X017661Y038621D01*
X017661Y038101D01*
X017662Y038101D02*
X018181Y038101D01*
X018171Y038326D02*
X033161Y038326D01*
X032161Y038601D02*
X020411Y038601D01*
X017661Y038326D02*
X017661Y038326D01*
X016530Y037052D02*
X031621Y037052D01*
X031621Y037101D02*
X031621Y036877D01*
X031898Y036601D01*
X031621Y036324D01*
X031621Y036101D01*
X032161Y036101D01*
X032161Y036101D01*
X032161Y036641D01*
X032161Y037100D01*
X032161Y037100D01*
X032161Y037101D02*
X031621Y037101D01*
X031667Y037370D02*
X014141Y037370D01*
X013661Y037101D02*
X013661Y038101D01*
X013081Y038007D02*
X011919Y038007D01*
X011921Y038002D02*
X011806Y038281D01*
X011592Y038495D01*
X011312Y038611D01*
X011161Y038611D01*
X011010Y038611D01*
X010731Y038495D01*
X010517Y038281D01*
X010401Y038002D01*
X010401Y037851D01*
X011161Y037851D01*
X011161Y037851D01*
X011161Y038611D01*
X011161Y037851D01*
X011161Y037851D01*
X010401Y037851D01*
X010401Y037700D01*
X010517Y037420D01*
X010731Y037206D01*
X011010Y037091D01*
X011161Y037091D01*
X011161Y037850D01*
X011161Y037850D01*
X011161Y037091D01*
X011312Y037091D01*
X011592Y037206D01*
X011806Y037420D01*
X011921Y037700D01*
X011921Y037851D01*
X011921Y038002D01*
X011921Y037851D02*
X011162Y037851D01*
X011162Y037851D01*
X011921Y037851D01*
X011917Y037689D02*
X013181Y037689D01*
X013181Y037370D02*
X011756Y037370D01*
X011161Y037370D02*
X011161Y037370D01*
X011161Y037689D02*
X011161Y037689D01*
X011161Y038007D02*
X011161Y038007D01*
X011161Y038326D02*
X011161Y038326D01*
X010562Y038326D02*
X008546Y038326D01*
X008681Y038191D02*
X008377Y038496D01*
X008161Y038496D01*
X007946Y038496D01*
X007641Y038191D01*
X007641Y037976D01*
X008161Y037976D01*
X008161Y037976D01*
X008161Y038496D01*
X008161Y037976D01*
X008161Y037976D01*
X007641Y037976D01*
X007641Y037760D01*
X007946Y037456D01*
X008161Y037456D01*
X008161Y037975D01*
X008161Y037975D01*
X008161Y037456D01*
X008377Y037456D01*
X008681Y037760D01*
X008681Y037976D01*
X008681Y038191D01*
X008681Y038007D02*
X010404Y038007D01*
X010406Y037689D02*
X008610Y037689D01*
X008681Y037976D02*
X008162Y037976D01*
X008681Y037976D01*
X008162Y037976D02*
X008162Y037976D01*
X008161Y038007D02*
X008161Y038007D01*
X008161Y037689D02*
X008161Y037689D01*
X007713Y037689D02*
X007411Y037689D01*
X007411Y038007D02*
X007641Y038007D01*
X007776Y038326D02*
X007411Y038326D01*
X007411Y038645D02*
X013385Y038645D01*
X013081Y038326D02*
X011761Y038326D01*
X010567Y037370D02*
X007411Y037370D01*
X007411Y037052D02*
X013181Y037052D01*
X013350Y036733D02*
X007411Y036733D01*
X007411Y036415D02*
X007780Y036415D01*
X007921Y036556D02*
X007581Y036216D01*
X007581Y035736D01*
X007921Y035396D01*
X008401Y035396D01*
X008741Y035736D01*
X008741Y036216D01*
X008401Y036556D01*
X007921Y036556D01*
X007581Y036096D02*
X007411Y036096D01*
X007411Y035778D02*
X007581Y035778D01*
X007411Y035459D02*
X007858Y035459D01*
X007411Y035141D02*
X010712Y035141D01*
X010822Y035031D02*
X010341Y035511D01*
X010341Y036190D01*
X010822Y036671D01*
X011501Y036671D01*
X011981Y036190D01*
X011981Y035511D01*
X011501Y035031D01*
X010822Y035031D01*
X010393Y035459D02*
X008465Y035459D01*
X008741Y035778D02*
X010341Y035778D01*
X010341Y036096D02*
X008741Y036096D01*
X008542Y036415D02*
X010566Y036415D01*
X011757Y036415D02*
X013668Y036415D01*
X014161Y036601D02*
X013661Y037101D01*
X014161Y036601D02*
X015161Y036601D01*
X015530Y037052D02*
X015792Y037052D01*
X015846Y036096D02*
X015477Y036096D01*
X014846Y036096D02*
X011981Y036096D01*
X011981Y035778D02*
X031721Y035778D01*
X031621Y035877D02*
X031621Y036101D01*
X032161Y036101D01*
X032161Y036101D01*
X032161Y035101D01*
X031898Y035601D02*
X013911Y035601D01*
X013911Y026226D01*
X007911Y026226D01*
X007911Y030101D01*
X007411Y030601D01*
X006661Y030681D02*
X000721Y030681D01*
X000721Y030999D02*
X006661Y030999D01*
X006661Y031318D02*
X000721Y031318D01*
X000721Y031637D02*
X006661Y031637D01*
X006661Y031955D02*
X000721Y031955D01*
X000721Y032274D02*
X003015Y032274D01*
X003046Y032261D02*
X003277Y032261D01*
X003490Y032349D01*
X003653Y032512D01*
X003661Y032532D01*
X003670Y032512D01*
X003833Y032349D01*
X004046Y032261D01*
X004277Y032261D01*
X004490Y032349D01*
X004653Y032512D01*
X004741Y032725D01*
X004741Y033476D01*
X004653Y033689D01*
X004490Y033852D01*
X004277Y033941D01*
X004046Y033941D01*
X003833Y033852D01*
X003670Y033689D01*
X003661Y033669D01*
X003653Y033689D01*
X003490Y033852D01*
X003277Y033941D01*
X003046Y033941D01*
X002833Y033852D01*
X002670Y033689D01*
X002581Y033476D01*
X002581Y032725D01*
X002670Y032512D01*
X002833Y032349D01*
X003046Y032261D01*
X003308Y032274D02*
X004015Y032274D01*
X004308Y032274D02*
X006661Y032274D01*
X006661Y032592D02*
X004686Y032592D01*
X004741Y032911D02*
X006661Y032911D01*
X006661Y033229D02*
X004741Y033229D01*
X004712Y033548D02*
X006661Y033548D01*
X006661Y033866D02*
X004456Y033866D01*
X003866Y033866D02*
X003456Y033866D01*
X002866Y033866D02*
X000721Y033866D01*
X000721Y033548D02*
X002611Y033548D01*
X002581Y033229D02*
X000721Y033229D01*
X000721Y032911D02*
X002581Y032911D01*
X002636Y032592D02*
X000721Y032592D01*
X000721Y034185D02*
X006661Y034185D01*
X006661Y034503D02*
X000721Y034503D01*
X000721Y034822D02*
X006661Y034822D01*
X006661Y035141D02*
X000721Y035141D01*
X000721Y035459D02*
X006661Y035459D01*
X006661Y035778D02*
X000721Y035778D01*
X000721Y036096D02*
X006661Y036096D01*
X006661Y036415D02*
X000721Y036415D01*
X000721Y036733D02*
X006661Y036733D01*
X006661Y037052D02*
X000721Y037052D01*
X000721Y037370D02*
X006661Y037370D01*
X006661Y037689D02*
X000721Y037689D01*
X000721Y038007D02*
X006661Y038007D01*
X006661Y038326D02*
X000721Y038326D01*
X000721Y038645D02*
X006661Y038645D01*
X008161Y038326D02*
X008161Y038326D01*
X011929Y035459D02*
X013911Y035459D01*
X013911Y035141D02*
X011611Y035141D01*
X011456Y033866D02*
X012023Y033866D01*
X012161Y033866D02*
X012161Y033866D01*
X012161Y033881D02*
X012161Y033101D01*
X012161Y033101D01*
X012161Y033881D01*
X012299Y033866D02*
X013911Y033866D01*
X013911Y033548D02*
X012647Y033548D01*
X012681Y033229D02*
X013911Y033229D01*
X013911Y032911D02*
X012681Y032911D01*
X012681Y033101D02*
X012162Y033101D01*
X012681Y033101D01*
X012621Y032592D02*
X013911Y032592D01*
X013911Y032274D02*
X011308Y032274D01*
X011015Y032274D02*
X010308Y032274D01*
X011686Y032592D02*
X011701Y032592D01*
X012161Y032592D02*
X012161Y032592D01*
X012161Y032911D02*
X012161Y032911D01*
X012162Y033101D02*
X012162Y033101D01*
X012161Y033229D02*
X012161Y033229D01*
X012161Y033548D02*
X012161Y033548D01*
X010866Y033866D02*
X010456Y033866D01*
X014661Y033229D02*
X031621Y033229D01*
X031621Y032877D02*
X031938Y032561D01*
X032161Y032561D01*
X032161Y033100D01*
X032161Y033100D01*
X032161Y030851D01*
X032161Y030999D02*
X029781Y030999D01*
X029781Y031318D02*
X032161Y031318D01*
X032161Y031637D02*
X029574Y031637D01*
X029781Y031955D02*
X032161Y031955D01*
X032161Y032274D02*
X029781Y032274D01*
X029547Y032592D02*
X031906Y032592D01*
X032161Y032592D02*
X032161Y032592D01*
X032161Y032911D02*
X032161Y032911D01*
X032161Y033229D02*
X032161Y033229D01*
X028776Y032592D02*
X028547Y032592D01*
X027776Y032592D02*
X027547Y032592D01*
X026776Y032592D02*
X026547Y032592D01*
X025776Y032592D02*
X025547Y032592D01*
X024776Y032592D02*
X024547Y032592D01*
X023776Y032592D02*
X023462Y032592D01*
X023161Y032592D02*
X023161Y032592D01*
X023161Y032661D02*
X023161Y032101D01*
X023161Y032101D01*
X022601Y032101D01*
X022162Y032101D01*
X022162Y032101D01*
X022601Y032101D01*
X023161Y032101D01*
X023161Y032101D01*
X023161Y032661D01*
X022861Y032592D02*
X022462Y032592D01*
X022161Y032592D02*
X022161Y032592D01*
X022161Y032274D02*
X022161Y032274D01*
X023161Y032274D02*
X023161Y032274D01*
X021541Y031318D02*
X018164Y031318D01*
X017847Y030999D02*
X021541Y030999D01*
X016475Y030999D02*
X014661Y030999D01*
X014661Y031318D02*
X016158Y031318D01*
X016006Y031637D02*
X014661Y031637D01*
X014661Y031955D02*
X015951Y031955D01*
X015982Y032274D02*
X014661Y032274D01*
X014661Y032592D02*
X016106Y032592D01*
X016360Y032911D02*
X014661Y032911D01*
X013911Y030044D02*
X007911Y030044D01*
X007911Y029725D02*
X013911Y029725D01*
X013911Y029407D02*
X007911Y029407D01*
X007911Y029088D02*
X013911Y029088D01*
X013911Y028770D02*
X007911Y028770D01*
X007911Y028451D02*
X013911Y028451D01*
X013911Y028133D02*
X007911Y028133D01*
X007911Y027814D02*
X009794Y027814D01*
X009833Y027852D02*
X009670Y027689D01*
X009581Y027476D01*
X009581Y026725D01*
X009670Y026512D01*
X009833Y026349D01*
X010046Y026261D01*
X010277Y026261D01*
X010490Y026349D01*
X010653Y026512D01*
X010661Y026532D01*
X010670Y026512D01*
X010833Y026349D01*
X011046Y026261D01*
X011277Y026261D01*
X011490Y026349D01*
X011653Y026512D01*
X011661Y026532D01*
X011670Y026512D01*
X011833Y026349D01*
X012046Y026261D01*
X012277Y026261D01*
X012490Y026349D01*
X012653Y026512D01*
X012741Y026725D01*
X012741Y027476D01*
X012653Y027689D01*
X012490Y027852D01*
X012277Y027941D01*
X012046Y027941D01*
X011833Y027852D01*
X011670Y027689D01*
X011661Y027669D01*
X011653Y027689D01*
X011490Y027852D01*
X011277Y027941D01*
X011046Y027941D01*
X010833Y027852D01*
X010670Y027689D01*
X010661Y027669D01*
X010653Y027689D01*
X010490Y027852D01*
X010277Y027941D01*
X010046Y027941D01*
X009833Y027852D01*
X009589Y027496D02*
X007911Y027496D01*
X007911Y027177D02*
X009581Y027177D01*
X009581Y026858D02*
X007911Y026858D01*
X007911Y026540D02*
X009658Y026540D01*
X010528Y027814D02*
X010794Y027814D01*
X011528Y027814D02*
X011794Y027814D01*
X012528Y027814D02*
X013911Y027814D01*
X013911Y027496D02*
X012733Y027496D01*
X012741Y027177D02*
X013911Y027177D01*
X013911Y026858D02*
X012741Y026858D01*
X012664Y026540D02*
X013911Y026540D01*
X013911Y023673D02*
X000721Y023673D01*
X000721Y024629D02*
X002366Y024629D01*
X002341Y024947D02*
X000721Y024947D01*
X000721Y025266D02*
X002446Y025266D01*
X002789Y025584D02*
X000721Y025584D01*
X000721Y025903D02*
X007161Y025903D01*
X007161Y026221D02*
X000721Y026221D01*
X000721Y026540D02*
X002727Y026540D01*
X002720Y026546D02*
X002867Y026400D01*
X003058Y026321D01*
X003161Y026321D01*
X003161Y027100D01*
X003161Y027100D01*
X003161Y026321D01*
X003265Y026321D01*
X003456Y026400D01*
X003602Y026546D01*
X003661Y026689D01*
X003720Y026546D01*
X003867Y026400D01*
X004058Y026321D01*
X004161Y026321D01*
X004161Y027100D01*
X004161Y027100D01*
X004161Y026321D01*
X004265Y026321D01*
X004456Y026400D01*
X004602Y026546D01*
X004681Y026737D01*
X004681Y027101D01*
X004681Y027464D01*
X004602Y027655D01*
X004456Y027802D01*
X004265Y027881D01*
X004161Y027881D01*
X004058Y027881D01*
X003867Y027802D01*
X003720Y027655D01*
X003661Y027512D01*
X003602Y027655D01*
X003456Y027802D01*
X003265Y027881D01*
X003161Y027881D01*
X003058Y027881D01*
X002867Y027802D01*
X002720Y027655D01*
X002641Y027464D01*
X002641Y027101D01*
X003161Y027101D01*
X003161Y027101D01*
X003161Y027881D01*
X003161Y027101D01*
X003161Y027101D01*
X002641Y027101D01*
X002641Y026737D01*
X002720Y026546D01*
X002641Y026858D02*
X000721Y026858D01*
X000721Y027177D02*
X002641Y027177D01*
X002654Y027496D02*
X000721Y027496D01*
X000721Y027814D02*
X002897Y027814D01*
X003161Y027814D02*
X003161Y027814D01*
X003426Y027814D02*
X003897Y027814D01*
X004161Y027814D02*
X004161Y027814D01*
X004161Y027881D02*
X004161Y027101D01*
X004161Y027101D01*
X003641Y027101D01*
X003162Y027101D01*
X003162Y027101D01*
X003641Y027101D01*
X004161Y027101D01*
X004161Y027101D01*
X004161Y027881D01*
X004426Y027814D02*
X007161Y027814D01*
X007161Y027496D02*
X004668Y027496D01*
X004681Y027177D02*
X007161Y027177D01*
X007161Y026858D02*
X004681Y026858D01*
X004681Y027101D02*
X004162Y027101D01*
X004681Y027101D01*
X004162Y027101D02*
X004162Y027101D01*
X004161Y027177D02*
X004161Y027177D01*
X004161Y027496D02*
X004161Y027496D01*
X004161Y026858D02*
X004161Y026858D01*
X004161Y026540D02*
X004161Y026540D01*
X003727Y026540D02*
X003596Y026540D01*
X003161Y026540D02*
X003161Y026540D01*
X003161Y026858D02*
X003161Y026858D01*
X003161Y027177D02*
X003161Y027177D01*
X003161Y027496D02*
X003161Y027496D01*
X004596Y026540D02*
X007161Y026540D01*
X007161Y025584D02*
X003533Y025584D01*
X003877Y025266D02*
X005756Y025266D01*
X005581Y024947D02*
X003981Y024947D01*
X003957Y024629D02*
X005581Y024629D01*
X005882Y024310D02*
X003780Y024310D01*
X006161Y023036D02*
X006161Y023036D01*
X006161Y022717D02*
X006161Y022717D01*
X007595Y020488D02*
X007629Y020488D01*
X008694Y020488D02*
X011629Y020488D01*
X011610Y020469D02*
X011511Y020230D01*
X011511Y019971D01*
X011610Y019733D01*
X011793Y019550D01*
X012032Y019451D01*
X012291Y019451D01*
X012529Y019550D01*
X012712Y019733D01*
X012811Y019971D01*
X012811Y020230D01*
X012712Y020469D01*
X012529Y020652D01*
X012291Y020751D01*
X012032Y020751D01*
X011793Y020652D01*
X011610Y020469D01*
X011511Y020169D02*
X008811Y020169D01*
X008761Y019850D02*
X011561Y019850D01*
X011836Y019532D02*
X008486Y019532D01*
X007836Y019532D02*
X007413Y019532D01*
X007049Y018576D02*
X011188Y018576D01*
X011128Y018516D02*
X011016Y018246D01*
X011016Y017955D01*
X011128Y017686D01*
X011334Y017480D01*
X011603Y017368D01*
X012719Y017368D01*
X012989Y017480D01*
X013195Y017686D01*
X013306Y017955D01*
X013306Y018246D01*
X013195Y018516D01*
X012989Y018722D01*
X012719Y018833D01*
X011603Y018833D01*
X011334Y018722D01*
X011128Y018516D01*
X011021Y018258D02*
X007237Y018258D01*
X007246Y018101D02*
X006162Y018101D01*
X006162Y018101D01*
X007246Y018101D01*
X007235Y017939D02*
X011023Y017939D01*
X011193Y017621D02*
X007045Y017621D01*
X006161Y017621D02*
X006161Y017621D01*
X006161Y017939D02*
X006161Y017939D01*
X006161Y018258D02*
X006161Y018258D01*
X006161Y018576D02*
X006161Y018576D01*
X001329Y018576D02*
X000721Y018576D01*
X000721Y018258D02*
X001142Y018258D01*
X001144Y017939D02*
X000721Y017939D01*
X000721Y017621D02*
X001333Y017621D01*
X000721Y017302D02*
X013911Y017302D01*
X013911Y016984D02*
X000721Y016984D01*
X000721Y018895D02*
X001227Y018895D01*
X001193Y019213D02*
X000721Y019213D01*
X000721Y019532D02*
X001369Y019532D01*
X001181Y019850D02*
X000721Y019850D01*
X000721Y020169D02*
X001133Y020169D01*
X001240Y020488D02*
X000721Y020488D01*
X000721Y020806D02*
X013911Y020806D01*
X013911Y020488D02*
X012694Y020488D01*
X012811Y020169D02*
X013911Y020169D01*
X013911Y019850D02*
X012761Y019850D01*
X012486Y019532D02*
X013911Y019532D01*
X014661Y019532D02*
X015570Y019532D01*
X015341Y019761D02*
X015822Y019281D01*
X016501Y019281D01*
X016981Y019761D01*
X016981Y020440D01*
X016501Y020921D01*
X015822Y020921D01*
X015341Y020440D01*
X015341Y019761D01*
X015341Y019850D02*
X014661Y019850D01*
X014661Y020169D02*
X015341Y020169D01*
X015388Y020488D02*
X014661Y020488D01*
X014661Y020806D02*
X015707Y020806D01*
X014661Y021125D02*
X019661Y021125D01*
X019661Y021443D02*
X014661Y021443D01*
X014661Y021762D02*
X019661Y021762D01*
X019661Y022080D02*
X014661Y022080D01*
X014661Y022399D02*
X019661Y022399D01*
X019661Y022717D02*
X018513Y022717D01*
X018377Y022581D02*
X018681Y022885D01*
X018681Y023101D01*
X018681Y023316D01*
X018377Y023621D01*
X018161Y023621D01*
X017946Y023621D01*
X017641Y023316D01*
X017641Y023101D01*
X018161Y023101D01*
X018161Y023101D01*
X018161Y023621D01*
X018161Y023101D01*
X018161Y023101D01*
X017641Y023101D01*
X017641Y022885D01*
X017946Y022581D01*
X018161Y022581D01*
X018161Y023100D01*
X018161Y023100D01*
X018161Y022581D01*
X018377Y022581D01*
X018161Y022717D02*
X018161Y022717D01*
X018161Y023036D02*
X018161Y023036D01*
X018162Y023101D02*
X018162Y023101D01*
X018681Y023101D01*
X018162Y023101D01*
X018161Y023354D02*
X018161Y023354D01*
X017680Y023354D02*
X016728Y023354D01*
X016741Y023341D02*
X016401Y023681D01*
X015921Y023681D01*
X015581Y023341D01*
X015581Y022861D01*
X015921Y022521D01*
X016401Y022521D01*
X016741Y022861D01*
X016741Y023341D01*
X016741Y023036D02*
X017641Y023036D01*
X017809Y022717D02*
X016598Y022717D01*
X015724Y022717D02*
X014661Y022717D01*
X014661Y023036D02*
X015581Y023036D01*
X015595Y023354D02*
X014661Y023354D01*
X014661Y023673D02*
X015913Y023673D01*
X016409Y023673D02*
X019661Y023673D01*
X019661Y023354D02*
X018643Y023354D01*
X018681Y023036D02*
X019661Y023036D01*
X019661Y020806D02*
X018444Y020806D01*
X018312Y020861D02*
X018592Y020745D01*
X018806Y020531D01*
X018921Y020252D01*
X018921Y020101D01*
X018162Y020101D01*
X018162Y020101D01*
X018921Y020101D01*
X018921Y019950D01*
X018806Y019670D01*
X018592Y019456D01*
X018312Y019341D01*
X018161Y019341D01*
X018161Y020100D01*
X018161Y020100D01*
X018161Y019341D01*
X018010Y019341D01*
X017731Y019456D01*
X017517Y019670D01*
X017401Y019950D01*
X017401Y020101D01*
X018161Y020101D01*
X018161Y020101D01*
X018161Y020861D01*
X018010Y020861D01*
X017731Y020745D01*
X017517Y020531D01*
X017401Y020252D01*
X017401Y020101D01*
X018161Y020101D01*
X018161Y020101D01*
X018161Y020861D01*
X018312Y020861D01*
X018161Y020806D02*
X018161Y020806D01*
X017878Y020806D02*
X016616Y020806D01*
X016934Y020488D02*
X017499Y020488D01*
X017401Y020169D02*
X016981Y020169D01*
X016981Y019850D02*
X017442Y019850D01*
X017655Y019532D02*
X016752Y019532D01*
X018161Y019532D02*
X018161Y019532D01*
X018161Y019850D02*
X018161Y019850D01*
X018161Y020169D02*
X018161Y020169D01*
X018161Y020488D02*
X018161Y020488D01*
X018824Y020488D02*
X019661Y020488D01*
X019661Y020169D02*
X018921Y020169D01*
X018880Y019850D02*
X019661Y019850D01*
X019661Y019532D02*
X018667Y019532D01*
X018377Y018621D02*
X018161Y018621D01*
X017946Y018621D01*
X017641Y018316D01*
X017641Y018101D01*
X018161Y018101D01*
X018161Y018101D01*
X018161Y018621D01*
X018161Y018101D01*
X018161Y018101D01*
X015161Y018101D01*
X014661Y017601D01*
X014661Y014601D01*
X014161Y014101D01*
X009481Y014101D01*
X013130Y017621D02*
X013911Y017621D01*
X013911Y017939D02*
X013300Y017939D01*
X013302Y018258D02*
X013911Y018258D01*
X013911Y018576D02*
X013134Y018576D01*
X014661Y018576D02*
X017901Y018576D01*
X018161Y018576D02*
X018161Y018576D01*
X018377Y018621D02*
X018681Y018316D01*
X018681Y018101D01*
X018162Y018101D01*
X018162Y018101D01*
X018681Y018101D01*
X018681Y017885D01*
X018377Y017581D01*
X018161Y017581D01*
X018161Y018100D01*
X018161Y018100D01*
X018161Y018101D02*
X017641Y018101D01*
X017641Y017885D01*
X017946Y017581D01*
X018161Y017581D01*
X018161Y018100D01*
X018161Y018258D02*
X018161Y018258D01*
X018161Y017939D02*
X018161Y017939D01*
X018161Y017621D02*
X018161Y017621D01*
X017906Y017621D02*
X014661Y017621D01*
X014661Y017939D02*
X017641Y017939D01*
X017641Y018258D02*
X014661Y018258D01*
X014661Y018895D02*
X019661Y018895D01*
X019661Y019213D02*
X014661Y019213D01*
X014661Y017302D02*
X019661Y017302D01*
X019661Y016984D02*
X014661Y016984D01*
X014661Y016665D02*
X019661Y016665D01*
X019661Y016346D02*
X014661Y016346D01*
X016661Y015351D02*
X017661Y015351D01*
X018161Y014851D01*
X018161Y014101D01*
X018416Y017621D02*
X019661Y017621D01*
X019661Y017939D02*
X018681Y017939D01*
X018681Y018258D02*
X019661Y018258D01*
X019661Y018576D02*
X018421Y018576D01*
X013911Y021125D02*
X000721Y021125D01*
X000721Y021443D02*
X013911Y021443D01*
X013911Y021762D02*
X000721Y021762D01*
X000721Y022080D02*
X013911Y022080D01*
X007161Y028133D02*
X000721Y028133D01*
X000721Y028451D02*
X007161Y028451D01*
X007161Y028770D02*
X000721Y028770D01*
X000721Y029088D02*
X007161Y029088D01*
X007161Y029407D02*
X000721Y029407D01*
X000721Y029725D02*
X007037Y029725D01*
X006718Y030044D02*
X000721Y030044D01*
X000721Y030362D02*
X006661Y030362D01*
X016477Y036096D02*
X031621Y036096D01*
X031621Y035877D02*
X031898Y035601D01*
X032161Y036101D02*
X032161Y037101D01*
X032161Y037100D02*
X032161Y036641D01*
X032161Y036101D01*
X032161Y036415D02*
X032161Y036415D01*
X032161Y036733D02*
X032161Y036733D01*
X032161Y037052D02*
X032161Y037052D01*
X032161Y037370D02*
X032161Y037370D01*
X031765Y036733D02*
X016741Y036733D01*
X016741Y036415D02*
X031712Y036415D01*
X050422Y037689D02*
X050901Y037689D01*
X059161Y018101D02*
X061161Y018101D01*
X062593Y014435D02*
X059647Y014435D01*
X059741Y014117D02*
X062593Y014117D01*
X062593Y013798D02*
X059679Y013798D01*
X062042Y003923D02*
X062593Y003923D01*
X062593Y003605D02*
X062323Y003605D01*
X062478Y003286D02*
X062593Y003286D01*
X062593Y002968D02*
X062545Y002968D01*
X062537Y002649D02*
X062593Y002649D01*
X062593Y002331D02*
X062451Y002331D01*
X062593Y002012D02*
X062264Y002012D01*
X062593Y001694D02*
X061890Y001694D01*
X062593Y001375D02*
X032767Y001375D01*
X033068Y001579D02*
X033068Y001579D01*
X031161Y001851D02*
X030661Y002351D01*
X030661Y004851D01*
X038421Y002012D02*
X043901Y002012D01*
X043583Y002331D02*
X039655Y002331D01*
X039161Y002331D02*
X039161Y002331D01*
X039162Y002601D02*
X039162Y002601D01*
X039161Y002601D02*
X039161Y000851D01*
X044421Y002012D02*
X044901Y002012D01*
X044161Y011501D02*
X044161Y012601D01*
X043661Y013101D01*
X040411Y013101D01*
X020161Y001056D02*
X062593Y001056D01*
X062593Y000738D02*
X020161Y000738D01*
D24*
X030661Y004851D03*
X032161Y030851D03*
X033911Y030851D03*
D25*
X035911Y031351D03*
X036661Y031351D03*
X036911Y031851D03*
X037411Y031601D03*
X038661Y031601D03*
X039286Y031601D03*
X040161Y031351D03*
X039536Y032101D03*
X041161Y032601D03*
X041161Y033601D03*
X042411Y033601D03*
X042911Y034101D03*
X042411Y035101D03*
X040661Y035601D03*
X040036Y035226D03*
X039911Y034601D03*
X038661Y034601D03*
X036161Y033101D03*
X035286Y032101D03*
X034661Y032101D03*
X037411Y029851D03*
X038286Y028726D03*
X039286Y029726D03*
X040161Y029851D03*
X040661Y029351D03*
X041161Y029851D03*
X042161Y029851D03*
X042786Y029851D03*
X043661Y029351D03*
X044161Y029976D03*
X044786Y029976D03*
X045411Y029976D03*
X044661Y029226D03*
X042161Y028851D03*
X041661Y028101D03*
X040661Y028601D03*
X041161Y031351D03*
X041661Y031726D03*
X042411Y032601D03*
X044161Y031351D03*
X044786Y031351D03*
X045411Y031351D03*
X045536Y031976D03*
X047161Y031851D03*
X047536Y033101D03*
X048661Y033101D03*
X049161Y032101D03*
X048661Y030226D03*
X047786Y030226D03*
X051911Y031101D03*
X052911Y032101D03*
X052411Y033601D03*
X049161Y034101D03*
X047161Y035101D03*
X046786Y034101D03*
X044661Y035601D03*
X051911Y028851D03*
X055786Y025601D03*
X056911Y025101D03*
X057411Y025601D03*
X058411Y025101D03*
X059661Y026101D03*
X057161Y023101D03*
X056661Y022101D03*
X056411Y021601D03*
X057536Y021601D03*
X058786Y020601D03*
X056536Y020101D03*
X054911Y020101D03*
X054411Y020601D03*
X054911Y021601D03*
X051911Y022601D03*
X050411Y022601D03*
X049911Y022101D03*
X050411Y021101D03*
X049411Y020601D03*
X047911Y022101D03*
X049911Y024101D03*
X054911Y023976D03*
X054911Y024476D03*
X060411Y022601D03*
X057661Y018601D03*
X056411Y017851D03*
X057536Y016476D03*
X056411Y016101D03*
X055911Y015101D03*
X058036Y014476D03*
X054661Y013601D03*
X052661Y011351D03*
X051911Y010976D03*
X051161Y012351D03*
X049661Y013476D03*
X050661Y014851D03*
X051161Y015851D03*
X051786Y015851D03*
X050536Y016351D03*
X049661Y015851D03*
X049911Y017851D03*
X051661Y017851D03*
X052036Y019101D03*
X045911Y019101D03*
X043161Y016351D03*
X040411Y017601D03*
X039411Y019351D03*
X038911Y021101D03*
X038036Y021601D03*
X038911Y024101D03*
X042411Y022601D03*
X034911Y024101D03*
X034411Y026601D03*
X034911Y027101D03*
X035411Y027851D03*
X034911Y028351D03*
X031411Y029101D03*
X030161Y020101D03*
X031411Y017851D03*
X034411Y019101D03*
X034661Y015601D03*
X038911Y014851D03*
X040411Y014851D03*
X039911Y013851D03*
X040411Y013101D03*
X039411Y012351D03*
X037036Y012226D03*
X036786Y011476D03*
X036161Y010976D03*
X035536Y010976D03*
X034911Y010976D03*
X034661Y012226D03*
X037911Y010101D03*
X038536Y010601D03*
X040286Y009601D03*
X040661Y009101D03*
X039536Y008601D03*
X039911Y008101D03*
X037161Y007351D03*
X037036Y008476D03*
X033786Y008601D03*
X033161Y008601D03*
X032536Y008226D03*
X032161Y008601D03*
X031411Y009101D03*
X031661Y009601D03*
X033911Y005101D03*
X031786Y004101D03*
X041161Y003351D03*
X042161Y004601D03*
X042661Y005101D03*
X044161Y007351D03*
X043661Y009101D03*
X048161Y007601D03*
X048661Y006601D03*
X051161Y008351D03*
X049161Y008851D03*
X049661Y009851D03*
X047661Y012101D03*
X053161Y007851D03*
X054161Y006851D03*
X052411Y005601D03*
X052911Y005101D03*
X055661Y005101D03*
X056661Y007351D03*
X056161Y008851D03*
X056161Y009476D03*
X056661Y009726D03*
X057661Y009976D03*
X054661Y010101D03*
X020661Y008601D03*
X019661Y009601D03*
D26*
X018161Y012101D02*
X017661Y012601D01*
X012161Y012601D01*
X011661Y012101D01*
X011661Y011101D01*
X011665Y011097D01*
X011665Y010998D01*
X011161Y010101D02*
X011161Y005101D01*
X011661Y004601D01*
X017661Y004601D01*
X018161Y004101D01*
X011161Y010101D02*
X010665Y010597D01*
X010665Y010599D01*
X041161Y003351D02*
X041411Y003101D01*
X044661Y003101D01*
X045161Y002601D01*
D27*
X045161Y004601D02*
X044911Y004601D01*
X044411Y005101D01*
X042661Y005101D01*
X042161Y004601D02*
X044161Y004601D01*
X045411Y006101D02*
X040411Y006101D01*
X039411Y005101D01*
X038911Y005101D01*
X038411Y004601D01*
X038161Y004601D01*
X038911Y004101D02*
X038411Y003601D01*
X038161Y003601D01*
X038911Y004101D02*
X053911Y004101D01*
X054911Y005101D01*
X055661Y005101D01*
X056161Y005601D02*
X052411Y005601D01*
X051911Y005601D02*
X051911Y005851D01*
X052161Y006101D01*
X057661Y006101D01*
X057911Y006351D01*
X057911Y009101D01*
X053911Y013101D01*
X053761Y013101D01*
X053761Y014101D02*
X055411Y014101D01*
X055911Y013601D01*
X057161Y013601D01*
X057661Y013101D01*
X057661Y009976D01*
X056661Y009726D02*
X056661Y008601D01*
X056411Y008351D01*
X051161Y008351D01*
X050911Y009851D02*
X049661Y009851D01*
X048911Y009476D02*
X056161Y009476D01*
X056161Y008851D02*
X049161Y008851D01*
X048911Y009476D02*
X048661Y009726D01*
X048661Y010851D01*
X048161Y011351D01*
X048161Y011501D01*
X047661Y012101D02*
X047661Y008851D01*
X047411Y008601D01*
X039536Y008601D01*
X039911Y008101D02*
X049036Y008101D01*
X049286Y007851D01*
X053161Y007851D01*
X053911Y007101D02*
X045411Y007101D01*
X044661Y007851D01*
X040411Y007851D01*
X039911Y007351D01*
X037161Y007351D01*
X036661Y007601D02*
X036661Y006351D01*
X036911Y006101D01*
X038411Y006101D01*
X038911Y006601D01*
X039161Y006601D01*
X038911Y007101D02*
X038411Y006601D01*
X038161Y006601D01*
X038911Y007101D02*
X043911Y007101D01*
X044161Y007351D01*
X045411Y006101D02*
X046411Y005101D01*
X051411Y005101D01*
X051911Y005601D01*
X051161Y005601D02*
X050911Y005601D01*
X050411Y006101D01*
X049161Y006101D01*
X048661Y006601D01*
X048411Y007351D02*
X056661Y007351D01*
X058286Y006101D02*
X058286Y013476D01*
X057661Y014101D01*
X057661Y014351D01*
X057411Y014601D01*
X055911Y014601D01*
X055661Y014851D01*
X054161Y014851D01*
X053911Y015101D01*
X053761Y015101D01*
X052761Y016101D02*
X052036Y016101D01*
X051786Y015851D01*
X052161Y015601D02*
X051911Y015351D01*
X039911Y015351D01*
X039411Y014851D01*
X039411Y012351D01*
X038911Y012101D02*
X038911Y014851D01*
X040411Y014851D02*
X049661Y014851D01*
X050911Y013601D01*
X054661Y013601D01*
X055411Y014601D02*
X055911Y014101D01*
X057161Y014101D01*
X058036Y014476D02*
X058036Y015351D01*
X058286Y015601D01*
X058411Y015726D01*
X058411Y016726D01*
X058786Y017101D01*
X061161Y017101D01*
X058161Y015976D02*
X058161Y019476D01*
X058786Y020101D01*
X061161Y020101D01*
X061161Y021101D02*
X061661Y021101D01*
X061911Y021351D01*
X061911Y022726D01*
X061661Y022976D01*
X060661Y022976D01*
X060161Y023476D01*
X060161Y029351D01*
X059786Y029726D01*
X056536Y029726D01*
X056161Y030101D01*
X056161Y033101D01*
X056411Y033601D02*
X055661Y033601D01*
X055411Y033351D01*
X055411Y029726D01*
X055786Y029351D01*
X059661Y029351D01*
X059911Y029101D01*
X059911Y026851D01*
X059661Y026601D01*
X059661Y026101D01*
X058661Y026101D02*
X058661Y027101D01*
X058411Y027351D01*
X058411Y028726D01*
X058161Y028976D01*
X054286Y028976D01*
X053536Y029726D01*
X053536Y033601D01*
X052911Y034226D01*
X052286Y034226D01*
X051161Y033101D01*
X050411Y033601D02*
X050911Y034101D01*
X051161Y034101D01*
X050411Y033601D02*
X042411Y033601D01*
X042911Y034101D02*
X039161Y034101D01*
X038661Y033726D02*
X038536Y033601D01*
X038286Y033601D01*
X038161Y033476D01*
X038161Y033101D01*
X038661Y032851D02*
X038661Y033351D01*
X038911Y033601D01*
X041161Y033601D01*
X040911Y033101D02*
X044161Y033101D01*
X045161Y033101D02*
X047536Y033101D01*
X048161Y032601D02*
X048661Y033101D01*
X049286Y033101D02*
X050161Y033101D01*
X049286Y033101D02*
X048536Y032351D01*
X045286Y032351D01*
X045036Y032101D01*
X041661Y032101D01*
X041161Y032601D01*
X040661Y032851D02*
X040911Y033101D01*
X040661Y032851D02*
X040661Y031351D01*
X042161Y029851D01*
X041661Y029851D02*
X040161Y031351D01*
X039411Y031601D02*
X039286Y031601D01*
X039411Y031601D02*
X041161Y029851D01*
X040661Y029851D02*
X040661Y029351D01*
X040661Y029851D02*
X039411Y031101D01*
X039161Y031101D01*
X038661Y031601D01*
X037911Y031601D02*
X038911Y030601D01*
X039411Y030601D01*
X040161Y029851D01*
X039286Y029726D02*
X037411Y031601D01*
X037911Y031601D02*
X037911Y031976D01*
X038036Y032101D01*
X039536Y032101D01*
X039161Y032851D02*
X039161Y033101D01*
X039161Y032851D02*
X038661Y032351D01*
X035536Y032351D01*
X035286Y032101D01*
X035661Y031851D02*
X036911Y031851D01*
X036661Y031351D02*
X039411Y028601D01*
X040661Y028601D01*
X041161Y028226D02*
X041661Y028726D01*
X041661Y029851D01*
X042786Y029851D02*
X041286Y031351D01*
X041161Y031351D01*
X041661Y031601D02*
X041661Y031726D01*
X041661Y031601D02*
X043161Y030101D01*
X043161Y029476D01*
X042536Y028851D01*
X042161Y028851D01*
X041911Y028351D02*
X041661Y028101D01*
X041911Y028351D02*
X042536Y028351D01*
X043536Y029351D01*
X043661Y029351D01*
X043661Y029851D02*
X043661Y031601D01*
X043911Y031851D01*
X045411Y031851D01*
X045536Y031976D01*
X045411Y031351D02*
X045411Y029976D01*
X044786Y029976D02*
X044786Y031351D01*
X044161Y031351D02*
X044161Y029976D01*
X043661Y029851D02*
X044286Y029226D01*
X044661Y029226D01*
X044411Y028351D02*
X043411Y028351D01*
X043161Y028101D01*
X043161Y027701D01*
X044411Y028351D02*
X047161Y031101D01*
X047161Y031851D01*
X048161Y032601D02*
X042411Y032601D01*
X045161Y034101D02*
X046786Y034101D01*
X047161Y035101D02*
X046661Y035601D01*
X044661Y035601D01*
X045161Y036101D02*
X045161Y036351D01*
X044911Y036601D01*
X043786Y036601D01*
X042786Y035601D01*
X040661Y035601D01*
X040161Y035101D02*
X042411Y035101D01*
X040161Y035101D02*
X040036Y035226D01*
X039911Y034601D02*
X048911Y034601D01*
X049911Y035601D01*
X050411Y035601D01*
X050911Y036101D01*
X051161Y036101D01*
X049661Y034601D02*
X054911Y034601D01*
X055911Y035601D01*
X056411Y035601D01*
X056911Y036101D01*
X057161Y036101D01*
X057161Y034101D02*
X056911Y034101D01*
X056411Y033601D01*
X052911Y032101D02*
X052911Y027226D01*
X053286Y026851D01*
X054161Y026851D01*
X054411Y026601D01*
X054411Y023726D01*
X054286Y023601D01*
X053536Y023601D01*
X053286Y023351D01*
X053286Y021851D01*
X053036Y021601D01*
X038036Y021601D01*
X037561Y022101D02*
X047911Y022101D01*
X049161Y021101D02*
X050411Y021101D01*
X049911Y022101D02*
X052761Y022101D01*
X053286Y021351D02*
X053536Y021601D01*
X054911Y021601D01*
X053761Y022101D02*
X056661Y022101D01*
X056411Y021601D02*
X057536Y021601D01*
X058786Y020601D02*
X054411Y020601D01*
X054911Y020101D02*
X056536Y020101D01*
X057661Y018601D02*
X040161Y018601D01*
X039411Y019351D01*
X037911Y019101D02*
X040661Y016351D01*
X043161Y016351D01*
X040661Y015851D02*
X049661Y015851D01*
X050161Y016351D02*
X049911Y016601D01*
X049911Y017851D01*
X051161Y017351D02*
X051161Y015851D01*
X050536Y016351D02*
X050161Y016351D01*
X051161Y017351D02*
X051661Y017851D01*
X052036Y019101D02*
X045911Y019101D01*
X048661Y020601D02*
X049161Y021101D01*
X049411Y020601D02*
X053036Y020601D01*
X053286Y020851D01*
X053286Y021351D01*
X053761Y021101D02*
X061161Y021101D01*
X060411Y022601D02*
X058161Y024851D01*
X057161Y024851D01*
X056911Y025101D01*
X056411Y025351D02*
X056661Y025601D01*
X057411Y025601D01*
X056411Y025351D02*
X056411Y024476D01*
X055911Y023976D01*
X054911Y023976D01*
X054911Y024476D02*
X054911Y025351D01*
X055161Y025601D01*
X055786Y025601D01*
X053761Y024101D02*
X053661Y024101D01*
X053161Y023601D01*
X021411Y023601D01*
X021161Y023351D01*
X021161Y012101D01*
X019161Y010101D01*
X019161Y003351D01*
X018786Y002976D01*
X014161Y002976D01*
X014161Y002101D01*
X014161Y002976D02*
X010036Y002976D01*
X009661Y003351D01*
X009661Y009601D01*
X009860Y009800D01*
X010665Y009800D01*
X010665Y009000D02*
X010061Y009000D01*
X009911Y008851D01*
X009911Y003476D01*
X010161Y003226D01*
X014161Y003226D01*
X014161Y004101D01*
X014161Y003226D02*
X018661Y003226D01*
X018911Y003476D01*
X018911Y010226D01*
X020911Y012226D01*
X020911Y024101D01*
X021411Y024601D01*
X052161Y024601D01*
X052661Y024101D01*
X052761Y024101D01*
X053761Y023101D02*
X057161Y023101D01*
X058411Y025101D02*
X058411Y025851D01*
X058661Y026101D01*
X059161Y025101D02*
X059161Y028101D01*
X052411Y026601D02*
X052411Y033601D01*
X049661Y034601D02*
X049161Y034101D01*
X049161Y032101D02*
X048661Y032101D01*
X045661Y029101D01*
X045661Y027351D01*
X045536Y027226D01*
X040411Y027226D01*
X040161Y026976D01*
X040161Y026701D01*
X041161Y028226D02*
X038911Y028226D01*
X037286Y026601D01*
X034411Y026601D01*
X034911Y027101D02*
X035161Y027351D01*
X036911Y027351D01*
X038286Y028726D01*
X037411Y029851D02*
X035911Y031351D01*
X035411Y031601D02*
X035661Y031851D01*
X035411Y031601D02*
X035411Y027851D01*
X034911Y028351D02*
X034911Y031101D01*
X034661Y031351D01*
X034661Y032101D01*
X034161Y032351D02*
X034411Y032601D01*
X038411Y032601D01*
X038661Y032851D01*
X038661Y033726D02*
X038661Y034601D01*
X039161Y035101D02*
X039161Y035476D01*
X039036Y035601D01*
X036411Y035601D01*
X036161Y035351D01*
X036161Y033101D01*
X034161Y032351D02*
X034161Y031351D01*
X034661Y030851D01*
X034661Y030351D01*
X034161Y029851D01*
X031661Y029851D01*
X031411Y029601D01*
X031411Y029101D01*
X030161Y026601D02*
X030661Y026101D01*
X050411Y026101D01*
X050661Y026351D01*
X050661Y027101D01*
X050161Y027601D01*
X050161Y027701D01*
X051161Y026701D02*
X051161Y026101D01*
X050661Y025601D01*
X020911Y025601D01*
X020411Y025101D01*
X020411Y012476D01*
X018786Y010851D01*
X014911Y010851D01*
X014161Y010101D01*
X013411Y009351D01*
X012161Y009351D01*
X011661Y009351D01*
X011665Y009355D01*
X011665Y009400D01*
X011665Y010199D02*
X011665Y010230D01*
X011911Y010476D01*
X013536Y010476D01*
X014161Y011101D01*
X014161Y011851D01*
X014161Y012101D01*
X014161Y011101D02*
X014911Y011101D01*
X018661Y011101D01*
X020161Y012601D01*
X020161Y026101D01*
X020661Y026601D01*
X030161Y026601D01*
X034911Y024101D02*
X036561Y024101D01*
X036561Y023101D02*
X036161Y023101D01*
X035911Y022851D01*
X035911Y020851D01*
X036161Y020601D01*
X048661Y020601D01*
X050411Y022601D02*
X051911Y022601D01*
X049911Y024101D02*
X038911Y024101D01*
X037561Y025101D02*
X050911Y025101D01*
X052411Y026601D01*
X051911Y028851D02*
X051911Y031101D01*
X048661Y030226D02*
X048661Y027101D01*
X048161Y026601D01*
X048161Y026701D01*
X046661Y027351D02*
X046661Y028101D01*
X047786Y029226D01*
X047786Y030226D01*
X046661Y027351D02*
X046161Y026851D01*
X046161Y026701D01*
X042411Y022601D02*
X037161Y022601D01*
X036661Y022101D01*
X036561Y022101D01*
X037561Y021101D02*
X038911Y021101D01*
X037911Y020101D02*
X040411Y017601D01*
X040661Y015851D02*
X037911Y018601D01*
X037286Y018601D01*
X036786Y019101D01*
X036561Y019101D01*
X036561Y020101D02*
X030161Y020101D01*
X031411Y017851D02*
X031411Y013601D01*
X031911Y013101D01*
X036561Y013101D01*
X037036Y012851D02*
X037036Y013351D01*
X036786Y013601D01*
X035161Y013601D01*
X034161Y014601D01*
X034161Y016601D01*
X034411Y016851D01*
X034411Y019101D01*
X037561Y019101D02*
X037911Y019101D01*
X037911Y020101D02*
X037561Y020101D01*
X037561Y016101D02*
X037561Y016001D01*
X037161Y015601D01*
X034661Y015601D01*
X037036Y012851D02*
X039161Y010726D01*
X039161Y010501D01*
X039161Y010476D01*
X039661Y010101D02*
X037411Y007851D01*
X036911Y007851D01*
X036661Y007601D01*
X037036Y008476D02*
X038536Y009976D01*
X038536Y010601D01*
X037911Y010101D02*
X033911Y006101D01*
X033911Y005101D01*
X033161Y004851D02*
X033161Y004601D01*
X033161Y004851D02*
X032661Y005351D01*
X032661Y007351D01*
X033036Y007726D01*
X033911Y007726D01*
X036786Y010601D01*
X036786Y011476D01*
X036661Y011851D02*
X034911Y011851D01*
X034411Y011351D01*
X034411Y010976D01*
X032161Y008726D01*
X032161Y008601D01*
X032536Y008476D02*
X032536Y008226D01*
X032536Y008476D02*
X034911Y010851D01*
X034911Y010976D01*
X035536Y010976D02*
X033161Y008601D01*
X033786Y008601D02*
X036161Y010976D01*
X036661Y011851D02*
X037036Y012226D01*
X038911Y012101D02*
X039161Y011851D01*
X039161Y011501D01*
X039661Y011851D02*
X039661Y010101D01*
X040286Y009601D02*
X042911Y009601D01*
X043161Y009851D01*
X043161Y010501D01*
X043661Y010601D02*
X043161Y011101D01*
X043161Y011501D01*
X043161Y011601D01*
X043661Y010601D02*
X043661Y009601D01*
X043411Y009351D01*
X043661Y009101D01*
X043411Y009351D02*
X043161Y009101D01*
X040661Y009101D01*
X039661Y011851D02*
X039911Y012101D01*
X039911Y013851D01*
X045161Y012976D02*
X045161Y011501D01*
X045161Y012976D02*
X045661Y013476D01*
X049661Y013476D01*
X050911Y014601D02*
X055411Y014601D01*
X055911Y015101D02*
X057286Y015101D01*
X058161Y015976D01*
X057536Y016476D02*
X057536Y017476D01*
X057161Y017851D01*
X057161Y018101D01*
X056411Y017851D02*
X056411Y016851D01*
X056911Y016351D01*
X056911Y015851D01*
X056661Y015601D01*
X052161Y015601D01*
X050911Y014601D02*
X050661Y014851D01*
X051911Y012851D02*
X054661Y010101D01*
X052661Y011351D02*
X052161Y011351D01*
X051161Y012351D01*
X051911Y012851D02*
X047411Y012851D01*
X047161Y012601D01*
X047161Y011501D01*
X050161Y011501D02*
X050161Y011226D01*
X050411Y010976D01*
X051911Y010976D01*
X051161Y010501D02*
X051161Y010101D01*
X050911Y009851D01*
X048411Y007351D02*
X048161Y007601D01*
X052411Y004601D02*
X052911Y005101D01*
X052411Y004601D02*
X051161Y004601D01*
X053911Y007101D02*
X054161Y006851D01*
X057161Y005601D02*
X057786Y005601D01*
X058286Y006101D01*
X056411Y016101D02*
X054411Y018101D01*
X053761Y018101D01*
X034661Y012226D02*
X034661Y012101D01*
X034036Y011476D01*
X034036Y011101D01*
X031661Y008726D01*
X031661Y006351D01*
X032161Y005851D01*
X032161Y005601D01*
X030661Y004851D02*
X030036Y004851D01*
X029786Y004601D01*
X023161Y004601D01*
X023161Y004101D01*
X023161Y004601D02*
X022411Y004601D01*
X022161Y004351D01*
X022161Y004101D01*
X020661Y008601D02*
X030411Y008601D01*
X030911Y009101D01*
X031411Y009101D01*
X031661Y009601D02*
X019661Y009601D01*
X014161Y006601D02*
X014161Y006101D01*
X014161Y006601D02*
X013559Y007203D01*
X012665Y007203D01*
X031786Y004101D02*
X036411Y004101D01*
X037911Y005601D01*
X038161Y005601D01*
D28*
X020411Y036101D03*
D29*
X004492Y036715D03*
X002130Y002857D03*
M02*
