%
M48
M72
T01C0.0236
T02C0.0320
T03C0.0354
T04C0.0360
T05C0.0400
T06C0.0470
T07C0.1575
%
T01
X33850Y37350
X38600Y37850
X25100Y37850
T02
X26850Y38600
X29350Y38600
X31850Y38600
X32850Y36100
X30350Y36100
X29350Y34600
X27850Y36100
X26850Y34600
X25850Y32100
X27850Y32100
X30350Y32100
X32850Y32100
X31600Y30100
X31600Y29100
X31600Y28100
X31600Y27100
X31600Y26100
X31600Y25100
X31600Y24100
X31600Y23100
X31600Y22100
X31600Y21100
X31600Y20100
X31600Y19100
X31600Y18100
X31600Y17100
X28600Y17100
X28600Y18100
X28600Y19100
X28600Y20100
X28600Y21100
X28600Y22100
X28600Y23100
X28600Y24100
X28600Y25100
X28600Y26100
X28600Y27100
X28600Y28100
X28600Y29100
X28600Y30100
X25850Y28100
X27100Y26100
X27100Y24850
X23100Y24850
X23100Y26100
X22100Y26100
X22100Y28100
X22100Y30100
X22100Y32100
X18100Y32100
X16600Y32100
X16600Y31100
X16600Y30100
X16600Y29100
X18100Y30100
X18100Y28100
X16600Y28100
X16600Y27100
X16600Y26100
X18100Y26100
X16600Y24100
X16600Y23100
X18100Y23100
X16600Y22100
X16600Y21100
X18100Y21100
X16600Y20100
X16600Y19100
X18100Y19100
X16600Y18100
X16600Y17100
X18100Y17100
X22100Y17100
X22100Y19100
X22100Y21100
X22100Y23100
X13600Y23100
X13600Y24100
X11600Y24100
X11600Y23100
X11600Y22100
X11600Y21100
X11600Y20100
X11600Y19100
X11600Y18100
X13600Y18100
X13600Y17100
X13600Y19100
X13600Y20100
X13600Y21100
X13600Y22100
X11600Y25100
X13600Y26100
X13600Y27100
X13600Y28100
X13600Y29100
X13600Y30100
X13600Y31100
X13600Y32100
X13600Y33100
X11600Y33100
X11600Y32100
X11600Y31100
X11600Y30100
X11600Y29100
X11600Y28100
X11600Y27100
X8600Y27100
X8600Y28100
X7100Y28100
X8600Y29100
X8600Y30100
X7100Y30100
X8600Y31100
X8600Y32100
X7100Y32100
X8600Y33100
X8600Y34100
X7100Y34100
X3100Y34100
X3100Y32100
X3100Y30100
X3100Y28100
X3100Y25100
X3100Y23100
X3100Y21100
X3100Y19100
X7100Y19100
X8600Y19100
X8600Y20100
X8600Y21100
X8600Y22100
X7100Y21100
X7100Y23100
X8600Y23100
X8600Y24100
X8600Y25100
X7100Y25100
X8600Y18100
X8600Y13600
X10100Y13600
X12100Y13600
X13600Y13600
X15600Y13600
X17100Y13600
X19100Y13600
X20600Y13600
X22600Y13600
X24100Y13600
X26100Y13600
X27600Y13600
X27600Y9600
X26100Y9600
X24100Y9600
X22600Y9600
X20600Y9600
X19100Y9600
X17100Y9600
X15600Y9600
X13600Y9600
X12100Y9600
X12600Y8100
X13600Y8100
X16100Y8100
X17100Y8100
X19600Y8100
X20600Y8100
X23100Y8100
X24100Y8100
X26600Y8100
X27600Y8100
X35600Y9600
X37100Y9600
X39100Y9600
X40600Y9600
X42600Y9600
X44100Y9600
X46100Y9600
X47600Y9600
X49600Y9600
X51100Y9600
X51100Y8100
X50100Y8100
X47600Y8100
X46600Y8100
X44100Y8100
X43100Y8100
X40600Y8100
X39600Y8100
X37100Y8100
X36100Y8100
X43600Y3350
X45600Y3350
X53600Y8100
X54600Y8100
X54600Y9600
X53100Y9600
X56600Y9600
X58100Y9600
X58100Y8100
X57100Y8100
X60100Y9600
X61600Y9600
X61600Y8100
X60600Y8100
X60100Y13600
X61600Y13600
X58100Y13600
X56600Y13600
X54600Y13600
X53100Y13600
X51100Y13600
X49600Y13600
X47600Y13600
X46100Y13600
X44100Y13600
X42600Y13600
X40600Y13600
X39100Y13600
X37100Y13600
X35600Y13600
X42600Y17350
X42600Y18350
X42600Y19350
X41100Y18350
X41100Y20350
X42600Y20350
X42600Y21350
X42600Y22350
X42600Y23350
X41100Y22350
X41100Y24350
X42600Y24350
X42600Y26350
X42600Y27350
X42600Y28350
X41100Y27350
X41100Y29350
X42600Y29350
X42600Y30350
X42600Y31350
X42600Y32350
X41100Y31350
X41100Y33350
X42600Y33350
X45600Y33350
X45600Y32350
X45600Y31350
X45600Y30350
X45600Y29350
X45600Y28350
X45600Y27350
X45600Y26350
X47600Y26350
X47600Y25350
X45600Y24350
X45600Y23350
X45600Y22350
X45600Y21350
X45600Y20350
X45600Y19350
X45600Y18350
X45600Y17350
X47600Y17350
X47600Y16350
X47600Y18350
X47600Y19350
X47600Y20350
X47600Y21350
X47600Y22350
X47600Y23350
X50600Y23350
X50600Y22350
X52100Y22350
X50600Y21350
X50600Y20350
X52100Y20350
X50600Y19350
X50600Y18350
X52100Y18350
X50600Y17350
X50600Y16350
X52100Y16350
X56100Y16350
X56100Y18350
X56100Y20350
X56100Y22350
X56100Y25350
X56100Y27350
X56100Y29350
X56100Y31350
X52100Y31350
X50600Y31350
X50600Y32350
X50600Y30350
X50600Y29350
X52100Y29350
X50600Y28350
X50600Y27350
X52100Y27350
X50600Y26350
X50600Y25350
X52100Y25350
X47600Y27350
X47600Y28350
X47600Y29350
X47600Y30350
X47600Y31350
X47600Y32350
X37100Y31350
X37100Y29350
X37100Y27350
X33600Y27100
X33600Y25100
X37100Y24350
X37100Y22350
X37100Y20350
X37100Y18350
X16600Y33100
X15600Y35100
X15600Y36100
X13350Y36100
X13350Y35100
X11600Y34100
X31850Y34600
X35100Y35100
X35100Y36100
X37100Y36100
X37100Y35100
X37100Y33350
X6600Y13600
X5100Y13600
X3100Y13600
X1600Y13600
X1600Y9600
X3100Y9600
X3100Y8100
X2100Y8100
X5100Y9600
X6600Y9600
X8600Y9600
X10100Y9600
X10100Y8100
X9100Y8100
X6600Y8100
X5600Y8100
X9100Y2600
X10100Y2600
X11600Y2600
X15600Y2600
T03
X9350Y37350
X49850Y37350
T04
X44100Y37100
X43100Y37100
X43100Y36100
X44100Y36100
X42100Y36100
X41100Y36100
X41100Y37100
X42100Y37100
X40100Y37100
X40100Y36100
X23100Y36100
X23100Y37100
X22100Y37100
X21100Y37100
X21100Y36100
X22100Y36100
X20100Y36100
X19100Y36100
X19100Y37100
X20100Y37100
X25600Y3600
X26600Y3600
X27600Y3600
X28600Y3600
X29600Y3600
X30600Y3600
X31600Y3600
X32600Y3600
X33600Y3600
X34600Y3600
X35600Y3600
X36600Y3600
X37600Y3600
X37600Y2600
X36600Y2600
X35600Y2600
X34600Y2600
X33600Y2600
X32600Y2600
X31600Y2600
X30600Y2600
X29600Y2600
X28600Y2600
X27600Y2600
X26600Y2600
X25600Y2600
T05
X47600Y3350
X49600Y3350
X35100Y29350
X35100Y31350
X15100Y37850
X14100Y37850
X13100Y37850
X12100Y37850
T06
X17100Y2600
X21100Y2600
T07
X3100Y3100
X3100Y36350
X60100Y36350
X60100Y3100
M30
